<svg width="280" height="199" viewBox="0 0 280 199" fill="none" xmlns="http://www.w3.org/2000/svg">
<g clip-path="url(#clip0_289_70)">
<path d="M280 118.532C280 113.705 278.73 111.254 277.495 108.881C276.26 106.509 275.096 104.267 275.096 99.6546C275.009 96.54 275.538 93.4283 276.676 90.3563C277.843 87.1904 278.388 83.984 278.303 80.7747C278.303 75.9482 277.015 73.4938 275.775 71.1216C274.534 68.7494 273.351 66.5095 273.351 61.8974C273.351 57.2854 274.522 55.0402 275.693 52.668C276.863 50.2958 278.162 47.8441 278.162 43.0202C278.241 39.8179 277.746 36.618 276.682 33.4519C275.658 30.3703 275.19 27.2562 275.283 24.1403C275.23 21.0185 275.577 17.8979 276.325 14.7944C277.089 11.6293 277.445 8.44684 277.39 5.26308C277.422 4.95913 277.315 4.65545 277.075 4.37112C276.836 4.0868 276.468 3.828 275.997 3.61099C274.241 2.85114 271.566 2.88556 268.974 2.91998C268.441 2.91998 267.903 2.91998 267.364 2.91998C256.899 2.91998 251.813 2.39046 246.429 1.86094C241.044 1.33143 235.519 0.754256 224.598 0.754256C217.348 0.718012 210.104 0.958024 202.943 1.47175C195.977 1.97595 188.928 2.20979 181.873 2.17071C171.409 2.17071 166.323 1.64119 160.938 1.11168C155.554 0.582163 150.023 -0.000303932 139.108 -0.000303932C131.86 -0.0361689 124.617 0.195823 117.453 0.69336C110.483 1.18251 103.435 1.40922 96.3828 1.37114C85.725 1.37114 80.3053 1.29436 75.0671 1.22288C69.8289 1.15139 64.3391 1.07461 53.6228 1.07461C42.9065 1.07461 37.5453 0.995185 32.3013 0.921052C27.0573 0.84692 21.5791 0.767494 10.8569 0.767494C6.37958 0.767494 3.36547 2.57314 3.36547 5.26838C3.36547 9.98901 3.36547 12.348 3.36547 14.707C3.36547 17.066 3.36547 19.4276 3.36547 24.1483C3.4308 27.2675 3.01818 30.3849 2.13056 33.4783C1.22293 36.6446 0.800509 39.8355 0.86635 43.0282C0.86635 47.77 1.12386 50.1766 1.36968 52.5118C1.61549 54.8469 1.873 57.2086 1.873 61.908C1.873 66.6075 1.6506 68.9956 1.43405 71.3069C1.2175 73.6183 0.989234 76.0461 0.989234 80.7853C0.875711 84.0274 1.6483 87.2634 3.28939 90.4198C4.45993 92.8026 5.50173 95.0425 5.50173 99.6625C5.50173 104.283 4.21998 106.501 2.86801 108.871C1.51603 111.24 0.0996094 113.705 0.0996094 118.542C0.0996094 123.274 0.240129 125.691 0.374742 128.008C0.509354 130.324 0.649802 132.715 0.649802 137.422C0.558761 140.638 1.15661 143.851 2.43491 147.014C3.67462 150.077 4.25088 153.187 4.15558 156.3C4.15558 161.049 4.51256 163.464 4.85202 165.799C5.19147 168.134 5.53681 170.488 5.53681 175.177C5.53681 179.799 4.47748 182.045 3.35961 184.425C2.24175 186.805 1.08876 189.238 1.08876 194.057C1.08876 196.439 6.13382 198.028 10.8394 198.028C21.5557 198.028 27.0046 197.962 32.2779 197.901C37.5512 197.84 42.9416 197.776 53.6052 197.776C60.6712 197.743 67.7332 197.944 74.7336 198.38C81.9089 198.825 89.1466 199.032 96.3887 199C103.637 199.036 110.88 198.803 118.044 198.303C125.014 197.817 132.061 197.591 139.114 197.628C146.358 197.662 153.598 197.443 160.769 196.974C167.758 196.515 174.817 196.302 181.879 196.339C192.356 196.339 197.448 196.826 202.838 197.342C208.228 197.859 213.736 198.401 224.645 198.401C235.408 198.401 240.886 198.216 246.177 198.039C251.468 197.861 256.794 197.684 267.405 197.684C268.611 197.684 270.331 197.618 271.578 197.059C272.977 196.418 272.959 195.523 272.942 194.488C272.942 194.351 272.942 194.223 272.942 194.062C272.846 190.948 273.434 187.838 274.698 184.777C275.995 181.613 276.603 178.399 276.512 175.182C276.579 171.987 276.145 168.794 275.213 165.627C274.299 162.536 273.877 159.42 273.948 156.302C273.948 151.579 273.908 149.178 273.872 146.856C273.837 144.534 273.79 142.138 273.79 137.422C273.79 132.839 275.277 130.61 276.851 128.251C278.426 125.892 280 123.39 280 118.532Z" fill="white"/>
</g>
<path d="M149.345 52.3021C149.376 53.3569 149.348 54.4126 149.261 55.4643C149.099 56.6836 149.662 56.926 150.718 56.9822C153.923 57.1214 157.06 57.947 159.918 59.4031C163.437 61.2162 166.084 63.8549 167.527 67.5794C167.794 68.2646 168.252 68.4332 168.861 68.6335C171.961 69.6419 173.788 72.625 173.359 75.9313C173.139 77.4573 172.4 78.8611 171.264 79.9058C170.129 80.9505 168.667 81.572 167.126 81.6656C165.599 81.7346 164.095 81.286 162.856 80.3929C161.618 79.4998 160.719 78.2146 160.305 76.7465C159.855 75.194 159.992 73.5304 160.691 72.0726C161.39 70.6147 162.602 69.4644 164.095 68.8408C164.898 68.4894 164.905 68.2259 164.549 67.5513C163.733 65.9928 162.617 64.6103 161.265 63.4828C159.912 62.3554 158.351 61.5052 156.669 60.9808C151.026 59.0363 144.893 59.0289 139.244 60.9597C137.583 61.4783 136.042 62.3234 134.712 63.4451C133.383 64.5668 132.291 65.9426 131.502 67.4916C131.174 68.1275 131.104 68.4613 131.938 68.8267C135.081 70.2006 136.647 73.4156 135.834 76.5743C135.021 79.7331 131.963 81.9116 128.869 81.641C125.487 81.3459 122.985 78.8301 122.643 75.4148C122.348 72.4458 124.304 69.5541 127.299 68.5773C127.806 68.4086 128.211 68.2856 128.44 67.6813C130.618 61.8873 135.162 58.9534 140.92 57.5339C142.364 57.1614 143.846 56.9539 145.337 56.9155C146.22 56.9155 146.54 56.6063 146.495 55.6892C146.414 54.1151 146.466 52.5269 146.473 50.9563C146.473 47.2986 148.663 45.0534 152.34 45.0042C158.524 44.9234 164.504 45.9986 169.994 48.8973C183.368 55.9738 190.386 67.1261 190.949 82.277C191.005 83.809 190.991 85.3444 190.949 86.8764C190.928 87.558 191.128 87.7407 191.822 87.7724C194.528 87.8953 196.439 89.8032 196.481 92.312C196.524 94.8207 194.662 96.8446 191.98 96.9957C191.051 97.0519 190.949 97.4068 190.949 98.1833C190.97 109.97 190.97 121.756 190.949 133.541C190.949 134.381 191.16 134.595 192.005 134.655C193.204 134.702 194.338 135.21 195.171 136.072C196.004 136.934 196.471 138.085 196.474 139.282C196.474 141.791 194.602 143.801 191.927 143.959C191.097 144.008 190.924 144.237 190.938 145.013C190.984 147.947 190.963 150.885 190.938 153.822C190.938 155.273 190.509 155.73 189.08 155.751C187.194 155.779 185.304 155.783 183.417 155.751C182.048 155.726 181.601 155.277 181.577 153.913C181.545 152.336 181.601 150.751 181.555 149.18C181.46 146.109 179.331 144.012 176.276 144.008C161.534 143.994 146.79 143.994 132.044 144.008C128.957 144.008 126.764 146.218 126.722 149.321C126.694 150.853 126.684 152.388 126.722 153.92C126.757 155.129 126.219 155.74 125.026 155.751C123.051 155.751 121.077 155.751 119.103 155.751C117.903 155.751 117.375 155.126 117.382 153.934C117.403 150.997 117.382 148.063 117.403 145.129C117.403 144.36 117.318 144.001 116.347 143.952C115.152 143.925 114.015 143.431 113.18 142.578C112.344 141.724 111.877 140.578 111.877 139.384C111.832 138.186 112.265 137.019 113.08 136.139C113.896 135.258 115.027 134.736 116.227 134.687C117.283 134.613 117.389 134.233 117.389 133.351C117.363 121.698 117.363 110.043 117.389 98.3871C117.389 97.5333 117.332 97.0624 116.248 97.0027C113.57 96.8551 111.8 94.8313 111.884 92.2312C111.969 89.6311 113.961 87.7688 116.734 87.7688C135.382 87.7688 154.036 87.7688 172.693 87.7688H180.855C181.337 87.7688 181.777 87.8637 181.809 87.0872C182.076 80.5975 181.358 74.3116 177.902 68.623C172.429 59.6245 164.5 54.5438 153.899 53.8024C152.844 53.7321 151.823 53.6935 151.679 52.3126C151.658 51.1882 151.995 50.7982 153.157 50.6577C154.565 50.4855 155.972 50.7771 157.342 50.9915C163.149 51.8695 168.602 54.3249 173.105 58.089C179.574 63.4368 183.312 70.3446 184.628 78.5771C184.967 81.0058 185.085 83.4602 184.98 85.9101C184.952 87.2804 185.832 87.8391 187.12 87.3613C187.581 87.1926 187.655 86.8377 187.683 86.4301C188.387 75.2532 185.318 65.4923 177.008 57.6393C170.276 51.2761 162.244 48.2368 153.034 48.1735C150.433 48.1524 149.866 48.6865 149.676 51.2304C149.71 51.617 149.591 52.0015 149.345 52.3021Z" fill="#3D3F50"/>
<path d="M70.3619 147.775C70.3021 146.559 70.3232 145.069 71.1362 143.731C71.3755 143.33 71.2312 143.176 70.8969 142.909C67.6414 140.312 67.1451 137.315 69.3307 133.822C71.3574 130.523 74.1296 127.743 77.4254 125.706C78.2666 125.189 78.1681 124.982 77.51 124.388C74.9161 122.048 73.4555 119.149 73.5575 115.604C73.5575 114.961 73.4168 114.715 72.7376 114.589C68.9506 113.886 67.0818 110.562 68.5353 106.996C69.8305 103.833 71.8859 101.293 75.4792 100.646C78.0836 100.183 80.4065 101.483 81.4623 103.904C81.8354 104.743 82.2049 104.733 82.9228 104.497C86.2778 103.38 89.9072 103.389 93.256 104.525C93.9177 104.75 94.2484 104.768 94.6074 103.981C96.1278 100.657 99.9254 99.5185 103.001 101.476C105.782 103.232 107.774 105.657 107.999 109.072C108.189 111.95 106.327 114.107 103.462 114.585C102.811 114.694 102.459 114.792 102.505 115.6C102.702 119.181 101.192 122.055 98.595 124.385C97.8911 125.014 97.9157 125.235 98.7181 125.73C102.049 127.798 104.846 130.618 106.883 133.963C108.939 137.266 108.39 140.491 105.303 142.859C104.828 143.211 104.86 143.432 105.074 143.913C106.13 146.254 106.021 148.727 105.504 151.13C104.955 153.671 102.663 155.424 100.013 155.698C98.7615 155.839 97.4968 155.588 96.3933 154.982C95.2897 154.375 94.4015 153.442 93.8508 152.311C93.439 151.447 92.992 151.317 92.1544 151.454C89.4228 151.902 86.6363 151.902 83.9048 151.454C83.2255 151.345 82.7574 151.303 82.3526 152.135C81.739 153.462 80.6787 154.531 79.3564 155.157C78.0341 155.783 76.5337 155.926 75.1167 155.561C72.3011 154.876 70.383 152.353 70.3549 149.237C70.3584 148.85 70.3619 148.457 70.3619 147.775Z" fill="#3D3F50"/>
<path d="M149.345 52.3019C149.293 51.6943 149.271 51.0845 149.282 50.4748C149.384 48.8163 150.398 47.8747 152.097 47.8044C168.639 47.1017 183.656 58.6264 187.32 74.74C188.242 78.8018 188.165 82.9022 188.182 87.0132C188.182 87.5824 187.968 87.7335 187.415 87.7722C184.638 87.976 184.579 87.9935 184.652 85.2283C184.871 77.0204 182.794 69.5363 177.578 63.0923C171.458 55.5309 163.462 51.5429 153.748 50.9561C152.692 50.8929 151.925 51.1494 151.707 52.2948L149.345 52.3019Z" fill="#FFD983"/>
<path d="M153.048 75.2634C153.081 76.0447 152.876 76.8178 152.46 77.4805C151.601 79.0019 150.746 80.5233 149.831 82.0096C148.775 83.6996 146.977 83.7313 145.928 82.0623C144.953 80.5092 144.038 78.9 143.165 77.3048C142.796 76.6537 142.61 75.9158 142.624 75.168C142.638 74.4202 142.853 73.6899 143.246 73.0533C143.535 72.5144 143.858 71.9945 144.214 71.4967C145.875 69.3218 146.941 66.9957 146.487 64.1532C146.336 63.208 146.815 62.5053 147.874 62.5053C148.076 62.4852 148.279 62.5135 148.468 62.5879C148.656 62.6623 148.824 62.7806 148.957 62.9329C149.09 63.0853 149.185 63.2672 149.234 63.4636C149.282 63.66 149.283 63.8651 149.236 64.0618C148.648 67.3506 150.32 69.8277 152.02 72.3224C152.622 73.2008 153.111 74.1214 153.048 75.2634Z" fill="#3D3F50"/>
<path d="M154.146 94.3145H117.544C117.062 94.342 116.579 94.3125 116.104 94.2267C115.688 94.1499 115.312 93.9273 115.045 93.5988C114.778 93.2704 114.637 92.8576 114.647 92.4347C114.622 92.0119 114.75 91.5942 115.009 91.2584C115.268 90.9227 115.639 90.6916 116.055 90.6076C116.525 90.5085 117.004 90.4637 117.484 90.4741C141.923 90.4741 166.361 90.4741 190.798 90.4741C191.279 90.4597 191.761 90.4986 192.234 90.5901C192.652 90.6571 193.031 90.876 193.297 91.2049C193.563 91.5337 193.698 91.9492 193.677 92.3715C193.694 93.3904 193.121 94.0123 192.17 94.2548C191.738 94.326 191.298 94.346 190.861 94.3145H154.146Z" fill="#FED883"/>
<path d="M154.237 137.441H190.84C191.234 137.42 191.629 137.427 192.022 137.462C193.022 137.603 193.606 138.197 193.645 139.219C193.684 140.241 193.156 140.976 192.082 141.152C191.646 141.201 191.207 141.215 190.769 141.194H117.565C115.604 141.194 114.668 140.6 114.644 139.349C114.619 138.098 115.573 137.448 117.505 137.448L154.237 137.441Z" fill="#FFD983"/>
<path d="M133.455 115.769C133.455 121.64 133.434 127.511 133.476 133.383C133.476 134.335 133.286 134.704 132.255 134.641C130.765 134.556 129.272 134.556 127.782 134.641C126.898 134.686 126.701 134.384 126.705 133.544C126.737 126.008 126.705 118.471 126.705 110.934C126.705 106.718 126.747 102.501 126.677 98.313C126.677 97.2343 127.004 96.9849 128.004 97.0411C129.41 97.1241 130.82 97.1241 132.227 97.0411C133.23 96.9778 133.476 97.3151 133.469 98.2919C133.434 104.111 133.455 109.94 133.455 115.769Z" fill="#FFFEFF"/>
<path d="M142.782 115.762C142.782 109.936 142.806 104.11 142.761 98.2848C142.761 97.3361 142.933 96.9566 143.968 97.0304C145.374 97.1206 146.785 97.1206 148.191 97.0304C149.201 96.9742 149.543 97.2518 149.532 98.3235C149.472 103.538 149.504 108.748 149.504 113.963C149.504 120.445 149.483 126.928 149.529 133.411C149.529 134.405 149.268 134.693 148.29 134.633C146.883 134.547 145.473 134.547 144.066 134.633C143.067 134.69 142.747 134.433 142.757 133.369C142.813 127.501 142.782 121.633 142.782 115.762Z" fill="white"/>
<path d="M165.542 115.871C165.542 121.738 165.521 127.61 165.564 133.478C165.564 134.398 165.317 134.683 164.395 134.634C162.95 134.554 161.501 134.554 160.056 134.634C159.091 134.69 158.806 134.437 158.817 133.428C158.869 127.297 158.845 121.166 158.845 115.034C158.845 109.413 158.862 103.822 158.824 98.2181C158.824 97.3362 159 96.9743 159.961 97.0305C161.406 97.113 162.855 97.113 164.3 97.0305C165.275 96.9778 165.574 97.2589 165.564 98.2638C165.518 104.135 165.542 110.003 165.542 115.871Z" fill="white"/>
<path d="M174.903 115.769C174.903 110.031 174.953 104.294 174.865 98.5523C174.865 97.2277 175.248 96.9185 176.473 97.0239C177.742 97.1205 179.016 97.1205 180.285 97.0239C181.302 96.9606 181.626 97.2523 181.615 98.3169C181.562 104.403 181.59 110.488 181.59 116.588C181.59 122.21 181.566 127.796 181.611 133.401C181.611 134.367 181.4 134.704 180.39 134.638C178.984 134.549 177.573 134.549 176.167 134.638C175.167 134.697 174.847 134.434 174.858 133.369C174.932 127.505 174.903 121.637 174.903 115.769Z" fill="white"/>
<path d="M123.999 115.762C123.999 121.584 123.97 127.41 124.02 133.235C124.02 134.289 123.787 134.683 122.661 134.641C120.152 134.567 120.152 134.641 120.152 132.181C120.152 120.937 120.173 109.669 120.12 98.4115C120.12 97.2168 120.472 96.9463 121.595 96.9849C123.995 97.0657 123.999 97.006 123.999 99.4445V115.762Z" fill="#F19745"/>
<path d="M136.211 115.762C136.211 109.982 136.25 104.198 136.179 98.4183C136.179 97.2131 136.531 96.9601 137.657 97.0128C140.051 97.0936 140.051 97.0339 140.051 99.4934C140.051 110.702 140.051 121.914 140.075 133.126C140.075 134.289 139.836 134.728 138.579 134.672C136.214 134.567 136.211 134.644 136.211 132.332V115.762Z" fill="#F19745"/>
<path d="M156.04 115.903C156.04 121.683 156.015 127.466 156.064 133.246C156.064 134.3 155.818 134.683 154.695 134.651C152.274 134.578 152.27 134.651 152.27 132.245C152.27 121.029 152.291 109.817 152.242 98.605C152.242 97.3927 152.453 96.9184 153.791 96.9887C156.036 97.1117 156.04 97.0203 156.04 99.2163V115.903Z" fill="#F29745"/>
<path d="M184.388 115.762C184.388 109.94 184.42 104.114 184.364 98.2887C184.364 97.21 184.695 96.9781 185.698 97.0027C188.161 97.0554 188.161 97.0027 188.161 99.4025C188.161 110.615 188.161 121.827 188.189 133.039C188.189 134.258 187.961 134.725 186.63 134.655C184.406 134.539 184.399 134.627 184.399 132.452L184.388 115.762Z" fill="#F29745"/>
<path d="M172.095 115.765C172.095 121.587 172.071 127.413 172.12 133.239C172.12 134.293 171.895 134.686 170.758 134.644C168.333 134.567 168.329 134.644 168.329 132.241C168.329 120.997 168.354 109.729 168.298 98.4747C168.298 97.2168 168.681 96.9497 169.843 96.9919C172.092 97.0727 172.095 97.013 172.095 99.202V115.765Z" fill="#F29745"/>
<path d="M166.774 78.8477C166.26 78.8613 165.748 78.7724 165.268 78.5862C164.789 78.4 164.351 78.1203 163.981 77.7634C163.611 77.4065 163.316 76.9796 163.114 76.5076C162.911 76.0356 162.804 75.5279 162.8 75.0143C162.802 73.9576 163.219 72.9437 163.963 72.1912C164.706 71.4387 165.715 71.0078 166.774 70.9912C167.809 71.0278 168.791 71.4584 169.518 72.1948C170.245 72.9311 170.662 73.9173 170.684 74.9511C170.688 75.4646 170.59 75.9738 170.395 76.4489C170.2 76.924 169.912 77.3556 169.548 77.7183C169.184 78.0811 168.751 78.3678 168.275 78.5617C167.798 78.7557 167.288 78.8529 166.774 78.8477Z" fill="#E3EA9E"/>
<path d="M129.27 78.8407C128.755 78.8408 128.245 78.7382 127.77 78.539C127.295 78.3397 126.864 78.0478 126.504 77.6803C126.143 77.3128 125.86 76.8771 125.67 76.3988C125.48 75.9205 125.388 75.4092 125.399 74.8949C125.426 73.8577 125.857 72.8719 126.6 72.1465C127.343 71.4211 128.34 71.013 129.379 71.0088C130.418 71.051 131.4 71.4892 132.124 72.2332C132.848 72.9771 133.259 73.97 133.272 75.0073C133.261 75.5214 133.149 76.0283 132.943 76.4992C132.736 76.9701 132.438 77.3957 132.067 77.7517C131.695 78.1077 131.257 78.3871 130.777 78.5739C130.297 78.7608 129.785 78.8514 129.27 78.8407Z" fill="#F27EA7"/>
<path d="M97.4864 128.239C98.9803 129.159 100.345 130.273 101.544 131.552C101.773 131.781 102.171 132.027 101.798 132.417C101.076 133.179 100.355 133.952 99.577 134.655C99.1125 135.073 99.0139 134.462 98.8379 134.24C98.2326 133.481 97.5427 132.937 96.6242 133.671C95.79 134.342 96.0716 135.14 96.6242 135.878C97.0718 136.522 97.4129 137.234 97.6343 137.986C98.3382 140.161 98.3382 140.157 96.406 141.236C96.1627 141.338 95.9415 141.486 95.7549 141.672C94.6286 143.144 92.978 143.144 91.3872 143.186C88.4063 143.263 85.4217 143.33 82.4478 142.996C82.2332 142.988 82.0224 142.938 81.8277 142.847C81.6331 142.757 81.4586 142.628 81.3145 142.469C80.6266 141.663 79.7138 141.08 78.6925 140.793C77.9886 140.611 77.9147 140.189 78.0661 139.616C78.418 138.263 78.7313 136.89 79.6006 135.751C80.2024 134.961 80.2657 134.195 79.407 133.601C78.5482 133.007 77.869 133.355 77.415 134.145C76.961 134.936 76.6161 134.725 76.0846 134.184C73.8604 131.925 73.8392 131.932 76.2993 129.947C77.0771 129.314 77.8197 128.626 78.7453 128.19C79.3471 127.937 79.8575 128.243 80.3678 128.478C82.7233 129.558 85.2794 130.134 87.8713 130.168C90.5519 130.216 93.2079 129.65 95.6353 128.513C96.2195 128.243 96.8001 127.905 97.4864 128.239Z" fill="#80ADDC"/>
<path d="M76.9538 118.759C75.7783 116.05 76.2816 113.513 77.9217 111.201C82.4336 104.849 93.7064 104.852 98.1972 111.201C99.7704 113.429 100.344 115.867 99.2989 118.52C97.8735 120.899 95.4275 121.436 92.992 122.006C92.3902 122.146 91.7285 122.487 91.1338 121.932C91.6441 121.229 92.267 120.607 92.5415 119.743C92.9639 118.383 92.2212 117.034 90.824 116.957C88.986 116.853 87.1435 116.853 85.3055 116.957C83.8977 117.037 83.1305 118.492 83.6479 119.894C83.9451 120.578 84.3622 121.204 84.8797 121.742C84.875 121.808 84.8559 121.871 84.8239 121.929C84.7919 121.986 84.7477 122.036 84.6943 122.075C84.641 122.113 84.5798 122.139 84.5152 122.152C84.4505 122.164 84.3839 122.162 84.32 122.146C81.4834 121.837 78.8121 121.173 76.9538 118.759Z" fill="#F7B6B1"/>
<path d="M73.1881 146.425C73.4908 144.373 74.8141 143.165 76.7462 143.193C78.6784 143.221 79.9877 144.518 80.2059 146.555C80.3386 147.46 80.3124 148.38 80.1285 149.275C78.6573 151.151 75.6236 151.485 73.7935 149.978C73.5496 149.794 73.3584 149.55 73.2392 149.269C73.1199 148.989 73.0768 148.682 73.1141 148.379C73.188 147.732 73.079 147.072 73.1881 146.425Z" fill="#F7B5B0"/>
<path d="M95.9555 149.254C95.9379 148.383 95.878 147.497 95.9132 146.644C95.9224 145.739 96.2867 144.874 96.9277 144.235C97.5686 143.596 98.4352 143.233 99.3412 143.225C99.8005 143.204 100.259 143.274 100.692 143.431C101.124 143.587 101.521 143.827 101.86 144.138C102.199 144.448 102.473 144.821 102.667 145.238C102.862 145.654 102.971 146.104 102.991 146.563C103.047 147.385 102.991 148.218 102.991 149.047C101.516 151.433 97.9088 151.538 95.9555 149.254Z" fill="#F7B5B0"/>
<path d="M70.8757 109.255C70.8757 106.953 73.6456 103.703 75.8382 103.331C77.2776 103.088 78.886 104.205 79.2379 105.614C79.3893 106.226 78.974 106.38 78.6432 106.623C77.1519 107.703 75.9077 109.088 74.9935 110.685C74.1101 112.22 72.3222 112.276 71.3368 110.794C71.0149 110.347 70.8525 109.805 70.8757 109.255Z" fill="#E27B7A"/>
<path d="M99.8266 103.289C100.974 103.338 101.882 103.928 102.709 104.669C103.923 105.688 104.785 107.062 105.173 108.598C105.345 109.213 105.281 109.871 104.993 110.442C104.706 111.013 104.215 111.457 103.617 111.686C102.593 112.104 101.78 112.164 101.196 110.882C100.461 109.229 99.2552 107.829 97.729 106.855C96.5324 106.107 96.828 105.379 97.4439 104.532C97.7236 104.161 98.0826 103.857 98.4947 103.642C98.9069 103.427 99.3618 103.306 99.8266 103.289Z" fill="#E27B7A"/>
<path d="M97.4865 128.239C95.8182 128.59 94.3612 129.514 92.693 129.933C88.2198 131.064 83.9718 130.502 79.8258 128.636C79.4739 128.474 79.0974 128.344 78.7349 128.2C79.9948 127.108 81.1984 126.728 82.9793 127.413C86.1933 128.689 89.7719 128.703 92.9957 127.452C94.8082 126.753 96.1526 127.044 97.4865 128.239Z" fill="#5279BC"/>
<path d="M88.2303 145.87C89.6381 145.87 91.0458 145.87 92.4255 145.87C92.9745 145.87 93.161 145.972 93.1294 146.601C93.0484 148.583 93.0801 148.523 91.0388 148.822C88.7781 149.108 86.4885 149.08 84.2357 148.738C83.1974 148.601 82.4514 146.921 83.0426 146.078C83.2538 145.779 83.6022 145.888 83.8943 145.888C85.3373 145.888 86.7803 145.888 88.2233 145.888L88.2303 145.87Z" fill="#E17B7A"/>
<path d="M91.1335 121.928C94.213 121.644 97.0462 120.772 99.2986 118.517C98.0246 122.213 95.1315 124.019 91.6051 125.08C91.4777 125.111 91.3484 125.133 91.218 125.147C90.6197 125.238 89.9228 125.744 89.4582 125.034C88.9937 124.325 89.5216 122.87 90.2219 122.448C90.5316 122.269 90.8343 122.101 91.1335 121.928Z" fill="#E17B7A"/>
<path d="M76.9536 118.759C78.983 120.49 81.4871 121.571 84.1403 121.862C84.4078 121.893 84.6577 121.95 84.8724 121.739C86.0092 122.403 87.1037 123.067 86.7095 124.718C86.5969 125.186 86.5124 125.421 86.0056 125.368C83.0493 125.035 78.108 122.803 76.9536 118.759Z" fill="#E27B7A"/>
<path d="M100.851 137.43C101.432 136.791 102.005 136.141 102.611 135.515C103.899 134.149 103.902 134.152 104.825 135.867C105.856 137.778 105.367 139.598 103.551 140.624C101.896 140.182 101.47 138.723 100.851 137.43Z" fill="#F5B5B0"/>
<path d="M72.7057 140.653C70.3336 139.486 70.1858 137.209 72.3785 134.328L75.1412 137.22C74.9898 138.836 74.0079 139.859 72.7057 140.653Z" fill="#F6B5B0"/>
<path d="M73.1879 146.425C73.2126 146.731 73.2513 147.033 73.2548 147.335C73.2829 149.626 74.9723 150.947 77.2845 150.547C78.3404 150.361 79.2168 149.781 80.1283 149.275C80.1283 151.313 78.9211 152.789 77.0629 152.964C75.1272 153.161 73.5434 151.91 73.1915 149.907C72.9576 148.759 72.9564 147.575 73.1879 146.425Z" fill="#E17B7A"/>
<path d="M95.9556 149.254C97.4408 150.09 98.8838 151.011 100.739 150.357C101.56 150.063 102.319 149.618 102.977 149.047C102.977 151.303 101.506 152.944 99.4821 152.961C97.4584 152.979 95.9696 151.436 95.9556 149.254Z" fill="#E17B7A"/>
<path d="M72.7056 140.653C73.6065 139.574 74.592 138.545 75.141 137.224C76.2285 138.337 75.3487 139.508 74.9756 140.446C74.6624 141.229 73.5397 141.25 72.7056 140.653Z" fill="#E07B7A"/>
<path d="M100.851 137.431C101.854 138.4 102.28 139.859 103.536 140.618C102.716 141.222 101.587 141.261 101.199 140.526C100.745 139.669 100.119 138.544 100.851 137.431Z" fill="#E07B7A"/>
<path d="M147.825 79.8559C147.054 78.5137 146.308 77.2382 145.587 75.9487C145.454 75.7193 145.388 75.457 145.398 75.1922C145.408 74.9273 145.493 74.6707 145.643 74.4519L147.783 71.0015C147.927 71.0998 148.012 71.128 148.047 71.1842C151.017 76.1138 151.169 74.234 147.825 79.8559Z" fill="#95B5DF"/>
<path d="M82.4302 112.343C83.303 112.47 83.838 112.951 83.7535 113.819C83.7516 113.996 83.7125 114.171 83.639 114.332C83.5655 114.493 83.4591 114.637 83.3266 114.755C83.194 114.873 83.0384 114.962 82.8695 115.016C82.7006 115.07 82.5222 115.088 82.3457 115.07C82.1581 115.077 81.9711 115.043 81.7983 114.97C81.6255 114.897 81.4712 114.786 81.3466 114.646C81.222 114.505 81.1302 114.339 81.0778 114.159C81.0253 113.979 81.0136 113.79 81.0435 113.605C81.1068 112.8 81.6454 112.396 82.4302 112.343Z" fill="#424252"/>
<path d="M92.3936 113.745C92.4147 112.926 92.8511 112.41 93.6465 112.368C93.8316 112.34 94.0206 112.353 94.1998 112.407C94.3789 112.462 94.5437 112.555 94.682 112.681C94.8203 112.807 94.9286 112.962 94.9991 113.135C95.0696 113.309 95.1006 113.495 95.0895 113.682C95.1062 113.868 95.0818 114.055 95.018 114.231C94.9543 114.406 94.8526 114.566 94.7204 114.698C94.5881 114.83 94.4284 114.931 94.2526 114.995C94.0768 115.059 93.8891 115.083 93.7028 115.066C92.9144 115.063 92.4463 114.567 92.3936 113.745Z" fill="#414151"/>
<defs>
<clipPath id="clip0_289_70">
<rect width="280" height="199" fill="white"/>
</clipPath>
</defs>
</svg>
