<svg width="280" height="199" viewBox="0 0 280 199" fill="none" xmlns="http://www.w3.org/2000/svg">
<g clip-path="url(#clip0_289_69)">
<path d="M280 118.532C280 113.705 278.73 111.254 277.495 108.881C276.26 106.509 275.096 104.267 275.096 99.6546C275.009 96.54 275.538 93.4283 276.676 90.3563C277.843 87.1904 278.388 83.984 278.303 80.7747C278.303 75.9482 277.015 73.4938 275.775 71.1216C274.534 68.7494 273.351 66.5095 273.351 61.8974C273.351 57.2854 274.522 55.0402 275.693 52.668C276.863 50.2958 278.162 47.8441 278.162 43.0202C278.241 39.8179 277.746 36.618 276.682 33.4519C275.658 30.3703 275.19 27.2562 275.283 24.1403C275.23 21.0185 275.577 17.8979 276.325 14.7944C277.089 11.6293 277.445 8.44684 277.39 5.26308C277.422 4.95913 277.315 4.65545 277.075 4.37112C276.836 4.0868 276.468 3.828 275.997 3.61099C274.241 2.85114 271.566 2.88556 268.974 2.91998C268.441 2.91998 267.903 2.91998 267.364 2.91998C256.899 2.91998 251.813 2.39046 246.429 1.86094C241.044 1.33143 235.519 0.754256 224.598 0.754256C217.348 0.718012 210.104 0.958024 202.943 1.47175C195.977 1.97595 188.928 2.20979 181.873 2.17071C171.409 2.17071 166.323 1.64119 160.938 1.11168C155.554 0.582163 150.023 -0.000303932 139.108 -0.000303932C131.86 -0.0361689 124.617 0.195823 117.453 0.69336C110.483 1.18251 103.435 1.40922 96.3828 1.37114C85.725 1.37114 80.3053 1.29436 75.0671 1.22288C69.8289 1.15139 64.3391 1.07461 53.6228 1.07461C42.9065 1.07461 37.5453 0.995185 32.3013 0.921052C27.0573 0.84692 21.5791 0.767494 10.8569 0.767494C6.37958 0.767494 3.36547 2.57314 3.36547 5.26838C3.36547 9.98901 3.36547 12.348 3.36547 14.707C3.36547 17.066 3.36547 19.4276 3.36547 24.1483C3.4308 27.2675 3.01818 30.3849 2.13056 33.4783C1.22293 36.6446 0.800509 39.8355 0.86635 43.0282C0.86635 47.77 1.12386 50.1766 1.36968 52.5118C1.61549 54.8469 1.873 57.2086 1.873 61.908C1.873 66.6075 1.6506 68.9956 1.43405 71.3069C1.2175 73.6183 0.989234 76.0461 0.989234 80.7853C0.875711 84.0274 1.6483 87.2634 3.28939 90.4198C4.45993 92.8026 5.50173 95.0425 5.50173 99.6625C5.50173 104.283 4.21998 106.501 2.86801 108.871C1.51603 111.24 0.0996094 113.705 0.0996094 118.542C0.0996094 123.274 0.240129 125.691 0.374742 128.008C0.509354 130.324 0.649802 132.715 0.649802 137.422C0.558761 140.638 1.15661 143.851 2.43491 147.014C3.67462 150.077 4.25088 153.187 4.15558 156.3C4.15558 161.049 4.51256 163.464 4.85202 165.799C5.19147 168.134 5.53681 170.488 5.53681 175.177C5.53681 179.799 4.47748 182.045 3.35961 184.425C2.24175 186.805 1.08876 189.238 1.08876 194.057C1.08876 196.439 6.13382 198.028 10.8394 198.028C21.5557 198.028 27.0046 197.962 32.2779 197.901C37.5512 197.84 42.9416 197.776 53.6052 197.776C60.6712 197.743 67.7332 197.944 74.7336 198.38C81.9089 198.825 89.1466 199.032 96.3887 199C103.637 199.036 110.88 198.803 118.044 198.303C125.014 197.817 132.061 197.591 139.114 197.628C146.358 197.662 153.598 197.443 160.769 196.974C167.758 196.515 174.817 196.302 181.879 196.339C192.356 196.339 197.448 196.826 202.838 197.342C208.228 197.859 213.736 198.401 224.645 198.401C235.408 198.401 240.886 198.216 246.177 198.039C251.468 197.861 256.794 197.684 267.405 197.684C268.611 197.684 270.331 197.618 271.578 197.059C272.977 196.418 272.959 195.523 272.942 194.488C272.942 194.351 272.942 194.223 272.942 194.062C272.846 190.948 273.434 187.838 274.698 184.777C275.995 181.613 276.603 178.399 276.512 175.182C276.579 171.987 276.145 168.794 275.213 165.627C274.299 162.536 273.877 159.42 273.948 156.302C273.948 151.579 273.908 149.178 273.872 146.856C273.837 144.534 273.79 142.138 273.79 137.422C273.79 132.839 275.277 130.61 276.851 128.251C278.426 125.892 280 123.39 280 118.532Z" fill="white"/>
</g>
<g clip-path="url(#clip1_289_69)">
<path d="M176.211 43.3401C175.945 41.9466 176.553 41.1616 177.85 40.6375C181.116 39.3135 184.347 37.905 187.588 36.509C187.9 36.3749 188.3 36.3749 188.479 36.0122H189.969C190.491 36.3971 190.933 36.8797 191.271 37.4331C193.899 41.33 195.811 45.6646 196.918 50.2333C197.211 51.4455 196.831 52.2205 195.776 52.7347C185.345 57.8369 174.778 62.6708 163.987 66.9434C160.57 68.2972 157.056 67.4203 153.75 65.9498C152.645 65.453 151.724 64.5562 150.273 64.9686C149.57 65.1673 148.892 64.4991 148.676 63.7265C148.46 62.954 148.594 62.1169 149.364 61.6747C149.943 61.3419 150.045 60.9072 150.184 60.3185C151.341 55.4845 153.725 51.6243 158.518 49.5328C162.368 47.8561 166.123 45.9682 169.925 44.1872C171.415 43.4867 171.937 43.6059 173.019 44.8206C173.481 46.0626 173.305 46.7755 172.309 47.4636C171.619 47.9004 170.889 48.2714 170.129 48.5715C167.106 49.9054 164.168 51.4082 161.131 52.7322C160.267 53.1098 160.153 53.5818 160.605 54.3394C160.914 54.9148 161.182 55.5117 161.407 56.1254C162.211 57.827 163.004 59.5335 163.704 61.2773C164.071 62.1865 164.571 62.4075 165.502 62.0225C170.027 60.128 174.526 58.1739 179 56.1602C183.174 54.2798 187.332 52.3671 191.454 50.3724C192.356 49.9352 192.559 49.5005 192.247 48.5764C191.591 46.553 190.76 44.5906 189.763 42.7116C188.611 40.5133 188.616 40.5282 186.403 41.4175C184.088 42.3465 181.821 43.3848 179.514 44.3287C178.858 44.5995 178.19 44.7833 177.485 44.6169C176.809 44.438 176.198 44.1896 176.211 43.3401Z" fill="#010101"/>
<path d="M84.4213 136.141C84.5827 134.979 84.1009 133.861 84.1729 132.703C85.4668 131.71 85.5637 130.356 85.5363 128.866C85.4668 125.055 85.4767 121.247 85.3004 117.439C85.0521 111.952 85.4345 106.46 85.5835 100.975C85.7897 93.2744 86.1821 85.5913 86.9345 77.9256C87.0513 76.7432 87.1332 75.5583 87.2475 74.3734C87.3269 73.5587 87.687 73.1115 88.5414 73.037C91.0695 72.8159 93.6052 72.6793 96.1383 72.5402C101.123 72.2471 106.119 72.1527 111.104 71.8422C113.026 71.723 114.956 71.7925 116.883 71.8149C117.212 71.8144 117.538 71.8801 117.841 72.0081C118.145 72.1361 118.419 72.3238 118.649 72.5601C119.433 73.3401 120.347 73.9884 121.112 74.7833C124.383 78.1839 128.461 79.0061 132.946 78.5689C133.733 78.4919 134.493 78.4373 135.241 78.7602C135.916 79.0533 136.607 79.1601 137.18 78.5714C137.754 77.9827 137.528 77.3841 137.292 76.7357C136.753 75.2453 137.195 73.74 137.339 72.2496C137.396 71.6509 137.955 71.4224 138.524 71.3553C139.257 71.2552 139.999 71.2469 140.734 71.3305C143.595 71.7031 146.466 71.5789 149.332 71.5267C154.743 71.4249 160.148 71.6882 165.552 71.8447C172.59 72.0484 179.628 72.3415 186.661 72.8383C190.108 73.0867 190.208 72.7936 190.451 76.3159C190.751 80.6878 191.052 85.0589 191.355 89.4291C192.187 101.34 192.162 113.263 192.013 125.199C191.951 130.142 191.844 135.105 191.365 140.041C191.293 140.786 191.345 141.517 191.318 142.255C191.285 143.116 191.246 143.978 190.806 144.758C188.971 145.591 188.126 145.183 187.799 143.313C187.655 142.816 187.575 142.284 187.111 141.942C186.155 141.239 184.938 141.825 184.672 143.104C184.545 143.713 184.796 144.421 184.212 144.917C183.929 145.039 183.624 145.102 183.316 145.102C183.008 145.102 182.703 145.039 182.419 144.917C181.903 144.493 182.057 143.887 181.997 143.34C181.883 142.294 181.274 141.653 180.423 141.691C179.62 141.728 179.087 142.344 178.985 143.35C178.933 143.864 179.044 144.413 178.652 144.855C178.443 144.982 178.195 145.028 177.955 144.986C177.714 144.944 177.497 144.817 177.343 144.627C177.08 144.234 177.095 143.782 177.08 143.34C177.038 142.433 176.742 141.738 175.699 141.688C174.827 141.646 174.251 142.25 174.08 143.315C173.988 143.892 174.189 144.557 173.546 144.967C171.557 145.235 169.542 145.241 167.551 144.987C166.962 144.694 167.039 144.123 166.999 143.611C166.952 143.032 166.853 142.478 166.401 142.066C166.218 141.89 165.991 141.767 165.744 141.71C165.497 141.652 165.239 141.662 164.997 141.738C164.755 141.814 164.538 141.954 164.369 142.143C164.2 142.331 164.084 142.562 164.034 142.811C163.898 143.397 164.057 144.036 163.736 144.592C163.591 144.788 163.38 144.925 163.141 144.978C162.903 145.03 162.654 144.995 162.44 144.878C162.03 144.498 162.122 143.983 162.07 143.506C161.943 142.314 161.372 141.651 160.505 141.691C159.638 141.73 159.157 142.369 159.05 143.487C159.003 143.998 159.117 144.567 158.6 144.937C157.262 145.283 155.908 145.119 154.56 145.061C153.909 144.937 153.643 144.418 153.392 143.899C151.45 139.925 149.603 135.915 147.693 131.928C146.615 129.673 147.124 127.258 147.179 124.909C147.201 123.95 147.949 124.293 148.443 124.596C149.873 125.47 151.294 126.364 152.717 127.256C153.894 128.001 155.061 128.746 156.266 129.454C157.282 130.043 158.143 129.911 158.635 129.131C159.09 128.411 158.883 127.571 157.925 126.94C154.778 124.874 151.56 122.916 148.363 120.929C147.852 120.609 147.281 120.36 147.134 119.65C146.841 118.254 147.169 117.578 148.525 117.126C150.445 116.483 152.044 115.439 153.226 113.758C155.618 110.36 154.587 105.861 150.946 103.822C150.36 103.494 149.575 103.444 149.255 102.706C149.253 102.641 149.264 102.577 149.288 102.517C149.312 102.456 149.348 102.402 149.394 102.356C149.653 102.226 149.948 102.188 150.231 102.247C151.078 102.316 151.696 101.973 151.9 101.136C152.104 100.299 151.706 99.7205 150.981 99.3156C149.491 98.4884 147.911 98.2524 146.235 98.3418C141.174 98.6076 136.676 102.947 136.423 107.846C136.227 111.654 138.658 115.447 142.232 116.883C142.574 117.022 142.93 117.131 143.262 117.285C143.873 117.576 144.067 118.07 143.958 118.703C143.848 119.337 143.379 119.466 142.86 119.471C139.133 119.512 135.404 119.512 131.672 119.471C131.135 119.433 130.619 119.248 130.182 118.934C125.585 116.083 121.015 113.189 116.399 110.37C116.051 110.188 115.765 109.908 115.577 109.565C115.388 109.221 115.305 108.83 115.338 108.439C115.361 108.192 115.361 107.942 115.338 107.694C115.125 106.149 115.663 105.267 117.238 104.669C121.224 103.153 123.054 98.707 122.359 94.653C122.269 94.1364 122.001 93.6346 122.242 93.0931C122.314 93.0261 122.402 92.9793 122.497 92.9575C122.593 92.9356 122.693 92.9396 122.786 92.9689C123.149 93.1353 123.283 93.4905 123.491 93.7961C123.651 94.0629 123.897 94.2677 124.189 94.3769C124.48 94.486 124.8 94.4932 125.096 94.3972C125.799 94.2308 126.089 93.7166 126.141 93.0459C126.204 92.3927 126.195 91.7346 126.114 91.0835C125.396 85.8944 120.65 81.4554 115.462 80.8145C113.76 80.6071 112.032 80.754 110.389 81.2461C108.746 81.7381 107.222 82.5647 105.914 83.6739C104.605 84.7831 103.54 86.1509 102.785 87.6915C102.03 89.232 101.602 90.9121 101.527 92.6261C101.364 95.664 102.367 98.4486 104.331 100.823C106.052 102.898 108.178 104.388 110.833 105.006C111.889 105.255 112.224 105.846 112.323 106.907C112.527 108.931 111.966 110.23 109.991 111.174C106.373 112.913 102.886 114.913 99.3668 116.845C97.9985 117.591 97.5738 118.313 98.0183 119.19C98.4976 120.129 99.4761 120.236 100.792 119.531C104.076 117.767 107.366 116.016 110.634 114.22C111.851 113.549 112.264 113.78 112.278 115.184C112.308 117.889 112.293 120.594 112.278 123.299C112.271 123.874 112.136 124.441 111.884 124.958C108.991 131.114 106.081 137.26 103.152 143.397C102.856 144.013 102.635 144.714 101.91 145.002C101.11 145.201 100.296 145.119 99.4885 145.121C97.3279 145.121 97.3279 145.121 97.0051 143.097C96.7567 142.168 96.26 141.537 95.1971 141.678C94.1813 141.817 93.9926 142.642 93.861 143.474C93.7865 143.949 93.8933 144.468 93.5108 144.86C93.3744 144.943 93.2189 144.99 93.0593 144.996C92.8997 145.001 92.7413 144.966 92.5994 144.893C92.1176 144.495 92.274 143.916 92.1896 143.402C92.0629 142.657 91.8742 141.912 91.0099 141.708C90.1457 141.504 89.4851 141.825 89.0877 142.64C88.7599 143.283 89.0579 144.031 88.7475 144.676C88.6754 144.795 88.5688 144.889 88.442 144.945C87.6274 145.146 86.8725 145.176 86.4403 144.259C86.2085 142.947 86.0987 141.617 86.1125 140.285C86.0852 138.601 85.889 137.152 84.4213 136.141Z" fill="#F7F9F9"/>
<path d="M84.4212 136.141C86.0578 136.685 86.3235 137.092 86.408 138.874C86.4825 140.704 86.6166 142.53 86.7258 144.358C87.6273 146.023 87.2722 147.881 87.4883 149.644C87.7043 151.408 87.8186 153.229 87.985 155.025C88.0669 155.931 88.4817 156.354 89.3708 156.381C92.7259 156.478 96.0761 156.706 99.4239 156.903C104.942 157.228 110.47 157.25 115.984 157.601C116.187 157.613 116.394 157.626 116.597 157.63C127.696 157.891 138.797 158.025 149.896 157.837C156.156 157.73 162.422 157.633 168.676 157.34C175.093 157.049 181.513 156.744 187.928 156.381C189.214 156.309 189.467 156.036 189.587 154.759C189.862 151.825 189.984 148.877 190.314 145.948C190.364 145.496 190.399 145.049 190.677 144.664C191.156 140.836 191.228 136.981 191.382 133.138C191.933 119.287 191.851 105.438 191.134 91.5925C190.836 85.9488 190.314 80.3175 189.969 74.6787C189.897 73.5212 189.4 73.3796 188.4 73.315C172.009 72.2419 155.575 71.8494 139.142 71.7352C137.953 71.7352 137.535 72.0357 137.615 73.1933C137.648 73.8075 137.592 74.4233 137.448 75.0215C137.309 75.6177 137.309 76.0822 137.727 76.6063C138.308 77.3516 138.201 78.1738 137.585 78.842C136.929 79.5574 136.058 79.7412 135.268 79.155C134.697 78.7302 134.165 78.7252 133.554 78.8296C130.269 79.4162 126.883 78.9238 123.901 77.4261C121.75 76.3778 120.312 74.4726 118.596 72.9101C118.315 72.628 117.978 72.4086 117.606 72.2664C117.234 72.1243 116.836 72.0626 116.438 72.0854C107.1 72.3065 97.7699 72.776 88.4469 73.3498C87.9179 73.3821 87.6745 73.4516 87.6174 74.0751C85.9503 92.6506 85.4054 111.31 85.9858 129.951C86.0404 131.747 85.8318 132.07 84.1877 132.683C82.6505 132.201 82.3127 131.747 82.2581 130.137C81.8524 118.002 81.9418 105.872 82.5263 93.7462C82.869 86.4655 83.3533 79.1873 84.1306 71.9364C84.3169 70.2125 84.8757 69.81 86.7209 69.7007C95.6614 69.1865 104.629 68.7071 113.659 68.4289C113.567 67.9718 113.202 67.7657 112.936 67.5048C107.804 62.4407 102.765 57.2781 97.8196 52.0169C96.6449 50.7749 96.6076 50.1291 97.606 48.6908C100.269 44.8398 103.617 41.5106 107.483 38.8689C108.754 37.9946 109.4 38.0269 110.518 39.0826C118.841 46.9321 126.925 55.0185 134.771 63.3416C135.765 64.4073 136.358 65.7188 136.803 67.0801C137.021 67.7483 137.287 68.0339 138.059 68.0339C149.578 68.0339 161.091 68.2699 172.6 68.7419C178.779 68.9903 184.955 69.3828 191.131 69.7206C192.587 69.8001 193.277 70.4509 193.399 71.7824C194.047 78.9637 194.573 86.15 194.934 93.3537C195.393 102.569 195.458 111.79 195.4 121.013C195.348 129.75 194.891 138.466 194.335 147.178C194.087 150.904 193.717 154.605 193.391 158.316C193.28 159.558 192.634 160.159 191.29 160.239C186.015 160.557 180.743 160.907 175.463 161.15C159.203 161.896 142.936 162.144 126.663 161.896C116.091 161.742 105.521 161.438 94.9685 160.755C92.0231 160.567 89.0785 160.395 86.1348 160.241C84.975 160.182 84.2945 159.64 84.1704 158.482C83.465 151.757 82.9617 145.018 82.6604 138.265C82.5884 137.011 83.3285 136.437 84.4212 136.141Z" fill="#010101"/>
<path d="M176.211 43.3401C177.187 44.5324 177.835 44.6964 179.278 44.0853C182.047 42.9153 184.831 41.7727 187.57 40.5356C188.36 40.1804 188.812 40.1754 189.174 41.015C189.41 41.5714 189.721 42.0981 189.999 42.6396C189.579 43.1935 188.931 43.3848 188.343 43.6456C180.035 47.2226 171.825 51.0207 163.572 54.7219C162.715 55.1069 161.854 55.492 161.176 56.1751C160.716 55.1815 159.79 54.1208 159.934 53.229C160.071 52.377 161.595 52.1981 162.519 51.756C165.485 50.3326 168.452 48.9142 171.46 47.5803C172.749 47.009 173.278 46.1719 173.007 44.8057L176.211 43.3401Z" fill="#709DD3"/>
<path d="M161.188 56.1751C161.091 55.5268 161.573 55.3479 162.025 55.1418C166.225 53.2117 170.412 51.2543 174.626 49.354C178.65 47.5406 182.7 45.7844 186.743 44.0133C187.824 43.5389 188.921 43.0967 190.012 42.6396C191.288 44.6915 192.033 46.9668 192.825 49.2273C193.133 50.1116 192.49 50.1986 192.018 50.4246C184.593 53.9718 177.117 57.4147 169.538 60.6091C167.998 61.2599 166.453 61.8959 164.928 62.574C164.399 62.8075 164.094 62.8746 163.818 62.2039C162.974 60.1844 162.06 58.1872 161.188 56.1751Z" fill="#8AB2DE"/>
<path d="M157.5 57.3901L160.481 63.7567C158.168 63.6747 156.177 63.1506 154.364 62.0502C153.157 61.3174 154.091 60.4405 154.289 59.6208C155.161 58.5949 156.087 57.641 157.5 57.3901Z" fill="#F5E166"/>
<path d="M157.5 57.3899L154.284 59.6256C154.619 57.9985 155.494 56.6696 156.596 55.353C156.999 55.982 157.304 56.6689 157.5 57.3899Z" fill="#E9BC69"/>
<path d="M190.66 144.687C190.66 147.516 190.265 150.318 190.099 153.132C190.051 153.949 189.935 154.764 189.915 155.581C189.895 156.399 189.535 156.704 188.723 156.742C185.613 156.888 182.514 157.122 179.4 157.261C162.661 158.006 145.912 158.478 129.154 158.212C118.227 158.041 107.299 157.792 96.372 157.102C93.9606 156.95 91.5466 156.833 89.1327 156.771C88.0598 156.744 87.6227 156.461 87.5631 155.249C87.3818 151.614 87.0143 147.99 86.7188 144.366C87.2651 144.932 87.9952 144.575 88.6186 144.744C89.0482 145.201 88.939 145.822 89.1153 146.361C89.3438 147.106 89.7337 147.603 90.5706 147.603C91.4622 147.603 91.8769 147.079 92.1178 146.301C92.2842 145.767 92.1005 145.136 92.5549 144.682H93.5235C93.9755 145.089 93.819 145.675 93.9357 146.172C94.1593 147.138 94.7776 147.662 95.6394 147.566C96.5707 147.471 96.8215 146.82 96.8811 146.023C96.9234 145.372 96.8811 144.721 96.9109 144.07C96.9333 143.638 96.8439 143.154 97.3133 142.866C97.7007 144.696 97.7007 144.699 99.7049 144.696C100.517 144.696 101.327 144.696 102.139 144.696C102.419 145.357 101.955 145.866 101.761 146.418C101.458 147.275 101.615 147.951 102.412 148.405C103.157 148.827 103.996 148.559 104.486 147.722C105.017 146.808 105.454 145.842 105.916 144.888C106.115 144.478 106.303 144.043 106.909 144.229C108.039 144.478 109.182 144.369 110.319 144.371C113.898 144.371 117.479 144.391 121.055 144.359C121.664 144.321 121.91 144.744 122.106 145.211C122.392 145.89 122.707 146.552 123.05 147.198C123.7 148.42 124.483 148.837 125.349 148.44C126.169 148.06 126.343 147.255 125.911 145.983C125.742 145.486 125.27 144.925 126.065 144.51C129.529 144.297 133.002 144.288 136.468 144.483C137.022 144.649 136.965 145.037 136.811 145.454C136.657 145.871 136.408 146.254 136.314 146.696C136.222 147.013 136.24 147.351 136.363 147.657C136.487 147.962 136.71 148.217 136.997 148.38C137.63 148.783 138.239 148.629 138.777 148.132C139.316 147.635 139.565 146.92 139.868 146.251C140.193 145.529 140.384 144.669 141.343 144.453C144.075 144.331 146.807 144.339 149.538 144.453C150.241 144.557 150.514 145.114 150.8 145.663C151.158 146.351 151.466 147.064 151.868 147.727C152.325 148.472 152.968 148.857 153.822 148.455C154.677 148.052 154.816 147.362 154.602 146.495C154.458 145.919 153.984 145.409 154.212 144.756L158.683 144.709C159.179 145.096 159.025 145.668 159.082 146.172C159.182 147.069 159.616 147.605 160.555 147.608C161.494 147.61 161.923 147.054 162.06 146.182C162.14 145.685 161.976 145.106 162.467 144.716C162.846 144.765 163.231 144.712 163.582 144.562C164.141 144.972 163.93 145.591 163.992 146.127C164.087 146.94 164.397 147.543 165.296 147.603C166.195 147.662 166.702 147.136 166.938 146.304C167.089 145.775 166.871 145.146 167.377 144.716H173.698C174.117 145.032 174.018 145.514 174.085 145.941C174.259 147.036 174.795 147.613 175.657 147.615C176.559 147.615 176.986 147.096 177.098 145.894C177.142 145.429 177.006 144.9 177.49 144.565C177.843 144.713 178.23 144.764 178.61 144.714C179.107 145.106 178.935 145.69 179.02 146.204C179.164 147.089 179.606 147.643 180.562 147.615C181.461 147.59 181.848 147.026 181.985 146.207C182.072 145.71 181.896 145.119 182.392 144.716H184.285C184.719 145.081 184.595 145.611 184.682 146.075C184.878 147.094 185.427 147.63 186.274 147.595C187.121 147.561 187.543 147.034 187.667 145.931C187.772 144.997 187.325 143.979 188.077 143.141C188.358 144.716 188.358 144.716 190.66 144.687Z" fill="#BDDC96"/>
<path d="M154.185 144.726C154.433 145.282 154.681 145.831 154.898 146.403C155.081 146.838 155.091 147.327 154.924 147.769C154.758 148.212 154.428 148.573 154.003 148.78C153.794 148.887 153.566 148.952 153.331 148.971C153.097 148.99 152.861 148.963 152.637 148.891C152.413 148.819 152.205 148.703 152.026 148.551C151.847 148.398 151.699 148.212 151.592 148.002C150.981 146.917 150.457 145.782 149.896 144.669C148.803 143.178 148.13 141.462 147.373 139.795C146.801 138.541 146.2 137.311 145.485 136.012C144.944 136.573 144.767 137.162 144.534 137.711C143.665 139.743 142.567 141.665 141.728 143.71C141.593 144.099 141.344 144.439 141.015 144.686C140.518 145.7 140.021 146.716 139.488 147.719C138.914 148.824 137.938 149.237 136.967 148.812C135.996 148.387 135.623 147.287 136.122 146.127C136.329 145.645 136.547 145.165 136.761 144.686C136.694 143.993 137.031 143.407 137.314 142.83C139.115 139.152 140.791 135.411 142.602 131.744C143.148 130.736 143.42 129.602 143.392 128.455C143.337 127.146 143.337 125.832 143.392 124.523C143.434 123.53 143.069 123.147 142.045 123.159C138.569 123.204 135.092 123.159 131.615 123.189C130.551 123.2 129.508 122.892 128.62 122.305C124.799 119.92 120.978 117.534 117.159 115.146C116.148 114.513 116.014 114.587 116.009 115.777C115.996 118.03 116.009 120.28 116.009 122.533C116.008 123.315 116.188 124.086 116.535 124.786C119.133 130.125 121.597 135.525 124.179 140.871C124.778 142.113 125.498 143.315 125.717 144.713C125.915 145.21 126.116 145.687 126.313 146.176C126.78 147.327 126.474 148.32 125.51 148.785C124.547 149.249 123.551 148.857 122.985 147.769C122.419 146.681 121.904 145.603 121.366 144.517C120.462 143.628 120.124 142.426 119.602 141.328C117.807 137.542 115.989 133.791 114.228 130.008C114.187 129.908 114.126 129.818 114.048 129.743C113.97 129.668 113.878 129.61 113.776 129.573C113.068 131.379 112.105 133.066 111.293 134.829C109.934 137.763 108.581 140.699 107.113 143.583C106.966 143.871 106.865 144.192 106.522 144.328C105.973 145.454 105.439 146.589 104.87 147.702C104.272 148.874 103.288 149.254 102.27 148.743C101.314 148.266 101.028 147.289 101.525 146.132C101.726 145.635 101.93 145.165 102.134 144.681C104.267 140.24 106.189 135.681 108.591 131.389C111.35 126.448 112.686 121.331 112.048 115.705C112.016 115.086 112.016 114.466 112.048 113.847C109.812 115.049 107.729 116.159 105.658 117.272C103.966 118.179 102.285 119.101 100.591 120.005C99.3048 120.683 98.294 120.467 97.7353 119.431C97.1765 118.395 97.5763 117.426 98.8478 116.738C102.936 114.527 107.023 112.307 111.136 110.138C111.799 109.79 112.13 109.435 112.062 108.66C111.985 107.724 112.311 106.656 111.946 105.871C111.581 105.086 110.361 105.282 109.542 104.969C106.718 103.915 104.358 101.898 102.877 99.2724C101.397 96.6471 100.892 93.583 101.451 90.6211C102.518 84.8408 107.843 80.4366 113.856 80.3397C120.489 80.2404 126.248 85.6655 126.554 92.3053C126.628 93.8827 126.243 94.603 125.21 94.8241C124.048 95.0725 123.387 94.5906 122.841 93.0853C122.538 92.8096 122.545 92.4345 122.503 92.0693C121.981 87.757 118.529 84.4458 114.139 84.3688C109.532 84.2844 106.147 87.7049 105.434 91.426C104.346 97.097 109.048 102.244 114.784 101.573C117.501 101.258 119.396 98.1105 118.673 95.1147C118.559 94.6378 118.361 94.1832 118.244 93.7063C117.906 92.2904 118.582 91.2372 119.97 90.9913C121.212 90.7702 122.242 91.6694 122.364 93.1002C123.576 97.6658 122.394 101.658 119.106 104.09C118.371 104.678 117.518 105.101 116.605 105.332C115.86 105.491 115.82 105.885 115.726 106.519C115.4 108.717 116.197 109.997 118.209 111.129C122.411 113.472 126.417 116.164 130.5 118.718C130.86 118.986 131.293 119.139 131.742 119.155C135.427 119.135 139.113 119.155 142.8 119.14C143.178 119.14 143.662 119.292 143.67 118.611C143.67 118.097 143.697 117.65 143.046 117.476C138.688 116.306 135.827 112.029 136.13 107.527C136.423 103.19 139.979 99.3152 144.646 98.2372C146.737 97.7404 148.783 97.8397 150.748 98.7663C152.223 99.4618 152.754 100.428 152.305 101.531C151.907 102.507 150.954 102.805 149.484 102.413C148.738 102.463 148.06 102.065 147.32 102.015C144.017 101.804 140.709 104.427 140.2 107.689C139.82 110.113 141.477 112.682 143.945 113.504C146.488 114.351 149.253 113.357 150.435 111.174C151.287 109.597 150.546 107.669 148.793 106.904C148.418 106.74 148.006 106.675 147.631 106.514C146.305 105.948 145.793 104.745 146.349 103.513C146.846 102.43 148.053 102.102 149.372 102.696C151.555 103.496 153.32 104.778 154.304 106.961C155.888 110.476 154.272 114.577 150.45 116.669C149.814 117.016 149.079 117.165 148.431 117.501C148.056 117.69 147.318 117.446 147.378 118.246C147.437 119.046 147.097 119.816 148.06 120.392C151.418 122.404 154.734 124.491 158.054 126.57C159.497 127.474 159.701 129.019 158.523 129.874C157.704 130.467 156.929 130.249 156.142 129.752C153.554 128.12 150.951 126.51 148.354 124.893C148.085 124.727 147.815 124.563 147.36 124.287C147.524 127.38 146.998 130.264 148.584 133.101C150.648 136.841 152.325 140.833 154.185 144.726Z" fill="#010101"/>
<path d="M174.654 104.025C168.04 103.988 162.837 98.6721 162.887 92.0025C162.934 85.6285 168.249 80.3698 174.674 80.34C181.262 80.3102 186.567 85.7378 186.512 92.4521C186.46 98.7914 181.056 104.062 174.654 104.025Z" fill="#010101"/>
<path d="M122.337 93.0981C121.4 91.404 120.566 90.9072 119.468 91.3866C118.371 91.866 118.284 92.7429 118.87 94.6556C119.515 96.7595 119.098 98.6896 117.665 100.369C116.138 102.167 114.084 102.304 112.033 101.842C107.135 100.741 104.582 96.4764 104.937 92.4423C105.375 87.5786 109.192 84.091 113.858 84.0338C118.81 83.9742 122.868 88.0778 122.814 93.0906L122.337 93.0981Z" fill="#8AB2DE"/>
<path d="M149.337 102.694C149.012 102.679 148.684 102.652 148.356 102.649C147.211 102.649 146.491 103.208 146.382 104.219C146.262 105.344 146.819 106.079 147.872 106.288C148.765 106.422 149.589 106.848 150.214 107.5C151.408 108.79 151.478 110.459 150.402 111.852C149.911 112.496 149.291 113.032 148.583 113.426C147.875 113.819 147.094 114.063 146.287 114.141C145.481 114.219 144.667 114.13 143.897 113.88C143.126 113.629 142.416 113.222 141.81 112.685C141.191 112.143 140.693 111.478 140.347 110.732C140.002 109.986 139.817 109.176 139.804 108.354C139.792 107.532 139.952 106.716 140.274 105.96C140.596 105.203 141.074 104.523 141.675 103.963C143.573 102.157 145.81 101.196 148.507 101.901C148.872 101.961 149.206 102.14 149.456 102.411C149.411 102.517 149.374 102.599 149.337 102.694Z" fill="#DE636F"/>
<path d="M180.691 105.384C181.097 105.415 181.479 105.586 181.773 105.868C182.067 106.15 182.254 106.525 182.303 106.929C182.816 109.779 183.299 112.635 183.753 115.497C183.828 115.989 183.706 116.491 183.414 116.895C183.123 117.299 182.684 117.572 182.193 117.655C181.722 117.728 181.241 117.612 180.854 117.334C180.467 117.055 180.205 116.635 180.125 116.165C179.603 113.316 179.109 110.452 178.667 107.6C178.471 106.333 179.34 105.364 180.691 105.384Z" fill="#020202"/>
<path d="M151.344 79.925C151.344 78.6979 152.367 77.7366 153.494 78.0545C156.149 78.7997 158.782 79.6617 161.37 80.6181C162.276 80.9534 162.644 81.8601 162.229 82.8711C161.814 83.8821 160.888 84.2746 159.686 83.8945C157.674 83.2586 155.675 82.5804 153.671 81.9073C153.241 81.7849 152.819 81.6339 152.409 81.4552C152.111 81.3188 151.855 81.1048 151.667 80.8357C151.48 80.5666 151.368 80.2521 151.344 79.925Z" fill="#020202"/>
<path d="M168.077 107.316C167.978 107.595 167.866 107.985 167.7 108.35C166.753 110.421 165.797 112.491 164.832 114.56C164.25 115.802 163.322 116.239 162.303 115.802C161.193 115.322 160.865 114.311 161.447 113.04C162.423 110.887 163.417 108.746 164.427 106.618C164.856 105.714 165.579 105.207 166.602 105.438C167.489 105.627 167.933 106.295 168.077 107.316Z" fill="#020202"/>
<path d="M154.639 94.8689C153.743 94.8689 152.844 94.8912 151.947 94.8689C150.877 94.8391 150.261 94.1783 150.181 93.1971C150.102 92.2159 150.651 91.4061 151.671 91.2919C153.697 91.0596 155.743 91.0596 157.768 91.2919C158.809 91.4136 159.293 92.1787 159.209 93.2195C159.124 94.2603 158.479 94.8242 157.446 94.8639C156.507 94.9012 155.568 94.8639 154.629 94.8639L154.639 94.8689Z" fill="#040404"/>
<path d="M92.5397 144.681C92.5218 145.289 92.4712 145.895 92.3882 146.497C92.1994 147.521 91.5339 148.062 90.4933 148.017C89.4999 147.975 88.9163 147.421 88.7797 146.435C88.7027 145.876 88.6679 145.31 88.6133 144.746C88.9138 144.065 88.6133 143.335 88.7896 142.647C89.1125 141.527 89.8823 141.08 90.9974 141.273C92.0603 141.46 92.3832 142.267 92.4602 143.223C92.4925 143.718 92.5123 144.199 92.5397 144.681Z" fill="#040504"/>
<path d="M97.2906 142.866C97.2906 143.924 97.3254 144.987 97.2906 146.045C97.2459 147.322 96.5456 148.032 95.4479 148.032C94.3824 148.032 93.6622 147.262 93.5753 146.03C93.5455 145.583 93.5331 145.134 93.5107 144.686C93.5356 144.239 93.5579 143.79 93.5828 143.343C93.6498 142.088 94.2185 141.355 95.2268 141.261C96.3891 141.162 97.0795 141.713 97.2906 142.866Z" fill="#030403"/>
<path d="M162.45 144.686C162.433 145.218 162.438 145.752 162.395 146.281C162.377 146.756 162.174 147.205 161.829 147.532C161.485 147.86 161.025 148.039 160.55 148.032C160.314 148.037 160.08 147.996 159.861 147.91C159.641 147.824 159.44 147.696 159.27 147.532C159.1 147.369 158.964 147.174 158.87 146.958C158.775 146.742 158.724 146.509 158.72 146.273C158.68 145.744 158.683 145.21 158.665 144.679C158.648 144.147 158.678 143.539 158.72 142.97C158.736 142.496 158.938 142.049 159.282 141.723C159.626 141.398 160.084 141.221 160.558 141.231C161.03 141.225 161.486 141.403 161.829 141.727C162.172 142.052 162.375 142.498 162.395 142.97C162.43 143.546 162.43 144.117 162.45 144.686Z" fill="#020202"/>
<path d="M167.36 144.686C167.342 145.183 167.34 145.657 167.303 146.139C167.213 147.302 166.414 148.064 165.353 148.025C164.293 147.985 163.659 147.297 163.615 146.107C163.59 145.583 163.585 145.056 163.573 144.532C163.56 144.008 163.592 143.556 163.62 143.069C163.682 141.956 164.308 141.293 165.331 141.246C165.803 141.204 166.272 141.35 166.637 141.653C167.002 141.955 167.233 142.389 167.28 142.86C167.338 143.467 167.365 144.077 167.36 144.686Z" fill="#020302"/>
<path d="M177.472 144.535C177.457 145.101 177.472 145.667 177.425 146.231C177.356 147.322 176.698 147.987 175.687 148.025C175.217 148.047 174.756 147.89 174.398 147.585C174.04 147.28 173.812 146.85 173.76 146.383C173.688 145.824 173.707 145.252 173.685 144.686C173.705 144.117 173.685 143.546 173.752 142.982C173.866 141.882 174.664 141.194 175.717 141.243C176.73 141.29 177.371 141.969 177.43 143.069C177.452 143.558 177.457 144.048 177.472 144.535Z" fill="#020302"/>
<path d="M182.375 144.686C182.36 145.218 182.362 145.749 182.32 146.278C182.304 146.754 182.103 147.204 181.759 147.532C181.414 147.86 180.955 148.039 180.48 148.032C180.004 148.041 179.545 147.861 179.201 147.532C178.858 147.203 178.659 146.751 178.647 146.276C178.607 145.747 178.61 145.215 178.592 144.684C178.61 144.112 178.592 143.541 178.647 142.972C178.663 142.499 178.865 142.052 179.208 141.726C179.552 141.401 180.009 141.224 180.482 141.233C180.955 141.225 181.412 141.403 181.756 141.728C182.099 142.053 182.302 142.499 182.32 142.972C182.367 143.543 182.36 144.117 182.375 144.686Z" fill="#020202"/>
<path d="M188.064 143.109C188.064 144.127 188.064 145.148 188.032 146.164C187.982 147.309 187.352 147.965 186.326 148.022C185.3 148.079 184.481 147.379 184.339 146.271C184.275 145.747 184.285 145.213 184.262 144.684C184.282 144.234 184.302 143.787 184.324 143.34C184.386 142.056 185.027 141.295 186.093 141.243C187.22 141.186 187.801 141.738 188.064 143.109Z" fill="#030303"/>
<path d="M88.7848 142.659C88.7178 143.357 88.986 144.085 88.6085 144.758C88.6706 144.058 88.4222 143.332 88.7848 142.659Z" fill="#BDDC96"/>
<path d="M103.097 47.8064C104.55 46.0179 106.271 44.5101 108.064 43.0619C108.583 42.6396 108.903 42.6943 109.385 43.1538C116.594 50.023 123.63 57.0611 130.495 64.2681C130.88 64.673 131.106 64.9587 130.582 65.4579C128.863 67.0924 127.187 68.7716 125.493 70.426C124.942 70.5552 124.676 70.1205 124.376 69.8174C117.468 62.9267 110.571 56.0277 103.683 49.1205C103.335 48.7901 102.774 48.4771 103.097 47.8064Z" fill="#DE636F"/>
<path d="M103.097 47.8066C103.112 48.219 103.4 48.4624 103.661 48.7208C110.805 55.8665 117.951 63.0114 125.098 70.1555C125.223 70.2612 125.355 70.3575 125.493 70.4436C123.655 72.6047 123.641 72.6196 121.671 70.7516C114.866 64.2932 108.26 57.6384 101.803 50.8496C101.254 50.2758 101.237 49.8982 101.739 49.3592C102.24 48.8201 102.643 48.3283 103.097 47.8066Z" fill="#DB4B55"/>
<path d="M128.439 72.9076L133.271 68.3618C134.063 70.3851 134.2 72.606 133.661 74.711C133.465 75.5133 132.395 75.3121 131.655 75.327C130.619 75.1308 129.802 74.5172 128.995 73.9037C128.682 73.6652 128.327 73.4044 128.439 72.9076Z" fill="#F5E166"/>
<path d="M128.439 72.9077C129.246 74.0653 130.584 74.5174 131.655 75.3272C129.993 75.4915 128.315 75.2599 126.76 74.6515L128.439 72.9077Z" fill="#E8BC69"/>
<path d="M125.702 144.714C123.345 139.793 121.159 134.777 118.577 129.981C116.354 125.857 115.197 121.644 115.713 116.974C115.815 116.045 115.728 115.094 115.728 114.133C116.26 114.031 116.568 114.426 116.925 114.647C120.988 117.159 125.044 119.684 129.094 122.221C129.744 122.645 130.506 122.864 131.282 122.849C135.007 122.827 138.745 122.867 142.475 122.819C143.349 122.819 143.824 122.961 143.63 123.937C143.624 123.977 143.624 124.019 143.63 124.059C144.099 128.297 143.148 132.177 141.03 135.89C139.42 138.717 138.171 141.748 136.761 144.686L125.702 144.714Z" fill="#F7F9F9"/>
<path d="M106.517 144.336C108.936 139.171 111.357 134.006 113.779 128.841C113.876 128.886 113.98 128.898 114.005 128.95C116.457 134.137 118.905 139.326 121.348 144.518C121.031 144.766 120.651 144.694 120.29 144.694C116.054 144.694 111.817 144.694 107.58 144.694C107.2 144.691 106.738 144.848 106.517 144.336Z" fill="#F7F9F8"/>
<path d="M141.015 144.687L145.453 134.984C147.03 138.419 148.463 141.544 149.896 144.672L141.015 144.687Z" fill="#F7F8F8"/>
<path d="M174.671 100.282C173.606 100.285 172.55 100.077 171.565 99.6704C170.581 99.2634 169.687 98.6654 168.934 97.9109C168.182 97.1564 167.587 96.2603 167.182 95.2743C166.778 94.2884 166.573 93.2321 166.58 92.1665C166.591 90.0146 167.452 87.9545 168.976 86.4352C170.499 84.9159 172.562 84.0607 174.713 84.0562C176.865 84.0731 178.924 84.9385 180.442 86.4644C181.96 87.9903 182.815 90.0536 182.822 92.2063C182.818 93.2721 182.604 94.3268 182.192 95.3098C181.78 96.2929 181.178 97.185 180.421 97.9351C179.664 98.6852 178.766 99.2786 177.78 99.6813C176.793 100.084 175.737 100.288 174.671 100.282Z" fill="#F6E266"/>
<path d="M115.703 89.8639C115.727 90.357 115.555 90.8394 115.225 91.2071C114.896 91.5747 114.435 91.798 113.943 91.8287C112.979 91.8536 112.06 90.9544 112.028 89.9558C112.035 89.4604 112.226 88.9853 112.563 88.6224C112.9 88.2595 113.36 88.0345 113.853 87.9909C114.099 87.9875 114.343 88.0337 114.57 88.1269C114.798 88.2201 115.004 88.3583 115.177 88.5333C115.35 88.7082 115.486 88.9162 115.576 89.1448C115.666 89.3735 115.71 89.6181 115.703 89.8639Z" fill="#030509"/>
<path d="M110.957 92.0172C110.95 92.5116 110.752 92.984 110.405 93.3361C110.058 93.6882 109.589 93.8929 109.095 93.9076C108.002 93.9076 107.282 93.1624 107.277 92.0396C107.266 91.795 107.305 91.5507 107.39 91.3213C107.476 91.0918 107.606 90.8819 107.774 90.704C107.943 90.5261 108.145 90.3837 108.369 90.2855C108.593 90.1872 108.835 90.1349 109.08 90.1318C109.575 90.1445 110.046 90.3474 110.396 90.6985C110.745 91.0496 110.946 91.5218 110.957 92.0172Z" fill="#020406"/>
<path d="M144.763 108.543C144.759 109.061 144.551 109.556 144.185 109.921C143.818 110.286 143.323 110.491 142.806 110.493C142.311 110.456 141.85 110.231 141.517 109.864C141.183 109.497 141.003 109.017 141.013 108.521C141.054 108.029 141.27 107.569 141.622 107.223C141.973 106.877 142.438 106.669 142.93 106.636C143.425 106.649 143.895 106.856 144.238 107.213C144.581 107.57 144.769 108.048 144.763 108.543Z" fill="#0B0303"/>
<path d="M149.98 109.453C149.97 109.969 149.76 110.462 149.396 110.828C149.031 111.194 148.54 111.405 148.023 111.418C147.55 111.39 147.103 111.192 146.765 110.86C146.427 110.528 146.221 110.084 146.186 109.612C146.184 109.097 146.381 108.601 146.735 108.227C147.089 107.852 147.574 107.629 148.088 107.602C148.584 107.599 149.06 107.791 149.415 108.138C149.769 108.484 149.972 108.957 149.98 109.453Z" fill="#070202"/>
</g>
<defs>
<clipPath id="clip0_289_69">
<rect width="280" height="199" fill="white"/>
</clipPath>
<clipPath id="clip1_289_69">
<rect width="115" height="126" fill="white" transform="translate(82 36)"/>
</clipPath>
</defs>
</svg>
