<svg width="84" height="84" viewBox="0 0 84 84" fill="none" xmlns="http://www.w3.org/2000/svg">
<path d="M69.8369 20.167C66.5448 19.8608 63.2261 20.0156 59.9768 20.627C53.7168 21.767 48.2368 24.967 41.8468 27.067C42.0668 24.967 42.2968 23.187 42.4868 21.397C42.8968 16.467 43.3968 11.487 41.9768 6.60699C40.9768 2.94699 39.2368 0.296989 35.0368 0.0269891C30.6068 -0.293011 28.4668 2.26698 26.9068 5.87698C25.3468 9.48698 26.2268 13.267 25.9968 17.017C12.5268 12.857 11.9269 12.817 7.08688 14.017C3.79688 14.787 1.08683 16.337 0.286828 19.767C-0.15327 21.4682 -0.0857045 23.2611 0.481164 24.9244C1.04803 26.5876 2.08941 28.0486 3.47683 29.127C6.52287 31.716 10.22 33.4211 14.1668 34.057C18.2268 34.887 22.3468 35.477 27.0468 36.297C21.3368 40.867 16.0468 44.747 12.2968 50.187C8.54684 55.627 5.57685 61.097 8.68685 67.677C12.0669 74.617 18.0069 78.137 25.6269 78.957C30.2869 79.457 34.8068 78.727 39.4268 77.857C40.5168 81.607 42.2569 84.167 46.5069 82.477C47.5069 79.957 45.6769 78.137 44.9469 75.897C47.9469 74.527 50.7069 73.247 53.2569 72.057C55.6369 74.207 55.8668 79.917 59.9268 77.217C63.7168 74.757 59.2469 72.017 57.6969 69.407L63.0368 65.897C64.9568 68.227 65.2268 71.897 69.0368 71.897C69.6286 71.9426 70.2177 71.7795 70.7017 71.4361C71.1858 71.0927 71.5344 70.5906 71.6869 70.017C72.5469 66.457 69.6869 64.677 67.7569 62.397C69.7569 60.657 71.4069 58.557 73.7569 57.547C76.4069 59.147 78.0969 64.357 81.3869 61.157C85.2169 57.507 79.5168 55.637 77.9168 52.527C80.8062 48.8207 82.6934 44.4334 83.3969 39.787C85.3669 29.167 79.9369 21.217 69.8369 20.167ZM34.3568 3.67698C37.4568 6.51698 37.4568 6.51698 37.8668 25.787C30.4268 19.117 28.5568 9.61698 34.3568 3.67698ZM9.14687 26.197C6.99687 25.057 4.89684 23.727 5.35684 21.037C5.71684 18.797 7.95682 18.297 9.96682 17.977C17.0868 16.787 29.8768 23.727 33.2168 31.037C24.7668 29.667 16.5569 30.127 9.14687 26.197ZM12.2469 65.657C10.3769 61.657 12.5669 55.567 17.9569 50.587C19.8269 59.677 25.2668 66.587 30.7868 74.337C22.4368 75.067 14.7169 71.137 12.2469 65.657ZM32.4369 68.307C26.9969 62.917 24.4368 55.977 22.9768 48.847C22.1168 44.697 26.4968 43.007 29.9768 41.127C31.9768 46.517 32.8069 51.907 36.3269 56.517C39.7569 60.947 42.7669 65.657 47.3269 69.717C40.3869 73.417 37.1369 73.007 32.4369 68.307ZM47.2368 62.597C41.8991 57.8296 37.9264 51.7274 35.7268 44.917C33.5768 38.527 34.0768 37.657 41.1568 34.827C44.3068 46.387 49.2469 56.337 60.5669 61.637C54.3569 67.847 53.2168 67.937 47.2368 62.597ZM77.4668 42.597C76.8247 44.6673 75.7319 46.5695 74.2669 48.167C71.8969 52.167 68.5568 55.387 65.1768 58.627C54.5868 54.107 48.8269 45.747 45.8169 35.017C45.5265 34.2342 45.5557 33.3686 45.8981 32.6071C46.2405 31.8456 46.8686 31.2493 47.6469 30.947C51.5669 28.897 55.4068 26.567 59.9268 25.947C61.6168 24.577 63.6769 24.797 65.6869 24.947C65.5469 24.437 66.0468 24.577 66.3668 24.487C67.9268 24.217 69.4268 23.757 70.8468 24.897C71.7568 25.307 73.0868 24.717 73.7268 25.947C75.0107 26.1949 76.1816 26.8469 77.0686 27.8076C77.9555 28.7683 78.512 29.9875 78.6568 31.287C80.4368 35.287 78.8868 38.937 77.4668 42.637V42.597Z" fill="#333333"/>
<path d="M77.4666 42.637C76.8245 44.7073 75.7317 46.6095 74.2666 48.207C73.6266 46.387 73.0366 44.557 72.2666 42.497C74.0866 41.817 75.7766 42.597 77.4666 42.637Z" fill="#333333"/>
<path d="M77.4666 42.637C78.8866 38.937 80.4666 35.287 78.6566 31.307C76.9666 29.527 74.4966 28.667 73.7666 26.057C72.4466 26.657 71.6166 25.787 70.8466 24.917C69.4266 23.777 67.9266 24.237 66.3666 24.507L65.7766 25.057C65.5966 26.197 66.4166 27.747 64.4966 28.117C63.6116 28.2744 62.6997 28.1576 61.8829 27.7823C61.0661 27.407 60.3836 26.791 59.9266 26.017C55.4066 26.607 51.5666 28.937 47.6466 31.017C46.8684 31.3193 46.2402 31.9156 45.8979 32.6771C45.5555 33.4386 45.5263 34.3042 45.8166 35.087C48.8166 45.817 54.5866 54.177 65.1766 58.697C68.5566 55.457 71.8966 52.257 74.2666 48.237C73.6266 46.417 73.0366 44.587 72.2666 42.527C74.0866 41.817 75.7766 42.597 77.4666 42.637ZM54.4666 39.487C53.0966 38.487 51.8566 37.487 50.2666 36.337C50.7345 35.6699 51.3473 35.1174 52.0591 34.7208C52.7709 34.3243 53.5632 34.0939 54.3766 34.047C56.4166 35.697 55.5566 37.477 54.4966 39.477L54.4666 39.487ZM62.8666 41.957C60.0866 41.637 57.7066 40.717 57.5266 37.337C57.3466 33.957 59.2166 32.407 62.2766 32.407C66.1566 32.407 66.0166 35.927 66.5666 38.297C67.1166 40.667 65.3166 41.817 62.8966 41.957H62.8666ZM71.2266 36.787C70.4466 35.377 70.6766 33.957 70.9566 32.457C71.6883 32.5485 72.3894 32.806 73.0064 33.2098C73.6234 33.6136 74.1399 34.1531 74.5166 34.787C74.2666 36.787 72.8066 36.837 71.2566 36.787H71.2266Z" fill="url(#paint0_linear_80_5567)"/>
<path d="M47.3166 69.707C40.3166 73.427 37.1466 72.987 32.4366 68.317C27.0066 62.927 24.4365 55.977 22.9665 48.867C22.0965 44.707 26.5165 42.987 29.9665 41.117C31.9665 46.497 32.7666 51.927 36.3066 56.527C39.7366 60.957 42.7566 65.677 47.3166 69.707Z" fill="url(#paint1_linear_80_5567)"/>
<path d="M41.147 34.847C44.327 46.387 49.247 56.357 60.557 61.617C54.347 67.867 53.197 67.947 47.227 62.617C41.9041 57.8309 37.9316 51.7308 35.707 44.927C33.557 38.537 34.067 37.677 41.147 34.847Z" fill="url(#paint2_linear_80_5567)"/>
<path d="M30.797 74.337C22.417 75.047 14.727 71.157 12.227 65.647C10.397 61.647 12.557 55.537 17.977 50.577C19.837 59.657 25.267 66.597 30.797 74.337Z" fill="url(#paint3_linear_80_5567)"/>
<path d="M62.8968 41.937C60.1268 41.627 57.7567 40.717 57.5367 37.357C57.3167 33.997 59.2267 32.357 62.3267 32.357C66.1767 32.357 66.0568 35.867 66.5868 38.247C67.1168 40.627 65.3068 41.797 62.8968 41.937Z" fill="#333333"/>
<defs>
<linearGradient id="paint0_linear_80_5567" x1="45.6366" y1="41.427" x2="79.4566" y2="41.427" gradientUnits="userSpaceOnUse">
<stop stop-color="#E3B724"/>
<stop offset="1" stop-color="#FFC961"/>
</linearGradient>
<linearGradient id="paint1_linear_80_5567" x1="22.8565" y1="56.657" x2="47.3166" y2="56.657" gradientUnits="userSpaceOnUse">
<stop stop-color="#E3B724"/>
<stop offset="1" stop-color="#FFC961"/>
</linearGradient>
<linearGradient id="paint2_linear_80_5567" x1="34.587" y1="50.657" x2="60.557" y2="50.657" gradientUnits="userSpaceOnUse">
<stop stop-color="#E3B724"/>
<stop offset="1" stop-color="#FFC961"/>
</linearGradient>
<linearGradient id="paint3_linear_80_5567" x1="11.587" y1="62.497" x2="30.797" y2="62.497" gradientUnits="userSpaceOnUse">
<stop stop-color="#E3B724"/>
<stop offset="1" stop-color="#FFC961"/>
</linearGradient>
</defs>
</svg>
