<svg width="280" height="199" viewBox="0 0 280 199" fill="none" xmlns="http://www.w3.org/2000/svg">
<g clip-path="url(#clip0_80_5648)">
<path d="M279.901 118.536C279.901 113.709 278.631 111.258 277.396 108.885C276.161 106.513 274.996 104.271 274.996 99.6585C274.91 96.5439 275.439 93.4322 276.576 90.3602C277.743 87.1944 278.288 83.9879 278.203 80.7786C278.203 75.9521 276.916 73.4977 275.675 71.1255C274.434 68.7533 273.252 66.5134 273.252 61.9014C273.252 57.2893 274.422 55.0441 275.593 52.6719C276.763 50.2997 278.063 47.848 278.063 43.0241C278.142 39.8218 277.646 36.6219 276.582 33.4558C275.558 30.3742 275.09 27.2601 275.183 24.1442C275.13 21.0224 275.478 17.9018 276.225 14.7983C276.989 11.6332 277.345 8.45075 277.29 5.26699C277.323 4.96304 277.216 4.65935 276.976 4.37503C276.736 4.09071 276.369 3.83191 275.897 3.6149C274.141 2.85504 271.467 2.88946 268.874 2.92388C268.341 2.92388 267.803 2.92388 267.264 2.92388C256.8 2.92388 251.714 2.39437 246.329 1.86485C240.945 1.33533 235.42 0.758162 224.499 0.758162C217.249 0.721918 210.005 0.96193 202.844 1.47566C195.877 1.97986 188.828 2.21369 181.774 2.17462C171.309 2.17462 166.223 1.6451 160.839 1.11558C155.454 0.586069 149.923 0.00360232 139.008 0.00360232C131.76 -0.0322626 124.518 0.199729 117.353 0.697267C110.383 1.18642 103.336 1.41312 96.2832 1.37505C85.6254 1.37505 80.2057 1.29827 74.9675 1.22678C69.7293 1.1553 64.2395 1.07852 53.5232 1.07852C42.8068 1.07852 37.4457 0.999091 32.2017 0.924959C26.9576 0.850826 21.4795 0.771401 10.7573 0.771401C6.27997 0.771401 3.26586 2.57705 3.26586 5.27228C3.26586 9.99292 3.26586 12.3519 3.26586 14.7109C3.26586 17.0699 3.26586 19.4315 3.26586 24.1522C3.33119 27.2714 2.91857 30.3889 2.03095 33.4822C1.12332 36.6485 0.7009 39.8394 0.766741 43.0321C0.766741 47.7739 1.02425 50.1805 1.27007 52.5157C1.51588 54.8508 1.77339 57.2125 1.77339 61.9119C1.77339 66.6114 1.55099 68.9995 1.33444 71.3108C1.11789 73.6222 0.889625 76.05 0.889625 80.7892C0.776102 84.0313 1.54869 87.2673 3.18978 90.4237C4.36032 92.8065 5.40212 95.0464 5.40212 99.6664C5.40212 104.286 4.12038 106.505 2.7684 108.875C1.41642 111.244 0 113.709 0 118.546C0 123.278 0.14052 125.695 0.275132 128.011C0.409745 130.328 0.550193 132.719 0.550193 137.426C0.459152 140.642 1.057 143.855 2.3353 147.018C3.57501 150.081 4.15127 153.19 4.05597 156.303C4.05597 161.053 4.41295 163.468 4.75241 165.803C5.09186 168.138 5.4372 170.492 5.4372 175.181C5.4372 179.803 4.37788 182.048 3.26001 184.429C2.14214 186.809 0.989147 189.242 0.989147 194.061C0.989147 196.443 6.03421 198.032 10.7398 198.032C21.4561 198.032 26.905 197.966 32.1783 197.905C37.4516 197.844 42.8419 197.78 53.5056 197.78C60.5716 197.746 67.6336 197.948 74.634 198.384C81.8093 198.829 89.047 199.036 96.289 199.004C103.537 199.04 110.78 198.807 117.944 198.307C124.914 197.821 131.962 197.595 139.014 197.632C146.259 197.666 153.498 197.447 160.669 196.978C167.659 196.519 174.717 196.306 181.78 196.343C192.256 196.343 197.348 196.83 202.738 197.346C208.129 197.862 213.636 198.405 224.546 198.405C235.309 198.405 240.787 198.22 246.078 198.042C251.369 197.865 256.695 197.688 267.306 197.688C268.511 197.688 270.232 197.622 271.478 197.063C272.877 196.422 272.86 195.527 272.842 194.492C272.842 194.354 272.842 194.227 272.842 194.066C272.746 190.952 273.335 187.842 274.598 184.781C275.896 181.617 276.504 178.403 276.412 175.186C276.48 171.991 276.045 168.798 275.113 165.631C274.199 162.54 273.777 159.424 273.849 156.306C273.849 151.583 273.808 149.181 273.773 146.86C273.738 144.538 273.691 142.142 273.691 137.426C273.691 132.843 275.177 130.614 276.752 128.255C278.326 125.896 279.901 123.394 279.901 118.536Z" fill="white"/>
<g clip-path="url(#clip1_80_5648)">
<path d="M153.406 42.8904C152.372 41.3721 151.547 40.0458 150.613 38.8226C150.082 38.1115 150.202 37.795 150.907 37.3719C151.928 36.7649 152.908 36.0914 153.841 35.3557C154.507 34.8259 154.85 34.8935 155.314 35.6118C156.603 37.6066 157.969 39.5445 159.435 41.6921C160.6 39.644 161.729 37.7488 162.759 35.8038C163.195 34.9859 163.559 34.737 164.395 35.3131C165.374 35.9852 166.404 36.5796 167.475 37.091C168.25 37.4465 168.162 37.8235 167.801 38.4351C166.848 40.0458 165.946 41.6886 164.997 43.3669C166.54 43.8825 168.073 44.2807 169.521 44.8888C178.326 48.6046 183.99 54.9908 185.863 64.5273C186.076 65.6076 186.195 66.7046 186.217 67.8058C186.262 71.1055 186.269 74.4076 186.238 77.7121C186.238 79.7318 185.077 80.8519 183.094 80.9123H182.549C180.808 80.9123 180.372 81.5417 180.779 83.2876C180.935 83.9632 181.413 83.6752 181.746 83.7285C187.445 84.6957 191.361 88.2515 192.674 93.6847C194.519 101.298 188.6 109.092 180.793 109.234C179.537 109.255 178.949 109.568 178.492 110.831C176.039 117.658 171.766 123.134 165.938 127.418C165.507 127.738 165.068 128.051 164.6 128.393C168.618 132.18 171.267 136.678 172.414 142.036C172.647 143.1 172.794 144.181 172.853 145.268C173.093 150.449 172.941 155.633 172.948 160.814C172.948 162.948 171.805 163.993 169.681 164.014C150.223 164.014 130.767 164.014 111.313 164.014C109.188 164.014 108.038 162.948 108.045 160.836C108.045 155.424 107.73 149.998 108.211 144.603C108.753 138.505 111.355 133.275 115.784 129.05C116.747 128.133 116.552 127.831 115.618 127.127C109.974 122.86 105.783 117.487 103.499 110.735C103.078 109.49 102.466 109.238 101.262 109.245C94.7584 109.287 89.7985 105.401 88.3152 99.2139C86.5238 91.7468 92.3298 83.9632 99.998 83.7427C101.524 83.7001 101.163 82.8751 101.265 82.0146C101.393 80.8981 100.805 80.8306 99.9732 80.9017C99.4726 80.9461 98.9691 80.9461 98.4686 80.9017C97.0525 80.7595 95.8842 79.7212 95.8771 78.3309C95.8594 74.2062 95.5231 70.0601 96.0329 65.9603C97.2932 56.0041 102.897 49.2482 111.844 45.1804C115.596 43.47 119.586 42.8869 123.7 42.9082C133.06 42.9509 142.424 42.9082 151.785 42.9082L153.406 42.8904Z" fill="#231F20"/>
<path d="M158.992 72.812C161.021 76.4033 163.754 78.9422 167.599 80.1938C169.762 80.905 171.978 80.969 174.208 80.905C174.916 80.8801 175.143 81.0863 175.139 81.8188C175.083 88.0983 175.373 94.4027 174.966 100.664C174.091 114.258 164.596 124.221 153.144 127.429C150.424 128.206 147.606 128.582 144.778 128.545C140.994 128.474 137.213 128.691 133.425 128.303C119.667 126.881 110.059 116.143 107.829 105.721C107.075 102.193 106.901 98.6661 106.891 95.0961C106.891 90.7865 106.891 86.4769 106.795 82.1673C106.774 81.1005 107.082 80.8978 108.084 80.9014C120.365 80.937 132.649 80.8836 144.93 80.9441C151.136 80.9547 155.771 78.3661 158.992 72.812Z" fill="#FDDCCF"/>
<path d="M124.748 75.1837C117.49 75.1837 110.233 75.1589 102.972 75.2086C101.864 75.2086 101.453 74.9633 101.506 73.7863C101.679 70.0954 101.194 66.3761 102.398 62.7634C104.912 55.1932 112.442 49.2835 120.386 48.6826C122.347 48.5332 124.302 48.4977 126.263 48.4977C137.131 48.4977 147.996 48.4336 158.861 48.519C166.161 48.5759 172.282 51.3209 176.775 57.2413C179.225 60.4097 180.552 64.3091 180.545 68.3211C180.545 70.2946 180.524 72.2645 180.545 74.2379C180.545 74.9491 180.305 75.1944 179.597 75.1837C176.764 75.1446 173.932 75.2335 171.1 75.1126C168.7 75.006 166.714 73.8432 165.23 71.9764C163.69 70.0314 162.43 67.9051 161.853 65.4445C161.552 64.1715 160.791 63.311 159.513 63.0337C158.114 62.7385 157.134 63.4141 156.419 64.5555C155.466 66.081 154.946 67.802 154.213 69.4269C152.524 73.1783 149.699 75.1766 145.543 75.1731L124.748 75.1837Z" fill="#C46F67"/>
<path d="M140.495 158.3C136.201 158.3 131.91 158.261 127.619 158.329C126.504 158.329 126.242 158.001 126.281 156.945C126.362 154.84 126.256 152.725 126.327 150.62C126.359 149.681 126.037 149.432 125.162 149.485C123.746 149.574 121.919 149.037 121.059 149.741C120.199 150.445 120.829 152.401 120.776 153.802C120.73 155.039 120.74 156.291 120.776 157.514C120.776 158.105 120.613 158.321 120.004 158.311C118.135 158.282 116.262 158.293 114.389 158.311C113.911 158.311 113.614 158.24 113.639 157.646C113.851 152.668 113.093 147.643 114.202 142.712C115.221 138.174 117.66 134.501 121.282 131.621C121.845 131.173 122.298 131.059 122.974 131.383C124.39 132.069 126.083 132.247 127.414 133.015C128.809 133.819 128.543 135.813 129.368 137.157C132.292 141.908 136.484 144.113 141.999 143.643C146.8 143.234 151.13 139.572 152.546 134.715C152.875 133.577 153.431 133.132 154.511 132.898C155.707 132.645 156.87 132.253 157.977 131.731C158.901 131.283 159.509 131.411 160.253 132.058C164.742 135.97 167.156 140.855 167.333 146.808C167.429 150.293 167.333 153.777 167.372 157.262C167.372 158.115 167.153 158.361 166.31 158.329C164.625 158.261 162.933 158.254 161.244 158.329C160.338 158.371 160.203 158.012 160.221 157.219C160.267 154.975 160.203 152.728 160.253 150.463C160.271 149.667 160.012 149.432 159.244 149.471C158.058 149.528 156.868 149.532 155.682 149.471C154.886 149.428 154.67 149.724 154.684 150.492C154.727 152.735 154.659 154.986 154.72 157.248C154.741 158.108 154.465 158.314 153.636 158.314C149.26 158.282 144.885 158.3 140.495 158.3Z" fill="#72CFE9"/>
<path d="M101.301 95.9355C101.354 97.9303 101.159 100.27 101.559 102.588C101.68 103.3 101.584 103.676 100.688 103.655C96.8968 103.534 93.7743 100.537 93.6398 96.8102C93.5586 94.9641 94.1893 93.1577 95.4007 91.7668C96.612 90.376 98.3107 89.5079 100.143 89.3431C101.032 89.2542 101.361 89.4391 101.322 90.4098C101.244 92.1166 101.301 93.8589 101.301 95.9355Z" fill="#FBCBBF"/>
<path d="M180.751 96.8738C180.751 94.5057 180.797 92.486 180.73 90.4734C180.698 89.5454 180.956 89.2645 181.873 89.4565C185.059 90.1214 187.467 93.2896 187.371 96.7316C187.276 99.9958 184.698 102.983 181.597 103.488C180.641 103.644 180.351 103.463 180.475 102.421C180.723 100.583 180.815 98.7274 180.751 96.8738Z" fill="#FBCBBF"/>
<path d="M146.899 134.131C145.391 136.812 143.277 138.135 140.473 138.117C137.669 138.1 135.563 136.78 134.179 134.131H146.899Z" fill="#F8C9BE"/>
<path d="M140.477 112.868C138.409 112.859 136.415 112.089 134.873 110.705C133.33 109.321 132.345 107.418 132.104 105.354C132.012 104.565 132.285 104.384 132.979 104.416C133.754 104.451 134.529 104.448 135.305 104.416C136.561 104.366 137.698 104.227 138.186 105.948C138.48 106.976 139.67 107.417 140.806 107.275C141.943 107.132 142.93 106.46 143.167 105.29C143.344 104.451 143.752 104.405 144.396 104.416C145.628 104.437 146.874 104.455 148.088 104.416C148.864 104.391 148.984 104.704 148.892 105.411C148.645 107.475 147.651 109.375 146.099 110.75C144.548 112.125 142.546 112.879 140.477 112.868Z" fill="#232020"/>
<path d="M155.86 100.739C155.427 100.752 154.997 100.676 154.595 100.518C154.192 100.36 153.826 100.122 153.517 99.8183C153.208 99.5146 152.963 99.1516 152.797 98.7508C152.63 98.35 152.546 97.9197 152.549 97.4856C152.541 97.0514 152.618 96.6198 152.776 96.2157C152.935 95.8116 153.171 95.4429 153.472 95.1309C153.773 94.8189 154.132 94.5698 154.529 94.3978C154.926 94.2258 155.353 94.1345 155.785 94.1289C156.658 94.134 157.494 94.4783 158.119 95.0895C158.744 95.7008 159.109 96.5315 159.138 97.4073C159.138 98.2842 158.794 99.1258 158.18 99.7495C157.566 100.373 156.733 100.729 155.86 100.739Z" fill="#242020"/>
<path d="M128.472 97.4146C128.485 97.8491 128.411 98.2819 128.254 98.6869C128.096 99.0919 127.859 99.4607 127.556 99.7713C127.253 100.082 126.891 100.328 126.491 100.494C126.091 100.66 125.662 100.744 125.229 100.739C124.355 100.75 123.512 100.413 122.883 99.8024C122.255 99.1918 121.892 98.3566 121.873 97.4786C121.883 96.6022 122.231 95.7637 122.843 95.1397C123.456 94.5156 124.286 94.1546 125.158 94.1326C125.591 94.127 126.021 94.2076 126.422 94.37C126.824 94.5324 127.189 94.7732 127.498 95.0784C127.806 95.3837 128.051 95.7474 128.218 96.1484C128.385 96.5494 128.472 96.9798 128.472 97.4146Z" fill="#242020"/>
</g>
</g>
<defs>
<clipPath id="clip0_80_5648">
<rect width="280" height="199" fill="white"/>
</clipPath>
<clipPath id="clip1_80_5648">
<rect width="105" height="129" fill="white" transform="translate(88 35)"/>
</clipPath>
</defs>
</svg>
