<svg width="137" height="137" viewBox="0 0 137 137" fill="none" xmlns="http://www.w3.org/2000/svg">
<path d="M118.403 99.6245C107.873 101.795 99.0634 97.1446 89.0734 93.1846C91.0734 103.855 90.1734 113.245 86.3134 122.255C80.2534 136.365 64.1934 141.415 53.0434 131.785C49.5434 128.785 48.0434 122.625 47.1234 117.635C45.5434 108.935 43.2434 100.025 47.0034 91.1746C47.3534 90.3746 46.7434 89.1746 46.4634 87.4446C36.9734 88.2946 27.8134 90.4446 18.4034 90.4446C8.13344 90.4446 -1.18656 80.5446 0.123445 70.3647C0.763445 65.3647 4.12343 63.1446 8.42343 61.7846C17.0334 59.0346 25.8034 60.0647 34.5334 60.9947C37.9234 61.3547 41.2734 62.1247 46.5334 62.9947C43.3234 58.8747 40.9934 55.9947 38.7834 52.9947C36.0269 49.3901 34.0392 45.2582 32.9434 40.8546C32.2634 38.0046 31.0434 34.7146 34.5134 33.0846C38.1634 31.3646 39.8134 34.6046 41.1734 37.0846C45.6134 45.1846 50.4534 52.9546 57.8034 60.0246C58.1834 48.1146 55.3134 36.8546 57.6234 25.5646C59.9034 14.4646 65.6234 8.56455 75.2134 8.26456C85.2801 7.98456 89.8634 12.928 88.9634 23.0946C88.0934 33.0046 83.7634 41.8746 79.5934 52.3146C90.1934 48.0046 99.1634 42.9447 109.453 41.7447C114.762 41.094 120.148 41.8741 125.053 44.0045C131.623 46.7945 136.393 51.1546 136.163 58.9446C135.943 66.5546 131.423 71.0546 124.693 73.6746C116.323 76.9346 107.553 77.3446 98.7634 76.9146C91.6234 76.5546 84.5034 75.6646 75.8734 74.9146C89.5234 85.7646 105.103 90.7245 118.403 99.6245ZM16.1934 80.9947L18.6734 81.9246L27.2834 82.4546C32.1634 83.1946 36.8534 82.3046 41.4734 80.8046C45.6508 80.2543 49.6227 78.6622 53.0234 76.1746C56.0234 76.6846 58.3334 78.1746 59.2534 81.3646C50.9234 91.2246 54.7134 102.605 55.0534 113.555C56.5934 120.165 56.7334 128.095 67.1134 126.425C72.3355 124.819 76.7441 121.274 79.4334 116.518C82.1228 111.762 82.8885 106.157 81.5734 100.855C80.1934 94.9646 81.8634 88.0546 74.3334 83.5546C60.7734 75.4446 49.5434 62.3746 31.2134 66.3946C30.3434 66.5846 29.2734 65.5346 28.2134 65.3946C21.2134 64.3946 14.3934 64.2146 9.26344 70.3946C4.52344 75.9746 7.76344 78.2146 13.1134 79.5646L12.8934 79.4446C13.2534 81.6046 14.8934 81.0046 16.2934 81.0646L16.1934 80.9947ZM72.9334 18.9947C64.2734 19.3847 63.0934 20.8146 62.9334 31.2746C58.9334 38.9746 64.6834 46.9446 62.4034 54.5546C59.7734 63.3246 64.7534 67.5546 72.0734 71.8446C75.3234 67.0046 80.2434 68.1746 85.5034 67.9446C91.8334 67.6646 97.9034 70.3546 104.133 68.7146C107.703 71.7146 110.823 68.1146 114.133 68.0446C126.033 66.3946 130.303 61.3045 125.233 54.3745C121.353 49.0645 115.963 46.2145 109.043 48.8745L104.113 49.2046C94.8634 50.9046 86.6834 55.4446 78.6234 59.8046C74.4134 62.0746 71.6234 62.0046 68.6234 59.5846C74.2234 50.9346 77.9234 41.5847 81.2134 32.3647C82.9734 27.3647 84.4534 21.0546 80.2134 15.7946C78.8136 15.4511 77.3394 15.5819 76.0219 16.1664C74.7044 16.751 73.6181 17.7562 72.9334 19.0246L72.9334 18.9947Z" fill="#333333"/>
<path d="M39.2734 8.18455C39.2559 9.27095 39.1825 10.3557 39.0534 11.4346C38.3934 14.8546 39.5634 20.5446 35.0534 20.4346C29.6534 20.3046 30.6734 14.4346 30.2634 10.4346C30.2443 9.90837 30.2845 9.38176 30.3834 8.86461C30.9434 5.05461 30.7234 -0.31549 35.8834 0.01451C41.2834 0.29451 38.2134 5.86455 39.2734 8.18455Z" fill="#333333"/>
<path d="M9.93368 14.1746C11.2463 14.7857 12.4872 15.5403 13.6337 16.4246C15.7719 18.4098 17.7762 20.5344 19.6337 22.7845C21.5037 25.0345 26.4037 26.7846 23.6337 30.2346C20.5037 34.0946 16.8437 30.4145 13.9437 28.3845C10.8937 26.2445 8.10368 23.6046 6.88368 19.9346C6.12368 17.5346 6.25368 15.1246 9.93368 14.1746Z" fill="#333333"/>
<path d="M55.0535 113.555C54.7135 102.605 50.9235 91.2246 59.2535 81.3646C58.3335 78.1346 56.0735 76.6846 53.0235 76.1746C52.6535 74.6546 52.2735 73.1745 50.2535 72.4145C49.3435 74.2345 48.4235 76.0746 47.5935 77.7146C45.4135 77.1646 45.3235 74.7146 42.7835 75.2046C42.3835 76.9246 41.9335 78.8646 41.4735 80.8046C36.8535 82.3046 32.1635 83.1946 27.2835 82.4546C30.5235 79.1746 33.9235 75.8245 30.2835 70.9045C27.6735 67.3945 24.0635 66.0045 19.8135 67.6345C13.0835 70.2045 17.0035 75.6346 16.5935 79.9546L12.9635 79.4446L13.1835 79.5646C10.0535 77.2846 9.18346 74.0545 9.33346 70.3945C14.4635 64.2145 21.3335 64.3945 28.2835 65.3945C29.2835 65.5345 30.3735 66.5845 31.2835 66.3945C49.6135 62.3945 60.8435 75.3946 74.4035 83.5546C81.9335 88.0546 80.2635 94.9646 81.6435 100.855C82.9583 106.168 82.1842 111.783 79.4808 116.543C76.7773 121.302 72.3506 124.843 67.1135 126.435C63.1735 124.245 60.2035 121.435 60.3135 116.435C64.2535 116.325 68.3135 116.675 72.1235 115.975C76.8135 115.125 79.5535 112.415 78.1235 106.975C76.4935 100.705 73.6035 96.0846 66.2535 97.1046C59.5135 98.0346 57.1035 102.465 57.6635 108.935C57.6723 110.247 57.5719 111.559 57.3635 112.855L55.0535 113.555Z" fill="url(#paint0_linear_80_5520)"/>
<path d="M80.1632 15.8246C84.4232 21.0846 82.9432 27.4245 81.1632 32.3945C77.8732 41.6545 74.1632 50.9646 68.5732 59.6146C71.6532 62.0346 74.4032 62.1046 78.5732 59.8346C86.6332 55.4746 94.8132 50.9346 104.063 49.2346C98.3132 55.7246 96.0632 62.2346 104.063 68.7446C97.8332 70.3846 91.7632 67.7446 85.4332 67.9746C80.1732 68.2046 75.2532 67.0345 72.0032 71.8745C64.6832 67.5645 59.7032 63.3546 62.3332 54.5846C64.6132 46.9746 58.8832 39.0046 62.8632 31.3046C65.7032 35.6846 69.6232 38.4046 74.6932 35.9946C80.8432 33.0846 81.6132 27.8046 79.0132 21.8446C80.9632 20.1246 80.4232 17.9546 80.1632 15.8246Z" fill="url(#paint1_linear_80_5520)"/>
<path d="M104.054 68.7446C96.0536 62.2246 98.3336 55.7446 104.054 49.2346L108.984 48.9045C111.154 49.8145 113.314 50.7045 115.474 51.6245C123.224 54.8845 124.014 59.5246 117.754 65.1746C116.604 66.1746 115.304 67.1146 114.074 68.0746C110.784 68.1446 107.664 71.7746 104.054 68.7446Z" fill="url(#paint2_linear_80_5520)"/>
<path d="M79.0533 21.8446C81.6533 27.8446 80.8833 33.0846 74.7333 35.9946C69.6633 38.4046 65.7333 35.6846 62.9033 31.3046C63.1033 20.8446 64.2833 19.4145 72.9033 19.0245C74.1633 21.7245 76.6333 21.7246 79.0533 21.8446Z" fill="url(#paint3_linear_80_5520)"/>
<path d="M16.5634 79.9546C16.9734 75.6746 13.0534 70.2045 19.7834 67.6345C24.0334 66.0045 27.6434 67.3945 30.2534 70.9045C33.9234 75.8245 30.5234 79.1746 27.2534 82.4546L18.6434 81.9145L16.1634 80.9946L16.3034 81.0645L16.5634 79.9546Z" fill="url(#paint4_linear_80_5520)"/>
<path d="M114.143 68.0746C115.373 67.0746 116.673 66.2246 117.823 65.1746C124.083 59.5246 123.293 54.8845 115.543 51.6245C113.383 50.7045 111.223 49.8145 109.053 48.9045C115.973 46.2445 121.363 49.0945 125.243 54.4045C130.313 61.3345 126.053 66.4346 114.143 68.0746Z" fill="url(#paint5_linear_80_5520)"/>
<path d="M60.3135 116.435C59.3135 115.225 58.3135 114.025 57.3135 112.815C57.5219 111.519 57.6223 110.207 57.6135 108.895C57.0535 102.425 59.4635 97.9946 66.2035 97.0646C73.5535 96.0646 76.4435 100.665 78.0735 106.935C79.5135 112.415 76.7735 115.125 72.0735 115.935C68.2835 116.685 64.2535 116.335 60.3135 116.435Z" fill="url(#paint6_linear_80_5520)"/>
<defs>
<linearGradient id="paint0_linear_80_5520" x1="9.28346" y1="95.6545" x2="82.1735" y2="95.6545" gradientUnits="userSpaceOnUse">
<stop stop-color="#D75432"/>
<stop offset="1" stop-color="#FF806C"/>
</linearGradient>
<linearGradient id="paint1_linear_80_5520" x1="61.4432" y1="43.8545" x2="104.123" y2="43.8545" gradientUnits="userSpaceOnUse">
<stop stop-color="#D75432"/>
<stop offset="1" stop-color="#FF806C"/>
</linearGradient>
<linearGradient id="paint2_linear_80_5520" x1="98.9336" y1="59.4346" x2="122.004" y2="59.4346" gradientUnits="userSpaceOnUse">
<stop stop-color="#E3B724"/>
<stop offset="1" stop-color="#FFC961"/>
</linearGradient>
<linearGradient id="paint3_linear_80_5520" x1="62.8933" y1="27.9646" x2="80.4533" y2="27.9646" gradientUnits="userSpaceOnUse">
<stop stop-color="#E3B724"/>
<stop offset="1" stop-color="#FFC961"/>
</linearGradient>
<linearGradient id="paint4_linear_80_5520" x1="15.8034" y1="74.7045" x2="31.8434" y2="74.7045" gradientUnits="userSpaceOnUse">
<stop stop-color="#E3B724"/>
<stop offset="1" stop-color="#FFC961"/>
</linearGradient>
<linearGradient id="paint5_linear_80_5520" x1="109.053" y1="57.9846" x2="127.343" y2="57.9846" gradientUnits="userSpaceOnUse">
<stop stop-color="#D75432"/>
<stop offset="1" stop-color="#FF806C"/>
</linearGradient>
<linearGradient id="paint6_linear_80_5520" x1="57.3535" y1="106.685" x2="78.5035" y2="106.685" gradientUnits="userSpaceOnUse">
<stop stop-color="#E3B724"/>
<stop offset="1" stop-color="#FFC961"/>
</linearGradient>
</defs>
</svg>
