<svg width="280" height="199" viewBox="0 0 280 199" fill="none" xmlns="http://www.w3.org/2000/svg">
<g clip-path="url(#clip0_289_74)">
<path d="M280 118.532C280 113.705 278.73 111.254 277.495 108.881C276.26 106.509 275.096 104.267 275.096 99.6546C275.009 96.54 275.538 93.4283 276.676 90.3563C277.843 87.1904 278.388 83.984 278.303 80.7747C278.303 75.9482 277.015 73.4938 275.775 71.1216C274.534 68.7494 273.351 66.5095 273.351 61.8974C273.351 57.2854 274.522 55.0402 275.693 52.668C276.863 50.2958 278.162 47.8441 278.162 43.0202C278.241 39.8179 277.746 36.618 276.682 33.4519C275.658 30.3703 275.19 27.2562 275.283 24.1403C275.23 21.0185 275.577 17.8979 276.325 14.7944C277.089 11.6293 277.445 8.44684 277.39 5.26308C277.422 4.95913 277.315 4.65545 277.075 4.37112C276.836 4.0868 276.468 3.828 275.997 3.61099C274.241 2.85114 271.566 2.88556 268.974 2.91998C268.441 2.91998 267.903 2.91998 267.364 2.91998C256.899 2.91998 251.813 2.39046 246.429 1.86094C241.044 1.33143 235.519 0.754256 224.598 0.754256C217.348 0.718012 210.104 0.958024 202.943 1.47175C195.977 1.97595 188.928 2.20979 181.873 2.17071C171.409 2.17071 166.323 1.64119 160.938 1.11168C155.554 0.582163 150.023 -0.000303932 139.108 -0.000303932C131.86 -0.0361689 124.617 0.195823 117.453 0.69336C110.483 1.18251 103.435 1.40922 96.3828 1.37114C85.725 1.37114 80.3053 1.29436 75.0671 1.22288C69.8289 1.15139 64.3391 1.07461 53.6228 1.07461C42.9065 1.07461 37.5453 0.995185 32.3013 0.921052C27.0573 0.84692 21.5791 0.767494 10.8569 0.767494C6.37958 0.767494 3.36547 2.57314 3.36547 5.26838C3.36547 9.98901 3.36547 12.348 3.36547 14.707C3.36547 17.066 3.36547 19.4276 3.36547 24.1483C3.4308 27.2675 3.01818 30.3849 2.13056 33.4783C1.22293 36.6446 0.800509 39.8355 0.86635 43.0282C0.86635 47.77 1.12386 50.1766 1.36968 52.5118C1.61549 54.8469 1.873 57.2086 1.873 61.908C1.873 66.6075 1.6506 68.9956 1.43405 71.3069C1.2175 73.6183 0.989234 76.0461 0.989234 80.7853C0.875711 84.0274 1.6483 87.2634 3.28939 90.4198C4.45993 92.8026 5.50173 95.0425 5.50173 99.6625C5.50173 104.283 4.21998 106.501 2.86801 108.871C1.51603 111.24 0.0996094 113.705 0.0996094 118.542C0.0996094 123.274 0.240129 125.691 0.374742 128.008C0.509354 130.324 0.649802 132.715 0.649802 137.422C0.558761 140.638 1.15661 143.851 2.43491 147.014C3.67462 150.077 4.25088 153.187 4.15558 156.3C4.15558 161.049 4.51256 163.464 4.85202 165.799C5.19147 168.134 5.53681 170.488 5.53681 175.177C5.53681 179.799 4.47748 182.045 3.35961 184.425C2.24175 186.805 1.08876 189.238 1.08876 194.057C1.08876 196.439 6.13382 198.028 10.8394 198.028C21.5557 198.028 27.0046 197.962 32.2779 197.901C37.5512 197.84 42.9416 197.776 53.6052 197.776C60.6712 197.743 67.7332 197.944 74.7336 198.38C81.9089 198.825 89.1466 199.032 96.3887 199C103.637 199.036 110.88 198.803 118.044 198.303C125.014 197.817 132.061 197.591 139.114 197.628C146.358 197.662 153.598 197.443 160.769 196.974C167.758 196.515 174.817 196.302 181.879 196.339C192.356 196.339 197.448 196.826 202.838 197.342C208.228 197.859 213.736 198.401 224.645 198.401C235.408 198.401 240.886 198.216 246.177 198.039C251.468 197.861 256.794 197.684 267.405 197.684C268.611 197.684 270.331 197.618 271.578 197.059C272.977 196.418 272.959 195.523 272.942 194.488C272.942 194.351 272.942 194.223 272.942 194.062C272.846 190.948 273.434 187.838 274.698 184.777C275.995 181.613 276.603 178.399 276.512 175.182C276.579 171.987 276.145 168.794 275.213 165.627C274.299 162.536 273.877 159.42 273.948 156.302C273.948 151.579 273.908 149.178 273.872 146.856C273.837 144.534 273.79 142.138 273.79 137.422C273.79 132.839 275.277 130.61 276.851 128.251C278.426 125.892 280 123.39 280 118.532Z" fill="white"/>
</g>
<path d="M140.019 98.6561C140.476 97.0082 140.927 96.6462 142.57 96.6427C145.386 96.6427 148.201 96.6181 150.989 96.6427C151.724 96.6427 151.995 96.4635 151.935 95.7081C151.891 94.8771 151.891 94.0444 151.935 93.2134C151.992 91.295 153.227 89.8579 155.047 89.8333C156.032 89.8333 156.06 89.4046 156.057 88.6597C156.038 80.8665 156.038 73.0732 156.057 65.2799C156.057 55.5155 156.057 45.751 156.036 35.9866C156.036 34.7884 156.229 33.773 157.19 33H158.77C159.826 33.2846 160.329 33.9979 160.431 35.0485C160.431 35.2066 160.463 35.3647 160.481 35.5228C160.537 52.3883 160.481 69.2538 160.509 86.0983C160.509 86.6253 160.509 87.1524 160.509 87.6759C160.54 89.1938 160.565 89.2184 162.149 89.4011C164.845 89.2535 164.943 89.9914 164.936 86.4707C164.936 77.0331 164.936 67.5942 164.936 58.1542C164.913 57.5423 164.931 56.9296 164.989 56.3201C165.204 54.7389 166.045 54.1697 167.629 54.493C169.001 54.8444 169.293 55.8317 169.293 57.0896C169.293 67.5603 169.293 78.0309 169.265 88.4981C169.265 89.4292 169.381 89.8263 170.486 89.8508C172.176 89.893 173.302 91.3617 173.302 93.3329C173.337 96.7517 173.355 100.167 173.302 103.586C173.281 104.584 173.555 104.826 174.537 104.805C177.43 104.735 180.327 104.805 183.223 104.77C185.611 104.709 187.938 105.525 189.763 107.064C191.821 108.768 193.884 110.476 195.834 112.3C198.955 115.223 200.511 118.895 200.606 123.157C200.659 125.521 200.634 127.886 200.606 130.254C200.585 132.464 199.416 134.119 197.308 134.776C196.45 135.036 196.33 135.455 196.333 136.249C196.362 145.711 196.333 155.173 196.333 164.635C196.333 167.07 195.777 167.618 193.314 167.618C167.558 167.618 141.803 167.618 116.048 167.618C114.949 167.618 114.07 167.401 113.45 166.462C112.813 165.057 113.429 163.743 114.918 163.367C115.477 163.26 116.046 163.224 116.614 163.258H126.968C127.803 163.258 128.594 163.223 128.594 162.084C128.571 153.898 128.571 145.711 128.594 137.524C128.594 136.21 128.299 135.388 127.014 134.713C126.173 134.313 125.471 133.672 124.997 132.871C124.523 132.071 124.299 131.147 124.353 130.219C124.392 127.594 124.353 124.949 124.353 122.342C124.353 120.188 125.057 118.202 125.951 116.295C126.37 115.416 126.166 115.1 125.219 115.128C124.272 115.156 123.375 115.128 122.456 115.128C121.126 115.163 120.95 115.321 120.943 116.678C120.918 120.543 120.943 124.379 120.943 128.234C120.943 128.757 120.943 129.288 120.943 129.808C120.943 130.761 120.573 131.678 119.911 132.365C119.249 133.052 118.346 133.457 117.392 133.494C116.561 133.564 115.727 133.518 114.893 133.529C113.158 133.547 113.074 133.627 113.06 135.412C113.06 135.982 113.06 136.551 113.06 137.12C113.024 139.931 111.652 141.371 108.882 141.4C105.072 141.437 101.258 141.437 97.4402 141.4C95.3531 141.445 95.2757 141.452 95.4306 143.508C95.7403 147.601 96.0323 151.691 96.3597 155.781C96.5075 157.65 96.6764 159.523 96.7468 161.403C96.8067 162.942 97.1163 163.23 98.6543 163.247C100.84 163.272 103.029 163.247 105.218 163.247C105.832 163.208 106.448 163.294 107.027 163.5C108.308 164.056 108.702 165.292 107.967 166.452C107.485 167.302 106.753 167.604 105.781 167.59C102.93 167.555 100.08 167.59 97.2325 167.59C94.7689 167.59 92.9106 166.115 92.5939 163.659C92.2419 160.798 92.0976 157.907 91.89 155.029C91.5556 150.711 91.2177 146.396 90.9186 142.074C90.8728 141.396 90.7039 141.02 90 140.753C88.4725 140.156 87.9341 138.877 87.9376 137.292C87.9376 130.198 87.9376 123.104 87.9658 116.013C87.9658 115.023 87.7722 114.608 86.7023 114.72C85.6079 114.791 84.5103 114.798 83.4151 114.742C81.5463 114.706 80.1103 113.431 80.0681 111.579C79.9977 108.417 79.959 105.272 80.0681 102.124C80.1772 98.9758 82.8309 96.6392 85.9737 96.6041C86.4121 96.5795 86.8516 96.5795 87.29 96.6041C87.9552 96.6779 88.2332 96.4003 88.543 95.7924C89.6551 93.5859 91.4606 92.3842 94.0016 92.3877C100.843 92.3877 107.685 92.3877 114.527 92.3877C117.107 92.3877 118.972 93.5402 120.07 95.8416C120.159 96.0979 120.334 96.3152 120.566 96.4558C120.798 96.5964 121.072 96.6513 121.341 96.6111C125.068 96.5795 128.798 96.6111 132.526 96.5865C133.895 96.5865 134.665 97.1628 134.873 98.505C135.042 99.7137 134.521 100.515 133.349 100.817C132.833 100.921 132.305 100.959 131.779 100.929C128.668 100.929 125.554 100.929 122.442 100.929C121.387 100.929 120.926 101.281 120.947 102.377C120.989 104.608 120.975 106.839 120.947 109.053C120.947 109.984 121.299 110.406 122.256 110.399C124.797 110.374 127.341 110.399 129.882 110.399C130.587 110.405 131.27 110.155 131.804 109.696C132.92 108.775 134.007 107.827 135.109 106.885C137.018 105.235 139.464 104.337 141.989 104.359C144.488 104.359 146.987 104.359 149.486 104.359C151.415 104.359 151.503 104.278 151.506 102.679C151.51 101.08 151.407 100.922 149.546 100.922C147.353 100.922 145.16 100.922 142.971 100.922C142.401 100.978 141.825 100.901 141.289 100.697C140.423 100.329 139.624 99.8366 140.019 98.6561Z" fill="#010101"/>
<path d="M167.949 33.0141C168.969 33.6571 169.283 34.5811 169.265 35.7723C169.209 39.3492 169.265 42.9296 169.244 46.51C169.244 48.3441 168.934 48.7658 167.189 49.3209C165.837 49.4439 165.045 48.7763 164.947 47.3041C164.838 45.6105 164.904 43.9099 164.911 42.2163C164.911 39.8657 164.859 37.515 164.947 35.1679C164.918 34.7038 165.04 34.2428 165.293 33.8527C165.547 33.4625 165.918 33.1637 166.354 33L167.949 33.0141Z" fill="#020202"/>
<path d="M140.018 98.656C140.339 100.061 141.211 100.641 142.676 100.606C145.435 100.536 148.201 100.606 150.964 100.571C151.668 100.571 151.932 100.715 151.946 101.492C152.009 104.794 152.037 104.791 148.754 104.791C146.519 104.791 144.28 104.791 142.046 104.791C139.431 104.773 137.023 105.518 135.242 107.391C132.62 110.153 129.643 111.456 125.814 110.866C124.487 110.659 123.1 110.789 121.742 110.866C120.932 110.901 120.573 110.729 120.591 109.812C120.647 107.057 120.637 104.295 120.591 101.537C120.591 100.778 120.834 100.585 121.562 100.592C125.159 100.624 128.756 100.592 132.353 100.592C133.989 100.592 134.535 100.139 134.866 98.5576C136.562 98.8036 138.283 98.6314 140.018 98.656Z" fill="#FFD067"/>
<path d="M130.836 92.3558C128.356 92.336 125.982 91.3488 124.221 89.6051C122.46 87.8614 121.452 85.4994 121.411 83.0236C121.355 77.9217 125.733 73.5367 130.857 73.5824C133.337 73.619 135.705 74.6221 137.454 76.3776C139.203 78.1331 140.196 80.5018 140.219 82.9779C140.186 85.4531 139.188 87.8179 137.435 89.5692C135.683 91.3206 133.316 92.3203 130.836 92.3558Z" fill="#010101"/>
<path d="M160.079 34.9221C161.8 34.7816 163.525 35.3543 165.243 34.894C165.243 38.7837 165.309 42.6733 165.243 46.5629C165.221 48.0491 165.707 49.0049 167.196 49.3527C167.196 50.6492 167.196 51.9493 167.196 53.2458C167.196 53.7167 167.129 54.2051 167.593 54.5283C165.777 54.6197 165.267 55.1573 165.267 57.0687C165.267 67.3754 165.267 77.6891 165.267 88.0099C165.267 90.1181 165.559 89.7878 163.479 89.8194C163.043 89.8194 162.606 89.7948 162.17 89.7772C161.554 89.0745 161.751 88.1961 161.751 87.388C161.737 71.3657 161.737 55.3447 161.751 39.3248C161.723 38.8883 161.723 38.4506 161.751 38.0142C161.924 36.6087 161.635 35.5089 160.065 35.1365C160.041 35.1052 160.029 35.0661 160.032 35.0266C160.034 34.9871 160.051 34.95 160.079 34.9221Z" fill="#D0996D"/>
<path d="M113.432 76.5129C113.423 77.5849 113.2 78.6444 112.778 79.63C112.355 80.6155 111.741 81.5077 110.971 82.2547C110.201 83.0017 109.29 83.5888 108.291 83.982C107.292 84.3751 106.225 84.5665 105.151 84.5451C104.078 84.5346 103.017 84.3119 102.03 83.8897C101.044 83.4676 100.151 82.8544 99.403 82.0856C98.6552 81.3168 98.0674 80.4077 97.6737 79.4108C97.2799 78.4138 97.088 77.3489 97.109 76.2775C97.1185 75.2055 97.341 74.146 97.7635 73.1604C98.1859 72.1748 98.8 71.2827 99.5702 70.5357C100.34 69.7886 101.251 69.2016 102.25 68.8084C103.249 68.4153 104.317 68.2239 105.39 68.2453C106.464 68.2548 107.525 68.4769 108.512 68.8988C109.499 69.3206 110.392 69.9338 111.14 70.7027C111.888 71.4717 112.476 72.3812 112.869 73.3785C113.263 74.3759 113.454 75.4412 113.432 76.5129Z" fill="#010101"/>
<path d="M151.354 62.5249C151.352 63.5624 151.144 64.5891 150.741 65.5455C150.338 66.502 149.75 67.3691 149.009 68.0966C148.268 68.8242 147.39 69.3976 146.425 69.7838C145.461 70.17 144.429 70.3612 143.39 70.3463C142.351 70.3446 141.322 70.1367 140.364 69.7349C139.405 69.3331 138.537 68.7452 137.808 68.0055C137.079 67.2658 136.505 66.3889 136.118 65.4258C135.731 64.4626 135.54 63.4324 135.556 62.3949C135.556 61.3555 135.764 60.3267 136.168 59.3685C136.571 58.4102 137.161 57.5417 137.904 56.8137C138.647 56.0856 139.528 55.5126 140.495 55.128C141.463 54.7433 142.497 54.5549 143.538 54.5735C144.576 54.5776 145.602 54.7871 146.558 55.19C147.515 55.5929 148.381 56.1811 149.108 56.9206C149.835 57.66 150.408 58.5361 150.794 59.4981C151.179 60.4601 151.37 61.4889 151.354 62.5249Z" fill="#010101"/>
<path d="M107.949 166.505C108.343 164.709 107.579 163.694 105.77 163.694C103.184 163.694 100.597 163.634 98.0099 163.718C96.8766 163.753 96.4438 163.367 96.3734 162.264C96.1235 158.378 95.8103 154.498 95.5288 150.616C95.3317 147.868 95.2296 145.11 94.9234 142.373C94.7897 141.192 95.1345 140.915 96.1904 141.073C96.5821 141.112 96.9758 141.129 97.3694 141.122C98.0522 142.594 97.9043 144.196 98.0134 145.742C98.2879 149.716 98.6188 153.683 98.9109 157.654C99.101 160.194 100.319 161.297 102.828 161.635C103.483 161.703 104.141 161.728 104.799 161.708C112.127 161.708 119.454 161.708 126.782 161.708C127.51 161.708 128.288 161.543 128.925 162.095C129.242 163.416 128.731 163.753 127.397 163.715C123.639 163.616 119.876 163.68 116.114 163.68C113.886 163.68 113.32 164.28 113.439 166.491L107.949 166.505Z" fill="#FFD067"/>
<path d="M121.812 69.31C120.948 69.3216 120.09 69.1614 119.288 68.8387C118.487 68.5159 117.758 68.037 117.143 67.43C116.529 66.823 116.042 66.1 115.711 65.3031C115.379 64.5063 115.21 63.6515 115.213 62.7886C115.201 61.9262 115.361 61.0701 115.682 60.2693C116.003 59.4686 116.479 58.7392 117.084 58.123C117.688 57.5068 118.409 57.016 119.204 56.6788C119.999 56.3417 120.853 56.1648 121.717 56.1584C122.591 56.1519 123.458 56.3178 124.267 56.6466C125.077 56.9754 125.814 57.4606 126.435 58.0744C127.056 58.6882 127.55 59.4184 127.888 60.2232C128.226 61.028 128.401 61.8914 128.404 62.764C128.396 64.5039 127.698 66.1699 126.463 67.3969C125.227 68.6239 123.555 69.3118 121.812 69.31Z" fill="#010201"/>
<path d="M112.387 47.4729C110.885 47.4731 109.443 46.8838 108.372 45.8322C107.3 44.7805 106.686 43.3507 106.661 41.8511C106.664 41.0981 106.816 40.3531 107.108 39.659C107.4 38.9648 107.827 38.3351 108.363 37.8061C108.9 37.2771 109.536 36.8593 110.235 36.5766C110.934 36.2939 111.682 36.152 112.437 36.1589C113.938 36.1737 115.373 36.7769 116.432 37.8385C117.491 38.9001 118.09 40.335 118.099 41.8335C118.081 43.3344 117.471 44.7676 116.402 45.823C115.333 46.8784 113.891 47.4712 112.387 47.4729Z" fill="#020202"/>
<path d="M131.895 53.2948C130.394 53.3156 128.944 52.743 127.863 51.7019C126.782 50.6608 126.157 49.2354 126.124 47.7362C126.125 46.2157 126.728 44.7572 127.799 43.6772C128.871 42.5971 130.327 41.9825 131.85 41.9668C133.351 41.9804 134.787 42.5799 135.851 43.6371C136.915 44.6942 137.523 46.1251 137.544 47.6238C137.546 49.1229 136.953 50.5617 135.894 51.6247C134.835 52.6877 133.397 53.2883 131.895 53.2948Z" fill="#020202"/>
<path d="M141.877 108.782C145.748 108.782 149.595 108.74 153.452 108.736C163.233 108.736 173.013 108.736 182.79 108.736C184.513 108.678 186.195 109.273 187.496 110.402C189.407 112.074 191.367 113.684 193.226 115.426C195.127 117.146 196.272 119.545 196.414 122.102C196.64 124.284 196.449 126.47 196.523 128.652C196.545 129.284 196.196 129.502 195.658 129.583C195.178 129.635 194.696 129.654 194.215 129.639C174.562 129.639 154.91 129.639 135.26 129.639C131.54 129.639 130.023 128.585 130.115 124.485C130.192 121.104 131.139 118.237 133.683 115.922C135.954 113.859 138.143 111.705 140.448 109.689C140.869 109.307 141.352 109.001 141.877 108.782Z" fill="#F37F87"/>
<path d="M128.925 162.116C120.503 162.116 112.081 162.116 103.655 162.116C101.815 162.116 100.094 161.765 99.0485 159.955C98.6904 159.253 98.492 158.48 98.4677 157.692C98.2108 154.881 98.0912 152.046 97.8941 149.221C97.7041 146.529 97.3416 143.845 97.3697 141.139L108.952 141.097C111.416 141.097 112.658 139.868 112.69 137.394C112.69 136.34 112.739 135.286 112.69 134.232C112.644 133.452 112.838 133.125 113.689 133.178C114.826 133.251 115.97 133.206 117.114 133.178C119.226 133.153 120.577 131.877 120.595 129.759C120.626 125.191 120.644 120.644 120.595 116.091C120.595 114.963 120.915 114.685 122.002 114.752C123.699 114.843 125.402 114.777 127.306 114.777C126.141 116.755 125.195 118.673 124.959 120.806C124.6 124.338 124.579 127.896 124.895 131.431C125.036 133.188 126.391 134.334 128.14 134.847C128.626 134.991 129.052 135.04 129.048 135.813C128.943 144.579 128.943 153.332 128.925 162.116Z" fill="#FFE07E"/>
<path d="M93.6778 96.4108C96.2646 96.4108 98.8514 96.4108 101.438 96.3511C102.121 96.3511 102.353 96.5443 102.339 97.24C102.293 98.9969 102.307 100.754 102.339 102.511C102.36 103.916 103.17 104.801 104.328 104.78C105.486 104.759 106.284 103.874 106.306 102.458C106.334 100.75 106.344 99.0425 106.306 97.3349C106.288 96.6322 106.46 96.344 107.238 96.3616C109.649 96.4108 112.063 96.3616 114.474 96.3862C115.907 96.4073 116.625 97.1557 116.628 98.6104C116.628 108.508 116.628 118.406 116.649 128.304C116.649 129.035 116.456 129.253 115.703 129.263C112.711 129.313 112.715 129.341 112.715 126.4C112.715 124.077 112.715 121.758 112.715 119.436C112.715 117.841 111.923 116.874 110.708 116.909C109.494 116.945 108.745 117.893 108.738 119.517C108.716 124.949 108.698 130.378 108.681 135.806C108.269 136.217 107.731 136.224 107.207 136.227C103.965 136.227 100.72 136.249 97.4753 136.227C96.7712 136.232 96.0725 136.104 95.4164 135.848C94.0086 135.282 93.1253 134.277 93.0443 132.686C93.0443 132.426 93.0232 132.162 93.0232 131.899C93.0232 120.786 93.0232 109.671 93.0232 98.5541C93.0126 97.7917 92.8578 96.9414 93.6778 96.4108Z" fill="#F37F87"/>
<path d="M152.646 137.134C152.662 142.735 152.68 148.334 152.699 153.933C152.699 156.209 152.699 158.483 152.699 160.76C152.699 163.774 152.699 163.729 149.707 163.715C148.81 163.715 148.743 163.363 148.75 162.632C148.778 158.915 148.75 155.194 148.75 151.477C148.75 149.945 148.046 149.017 146.849 148.989C145.653 148.961 144.798 149.934 144.794 151.505C144.794 155.222 144.769 158.943 144.794 162.661C144.794 163.405 144.706 163.799 143.823 163.715C142.939 163.63 141.989 163.658 141.07 163.637C140.828 163.23 140.944 162.783 140.944 162.355C140.944 154.407 140.944 146.458 140.944 138.508C140.944 136.867 141.06 136.751 142.732 136.73C143.436 136.73 144.139 136.617 144.731 137.144C144.731 138.55 144.776 139.955 144.784 141.361C144.784 142.524 145.157 143.469 146.406 143.711C147.655 143.954 148.401 143.314 148.764 142.151C148.88 140.765 148.901 139.373 148.827 137.984C148.827 137.218 149.109 136.814 149.855 136.8C150.809 136.754 151.787 136.491 152.646 137.134Z" fill="#F7F6F7"/>
<path d="M141.876 108.782C139.086 111.421 136.316 114.088 133.493 116.692C130.435 119.503 130.326 123.16 130.639 126.881C130.758 128.343 131.86 129.028 133.701 129.232C134.052 129.251 134.405 129.251 134.757 129.232C154.747 129.232 174.739 129.241 194.732 129.26C196.034 129.26 196.491 128.986 196.417 127.609C196.294 125.781 196.417 123.937 196.417 122.099C196.857 124.798 196.558 127.51 196.576 130.216C196.576 130.778 196.224 131.087 195.633 131.077C195.326 131.077 195.02 131.077 194.711 131.077H130.47C128.71 131.077 128.654 131.077 128.71 129.242C128.788 126.537 128.443 123.814 128.932 121.119C129.365 118.726 130.607 116.554 132.451 114.966C134.25 113.364 136.087 111.804 137.931 110.248C139.016 109.282 140.424 108.759 141.876 108.782Z" fill="#E5646E"/>
<path d="M160.054 35.119C160.273 35.1365 160.494 35.1365 160.713 35.119C161.874 34.9257 162.184 35.393 162.18 36.556C162.145 54.2883 162.138 72.0216 162.159 89.7562C162.073 89.7742 161.986 89.7871 161.899 89.7949C160.03 89.8511 160.03 89.8511 160.03 87.9397V36.679C160.03 36.1695 160.047 35.6425 160.054 35.119Z" fill="#C38C66"/>
<path d="M176.347 137.134C176.365 143.812 176.384 150.488 176.403 157.162V160.303C176.403 163.887 176.403 163.887 172.694 163.616C172.451 163.208 172.567 162.762 172.567 162.334C172.567 154.386 172.567 146.437 172.567 138.486C172.567 136.842 172.683 136.73 174.355 136.709C175.038 136.712 175.762 136.607 176.347 137.134Z" fill="#F7F6F7"/>
<path d="M184.248 137.134L184.3 157.162C184.3 158.209 184.3 159.256 184.3 160.303C184.3 163.887 184.3 163.887 180.591 163.616C180.348 163.208 180.464 162.762 180.464 162.334C180.464 154.386 180.464 146.437 180.464 138.486C180.464 136.842 180.58 136.73 182.252 136.709C182.935 136.712 183.66 136.607 184.248 137.134Z" fill="#F7F6F7"/>
<path d="M192.202 137.13C192.233 137.833 192.286 138.536 192.286 139.239C192.286 146.99 192.286 154.744 192.314 162.495C192.314 163.437 192.152 163.855 191.117 163.725C190.244 163.652 189.368 163.625 188.492 163.644C188.249 163.237 188.369 162.787 188.365 162.362C188.365 154.398 188.365 146.433 188.365 138.469C188.365 136.898 188.495 136.754 190.062 136.73C190.797 136.705 191.561 136.61 192.202 137.13Z" fill="#F7F6F7"/>
<path d="M168.445 137.134C168.462 143.812 168.481 150.488 168.502 157.162C168.502 158.216 168.502 159.27 168.502 160.303C168.502 163.887 168.502 163.887 164.792 163.616C164.549 163.208 164.665 162.762 164.665 162.334C164.665 154.386 164.665 146.437 164.665 138.486C164.665 136.842 164.778 136.73 166.45 136.709C167.136 136.712 167.861 136.607 168.445 137.134Z" fill="#F7F6F7"/>
<path d="M160.544 137.134C160.565 143.812 160.584 150.488 160.6 157.162C160.6 158.216 160.6 159.27 160.6 160.303C160.6 163.887 160.6 163.887 156.891 163.616C156.648 163.208 156.764 162.762 156.764 162.334C156.764 154.386 156.764 146.437 156.764 138.486C156.764 136.842 156.88 136.73 158.548 136.709C159.235 136.712 159.96 136.607 160.544 137.134Z" fill="#F7F6F7"/>
<path d="M158.471 93.7934C161.829 93.7934 165.19 93.7759 168.547 93.7407C169.096 93.7407 169.314 93.8567 169.304 94.4435C169.255 97.1841 169.255 99.9283 169.237 102.672C169.088 102.838 168.887 102.946 168.667 102.978C166.006 103.094 163.331 103.329 160.699 102.824C158.904 102.472 158.13 101.418 158.077 99.5734C158.035 98.1328 158.052 96.6922 158.077 95.2516C158.077 94.7456 158.056 94.208 158.471 93.7934Z" fill="#F7F7F7"/>
<path d="M93.6779 96.4106C93.326 96.9166 93.4175 97.4999 93.4175 98.0621C93.4175 109.306 93.4878 120.549 93.3646 131.772C93.333 134.72 95.1244 135.785 97.493 135.792C101.217 135.792 104.937 135.792 108.66 135.792C108.907 136.768 108.66 137.162 107.52 137.148C102.691 137.081 97.866 137.095 93.0373 137.148C92.1012 137.148 91.8759 136.877 91.8794 135.967C91.9076 123.66 91.9135 111.35 91.897 99.0353C91.897 97.7564 92.1786 96.6812 93.6779 96.4106Z" fill="#E3636E"/>
<path d="M136.851 137.398C136.851 145.908 136.876 154.421 136.918 162.931C136.918 163.606 136.665 163.75 136.08 163.694C135.559 163.648 135.024 163.659 134.507 163.641C134.028 163.146 134.102 162.51 134.099 161.905C134.099 155.124 134.099 148.344 134.099 141.565C134.099 140.549 134.183 139.53 134.708 138.641C135.162 137.872 135.672 137.015 136.851 137.398Z" fill="#F7F6F7"/>
<path d="M158.471 93.7928C158.471 95.5004 158.573 97.2151 158.443 98.9157C158.224 101.751 159.682 102.598 162.261 102.672C164.584 102.742 166.91 102.672 169.237 102.672C169.371 104.78 169.371 104.78 167.333 104.78C163.965 104.78 160.597 104.738 157.232 104.808C156.176 104.829 155.807 104.629 155.845 103.483C155.94 100.694 155.951 97.8967 155.845 95.1069C155.8 93.8947 156.197 93.5573 157.299 93.7295C157.688 93.7752 158.079 93.7963 158.471 93.7928Z" fill="#E8E8E7"/>
<path d="M136.851 137.397C135.091 138.016 134.51 138.961 134.51 141.298C134.51 148.746 134.51 156.194 134.51 163.641C133.201 163.954 132.884 163.458 132.895 162.126C132.962 153.476 132.941 144.825 132.895 136.175C132.895 135.3 133.043 134.85 134.007 135.022C134.226 135.041 134.446 135.041 134.665 135.022C136.991 135.029 136.991 135.029 136.851 137.397Z" fill="#E9E8E8"/>
<path d="M87.8637 110.047C87.92 110.441 88.0326 110.852 87.3885 110.841C86.4735 110.841 85.5549 110.82 84.6398 110.841C84.1084 110.841 83.9817 110.602 83.9853 110.139C83.9853 107.655 83.9466 105.17 84.0134 102.69C84.0486 101.463 84.7173 100.659 86.0511 100.634C86.4559 101.059 86.4031 101.597 86.4207 102.117C86.4207 103.336 86.4946 104.577 86.4207 105.775C86.2869 107.423 86.6284 108.874 87.8637 110.047Z" fill="#EBC057"/>
<path d="M87.8637 110.047C87.3019 109.875 86.8153 109.517 86.484 109.033C86.1527 108.548 85.9963 107.965 86.0405 107.38C86.0405 105.131 86.0405 102.879 86.0405 100.627C87.9023 100.532 87.9094 100.532 87.9024 102.384C87.8988 104.938 87.8778 107.493 87.8637 110.047Z" fill="#FFD067"/>
<path d="M144.745 137.134C143.959 137.176 143.17 137.176 142.384 137.134C141.3 137.015 141.075 137.486 141.078 138.476C141.11 146.867 141.078 155.258 141.078 163.645C140.617 163.388 140.853 162.942 140.853 162.615C140.853 153.831 140.853 145.047 140.828 136.263C140.828 135.307 141.022 134.857 142.035 135.047C142.298 135.068 142.561 135.068 142.824 135.047C144.883 135.029 144.883 135.029 144.745 137.134Z" fill="#E7E7E6"/>
<path d="M160.544 137.134C159.757 137.176 158.969 137.176 158.182 137.134C157.098 137.014 156.873 137.485 156.877 138.476C156.912 146.867 156.877 155.257 156.877 163.644C156.415 163.388 156.655 162.942 156.651 162.611C156.651 153.827 156.651 145.043 156.63 136.259C156.63 135.303 156.824 134.853 157.837 135.043C158.099 135.064 158.361 135.064 158.622 135.043C160.685 135.029 160.685 135.029 160.544 137.134Z" fill="#E7E7E6"/>
<path d="M176.346 137.134C175.56 137.176 174.771 137.176 173.985 137.134C172.901 137.014 172.676 137.485 172.679 138.476C172.711 146.867 172.679 155.257 172.679 163.644C172.218 163.388 172.454 162.942 172.454 162.611C172.454 153.827 172.454 145.043 172.429 136.259C172.429 135.303 172.626 134.853 173.636 135.043C173.899 135.064 174.162 135.064 174.425 135.043C176.484 135.029 176.484 135.029 176.346 137.134Z" fill="#E7E7E6"/>
<path d="M184.247 137.134C183.461 137.176 182.672 137.176 181.886 137.134C180.802 137.014 180.576 137.485 180.58 138.476C180.612 146.867 180.58 155.257 180.58 163.644C180.119 163.388 180.355 162.942 180.355 162.611C180.355 153.827 180.355 145.043 180.33 136.259C180.33 135.303 180.524 134.853 181.537 135.043C181.798 135.064 182.061 135.064 182.322 135.043C184.384 135.029 184.385 135.029 184.247 137.134Z" fill="#E7E7E6"/>
<path d="M192.202 137.131C191.033 137.219 189.52 136.635 188.777 137.373C187.971 138.171 188.52 139.703 188.513 140.908C188.485 148.483 188.513 156.055 188.492 163.627C187.992 163.325 188.27 162.844 188.27 162.461C188.27 153.743 188.27 145.026 188.246 136.308C188.246 135.307 188.454 134.833 189.52 135.023C189.782 135.045 190.046 135.045 190.308 135.023C192.413 135.03 192.413 135.03 192.202 137.131Z" fill="#E7E7E6"/>
<path d="M168.446 137.134C167.659 137.176 166.871 137.176 166.084 137.134C165 137.014 164.775 137.485 164.778 138.476C164.81 146.867 164.796 155.257 164.778 163.644C164.317 163.388 164.553 162.942 164.553 162.611C164.553 153.827 164.553 145.043 164.528 136.259C164.528 135.303 164.725 134.853 165.735 135.043C165.998 135.064 166.262 135.064 166.524 135.043C168.583 135.029 168.583 135.029 168.446 137.134Z" fill="#E7E7E6"/>
<path d="M152.646 137.134C151.489 137.218 150.017 136.642 149.257 137.38C148.497 138.118 149.099 139.604 148.997 140.753C148.955 141.213 149.148 141.712 148.779 142.123C148.779 140.015 148.779 137.932 148.754 135.838C148.754 135.216 148.923 134.956 149.56 135.022C149.951 135.061 150.348 135.022 150.742 135.022C152.784 135.029 152.784 135.029 152.646 137.134Z" fill="#E7E7E6"/>
<path d="M126.838 79.4644C127.294 78.9199 127.857 78.474 128.492 78.1538C129.126 77.8336 129.82 77.6459 130.529 77.6022C131.239 77.5585 131.95 77.6596 132.62 77.8994C133.289 78.1393 133.902 78.5128 134.422 78.9971C134.96 79.4772 135.394 80.0622 135.697 80.7161C135.999 81.37 136.164 82.0789 136.182 82.799C136.199 83.5191 136.069 84.2352 135.798 84.9029C135.528 85.5707 135.123 86.176 134.609 86.6815C133.803 87.0996 132.986 86.9415 132.177 86.6815C129.298 85.8007 127.482 83.9022 126.729 80.9859C126.574 80.4829 126.613 79.9402 126.838 79.4644Z" fill="#C0E2F7"/>
<path d="M126.838 79.4644C127.19 83.8283 130.094 86.5092 134.609 86.6814C134.13 87.1876 133.554 87.5939 132.916 87.8767C132.278 88.1595 131.591 88.3131 130.893 88.3288C130.195 88.3445 129.501 88.2219 128.851 87.9681C128.201 87.7142 127.608 87.3342 127.106 86.8501C126.094 85.9033 125.498 84.5957 125.448 83.2122C125.398 81.8287 125.898 80.4816 126.838 79.4644Z" fill="#9ED9F6"/>
<path d="M102.906 73.0098C104.753 71.7836 106.738 71.9557 108.234 73.4385C109.73 74.9213 109.892 76.924 108.663 78.7546C107.372 79.2641 105.074 78.5052 104.035 76.9978C103.243 75.8418 102.082 74.6718 102.906 73.0098Z" fill="#BFE2F7"/>
<path d="M102.906 73.0098C102.67 75.9788 105.686 78.983 108.664 78.7546C108.249 79.4494 107.623 79.9943 106.877 80.3101C106.131 80.626 105.303 80.6965 104.514 80.5114C103.663 80.3862 102.874 79.9905 102.266 79.383C101.657 78.7754 101.261 77.9883 101.136 77.1383C100.954 76.3517 101.027 75.5277 101.346 74.7855C101.664 74.0434 102.21 73.4215 102.906 73.0098Z" fill="#9ED8F5"/>
<path d="M141.053 59.4333C142.813 58.1333 144.787 58.2281 146.241 59.6828C147.694 61.1374 147.789 63.1121 146.48 64.8584C146.175 65.0286 145.819 65.0835 145.477 65.013C143.587 64.6616 141.254 62.3215 140.902 60.4452C140.833 60.1006 140.886 59.7428 141.053 59.4333Z" fill="#BFE2F7"/>
<path d="M141.053 59.4331C141.514 62.4935 143.415 64.3944 146.48 64.8582C144.868 66.7661 142.359 66.9312 140.67 65.2377C138.98 63.5441 139.146 61.0494 141.053 59.4331Z" fill="#9ED8F5"/>
<path d="M121.855 60.1113C122.535 60.1516 123.177 60.4428 123.655 60.9283C124.132 61.4139 124.413 62.0593 124.441 62.7395C124.418 63.4411 124.123 64.1064 123.618 64.5948C123.113 65.0832 122.438 65.3566 121.735 65.3571C121.386 65.3527 121.042 65.2772 120.723 65.1353C120.404 64.9934 120.118 64.788 119.882 64.5317C119.646 64.2754 119.464 63.9737 119.349 63.645C119.234 63.3162 119.187 62.9675 119.211 62.62C119.233 61.939 119.523 61.2941 120.018 60.8246C120.512 60.3552 121.172 60.0989 121.855 60.1113Z" fill="#BFE1F5"/>
<path d="M112.359 43.5443C111.356 43.3897 110.719 42.8626 110.722 41.8261C110.726 40.7896 111.32 40.1993 112.345 40.1255C112.575 40.1175 112.804 40.158 113.018 40.2443C113.232 40.3307 113.425 40.4609 113.585 40.6266C113.745 40.7923 113.868 40.9897 113.947 41.206C114.025 41.4224 114.057 41.6528 114.041 41.8823C113.974 42.9259 113.348 43.4178 112.359 43.5443Z" fill="#BEE0F5"/>
<path d="M133.507 47.6904C133.447 48.6285 132.958 49.2574 131.902 49.3172C131.672 49.3321 131.44 49.2985 131.223 49.2186C131.006 49.1387 130.809 49.0143 130.643 48.8534C130.477 48.6925 130.347 48.4986 130.261 48.2844C130.175 48.0702 130.134 47.8403 130.143 47.6095C130.224 46.6046 130.825 45.9476 131.836 45.9581C132.846 45.9687 133.462 46.5484 133.507 47.6904Z" fill="#BEDFF4"/>
<defs>
<clipPath id="clip0_289_74">
<rect width="280" height="199" fill="white"/>
</clipPath>
</defs>
</svg>
