<svg width="121" height="135" viewBox="0 0 121 135" fill="none" xmlns="http://www.w3.org/2000/svg">
<path d="M60.0185 65.6561C60.4761 64.0082 60.9266 63.6462 62.5701 63.6427C65.3857 63.6427 68.2013 63.6181 70.9887 63.6427C71.7243 63.6427 71.9952 63.4635 71.9354 62.7081C71.8914 61.8771 71.8914 61.0444 71.9354 60.2134C71.9917 58.295 73.227 56.8579 75.0466 56.8333C76.032 56.8333 76.0602 56.4046 76.0567 55.6597C76.0379 47.8665 76.0379 40.0732 76.0567 32.2799C76.0567 22.5155 76.0567 12.751 76.0356 2.9866C76.0356 1.78845 76.2292 0.773003 77.19 0H78.7702C79.826 0.284606 80.3293 0.997872 80.4314 2.04845C80.4314 2.20657 80.4631 2.36468 80.4807 2.5228C80.537 19.3883 80.4806 36.2538 80.5088 53.0983C80.5088 53.6253 80.5088 54.1524 80.5088 54.6759C80.5405 56.1938 80.5651 56.2184 82.1489 56.4011C84.8448 56.2535 84.9433 56.9914 84.9363 53.4707C84.9363 44.0331 84.9363 34.5942 84.9363 25.1542C84.9133 24.5423 84.9309 23.9296 84.9891 23.3201C85.2038 21.7389 86.0449 21.1697 87.6287 21.493C89.0012 21.8444 89.2934 22.8317 89.2934 24.0896C89.2934 34.5603 89.2934 45.0309 89.2652 55.4981C89.2652 56.4292 89.3813 56.8263 90.4865 56.8508C92.1758 56.893 93.302 58.3617 93.302 60.3329C93.3372 63.7517 93.3548 67.1669 93.302 70.5857C93.2809 71.5836 93.5554 71.826 94.5374 71.805C97.4303 71.7347 100.327 71.8049 103.223 71.7698C105.611 71.7088 107.938 72.5252 109.763 74.0642C111.821 75.7683 113.884 77.476 115.834 79.2996C118.955 82.2229 120.511 85.8947 120.606 90.1567C120.659 92.5214 120.634 94.8861 120.606 97.2543C120.585 99.4644 119.416 101.119 117.308 101.776C116.45 102.036 116.33 102.455 116.333 103.249C116.362 112.711 116.333 122.173 116.333 131.635C116.333 134.07 115.777 134.618 113.314 134.618C87.5583 134.618 61.8029 134.618 36.0475 134.618C34.9495 134.618 34.0696 134.401 33.4502 133.462C32.8131 132.057 33.4291 130.743 34.9178 130.367C35.4765 130.26 36.0464 130.224 36.6141 130.258H46.9684C47.8025 130.258 48.5944 130.223 48.5944 129.084C48.5709 120.898 48.5709 112.711 48.5944 104.524C48.5944 103.21 48.2988 102.388 47.0142 101.713C46.1734 101.313 45.4712 100.672 44.9973 99.8713C44.5233 99.0708 44.2992 98.1474 44.3534 97.2192C44.3921 94.5945 44.3534 91.9487 44.3534 89.3416C44.3534 87.1877 45.0573 85.2025 45.9513 83.2946C46.3701 82.4162 46.1659 82.0999 45.2192 82.1281C44.2725 82.1562 43.375 82.1281 42.4564 82.1281C41.1261 82.1632 40.9501 82.3213 40.9431 83.6776C40.9185 87.5426 40.9431 91.3795 40.9431 95.234C40.9431 95.7575 40.9431 96.2881 40.9431 96.8081C40.9429 97.7615 40.573 98.6778 39.911 99.3649C39.249 100.052 38.3462 100.457 37.3919 100.494C36.5613 100.564 35.7272 100.518 34.8931 100.529C33.158 100.547 33.0736 100.627 33.0595 102.412C33.0595 102.982 33.0595 103.551 33.0595 104.12C33.0243 106.931 31.6517 108.371 28.8819 108.4C25.0715 108.437 21.2576 108.437 17.4402 108.4C15.3531 108.445 15.2757 108.452 15.4306 110.508C15.7403 114.601 16.0323 118.691 16.3597 122.781C16.5075 124.65 16.6764 126.523 16.7468 128.403C16.8067 129.942 17.1163 130.23 18.6543 130.247C20.8399 130.272 23.029 130.247 25.2181 130.247C25.8321 130.208 26.4476 130.294 27.0272 130.5C28.3082 131.056 28.7024 132.292 27.9669 133.452C27.4847 134.302 26.7526 134.604 25.7812 134.59C22.9305 134.555 20.0797 134.59 17.2325 134.59C14.7689 134.59 12.9106 133.115 12.5939 130.659C12.2419 127.798 12.0976 124.907 11.89 122.029C11.5556 117.711 11.2177 113.396 10.9186 109.074C10.8728 108.396 10.7039 108.02 9.99997 107.753C8.47253 107.156 7.9341 105.877 7.93762 104.292C7.93762 97.1981 7.93765 90.104 7.9658 83.0135C7.9658 82.0226 7.7722 81.608 6.70229 81.7205C5.60788 81.7907 4.5103 81.7978 3.41508 81.7415C1.54625 81.7064 0.110309 80.4309 0.0680751 78.5793C-0.00231402 75.417 -0.041028 72.2723 0.0680751 69.124C0.177178 65.9758 2.83086 63.6392 5.97373 63.6041C6.41215 63.5795 6.85159 63.5795 7.29001 63.6041C7.95518 63.6779 8.23324 63.4003 8.54295 62.7924C9.6551 60.5859 11.4606 59.3842 14.0016 59.3877C20.8435 59.3877 27.6853 59.3877 34.5271 59.3877C37.1069 59.3877 38.9722 60.5402 40.0702 62.8416C40.1585 63.0979 40.334 63.3152 40.5661 63.4558C40.7982 63.5964 41.0723 63.6513 41.3408 63.6111C45.0679 63.5795 48.7985 63.6111 52.5256 63.5865C53.8947 63.5865 54.6654 64.1628 54.8731 65.505C55.042 66.7137 54.5212 67.5148 53.3492 67.8169C52.8329 67.9211 52.3054 67.9588 51.7795 67.9294C48.6683 67.9294 45.5536 67.9294 42.4424 67.9294C41.3866 67.9294 40.9255 68.2807 40.9466 69.377C40.9889 71.6082 40.9748 73.8393 40.9466 76.0529C40.9466 76.9841 41.2986 77.4057 42.2558 77.3987C44.7969 77.3741 47.3414 77.3987 49.8825 77.3987C50.5872 77.4047 51.2701 77.155 51.8041 76.6959C52.9198 75.7754 54.0073 74.8267 55.1089 73.885C57.0179 72.2348 59.4643 71.3365 61.9894 71.3587C64.4882 71.3587 66.9871 71.3587 69.4859 71.3587C71.4145 71.3587 71.5025 71.2779 71.506 69.6792C71.5096 68.0805 71.4075 67.9224 69.5457 67.9224C67.3531 67.9224 65.1605 67.9224 62.9714 67.9224C62.4007 67.9776 61.825 67.9006 61.2891 67.6975C60.4233 67.3286 59.6244 66.8367 60.0185 65.6561Z" fill="#010101"/>
<path d="M87.9488 0.0140576C88.9694 0.657056 89.2826 1.58115 89.265 2.77227C89.2087 6.34917 89.2651 9.92958 89.2439 13.51C89.2439 15.3441 88.9342 15.7658 87.1886 16.3209C85.8371 16.4439 85.0452 15.7763 84.9467 14.3041C84.8376 12.6105 84.9044 10.9099 84.9115 9.21631C84.9115 6.86568 84.8587 4.51504 84.9467 2.16793C84.9184 1.7038 85.0398 1.24283 85.2932 0.852656C85.5466 0.462486 85.9185 0.163653 86.3544 0L87.9488 0.0140576Z" fill="#020202"/>
<path d="M60.0183 65.656C60.3386 67.0615 61.2114 67.6412 62.6755 67.6061C65.4348 67.5358 68.2011 67.6061 70.9638 67.571C71.6677 67.571 71.9317 67.715 71.9458 68.4915C72.0091 71.7944 72.0373 71.7908 68.7536 71.7908C66.5188 71.7908 64.2804 71.7908 62.0455 71.7908C59.4306 71.7733 57.0233 72.5182 55.2424 74.3909C52.6205 77.1527 49.643 78.4562 45.8138 77.8659C44.487 77.6586 43.1003 77.7886 41.7418 77.8659C40.9323 77.9011 40.5734 77.7289 40.5909 76.8118C40.6473 74.0571 40.6367 71.2954 40.5909 68.5372C40.5909 67.7783 40.8338 67.585 41.5623 67.592C45.1592 67.6237 48.7561 67.592 52.3529 67.592C53.9895 67.592 54.535 67.1388 54.8658 65.5576C56.5622 65.8036 58.2832 65.6314 60.0183 65.656Z" fill="#FFD067"/>
<path d="M50.8363 59.3558C48.3561 59.336 45.9819 58.3488 44.2209 56.6051C42.4599 54.8614 41.4515 52.4994 41.4112 50.0236C41.3549 44.9217 45.7331 40.5367 50.8574 40.5824C53.3374 40.619 55.7048 41.6221 57.454 43.3776C59.2032 45.1331 60.1955 47.5018 60.2191 49.9779C60.1864 52.4531 59.1877 54.8179 57.4354 56.5692C55.6831 58.3206 53.3155 59.3203 50.8363 59.3558Z" fill="#010101"/>
<path d="M80.0795 1.92215C81.8005 1.7816 83.525 2.35433 85.2425 1.89404C85.2425 5.78365 85.3094 9.67326 85.2425 13.5629C85.2214 15.0491 85.7071 16.0049 87.1958 16.3527C87.1958 17.6492 87.1958 18.9493 87.1958 20.2458C87.1958 20.7167 87.1289 21.2051 87.5935 21.5283C85.7774 21.6197 85.2671 22.1573 85.2671 24.0687C85.2671 34.3754 85.2671 44.6891 85.2671 55.0099C85.2671 57.1181 85.5593 56.7878 83.4793 56.8194C83.0429 56.8194 82.6064 56.7948 82.17 56.7772C81.5541 56.0745 81.7512 55.1961 81.7512 54.388C81.7371 38.3657 81.7371 22.3447 81.7512 6.32475C81.723 5.88834 81.723 5.45057 81.7512 5.01416C81.9237 3.6087 81.635 2.50892 80.0654 2.13647C80.041 2.10523 80.029 2.06615 80.0316 2.02664C80.0342 1.98713 80.0512 1.94995 80.0795 1.92215Z" fill="#D0996D"/>
<path d="M33.4322 43.5129C33.4226 44.5849 33.2002 45.6444 32.7777 46.63C32.3552 47.6155 31.7411 48.5077 30.9709 49.2547C30.2007 50.0017 29.2897 50.5888 28.2907 50.982C27.2917 51.3751 26.2245 51.5665 25.1509 51.5451C24.0776 51.5346 23.0169 51.3119 22.0303 50.8897C21.0437 50.4676 20.1508 49.8544 19.403 49.0856C18.6552 48.3168 18.0674 47.4077 17.6737 46.4108C17.2799 45.4138 17.088 44.3489 17.109 43.2775C17.1185 42.2055 17.341 41.146 17.7635 40.1604C18.1859 39.1748 18.8 38.2827 19.5702 37.5357C20.3404 36.7886 21.2514 36.2016 22.2504 35.8084C23.2494 35.4153 24.3166 35.2239 25.3902 35.2453C26.4638 35.2548 27.5249 35.4769 28.5119 35.8988C29.499 36.3206 30.3923 36.9338 31.1403 37.7027C31.8883 38.4717 32.476 39.3812 32.8694 40.3785C33.2628 41.3759 33.4541 42.4412 33.4322 43.5129Z" fill="#010101"/>
<path d="M71.3544 29.5249C71.3522 30.5624 71.1437 31.5891 70.741 32.5455C70.3384 33.502 69.7496 34.3691 69.0087 35.0966C68.2679 35.8242 67.3897 36.3976 66.4252 36.7838C65.4607 37.17 64.4289 37.3612 63.3899 37.3463C62.3505 37.3446 61.3219 37.1367 60.3637 36.7349C59.4055 36.3331 58.5367 35.7452 57.8079 35.0055C57.079 34.2658 56.5047 33.3889 56.118 32.4258C55.7314 31.4626 55.5402 30.4324 55.5555 29.3949C55.5563 28.3555 55.7644 27.3267 56.1677 26.3685C56.5709 25.4102 57.1613 24.5417 57.9043 23.8137C58.6473 23.0856 59.5281 22.5126 60.4953 22.128C61.4625 21.7433 62.4968 21.5549 63.5377 21.5735C64.5755 21.5776 65.6023 21.7871 66.5584 22.19C67.5146 22.5929 68.3813 23.1811 69.1082 23.9206C69.8352 24.66 70.4081 25.5361 70.7936 26.4981C71.1792 27.4601 71.3698 28.4889 71.3544 29.5249Z" fill="#010101"/>
<path d="M27.9489 133.505C28.3431 131.709 27.5793 130.694 25.7703 130.694C23.1835 130.694 20.5967 130.634 18.0099 130.718C16.8766 130.753 16.4438 130.367 16.3734 129.264C16.1235 125.378 15.8103 121.498 15.5288 117.616C15.3317 114.868 15.2296 112.11 14.9234 109.373C14.7897 108.192 15.1345 107.915 16.1904 108.073C16.5821 108.112 16.9758 108.129 17.3694 108.122C18.0522 109.594 17.9043 111.196 18.0134 112.742C18.2879 116.716 18.6188 120.683 18.9109 124.654C19.101 127.194 20.3187 128.297 22.8281 128.635C23.4826 128.703 24.1411 128.728 24.799 128.708C32.1265 128.708 39.454 128.708 46.7815 128.708C47.51 128.708 48.2878 128.543 48.9248 129.095C49.2416 130.416 48.7313 130.753 47.3974 130.715C43.6386 130.616 39.8763 130.68 36.114 130.68C33.8862 130.68 33.3196 131.28 33.4392 133.491L27.9489 133.505Z" fill="#FFD067"/>
<path d="M41.812 36.31C40.9478 36.3216 40.0899 36.1614 39.2884 35.8387C38.4869 35.5159 37.7577 35.037 37.1435 34.43C36.5293 33.823 36.0422 33.1 35.7108 32.3031C35.3793 31.5063 35.2101 30.6515 35.213 29.7886C35.2014 28.9262 35.3607 28.0701 35.6817 27.2693C36.0028 26.4686 36.4792 25.7392 37.0837 25.123C37.6881 24.5068 38.4087 24.016 39.2038 23.6788C39.999 23.3417 40.8531 23.1648 41.7169 23.1584C42.591 23.1519 43.4577 23.3178 44.2673 23.6466C45.077 23.9754 45.8136 24.4606 46.4349 25.0744C47.0562 25.6882 47.55 26.4184 47.8879 27.2232C48.2258 28.028 48.4012 28.8914 48.4039 29.764C48.3965 31.5039 47.6984 33.1699 46.4628 34.3969C45.2272 35.6239 43.5548 36.3118 41.812 36.31Z" fill="#010201"/>
<path d="M32.3873 14.4729C30.8849 14.4731 29.4427 13.8838 28.3715 12.8322C27.3004 11.7805 26.6861 10.3507 26.6611 8.85105C26.6639 8.0981 26.8157 7.35313 27.1078 6.65896C27.3999 5.96478 27.8267 5.3351 28.3634 4.80612C28.9001 4.27714 29.5363 3.8593 30.2353 3.57662C30.9343 3.29394 31.6824 3.15198 32.4366 3.15893C33.9375 3.17366 35.3725 3.77691 36.4319 4.83851C37.4913 5.90011 38.0902 7.33497 38.0994 8.83349C38.0809 10.3344 37.4711 11.7676 36.4021 12.823C35.3331 13.8784 33.8908 14.4712 32.3873 14.4729Z" fill="#020202"/>
<path d="M51.8955 20.2948C50.3935 20.3156 48.9442 19.743 47.8631 18.7019C46.782 17.6608 46.1568 16.2354 46.1235 14.7362C46.1253 13.2157 46.7275 11.7572 47.7995 10.6772C48.8715 9.59708 50.3268 8.98252 51.8497 8.9668C53.3509 8.98042 54.7871 9.57991 55.8513 10.6371C56.9155 11.6942 57.5231 13.1251 57.5442 14.6238C57.546 16.1229 56.9525 17.5617 55.8937 18.6247C54.8348 19.6877 53.3971 20.2883 51.8955 20.2948Z" fill="#020202"/>
<path d="M61.8768 75.7821C65.7482 75.7821 69.5949 75.7399 73.4523 75.7364C83.2328 75.7364 93.0134 75.7364 102.79 75.7364C104.513 75.6776 106.195 76.2727 107.496 77.4019C109.407 79.0744 111.367 80.6836 113.226 82.4264C115.127 84.1463 116.272 86.5449 116.414 89.1023C116.64 91.2843 116.449 93.4698 116.523 95.6518C116.545 96.2842 116.196 96.5021 115.658 96.5829C115.178 96.635 114.696 96.6538 114.215 96.6391C94.562 96.6391 74.9105 96.6391 55.2602 96.6391C51.5401 96.6391 50.0232 95.585 50.1147 91.4846C50.1922 88.1045 51.1389 85.2373 53.6835 82.9218C55.9535 80.8593 58.1426 78.7054 60.4479 76.6886C60.8689 76.3073 61.3522 76.0007 61.8768 75.7821Z" fill="#F37F87"/>
<path d="M48.9251 129.116C40.5031 129.116 32.081 129.116 23.6555 129.116C21.8148 129.116 20.0938 128.765 19.0485 126.955C18.6904 126.253 18.492 125.48 18.4677 124.692C18.2108 121.881 18.0912 119.046 17.8941 116.221C17.7041 113.529 17.3416 110.845 17.3697 108.139L28.9522 108.097C31.4158 108.097 32.6582 106.868 32.6899 104.394C32.6899 103.34 32.7391 102.286 32.6899 101.232C32.6441 100.452 32.8377 100.125 33.6894 100.178C34.8262 100.251 35.97 100.206 37.1139 100.178C39.2255 100.153 40.577 98.8775 40.5946 96.7587C40.6263 92.191 40.6439 87.6444 40.5946 83.0907C40.5946 81.9628 40.9149 81.6852 42.0024 81.752C43.6988 81.8433 45.4022 81.7766 47.3062 81.7766C46.1413 83.7547 45.1945 85.6732 44.9587 87.806C44.5998 91.3377 44.5786 94.8955 44.8954 98.4313C45.0362 100.188 46.3911 101.334 48.1403 101.847C48.626 101.991 49.0518 102.04 49.0483 102.813C48.9427 111.579 48.9427 120.332 48.9251 129.116Z" fill="#FFE07E"/>
<path d="M13.6778 63.4108C16.2646 63.4108 18.8514 63.4108 21.4382 63.3511C22.121 63.3511 22.3532 63.5443 22.3392 64.24C22.2934 65.9969 22.3075 67.7537 22.3392 69.5105C22.3603 70.916 23.1698 71.8014 24.3277 71.7803C25.4856 71.7592 26.2845 70.8738 26.3056 69.4578C26.3338 67.7502 26.3443 66.0425 26.3056 64.3349C26.288 63.6322 26.4605 63.344 27.2383 63.3616C29.6491 63.4108 32.0635 63.3616 34.4743 63.3862C35.9067 63.4073 36.6247 64.1557 36.6282 65.6104C36.6282 75.5083 36.6282 85.4063 36.6493 95.3042C36.6493 96.0351 36.4557 96.2529 35.7026 96.2634C32.711 96.3126 32.7146 96.3407 32.7146 93.3998C32.7146 91.0773 32.7146 88.7583 32.7146 86.4358C32.7146 84.8406 31.9227 83.8743 30.7084 83.9095C29.4942 83.9446 28.7446 84.8933 28.7376 86.5166C28.7164 91.9487 28.6977 97.3784 28.6812 102.806C28.2695 103.217 27.731 103.224 27.2066 103.227C23.9652 103.227 20.7203 103.249 17.4753 103.227C16.7712 103.232 16.0725 103.104 15.4164 102.848C14.0086 102.282 13.1253 101.277 13.0443 99.6857C13.0443 99.4257 13.0232 99.1622 13.0232 98.8987C13.0232 87.7862 13.0232 76.6713 13.0232 65.5541C13.0126 64.7917 12.8578 63.9414 13.6778 63.4108Z" fill="#F37F87"/>
<path d="M72.646 104.134C72.6624 109.735 72.68 115.334 72.6988 120.933C72.6988 123.209 72.6988 125.483 72.6988 127.76C72.6988 130.774 72.6988 130.729 69.7072 130.715C68.8098 130.715 68.7429 130.363 68.75 129.632C68.7781 125.915 68.75 122.194 68.75 118.477C68.75 116.945 68.0461 116.017 66.8494 115.989C65.6528 115.961 64.7976 116.934 64.794 118.505C64.794 122.222 64.7694 125.943 64.794 129.661C64.794 130.405 64.7061 130.799 63.8227 130.715C62.9393 130.63 61.9891 130.658 61.0705 130.637C60.8276 130.23 60.9438 129.783 60.9438 129.355C60.9438 121.407 60.9438 113.458 60.9438 105.508C60.9438 103.867 61.0599 103.751 62.7316 103.73C63.4355 103.73 64.1394 103.617 64.7307 104.144C64.7307 105.55 64.7765 106.955 64.7835 108.361C64.7835 109.524 65.1566 110.469 66.406 110.711C67.6554 110.954 68.4015 110.314 68.764 109.151C68.88 107.765 68.9012 106.373 68.8274 104.984C68.8274 104.218 69.1089 103.814 69.855 103.8C70.8088 103.754 71.7872 103.491 72.646 104.134Z" fill="#F7F6F7"/>
<path d="M61.8765 75.7825C59.0856 78.4212 56.3157 81.0881 53.4931 83.6917C50.4347 86.5026 50.3256 90.1603 50.6388 93.8813C50.7585 95.3429 51.8601 96.0281 53.7008 96.2319C54.0525 96.2514 54.405 96.2514 54.7566 96.2319C74.7471 96.2319 94.7388 96.2413 114.732 96.26C116.034 96.26 116.491 95.9859 116.417 94.6086C116.294 92.7815 116.417 90.9368 116.417 89.0992C116.857 91.7977 116.558 94.5102 116.576 97.2157C116.576 97.7779 116.224 98.0871 115.633 98.0766C115.326 98.0766 115.02 98.0766 114.711 98.0766H50.4699C48.7102 98.0766 48.6539 98.0766 48.7102 96.2424C48.7876 93.5369 48.4427 90.8139 48.9319 88.1189C49.3646 85.7262 50.607 83.5544 52.4514 81.9665C54.2498 80.3643 56.0869 78.8042 57.9311 77.2477C59.0155 76.2824 60.4238 75.7594 61.8765 75.7825Z" fill="#E5646E"/>
<path d="M80.0544 2.11895C80.2735 2.1365 80.4936 2.1365 80.7126 2.11895C81.874 1.9257 82.1837 2.39302 82.1802 3.55603C82.145 21.2883 82.138 39.0216 82.1591 56.7562C82.0731 56.7742 81.9861 56.7871 81.8986 56.7949C80.0298 56.8511 80.0298 56.8511 80.0298 54.9397V3.67901C80.0298 3.16954 80.0474 2.64249 80.0544 2.11895Z" fill="#C38C66"/>
<path d="M96.3467 104.134C96.3655 110.812 96.3843 117.488 96.403 124.162V127.303C96.403 130.887 96.403 130.887 92.6935 130.616C92.4507 130.208 92.5668 129.762 92.5668 129.334C92.5668 121.386 92.5668 113.437 92.5668 105.486C92.5668 103.842 92.683 103.73 94.3547 103.709C95.0375 103.712 95.7625 103.607 96.3467 104.134Z" fill="#F7F6F7"/>
<path d="M104.248 104.134L104.3 124.162C104.3 125.209 104.3 126.256 104.3 127.303C104.3 130.887 104.3 130.887 100.591 130.616C100.348 130.208 100.464 129.762 100.464 129.334C100.464 121.386 100.464 113.437 100.464 105.486C100.464 103.842 100.58 103.73 102.252 103.709C102.935 103.712 103.66 103.607 104.248 104.134Z" fill="#F7F6F7"/>
<path d="M112.202 104.13C112.233 104.833 112.286 105.536 112.286 106.239C112.286 113.99 112.286 121.744 112.314 129.495C112.314 130.437 112.152 130.855 111.117 130.725C110.244 130.652 109.368 130.625 108.492 130.644C108.249 130.237 108.369 129.787 108.365 129.362C108.365 121.398 108.365 113.433 108.365 105.469C108.365 103.898 108.495 103.754 110.062 103.73C110.797 103.705 111.561 103.61 112.202 104.13Z" fill="#F7F6F7"/>
<path d="M88.4454 104.134C88.4618 110.812 88.4806 117.488 88.5017 124.162C88.5017 125.216 88.5017 126.27 88.5017 127.303C88.5017 130.887 88.5017 130.887 84.7922 130.616C84.5493 130.208 84.6655 129.762 84.6655 129.334C84.6655 121.386 84.6655 113.437 84.6655 105.486C84.6655 103.842 84.7781 103.73 86.4498 103.709C87.1361 103.712 87.8611 103.607 88.4454 104.134Z" fill="#F7F6F7"/>
<path d="M80.544 104.134C80.5651 110.812 80.5839 117.488 80.6003 124.162C80.6003 125.216 80.6003 126.27 80.6003 127.303C80.6003 130.887 80.6003 130.887 76.8908 130.616C76.6479 130.208 76.7641 129.762 76.7641 129.334C76.7641 121.386 76.7641 113.437 76.7641 105.486C76.7641 103.842 76.8803 103.73 78.5485 103.709C79.2348 103.712 79.9598 103.607 80.544 104.134Z" fill="#F7F6F7"/>
<path d="M78.4709 60.7934C81.8285 60.7934 85.1896 60.7759 88.5472 60.7407C89.0962 60.7407 89.3144 60.8567 89.3038 61.4435C89.2545 64.1841 89.2545 66.9283 89.2369 69.6724C89.0884 69.8375 88.8867 69.9457 88.6668 69.9781C86.0061 70.0941 83.3313 70.3295 80.6987 69.8235C78.9038 69.4721 78.1296 68.4181 78.0768 66.5734C78.0345 65.1328 78.0521 63.6922 78.0768 62.2516C78.0768 61.7456 78.0556 61.208 78.4709 60.7934Z" fill="#F7F7F7"/>
<path d="M13.6779 63.4106C13.326 63.9166 13.4175 64.4999 13.4175 65.0621C13.4175 76.3057 13.4878 87.5494 13.3646 98.772C13.333 101.72 15.1244 102.785 17.493 102.792C21.2165 102.792 24.9366 102.792 28.6602 102.792C28.9066 103.768 28.6602 104.162 27.5199 104.148C22.6912 104.081 17.866 104.095 13.0373 104.148C12.1012 104.148 11.8759 103.877 11.8794 102.967C11.9076 90.6602 11.9135 78.3495 11.897 66.0353C11.897 64.7564 12.1786 63.6812 13.6779 63.4106Z" fill="#E3636E"/>
<path d="M56.8511 104.398C56.8511 112.908 56.8757 121.421 56.9179 129.931C56.9179 130.606 56.6646 130.75 56.0804 130.694C55.5595 130.648 55.0245 130.659 54.5071 130.641C54.0285 130.146 54.1024 129.51 54.0989 128.905C54.0989 122.124 54.0989 115.344 54.0989 108.565C54.0989 107.549 54.1834 106.53 54.7078 105.641C55.1618 104.872 55.6721 104.015 56.8511 104.398Z" fill="#F7F6F7"/>
<path d="M78.4708 60.7928C78.4708 62.5004 78.5729 64.2151 78.4427 65.9157C78.2245 68.7512 79.6815 69.598 82.2613 69.6718C84.5841 69.742 86.9105 69.6718 89.2369 69.6718C89.3706 71.7799 89.3706 71.7799 87.3328 71.7799C83.9647 71.7799 80.5966 71.7378 77.232 71.8081C76.1762 71.8291 75.8066 71.6289 75.8453 70.4834C75.9403 67.6936 75.9509 64.8967 75.8453 62.1069C75.7995 60.8947 76.1972 60.5573 77.2988 60.7295C77.6878 60.7752 78.0792 60.7963 78.4708 60.7928Z" fill="#E8E8E7"/>
<path d="M56.8507 104.397C55.0909 105.016 54.5102 105.961 54.5102 108.298C54.5102 115.746 54.5102 123.194 54.5102 130.641C53.201 130.954 52.8842 130.458 52.8948 129.126C52.9617 120.476 52.9405 111.825 52.8948 103.175C52.8948 102.3 53.0426 101.85 54.0069 102.022C54.2259 102.041 54.4461 102.041 54.6651 102.022C56.9914 102.029 56.9914 102.029 56.8507 104.397Z" fill="#E9E8E8"/>
<path d="M7.8637 77.0473C7.92001 77.4409 8.0326 77.852 7.38854 77.8414C6.47348 77.8414 5.55488 77.8203 4.63982 77.8414C4.10839 77.8414 3.98173 77.6025 3.98525 77.1387C3.98525 74.6545 3.94657 72.1704 4.01344 69.6898C4.04863 68.4635 4.71725 67.6589 6.05113 67.6343C6.45587 68.0594 6.40309 68.597 6.42069 69.117C6.42069 70.3363 6.4946 71.5766 6.42069 72.7747C6.28695 74.4227 6.62837 75.8738 7.8637 77.0473Z" fill="#EBC057"/>
<path d="M7.86369 77.0471C7.30185 76.875 6.81529 76.5172 6.484 76.0326C6.15272 75.548 5.99633 74.9653 6.04055 74.3802C6.04055 72.1315 6.04055 69.8793 6.04055 67.627C7.90234 67.5321 7.90939 67.5321 7.90236 69.3838C7.89884 71.9383 7.87777 74.4927 7.86369 77.0471Z" fill="#FFD067"/>
<path d="M64.7453 104.134C63.9587 104.176 63.1703 104.176 62.3837 104.134C61.2997 104.015 61.0745 104.486 61.078 105.476C61.1097 113.867 61.078 122.258 61.078 130.645C60.617 130.388 60.8528 129.942 60.8528 129.615C60.8528 120.831 60.8528 112.047 60.8282 103.263C60.8282 102.307 61.0217 101.857 62.0353 102.047C62.2977 102.068 62.5613 102.068 62.8237 102.047C64.8825 102.029 64.8826 102.029 64.7453 104.134Z" fill="#E7E7E6"/>
<path d="M80.5438 104.134C79.7572 104.176 78.9688 104.176 78.1822 104.134C77.0982 104.014 76.873 104.485 76.8765 105.476C76.9117 113.867 76.8765 122.257 76.8765 130.644C76.4155 130.388 76.6548 129.942 76.6513 129.611C76.6513 120.827 76.6513 112.043 76.6301 103.259C76.6301 102.303 76.8237 101.853 77.8373 102.043C78.0985 102.064 78.361 102.064 78.6222 102.043C80.6846 102.029 80.6845 102.029 80.5438 104.134Z" fill="#E7E7E6"/>
<path d="M96.3463 104.134C95.5597 104.176 94.7714 104.176 93.9848 104.134C92.9008 104.014 92.6756 104.485 92.6791 105.476C92.7108 113.867 92.6791 122.257 92.6791 130.644C92.218 130.388 92.4538 129.942 92.4538 129.611C92.4538 120.827 92.4538 112.043 92.4292 103.259C92.4292 102.303 92.6263 101.853 93.6364 102.043C93.8987 102.064 94.1624 102.064 94.4247 102.043C96.4836 102.029 96.4836 102.029 96.3463 104.134Z" fill="#E7E7E6"/>
<path d="M104.247 104.134C103.461 104.176 102.672 104.176 101.886 104.134C100.802 104.014 100.576 104.485 100.58 105.476C100.612 113.867 100.58 122.257 100.58 130.644C100.119 130.388 100.355 129.942 100.355 129.611C100.355 120.827 100.355 112.043 100.33 103.259C100.33 102.303 100.524 101.853 101.537 102.043C101.798 102.064 102.061 102.064 102.322 102.043C104.384 102.029 104.385 102.029 104.247 104.134Z" fill="#E7E7E6"/>
<path d="M112.202 104.131C111.033 104.219 109.52 103.635 108.777 104.373C107.971 105.171 108.52 106.703 108.513 107.908C108.485 115.483 108.513 123.055 108.492 130.627C107.992 130.325 108.27 129.844 108.27 129.461C108.27 120.743 108.27 112.026 108.246 103.308C108.246 102.307 108.454 101.833 109.52 102.023C109.782 102.045 110.046 102.045 110.308 102.023C112.413 102.03 112.413 102.03 112.202 104.131Z" fill="#E7E7E6"/>
<path d="M88.4455 104.134C87.6589 104.176 86.8706 104.176 86.084 104.134C85 104.014 84.7747 104.485 84.7782 105.476C84.8099 113.867 84.7958 122.257 84.7782 130.644C84.3172 130.388 84.553 129.942 84.553 129.611C84.553 120.827 84.553 112.043 84.5283 103.259C84.5283 102.303 84.7254 101.853 85.7355 102.043C85.9979 102.064 86.2615 102.064 86.5239 102.043C88.5828 102.029 88.5828 102.029 88.4455 104.134Z" fill="#E7E7E6"/>
<path d="M72.6464 104.134C71.4885 104.218 70.0174 103.642 69.2572 104.38C68.497 105.118 69.0988 106.604 68.9968 107.753C68.9545 108.213 69.1481 108.712 68.7786 109.123C68.7786 107.015 68.7785 104.932 68.7539 102.838C68.7539 102.216 68.9229 101.956 69.5599 102.022C69.9505 102.061 70.3482 102.022 70.7424 102.022C72.7837 102.029 72.7837 102.029 72.6464 104.134Z" fill="#E7E7E6"/>
<path d="M46.8379 46.4644C47.2942 45.9199 47.8568 45.474 48.4915 45.1538C49.1262 44.8336 49.8196 44.6459 50.5294 44.6022C51.2392 44.5585 51.9504 44.6596 52.6197 44.8994C53.289 45.1393 53.9024 45.5128 54.4223 45.9971C54.9602 46.4772 55.3939 47.0622 55.6965 47.7161C55.9991 48.37 56.1643 49.0789 56.1818 49.799C56.1993 50.5191 56.0687 51.2352 55.7981 51.9029C55.5276 52.5707 55.1228 53.176 54.6088 53.6815C53.8029 54.0996 52.9863 53.9415 52.1769 53.6815C49.2979 52.8007 47.4819 50.9022 46.7287 47.9859C46.5736 47.4829 46.6126 46.9402 46.8379 46.4644Z" fill="#C0E2F7"/>
<path d="M46.8385 46.4644C47.1904 50.8283 50.094 53.5092 54.6094 53.6814C54.1298 54.1876 53.5543 54.5939 52.9164 54.8767C52.2785 55.1595 51.5907 55.3131 50.8929 55.3288C50.1951 55.3445 49.5011 55.2219 48.8511 54.9681C48.201 54.7142 47.6079 54.3342 47.106 53.8501C46.0942 52.9033 45.4984 51.5957 45.4483 50.2122C45.3982 48.8287 45.8979 47.4816 46.8385 46.4644Z" fill="#9ED9F6"/>
<path d="M22.9056 40.0098C24.7533 38.7836 26.7382 38.9557 28.234 40.4385C29.7298 41.9213 29.8917 43.924 28.6634 45.7546C27.3718 46.2641 25.0735 45.5052 24.0353 43.9978C23.2434 42.8418 22.082 41.6718 22.9056 40.0098Z" fill="#BFE2F7"/>
<path d="M22.9059 40.0098C22.6701 42.9788 25.6863 45.983 28.6637 45.7546C28.2486 46.4494 27.6227 46.9943 26.8766 47.3101C26.1306 47.626 25.3032 47.6965 24.5143 47.5114C23.6628 47.3862 22.8744 46.9905 22.2659 46.383C21.6573 45.7754 21.261 44.9883 21.1356 44.1383C20.9539 43.3517 21.0274 42.5277 21.3456 41.7855C21.6639 41.0434 22.2103 40.4215 22.9059 40.0098Z" fill="#9ED8F5"/>
<path d="M61.0532 26.4333C62.8129 25.1333 64.7874 25.2281 66.2409 26.6828C67.6945 28.1374 67.7895 30.1121 66.4802 31.8584C66.1754 32.0286 65.8193 32.0835 65.4772 32.013C63.5872 31.6616 61.2538 29.3215 60.9019 27.4452C60.8329 27.1006 60.8864 26.7428 61.0532 26.4333Z" fill="#BFE2F7"/>
<path d="M61.0534 26.4331C61.5144 29.4935 63.4149 31.3944 66.4804 31.8582C64.8685 33.7661 62.3591 33.9312 60.6698 32.2377C58.9804 30.5441 59.1458 28.0494 61.0534 26.4331Z" fill="#9ED8F5"/>
<path d="M41.8545 27.1113C42.5352 27.1516 43.1766 27.4428 43.6546 27.9283C44.1325 28.4139 44.4128 29.0593 44.4413 29.7395C44.4185 30.4411 44.1234 31.1064 43.6184 31.5948C43.1134 32.0832 42.438 32.3566 41.7349 32.3571C41.386 32.3527 41.0417 32.2772 40.7231 32.1353C40.4045 31.9934 40.1183 31.788 39.8821 31.5317C39.6458 31.2754 39.4644 30.9737 39.3491 30.645C39.2338 30.3162 39.1869 29.9675 39.2114 29.62C39.2335 28.939 39.5231 28.2941 40.0177 27.8246C40.5123 27.3552 41.1721 27.0989 41.8545 27.1113Z" fill="#BFE1F5"/>
<path d="M32.3587 10.5443C31.3557 10.3897 30.7187 9.86263 30.7222 8.8261C30.7257 7.78958 31.3205 7.19928 32.3446 7.1255C32.575 7.11752 32.8045 7.15801 33.0182 7.24434C33.2318 7.33066 33.4249 7.4609 33.5849 7.62657C33.7449 7.79225 33.8682 7.98967 33.9467 8.20601C34.0253 8.42236 34.0574 8.65278 34.041 8.88232C33.9741 9.92588 33.3477 10.4178 32.3587 10.5443Z" fill="#BEE0F5"/>
<path d="M53.5073 14.6904C53.4475 15.6285 52.9582 16.2574 51.9024 16.3172C51.6716 16.3321 51.4404 16.2985 51.2234 16.2186C51.0064 16.1387 50.8087 16.0143 50.6428 15.8534C50.477 15.6925 50.3468 15.4986 50.2607 15.2844C50.1746 15.0702 50.1343 14.8403 50.1427 14.6095C50.2236 13.6046 50.8255 12.9476 51.8356 12.9581C52.8456 12.9687 53.4615 13.5484 53.5073 14.6904Z" fill="#BEDFF4"/>
</svg>
