<svg width="152" height="89" viewBox="0 0 152 89" fill="none" xmlns="http://www.w3.org/2000/svg">
<g opacity="0.41">
<g clip-path="url(#clip0_80_5951)">
<path d="M126.339 88.9931C119.245 88.9931 115.792 83.0114 112.747 77.7266C109.896 72.7868 107.439 68.5231 102.726 68.5231C98.013 68.5231 95.5493 72.7868 92.698 77.7266C89.653 83.0114 86.2066 88.9931 79.113 88.9931C72.0195 88.9931 68.573 83.0114 65.5211 77.7266C62.6767 72.7868 60.213 68.5231 55.5002 68.5231C50.7873 68.5231 48.3235 72.7868 45.4722 77.7335C42.4341 83.0114 38.9807 88.9931 31.8872 88.9931C24.7936 88.9931 21.3473 83.0114 18.3023 77.7266C15.451 72.7868 12.9941 68.5231 8.28124 68.5231C3.56836 68.5231 1.10466 72.7868 -1.73969 77.7266C-4.79165 83.0114 -8.23808 88.9931 -15.3316 88.9931C-22.4252 88.9931 -25.8716 83.0114 -28.9166 77.7266C-31.7679 72.7868 -34.2316 68.5231 -38.9445 68.5231C-39.4394 68.4528 -39.8922 68.2068 -40.2198 67.8304C-40.5474 67.4539 -40.7278 66.9723 -40.7278 66.474C-40.7278 65.9756 -40.5474 65.494 -40.2198 65.1176C-39.8922 64.7412 -39.4394 64.4952 -38.9445 64.4249C-31.8509 64.4249 -28.4045 70.4066 -25.3526 75.6914C-22.5082 80.6312 -20.0445 84.8949 -15.3316 84.8949C-10.6187 84.8949 -8.15504 80.6312 -5.30378 75.6914C-2.25874 70.4066 1.18769 64.4249 8.28124 64.4249C15.3748 64.4249 18.8212 70.4066 21.8663 75.6845C24.7175 80.6312 27.1743 84.8949 31.8872 84.8949C36.6001 84.8949 39.0639 80.6312 41.9082 75.6914C44.9602 70.4066 48.4066 64.4249 55.5002 64.4249C62.5937 64.4249 66.0401 70.4066 69.0851 75.6914C71.9363 80.6312 74.4001 84.8949 79.113 84.8949C83.8259 84.8949 86.2896 80.6312 89.134 75.6845C92.179 70.4066 95.6324 64.4249 102.726 64.4249C109.819 64.4249 113.266 70.4066 116.311 75.6914C119.162 80.6312 121.619 84.8949 126.339 84.8949C131.059 84.8949 133.508 80.6312 136.36 75.6914C139.405 70.4066 142.858 64.4249 149.952 64.4249C150.447 64.4952 150.899 64.7412 151.227 65.1176C151.555 65.494 151.735 65.9756 151.735 66.474C151.735 66.9723 151.555 67.4539 151.227 67.8304C150.899 68.2068 150.447 68.4528 149.952 68.5231C145.232 68.5231 142.775 72.7868 139.924 77.7266C136.879 83.0114 133.425 88.9931 126.339 88.9931Z" fill="url(#paint0_linear_80_5951)"/>
<path d="M126.339 56.7807C119.245 56.7807 115.792 50.799 112.747 45.5142C109.896 40.5744 107.439 36.3107 102.726 36.3107C98.013 36.3107 95.5493 40.5744 92.698 45.5142C89.653 50.799 86.2066 56.7807 79.113 56.7807C72.0195 56.7807 68.573 50.799 65.5211 45.5142C62.6767 40.5744 60.213 36.3107 55.5002 36.3107C50.7873 36.3107 48.3235 40.5744 45.4722 45.5211C42.4341 50.799 38.9807 56.7807 31.8872 56.7807C24.7936 56.7807 21.3473 50.799 18.3023 45.5142C15.451 40.5744 12.9941 36.3107 8.28124 36.3107C3.56836 36.3107 1.10466 40.5744 -1.73969 45.5142C-4.79165 50.799 -8.23808 56.7807 -15.3316 56.7807C-22.4252 56.7807 -25.8716 50.799 -28.9166 45.5142C-31.7679 40.5744 -34.2316 36.3107 -38.9445 36.3107C-39.4394 36.2404 -39.8922 35.9944 -40.2198 35.618C-40.5474 35.2415 -40.7278 34.7599 -40.7278 34.2616C-40.7278 33.7632 -40.5474 33.2816 -40.2198 32.9052C-39.8922 32.5288 -39.4394 32.2828 -38.9445 32.2125C-31.8509 32.2125 -28.4045 38.1942 -25.3526 43.479C-22.5082 48.4188 -20.0445 52.6825 -15.3316 52.6825C-10.6187 52.6825 -8.15504 48.4188 -5.30378 43.479C-2.25874 38.1942 1.18769 32.2125 8.28124 32.2125C15.3748 32.2125 18.8212 38.1942 21.8663 43.4721C24.7175 48.4188 27.1743 52.6825 31.8872 52.6825C36.6001 52.6825 39.0639 48.4188 41.9082 43.479C44.9602 38.1942 48.4066 32.2125 55.5002 32.2125C62.5937 32.2125 66.0401 38.1942 69.0851 43.479C71.9363 48.4188 74.4001 52.6825 79.113 52.6825C83.8259 52.6825 86.2896 48.4188 89.134 43.4721C92.179 38.1942 95.6324 32.2125 102.726 32.2125C109.819 32.2125 113.266 38.1942 116.311 43.479C119.162 48.4188 121.619 52.6825 126.339 52.6825C131.059 52.6825 133.508 48.4188 136.36 43.479C139.405 38.1942 142.858 32.2125 149.952 32.2125C150.447 32.2828 150.899 32.5288 151.227 32.9052C151.555 33.2816 151.735 33.7632 151.735 34.2616C151.735 34.7599 151.555 35.2415 151.227 35.618C150.899 35.9944 150.447 36.2404 149.952 36.3107C145.232 36.3107 142.775 40.5744 139.924 45.5142C136.879 50.799 133.425 56.7807 126.339 56.7807Z" fill="url(#paint1_linear_80_5951)"/>
<path d="M126.339 24.5681C119.245 24.5681 115.792 18.5865 112.747 13.3017C109.896 8.36182 107.439 4.09121 102.726 4.09121C98.013 4.09121 95.5493 8.36182 92.698 13.3017C89.653 18.5865 86.2065 24.5681 79.113 24.5681C72.0194 24.5681 68.573 18.5865 65.521 13.3017C62.6767 8.36182 60.213 4.09121 55.5001 4.09121C50.7872 4.09121 48.3234 8.36182 45.4722 13.3017C42.4341 18.5865 38.9807 24.5681 31.8872 24.5681C24.7936 24.5681 21.3473 18.5865 18.3022 13.3017C15.451 8.36182 12.9941 4.09121 8.2812 4.09121C3.56832 4.09121 1.10462 8.36182 -1.73972 13.3017C-4.79168 18.5865 -8.23812 24.5681 -15.3317 24.5681C-22.4252 24.5681 -25.8716 18.5865 -28.9166 13.3017C-31.7679 8.36182 -34.2316 4.09121 -38.9445 4.09121C-39.2404 4.13667 -39.5427 4.11779 -39.8306 4.03588C-40.1185 3.95397 -40.3851 3.81095 -40.6124 3.61664C-40.8396 3.42233 -41.022 3.18134 -41.1471 2.91017C-41.2721 2.63899 -41.3369 2.34403 -41.3369 2.04557C-41.3369 1.74711 -41.2721 1.4522 -41.1471 1.18102C-41.022 0.909849 -40.8396 0.66886 -40.6124 0.474552C-40.3851 0.280244 -40.1185 0.137223 -39.8306 0.0553094C-39.5427 -0.0266045 -39.2404 -0.0454799 -38.9445 -2.25045e-05C-31.851 -2.25045e-05 -28.4046 5.98161 -25.3526 11.2595C-22.5083 16.2063 -20.0446 20.47 -15.3317 20.47C-10.6188 20.47 -8.15508 16.2063 -5.30382 11.2595C-2.25878 5.98161 1.18765 -2.25045e-05 8.2812 -2.25045e-05C15.3748 -2.25045e-05 18.8212 5.98161 21.8662 11.2595C24.7175 16.2063 27.1743 20.47 31.8872 20.47C36.6 20.47 39.0638 16.2063 41.9082 11.2664C44.9601 5.98162 48.4066 -2.25045e-05 55.5001 -2.25045e-05C62.5937 -2.25045e-05 66.04 5.98161 69.0851 11.2595C71.9363 16.2063 74.4001 20.47 79.113 20.47C83.8259 20.47 86.2896 16.2063 89.1339 11.2595C92.179 5.98161 95.6323 -2.25045e-05 102.726 -2.25045e-05C109.819 -2.25045e-05 113.266 5.98161 116.311 11.2595C119.162 16.2063 121.619 20.47 126.339 20.47C131.059 20.47 133.508 16.2063 136.36 11.2595C139.405 5.98161 142.858 -2.25045e-05 149.952 -2.25045e-05C150.442 0.0752634 150.888 0.32291 151.211 0.698111C151.534 1.07331 151.712 1.55127 151.712 2.04557C151.712 2.53988 151.534 3.01788 151.211 3.39308C150.888 3.76828 150.442 4.01593 149.952 4.09121C145.232 4.09121 142.775 8.36182 139.924 13.3017C136.879 18.5865 133.425 24.5681 126.339 24.5681Z" fill="url(#paint2_linear_80_5951)"/>
</g>
</g>
<defs>
<linearGradient id="paint0_linear_80_5951" x1="55.5001" y1="108.283" x2="55.5001" y2="27.8384" gradientUnits="userSpaceOnUse">
<stop stop-color="#DB5432"/>
<stop offset="1" stop-color="#FF836C"/>
</linearGradient>
<linearGradient id="paint1_linear_80_5951" x1="55.5001" y1="86.9509" x2="55.5001" y2="-30.2323" gradientUnits="userSpaceOnUse">
<stop stop-color="#DB5432"/>
<stop offset="1" stop-color="#FF836C"/>
</linearGradient>
<linearGradient id="paint2_linear_80_5951" x1="55.5001" y1="86.9509" x2="55.5001" y2="-30.2324" gradientUnits="userSpaceOnUse">
<stop stop-color="#DB5432"/>
<stop offset="1" stop-color="#FF836C"/>
</linearGradient>
<clipPath id="clip0_80_5951">
<rect width="193" height="89" fill="white" transform="translate(-41)"/>
</clipPath>
</defs>
</svg>
