<svg width="102" height="102" viewBox="0 0 102 102" fill="none" xmlns="http://www.w3.org/2000/svg">
<path d="M0.013635 57.746C0.626612 54.9161 2.48823 52.9506 4.4543 50.9851C19.7833 35.7011 35.0895 20.3944 50.3731 5.06488C53.0293 2.40329 56.0942 1.45695 59.7857 2.3851C68.4627 4.56441 77.176 6.59358 85.8213 8.90028C87.6375 9.3871 88.6319 9.08682 89.817 7.77195C91.9056 5.4607 94.185 3.32688 96.3917 1.12482C97.7993 -0.276488 99.6428 -0.376581 100.887 0.87004C102.131 2.11666 102.036 3.96384 100.633 5.3788C98.1126 7.91754 95.5971 10.4654 93.0362 12.9677C92.7683 13.1816 92.5785 13.4784 92.4964 13.8116C92.4142 14.1449 92.4444 14.4961 92.5822 14.8104C93.5675 18.35 94.3984 21.9216 95.3065 25.484C96.6687 30.9755 97.9855 36.4761 99.393 41.9585C100.356 45.7211 99.393 48.8513 96.6687 51.5675C88.9982 59.2231 81.3458 66.8985 73.7116 74.5936C66.144 82.2007 58.5673 89.8124 50.9815 97.4286C49.0064 99.4259 47.0267 101.332 44.1707 101.946H41.133C38.1862 101.264 36.1838 99.2166 34.1496 97.1784C24.3571 87.3146 14.5374 77.4751 4.69041 67.6598C2.66532 65.6443 0.672004 63.6515 0 60.7306L0.013635 57.746ZM83.1333 14.4054C82.7973 14.2871 82.6111 14.2098 82.4204 14.1643C74.5334 12.2216 66.6374 10.3198 58.7686 8.30427C56.9297 7.8493 55.6401 8.25422 54.3279 9.56909C38.6811 25.2838 23.0131 40.9757 7.32394 56.645C5.53495 58.4375 5.53041 59.9753 7.32394 61.7679L40.1295 94.6396C41.9094 96.4231 43.4442 96.414 45.2422 94.6123C60.9829 78.84 76.7114 63.0676 92.4278 47.2953C92.9741 46.8161 93.3697 46.1882 93.5664 45.4879C93.7631 44.7875 93.7524 44.0451 93.5357 43.3507C91.8648 36.7491 90.2665 30.1247 88.6364 23.5094C88.2459 21.9307 87.8419 20.3565 87.4014 18.6185C85.0449 20.9889 82.82 23.2137 80.6269 25.4703C80.4806 25.7268 80.4383 26.0298 80.5088 26.3166C80.6859 27.5177 81.0855 28.7143 81.0764 29.9154C81.0334 32.2458 80.0766 34.4655 78.4128 36.0944C76.749 37.7232 74.512 38.6302 72.186 38.619C70.8745 38.615 69.5799 38.3226 68.3934 37.7625C67.207 37.2024 66.1577 36.3883 65.3196 35.3775C64.4814 34.3667 63.8749 33.184 63.5427 31.9127C63.2105 30.6414 63.1608 29.3126 63.3971 28.0199C63.6334 26.7273 64.1499 25.5024 64.9101 24.4316C65.6704 23.3608 66.6559 22.4702 67.7972 21.8227C68.9384 21.1752 70.2076 20.7865 71.5151 20.6841C72.8226 20.5817 74.1366 20.768 75.3644 21.23C75.5282 21.292 75.7033 21.318 75.878 21.3062C76.0527 21.2945 76.2229 21.2452 76.3769 21.1618C78.6063 18.9642 80.8176 16.7258 83.1333 14.4054ZM72.186 32.6043C72.7688 32.6024 73.3382 32.428 73.8224 32.1028C74.3066 31.7777 74.684 31.3163 74.9072 30.7768C75.1305 30.2373 75.1895 29.6437 75.077 29.0706C74.9645 28.4976 74.6854 27.9706 74.2748 27.5561C73.8642 27.1415 73.3405 26.8579 72.7694 26.7407C72.1984 26.6236 71.6056 26.6783 71.0655 26.8979C70.5253 27.1174 70.0621 27.4921 69.7339 27.9748C69.4057 28.4574 69.2272 29.0266 69.221 29.6106C69.2192 30.0021 69.2945 30.3901 69.4427 30.7524C69.5908 31.1147 69.8089 31.4441 70.0843 31.7218C70.3597 31.9995 70.6872 32.22 71.0478 32.3706C71.4085 32.5213 71.7952 32.5991 72.186 32.5997V32.6043Z" fill="#14A594"/>
<path d="M26.6939 62.1181C24.4236 62.2728 22.9888 61.1763 22.8616 59.493C22.7209 57.6731 23.9377 56.3673 25.8811 56.158C31.6294 55.5393 37.3778 54.8704 43.1352 54.2335C48.7898 53.6056 54.4428 52.9853 60.0943 52.3727C61.3111 52.2407 62.5235 52.0223 63.7267 51.9996C64.2183 51.9881 64.705 52.1 65.1425 52.3249C65.58 52.5499 65.9545 52.8808 66.2319 53.2876C66.5094 53.6944 66.681 54.1643 66.7311 54.6544C66.7813 55.1446 66.7084 55.6395 66.5192 56.0943C66.3363 56.5975 66.0149 57.0385 65.5922 57.3662C65.1695 57.694 64.6629 57.895 64.1308 57.9461C60.0595 58.4192 55.9851 58.8742 51.9076 59.311C47.4064 59.8205 42.9067 60.3255 38.4085 60.826C34.372 61.2855 30.3309 61.7223 26.6939 62.1181Z" fill="#14A594"/>
<path d="M37.9549 71.8772C37.9549 70.1022 38.4813 68.3671 39.4671 66.8923C40.453 65.4175 41.8538 64.2693 43.492 63.5936C45.1301 62.9179 46.9317 62.7451 48.668 63.0971C50.4043 63.449 51.9972 64.31 53.2444 65.5706C54.4916 66.8312 55.3369 68.4346 55.6731 70.1774C56.0093 71.9203 55.8212 73.7239 55.1327 75.3594C54.4442 76.9949 53.2863 78.3886 51.8059 79.3636C50.3256 80.3386 48.5895 80.851 46.818 80.8356C45.6479 80.8345 44.4896 80.6014 43.4098 80.1498C42.3299 79.6982 41.3499 79.0371 40.5261 78.2045C39.7023 77.3718 39.051 76.3841 38.6097 75.2982C38.1684 74.2123 37.9459 73.0497 37.9549 71.8772ZM43.9166 71.8772C43.9157 72.4659 44.0891 73.0417 44.4149 73.5316C44.7406 74.0215 45.2041 74.4036 45.7466 74.6295C46.2892 74.8554 46.8864 74.915 47.4627 74.8007C48.039 74.6864 48.5686 74.4034 48.9843 73.9874C49.4001 73.5715 49.6833 73.0413 49.7983 72.464C49.9132 71.8867 49.8547 71.2881 49.6301 70.7442C49.4055 70.2002 49.0248 69.7352 48.5364 69.4081C48.048 69.0809 47.4737 68.9063 46.8861 68.9063C46.1072 68.9213 45.3643 69.2375 44.8126 69.7886C44.2609 70.3397 43.9431 71.0832 43.9257 71.8636L43.9166 71.8772Z" fill="#14A594"/>
<path d="M33.7413 42.3541C33.7323 40.576 34.2509 38.8352 35.2311 37.3529C36.2113 35.8706 37.609 34.7136 39.2467 34.0288C40.8844 33.3439 42.6883 33.1622 44.4293 33.5065C46.1703 33.8509 47.7699 34.7059 49.025 35.9629C50.2802 37.2199 51.1343 38.8223 51.4788 40.5667C51.8234 42.311 51.6429 44.1186 50.9603 45.76C50.2776 47.4013 49.1237 48.8024 47.6448 49.7853C46.166 50.7683 44.429 51.2887 42.6545 51.2806C40.2965 51.264 38.0397 50.3183 36.3719 48.648C34.7041 46.9776 33.7592 44.7168 33.7413 42.3541ZM42.6363 39.374C42.0585 39.3839 41.4966 39.5649 41.0212 39.8941C40.5458 40.2233 40.1783 40.686 39.9648 41.2241C39.7513 41.7622 39.7015 42.3515 39.8215 42.9179C39.9416 43.4843 40.2262 44.0024 40.6395 44.4071C41.0528 44.8118 41.5764 45.0849 42.1443 45.192C42.7121 45.2992 43.299 45.2357 43.8309 45.0094C44.3628 44.7831 44.816 44.4042 45.1334 43.9204C45.4509 43.4365 45.6184 42.8694 45.6149 42.2904C45.6201 41.9002 45.5461 41.513 45.3973 41.1523C45.2486 40.7916 45.0283 40.465 44.7497 40.1923C44.4711 39.9195 44.1402 39.7063 43.7769 39.5657C43.4136 39.425 43.0255 39.3598 42.6363 39.374Z" fill="#14A594"/>
</svg>
