<svg width="105" height="129" viewBox="0 0 105 129" fill="none" xmlns="http://www.w3.org/2000/svg">
<g clip-path="url(#clip0_80_5651)">
<path d="M65.406 7.89043C64.3723 6.37212 63.5474 5.04581 62.6128 3.82263C62.0817 3.11147 62.2021 2.79502 62.9066 2.37188C63.9277 1.76488 64.908 1.09138 65.8415 0.355744C66.507 -0.174067 66.8505 -0.106496 67.3142 0.611771C68.6029 2.60656 69.9694 4.54445 71.4351 6.69214C72.5998 4.64401 73.7291 2.74878 74.7593 0.803775C75.1948 -0.0140533 75.5594 -0.262959 76.3949 0.313076C77.3741 0.985152 78.4039 1.57958 79.475 2.09096C80.2503 2.44654 80.1618 2.82346 79.8006 3.43506C78.8483 5.04582 77.9456 6.68859 76.9968 8.36692C78.5403 8.8825 80.0733 9.28074 81.5212 9.88878C90.3258 13.6046 95.9902 19.9908 97.863 29.5273C98.0764 30.6076 98.1949 31.7046 98.217 32.8058C98.2618 36.1055 98.2689 39.4076 98.2382 42.7121C98.2382 44.7318 97.077 45.8519 95.0945 45.9123H94.5493C92.8075 45.9123 92.3721 46.5417 92.7792 48.2876C92.935 48.9632 93.4129 48.6752 93.7457 48.7285C99.4455 49.6957 103.361 53.2515 104.674 58.6847C106.519 66.2976 100.6 74.0919 92.7933 74.2341C91.5366 74.2554 90.9489 74.5683 90.4922 75.8306C88.0388 82.6577 83.7657 88.1336 77.9385 92.4183C77.5066 92.7384 77.0676 93.0513 76.6003 93.3926C80.6185 97.1795 83.2666 101.678 84.4136 107.036C84.6471 108.1 84.794 109.181 84.8526 110.268C85.0933 115.449 84.9411 120.633 84.9482 125.814C84.9482 127.948 83.8047 128.993 81.6805 129.014C62.2234 129.014 42.7674 129.014 23.3126 129.014C21.1884 129.014 20.0378 127.948 20.0449 125.836C20.0449 120.424 19.7298 114.998 20.2113 109.603C20.753 103.505 23.355 98.2747 27.7839 94.0504C28.7468 93.133 28.5521 92.8308 27.6175 92.1268C21.9744 87.8598 17.7827 82.4871 15.4993 75.7347C15.078 74.4901 14.4655 74.2377 13.2618 74.2448C6.75842 74.2875 1.79851 70.401 0.315153 64.2139C-1.47621 56.7468 4.32981 48.9632 11.998 48.7428C13.5238 48.7001 13.1627 47.8751 13.2654 47.0146C13.3928 45.8981 12.8051 45.8306 11.9732 45.9017C11.4726 45.9461 10.9691 45.9461 10.4686 45.9017C9.05249 45.7595 7.8842 44.7212 7.87712 43.3309C7.85942 39.2062 7.5231 35.0601 8.0329 30.9603C9.29322 21.0041 14.8974 14.2482 23.8436 10.1804C27.5963 8.47003 31.5861 7.8869 35.6999 7.90823C45.0603 7.9509 54.4242 7.90823 63.7846 7.90823L65.406 7.89043Z" fill="#231F20"/>
<path d="M70.9923 37.812C73.0208 41.4033 75.7539 43.9422 79.5986 45.1938C81.7617 45.905 83.9779 45.969 86.2082 45.905C86.9163 45.8801 87.1429 46.0863 87.1393 46.8188C87.0827 53.0983 87.373 59.4027 86.9658 65.6644C86.0914 79.2581 76.5965 89.2214 65.1438 92.4287C62.4239 93.2062 59.6059 93.5823 56.7782 93.5452C52.9937 93.4741 49.2127 93.691 45.4247 93.3034C31.6673 91.8811 22.0591 81.1427 19.8287 70.7207C19.0747 67.1934 18.9012 63.6661 18.8906 60.0961C18.8906 55.7865 18.8905 51.4769 18.795 47.1673C18.7737 46.1005 19.0817 45.8978 20.0836 45.9014C32.3647 45.937 44.6494 45.8836 56.9304 45.9441C63.1365 45.9547 67.7707 43.3661 70.9923 37.812Z" fill="#FDDCCF"/>
<path d="M36.7477 40.1837C29.4902 40.1837 22.2327 40.1589 14.9716 40.2086C13.8636 40.2086 13.4529 39.9633 13.506 38.7863C13.6795 35.0954 13.1944 31.3761 14.3981 27.7634C16.9117 20.1932 24.4418 14.2835 32.3861 13.6826C34.3474 13.5332 36.3016 13.4977 38.2629 13.4977C49.1314 13.4977 59.9964 13.4336 70.8614 13.519C78.1614 13.5759 84.2825 16.3209 88.7751 22.2413C91.2255 25.4097 92.5524 29.3091 92.5454 33.3211C92.5454 35.2946 92.5242 37.2645 92.5454 39.2379C92.5454 39.9491 92.3047 40.1944 91.5966 40.1837C88.7644 40.1446 85.9322 40.2335 83.1 40.1126C80.6998 40.006 78.7137 38.8432 77.2303 36.9765C75.6903 35.0314 74.43 32.9051 73.8529 30.4445C73.552 29.1715 72.7909 28.311 71.5128 28.0337C70.1144 27.7385 69.1338 28.4141 68.4187 29.5555C67.4663 31.081 66.9459 32.802 66.2131 34.4269C64.5244 38.1783 61.6993 40.1766 57.543 40.1731L36.7477 40.1837Z" fill="#C46F67"/>
<path d="M52.4949 123.3C48.2005 123.3 43.9098 123.261 39.619 123.329C38.5038 123.329 38.2419 123.001 38.2808 121.945C38.3622 119.84 38.256 117.725 38.3268 115.62C38.3587 114.681 38.0365 114.432 37.1621 114.485C35.746 114.574 33.9192 114.037 33.0589 114.741C32.1987 115.445 32.8288 117.401 32.7757 118.802C32.7297 120.039 32.7403 121.291 32.7757 122.514C32.7757 123.105 32.6129 123.321 32.0039 123.311C30.1347 123.282 28.2619 123.293 26.3891 123.311C25.9112 123.311 25.6138 123.24 25.6386 122.646C25.851 117.668 25.0934 112.643 26.2015 107.712C27.2211 103.174 29.6603 99.5013 33.282 96.6211C33.8449 96.1731 34.298 96.0593 34.9742 96.3829C36.3903 97.0692 38.0826 97.247 39.4137 98.015C40.8085 98.8186 40.543 100.813 41.3679 102.157C44.2921 106.908 48.4838 109.113 53.9995 108.643C58.8 108.234 63.1298 104.572 64.5458 99.7146C64.8751 98.5768 65.4309 98.1323 66.5107 97.8977C67.7069 97.6445 68.87 97.2532 69.9766 96.7314C70.9006 96.2833 71.5095 96.4113 72.2529 97.0585C76.742 100.97 79.1564 105.855 79.3334 111.808C79.429 115.293 79.3334 118.777 79.3724 122.262C79.3724 123.115 79.1529 123.361 78.3103 123.329C76.6252 123.261 74.9329 123.254 73.2442 123.329C72.3379 123.371 72.2034 123.012 72.2211 122.219C72.2671 119.975 72.2034 117.728 72.2529 115.463C72.2706 114.667 72.0122 114.432 71.244 114.471C70.058 114.528 68.8685 114.532 67.6825 114.471C66.8859 114.428 66.67 114.724 66.6841 115.492C66.7266 117.735 66.6594 119.986 66.7196 122.248C66.7408 123.108 66.4646 123.314 65.6362 123.314C61.2605 123.282 56.8848 123.3 52.4949 123.3Z" fill="#72CFE9"/>
<path d="M13.3009 60.9355C13.354 62.9303 13.1592 65.27 13.5593 67.5883C13.6797 68.2995 13.5841 68.6764 12.6884 68.6551C8.89679 68.5342 5.7743 65.5367 5.63977 61.8102C5.55863 59.9641 6.18935 58.1577 7.40069 56.7668C8.61203 55.376 10.3107 54.5079 12.1432 54.3431C13.0318 54.2542 13.361 54.4391 13.3221 55.4098C13.2442 57.1166 13.3009 58.8589 13.3009 60.9355Z" fill="#FBCBBF"/>
<path d="M92.7509 61.8738C92.7509 59.5057 92.7969 57.486 92.7297 55.4734C92.6978 54.5454 92.9562 54.2645 93.8731 54.4565C97.0594 55.1214 99.4667 58.2896 99.3711 61.7316C99.2756 64.9958 96.6983 67.9827 93.597 68.4876C92.6412 68.6441 92.3509 68.4627 92.4748 67.4209C92.723 65.5831 92.8153 63.7274 92.7509 61.8738Z" fill="#FBCBBF"/>
<path d="M58.8988 99.1313C57.3907 101.812 55.2771 103.135 52.4732 103.117C49.6694 103.1 47.5629 101.78 46.1787 99.1313H58.8988Z" fill="#F8C9BE"/>
<path d="M52.4769 77.8678C50.4085 77.8585 48.415 77.0892 46.8726 75.7051C45.3302 74.321 44.3455 72.4177 44.1042 70.3544C44.0122 69.5651 44.2848 69.3837 44.9787 69.4157C45.754 69.4513 46.5293 69.4477 47.3046 69.4157C48.5614 69.3659 49.6978 69.2272 50.1864 70.9482C50.4802 71.9759 51.6697 72.4168 52.8061 72.2745C53.9425 72.1323 54.9303 71.4603 55.1675 70.2904C55.3445 69.4512 55.7516 69.405 56.3959 69.4157C57.6279 69.437 58.8741 69.4548 60.0884 69.4157C60.8637 69.3908 60.9841 69.7037 60.892 70.4113C60.6452 72.475 59.6512 74.3754 58.0994 75.7504C56.5475 77.1255 54.5463 77.8791 52.4769 77.8678Z" fill="#232020"/>
<path d="M67.8596 65.7391C67.4275 65.7515 66.9974 65.6764 66.5948 65.5182C66.1923 65.36 65.8256 65.122 65.5166 64.8183C65.2077 64.5146 64.9628 64.1516 64.7967 63.7508C64.6305 63.35 64.5464 62.9197 64.5495 62.4856C64.541 62.0514 64.6182 61.6198 64.7765 61.2157C64.9348 60.8116 65.1711 60.4429 65.4719 60.1309C65.7726 59.8189 66.1319 59.5698 66.5289 59.3978C66.9259 59.2258 67.3529 59.1345 67.7852 59.1289C68.6576 59.134 69.4942 59.4783 70.1193 60.0895C70.7444 60.7008 71.1095 61.5315 71.1378 62.4073C71.1379 63.2842 70.7937 64.1258 70.18 64.7495C69.5663 65.3732 68.7326 65.7288 67.8596 65.7391Z" fill="#242020"/>
<path d="M40.4721 62.4146C40.4854 62.8491 40.4112 63.2819 40.2538 63.6869C40.0965 64.0919 39.8592 64.4607 39.5563 64.7713C39.2534 65.0818 38.8911 65.3276 38.4912 65.494C38.0913 65.6603 37.662 65.7437 37.2292 65.7392C36.3548 65.7497 35.5117 65.4131 34.8832 64.8024C34.2547 64.1918 33.8916 63.3566 33.873 62.4786C33.8829 61.6022 34.2307 60.7637 34.8435 60.1397C35.4562 59.5156 36.286 59.1546 37.1584 59.1326C37.5912 59.127 38.0209 59.2076 38.4224 59.37C38.824 59.5324 39.1895 59.7732 39.4977 60.0784C39.8059 60.3837 40.0508 60.7474 40.218 61.1484C40.3853 61.5494 40.4716 61.9798 40.4721 62.4146Z" fill="#242020"/>
</g>
<defs>
<clipPath id="clip0_80_5651">
<rect width="105" height="129" fill="white"/>
</clipPath>
</defs>
</svg>
