<svg width="280" height="199" viewBox="0 0 280 199" fill="none" xmlns="http://www.w3.org/2000/svg">
<g clip-path="url(#clip0_289_72)">
<path d="M280 118.532C280 113.705 278.73 111.254 277.495 108.881C276.26 106.509 275.096 104.267 275.096 99.6546C275.009 96.54 275.538 93.4283 276.676 90.3563C277.843 87.1904 278.388 83.984 278.303 80.7747C278.303 75.9482 277.015 73.4938 275.775 71.1216C274.534 68.7494 273.351 66.5095 273.351 61.8974C273.351 57.2854 274.522 55.0402 275.693 52.668C276.863 50.2958 278.162 47.8441 278.162 43.0202C278.241 39.8179 277.746 36.618 276.682 33.4519C275.658 30.3703 275.19 27.2562 275.283 24.1403C275.23 21.0185 275.577 17.8979 276.325 14.7944C277.089 11.6293 277.445 8.44684 277.39 5.26308C277.422 4.95913 277.315 4.65545 277.075 4.37112C276.836 4.0868 276.468 3.828 275.997 3.61099C274.241 2.85114 271.566 2.88556 268.974 2.91998C268.441 2.91998 267.903 2.91998 267.364 2.91998C256.899 2.91998 251.813 2.39046 246.429 1.86094C241.044 1.33143 235.519 0.754256 224.598 0.754256C217.348 0.718012 210.104 0.958024 202.943 1.47175C195.977 1.97595 188.928 2.20979 181.873 2.17071C171.409 2.17071 166.323 1.64119 160.938 1.11168C155.554 0.582163 150.023 -0.000303932 139.108 -0.000303932C131.86 -0.0361689 124.617 0.195823 117.453 0.69336C110.483 1.18251 103.435 1.40922 96.3828 1.37114C85.725 1.37114 80.3053 1.29436 75.0671 1.22288C69.8289 1.15139 64.3391 1.07461 53.6228 1.07461C42.9065 1.07461 37.5453 0.995185 32.3013 0.921052C27.0573 0.84692 21.5791 0.767494 10.8569 0.767494C6.37958 0.767494 3.36547 2.57314 3.36547 5.26838C3.36547 9.98901 3.36547 12.348 3.36547 14.707C3.36547 17.066 3.36547 19.4276 3.36547 24.1483C3.4308 27.2675 3.01818 30.3849 2.13056 33.4783C1.22293 36.6446 0.800509 39.8355 0.86635 43.0282C0.86635 47.77 1.12386 50.1766 1.36968 52.5118C1.61549 54.8469 1.873 57.2086 1.873 61.908C1.873 66.6075 1.6506 68.9956 1.43405 71.3069C1.2175 73.6183 0.989234 76.0461 0.989234 80.7853C0.875711 84.0274 1.6483 87.2634 3.28939 90.4198C4.45993 92.8026 5.50173 95.0425 5.50173 99.6625C5.50173 104.283 4.21998 106.501 2.86801 108.871C1.51603 111.24 0.0996094 113.705 0.0996094 118.542C0.0996094 123.274 0.240129 125.691 0.374742 128.008C0.509354 130.324 0.649802 132.715 0.649802 137.422C0.558761 140.638 1.15661 143.851 2.43491 147.014C3.67462 150.077 4.25088 153.187 4.15558 156.3C4.15558 161.049 4.51256 163.464 4.85202 165.799C5.19147 168.134 5.53681 170.488 5.53681 175.177C5.53681 179.799 4.47748 182.045 3.35961 184.425C2.24175 186.805 1.08876 189.238 1.08876 194.057C1.08876 196.439 6.13382 198.028 10.8394 198.028C21.5557 198.028 27.0046 197.962 32.2779 197.901C37.5512 197.84 42.9416 197.776 53.6052 197.776C60.6712 197.743 67.7332 197.944 74.7336 198.38C81.9089 198.825 89.1466 199.032 96.3887 199C103.637 199.036 110.88 198.803 118.044 198.303C125.014 197.817 132.061 197.591 139.114 197.628C146.358 197.662 153.598 197.443 160.769 196.974C167.758 196.515 174.817 196.302 181.879 196.339C192.356 196.339 197.448 196.826 202.838 197.342C208.228 197.859 213.736 198.401 224.645 198.401C235.408 198.401 240.886 198.216 246.177 198.039C251.468 197.861 256.794 197.684 267.405 197.684C268.611 197.684 270.331 197.618 271.578 197.059C272.977 196.418 272.959 195.523 272.942 194.488C272.942 194.351 272.942 194.223 272.942 194.062C272.846 190.948 273.434 187.838 274.698 184.777C275.995 181.613 276.603 178.399 276.512 175.182C276.579 171.987 276.145 168.794 275.213 165.627C274.299 162.536 273.877 159.42 273.948 156.302C273.948 151.579 273.908 149.178 273.872 146.856C273.837 144.534 273.79 142.138 273.79 137.422C273.79 132.839 275.277 130.61 276.851 128.251C278.426 125.892 280 123.39 280 118.532Z" fill="white"/>
</g>
<path d="M159.306 33.0142H159.57C160.08 33.608 159.957 34.3318 159.989 35.0205C160.052 36.3732 160.165 36.5208 161.534 36.5313C165.652 36.5559 169.769 36.5313 173.887 36.5313C177.347 36.5313 180.81 36.5313 184.27 36.5313C184.84 36.4881 185.412 36.5684 185.948 36.7667C187.673 38.1371 188.412 40.0028 188.669 42.118C188.708 42.6418 188.718 43.1673 188.697 43.6921C188.697 71.3797 188.697 99.0684 188.697 126.758C188.697 127.584 188.806 128.427 188.454 129.218C187.729 130.23 186.635 130.149 185.589 130.153C178.349 130.153 171.11 130.153 163.874 130.153C161.196 130.153 158.521 130.212 155.846 130.128C154.439 130.082 153.323 130.233 153.063 131.885C151.665 132.449 150.103 132.449 148.705 131.885C148.406 130.261 147.298 130.128 145.89 130.128C132.244 130.163 118.601 130.17 104.962 130.149C102.118 130.149 102.009 130.037 102.009 127.191C102.009 97.9827 102.009 68.7749 102.009 39.5671C102.009 36.584 102.097 36.4997 105.124 36.4997H151.975C152.413 36.4769 152.853 36.4769 153.291 36.4997C154.463 36.6227 155.241 36.2327 155.403 34.9818C155.755 34.4231 156.353 34.4021 156.888 34.4583C158.116 34.6269 158.965 34.2615 159.306 33.0142Z" fill="#508DCA"/>
<path d="M187.487 33.014C188.295 33.2674 189.09 33.5654 189.866 33.9065C193.512 35.7442 195.405 38.7448 195.595 42.7961C195.662 44.2015 195.595 45.607 195.595 47.0124C195.595 80.0407 195.595 113.076 195.595 146.118C195.595 151.459 192.526 155.402 187.501 156.431C186.549 156.582 185.584 156.636 184.622 156.593C165.57 156.593 146.521 156.586 127.476 156.572C126.332 156.572 126.012 156.814 126.044 157.977C126.139 161.164 126.076 164.354 126.076 167.65C122.496 166.708 119.037 165.819 115.591 164.867C114.724 164.605 113.8 164.599 112.93 164.85C109.738 165.749 106.511 166.515 103.322 167.418C102.488 167.654 102.383 167.467 102.39 166.715C102.425 163.694 102.368 160.668 102.428 157.647C102.428 156.765 102.171 156.561 101.33 156.593C98.9158 156.649 96.5015 156.635 94.0871 156.593C88.2378 156.526 84.0285 152.295 84.0109 146.424C83.9863 137.749 84.0109 129.074 84.0109 120.399V91.7342C84.0109 89.626 84.0109 89.626 86.0627 89.4925C87.6183 88.8987 88.2167 89.25 88.3223 90.8347C88.3575 91.3582 88.3223 91.8888 88.3223 92.4123V128.424C88.3223 128.863 88.3223 129.302 88.3223 129.738C88.3223 130.539 88.5756 130.918 89.4274 130.504C91.4581 129.523 93.6296 129.33 95.8433 129.337C97.9867 129.337 98.0149 129.306 98.0149 127.11C98.0149 99.9374 98.0149 72.7733 98.0149 45.6175C98.0149 43.3863 98.0325 41.1517 98.0149 38.917C98.0149 37.5537 97.853 37.4237 96.4945 37.3815C95.7483 37.3604 95.0022 37.364 94.256 37.3815C90.997 37.4658 88.9101 39.3035 88.4314 42.5079C88.3365 43.2912 88.3012 44.0805 88.3258 44.8691V82.5916C88.3258 83.1187 88.3258 83.6457 88.3258 84.1693C88.2449 85.8558 87.6782 86.2283 86.0452 85.6766C84.0074 85.5537 84.0074 85.5537 84.0074 83.4314V44.0785C84.0074 38.2494 86.1824 35.196 91.7326 33.2178C91.796 33.1932 91.8241 33.0843 91.8698 33.014H155.6C155.821 33.2811 155.944 33.6159 155.948 33.9625C155.952 34.3091 155.837 34.6465 155.621 34.9184C155.502 36.9529 155.502 36.9529 153.355 36.9529C136.86 36.9529 120.365 36.9435 103.868 36.9247C102.646 36.9247 102.383 37.255 102.386 38.4286C102.419 68.386 102.419 98.3433 102.386 128.301C102.386 129.541 102.65 129.899 103.949 129.896C118.164 129.843 132.379 129.864 146.594 129.864C148.681 129.864 148.681 129.864 148.79 131.86C149.399 133.396 149.04 134 147.446 134.102C146.875 134.14 146.305 134.119 145.732 134.119H96.1073C95.2295 134.091 94.3509 134.14 93.4818 134.267C90.4621 134.794 88.6883 136.582 88.4314 139.629C88.2132 142.031 88.2132 144.447 88.4314 146.849C88.7834 150.3 90.9302 152.169 94.4145 152.208C96.3431 152.229 98.2859 152.208 100.207 152.208C101.862 152.208 101.967 152.088 101.967 150.384C101.967 147.492 101.967 144.601 101.967 141.709C101.967 139.618 102.245 139.337 104.311 139.337C126.033 139.337 147.758 139.337 169.484 139.337C170.241 139.337 171.227 139.13 171.557 140.061C171.782 140.611 171.885 141.203 171.858 141.796C171.832 142.389 171.676 142.97 171.403 143.497C171.174 143.908 170.699 144 170.259 144.056C169.647 144.107 169.032 144.124 168.418 144.105H128.391C126.61 144.123 126.515 144.207 126.505 145.946C126.505 147.612 126.505 149.274 126.505 150.939C126.505 151.825 126.903 152.222 127.782 152.201C128.307 152.201 128.838 152.201 129.363 152.201C148.1 152.201 166.838 152.201 185.575 152.201C186.789 152.233 187.978 151.858 188.952 151.137C189.927 150.415 190.632 149.388 190.953 148.22C191.155 147.459 191.266 146.677 191.284 145.89C191.284 141.866 191.284 137.843 191.284 133.821C191.284 132.605 191.252 132.587 190.147 133.118C189.262 133.502 188.341 133.798 187.399 134.003C186.791 134.09 186.178 134.123 185.565 134.102H155.34C154.946 134.102 154.551 134.102 154.161 134.077C152.661 133.954 152.331 133.374 152.88 131.874C153.006 129.84 153.006 129.84 155.143 129.84C165.03 129.84 174.916 129.84 184.801 129.84C185.97 129.84 187.173 129.931 188.215 129.207C188.445 128.835 188.725 128.496 189.046 128.199C190.735 126.846 191.249 125.012 191.249 122.949C191.249 96.5619 191.249 70.1721 191.249 43.7799C191.249 40.4384 190.059 38.7554 186.934 37.4799C186.582 37.3323 186.23 37.1285 185.878 36.988C177.632 36.988 169.386 36.9247 161.14 36.9704C159.855 36.9704 159.292 36.7315 159.503 35.3577C159.573 34.5738 159.589 33.7861 159.553 33L187.487 33.014Z" fill="#010101"/>
<path d="M152.922 131.895C153.003 133.785 153.003 133.785 154.893 133.785C164.212 133.785 173.532 133.785 182.851 133.785C184.47 133.785 186.086 133.715 187.704 133.68C188.704 133.494 188.606 134.284 188.637 134.822C188.725 136.227 188.672 137.615 188.672 139.01C188.672 141.715 188.753 144.424 188.644 147.126C188.556 149.319 187.968 151.343 185.899 152.59C185.463 152.608 185.023 152.639 184.586 152.639C165.544 152.639 146.5 152.651 127.455 152.675C126.244 152.675 126.015 152.323 126.065 151.23C126.156 149.178 126.156 147.112 126.065 145.057C126.012 143.947 126.255 143.609 127.473 143.613C139.059 143.669 150.641 143.648 162.227 143.648C164.902 143.648 167.58 143.62 170.255 143.648C171.029 143.648 171.311 143.493 171.336 142.65C171.388 139.695 171.423 139.695 168.432 139.695C146.886 139.695 125.341 139.687 103.797 139.671C102.741 139.671 102.389 139.839 102.411 140.992C102.498 144.537 102.41 148.086 102.463 151.634C102.463 152.439 102.28 152.671 101.457 152.65C99.0458 152.59 96.6316 152.65 94.2172 152.625C90.8772 152.625 88.4171 150.647 88.125 147.355C87.8822 144.605 87.8822 141.84 88.125 139.091C88.4242 135.732 90.9054 133.789 94.46 133.778C100.295 133.778 106.131 133.778 111.969 133.778H146.72C148.709 133.778 148.709 133.778 148.811 131.849L152.922 131.895Z" fill="white"/>
<path d="M146.932 104.271C133.896 104.271 120.86 104.278 107.823 104.292C106.768 104.292 106.338 104.165 106.345 102.914C106.402 89.0705 106.402 75.2255 106.345 61.3794C106.345 60.378 106.556 60.0688 107.623 60.0723C133.779 60.1051 159.941 60.1051 186.107 60.0723C187.219 60.0723 187.469 60.385 187.465 61.4567C187.425 75.3005 187.425 89.1454 187.465 102.992C187.465 104.025 187.205 104.299 186.163 104.295C173.087 104.26 160.01 104.252 146.932 104.271Z" fill="#010102"/>
<path d="M185.896 37.0018C189.01 36.9701 191.527 39.521 191.678 42.8977C191.678 43.1577 191.678 43.4212 191.678 43.6847V123.132C191.678 125.802 190.865 128.016 188.254 129.221C188.254 121.826 188.261 114.427 188.275 107.025C188.275 86.098 188.246 65.1707 188.313 44.2399C188.327 41.4746 187.75 39.0678 185.896 37.0018Z" fill="#406DB5"/>
<path d="M86.0664 85.6764C88.0162 85.5218 88.0162 85.5218 88.0162 83.4453C88.0162 70.1332 88.0162 56.8188 88.0162 43.5021C88.0162 39.9885 89.8041 37.55 92.9434 37.0651C94.5729 36.8156 96.2694 36.9843 97.9341 36.9562C98.3177 36.9562 98.4971 37.1038 98.4831 37.4938C98.4831 37.7995 98.4831 38.1051 98.4831 38.4108C98.4831 68.3682 98.4925 98.3244 98.5112 128.279C98.5112 129.52 98.2649 129.931 96.9592 129.861C93.9289 129.706 90.8916 129.724 88.2731 131.642C87.8156 131.178 88.0197 130.672 88.0197 130.237C88.0056 117.353 88.0056 104.477 88.0197 91.6075C88.0197 89.6188 88.0197 89.6188 86.084 89.4993C86.077 88.2203 86.0699 86.9484 86.0664 85.6764Z" fill="#F05678"/>
<path d="M118.769 161.536C115.471 160.208 112.261 160.665 108.985 161.779C106.426 162.646 106.377 162.506 106.377 159.818C106.377 154.829 106.408 149.836 106.349 144.846C106.349 143.838 106.63 143.613 107.595 143.634C111.318 143.704 115.045 143.69 118.772 143.708C119.219 144.214 119.166 144.839 119.17 145.444C119.17 150.229 119.17 155.016 119.17 159.804C119.166 160.405 119.23 161.034 118.769 161.536Z" fill="#F05678"/>
<path d="M185.899 152.587C186.717 151.711 187.352 150.681 187.766 149.557C188.181 148.433 188.367 147.237 188.313 146.041C188.197 142.338 188.289 138.631 188.275 134.924C188.275 134.442 188.489 133.82 187.704 133.676C189.007 133.237 190.319 132.816 191.632 131.86V145.071C191.668 146.033 191.61 146.995 191.46 147.945C191.208 149.239 190.517 150.406 189.505 151.252C188.492 152.097 187.219 152.568 185.899 152.587Z" fill="#C2D3DD"/>
<path d="M118.769 161.536C118.769 155.591 118.769 149.649 118.769 143.708C122.137 143.508 122.137 143.508 122.137 146.793C122.137 151.607 122.112 156.421 122.158 161.234C122.158 162.288 121.905 162.569 120.898 162.158C120.2 161.913 119.489 161.705 118.769 161.536Z" fill="#ED2548"/>
<path d="M179.135 141.582C179.135 143.652 179.135 143.652 177.093 143.652C175.193 143.652 175.193 143.652 175.193 141.814C175.193 141.333 175.217 140.852 175.193 140.374C175.168 139.896 175.404 139.671 175.897 139.703C176.389 139.734 176.769 139.703 177.206 139.703C179.135 139.706 179.135 139.706 179.135 141.582Z" fill="#0A0A0A"/>
<path d="M180.11 100.297C179.67 100.297 179.233 100.342 178.797 100.342C156.427 100.342 134.058 100.351 111.688 100.367C110.667 100.367 110.28 100.237 110.28 99.067C110.333 87.7706 110.315 76.4742 110.305 65.1779C110.305 64.4751 110.249 64.0078 111.28 64.0078C134.133 64.0453 156.985 64.0558 179.835 64.0394C179.923 64.0462 180.01 64.0579 180.096 64.0746C180.571 64.5735 180.508 65.206 180.511 65.8103C180.511 69.7878 180.529 73.7652 180.511 77.7567C180.511 79.6857 180.251 79.9176 178.287 79.9282C175.823 79.9282 173.381 79.9282 170.931 79.9282C170.452 79.9282 169.963 79.8509 169.523 80.1003C168.819 80.8593 169.133 81.7623 169.214 82.602C169.27 83.1642 169.829 83.1361 170.269 83.1431C171.54 83.1431 172.814 83.1431 174.085 83.1431C175.996 83.1677 176.326 83.6561 175.711 85.4903C174.239 89.8542 170.143 91.8746 165.733 90.4094C161.323 88.9442 158.546 84.5064 159.324 80.1671C159.754 77.9301 160.966 75.9183 162.744 74.4904C164.522 73.0624 166.75 72.3111 169.031 72.3703C170.178 72.3818 171.306 72.6711 172.318 73.2136C173.257 73.7512 173.726 73.4244 174.222 72.6408C175.242 71.0667 175.193 70.8383 173.419 70.1005C165.677 66.8855 156.649 72.2087 156.033 80.536C155.551 87.0538 159.662 92.7776 166.49 93.8879C172.944 94.9244 178.16 91.0137 179.219 84.9667C179.343 84.264 179.431 83.5823 179.592 82.9007C179.656 82.6301 179.74 82.2331 180.198 82.5493C180.55 83.094 180.518 83.7159 180.522 84.3237C180.522 89.032 180.522 93.7403 180.522 98.4486C180.525 99.0775 180.603 99.7557 180.11 100.297Z" fill="white"/>
<path d="M180.11 100.297C180.11 94.7123 180.11 89.1303 180.11 83.5506C180.11 83.1711 180.212 82.7565 179.884 82.4368C179.707 82.3062 179.582 82.1169 179.532 81.9027C179.071 80.2232 179.071 80.2197 177.308 80.2162C175.041 80.2162 172.775 80.2162 170.508 80.2162C169.903 80.2162 169.28 80.2583 168.777 79.8086C169.129 79.2745 169.65 79.5205 170.093 79.5169C173.028 79.4924 175.967 79.4572 178.892 79.5169C179.919 79.5415 180.131 79.1902 180.12 78.245C180.071 73.5191 180.092 68.7933 180.088 64.0674C183.467 63.9128 183.467 63.9128 183.467 67.2613C183.467 77.8199 183.446 88.3784 183.495 98.9334C183.495 100.103 183.214 100.515 182.056 100.339C181.408 100.285 180.759 100.271 180.11 100.297Z" fill="#C2D3DD"/>
<path d="M135.933 76.6746C135.933 82.2262 135.909 87.7742 135.954 93.3258C135.954 94.2604 135.803 94.5942 134.761 94.5696C131.991 94.4958 131.991 94.5696 131.991 91.7587C131.991 84.5768 132.013 77.3949 131.967 70.213C131.967 69.1905 132.245 68.9832 133.265 68.8673C135.314 68.6354 136.465 69.3697 137.51 71.1582C140.354 76.0175 143.437 80.7329 146.428 85.5044C146.678 85.9049 146.942 86.2985 147.245 86.7623C147.544 86.3477 147.421 85.9541 147.421 85.5957C147.421 80.4307 147.445 75.2621 147.421 70.097C147.421 69.187 147.533 68.79 148.603 68.8146C151.387 68.8813 151.387 68.8145 151.387 71.6536C151.387 78.7933 151.366 85.9295 151.412 93.0868C151.412 94.1234 151.109 94.285 150.12 94.4045C148.008 94.661 146.861 93.8563 145.798 92.0363C142.94 87.1382 139.833 82.3878 136.82 77.5776C136.62 77.2543 136.398 76.9381 136.187 76.6184L135.933 76.6746Z" fill="#010202"/>
<path d="M168.791 79.8017C172.289 79.5452 175.795 79.7596 179.297 79.6858C179.797 79.6858 179.863 79.9352 179.86 80.3393C179.86 81.042 179.881 81.7448 179.892 82.4475C179.585 87.3455 177.854 91.4038 173.057 93.4944C165.895 96.6145 157.24 91.7376 155.871 84.0568C154.273 75.0583 161.696 68.4561 169.245 68.7899C171.263 68.8815 173.227 69.4706 174.961 70.5046C175.499 70.8208 175.788 71.0527 175.277 71.6746C174.7 72.3774 174.391 73.4104 173.687 73.8883C172.846 74.4575 172.096 73.3823 171.272 73.1223C166.577 71.636 161.066 74.5699 159.855 79.2887C159.542 80.4643 159.473 81.6914 159.651 82.8947C159.83 84.098 160.253 85.2522 160.895 86.2863C161.537 87.3204 162.383 88.2128 163.383 88.9085C164.382 89.6042 165.514 90.0887 166.708 90.3321C171.082 91.2141 174.633 88.9653 175.612 84.7103C175.788 83.9513 175.784 83.5086 174.753 83.5648C173.088 83.6562 171.417 83.5367 169.752 83.6105C168.9 83.6492 168.696 83.354 168.76 82.5564C168.84 81.6499 168.788 80.7223 168.791 79.8017Z" fill="#010101"/>
<path d="M115.471 81.6007C115.471 77.7357 115.506 73.8988 115.446 70.0478C115.429 69.0359 115.746 68.8005 116.714 68.8216C119.649 68.8848 122.588 68.8673 125.512 68.8216C126.297 68.8216 126.568 69.0219 126.568 69.8476C126.607 72.7744 126.642 72.7709 123.752 72.7709C122.566 72.7709 121.384 72.8026 120.201 72.7709C119.568 72.7498 119.35 72.9782 119.36 73.6001C119.385 75.357 119.392 77.1138 119.36 78.8495C119.36 79.5171 119.638 79.6542 120.226 79.6436C121.806 79.619 123.393 79.6682 124.963 79.6225C125.667 79.6015 125.832 79.8263 125.854 80.508C125.942 83.5684 125.966 83.5403 122.971 83.5824C121.81 83.6 120.317 83.0589 119.575 83.8389C118.899 84.5417 119.385 86.0104 119.385 87.1418C119.385 88.1958 118.927 89.5381 119.568 90.1846C120.272 90.8873 121.644 90.3638 122.735 90.413C123.742 90.4586 124.752 90.413 125.762 90.413C126.114 90.413 126.526 90.3884 126.536 90.8873C126.557 91.8957 126.561 92.9006 126.536 93.9055C126.536 94.4326 126.075 94.3377 125.741 94.3377C122.573 94.3377 119.427 94.3131 116.274 94.3623C115.355 94.3623 115.454 93.8563 115.454 93.2766C115.468 89.3881 115.473 85.4962 115.471 81.6007Z" fill="#020202"/>
<defs>
<clipPath id="clip0_289_72">
<rect width="280" height="199" fill="white"/>
</clipPath>
</defs>
</svg>
