<svg width="112" height="135" viewBox="0 0 112 135" fill="none" xmlns="http://www.w3.org/2000/svg">
<path d="M75.3061 0.0141602H75.57C76.0803 0.607967 75.9571 1.33179 75.9888 2.02046C76.0522 3.37322 76.1648 3.52079 77.5339 3.53133C81.6517 3.55592 85.7694 3.53133 89.8871 3.53133C93.3468 3.53133 96.8099 3.53133 100.27 3.53133C100.84 3.4881 101.412 3.56841 101.948 3.76675C103.673 5.13707 104.412 7.00281 104.669 9.11803C104.708 9.64177 104.718 10.1673 104.697 10.6921C104.697 38.3797 104.697 66.0684 104.697 93.7583C104.697 94.5841 104.806 95.4273 104.454 96.2179C103.729 97.2298 102.635 97.149 101.589 97.1525C94.3486 97.1525 87.1103 97.1525 79.8743 97.1525C77.196 97.1525 74.5212 97.2123 71.8464 97.1279C70.4386 97.0822 69.323 97.2333 69.0625 98.8848C67.6651 99.4486 66.1029 99.4486 64.7054 98.8848C64.4063 97.2614 63.2976 97.1279 61.8898 97.1279C48.2437 97.1631 34.6012 97.1701 20.9621 97.149C18.1184 97.149 18.0093 97.0366 18.0093 94.1905C18.0093 64.9827 18.0093 35.7749 18.0093 6.56713C18.0093 3.58404 18.0973 3.49971 21.124 3.49971H67.975C68.4135 3.47686 68.8528 3.47686 69.2913 3.49971C70.4633 3.62268 71.2411 3.23267 71.4029 1.98181C71.7549 1.42314 72.3532 1.40206 72.8881 1.45828C74.1164 1.62693 74.9647 1.26151 75.3061 0.0141602Z" fill="#508DCA"/>
<path d="M103.487 0.0140469C104.295 0.267421 105.09 0.56537 105.866 0.906517C109.512 2.74416 111.405 5.74482 111.595 9.79606C111.662 11.2015 111.595 12.607 111.595 14.0124C111.595 47.0407 111.595 80.0761 111.595 113.118C111.595 118.459 108.526 122.402 103.501 123.431C102.549 123.582 101.584 123.636 100.622 123.593C81.5696 123.593 62.5212 123.586 43.4762 123.572C42.3324 123.572 42.0121 123.814 42.0438 124.977C42.1388 128.164 42.0755 131.354 42.0755 134.65C38.4962 133.708 35.0366 132.819 31.591 131.867C30.7244 131.605 29.8003 131.599 28.9303 131.85C25.7382 132.749 22.5108 133.515 19.3222 134.418C18.4881 134.654 18.3825 134.467 18.3895 133.715C18.4247 130.694 18.3684 127.668 18.4282 124.647C18.4282 123.765 18.1713 123.561 17.3302 123.593C14.9158 123.649 12.5015 123.635 10.0871 123.593C4.23778 123.526 0.0285467 119.295 0.0109494 113.424C-0.0136868 104.749 0.0109494 96.0737 0.0109494 87.3985V58.7342C0.0109494 56.626 0.0108911 56.626 2.06273 56.4925C3.61833 55.8987 4.2167 56.25 4.32228 57.8347C4.35748 58.3582 4.32228 58.8888 4.32228 59.4123V95.4237C4.32228 95.8629 4.32228 96.3021 4.32228 96.7378C4.32228 97.5389 4.57565 97.9184 5.42736 97.5038C7.45808 96.5235 9.62958 96.3302 11.8433 96.3372C13.9867 96.3372 14.0149 96.3056 14.0149 94.1096C14.0149 66.9374 14.0149 39.7733 14.0149 12.6175C14.0149 10.3863 14.0325 8.15167 14.0149 5.91698C14.0149 4.55369 13.853 4.42369 12.4945 4.38152C11.7483 4.36044 11.0022 4.36395 10.256 4.38152C6.99702 4.46585 4.91005 6.30349 4.43141 9.50794C4.33647 10.2912 4.30116 11.0805 4.32581 11.8691V49.5916C4.32581 50.1187 4.32581 50.6457 4.32581 51.1693C4.24486 52.8558 3.67823 53.2283 2.04521 52.6766C0.00744033 52.5537 0.00742653 52.5537 0.00742653 50.4314V11.0785C0.00742653 5.24939 2.18243 2.19603 7.73262 0.217845C7.79597 0.193249 7.82409 0.0843199 7.86984 0.0140469H71.6002C71.8215 0.281133 71.9443 0.615927 71.9482 0.962522C71.952 1.30912 71.8366 1.64654 71.6213 1.91845C71.5017 3.95285 71.5017 3.95286 69.3548 3.95286C52.8603 3.95286 36.3646 3.94348 19.8677 3.92474C18.6464 3.92474 18.3825 4.25502 18.386 5.42858C18.4189 35.386 18.4189 65.3433 18.386 95.3007C18.386 96.541 18.65 96.8994 19.9486 96.8959C34.1637 96.8432 48.3788 96.8643 62.5939 96.8643C64.6809 96.8643 64.681 96.8643 64.7901 98.8601C65.399 100.396 65.04 101 63.4456 101.102C62.8755 101.14 62.3053 101.119 61.7316 101.119H12.1073C11.2295 101.091 10.3509 101.14 9.48178 101.267C6.46208 101.794 4.68833 103.582 4.43141 106.629C4.21319 109.031 4.21319 111.447 4.43141 113.849C4.78335 117.3 6.93022 119.169 10.4145 119.208C12.3431 119.229 14.2859 119.208 16.2075 119.208C17.8616 119.208 17.9672 119.088 17.9672 117.384C17.9672 114.492 17.9672 111.601 17.9672 108.709C17.9672 106.618 18.2452 106.337 20.3112 106.337C42.0332 106.337 63.7577 106.337 85.4844 106.337C86.2411 106.337 87.2266 106.13 87.5574 107.061C87.7824 107.611 87.8851 108.203 87.8583 108.796C87.8316 109.389 87.6762 109.97 87.4026 110.497C87.1738 110.908 86.6987 111 86.2588 111.056C85.6467 111.107 85.032 111.124 84.418 111.105H44.3913C42.6104 111.123 42.5154 111.207 42.5049 112.946C42.5049 114.612 42.5049 116.274 42.5049 117.939C42.5049 118.825 42.9025 119.222 43.7824 119.201C44.3068 119.201 44.8382 119.201 45.3626 119.201C64.1002 119.201 82.8378 119.201 101.575 119.201C102.789 119.233 103.978 118.858 104.952 118.137C105.927 117.415 106.632 116.388 106.953 115.22C107.155 114.459 107.266 113.677 107.284 112.89C107.284 108.866 107.284 104.843 107.284 100.821C107.284 99.6049 107.252 99.5874 106.147 100.118C105.262 100.502 104.341 100.798 103.399 101.003C102.791 101.091 102.178 101.123 101.565 101.102H71.3398C70.9456 101.102 70.5514 101.102 70.1607 101.077C68.6614 100.954 68.3306 100.374 68.8797 98.8741C69.0064 96.8397 69.0063 96.8397 71.1426 96.8397C81.03 96.8397 90.9161 96.8397 100.801 96.8397C101.97 96.8397 103.173 96.931 104.215 96.2072C104.445 95.8353 104.725 95.4961 105.046 95.1988C106.735 93.8461 107.249 92.0119 107.249 89.9494C107.249 63.5619 107.249 37.1721 107.249 10.7799C107.249 7.43839 106.059 5.75536 102.934 4.4799C102.582 4.33233 102.23 4.12854 101.878 3.98799C93.632 3.98799 85.3859 3.92474 77.1398 3.97042C75.8552 3.97042 75.2921 3.73149 75.5033 2.35766C75.5727 1.57376 75.5891 0.7861 75.5525 0L103.487 0.0140469Z" fill="#010101"/>
<path d="M68.9218 98.8948C69.0027 100.785 69.0027 100.785 70.8926 100.785C80.2121 100.785 89.5316 100.785 98.8511 100.785C100.47 100.785 102.086 100.715 103.704 100.68C104.704 100.494 104.606 101.284 104.637 101.822C104.725 103.227 104.672 104.615 104.672 106.01C104.672 108.715 104.753 111.424 104.644 114.126C104.556 116.319 103.968 118.343 101.899 119.59C101.463 119.608 101.023 119.639 100.586 119.639C81.5437 119.639 62.4999 119.651 43.4549 119.675C42.2442 119.675 42.0155 119.323 42.0648 118.23C42.1563 116.178 42.1563 114.112 42.0648 112.057C42.012 110.947 42.2548 110.609 43.4725 110.613C55.0586 110.669 66.6411 110.648 78.2272 110.648C80.902 110.648 83.5803 110.62 86.2551 110.648C87.0294 110.648 87.3109 110.493 87.3355 109.65C87.3883 106.695 87.4235 106.695 84.4319 106.695C62.8858 106.695 41.3409 106.687 19.7972 106.671C18.7413 106.671 18.3894 106.839 18.4105 107.992C18.4985 111.537 18.4105 115.086 18.4633 118.634C18.4633 119.439 18.2802 119.671 17.4567 119.65C15.0458 119.59 12.6316 119.65 10.2172 119.625C6.87724 119.625 4.41712 117.647 4.125 114.355C3.88216 111.605 3.88216 108.84 4.125 106.091C4.42416 102.732 6.90537 100.789 10.46 100.778C16.2953 100.778 22.1305 100.778 27.9693 100.778H62.7204C64.7089 100.778 64.7089 100.778 64.811 98.8491L68.9218 98.8948Z" fill="white"/>
<path d="M62.9317 71.2705C49.8956 71.2705 36.8595 71.2775 23.8235 71.2916C22.7676 71.2916 22.3383 71.1651 22.3453 69.9142C22.4016 56.0705 22.4016 42.2255 22.3453 28.3794C22.3453 27.378 22.5564 27.0688 23.6228 27.0723C49.7794 27.1051 75.9407 27.1051 102.107 27.0723C103.219 27.0723 103.469 27.385 103.465 28.4567C103.425 42.3005 103.425 56.1454 103.465 69.9915C103.465 71.0245 103.205 71.2986 102.163 71.2951C89.0871 71.26 76.01 71.2518 62.9317 71.2705Z" fill="#010102"/>
<path d="M101.896 4.00176C105.01 3.97013 107.527 6.52104 107.678 9.89766C107.678 10.1577 107.678 10.4212 107.678 10.6847V90.1319C107.678 92.8022 106.865 95.0158 104.254 96.221C104.254 88.826 104.261 81.4274 104.275 74.0253C104.275 53.098 104.246 32.1707 104.313 11.2399C104.327 8.47463 103.75 6.06778 101.896 4.00176Z" fill="#406DB5"/>
<path d="M2.06641 52.6764C4.01619 52.5218 4.0162 52.5218 4.0162 50.4453C4.0162 37.1332 4.0162 23.8188 4.0162 10.5021C4.0162 6.98846 5.80408 4.54999 8.94344 4.0651C10.5729 3.81563 12.2694 3.98429 13.9341 3.95618C14.3177 3.95618 14.4971 4.10375 14.4831 4.49377C14.4831 4.79946 14.4831 5.10515 14.4831 5.41084C14.4831 35.3682 14.4925 65.3244 14.5112 95.2795C14.5112 96.5198 14.2649 96.9309 12.9592 96.8606C9.92894 96.706 6.89159 96.7236 4.27311 98.642C3.81558 98.1782 4.01972 97.6723 4.01972 97.2366C4.00564 84.3532 4.00564 71.4768 4.01972 58.6075C4.01972 56.6188 4.01972 56.6188 2.08402 56.4993C2.07698 55.2203 2.06993 53.9484 2.06641 52.6764Z" fill="#F05678"/>
<path d="M34.7688 128.536C31.4711 127.208 28.2613 127.665 24.9847 128.779C22.4261 129.646 22.3768 129.506 22.3768 126.818C22.3768 121.829 22.4085 116.836 22.3486 111.846C22.3486 110.838 22.6302 110.613 23.5945 110.634C27.3181 110.704 31.0452 110.69 34.7723 110.708C35.2193 111.214 35.1665 111.839 35.17 112.444C35.17 117.229 35.17 122.016 35.17 126.804C35.1665 127.405 35.2299 128.034 34.7688 128.536Z" fill="#F05678"/>
<path d="M101.899 119.587C102.717 118.711 103.352 117.681 103.766 116.557C104.181 115.433 104.367 114.237 104.313 113.041C104.197 109.338 104.289 105.631 104.275 101.924C104.275 101.442 104.489 100.82 103.704 100.676C105.007 100.237 106.319 99.8156 107.632 98.8599V112.071C107.668 113.033 107.61 113.995 107.46 114.945C107.208 116.239 106.517 117.406 105.505 118.252C104.492 119.097 103.219 119.568 101.899 119.587Z" fill="#C2D3DD"/>
<path d="M34.769 128.536C34.769 122.591 34.769 116.649 34.769 110.708C38.1372 110.508 38.1371 110.508 38.1371 113.793C38.1371 118.607 38.1125 123.421 38.1582 128.234C38.1582 129.288 37.9049 129.569 36.8983 129.158C36.2003 128.913 35.4895 128.705 34.769 128.536Z" fill="#ED2548"/>
<path d="M95.1345 108.582C95.1345 110.652 95.1345 110.652 93.0932 110.652C91.1927 110.652 91.1927 110.652 91.1927 108.814C91.1927 108.333 91.2173 107.852 91.1927 107.374C91.168 106.896 91.4038 106.671 91.8966 106.703C92.3893 106.734 92.7695 106.703 93.2059 106.703C95.1345 106.706 95.1345 106.706 95.1345 108.582Z" fill="#0A0A0A"/>
<path d="M96.1099 67.2968C95.6699 67.2968 95.2335 67.3425 94.797 67.3425C72.4274 67.3425 50.0577 67.3507 27.6881 67.3671C26.6674 67.3671 26.2803 67.2371 26.2803 66.067C26.3331 54.7706 26.3155 43.4742 26.3049 32.1779C26.3049 31.4751 26.2486 31.0078 27.2798 31.0078C50.1328 31.0453 72.9847 31.0558 95.8353 31.0394C95.9228 31.0462 96.0097 31.0579 96.0958 31.0746C96.5709 31.5735 96.5075 32.206 96.5111 32.8103C96.5111 36.7878 96.5287 40.7652 96.5111 44.7567C96.5111 46.6857 96.2506 46.9176 94.2867 46.9282C91.8231 46.9282 89.3806 46.9282 86.9311 46.9282C86.4525 46.9282 85.9633 46.8509 85.5233 47.1003C84.8194 47.8593 85.1326 48.7623 85.2136 49.602C85.2699 50.1642 85.8295 50.1361 86.2694 50.1431C87.5399 50.1431 88.814 50.1431 90.0845 50.1431C91.9956 50.1677 92.3265 50.6561 91.7106 52.4903C90.2394 56.8542 86.1427 58.8746 81.7329 57.4094C77.323 55.9442 74.5461 51.5064 75.3239 47.1671C75.7543 44.9301 76.9663 42.9183 78.7441 41.4904C80.5218 40.0624 82.7496 39.3111 85.0305 39.3703C86.1785 39.3818 87.3065 39.6711 88.3177 40.2136C89.2574 40.7512 89.7255 40.4244 90.2217 39.6408C91.2424 38.0667 91.1932 37.8383 89.4194 37.1005C81.6766 33.8855 72.6491 39.2087 72.0332 47.536C71.551 54.0538 75.6618 59.7776 82.4895 60.8879C88.9442 61.9244 94.1601 58.0137 95.2194 51.9667C95.3426 51.264 95.4305 50.5823 95.5924 49.9007C95.6558 49.6302 95.7403 49.2331 96.1979 49.5493C96.5498 50.094 96.5181 50.7159 96.5216 51.3237C96.5216 56.032 96.5216 60.7403 96.5216 65.4486C96.5251 66.0775 96.6026 66.7557 96.1099 67.2968Z" fill="white"/>
<path d="M96.1096 67.2967C96.1096 61.7123 96.1096 56.1303 96.1096 50.5506C96.1096 50.1711 96.2116 49.7565 95.8843 49.4368C95.7071 49.3062 95.5823 49.1169 95.5323 48.9027C95.0713 47.2232 95.0713 47.2197 93.308 47.2162C91.0415 47.2162 88.775 47.2162 86.5085 47.2162C85.9031 47.2162 85.2801 47.2583 84.7769 46.8086C85.1288 46.2745 85.6497 46.5205 86.0931 46.5169C89.0284 46.4924 91.9671 46.4572 94.8918 46.5169C95.9195 46.5415 96.1306 46.1902 96.1201 45.245C96.0708 40.5191 96.092 35.7933 96.0884 31.0674C99.4671 30.9128 99.4671 30.9128 99.4671 34.2613C99.4671 44.8199 99.446 55.3784 99.4952 65.9334C99.4952 67.1034 99.2137 67.5145 98.0558 67.3388C97.4085 67.2852 96.7586 67.2711 96.1096 67.2967Z" fill="#C2D3DD"/>
<path d="M51.9332 43.6746C51.9332 49.2262 51.9085 54.7742 51.9543 60.3258C51.9543 61.2604 51.803 61.5942 50.7612 61.5696C47.9914 61.4958 47.9914 61.5696 47.9914 58.7587C47.9914 51.5768 48.0125 44.3949 47.9668 37.213C47.9668 36.1905 48.2448 35.9832 49.2655 35.8673C51.3138 35.6354 52.4647 36.3697 53.5099 38.1582C56.3537 43.0175 59.4367 47.7329 62.4282 52.5044C62.6781 52.9049 62.9421 53.2985 63.2447 53.7623C63.5439 53.3477 63.4207 52.9541 63.4207 52.5957C63.4207 47.4307 63.4453 42.2621 63.4207 37.097C63.4207 36.187 63.5334 35.79 64.6033 35.8146C67.3872 35.8813 67.3871 35.8145 67.3871 38.6536C67.3871 45.7933 67.366 52.9295 67.4118 60.0868C67.4118 61.1234 67.1091 61.285 66.1201 61.4045C64.0084 61.661 62.8612 60.8563 61.7983 59.0363C58.9405 54.1382 55.8328 49.3878 52.8201 44.5776C52.6195 44.2543 52.3978 43.9381 52.1866 43.6184L51.9332 43.6746Z" fill="#010202"/>
<path d="M84.7912 46.8017C88.2895 46.5452 91.7949 46.7596 95.2968 46.6858C95.7965 46.6858 95.8633 46.9352 95.8598 47.3393C95.8598 48.042 95.881 48.7448 95.8915 49.4475C95.5853 54.3455 93.8538 58.4038 89.0568 60.4944C81.8947 63.6145 73.2403 58.7376 71.8712 51.0568C70.2734 42.0583 77.6959 35.4561 85.2452 35.7899C87.263 35.8815 89.2266 36.4706 90.9608 37.5046C91.4992 37.8208 91.7878 38.0527 91.2775 38.6746C90.7003 39.3774 90.3907 40.4104 89.6868 40.8883C88.8456 41.4575 88.0959 40.3823 87.2724 40.1223C82.5774 38.636 77.066 41.5699 75.8553 46.2887C75.542 47.4643 75.4725 48.6914 75.6513 49.8947C75.8301 51.098 76.2534 52.2522 76.8951 53.2863C77.5367 54.3204 78.3833 55.2128 79.3828 55.9085C80.3824 56.6042 81.5138 57.0887 82.7077 57.3321C87.0823 58.2141 90.6335 55.9653 91.6119 51.7103C91.7879 50.9513 91.7843 50.5086 90.7531 50.5648C89.0884 50.6562 87.4167 50.5367 85.752 50.6105C84.9003 50.6492 84.6962 50.354 84.7595 49.5564C84.8405 48.6499 84.7876 47.7223 84.7912 46.8017Z" fill="#010101"/>
<path d="M31.4711 48.6007C31.4711 44.7357 31.5063 40.8988 31.4465 37.0478C31.4289 36.0359 31.7457 35.8005 32.7135 35.8216C35.6488 35.8848 38.5875 35.8673 41.5122 35.8216C42.297 35.8216 42.568 36.0219 42.568 36.8476C42.6067 39.7744 42.6419 39.7709 39.7524 39.7709C38.5664 39.7709 37.3838 39.8026 36.2013 39.7709C35.5678 39.7498 35.3496 39.9782 35.3602 40.6001C35.3848 42.357 35.3918 44.1138 35.3602 45.8495C35.3602 46.5171 35.6382 46.6542 36.2259 46.6436C37.8062 46.619 39.3934 46.6682 40.9631 46.6225C41.667 46.6015 41.8324 46.8263 41.8535 47.508C41.9415 50.5684 41.9662 50.5403 38.9711 50.5824C37.8097 50.6 36.3175 50.0589 35.5749 50.8389C34.8992 51.5417 35.3848 53.0104 35.3848 54.1418C35.3848 55.1958 34.9273 56.5381 35.5678 57.1846C36.2717 57.8873 37.6443 57.3638 38.7354 57.413C39.7419 57.4586 40.752 57.413 41.762 57.413C42.114 57.413 42.5257 57.3884 42.5363 57.8873C42.5574 58.8957 42.5609 59.9006 42.5363 60.9055C42.5363 61.4326 42.0752 61.3377 41.7409 61.3377C38.5734 61.3377 35.427 61.3131 32.2736 61.3623C31.355 61.3623 31.4535 60.8563 31.4535 60.2766C31.4676 56.3881 31.4735 52.4962 31.4711 48.6007Z" fill="#020202"/>
</svg>
