<svg width="280" height="199" viewBox="0 0 280 199" fill="none" xmlns="http://www.w3.org/2000/svg">
<g clip-path="url(#clip0_289_75)">
<path d="M280 118.532C280 113.705 278.73 111.254 277.495 108.881C276.26 106.509 275.096 104.267 275.096 99.6546C275.009 96.54 275.538 93.4283 276.676 90.3563C277.843 87.1904 278.388 83.984 278.303 80.7747C278.303 75.9482 277.015 73.4938 275.775 71.1216C274.534 68.7494 273.351 66.5095 273.351 61.8974C273.351 57.2854 274.522 55.0402 275.693 52.668C276.863 50.2958 278.162 47.8441 278.162 43.0202C278.241 39.8179 277.746 36.618 276.682 33.4519C275.658 30.3703 275.19 27.2562 275.283 24.1403C275.23 21.0185 275.577 17.8979 276.325 14.7944C277.089 11.6293 277.445 8.44684 277.39 5.26308C277.422 4.95913 277.315 4.65545 277.075 4.37112C276.836 4.0868 276.468 3.828 275.997 3.61099C274.241 2.85114 271.566 2.88556 268.974 2.91998C268.441 2.91998 267.903 2.91998 267.364 2.91998C256.899 2.91998 251.813 2.39046 246.429 1.86094C241.044 1.33143 235.519 0.754256 224.598 0.754256C217.348 0.718012 210.104 0.958024 202.943 1.47175C195.977 1.97595 188.928 2.20979 181.873 2.17071C171.409 2.17071 166.323 1.64119 160.938 1.11168C155.554 0.582163 150.023 -0.000303932 139.108 -0.000303932C131.86 -0.0361689 124.617 0.195823 117.453 0.69336C110.483 1.18251 103.435 1.40922 96.3828 1.37114C85.725 1.37114 80.3053 1.29436 75.0671 1.22288C69.8289 1.15139 64.3391 1.07461 53.6228 1.07461C42.9065 1.07461 37.5453 0.995185 32.3013 0.921052C27.0573 0.84692 21.5791 0.767494 10.8569 0.767494C6.37958 0.767494 3.36547 2.57314 3.36547 5.26838C3.36547 9.98901 3.36547 12.348 3.36547 14.707C3.36547 17.066 3.36547 19.4276 3.36547 24.1483C3.4308 27.2675 3.01818 30.3849 2.13056 33.4783C1.22293 36.6446 0.800509 39.8355 0.86635 43.0282C0.86635 47.77 1.12386 50.1766 1.36968 52.5118C1.61549 54.8469 1.873 57.2086 1.873 61.908C1.873 66.6075 1.6506 68.9956 1.43405 71.3069C1.2175 73.6183 0.989234 76.0461 0.989234 80.7853C0.875711 84.0274 1.6483 87.2634 3.28939 90.4198C4.45993 92.8026 5.50173 95.0425 5.50173 99.6625C5.50173 104.283 4.21998 106.501 2.86801 108.871C1.51603 111.24 0.0996094 113.705 0.0996094 118.542C0.0996094 123.274 0.240129 125.691 0.374742 128.008C0.509354 130.324 0.649802 132.715 0.649802 137.422C0.558761 140.638 1.15661 143.851 2.43491 147.014C3.67462 150.077 4.25088 153.187 4.15558 156.3C4.15558 161.049 4.51256 163.464 4.85202 165.799C5.19147 168.134 5.53681 170.488 5.53681 175.177C5.53681 179.799 4.47748 182.045 3.35961 184.425C2.24175 186.805 1.08876 189.238 1.08876 194.057C1.08876 196.439 6.13382 198.028 10.8394 198.028C21.5557 198.028 27.0046 197.962 32.2779 197.901C37.5512 197.84 42.9416 197.776 53.6052 197.776C60.6712 197.743 67.7332 197.944 74.7336 198.38C81.9089 198.825 89.1466 199.032 96.3887 199C103.637 199.036 110.88 198.803 118.044 198.303C125.014 197.817 132.061 197.591 139.114 197.628C146.358 197.662 153.598 197.443 160.769 196.974C167.758 196.515 174.817 196.302 181.879 196.339C192.356 196.339 197.448 196.826 202.838 197.342C208.228 197.859 213.736 198.401 224.645 198.401C235.408 198.401 240.886 198.216 246.177 198.039C251.468 197.861 256.794 197.684 267.405 197.684C268.611 197.684 270.331 197.618 271.578 197.059C272.977 196.418 272.959 195.523 272.942 194.488C272.942 194.351 272.942 194.223 272.942 194.062C272.846 190.948 273.434 187.838 274.698 184.777C275.995 181.613 276.603 178.399 276.512 175.182C276.579 171.987 276.145 168.794 275.213 165.627C274.299 162.536 273.877 159.42 273.948 156.302C273.948 151.579 273.908 149.178 273.872 146.856C273.837 144.534 273.79 142.138 273.79 137.422C273.79 132.839 275.277 130.61 276.851 128.251C278.426 125.892 280 123.39 280 118.532Z" fill="white"/>
</g>
<path d="M207.87 83.005C207.803 83.0471 207.69 83.0717 207.673 83.1315C206.216 87.3022 203.784 89.0836 199.49 89.1047C197.231 89.1047 197.209 89.1047 196.611 91.248C195.369 95.6996 192.821 99.678 189.294 102.671C188.749 103.145 188.488 103.353 189.192 104.003C194.162 108.57 196.625 114.262 196.625 121.012C196.625 133.324 196.625 145.635 196.625 157.944C196.625 159.968 195.995 160.555 193.926 160.555H90.32C88.2471 160.555 87.61 159.898 87.61 157.782C87.61 154.269 88.6659 151.166 91.1858 148.538C89.5844 147.484 88.0183 146.479 86.6774 145.144C85.5054 143.967 85.4139 143.408 86.2374 141.925C87.1384 140.815 88.0851 140.762 89.3591 141.83C91.0062 143.215 92.7132 144.501 94.7123 145.344C97.3982 146.562 100.37 147.012 103.296 146.644C111.771 145.769 118.609 138.521 118.518 129.101C118.497 126.873 118.599 124.642 118.25 122.425C117.42 117.154 114.664 113.205 110.208 110.355C109.533 109.927 109.036 109.863 108.371 110.471C107.45 111.3 106.297 111.828 105.067 111.982C102.216 112.031 99.3685 111.982 96.5213 112.01C95.3761 112.021 94.2432 111.775 93.206 111.29C92.2627 110.854 91.5412 111.083 90.8057 111.701C86.7125 115.151 84.6185 119.568 84.4706 124.884C84.3686 128.644 84.3193 132.403 85.5863 136.047C86.0227 137.298 85.516 138.099 84.3229 138.647C82.4364 138.883 81.9788 138.612 81.3559 136.89C80.8633 135.676 80.5503 134.396 80.4268 133.092C80.3705 132.091 79.9059 131.838 78.9908 131.687C76.0204 131.24 74.0636 129.533 73.2717 126.627C72.5326 123.883 73.3175 121.522 75.4292 119.642C76.081 119.052 76.8451 118.6 77.676 118.312C78.5069 118.024 79.3874 117.906 80.2649 117.966C80.9442 118.001 81.3594 117.881 81.6375 117.14C82.9106 113.717 85.1022 110.71 87.9725 108.447C88.6553 107.906 88.6095 107.572 88.1344 106.905C86.5893 104.733 85.8081 102.291 86.1706 99.6175C86.2728 98.7346 86.5936 97.8909 87.104 97.1627C87.6144 96.4344 88.2983 95.8445 89.0941 95.446C89.8899 95.0475 90.7725 94.8531 91.6624 94.8802C92.5523 94.9073 93.4215 95.1552 94.1914 95.6014C94.7651 95.9212 95.1451 96.0582 95.7821 95.6365C96.3998 95.2106 97.1129 94.943 97.8587 94.8572C98.6044 94.7714 99.3598 94.8701 100.058 95.1446C100.826 95.4363 100.994 95.1833 101.269 94.5614C101.87 93.0844 102.983 91.8723 104.405 91.1461C105.091 90.7947 105.172 90.3696 105.183 89.7125C105.239 86.6521 104.993 83.5847 105.404 80.5243C105.57 79.2981 104.373 77.5869 103.268 77.1161C101.04 76.1674 99.7838 74.4317 99.7099 72.0494C99.644 70.9888 99.9008 69.933 100.447 69.0207C100.992 68.1084 101.802 67.382 102.768 66.937C104.011 66.3116 105.33 65.8338 106.64 65.3243C106.928 65.2525 107.182 65.0821 107.358 64.8426C107.533 64.6032 107.619 64.3098 107.601 64.0137C107.633 62.7066 108.173 61.4633 109.106 60.5457C110.039 59.6281 111.292 59.1078 112.602 59.0946C113.327 59.063 113.584 58.7432 113.805 58.1916C114.266 57.0145 114.731 55.8374 115.241 54.6779C115.682 53.6201 116.433 52.7204 117.397 52.0975C118.36 51.4747 119.489 51.1578 120.637 51.1889C122.984 51.2908 124.895 52.7489 125.736 55.075C126.088 56.0131 127.422 56.7229 128.552 56.5437C134.256 55.6117 140.11 56.4955 145.283 59.07C147.069 59.9725 148.765 61.0419 150.348 62.2639V58.2337C150.348 56.0412 150.439 53.8452 150.348 51.6597C150.052 45.6268 155.719 41.8215 161.184 44.2494C161.867 40.4968 163.951 38.0197 167.738 37.1378C168.296 37.03 168.865 36.9852 169.434 37.0043C178.04 37.0043 186.643 37.0043 195.242 37.0043C199.515 37.0043 203.143 39.8573 203.921 43.7961C204.363 45.8244 204.062 47.9438 203.071 49.7687C202.08 51.5936 200.466 53.0028 198.522 53.7398C197.766 54.0349 197.561 54.3828 197.565 55.1452C197.597 60.8409 197.607 66.5365 197.565 72.2321C197.565 73.2511 197.794 73.6165 198.853 73.5251C201.778 73.2651 204.294 74.1014 206.226 76.4274C207.011 77.3726 207.314 78.5532 207.902 79.5897L207.87 83.005Z" fill="#010101"/>
<path d="M84.3296 138.658C85.5122 137.804 85.4734 136.75 85.125 135.425C83.5694 129.526 83.3652 123.619 85.681 117.857C86.8073 115.046 88.7747 112.818 91.1855 110.981C91.4015 110.774 91.6802 110.645 91.9777 110.614C92.2753 110.583 92.5748 110.651 92.8291 110.809C94.2584 111.48 95.8254 111.807 97.4044 111.764C99.9876 111.74 102.571 111.733 105.147 111.719C104.897 112.467 104.236 112.263 103.718 112.277C102.011 112.316 100.297 112.316 98.5869 112.277C98.1279 112.248 97.6693 112.341 97.2576 112.546C96.846 112.75 96.4959 113.06 96.2429 113.444C93.7249 116.802 92.3665 120.886 92.3715 125.081C92.3715 127.541 92.185 129.976 92.5722 132.421C93.4485 138.011 96.2465 142.358 100.857 145.604C101.656 146.167 102.634 146.332 103.391 146.94C98.7242 147.607 94.5923 146.279 90.8722 143.521C90.3643 143.17 89.8926 142.77 89.4645 142.326C88.479 141.251 87.4232 141.082 86.2195 141.933C85.674 140.794 84.7731 139.86 84.3296 138.658Z" fill="#FBCBBF"/>
<path d="M171.267 108.278C174.913 108.423 178.524 108.296 181.984 106.936C182.361 106.832 182.725 106.683 183.068 106.494C184.514 105.439 185.577 105.935 186.749 107.094C190.385 110.706 192.553 114.979 192.588 120.123C192.666 131.939 192.609 143.756 192.645 155.572C192.645 156.465 192.37 156.693 191.539 156.626C190.582 156.549 189.614 156.581 188.65 156.567C188.059 155.899 188.238 155.077 188.238 154.311C188.224 144.175 188.224 134.037 188.238 123.897C188.238 123.461 188.221 123.022 188.238 122.586C188.263 121.739 187.918 121.283 187.017 121.268C186.454 121.268 185.855 121.23 185.553 120.604C185.092 119.252 184.258 118.602 183.226 118.798C182.132 119.009 181.562 119.831 181.562 121.258C181.562 132.607 181.541 143.953 181.586 155.298C181.586 156.412 181.301 156.658 180.224 156.637C175.924 156.556 171.626 156.581 167.325 156.563C166.541 156.145 166.681 155.379 166.678 154.704C166.653 151.384 166.678 148.06 166.678 144.736C166.678 136.911 166.678 129.086 166.678 121.258C166.649 117.387 167.664 113.58 169.617 110.236C170.028 109.491 170.409 108.676 171.267 108.278Z" fill="#B3E3F7"/>
<path d="M180.693 60.6685C180.974 61.8456 181.773 62.2462 182.917 62.2532C184.004 62.2532 185.447 61.7718 186.084 62.4359C186.788 63.1562 186.25 64.5968 186.299 65.7212C186.405 68.1245 186.081 70.5419 186.496 72.9347C187.112 76.4764 189.196 78.8447 192.532 80.0639C193.349 80.3625 193.57 80.6963 193.588 81.5221C193.634 85.6155 193.5 89.6597 191.561 93.4122C188.361 99.6103 183.279 103.184 176.406 104.262C176.101 104.285 175.795 104.285 175.491 104.262C172.777 103.314 170.669 101.518 168.776 99.4452C167.174 97.6542 165.882 95.6094 164.954 93.3947C164.711 92.8325 164.229 92.2457 164.757 91.5816C165.32 91.413 165.665 91.803 166.027 92.1017C170.497 95.8121 177.856 95.6926 182.188 91.8873C182.613 91.5758 182.979 91.1929 183.272 90.7559C183.448 90.4739 183.525 90.1413 183.49 89.8109C183.455 89.4805 183.31 89.1712 183.079 88.9323C182.873 88.6707 182.583 88.4884 182.257 88.4166C181.932 88.3449 181.592 88.3881 181.294 88.5388C180.747 88.8226 180.239 89.177 179.785 89.5929C176.501 92.1544 171.567 92.2598 168.283 89.6948C166.963 88.6653 165.788 87.9028 164.218 89.101C164.116 89.1783 163.968 89.101 163.848 89.0342C163.483 88.6454 163.282 88.1304 163.289 87.5972C163.039 82.4953 162.814 77.4076 163.155 72.2847C163.352 69.3262 163.81 66.4871 164.915 63.736C165.309 62.7592 165.83 62.3305 166.956 62.3481C169.532 62.3937 172.112 62.4886 174.699 62.2919C175.952 62.2321 176.487 61.4275 176.747 60.3347C178.092 59.9658 179.464 59.4844 180.693 60.6685Z" fill="#FDDCCE"/>
<path d="M122.808 87.5161C126.936 87.3405 130.301 85.6469 132.954 82.3511C134.816 84.6525 137.083 86.2723 139.923 87.0242C140.933 87.3121 141.977 87.4645 143.027 87.4775C145.568 87.4775 148.113 87.4775 150.657 87.4775C151.228 87.4775 151.537 87.5478 151.52 88.2435C151.368 93.4472 151.826 98.665 151.249 103.855C150.383 111.665 142.661 119.076 135.217 119.315C134.084 119.613 133.085 119.315 132.113 118.703C128.44 116.418 125.586 113.031 123.959 109.027C123.726 108.457 122.987 107.744 123.899 107.077C124.48 107.119 124.803 107.572 125.205 107.895C129.871 111.68 136.819 111.525 141.123 107.544C142.211 106.539 142.39 105.755 141.718 104.965C141.046 104.174 140.148 104.16 139.054 105.046C137.259 106.497 135.295 107.33 132.919 107.316C130.845 107.324 128.831 106.624 127.211 105.33C125.606 104.087 125.356 104.094 123.748 105.404C123.505 105.601 123.276 105.826 122.956 105.527C122.146 103.805 122.252 101.929 122.188 100.127C122.034 96.5076 122.129 92.8815 122.15 89.2589C122.153 88.6019 122.076 87.8956 122.808 87.5161Z" fill="#FDDCCE"/>
<path d="M131.244 123.517C134.764 123.609 138.23 123.198 141.5 121.792C142.024 121.567 142.338 121.792 142.69 122.021C148 125.562 150.957 130.555 151.193 136.89C151.428 143.141 151.238 149.41 151.267 155.671C151.267 156.391 151.108 156.693 150.334 156.63C149.419 156.556 148.497 156.588 147.578 156.57C147.036 155.991 147.163 155.263 147.163 154.578C147.163 149.901 147.138 145.225 147.163 140.552C147.163 139.287 147.283 138.053 145.565 137.825C145.41 137.804 145.319 137.593 145.234 137.435C144.847 136.3 144.08 135.633 142.859 135.893C141.637 136.153 141.254 137.091 141.254 138.264C141.254 143.949 141.254 149.634 141.278 155.32C141.278 156.268 141.145 156.665 140.036 156.644C135.264 156.56 130.491 156.584 125.715 156.57C125.23 156.078 125.296 155.439 125.296 154.838C125.296 148.928 125.233 143.015 125.321 137.105C125.353 134.93 125.571 132.727 126.729 130.78C127.651 130.124 128.417 129.272 128.972 128.287C129.526 127.301 129.857 126.205 129.939 125.078C130.203 124.403 130.491 123.77 131.244 123.517Z" fill="#DA92BF"/>
<path d="M103.391 146.936C102.335 147.045 101.519 146.511 100.748 145.966C94.9972 141.911 92.0197 136.381 91.9986 129.318C91.9986 126.096 91.8226 122.864 92.7553 119.705C93.5023 117.24 94.6717 114.923 96.2114 112.857C96.4355 112.534 96.7417 112.276 97.0987 112.111C97.4556 111.945 97.8504 111.878 98.2422 111.915C100.125 111.985 102.015 111.943 103.898 111.933C104.324 111.933 104.785 112.059 105.151 111.708C106.319 111.437 107.474 111.037 108.248 110.123C108.952 109.28 109.504 109.54 110.236 109.993C115.537 113.261 118.451 118.011 118.768 124.188C118.965 128.011 119.12 131.873 117.807 135.601C115.611 141.788 109.473 146.644 103.391 146.936Z" fill="#FDDCCE"/>
<path d="M180.692 60.6683C179.418 59.9937 178.042 60.5172 176.73 60.3169C176.311 58.6725 175.857 58.2966 174.217 58.286L163.373 58.2439C163.199 58.0443 163.072 57.8079 163.001 57.5523C162.931 57.2967 162.92 57.0287 162.969 56.7681C163.106 55.1835 162.55 53.5356 163.373 52.0071C164.732 51.6558 165.239 50.7703 165.21 49.4176C165.179 47.7275 165.242 46.0375 165.263 44.3474C165.967 43.0649 167.209 42.8049 168.494 42.696C169.673 42.6222 170.855 42.6152 172.035 42.6749C172.981 42.6995 173.794 42.6152 174.005 41.4697C174.044 41.2589 174.27 41.1184 174.438 40.9883C181.456 40.9883 188.474 40.9181 195.488 40.9708C198.16 40.9883 200.064 43.1282 200.035 45.7529C200.007 48.3776 198.029 50.303 195.284 50.3522C191.951 50.412 188.618 50.3522 185.285 50.3698C183.61 50.3698 182.727 51.0725 182.723 52.3339C182.72 53.5953 183.663 54.3262 185.271 54.3297C187.686 54.3297 190.096 54.3297 192.511 54.3297C193.106 54.3297 193.496 54.3753 193.493 55.1484C193.465 62.0246 193.468 68.8973 193.458 75.7735C193.458 75.8402 193.373 75.9105 193.278 76.0581C191.138 75.004 190.311 73.2191 190.29 70.9738C190.258 67.6464 190.29 64.3155 190.29 60.988C190.29 58.8798 189.688 58.2931 187.541 58.2896C186.049 58.2896 184.557 58.2896 183.065 58.2896C181.329 58.3247 180.721 58.9255 180.692 60.6683Z" fill="#AB8180"/>
<path d="M171.267 108.279C169.451 111.037 167.92 113.918 167.441 117.238C167.223 118.398 167.091 119.573 167.044 120.752C167.06 132.143 167.06 143.535 167.044 154.926C167.044 155.488 166.945 156.071 167.297 156.581C163.531 156.581 159.762 156.581 155.996 156.648C155.06 156.648 155.19 156.138 155.19 155.572C155.19 148.351 155.19 141.131 155.19 133.914V120.914C155.19 120.608 155.19 120.299 155.19 119.993C155.278 116.975 155.278 116.975 158.231 116.898C159.963 116.852 160.695 116.125 160.695 114.399C160.695 112.432 160.695 110.464 160.695 108.493C160.695 106.708 162.528 105.478 164.091 106.23C166.389 107.309 168.821 107.822 171.267 108.279Z" fill="#92D8F7"/>
<path d="M128.07 66.4063L129.91 64.6108C131.327 63.1469 132.982 61.9338 134.806 61.0234C135.422 60.7107 136.055 60.412 136.787 60.6123C142.697 61.4485 147.465 64.3297 151.259 68.8378C155.008 73.2895 156.746 78.5038 156.771 84.2978C156.771 85.9633 156.771 87.6252 156.771 89.2907C156.771 89.7229 156.855 90.141 156.155 90.1656C155.374 90.1972 155.451 89.7369 155.451 89.245C155.451 88.2401 155.451 87.2317 155.451 86.2268C155.451 84.1854 154.814 83.5389 152.815 83.5389C149.612 83.5389 146.413 83.5775 143.21 83.5213C141.847 83.5274 140.502 83.2105 139.285 82.5967C138.068 81.9828 137.014 81.0895 136.21 79.9901C135.334 78.8481 134.802 77.6289 134.897 76.1251C134.996 74.688 134.933 73.2368 134.897 71.7927C134.897 70.4716 134.12 69.6248 132.979 69.5967C131.786 69.5686 130.977 70.44 130.952 71.8244C130.952 73.0471 130.952 74.2839 130.952 75.4996C130.952 79.3822 128.541 82.3829 124.723 83.2683C123.657 83.5243 122.555 83.5991 121.464 83.4897C121.031 83.0153 121.084 82.418 121.136 81.8664C121.692 75.9283 123.762 70.6613 128.07 66.4063Z" fill="#F7EE65"/>
<path d="M123.822 107.196C124.103 109.571 125.437 111.462 126.757 113.324C128.233 115.322 130.073 117.026 132.18 118.345C133.127 118.97 134.077 119.399 135.218 119.304C131.307 120.007 127.661 119.125 124.219 117.333C122.072 116.219 120.415 114.557 118.803 112.695C115.245 108.595 114.27 103.879 114.393 98.7036C114.47 95.334 114.428 91.9609 114.393 88.5878C114.393 87.7902 114.516 87.4283 115.449 87.4599C117.912 87.5372 120.376 87.5056 122.815 87.5161C122.491 87.9834 122.555 88.514 122.555 89.034C122.555 92.6917 122.442 96.3565 122.604 100.007C122.685 101.873 122.576 103.812 123.308 105.629C123.73 106.065 124.075 106.536 123.822 107.196Z" fill="#FBCBBF"/>
<path d="M126.743 130.773C124.776 139.308 126.074 147.972 125.719 156.57C122.477 156.57 119.232 156.595 115.991 156.619C115.498 156.619 115.206 156.57 115.153 155.938C114.921 153.095 113.724 150.667 111.718 148.524C114.073 147.045 116.248 145.397 117.986 143.215C120.462 140.196 122.036 136.544 122.53 132.674C122.604 132.077 122.794 131.824 123.389 131.792C124.563 131.676 125.703 131.33 126.743 130.773Z" fill="#D377B0"/>
<path d="M174.681 62.2813C174.22 62.6608 173.671 62.4781 173.161 62.4851C171.493 62.5097 169.824 62.4851 168.16 62.4851C165.728 62.4851 165.756 62.4851 164.908 64.8322C164.06 67.1793 163.767 69.6213 163.563 72.1231C163.284 75.6535 163.248 79.1989 163.454 82.7343C163.574 84.8214 163.134 87.028 164.109 89.0413C164.218 89.9056 164.623 90.6997 164.714 91.5676C165.967 95.9127 168.694 99.6876 172.429 102.246C173.425 102.948 174.46 103.588 175.477 104.259C171.841 104.612 168.18 103.904 164.939 102.221C164.316 101.908 164.183 101.673 164.51 100.981C166.27 97.214 165.038 93.2752 161.427 91.1424C160.836 90.7911 160.723 90.4186 160.723 89.8037C160.681 86.1355 161.036 82.4251 160.209 78.813C159.917 77.527 159.914 76.4238 160.667 75.2326C161.371 74.1293 161.55 72.7731 161.54 71.4484C161.518 68.6902 161.54 65.9285 161.54 63.1703C161.54 62.587 161.54 62.204 162.338 62.2146C166.435 62.2743 170.56 62.2673 174.681 62.2813Z" fill="#FBCBBF"/>
<path d="M163.373 52.0002V58.2369C162.191 58.2369 161.008 58.2369 159.826 58.2826C158.305 58.3177 157.584 59.0275 157.577 60.5559C157.577 63.9114 157.577 67.267 157.577 70.8333C156.521 69.319 155.592 67.9732 154.645 66.6416C154.422 66.2637 154.333 65.8218 154.392 65.3872C154.392 60.6192 154.392 55.8511 154.392 51.0831C154.392 49.1963 155.543 47.7733 157.207 47.5097C158.985 47.2251 160.466 48.2125 161.044 50.0958C161.403 51.2974 162.082 52.0002 163.373 52.0002Z" fill="#9D6C6C"/>
<path d="M185.535 120.604C186.134 121.002 186.813 120.889 187.453 120.843C188.361 120.784 188.678 121.093 188.664 122.028C188.615 125.267 188.647 128.507 188.647 131.746C188.647 140.017 188.647 148.291 188.647 156.567C185.479 156.739 185.479 156.739 185.479 153.7C185.502 142.667 185.521 131.635 185.535 120.604Z" fill="#92D7F7"/>
<path d="M128.07 66.4062C127.718 67.499 126.753 68.1244 126.141 69.0274C123.181 73.409 121.428 78.1629 121.488 83.4966L112.939 83.5423C111.18 83.5423 110.476 84.2451 110.444 85.9843C110.444 87.1227 110.444 88.2612 110.444 89.3996C110.444 89.8177 110.444 90.1585 109.853 90.162C109.262 90.1655 109.131 89.888 109.149 89.3609C109.177 87.3464 109.185 85.3319 109.174 83.3174C109.174 82.5409 109.346 82.2036 110.275 82.1825C112.524 82.1298 114.147 80.9633 115.136 78.95C115.446 78.3244 115.718 77.6802 115.949 77.021C116.476 75.5066 116.945 74.2768 119.049 74.073C121.361 73.8517 122.73 71.7821 122.811 69.3788C122.836 68.7499 123.012 68.4653 123.603 68.2439C125.099 67.6677 126.577 67.0176 128.07 66.4062Z" fill="#FFD066"/>
<path d="M99.2173 151.061C101.801 151.163 104.37 151.11 106.872 150.358C107.456 150.182 107.882 150.418 108.301 150.769C109.802 152.058 110.822 153.817 111.194 155.758C111.352 156.461 111.05 156.633 110.374 156.626C105.827 156.588 101.28 156.584 96.7326 156.57C95.8246 155.302 97.2464 151.275 98.7105 150.98C98.8836 150.963 99.058 150.991 99.2173 151.061Z" fill="#B6DA9E"/>
<path d="M93.2799 101.43C93.8887 102.133 94.5856 102.576 95.571 102.249C96.5565 101.922 96.9189 101.262 97.0175 100.292C97.116 99.3223 97.6932 98.8866 98.64 98.9815C99.5867 99.0763 99.8647 99.6596 99.921 100.51C100.051 102.586 100.678 103.156 102.779 103.177C103.261 103.177 103.743 103.177 104.222 103.201C104.816 103.235 105.374 103.497 105.779 103.933C106.184 104.368 106.404 104.944 106.393 105.538C106.381 106.113 106.148 106.66 105.743 107.068C105.337 107.476 104.79 107.713 104.215 107.73C101.551 107.73 98.8829 107.867 96.2186 107.66C94.2231 106.374 93.3396 104.407 92.8786 102.193C92.8328 101.894 92.7273 101.462 93.2799 101.43Z" fill="#524998"/>
<path d="M124.005 60.1449C124.216 60.1238 124.426 60.0862 124.631 60.0324C125.617 59.7127 126.282 60.1589 126.637 60.9952C127.032 61.9123 126.592 62.6396 125.74 63.0296C124.332 63.6796 122.861 64.2453 121.422 64.8532C121.017 65.0253 120.668 65.0324 120.394 64.6388C120.365 64.6067 120.335 64.5762 120.302 64.5475C119.247 63.3423 117.258 62.4393 117.17 61.0338C117.075 59.4703 118.247 57.8083 118.93 56.2272C118.997 56.028 119.106 55.8455 119.249 55.6919C119.393 55.5383 119.568 55.4172 119.762 55.3366C119.957 55.2561 120.166 55.218 120.376 55.2249C120.587 55.2319 120.793 55.2837 120.982 55.3769C121.981 55.7739 122.143 56.5574 121.914 57.5202C121.559 59.1013 122.361 60.1835 124.005 60.1449Z" fill="#DA92BF"/>
<path d="M108.406 76.5961C108.48 76.2447 108.572 75.9496 108.604 75.6474C108.78 74.0522 107.646 72.9665 106.119 73.3952C105.063 73.6938 104.243 73.5252 103.856 72.4992C103.437 71.3853 104.028 70.6896 105.081 70.2821C106.26 69.8288 107.435 69.358 108.575 68.8169C109.318 68.4655 109.832 68.5217 110.398 69.1682C111.387 70.2785 113.239 71.2764 113.313 72.3903C113.411 73.9503 112.197 75.5947 111.553 77.204C111.463 77.4281 111.327 77.6309 111.154 77.7992C110.98 77.9675 110.773 78.0975 110.546 78.1808C109.543 78.5497 108.364 77.6502 108.406 76.5961Z" fill="#DA92BF"/>
<path d="M145.238 137.435C145.347 137.507 145.465 137.565 145.589 137.607C147.56 138.032 147.56 138.028 147.56 140.161C147.56 145.633 147.56 151.103 147.56 156.57C145.202 156.7 145.199 156.7 145.202 154.339C145.219 148.708 145.23 143.073 145.238 137.435Z" fill="#D276AF"/>
<path d="M197.551 81.2975V80.1099C197.551 77.299 197.903 76.9863 200.718 77.4957C201.649 77.6777 202.483 78.1877 203.069 78.9327C203.654 79.6778 203.952 80.6081 203.907 81.554C203.833 82.502 203.412 83.3896 202.723 84.0469C202.035 84.7042 201.128 85.0851 200.176 85.1168C197.537 85.2328 197.537 85.2328 197.537 82.6081L197.551 81.2975Z" fill="#EAAC9D"/>
<path d="M155.479 97.604C155.527 96.9018 155.52 96.197 155.458 95.4958C155.264 94.252 155.831 94.0693 156.922 94.0904C159.861 94.1677 161.497 95.6013 161.293 98.0819C161.215 98.8033 160.914 99.4828 160.434 100.027C159.953 100.571 159.315 100.953 158.608 101.121C155.863 101.694 155.479 101.388 155.479 98.6406V97.604Z" fill="#EAAC9D"/>
<path d="M110.43 97.7095C110.43 98.4509 110.476 99.1993 110.43 99.9372C110.395 100.359 110.758 101.012 110.114 101.163C109.554 101.297 108.91 101.378 108.385 100.868C107.612 100.084 106.62 99.5513 105.538 99.3398C104.922 99.2239 104.753 98.869 104.655 98.3771C104.476 97.4655 104.665 96.5201 105.182 95.7477C105.699 94.9754 106.502 94.4389 107.414 94.2556C110.194 93.6794 110.444 93.8761 110.444 96.6589L110.43 97.7095Z" fill="#EAAC9D"/>
<path d="M99.2171 151.06C98.932 151.124 98.5872 151.032 98.383 151.32C97.2674 152.891 96.5072 154.578 96.7324 156.57C95.3246 156.57 93.9415 156.57 92.5513 156.626C91.8227 156.661 91.6116 156.391 91.7488 155.734C92.1136 153.75 93.1711 151.96 94.7333 150.681C94.8683 150.542 95.0347 150.438 95.2184 150.377C95.4022 150.316 95.5978 150.3 95.7891 150.33C96.9365 150.569 98.0803 150.811 99.2171 151.06Z" fill="#97D0A3"/>
<path d="M151.189 124.761C149.732 122.74 147.974 120.953 145.977 119.463C146.853 118.704 147.691 117.952 148.556 117.239C149.359 116.575 150.316 117.031 151.203 116.937C151.488 116.905 151.534 117.161 151.488 117.39C151.016 119.733 151.393 122.133 151.189 124.761Z" fill="#FEFEFE"/>
<path d="M152.093 112.927C153.427 110.513 154.455 108.187 154.972 105.657C155.113 104.979 155.757 105.306 156.19 105.243C156.778 105.18 156.778 105.594 156.774 106.009C156.774 108.061 156.774 110.113 156.774 112.165C156.774 112.709 156.619 112.952 156.035 112.938C154.793 112.906 153.543 112.927 152.093 112.927Z" fill="#F6EC64"/>
<path d="M117.737 70.3875C117.195 70.3875 116.85 70.0573 116.508 69.7199C115.083 68.2969 113.665 66.8704 112.236 65.4509C111.62 64.836 111.219 64.1684 111.982 63.427C112.746 62.6856 113.327 63.1424 113.901 63.7186C115.383 65.2084 116.87 66.6935 118.36 68.1739C118.81 68.6167 119.025 69.1051 118.768 69.6989C118.685 69.9038 118.543 70.0791 118.359 70.2019C118.175 70.3248 117.958 70.3894 117.737 70.3875Z" fill="#D276AF"/>
<path d="M93.28 101.43C92.9668 102.811 93.6144 103.957 94.269 105.05C94.8693 105.956 95.5202 106.827 96.2188 107.66C92.6571 106.933 90.204 104.224 90.1301 100.953C90.109 100.022 90.1618 99.122 91.3513 99.0061C92.5409 98.8901 92.9667 99.6315 93.0653 100.686C93.113 100.94 93.1849 101.19 93.28 101.43Z" fill="#453E81"/>
<path d="M174.438 40.9956C173.83 43.0406 173.83 42.9984 171.581 43.0546C169.948 43.0933 168.265 42.7033 166.706 43.4903C166.203 43.7363 165.742 44.063 165.263 44.3547C165.897 42.0954 167.319 40.964 169.589 40.9535C171.204 40.9429 172.823 40.9816 174.438 40.9956Z" fill="#9D6B6B"/>
<path d="M76.9951 124.891C77.0218 124.165 77.3073 123.472 77.8003 122.937C78.2933 122.402 78.9612 122.061 79.6839 121.974C80.0887 121.95 80.3878 121.974 80.3034 122.516C80.0324 124.037 80.1732 125.569 80.1662 127.083C80.1662 127.677 80.0008 127.828 79.413 127.737C78.7465 127.606 78.1441 127.254 77.7048 126.737C77.2654 126.219 77.0152 125.569 76.9951 124.891Z" fill="#E9AB9D"/>
<path d="M125.933 124.965C125.898 126.282 124.797 127.558 123.582 127.737C123.054 127.814 122.783 127.737 122.783 127.108C122.783 125.587 122.91 124.058 122.607 122.54C122.512 122.066 122.738 121.94 123.188 121.961C124.61 122.031 125.976 123.503 125.933 124.965Z" fill="#E9AB9D"/>
<path d="M136.787 60.6052C134.482 61.1639 132.715 62.6467 130.892 64.0311C130.586 64.263 130.357 64.6108 129.91 64.6003C130.41 63.4899 130.864 62.3621 130.699 61.1042C130.628 60.5596 130.804 60.3382 131.371 60.282C133.182 60.1095 135.009 60.2186 136.787 60.6052Z" fill="#FCCE65"/>
<path d="M131.244 123.517L129.953 125.07C129.953 124.944 129.914 124.814 129.903 124.687C129.787 123.187 129.787 123.187 131.244 123.517Z" fill="#CA71A7"/>
<path d="M164.714 91.5781C164.077 90.8402 163.708 90.0391 164.109 89.0518C165.334 87.6463 166.22 87.569 167.558 88.7004C171.676 92.1368 176.184 92.1403 180.372 88.6618C181.301 87.8958 182.213 87.6498 183.188 88.4404C184.222 89.2731 184.138 90.5486 183.036 91.6027C178.461 96.0299 170.743 96.3777 165.735 92.3792C165.4 92.1086 165.056 91.8451 164.714 91.5781Z" fill="#020201"/>
<path d="M168.913 76.8351C168.913 77.5765 168.944 78.3214 168.913 79.0592C168.853 80.2328 168.128 80.9496 167.03 80.9812C166.778 80.9974 166.526 80.9638 166.288 80.8825C166.049 80.8011 165.829 80.6735 165.64 80.507C165.451 80.3405 165.297 80.1384 165.186 79.9123C165.076 79.6861 165.011 79.4404 164.996 79.1892C164.917 77.6677 164.917 76.1431 164.996 74.6215C165.003 74.3579 165.065 74.0986 165.177 73.8597C165.289 73.6208 165.449 73.4075 165.647 73.2329C165.845 73.0583 166.076 72.9261 166.328 72.8447C166.579 72.7632 166.844 72.7341 167.107 72.7592C168.163 72.819 168.867 73.606 168.937 74.7515C168.937 74.8393 168.937 74.9272 168.937 75.015V76.8456L168.913 76.8351Z" fill="#030202"/>
<path d="M182.857 76.9191C182.857 77.6605 182.896 78.4054 182.857 79.1432C182.783 80.2641 182.136 80.9 181.024 80.9738C180.772 80.9999 180.519 80.9753 180.277 80.9016C180.036 80.8278 179.812 80.7063 179.619 80.5444C179.425 80.3825 179.267 80.1834 179.152 79.959C179.037 79.7346 178.968 79.4894 178.951 79.2381C178.871 77.6685 178.871 76.0959 178.951 74.5263C178.966 74.2752 179.032 74.0297 179.143 73.8041C179.254 73.5784 179.409 73.377 179.599 73.2117C179.789 73.0463 180.01 72.9202 180.249 72.8406C180.488 72.7611 180.741 72.7298 180.992 72.7484C181.498 72.7604 181.979 72.9718 182.33 73.3364C182.681 73.7011 182.873 74.1894 182.864 74.6949C182.889 75.4363 182.861 76.1777 182.857 76.9191Z" fill="#020202"/>
<path d="M123.822 107.196C123.531 106.716 123.359 106.174 123.318 105.615C124.314 103.595 125.476 103.377 127.207 104.877C128.804 106.269 130.854 107.034 132.974 107.027C135.093 107.021 137.138 106.244 138.726 104.842C139.543 104.139 140.374 103.633 141.444 104.139C142.76 104.744 142.915 106.3 141.813 107.438C137.484 111.904 129.579 112.192 124.821 108.064C124.508 107.762 124.156 107.481 123.822 107.196Z" fill="#020201"/>
<path d="M141.528 93.4929C141.528 94.1956 141.56 94.8984 141.528 95.6011C141.472 96.7185 140.863 97.379 139.74 97.4809C139.488 97.5178 139.231 97.5023 138.985 97.4353C138.739 97.3683 138.51 97.2512 138.312 97.0915C138.113 96.9318 137.95 96.7329 137.833 96.5072C137.715 96.2816 137.646 96.0341 137.628 95.7803C137.526 94.25 137.526 92.7147 137.628 91.1844C137.652 90.9338 137.726 90.6904 137.846 90.4689C137.966 90.2474 138.129 90.0521 138.326 89.8948C138.523 89.7375 138.75 89.6213 138.993 89.5531C139.236 89.4849 139.49 89.4662 139.74 89.4979C140.856 89.6209 141.475 90.2604 141.5 91.3953C141.549 92.091 141.531 92.7937 141.528 93.4929Z" fill="#030202"/>
<path d="M124.381 93.5246C124.381 92.8218 124.356 92.1191 124.381 91.4164C124.437 90.2463 125.169 89.5085 126.261 89.4698C126.77 89.4391 127.271 89.6117 127.653 89.9497C128.036 90.2878 128.267 90.7635 128.298 91.2723C128.379 92.7598 128.379 94.2506 128.298 95.7382C128.284 95.9914 128.218 96.2392 128.104 96.4659C127.99 96.6926 127.831 96.8934 127.636 97.0559C127.441 97.2184 127.214 97.3391 126.97 97.4104C126.726 97.4817 126.47 97.5021 126.218 97.4704C125.976 97.4709 125.736 97.4231 125.512 97.3299C125.288 97.2367 125.086 97.0998 124.916 96.9274C124.745 96.755 124.612 96.5505 124.522 96.3257C124.432 96.101 124.387 95.8607 124.392 95.6187C124.346 94.93 124.385 94.2273 124.381 93.5246Z" fill="#020202"/>
<path d="M101.111 134.824C98.1969 134.777 95.4134 133.611 93.3396 131.567C92.3542 130.625 92.2838 129.546 93.0545 128.675C93.8253 127.804 94.9234 127.775 95.9722 128.629C99.7098 131.672 103.205 131.672 106.963 128.629C108.019 127.775 109.075 127.797 109.874 128.689C110.673 129.581 110.578 130.632 109.578 131.584C107.291 133.763 104.549 134.824 101.111 134.824Z" fill="#020202"/>
<path d="M93.4768 121.191C93.4386 120.496 93.4444 119.799 93.4943 119.104C93.6351 117.997 94.3144 117.396 95.4547 117.41C96.5281 117.41 97.2145 117.99 97.3376 119.037C97.5136 120.469 97.5136 121.917 97.3376 123.348C97.3278 123.591 97.2683 123.829 97.163 124.048C97.0577 124.267 96.9088 124.463 96.7253 124.622C96.5417 124.782 96.3276 124.902 96.0958 124.976C95.864 125.05 95.6195 125.076 95.3773 125.053C94.2546 125.053 93.6 124.374 93.4698 123.296C93.4287 122.594 93.4287 121.89 93.4698 121.188L93.4768 121.191Z" fill="#090706"/>
<path d="M109.438 121.258C109.438 121.912 109.47 122.569 109.438 123.222C109.445 123.689 109.27 124.14 108.95 124.48C108.63 124.82 108.191 125.023 107.724 125.046C106.622 125.172 105.799 124.624 105.612 123.531C105.336 121.984 105.336 120.399 105.612 118.851C105.809 117.797 106.591 117.337 107.647 117.418C107.879 117.414 108.109 117.458 108.324 117.545C108.539 117.632 108.734 117.761 108.898 117.925C109.062 118.089 109.192 118.284 109.279 118.498C109.366 118.713 109.41 118.943 109.406 119.175C109.463 119.877 109.406 120.58 109.406 121.283L109.438 121.258Z" fill="#050403"/>
<defs>
<clipPath id="clip0_289_75">
<rect width="280" height="199" fill="white"/>
</clipPath>
</defs>
</svg>
