<svg width="135" height="124" viewBox="0 0 135 124" fill="none" xmlns="http://www.w3.org/2000/svg">
<path d="M134.87 46.005C134.803 46.0471 134.69 46.0717 134.673 46.1315C133.216 50.3022 130.784 52.0836 126.49 52.1047C124.231 52.1047 124.209 52.1047 123.611 54.248C122.369 58.6996 119.821 62.678 116.294 65.6709C115.749 66.1452 115.488 66.3525 116.192 67.0025C121.162 71.5703 123.625 77.2624 123.625 84.0121C123.625 96.3239 123.625 108.635 123.625 120.944C123.625 122.968 122.995 123.555 120.926 123.555H17.32C15.2471 123.555 14.61 122.898 14.61 120.782C14.61 117.269 15.6659 114.166 18.1858 111.538C16.5844 110.484 15.0183 109.479 13.6774 108.144C12.5054 106.967 12.4139 106.408 13.2374 104.925C14.1384 103.815 15.0851 103.762 16.3591 104.83C18.0062 106.215 19.7132 107.501 21.7123 108.344C24.3982 109.562 27.3695 110.012 30.2962 109.644C38.7711 108.769 45.6094 101.521 45.5179 92.1005C45.4968 89.8729 45.5988 87.6417 45.2504 85.4246C44.4198 80.1541 41.6641 76.2048 37.2085 73.3552C36.5327 72.9266 36.0364 72.8633 35.3712 73.4712C34.4504 74.3005 33.297 74.8278 32.0665 74.982C29.2158 75.0312 26.3685 74.982 23.5213 75.0101C22.3761 75.0207 21.2432 74.7745 20.206 74.2898C19.2627 73.8542 18.5412 74.0825 17.8057 74.7009C13.7125 78.1513 11.6185 82.568 11.4706 87.8842C11.3686 91.6438 11.3193 95.4034 12.5863 99.047C13.0227 100.298 12.516 101.099 11.3229 101.647C9.43643 101.883 8.97883 101.612 8.35589 99.8903C7.86329 98.6759 7.55034 97.3964 7.42679 96.092C7.37048 95.0907 6.90588 94.8377 5.99083 94.6866C3.0204 94.2404 1.06359 92.5327 0.271708 89.6269C-0.467378 86.8828 0.317506 84.5216 2.42918 82.6418C3.081 82.0523 3.84514 81.6 4.67601 81.3121C5.50688 81.0241 6.38742 80.9063 7.26491 80.9658C7.94417 81.0009 8.35943 80.8815 8.63746 80.1401C9.91059 76.7173 12.1022 73.71 14.9725 71.4473C15.6553 70.9062 15.6095 70.5724 15.1344 69.9048C13.5893 67.7334 12.8081 65.2914 13.1706 62.6175C13.2728 61.7346 13.5936 60.8909 14.104 60.1627C14.6144 59.4344 15.2983 58.8445 16.0941 58.446C16.8899 58.0475 17.7725 57.8531 18.6624 57.8802C19.5523 57.9073 20.4215 58.1552 21.1914 58.6014C21.7651 58.9212 22.1451 59.0582 22.7821 58.6365C23.3998 58.2106 24.1129 57.943 24.8587 57.8572C25.6044 57.7714 26.3598 57.8701 27.0583 58.1446C27.8256 58.4363 27.9945 58.1833 28.269 57.5614C28.8703 56.0844 29.9831 54.8723 31.4048 54.1461C32.0911 53.7947 32.1721 53.3696 32.1827 52.7125C32.239 49.6521 31.9926 46.5847 32.4044 43.5243C32.5698 42.2981 31.3731 40.5869 30.268 40.1161C28.0402 39.1674 26.7838 37.4317 26.7099 35.0494C26.644 33.9888 26.9008 32.933 27.4466 32.0207C27.9924 31.1084 28.8017 30.382 29.7683 29.9371C31.0107 29.3116 32.3305 28.8338 33.6397 28.3243C33.9281 28.2525 34.1822 28.0821 34.3578 27.8426C34.5333 27.6032 34.6192 27.3098 34.6005 27.0137C34.6333 25.7066 35.173 24.4633 36.1059 23.5457C37.0388 22.6281 38.2921 22.1078 39.6016 22.0946C40.3266 22.063 40.5836 21.7432 40.8054 21.1916C41.2664 20.0145 41.7309 18.8374 42.2412 17.6779C42.6819 16.6201 43.4334 15.7204 44.3966 15.0975C45.3597 14.4747 46.4894 14.1578 47.6366 14.1889C49.9841 14.2908 51.8951 15.7489 52.7363 18.075C53.0882 19.0131 54.4221 19.7229 55.5518 19.5437C61.2564 18.6117 67.11 19.4955 72.2834 22.07C74.0688 22.9725 75.7645 24.0419 77.3478 25.2639V21.2337C77.3478 19.0412 77.4393 16.8452 77.3478 14.6597C77.0522 8.62676 82.7185 4.82148 88.1842 7.24941C88.867 3.49683 90.9506 1.01971 94.7375 0.137785C95.2962 0.0300083 95.8651 -0.0147804 96.4338 0.00426432C105.04 0.00426432 113.643 0.00426432 122.242 0.00426432C126.515 0.00426432 130.143 2.85734 130.921 6.79615C131.363 8.82439 131.062 10.9438 130.071 12.7687C129.08 14.5936 127.466 16.0028 125.522 16.7398C124.765 17.0349 124.561 17.3828 124.565 18.1452C124.597 23.8409 124.607 29.5365 124.565 35.2321C124.565 36.2511 124.794 36.6165 125.853 36.5251C128.778 36.2651 131.294 37.1014 133.226 39.4274C134.011 40.3726 134.314 41.5532 134.902 42.5897L134.87 46.005Z" fill="#010101"/>
<path d="M11.3296 101.658C12.5122 100.804 12.4734 99.7499 12.125 98.4253C10.5694 92.5259 10.3652 86.6194 12.681 80.8571C13.8073 78.0461 15.7747 75.8185 18.1855 73.9808C18.4015 73.7741 18.6802 73.645 18.9777 73.6138C19.2753 73.5826 19.5748 73.6512 19.8291 73.8087C21.2584 74.4798 22.8254 74.8071 24.4044 74.7644C26.9877 74.7398 29.5709 74.7328 32.1472 74.7187C31.8973 75.4671 31.2356 75.2633 30.7183 75.2774C29.0113 75.316 27.2974 75.316 25.5869 75.2774C25.1279 75.2482 24.6693 75.3407 24.2576 75.5456C23.846 75.7505 23.4959 76.0604 23.2429 76.4439C20.7249 79.8024 19.3665 83.886 19.3715 88.0811C19.3715 90.5407 19.185 92.9756 19.5722 95.4211C20.4485 101.011 23.2465 105.358 27.857 108.604C28.6559 109.167 29.6343 109.332 30.391 109.94C25.7242 110.607 21.5923 109.279 17.8722 106.521C17.3643 106.17 16.8926 105.77 16.4645 105.326C15.479 104.251 14.4232 104.082 13.2195 104.933C12.674 103.794 11.7731 102.86 11.3296 101.658Z" fill="#FBCBBF"/>
<path d="M98.2673 71.2785C101.913 71.4225 105.524 71.2961 108.984 69.9363C109.361 69.8316 109.725 69.683 110.068 69.4936C111.514 68.4395 112.577 68.9349 113.749 70.0944C117.385 73.7064 119.553 77.979 119.588 83.123C119.666 94.9394 119.609 106.756 119.645 118.572C119.645 119.465 119.37 119.693 118.539 119.626C117.582 119.549 116.614 119.581 115.65 119.567C115.059 118.899 115.238 118.077 115.238 117.311C115.224 107.175 115.224 97.0371 115.238 86.8967C115.238 86.461 115.221 86.0218 115.238 85.5861C115.263 84.7393 114.918 84.2825 114.017 84.2685C113.454 84.2685 112.855 84.2298 112.553 83.6044C112.092 82.2516 111.258 81.6016 110.226 81.7984C109.132 82.0092 108.562 82.8314 108.562 84.2579C108.562 95.607 108.541 106.953 108.586 118.298C108.586 119.412 108.301 119.658 107.224 119.637C102.924 119.556 98.6262 119.581 94.3255 119.563C93.5406 119.145 93.6815 118.379 93.6779 117.704C93.6533 114.384 93.6779 111.06 93.6779 107.736C93.6779 99.9112 93.6779 92.0863 93.6779 84.2579C93.6495 80.3872 94.6645 76.58 96.6166 73.2356C97.0284 72.4907 97.4086 71.6755 98.2673 71.2785Z" fill="#B3E3F7"/>
<path d="M107.693 23.6685C107.974 24.8456 108.773 25.2462 109.917 25.2532C111.004 25.2532 112.447 24.7718 113.084 25.4359C113.788 26.1562 113.25 27.5968 113.299 28.7212C113.405 31.1245 113.081 33.5419 113.496 35.9347C114.112 39.4764 116.196 41.8447 119.532 43.0639C120.349 43.3625 120.57 43.6963 120.588 44.5221C120.634 48.6155 120.5 52.6597 118.561 56.4122C115.361 62.6103 110.279 66.1837 103.406 67.2624C103.101 67.2852 102.795 67.2852 102.491 67.2624C99.7774 66.3137 97.6692 64.5182 95.7757 62.4452C94.174 60.6542 92.8822 58.6094 91.9536 56.3947C91.7107 55.8325 91.2286 55.2457 91.7565 54.5816C92.3196 54.413 92.6645 54.803 93.027 55.1017C97.4967 58.8121 104.856 58.6926 109.188 54.8873C109.613 54.5758 109.979 54.1929 110.272 53.7559C110.448 53.4739 110.525 53.1413 110.49 52.8109C110.455 52.4805 110.31 52.1712 110.079 51.9323C109.873 51.6707 109.583 51.4884 109.257 51.4166C108.932 51.3449 108.592 51.3881 108.294 51.5388C107.747 51.8226 107.239 52.177 106.785 52.5929C103.501 55.1544 98.5666 55.2598 95.283 52.6948C93.9632 51.6653 92.7877 50.9028 91.218 52.101C91.116 52.1783 90.9681 52.101 90.8485 52.0342C90.4829 51.6454 90.2823 51.1304 90.2889 50.5972C90.039 45.4953 89.8138 40.4076 90.1552 35.2847C90.3523 32.3262 90.8098 29.4871 91.9149 26.736C92.3091 25.7592 92.83 25.3305 93.9562 25.3481C96.5324 25.3937 99.1122 25.4886 101.699 25.2919C102.952 25.2321 103.487 24.4275 103.747 23.3347C105.092 22.9658 106.464 22.4844 107.693 23.6685Z" fill="#FDDCCE"/>
<path d="M49.8079 50.5161C53.9362 50.3405 57.3008 48.6469 59.9545 45.3511C61.8163 47.6525 64.0828 49.2723 66.923 50.0242C67.933 50.3121 68.9769 50.4645 70.0272 50.4775C72.5683 50.4775 75.1128 50.4775 77.6574 50.4775C78.2275 50.4775 78.5372 50.5478 78.5196 51.2435C78.3683 56.4472 78.8258 61.665 78.2486 66.8546C77.3828 74.6655 69.6611 82.0757 62.2175 82.3147C61.0842 82.6133 60.0848 82.3147 59.1134 81.7033C55.4402 79.418 52.5857 76.0307 50.9587 72.0267C50.7265 71.4575 49.9874 70.7442 50.8989 70.0766C51.4796 70.1188 51.8034 70.5721 52.2046 70.8953C56.8714 74.6795 63.8188 74.5249 68.1231 70.5439C69.2107 69.539 69.3901 68.7555 68.7179 67.9649C68.0457 67.1743 67.1483 67.1603 66.0537 68.0457C64.2588 69.4969 62.2949 70.3296 59.9193 70.3156C57.8451 70.3241 55.8306 69.6236 54.2107 68.3304C52.6058 67.0865 52.356 67.0935 50.7476 68.4041C50.5048 68.6009 50.276 68.8258 49.9557 68.5271C49.1463 66.8054 49.2518 64.9291 49.1884 63.1266C49.0336 59.5076 49.1287 55.8815 49.1498 52.2589C49.1533 51.6019 49.0758 50.8956 49.8079 50.5161Z" fill="#FDDCCE"/>
<path d="M58.2443 86.5175C61.7638 86.6088 65.2305 86.1977 68.5001 84.7923C69.0245 84.5674 69.3376 84.7923 69.6896 85.0207C75.0005 88.5624 77.9569 93.5553 78.1927 99.8904C78.4285 106.141 78.2384 112.41 78.2666 118.671C78.2666 119.391 78.1081 119.693 77.3338 119.63C76.4188 119.556 75.4967 119.588 74.5782 119.57C74.0362 118.991 74.1629 118.263 74.1629 117.578C74.1629 112.901 74.1383 108.225 74.1629 103.552C74.1629 102.287 74.2825 101.053 72.565 100.825C72.4102 100.804 72.3186 100.593 72.2342 100.435C71.847 99.3001 71.0798 98.6325 69.8585 98.8926C68.6373 99.1526 68.2537 100.091 68.2537 101.264C68.2537 106.949 68.2537 112.634 68.2783 118.32C68.2783 119.268 68.1446 119.665 67.036 119.644C62.2636 119.56 57.4912 119.584 52.7153 119.57C52.2296 119.078 52.2965 118.439 52.2965 117.838C52.2965 111.928 52.2331 106.015 52.3211 100.105C52.3528 97.9298 52.571 95.7268 53.7289 93.7802C54.651 93.1238 55.4168 92.2724 55.9716 91.2867C56.5264 90.301 56.8566 89.2052 56.9386 88.0775C57.2026 87.4029 57.4911 86.7704 58.2443 86.5175Z" fill="#DA92BF"/>
<path d="M30.3911 109.936C29.3352 110.045 28.5187 109.511 27.748 108.966C21.9972 104.911 19.0197 99.3807 18.9986 92.3183C18.9986 89.0963 18.8226 85.8637 19.7553 82.7049C20.5023 80.24 21.6717 77.923 23.2114 75.8568C23.4355 75.5338 23.7417 75.2763 24.0987 75.1108C24.4556 74.9453 24.8504 74.8778 25.2422 74.9152C27.1251 74.9855 29.0149 74.9433 30.8979 74.9327C31.3237 74.9327 31.7848 75.0592 32.1508 74.7079C33.3193 74.4373 34.4737 74.0368 35.2479 73.1232C35.9518 72.2799 36.5044 72.5399 37.2364 72.9932C42.5367 76.2609 45.4508 81.0114 45.7676 87.1884C45.9647 91.0112 46.1195 94.8727 44.8068 98.6007C42.6106 104.788 36.4727 109.644 30.3911 109.936Z" fill="#FDDCCE"/>
<path d="M107.692 23.6683C106.418 22.9937 105.042 23.5172 103.73 23.3169C103.311 21.6725 102.857 21.2966 101.217 21.286L90.3732 21.2439C90.1986 21.0443 90.0716 20.8079 90.0015 20.5523C89.9314 20.2967 89.9201 20.0287 89.9685 19.7681C90.1058 18.1835 89.5497 16.5356 90.3732 15.0071C91.7317 14.6558 92.2385 13.7703 92.2104 12.4176C92.1787 10.7275 92.2421 9.03746 92.2632 7.34739C92.9671 6.06491 94.2094 5.8049 95.494 5.69597C96.6729 5.62219 97.855 5.61515 99.0346 5.67489C99.9814 5.69949 100.794 5.61516 101.005 4.46971C101.044 4.2589 101.27 4.11835 101.438 3.98835C108.456 3.98835 115.474 3.91807 122.488 3.97077C125.16 3.98834 127.064 6.12816 127.035 8.75285C127.007 11.3776 125.029 13.303 122.284 13.3522C118.951 13.412 115.618 13.3522 112.285 13.3698C110.61 13.3698 109.727 14.0725 109.723 15.3339C109.72 16.5953 110.663 17.3262 112.271 17.3297C114.686 17.3297 117.096 17.3297 119.511 17.3297C120.106 17.3297 120.496 17.3753 120.493 18.1484C120.465 25.0246 120.468 31.8973 120.458 38.7735C120.458 38.8402 120.373 38.9105 120.278 39.0581C118.138 38.004 117.311 36.2191 117.29 33.9738C117.258 30.6464 117.29 27.3155 117.29 23.988C117.29 21.8798 116.688 21.2931 114.541 21.2896C113.049 21.2896 111.557 21.2896 110.065 21.2896C108.329 21.3247 107.721 21.9255 107.692 23.6683Z" fill="#AB8180"/>
<path d="M98.2672 71.2787C96.4512 74.0369 94.9201 76.9181 94.4415 80.2385C94.2234 81.3985 94.0906 82.5728 94.0438 83.7521C94.0603 95.1434 94.0603 106.535 94.0438 117.926C94.0438 118.488 93.9453 119.071 94.2972 119.581C90.5314 119.581 86.762 119.581 82.9962 119.648C82.06 119.648 82.1902 119.138 82.1902 118.572C82.1902 111.351 82.1902 104.131 82.1902 96.9143V83.9138C82.1902 83.6081 82.1902 83.2989 82.1902 82.9932C82.2782 79.975 82.2783 79.975 85.2311 79.8977C86.9627 79.852 87.6947 79.1247 87.6947 77.3995C87.6947 75.4318 87.6947 73.4642 87.6947 71.493C87.6947 69.7081 89.5283 68.4783 91.091 69.2302C93.3892 70.3089 95.8212 70.8219 98.2672 71.2787Z" fill="#92D8F7"/>
<path d="M55.0698 29.4063L56.9104 27.6108C58.327 26.1469 59.9824 24.9338 61.806 24.0234C62.4219 23.7107 63.0553 23.412 63.7874 23.6123C69.6965 24.4485 74.4654 27.3297 78.2594 31.8378C82.0076 36.2895 83.7462 41.5038 83.7709 47.2978C83.7709 48.9633 83.7709 50.6252 83.7709 52.2907C83.7709 52.7229 83.8553 53.141 83.155 53.1656C82.3736 53.1972 82.4511 52.7369 82.4511 52.245C82.4511 51.2401 82.4511 50.2317 82.4511 49.2268C82.4511 47.1854 81.814 46.5389 79.815 46.5389C76.6123 46.5389 73.4131 46.5775 70.2104 46.5213C68.847 46.5274 67.5016 46.2105 66.2847 45.5967C65.0678 44.9828 64.0141 44.0895 63.2102 42.9901C62.3339 41.8481 61.8024 40.6289 61.8975 39.1251C61.996 37.688 61.9327 36.2368 61.8975 34.7927C61.8975 33.4716 61.1197 32.6248 59.9794 32.5967C58.7863 32.5686 57.9768 33.44 57.9522 34.8244C57.9522 36.0471 57.9522 37.2839 57.9522 38.4996C57.9522 42.3822 55.5414 45.3829 51.7227 46.2683C50.6566 46.5243 49.5548 46.5991 48.4637 46.4897C48.0308 46.0153 48.0836 45.418 48.1364 44.8664C48.6924 38.9283 50.7619 33.6613 55.0698 29.4063Z" fill="#F7EE65"/>
<path d="M50.8216 70.1961C51.1031 72.5713 52.4369 74.4617 53.7567 76.3239C55.233 78.3225 57.0729 80.0258 59.1803 81.3449C60.127 81.9703 61.0772 82.399 62.2175 82.3041C58.3074 83.0068 54.6613 82.1249 51.2192 80.333C49.0724 79.2191 47.4147 77.5572 45.8028 75.6949C42.2446 71.5945 41.2697 66.8792 41.3929 61.7036C41.4704 58.334 41.4281 54.9609 41.3929 51.5878C41.3929 50.7902 41.5161 50.4283 42.4488 50.4599C44.9124 50.5372 47.376 50.5056 49.815 50.5161C49.4912 50.9834 49.5545 51.514 49.5545 52.034C49.5545 55.6917 49.442 59.3565 49.6038 63.0072C49.6848 64.8729 49.5757 66.8124 50.3077 68.629C50.7301 69.0647 51.075 69.5355 50.8216 70.1961Z" fill="#FBCBBF"/>
<path d="M53.7429 93.7729C51.7755 102.308 53.0741 110.972 52.7187 119.57C49.4773 119.57 46.2324 119.595 42.9909 119.619C42.4982 119.619 42.206 119.57 42.1533 118.938C41.921 116.095 40.7244 113.667 38.7183 111.524C41.0728 110.045 43.2478 108.397 44.9864 106.215C47.4619 103.196 49.0364 99.5436 49.53 95.6738C49.6039 95.0765 49.794 94.8235 50.3888 94.7919C51.5632 94.6762 52.7031 94.3299 53.7429 93.7729Z" fill="#D377B0"/>
<path d="M101.681 25.2813C101.22 25.6608 100.671 25.4781 100.161 25.4851C98.4926 25.5097 96.8244 25.4851 95.1597 25.4851C92.7277 25.4851 92.7559 25.4851 91.9077 27.8322C91.0595 30.1793 90.7674 32.6213 90.5633 35.1231C90.2842 38.6535 90.2478 42.1989 90.4541 45.7343C90.5738 47.8214 90.1339 50.028 91.1088 52.0413C91.2179 52.9056 91.6226 53.6997 91.7141 54.5676C92.9669 58.9127 95.6942 62.6876 99.4287 65.2456C100.425 65.9483 101.46 66.5878 102.477 67.2589C98.8407 67.6121 95.1801 66.9042 91.9393 65.221C91.3164 64.9083 91.1827 64.6729 91.51 63.9807C93.2697 60.214 92.0379 56.2752 88.4269 54.1424C87.8356 53.7911 87.723 53.4186 87.723 52.8037C87.6808 49.1355 88.0363 45.4251 87.2092 41.813C86.9171 40.527 86.9136 39.4238 87.6667 38.2326C88.3706 37.1293 88.5501 35.7731 88.5396 34.4484C88.5184 31.6902 88.5396 28.9285 88.5396 26.1703C88.5396 25.587 88.5396 25.204 89.3385 25.2146C93.4351 25.2743 97.56 25.2673 101.681 25.2813Z" fill="#FBCBBF"/>
<path d="M90.3734 15.0002V21.2369C89.1909 21.2369 88.0084 21.2369 86.8258 21.2826C85.3054 21.3177 84.5839 22.0275 84.5769 23.5559C84.5769 26.9114 84.5769 30.267 84.5769 33.8333C83.521 32.319 82.5919 30.9732 81.6451 29.6416C81.422 29.2637 81.3328 28.8218 81.3917 28.3872C81.3917 23.6192 81.3917 18.8511 81.3917 14.0831C81.3917 12.1963 82.5426 10.7733 84.2073 10.5097C85.9846 10.2251 87.4664 11.2125 88.0436 13.0958C88.4026 14.2974 89.0818 15.0002 90.3734 15.0002Z" fill="#9D6C6C"/>
<path d="M112.535 83.6045C113.134 84.0015 113.813 83.8891 114.453 83.8434C115.361 83.7837 115.678 84.0929 115.664 85.0275C115.615 88.2671 115.647 91.5067 115.647 94.7463C115.647 103.017 115.647 111.291 115.647 119.567C112.479 119.739 112.479 119.739 112.479 116.7C112.502 105.667 112.521 94.635 112.535 83.6045Z" fill="#92D7F7"/>
<path d="M55.0696 29.4062C54.7176 30.499 53.7532 31.1244 53.1408 32.0274C50.181 36.409 48.4283 41.1629 48.4881 46.4966L39.9393 46.5423C38.1796 46.5423 37.4758 47.2451 37.4441 48.9843C37.4441 50.1227 37.4441 51.2612 37.4441 52.3996C37.4441 52.8177 37.4441 53.1585 36.8529 53.162C36.2616 53.1655 36.1314 52.888 36.149 52.3609C36.1771 50.3464 36.1853 48.3319 36.1735 46.3174C36.1735 45.5409 36.346 45.2036 37.2752 45.1825C39.5241 45.1298 41.1466 43.9633 42.1356 41.95C42.4464 41.3244 42.7178 40.6802 42.9485 40.021C43.4764 38.5066 43.9445 37.2768 46.0492 37.073C48.3614 36.8517 49.7305 34.7821 49.8114 32.3788C49.8361 31.7499 50.0121 31.4653 50.6033 31.2439C52.0991 30.6677 53.5773 30.0176 55.0696 29.4062Z" fill="#FFD066"/>
<path d="M26.2173 114.061C28.8006 114.163 31.3698 114.11 33.8721 113.358C34.4564 113.182 34.8822 113.418 35.3011 113.769C36.8021 115.058 37.8218 116.817 38.194 118.758C38.3524 119.461 38.0498 119.633 37.3741 119.626C32.8269 119.588 28.2798 119.584 23.7326 119.57C22.8246 118.302 24.2464 114.275 25.7105 113.98C25.8836 113.963 26.058 113.991 26.2173 114.061Z" fill="#B6DA9E"/>
<path d="M20.2799 64.4305C20.8887 65.1332 21.5856 65.5759 22.571 65.2492C23.5565 64.9224 23.9189 64.2618 24.0175 63.2921C24.116 62.3223 24.6932 61.8866 25.64 61.9815C26.5867 62.0763 26.8647 62.6596 26.921 63.5099C27.0512 65.5865 27.6777 66.1557 29.7789 66.1768C30.261 66.1768 30.7432 66.1767 31.2219 66.2013C31.8162 66.2349 32.3744 66.497 32.7793 66.9327C33.1842 67.3684 33.4043 67.9437 33.3934 68.5379C33.381 69.1125 33.148 69.6604 32.7426 70.0685C32.3371 70.4765 31.7903 70.7135 31.2148 70.7304C28.5506 70.7304 25.8829 70.8675 23.2186 70.6602C21.2231 69.3742 20.3396 67.4065 19.8786 65.1929C19.8328 64.8943 19.7273 64.4621 20.2799 64.4305Z" fill="#524998"/>
<path d="M51.0048 23.1449C51.2163 23.1238 51.4258 23.0862 51.6313 23.0324C52.6168 22.7127 53.2819 23.1589 53.6374 23.9952C54.0316 24.9123 53.5916 25.6396 52.7399 26.0296C51.3321 26.6796 49.861 27.2453 48.4215 27.8532C48.0168 28.0253 47.6684 28.0324 47.3939 27.6388C47.3652 27.6067 47.3346 27.5762 47.3024 27.5475C46.2465 26.3423 44.258 25.4393 44.17 24.0338C44.075 22.4703 45.2469 20.8083 45.9297 19.2272C45.9968 19.028 46.1058 18.8455 46.2494 18.6919C46.3929 18.5383 46.5678 18.4172 46.7622 18.3366C46.9565 18.2561 47.1659 18.218 47.3763 18.2249C47.5866 18.2319 47.793 18.2837 47.9816 18.3769C48.9811 18.7739 49.143 19.5574 48.9142 20.5202C48.5587 22.1013 49.3612 23.1835 51.0048 23.1449Z" fill="#DA92BF"/>
<path d="M35.4065 39.5961C35.4804 39.2447 35.5719 38.9496 35.6036 38.6474C35.7795 37.0522 34.6462 35.9665 33.1188 36.3952C32.063 36.6938 31.243 36.5252 30.8558 35.4992C30.437 34.3853 31.0283 33.6896 32.0806 33.2821C33.2596 32.8288 34.4351 32.358 35.5754 31.8169C36.318 31.4655 36.8318 31.5217 37.3984 32.1682C38.3874 33.2785 40.2386 34.2764 40.3126 35.3903C40.4111 36.9503 39.1969 38.5947 38.5528 40.204C38.463 40.4281 38.327 40.6309 38.1536 40.7992C37.9802 40.9675 37.7733 41.0975 37.5463 41.1808C36.5433 41.5497 35.3642 40.6502 35.4065 39.5961Z" fill="#DA92BF"/>
<path d="M72.2375 100.435C72.3468 100.507 72.4651 100.565 72.5895 100.607C74.5604 101.032 74.5604 101.028 74.5604 103.161C74.5604 108.633 74.5604 114.103 74.5604 119.57C72.2024 119.7 72.1989 119.7 72.2024 117.339C72.2188 111.708 72.2305 106.073 72.2375 100.435Z" fill="#D276AF"/>
<path d="M124.551 44.2975V43.1099C124.551 40.299 124.903 39.9863 127.718 40.4957C128.649 40.6777 129.483 41.1877 130.069 41.9327C130.654 42.6778 130.952 43.6081 130.907 44.554C130.833 45.502 130.412 46.3896 129.723 47.0469C129.035 47.7042 128.128 48.0851 127.176 48.1168C124.537 48.2328 124.537 48.2328 124.537 45.6081L124.551 44.2975Z" fill="#EAAC9D"/>
<path d="M82.479 60.604C82.527 59.9018 82.5199 59.197 82.4579 58.4958C82.2643 57.252 82.831 57.0693 83.922 57.0904C86.8608 57.1677 88.4973 58.6013 88.2932 61.0819C88.2147 61.8033 87.9145 62.4828 87.4337 63.027C86.9528 63.5712 86.315 63.9535 85.6078 64.1212C82.8626 64.6939 82.479 64.3882 82.479 61.6406V60.604Z" fill="#EAAC9D"/>
<path d="M37.4302 60.7095C37.4302 61.4509 37.476 62.1993 37.4302 62.9372C37.395 63.3588 37.7576 64.0123 37.1135 64.1634C36.5539 64.2969 35.9098 64.3778 35.3854 63.8683C34.6123 63.084 33.6199 62.5513 32.5382 62.3398C31.9223 62.2239 31.7534 61.869 31.6548 61.3771C31.4755 60.4655 31.6651 59.5201 32.1822 58.7477C32.6993 57.9754 33.5018 57.4389 34.414 57.2556C37.1944 56.6794 37.4443 56.8761 37.4443 59.6589L37.4302 60.7095Z" fill="#EAAC9D"/>
<path d="M26.2171 114.06C25.932 114.124 25.5872 114.032 25.383 114.32C24.2674 115.891 23.5072 117.578 23.7324 119.57C22.3246 119.57 20.9415 119.57 19.5513 119.626C18.8227 119.661 18.6116 119.391 18.7488 118.734C19.1136 116.75 20.1711 114.96 21.7333 113.681C21.8683 113.542 22.0347 113.438 22.2184 113.377C22.4022 113.316 22.5978 113.3 22.7891 113.33C23.9365 113.569 25.0803 113.811 26.2171 114.06Z" fill="#97D0A3"/>
<path d="M78.1889 87.7614C76.7322 85.7402 74.9745 83.9533 72.9766 82.4628C73.8529 81.7039 74.6906 80.9519 75.5564 80.2387C76.3588 79.5746 77.3161 80.0314 78.203 79.9365C78.4881 79.9049 78.5338 80.1614 78.488 80.3898C78.0164 82.7334 78.393 85.1332 78.1889 87.7614Z" fill="#FEFEFE"/>
<path d="M79.0933 75.9271C80.4271 73.5133 81.4549 71.1872 81.9722 68.6574C82.113 67.9793 82.7571 68.306 83.19 68.2428C83.7777 68.1795 83.7777 68.5942 83.7742 69.0088C83.7742 71.0607 83.7742 73.1127 83.7742 75.1647C83.7742 75.7093 83.6194 75.9517 83.0351 75.9377C81.7928 75.906 80.5433 75.9271 79.0933 75.9271Z" fill="#F6EC64"/>
<path d="M44.7367 33.3875C44.1947 33.3875 43.8498 33.0573 43.5084 32.7199C42.083 31.2969 40.6646 29.8704 39.2357 28.4509C38.6198 27.836 38.2186 27.1684 38.9823 26.427C39.7461 25.6856 40.3268 26.1424 40.9005 26.7186C42.3834 28.2084 43.8697 29.6935 45.3596 31.1739C45.8101 31.6167 46.0248 32.1051 45.7679 32.6989C45.6851 32.9038 45.5425 33.0791 45.3586 33.2019C45.1747 33.3248 44.958 33.3894 44.7367 33.3875Z" fill="#D276AF"/>
<path d="M20.28 64.4305C19.9668 65.8113 20.6144 66.9568 21.269 68.0495C21.8693 68.9556 22.5202 69.8272 23.2188 70.6602C19.6571 69.9329 17.204 67.2238 17.1301 63.9526C17.109 63.0215 17.1618 62.122 18.3513 62.0061C19.5409 61.8901 19.9667 62.6315 20.0653 63.6856C20.113 63.9401 20.1849 64.1895 20.28 64.4305Z" fill="#453E81"/>
<path d="M101.438 3.99562C100.83 6.04056 100.83 5.99841 98.5806 6.05462C96.9476 6.09327 95.2652 5.70326 93.7061 6.49031C93.2028 6.73627 92.7418 7.06304 92.2632 7.35467C92.8967 5.09539 94.3186 3.964 96.5886 3.95346C98.204 3.94292 99.823 3.98157 101.438 3.99562Z" fill="#9D6B6B"/>
<path d="M3.99512 87.8908C4.0218 87.1646 4.30735 86.4717 4.80031 85.937C5.29328 85.4024 5.96123 85.061 6.68394 84.9744C7.08868 84.9498 7.38784 84.9744 7.30337 85.5155C7.03237 87.0369 7.17319 88.5689 7.16615 90.0833C7.16615 90.6771 7.00077 90.8282 6.41303 90.7368C5.74648 90.6064 5.14411 90.2537 4.70477 89.7366C4.26542 89.2194 4.01517 88.5686 3.99512 87.8908Z" fill="#E9AB9D"/>
<path d="M52.9333 87.9649C52.8981 89.2825 51.7965 90.5579 50.5823 90.7371C50.0544 90.8144 49.7834 90.7371 49.7834 90.1082C49.7834 88.5868 49.9101 87.0583 49.6074 85.5404C49.5124 85.0661 49.7376 84.9396 50.1881 84.9607C51.6099 85.031 52.9755 86.5032 52.9333 87.9649Z" fill="#E9AB9D"/>
<path d="M63.7871 23.6052C61.4819 24.1639 59.7151 25.6467 57.892 27.0311C57.5858 27.263 57.3571 27.6108 56.9102 27.6003C57.4099 26.4899 57.8639 25.3621 57.6985 24.1042C57.6281 23.5596 57.8041 23.3382 58.3707 23.282C60.1821 23.1095 62.0092 23.2186 63.7871 23.6052Z" fill="#FCCE65"/>
<path d="M58.2443 86.5171L56.9527 88.0702C56.9527 87.9437 56.914 87.8137 56.9034 87.6872C56.7873 86.1868 56.7872 86.1868 58.2443 86.5171Z" fill="#CA71A7"/>
<path d="M91.7141 54.5781C91.0771 53.8402 90.7076 53.0391 91.1088 52.0518C92.3336 50.6463 93.2205 50.569 94.5579 51.7004C98.6756 55.1368 103.184 55.1403 107.372 51.6618C108.301 50.8958 109.213 50.6498 110.188 51.4404C111.222 52.2731 111.138 53.5486 110.036 54.6027C105.461 59.0299 97.7429 59.3777 92.7347 55.3792C92.4004 55.1086 92.0555 54.8451 91.7141 54.5781Z" fill="#020201"/>
<path d="M95.9128 39.8351C95.9128 40.5765 95.9444 41.3214 95.9128 42.0592C95.8529 43.2328 95.128 43.9496 94.0299 43.9812C93.7784 43.9974 93.5261 43.9638 93.2876 43.8825C93.0491 43.8011 92.829 43.6735 92.64 43.507C92.451 43.3405 92.2968 43.1384 92.1862 42.9123C92.0756 42.6861 92.0109 42.4404 91.9956 42.1892C91.9168 40.6677 91.9168 39.1431 91.9956 37.6215C92.0031 37.3579 92.0648 37.0986 92.1768 36.8597C92.2888 36.6208 92.4487 36.4075 92.6467 36.2329C92.8447 36.0583 93.0765 35.9261 93.3277 35.8447C93.579 35.7632 93.8443 35.7341 94.1073 35.7592C95.1632 35.819 95.867 36.606 95.9374 37.7515C95.9374 37.8393 95.9374 37.9272 95.9374 38.015V39.8456L95.9128 39.8351Z" fill="#030202"/>
<path d="M109.857 39.9191C109.857 40.6605 109.896 41.4054 109.857 42.1432C109.783 43.2641 109.136 43.9 108.024 43.9738C107.772 43.9999 107.519 43.9753 107.277 43.9016C107.036 43.8278 106.812 43.7063 106.619 43.5444C106.425 43.3825 106.267 43.1834 106.152 42.959C106.037 42.7346 105.968 42.4894 105.951 42.2381C105.871 40.6685 105.871 39.0959 105.951 37.5263C105.966 37.2752 106.032 37.0297 106.143 36.8041C106.254 36.5784 106.409 36.377 106.599 36.2117C106.789 36.0463 107.01 35.9202 107.249 35.8406C107.488 35.7611 107.741 35.7298 107.992 35.7484C108.498 35.7604 108.979 35.9718 109.33 36.3364C109.681 36.7011 109.873 37.1894 109.864 37.6949C109.889 38.4363 109.861 39.1777 109.857 39.9191Z" fill="#020202"/>
<path d="M50.8216 70.1961C50.5311 69.7161 50.3586 69.1743 50.3184 68.6149C51.3144 66.5946 52.4757 66.3767 54.2073 67.877C55.8039 69.2693 57.8537 70.0336 59.9736 70.0271C62.0935 70.0207 64.1384 69.2439 65.7265 67.8419C66.543 67.1392 67.3736 66.6332 68.4436 67.1392C69.7598 67.7435 69.9146 69.3001 68.813 70.4385C64.4841 74.9043 56.5794 75.1925 51.8211 71.0639C51.5079 70.7617 51.156 70.4807 50.8216 70.1961Z" fill="#020201"/>
<path d="M68.5279 56.4929C68.5279 57.1956 68.5596 57.8984 68.5279 58.6011C68.4716 59.7185 67.8627 60.379 66.74 60.4809C66.4879 60.5178 66.2308 60.5023 65.9851 60.4353C65.7393 60.3683 65.51 60.2512 65.3117 60.0915C65.1134 59.9318 64.9503 59.7329 64.8327 59.5072C64.7151 59.2816 64.6455 59.0341 64.6283 58.7803C64.5262 57.25 64.5262 55.7147 64.6283 54.1844C64.6522 53.9338 64.7264 53.6904 64.8463 53.4689C64.9662 53.2474 65.1295 53.0521 65.3264 52.8948C65.5234 52.7375 65.7501 52.6213 65.9929 52.5531C66.2357 52.4849 66.4898 52.4662 66.74 52.4979C67.8557 52.6209 68.4751 53.2604 68.4997 54.3953C68.549 55.091 68.5314 55.7937 68.5279 56.4929Z" fill="#030202"/>
<path d="M51.3811 56.5246C51.3811 55.8218 51.3565 55.1191 51.3811 54.4164C51.4374 53.2463 52.1695 52.5085 53.2605 52.4698C53.7702 52.4391 54.2712 52.6117 54.6533 52.9497C55.0355 53.2878 55.2675 53.7635 55.2983 54.2723C55.3792 55.7598 55.3792 57.2506 55.2983 58.7382C55.2843 58.9914 55.2184 59.2392 55.1044 59.4659C54.9904 59.6926 54.8308 59.8934 54.6356 60.0559C54.4405 60.2184 54.214 60.3391 53.9702 60.4104C53.7263 60.4817 53.4704 60.5021 53.2183 60.4704C52.9759 60.4709 52.7358 60.4231 52.5121 60.3299C52.2884 60.2367 52.0856 60.0998 51.9155 59.9274C51.7455 59.755 51.6115 59.5505 51.5216 59.3257C51.4316 59.101 51.3875 58.8607 51.3917 58.6187C51.3459 57.93 51.3846 57.2273 51.3811 56.5246Z" fill="#020202"/>
<path d="M28.1106 97.8238C25.1969 97.7773 22.4134 96.6106 20.3396 94.5667C19.3542 93.625 19.2838 92.5463 20.0545 91.6749C20.8253 90.8035 21.9234 90.7754 22.9722 91.6293C26.7098 94.6721 30.2046 94.6721 33.9634 91.6293C35.0193 90.7754 36.0751 90.7965 36.874 91.689C37.6729 92.5814 37.578 93.632 36.5784 94.5842C34.2908 96.7627 31.5491 97.8238 28.1106 97.8238Z" fill="#020202"/>
<path d="M20.4768 84.1911C20.4386 83.4957 20.4444 82.7986 20.4943 82.104C20.6351 80.9972 21.3144 80.3963 22.4547 80.4104C23.5281 80.4104 24.2145 80.9902 24.3376 82.0372C24.5136 83.4689 24.5136 84.9168 24.3376 86.3485C24.3278 86.5912 24.2683 86.8294 24.163 87.0484C24.0577 87.2675 23.9088 87.4627 23.7253 87.6223C23.5417 87.7818 23.3276 87.9023 23.0958 87.9763C22.864 88.0503 22.6195 88.0762 22.3773 88.0526C21.2546 88.0526 20.6 87.3745 20.4698 86.2958C20.4287 85.5936 20.4287 84.8897 20.4698 84.1876L20.4768 84.1911Z" fill="#090706"/>
<path d="M36.4379 84.2581C36.4379 84.9117 36.4696 85.5687 36.4379 86.2223C36.4448 86.6888 36.27 87.1398 35.9502 87.48C35.6304 87.8202 35.1907 88.0231 34.724 88.0459C33.6224 88.1724 32.7988 87.6242 32.6123 86.5315C32.3363 84.9836 32.3363 83.3992 32.6123 81.8513C32.8094 80.7972 33.5907 80.3369 34.6465 80.4177C34.8785 80.4144 35.1088 80.4576 35.3238 80.5447C35.5388 80.6318 35.7341 80.7611 35.8982 80.9249C36.0623 81.0887 36.1918 81.2837 36.279 81.4983C36.3663 81.713 36.4096 81.9429 36.4063 82.1745C36.4626 82.8773 36.4063 83.58 36.4063 84.2827L36.4379 84.2581Z" fill="#050403"/>
</svg>
