<svg width="1920" height="235" viewBox="0 0 1920 235" fill="none" xmlns="http://www.w3.org/2000/svg">
<path d="M1158.54 3.75019e-05C1108.19 3.97028e-05 1082.61 1.48836 1057.87 2.9355C1033.12 4.38264 1009.73 5.74754 961.615 5.74754C929.125 5.84841 896.663 5.2287 864.617 3.89577C831.592 2.5278 798.143 1.88973 764.664 1.9891C714.315 1.9891 688.712 3.49787 663.966 4.95187C639.219 6.40587 615.853 7.79135 567.741 7.79135C519.629 7.79136 496.208 6.41967 471.461 5.04798C446.715 3.67629 421.14 2.15373 370.818 2.15373C337.412 2.06143 304.031 2.64174 271.003 3.88893C238.857 5.08888 206.371 5.63703 173.867 5.52807C141.301 5.59055 108.748 5.18288 76.3723 4.30721C43.3554 3.41168 10.1563 2.99487 -23.056 3.05896C-26.2267 3.02107 -29.3947 3.14657 -32.3607 3.42749C-35.3266 3.70841 -38.0264 4.13873 -40.2902 4.69134C-48.2168 6.74889 -47.8578 9.8832 -47.4987 12.9215C-47.4987 13.5456 -47.4987 14.1766 -47.4987 14.8076C-47.4987 27.0706 -53.0225 33.0306 -58.5463 39.3404C-64.0701 45.6502 -70.091 52.1246 -70.091 64.9225C-70.4691 73.4185 -67.9654 81.9073 -62.6063 90.2989C-57.3466 98.4624 -54.9073 106.723 -55.3149 114.989C-55.3149 127.252 -60.8387 133.212 -66.3625 139.522C-71.8863 145.832 -77.9624 152.313 -77.9624 165.104C-78.3366 173.598 -75.9165 182.085 -70.7263 190.481C-65.6236 198.648 -63.2586 206.907 -63.6558 215.171C-63.6558 227.66 -64.4568 234.011 -65.2025 240.15C-65.9482 246.288 -66.7491 252.721 -66.7491 265.279C-66.7491 277.837 -67.5777 284.119 -68.351 290.265C-69.1244 296.41 -69.9529 302.829 -69.9529 315.394C-69.9529 320.641 -51.1168 324.173 -23.0007 324.173C26.2439 324.173 50.8524 324.173 75.4609 324.173C100.069 324.173 124.705 324.173 173.95 324.173C206.489 324.096 239.01 324.58 271.279 325.62C304.309 326.684 337.596 327.179 370.901 327.101C420.366 327.101 445.472 326.8 469.832 326.512C494.192 326.224 518.828 325.922 567.852 325.922C616.875 325.922 641.788 326.182 665.899 326.436C690.01 326.69 715.337 326.957 764.775 326.957C798.596 327.09 832.353 326.185 865.28 324.262C890.137 322.89 913.503 321.67 961.698 321.67C1009.89 321.67 1033.04 323.172 1057.76 324.756C1082.48 326.34 1108.19 328 1158.65 328C1208 328 1233.22 327.835 1257.39 327.678C1281.55 327.52 1306.49 327.355 1355.6 327.355C1389.15 327.462 1422.66 326.761 1455.66 325.263C1487.61 323.811 1520.05 323.135 1552.52 323.247C1602.07 323.247 1627.26 322.829 1651.62 322.431C1675.98 322.033 1700.53 321.628 1749.45 321.628C1797.67 321.628 1821.09 322.87 1845.92 324.18C1870.75 325.49 1896.13 326.841 1946.4 326.841C1971.25 326.841 1987.82 320.929 1987.82 315.415C1987.82 302.857 1987.13 296.471 1986.5 290.292C1985.86 284.112 1985.2 277.796 1985.2 265.3C1984.85 257.019 1986.95 248.744 1991.5 240.541C1996.14 232.132 1998.3 223.651 1997.96 215.164C1998.34 206.67 1995.91 198.183 1990.7 189.788C1985.62 181.62 1983.27 173.361 1983.65 165.097C1984 156.608 1981.72 148.124 1976.83 139.721C1972.04 131.53 1969.82 123.259 1970.2 114.982C1970.2 102.706 1975.29 96.7389 1980.67 90.4222C1986.06 84.1056 1991.72 77.6517 1991.72 64.8675C1991.72 52.2548 1989.79 45.8352 1987.94 39.6352C1986.08 33.4351 1984.23 27.1939 1984.23 14.7595C1984.23 13.3466 1983.54 11.3303 1977.72 9.86945C1971.03 8.23027 1961.7 8.25079 1950.9 8.27137C1949.46 8.27137 1948.14 8.27137 1946.45 8.27137C1913.97 8.38366 1881.52 7.69442 1849.59 6.21381C1816.59 4.69291 1783.06 3.98072 1749.5 4.08763C1716.17 4.00865 1682.86 4.51762 1649.82 5.61037C1617.58 6.68083 1585.08 7.17586 1552.55 7.09176C1503.28 7.09176 1478.23 7.13969 1454.01 7.18084C1429.78 7.22199 1404.79 7.27694 1355.6 7.27695C1307.79 7.27695 1284.54 5.5349 1259.93 3.68997C1235.32 1.84505 1209.22 3.52866e-05 1158.54 3.75019e-05Z" fill="#E66447"/>
</svg>
