<svg width="102" height="103" viewBox="0 0 102 103" fill="none" xmlns="http://www.w3.org/2000/svg">
<path d="M0 64.1832C0.681085 62.6636 1.31223 61.1167 2.06597 59.6335C2.42365 59.075 2.86467 58.5748 3.37365 58.1503C17.8671 43.6216 32.3591 29.0943 46.8496 14.5686C47.898 13.4602 49.1676 12.5856 50.5758 12.0016C51.984 11.4176 53.4991 11.1373 55.0226 11.1791C60.9253 11.2428 66.8281 11.1791 72.7081 11.1791H73.8614C74.3668 8.93732 75.4041 6.85071 76.8854 5.09611C80.8085 0.673793 85.7168 -0.991405 91.388 0.578246C97.0592 2.1479 100.592 6.08339 101.545 11.9753C102.712 19.1593 98.4622 25.7018 91.5106 27.7082C90.8386 27.9038 90.6615 28.195 90.6615 28.8729C90.6797 35.2425 90.6797 41.6121 90.6615 47.9817C90.6652 49.1677 90.4316 50.3424 89.9746 51.4364C89.5176 52.5304 88.8464 53.5215 88.0008 54.3513C82.5279 59.8959 77.0292 65.4147 71.5049 70.9077C71.3259 71.1155 71.1066 71.2847 70.8603 71.4048C70.6139 71.5249 70.3458 71.5934 70.0721 71.6062C69.7985 71.6189 69.5251 71.5757 69.2687 71.4791C69.0123 71.3824 68.7782 71.2345 68.5807 71.0442C67.7226 70.207 67.7861 68.9786 68.7851 67.9731C73.8614 62.8729 78.9015 57.7408 84.0505 52.7179C84.9393 51.9079 85.6402 50.9125 86.1038 49.8018C86.5674 48.6911 86.7825 47.4921 86.7339 46.2892C86.6295 38.0588 86.6976 29.8283 86.6931 21.6025C86.6931 17.6761 84.223 15.1965 80.3363 15.1874H77.7027C77.8952 17.346 78.7884 19.382 80.2455 20.9837C80.6146 21.3571 80.8968 21.8077 81.0718 22.3031C81.1997 22.7244 81.1708 23.1779 80.9904 23.5795C80.8101 23.981 80.4906 24.3035 80.0911 24.487C79.7174 24.7147 79.2754 24.8026 78.8433 24.7351C78.4112 24.6677 78.0168 24.4492 77.73 24.1185C75.5925 22.0066 74.2035 19.2518 73.7751 16.2748C73.7297 15.9517 73.6798 15.6287 73.6253 15.2374C73.2621 15.2374 72.9397 15.1874 72.6218 15.1874C66.6919 15.1874 60.7664 15.1874 54.8364 15.1874C53.927 15.1643 53.0227 15.3316 52.1814 15.6786C51.3401 16.0257 50.5804 16.5448 49.9508 17.2029C35.2969 31.8985 20.6384 46.588 5.97539 61.2714C3.34186 63.9102 3.36003 67.4363 6.00718 70.0978C14.6221 78.7393 23.2492 87.3731 31.8884 95.9994C34.6128 98.7292 38.0999 98.7292 40.847 95.9994C45.6902 91.1767 50.5153 86.3434 55.3223 81.4994C55.5726 81.2342 55.8379 80.9835 56.1169 80.7487C56.4933 80.4432 56.9686 80.2868 57.4524 80.3095C57.9363 80.3321 58.395 80.5322 58.7413 80.8716C59.0968 81.2245 59.3078 81.6978 59.333 82.1986C59.3582 82.6995 59.1958 83.1916 58.8775 83.5786C58.6647 83.8313 58.4373 84.0714 58.1965 84.2975C53.8875 88.6152 49.5376 92.8964 45.2831 97.2687C43.149 99.4617 40.9423 101.441 37.8184 102.028H34.8352C31.6114 101.386 29.3866 99.2524 27.1844 97.023C19.9195 89.6677 12.6122 82.3472 5.26253 75.0616C2.96954 72.7867 0.721962 70.5119 0.0544985 67.1906L0 64.1832ZM78.1523 11.22C79.1875 11.22 80.2046 11.1973 81.2171 11.22C83.6525 11.3216 85.9634 12.3253 87.7024 14.0367C89.4414 15.7481 90.4845 18.0453 90.6297 20.4832C90.6797 21.5524 90.6297 22.6262 90.6297 23.7454C95.0386 22.567 98.2125 17.8308 97.713 13.3948C97.1137 8.07618 93.1225 4.25896 87.9463 4.05423C83.5464 3.88589 78.8969 7.22993 78.1523 11.22Z" fill="#14A594"/>
<path d="M44.5112 60.4659L50.5728 60.8299C51.7988 60.9073 52.6161 61.4851 52.8431 62.4178C53.1655 63.8054 52.0531 64.9792 50.5229 64.8792L43.4895 64.4014C43.2353 64.4014 42.9765 64.4014 42.427 64.4014C43.6666 65.6208 44.7518 66.6763 45.7962 67.7409C47.0403 69.0285 46.5817 70.9257 44.888 71.1851C44.5705 71.222 44.2487 71.1943 43.9421 71.1036C43.6355 71.0129 43.3503 70.8611 43.1036 70.6573C39.1291 66.7718 35.1879 62.8394 31.28 58.8599C30.3718 57.95 30.4627 56.8808 31.3662 55.9435C32.4015 54.8698 33.4503 53.8097 34.5446 52.7587C35.6092 51.6963 37.0105 51.0396 38.5067 50.9017C40.0029 50.7638 41.5002 51.1535 42.7403 52.0035C45.1741 53.7142 45.9869 56.8307 44.77 59.8108C44.7064 59.9837 44.6474 60.1338 44.5112 60.4659ZM35.8024 57.2811L38.9808 60.6434C39.5619 60.0201 40.2203 59.415 40.7697 58.7189C41.1603 58.2759 41.369 57.7012 41.3538 57.1104C41.3387 56.5195 41.1008 55.9563 40.688 55.5341C40.2458 55.1532 39.6819 54.9438 39.0988 54.9438C38.5157 54.9438 37.9519 55.1532 37.5096 55.5341C36.9183 56.0851 36.3546 56.6651 35.8205 57.2721L35.8024 57.2811Z" fill="#14A594"/>
<path d="M59.8854 32.9812L63.0638 36.0932C64.0173 35.1105 64.998 34.0322 66.056 33.0312C67.2729 31.8802 69.0028 32.3169 69.4614 33.8411C69.5639 34.2109 69.5595 34.6022 69.4485 34.9695C69.3376 35.3368 69.1248 35.665 68.8348 35.9158C68.3263 36.4435 67.8132 36.9622 67.2865 37.4672C66.7598 37.9722 66.2649 38.4044 65.8017 38.8321L68.9529 41.9805C69.979 40.9432 71.0415 39.8513 72.1313 38.7957C73.221 37.7402 74.3153 37.6537 75.1916 38.4909C76.0679 39.328 75.9908 40.5792 74.9464 41.6393C73.4753 43.1225 72.0041 44.6057 70.5194 46.0707C69.3434 47.2309 68.3308 47.24 67.1639 46.0707C63.3861 42.3035 59.616 38.5258 55.8533 34.7374C54.7227 33.5999 54.7318 32.5854 55.8533 31.4525C57.3669 29.9177 58.888 28.392 60.4166 26.8755C61.3701 25.9337 62.5915 25.87 63.4134 26.6798C64.2352 27.4897 64.2216 28.7045 63.2681 29.6826C62.1557 30.7746 61.0341 31.8438 59.8854 32.9812Z" fill="#14A594"/>
<path d="M57.4926 53.4913C58.5051 52.4585 59.5585 51.3575 60.6392 50.2837C61.7198 49.21 62.8414 49.1918 63.695 50.0562C64.5486 50.9207 64.4487 52.1082 63.4362 53.1318C61.9469 54.6484 60.4485 56.1498 58.941 57.6361C57.8104 58.7507 56.7842 58.7553 55.6582 57.6361C51.8774 53.8689 48.1072 50.0911 44.3476 46.3027C43.1762 45.1289 43.1898 44.1234 44.3476 42.945C45.8369 41.4285 47.3353 39.9271 48.8428 38.4408C49.8054 37.4854 51.0041 37.3944 51.8396 38.186C52.675 38.9777 52.6796 40.2425 51.6852 41.2571C50.6 42.3672 49.4739 43.4364 48.3978 44.4965L51.5762 47.5994C52.4843 46.6894 53.4469 45.6112 54.4867 44.6057C55.4402 43.6957 56.5663 43.673 57.4018 44.5056C58.2372 45.3382 58.2327 46.4893 57.3246 47.4311C56.3393 48.4547 55.2995 49.4329 54.3006 50.4157L57.4926 53.4913Z" fill="#14A594"/>
<path d="M24.192 68.7966L27.2342 71.8404C28.0288 70.9896 28.8688 70.0569 29.7497 69.1697C30.7486 68.1551 31.9655 68.0641 32.8146 68.8922C33.6636 69.7202 33.6137 70.9623 32.6193 71.9678C31.7339 72.8777 30.8031 73.7103 29.8496 74.6294C30.1311 74.9479 30.3036 75.1753 30.5079 75.3755C31.7929 76.6722 33.0961 77.9461 34.3629 79.2564C34.5651 79.4411 34.7277 79.6651 34.8408 79.9148C34.9539 80.1645 35.015 80.4346 35.0205 80.7087C35.0261 80.9828 34.9758 81.2552 34.8729 81.5093C34.77 81.7633 34.6166 81.9937 34.4219 82.1864C34.0323 82.5543 33.5138 82.7538 32.9786 82.7419C32.4434 82.73 31.9343 82.5076 31.5614 82.1227C31.4388 82.009 31.3252 81.8907 31.2072 81.7724L20.2508 70.794C18.8568 69.3972 18.8614 68.4827 20.2508 67.0768C21.6402 65.671 22.9751 64.347 24.3373 62.9821C25.3499 61.9721 26.5531 61.8629 27.4022 62.6773C28.2513 63.4917 28.215 64.7428 27.157 65.8211C26.0991 66.8994 25.141 67.8503 24.192 68.7966Z" fill="#14A594"/>
<path d="M63.636 77.9323C63.3726 77.939 63.1104 77.8924 62.8654 77.7952C62.6203 77.6979 62.3974 77.5521 62.21 77.3665C62.0226 77.1808 61.8745 76.9591 61.7747 76.7147C61.6749 76.4702 61.6253 76.2081 61.6291 75.9441C61.6398 75.4114 61.8592 74.9044 62.2397 74.5324C62.6203 74.1604 63.1316 73.9533 63.6633 73.9558C64.1787 73.9618 64.6709 74.1718 65.0324 74.5401C65.3939 74.9083 65.5955 75.4048 65.593 75.9213C65.6069 76.1848 65.5662 76.4483 65.4734 76.6953C65.3807 76.9423 65.2378 77.1673 65.054 77.3562C64.8702 77.5451 64.6493 77.6938 64.4052 77.793C64.1612 77.8921 63.8993 77.9396 63.636 77.9323Z" fill="#14A594"/>
</svg>
