<svg width="372" height="360" viewBox="0 0 372 360" fill="none" xmlns="http://www.w3.org/2000/svg">
<path d="M372 214.429C372 205.697 370.312 201.262 368.671 196.971C367.03 192.68 365.482 188.623 365.482 180.28C365.367 174.646 366.07 169.017 367.582 163.46C369.133 157.733 369.857 151.932 369.744 146.127C369.744 137.396 368.033 132.956 366.384 128.665C364.735 124.373 363.164 120.321 363.164 111.978C363.164 103.635 364.719 99.5736 366.275 95.2823C367.831 90.991 369.557 86.556 369.557 77.8297C369.662 72.0368 369.004 66.2482 367.589 60.5208C366.229 54.9463 365.607 49.3129 365.73 43.6764C365.66 38.0291 366.122 32.384 367.115 26.7698C368.131 21.0443 368.603 15.2872 368.531 9.52787C368.574 8.97803 368.431 8.42867 368.113 7.91434C367.794 7.40001 367.306 6.93184 366.679 6.53928C364.346 5.16472 360.791 5.22698 357.345 5.28924C356.637 5.28924 355.922 5.28924 355.206 5.28924C341.298 5.28924 334.539 4.33136 327.382 3.37347C320.226 2.41559 312.883 1.3715 298.368 1.3715C288.733 1.30593 279.105 1.74011 269.588 2.66943C260.329 3.58152 250.961 4.00452 241.585 3.93383C227.677 3.93383 220.918 2.97595 213.761 2.01807C206.605 1.06019 199.255 0.00651652 184.748 0.00651652C175.115 -0.0583624 165.489 0.361306 155.967 1.26134C146.704 2.1462 137.338 2.55631 127.965 2.48743C113.8 2.48743 106.597 2.34854 99.635 2.21922C92.6733 2.08991 85.3771 1.95102 71.1346 1.95102C56.8921 1.95102 49.767 1.80733 42.7974 1.67323C35.8279 1.53913 28.5472 1.39545 14.2969 1.39545C8.34636 1.39545 4.34047 4.66183 4.34047 9.53745C4.34047 18.077 4.34047 22.3443 4.34047 26.6117C4.34047 30.8791 4.34047 35.1512 4.34047 43.6908C4.42729 49.3333 3.8789 54.9728 2.69922 60.5687C1.49295 66.2964 0.931527 72.0686 1.01903 77.8441C1.01903 86.4219 1.36128 90.7755 1.68797 94.9998C2.01467 99.224 2.35691 103.496 2.35691 111.997C2.35691 120.499 2.06133 124.819 1.77353 129C1.48572 133.181 1.18235 137.573 1.18235 146.146C1.03147 152.011 2.05828 157.865 4.23935 163.575C5.79505 167.885 7.17965 171.937 7.17965 180.294C7.17965 188.652 5.47616 192.665 3.67932 196.952C1.88248 201.239 0 205.697 0 214.448C0 223.006 0.186757 227.379 0.365663 231.57C0.544569 235.761 0.73123 240.085 0.73123 248.601C0.610233 254.419 1.4048 260.23 3.10372 265.953C4.75135 271.493 5.51722 277.118 5.39056 282.75C5.39056 291.342 5.865 295.71 6.31615 299.934C6.76731 304.158 7.22627 308.416 7.22627 316.898C7.22627 325.26 5.81839 329.322 4.33269 333.628C2.84699 337.933 1.31462 342.335 1.31462 351.051C1.31462 355.362 8.01973 358.236 14.2737 358.236C28.5161 358.236 35.7579 358.116 42.7664 358.006C49.7748 357.895 56.9388 357.781 71.1113 357.781C80.5023 357.719 89.8879 358.084 99.1918 358.873C108.728 359.678 118.347 360.052 127.972 359.993C137.606 360.06 147.232 359.638 156.753 358.734C166.017 357.853 175.383 357.445 184.756 357.512C194.384 357.573 204.006 357.177 213.536 356.329C222.826 355.498 232.206 355.114 241.593 355.18C255.517 355.18 262.284 356.061 269.448 356.995C276.612 357.929 283.932 358.911 298.431 358.911C312.735 358.911 320.016 358.576 327.048 358.255C334.08 357.934 341.158 357.613 355.261 357.613C356.863 357.613 359.15 357.493 360.807 356.483C362.666 355.324 362.642 353.705 362.619 351.832C362.619 351.583 362.619 351.353 362.619 351.061C362.492 345.428 363.273 339.802 364.953 334.264C366.678 328.541 367.485 322.728 367.364 316.908C367.454 311.128 366.876 305.352 365.637 299.623C364.423 294.032 363.862 288.395 363.957 282.754C363.957 274.21 363.903 269.866 363.856 265.666C363.809 261.465 363.747 257.131 363.747 248.601C363.747 240.311 365.723 236.278 367.815 232.011C369.907 227.743 372 223.217 372 214.429Z" fill="#ECBC39" fill-opacity="0.8"/>
</svg>
