<svg width="129" height="111" viewBox="0 0 129 111" fill="none" xmlns="http://www.w3.org/2000/svg">
<path d="M81.3453 7.30206C81.376 8.3569 81.3478 9.41263 81.2608 10.4643C81.099 11.6836 81.662 11.926 82.7179 11.9822C85.9229 12.1214 89.0605 12.947 91.9178 14.4031C95.4372 16.2162 98.0838 18.8549 99.5268 22.5794C99.7943 23.2646 100.252 23.4332 100.861 23.6335C103.961 24.6419 105.788 27.625 105.359 30.9313C105.139 32.4573 104.4 33.8611 103.264 34.9058C102.129 35.9505 100.667 36.572 99.1256 36.6656C97.5995 36.7346 96.0948 36.286 94.8565 35.3929C93.6181 34.4998 92.7189 33.2146 92.3049 31.7465C91.8548 30.194 91.9922 28.5304 92.6912 27.0726C93.3902 25.6147 94.6018 24.4644 96.0953 23.8408C96.8978 23.4894 96.9048 23.2259 96.5493 22.5513C95.7329 20.9928 94.6167 19.6103 93.2645 18.4828C91.9124 17.3554 90.3509 16.5052 88.6693 15.9808C83.0255 14.0363 76.893 14.0289 71.2445 15.9597C69.583 16.4783 68.0421 17.3234 66.7124 18.4451C65.3827 19.5668 64.2911 20.9426 63.5017 22.4916C63.1744 23.1275 63.104 23.4613 63.9381 23.8267C67.081 25.2006 68.6471 28.4156 67.8342 31.5743C67.0212 34.7331 63.9627 36.9116 60.8691 36.641C57.4869 36.3459 54.9846 33.8301 54.6432 30.4148C54.3476 27.4458 56.3044 24.5541 59.2995 23.5773C59.8063 23.4086 60.211 23.2856 60.4398 22.6813C62.6183 16.8873 67.1619 13.9534 72.9197 12.5339C74.3638 12.1614 75.8457 11.9539 77.3367 11.9155C78.2201 11.9155 78.5403 11.6063 78.4945 10.6892C78.4136 9.1151 78.4664 7.52693 78.4735 5.95633C78.4735 2.29862 80.6625 0.0534002 84.3404 0.00420913C90.5241 -0.0766048 96.5036 0.998567 101.994 3.89733C115.368 10.9738 122.386 22.1261 122.949 37.277C123.005 38.809 122.991 40.3444 122.949 41.8764C122.928 42.558 123.128 42.7407 123.822 42.7724C126.528 42.8953 128.439 44.8032 128.481 47.312C128.524 49.8207 126.662 51.8446 123.98 51.9957C123.051 52.0519 122.949 52.4068 122.949 53.1833C122.97 64.9704 122.97 76.7564 122.949 88.5411C122.949 89.3809 123.16 89.5952 124.005 89.655C125.204 89.7021 126.338 90.2098 127.171 91.0721C128.004 91.9344 128.471 93.0846 128.474 94.2825C128.474 96.7912 126.602 98.801 123.927 98.9591C123.097 99.0083 122.924 99.2367 122.938 100.013C122.984 102.947 122.963 105.885 122.938 108.822C122.938 110.273 122.509 110.73 121.08 110.751C119.194 110.779 117.304 110.783 115.417 110.751C114.048 110.726 113.601 110.277 113.577 108.913C113.545 107.336 113.601 105.751 113.555 104.18C113.46 101.109 111.331 99.0118 108.276 99.0083C93.5344 98.9943 78.7902 98.9943 64.0437 99.0083C60.9571 99.0083 58.7645 101.218 58.7222 104.321C58.6941 105.853 58.6835 107.388 58.7222 108.92C58.7574 110.129 58.2189 110.74 57.0258 110.751C55.0514 110.751 53.0771 110.751 51.1026 110.751C49.9025 110.751 49.3745 110.126 49.3816 108.934C49.4027 105.997 49.3816 103.063 49.4027 100.129C49.4027 99.3597 49.3182 99.0013 48.3469 98.9521C47.1518 98.9246 46.015 98.4312 45.1797 97.5775C44.3444 96.7239 43.8769 95.5778 43.8772 94.3844C43.8324 93.1861 44.265 92.019 45.0803 91.1385C45.8956 90.258 47.0271 89.736 48.2272 89.6866C49.283 89.6128 49.3886 89.2333 49.3886 88.3514C49.3628 76.6978 49.3628 65.043 49.3886 53.3871C49.3886 52.5333 49.3323 52.0624 48.2483 52.0027C45.57 51.8551 43.7998 49.8313 43.8842 47.2312C43.9687 44.6311 45.9607 42.7688 48.7341 42.7688C67.3825 42.7688 86.0356 42.7688 104.693 42.7688H112.855C113.337 42.7688 113.777 42.8637 113.809 42.0872C114.076 35.5975 113.358 29.3116 109.902 23.623C104.429 14.6245 96.5001 9.54376 85.8995 8.80238C84.8436 8.73211 83.8231 8.69346 83.6788 7.3126C83.6576 6.18823 83.9955 5.79822 85.1569 5.65767C86.5647 5.4855 87.9724 5.77713 89.3415 5.99146C95.1485 6.86955 100.602 9.32492 105.105 13.089C111.574 18.4368 115.312 25.3446 116.628 33.5771C116.967 36.0058 117.085 38.4602 116.98 40.9101C116.952 42.2804 117.832 42.8391 119.12 42.3613C119.581 42.1926 119.655 41.8377 119.683 41.4301C120.387 30.2532 117.318 20.4923 109.008 12.6393C102.276 6.27607 94.2441 3.23676 85.0337 3.17352C82.4328 3.15244 81.8662 3.68651 81.6761 6.2304C81.7099 6.617 81.5912 7.00149 81.3453 7.30206Z" fill="#3D3F50"/>
<path d="M2.36192 102.775C2.30209 101.559 2.32319 100.069 3.13618 98.7307C3.3755 98.3302 3.23123 98.1756 2.89688 97.9085C-0.358615 95.312 -0.854928 92.3148 1.33066 88.8222C3.35735 85.523 6.12958 82.7434 9.42541 80.7057C10.2666 80.1892 10.1681 79.9819 9.50996 79.3881C6.91612 77.048 5.45546 74.1492 5.55753 70.604C5.55753 69.961 5.41681 69.715 4.73755 69.5885C0.950616 68.8858 -0.918195 65.5619 0.535341 61.9955C1.8305 58.8332 3.88586 56.2929 7.47922 55.6464C10.0836 55.1826 12.4065 56.4826 13.4623 58.9035C13.8354 59.7433 14.2049 59.7327 14.9228 59.4973C18.2778 58.3796 21.9072 58.3894 25.256 59.5254C25.9177 59.7503 26.2484 59.7679 26.6074 58.9808C28.1278 55.6569 31.9254 54.5185 35.0014 56.4756C37.7817 58.2324 39.7737 60.6568 39.999 64.0721C40.189 66.9498 38.3273 69.1071 35.4624 69.585C34.8113 69.6939 34.4593 69.7923 34.5051 70.6005C34.7021 74.1809 33.1924 77.055 30.595 79.3846C29.8911 80.0135 29.9157 80.2349 30.7181 80.7303C34.0486 82.7976 36.8456 85.6176 38.8833 88.9628C40.9387 92.2656 40.3897 95.4912 37.3031 97.8594C36.828 98.2107 36.8596 98.4321 37.0743 98.9134C38.1301 101.254 38.021 103.727 37.5036 106.13C36.9546 108.671 34.6635 110.424 32.0133 110.698C30.7615 110.839 29.4968 110.588 28.3933 109.982C27.2897 109.375 26.4015 108.442 25.8508 107.311C25.439 106.447 24.992 106.317 24.1544 106.454C21.4228 106.902 18.6363 106.902 15.9048 106.454C15.2255 106.345 14.7574 106.303 14.3526 107.135C13.739 108.462 12.6787 109.531 11.3564 110.157C10.0341 110.783 8.53375 110.926 7.11671 110.561C4.30114 109.876 2.38303 107.353 2.35487 104.237C2.35839 103.85 2.36192 103.457 2.36192 102.775Z" fill="#3D3F50"/>
<path d="M81.3453 7.30187C81.2925 6.69434 81.2714 6.08448 81.2819 5.47477C81.384 3.81632 82.3976 2.87467 84.0975 2.8044C100.639 2.10167 115.656 13.6264 119.32 29.74C120.242 33.8018 120.165 37.9022 120.182 42.0132C120.182 42.5824 119.968 42.7335 119.415 42.7722C116.638 42.976 116.579 42.9935 116.652 40.2283C116.871 32.0204 114.794 24.5363 109.578 18.0923C103.458 10.5309 95.4618 6.54292 85.7481 5.95614C84.6923 5.8929 83.925 6.14939 83.7068 7.29484L81.3453 7.30187Z" fill="#FFD983"/>
<path d="M85.0477 30.2634C85.081 31.0447 84.8761 31.8178 84.46 32.4805C83.6012 34.0019 82.746 35.5233 81.831 37.0096C80.7751 38.6996 78.9766 38.7313 77.9278 37.0623C76.953 35.5092 76.0379 33.9 75.165 32.3048C74.7964 31.6537 74.6096 30.9158 74.6238 30.168C74.638 29.4202 74.8529 28.6899 75.246 28.0533C75.5352 27.5144 75.8585 26.9945 76.2138 26.4967C77.875 24.3218 78.9415 21.9957 78.4875 19.1532C78.3361 18.208 78.8148 17.5053 79.8741 17.5053C80.0757 17.4852 80.2792 17.5135 80.4676 17.5879C80.656 17.6623 80.8238 17.7806 80.9571 17.9329C81.0904 18.0853 81.1853 18.2672 81.2339 18.4636C81.2824 18.66 81.2831 18.8651 81.2361 19.0618C80.6484 22.3506 82.3202 24.8277 84.02 27.3224C84.6219 28.2008 85.1111 29.1214 85.0477 30.2634Z" fill="#3D3F50"/>
<path d="M86.1461 49.3145H49.5438C49.0622 49.342 48.579 49.3125 48.1043 49.2267C47.6876 49.1499 47.312 48.9273 47.0449 48.5988C46.7779 48.2704 46.6368 47.8576 46.6472 47.4347C46.6218 47.0119 46.7503 46.5942 47.009 46.2584C47.2677 45.9227 47.6391 45.6916 48.055 45.6076C48.5246 45.5085 49.004 45.4637 49.4839 45.4741C73.923 45.4741 98.361 45.4741 122.798 45.4741C123.279 45.4597 123.761 45.4986 124.234 45.5901C124.652 45.6571 125.031 45.876 125.297 46.2049C125.563 46.5337 125.698 46.9492 125.677 47.3715C125.694 48.3904 125.121 49.0123 124.17 49.2548C123.738 49.326 123.298 49.346 122.861 49.3145H86.1461Z" fill="#FED883"/>
<path d="M86.2374 92.4411H122.84C123.234 92.42 123.629 92.427 124.022 92.4622C125.022 92.6027 125.606 93.1965 125.645 94.219C125.684 95.2415 125.156 95.9758 124.082 96.1515C123.646 96.2009 123.207 96.215 122.769 96.1937H49.5647C47.6044 96.1937 46.6682 95.5999 46.6435 94.349C46.6189 93.0981 47.5727 92.4481 49.5049 92.4481L86.2374 92.4411Z" fill="#FFD983"/>
<path d="M65.4552 70.7688C65.4552 76.6401 65.4341 82.5114 65.4763 88.3828C65.4763 89.335 65.2862 89.7039 64.255 89.6406C62.7652 89.5563 61.2717 89.5563 59.7818 89.6406C58.8984 89.6863 58.7013 89.3842 58.7049 88.5444C58.7365 81.0076 58.7049 73.4708 58.7049 65.9341C58.7049 61.7177 58.7471 57.5013 58.6768 53.313C58.6768 52.2343 59.0041 51.9849 60.0036 52.0411C61.4102 52.1241 62.8204 52.1241 64.2269 52.0411C65.23 51.9778 65.4764 52.3151 65.4693 53.2919C65.4341 59.1105 65.4552 64.9397 65.4552 70.7688Z" fill="#FFFEFF"/>
<path d="M74.7817 70.7617C74.7817 64.9361 74.8064 59.1104 74.7606 53.2848C74.7606 52.3361 74.933 51.9566 75.9678 52.0304C77.3741 52.1206 78.7848 52.1206 80.1911 52.0304C81.2012 51.9742 81.5426 52.2518 81.532 53.3235C81.4722 58.5377 81.5039 63.7485 81.5039 68.9627C81.5039 75.4454 81.4828 81.9281 81.5285 88.4108C81.5285 89.4051 81.2681 89.6932 80.2897 89.6335C78.8832 89.5468 77.4728 89.5468 76.0663 89.6335C75.0668 89.6897 74.7465 89.4332 74.7571 88.3686C74.8134 82.5008 74.7817 76.633 74.7817 70.7617Z" fill="white"/>
<path d="M97.5424 70.8707C97.5424 76.7385 97.5213 82.6098 97.5635 88.4776C97.5635 89.3981 97.3172 89.6827 96.3951 89.6335C94.9496 89.5545 93.501 89.5545 92.0555 89.6335C91.0912 89.6898 90.8061 89.4368 90.8167 88.4284C90.8695 82.297 90.8449 76.1657 90.8449 70.0344C90.8449 64.4126 90.8624 58.8224 90.8237 53.2181C90.8237 52.3362 90.9997 51.9743 91.9605 52.0305C93.4058 52.113 94.8547 52.113 96.3 52.0305C97.2749 51.9778 97.5741 52.2589 97.5635 53.2638C97.5178 59.1351 97.5424 65.0029 97.5424 70.8707Z" fill="white"/>
<path d="M106.903 70.7692C106.903 65.0314 106.953 59.2936 106.865 53.5523C106.865 52.2277 107.248 51.9185 108.473 52.0239C109.742 52.1205 111.016 52.1205 112.285 52.0239C113.302 51.9606 113.626 52.2523 113.615 53.3169C113.562 59.4026 113.59 65.4882 113.59 71.5879C113.59 77.2097 113.566 82.7964 113.611 88.4007C113.611 89.367 113.4 89.7043 112.39 89.6375C110.984 89.5489 109.573 89.5489 108.167 89.6375C107.167 89.6972 106.847 89.4337 106.858 88.3691C106.932 82.5048 106.903 76.637 106.903 70.7692Z" fill="white"/>
<path d="M55.9986 70.7619C55.9986 76.584 55.9704 82.4096 56.0197 88.2353C56.0197 89.2893 55.7874 89.6829 54.6612 89.6407C52.1518 89.5669 52.1518 89.6407 52.1518 87.1812C52.1518 75.9375 52.1729 64.6692 52.1201 53.4115C52.1201 52.2168 52.472 51.9463 53.5947 51.9849C55.995 52.0657 55.9986 52.006 55.9986 54.4445V70.7619Z" fill="#F19745"/>
<path d="M68.2108 70.7616C68.2108 64.9817 68.2496 59.1982 68.1792 53.4183C68.1792 52.2131 68.5311 51.9601 69.6574 52.0128C72.0506 52.0936 72.0506 52.0339 72.0506 54.4934C72.0506 65.702 72.0505 76.914 72.0752 88.1261C72.0752 89.2891 71.8359 89.7283 70.5794 89.6721C68.2143 89.5667 68.2108 89.644 68.2108 87.332V70.7616Z" fill="#F19745"/>
<path d="M88.0397 70.9026C88.0397 76.6826 88.0151 82.4661 88.0644 88.246C88.0644 89.3001 87.8179 89.6831 86.6952 89.6515C84.2739 89.5777 84.2704 89.6515 84.2704 87.2446C84.2704 76.0291 84.2915 64.817 84.2422 53.605C84.2422 52.3927 84.4534 51.9184 85.7908 51.9887C88.0362 52.1117 88.0397 52.0203 88.0397 54.2163V70.9026Z" fill="#F29745"/>
<path d="M116.388 70.7621C116.388 64.94 116.42 59.1143 116.364 53.2887C116.364 52.21 116.695 51.9781 117.698 52.0027C120.161 52.0554 120.161 52.0027 120.161 54.4025C120.161 65.6146 120.161 76.8266 120.189 88.0387C120.189 89.2579 119.961 89.7252 118.63 89.6549C116.406 89.539 116.399 89.6269 116.399 87.4519L116.388 70.7621Z" fill="#F29745"/>
<path d="M104.095 70.7654C104.095 76.5875 104.071 82.4131 104.12 88.2387C104.12 89.2928 103.895 89.6864 102.758 89.6442C100.333 89.5669 100.329 89.6442 100.329 87.2408C100.329 75.9972 100.354 64.7289 100.298 53.4747C100.298 52.2168 100.681 51.9497 101.843 51.9919C104.092 52.0727 104.095 52.013 104.095 54.202V70.7654Z" fill="#F29745"/>
<path d="M98.7738 33.8477C98.2595 33.8613 97.7477 33.7724 97.2682 33.5862C96.7888 33.4 96.3513 33.1203 95.9813 32.7634C95.6114 32.4065 95.3164 31.9796 95.1137 31.5076C94.9109 31.0356 94.8043 30.5279 94.8003 30.0143C94.802 28.9576 95.2195 27.9437 95.9627 27.1912C96.7059 26.4387 97.7154 26.0078 98.7738 25.9912C99.8088 26.0278 100.791 26.4584 101.518 27.1948C102.245 27.9311 102.662 28.9173 102.684 29.9511C102.688 30.4646 102.59 30.9738 102.395 31.4489C102.2 31.924 101.912 32.3556 101.548 32.7183C101.184 33.0811 100.751 33.3678 100.275 33.5617C99.7983 33.7557 99.2881 33.8529 98.7738 33.8477Z" fill="#E3EA9E"/>
<path d="M61.2702 33.8407C60.7549 33.8408 60.2448 33.7382 59.7698 33.539C59.2947 33.3397 58.8643 33.0478 58.5037 32.6803C58.1431 32.3128 57.8597 31.8771 57.67 31.3988C57.4802 30.9205 57.388 30.4092 57.3988 29.8949C57.4262 28.8577 57.8571 27.8719 58.6002 27.1465C59.3432 26.4211 60.34 26.013 61.3793 26.0088C62.4176 26.051 63.4001 26.4892 64.1243 27.2332C64.8485 27.9771 65.2592 28.97 65.2719 30.0073C65.2613 30.5214 65.1494 31.0283 64.9426 31.4992C64.7358 31.9701 64.4381 32.3957 64.0665 32.7517C63.6949 33.1077 63.2567 33.3871 62.7769 33.5739C62.2971 33.7608 61.7851 33.8514 61.2702 33.8407Z" fill="#F27EA7"/>
<path d="M29.4864 83.2391C30.9803 84.1589 32.3449 85.2732 33.5443 86.5524C33.7731 86.7808 34.1708 87.0268 33.7977 87.4168C33.0762 88.1792 32.3548 88.9522 31.577 89.655C31.1125 90.0731 31.0139 89.4617 30.8379 89.2404C30.2326 88.4814 29.5427 87.9368 28.6242 88.6711C27.79 89.3422 28.0716 90.1399 28.6242 90.8777C29.0718 91.5219 29.4129 92.2337 29.6343 92.9859C30.3382 95.1609 30.3382 95.1573 28.406 96.236C28.1627 96.3378 27.9415 96.4857 27.7549 96.6717C26.6286 98.1439 24.978 98.1439 23.3872 98.1861C20.4063 98.2634 17.4217 98.3302 14.4478 97.9964C14.2332 97.9885 14.0224 97.9378 13.8277 97.8473C13.6331 97.7568 13.4586 97.6283 13.3145 97.4693C12.6266 96.6632 11.7138 96.0797 10.6925 95.7933C9.98864 95.6106 9.91473 95.189 10.0661 94.6163C10.418 93.2635 10.7313 91.8897 11.6006 90.7512C12.2024 89.9607 12.2657 89.1947 11.407 88.6009C10.5482 88.0071 9.86902 88.3549 9.41501 89.1455C8.961 89.9361 8.61609 89.7252 8.08465 89.1841C5.86035 86.9249 5.83919 86.9319 8.29929 84.9467C9.07709 84.3142 9.81968 83.6255 10.7453 83.1899C11.3471 82.9369 11.8575 83.2426 12.3678 83.478C14.7233 84.5582 17.2794 85.1339 19.8713 85.168C22.5519 85.2159 25.2079 84.6497 27.6352 83.5131C28.2195 83.2426 28.8001 82.9053 29.4864 83.2391Z" fill="#80ADDC"/>
<path d="M8.95384 73.759C7.77835 71.05 8.28163 68.5132 9.9217 66.2012C14.4336 59.8485 25.7064 59.852 30.1972 66.2012C31.7704 68.4288 32.3442 70.8673 31.2989 73.5201C29.8735 75.8989 27.4275 76.4364 24.992 77.0057C24.3902 77.1462 23.7285 77.487 23.1338 76.9319C23.6441 76.2292 24.267 75.6072 24.5415 74.7429C24.9639 73.3831 24.2212 72.0338 22.824 71.9565C20.986 71.8529 19.1435 71.8529 17.3055 71.9565C15.8977 72.0374 15.1305 73.492 15.6479 74.894C15.9451 75.5783 16.3622 76.2041 16.8797 76.7421C16.875 76.8077 16.8559 76.8714 16.8239 76.9289C16.7919 76.9863 16.7477 77.036 16.6943 77.0746C16.641 77.1131 16.5798 77.1394 16.5152 77.1518C16.4505 77.1642 16.3839 77.1623 16.32 77.1462C13.4834 76.837 10.8121 76.1729 8.95384 73.759Z" fill="#F7B6B1"/>
<path d="M5.18812 101.425C5.49079 99.3734 6.81406 98.1648 8.74624 98.1929C10.6784 98.221 11.9877 99.5175 12.2059 101.555C12.3386 102.46 12.3124 103.38 12.1285 104.275C10.6573 106.151 7.62357 106.485 5.79346 104.978C5.54958 104.794 5.3584 104.55 5.23916 104.269C5.11992 103.989 5.07676 103.682 5.11414 103.379C5.18805 102.732 5.07902 102.072 5.18812 101.425Z" fill="#F7B5B0"/>
<path d="M27.9555 104.254C27.9379 103.383 27.878 102.497 27.9132 101.644C27.9224 100.739 28.2867 99.8743 28.9277 99.235C29.5686 98.5957 30.4352 98.233 31.3412 98.2248C31.8005 98.204 32.2594 98.274 32.6916 98.4306C33.1239 98.5872 33.5209 98.8275 33.86 99.1375C34.199 99.4476 34.4734 99.8215 34.6675 100.238C34.8615 100.654 34.9715 101.104 34.9909 101.563C35.0472 102.385 34.9909 103.218 34.9909 104.047C33.5162 106.433 29.9088 106.538 27.9555 104.254Z" fill="#F7B5B0"/>
<path d="M2.87571 64.2546C2.87571 61.9532 5.64556 58.703 7.83818 58.3306C9.27764 58.0881 10.886 59.2055 11.2379 60.6145C11.3893 61.2258 10.974 61.3804 10.6432 61.6229C9.15186 62.7031 7.90772 64.0876 6.99346 65.6846C6.11008 67.2201 4.32223 67.2763 3.33678 65.7936C3.01491 65.3466 2.85254 64.8046 2.87571 64.2546Z" fill="#E27B7A"/>
<path d="M31.8266 58.2886C32.9739 58.3378 33.8819 58.9281 34.709 59.6694C35.9233 60.6879 36.7853 62.0623 37.1726 63.5977C37.3448 64.2134 37.2809 64.8712 36.9932 65.4423C36.7055 66.0135 36.2148 66.457 35.617 66.6862C34.5929 67.1043 33.7798 67.164 33.1956 65.8816C32.4607 64.2289 31.2552 62.8286 29.729 61.8549C28.5324 61.1065 28.828 60.3792 29.4439 59.5324C29.7236 59.1615 30.0826 58.8574 30.4947 58.6423C30.9069 58.4271 31.3618 58.3063 31.8266 58.2886Z" fill="#E27B7A"/>
<path d="M29.4865 83.239C27.8182 83.5904 26.3612 84.5144 24.693 84.9326C20.2198 86.064 15.9718 85.5018 11.8258 83.6361C11.4739 83.4744 11.0974 83.3444 10.7349 83.2003C11.9948 82.1076 13.1984 81.7281 14.9793 82.4133C18.1933 83.6888 21.7719 83.7026 24.9957 82.4519C26.8082 81.7527 28.1526 82.0444 29.4865 83.239Z" fill="#5279BC"/>
<path d="M20.2303 100.87C21.6381 100.87 23.0458 100.87 24.4255 100.87C24.9745 100.87 25.161 100.972 25.1294 101.601C25.0484 103.583 25.0801 103.523 23.0388 103.822C20.7781 104.108 18.4885 104.08 16.2357 103.738C15.1974 103.601 14.4514 101.921 15.0426 101.078C15.2538 100.779 15.6022 100.888 15.8943 100.888C17.3373 100.888 18.7803 100.888 20.2233 100.888L20.2303 100.87Z" fill="#E17B7A"/>
<path d="M23.1335 76.9284C26.213 76.6438 29.0462 75.7724 31.2986 73.5166C30.0246 77.213 27.1315 79.019 23.6051 80.0801C23.4777 80.1111 23.3484 80.1335 23.218 80.1469C22.6197 80.2382 21.9228 80.7442 21.4582 80.0344C20.9937 79.3247 21.5216 77.87 22.2219 77.4484C22.5316 77.2692 22.8343 77.1005 23.1335 76.9284Z" fill="#E17B7A"/>
<path d="M8.95361 73.7593C10.983 75.4902 13.4871 76.5712 16.1403 76.8618C16.4078 76.8935 16.6577 76.9497 16.8724 76.7389C18.0092 77.4029 19.1037 78.067 18.7095 79.7184C18.5969 80.1858 18.5124 80.4212 18.0056 80.3685C15.0493 80.0347 10.108 77.8035 8.95361 73.7593Z" fill="#E27B7A"/>
<path d="M32.8511 92.4304C33.4318 91.7909 34.0055 91.1409 34.6108 90.5154C35.8989 89.1486 35.9025 89.1522 36.8246 90.8668C37.8558 92.7782 37.3666 94.5983 35.5506 95.6243C33.8964 95.1816 33.4705 93.7234 32.8511 92.4304Z" fill="#F5B5B0"/>
<path d="M4.70574 95.6527C2.33362 94.4862 2.18583 92.2093 4.37845 89.3281L7.14117 92.2199C6.98984 93.8362 6.00793 94.8586 4.70574 95.6527Z" fill="#F6B5B0"/>
<path d="M5.18793 101.425C5.21257 101.731 5.25126 102.033 5.25478 102.335C5.28294 104.626 6.97226 105.947 9.28454 105.547C10.3404 105.361 11.2168 104.781 12.1283 104.275C12.1283 106.313 10.9211 107.789 9.06286 107.964C7.12715 108.161 5.5434 106.91 5.19145 104.907C4.95756 103.759 4.95636 102.575 5.18793 101.425Z" fill="#E17B7A"/>
<path d="M27.9556 104.254C29.4408 105.09 30.8838 106.011 32.7385 105.357C33.5596 105.063 34.3185 104.618 34.9769 104.047C34.9769 106.303 33.5058 107.944 31.4821 107.961C29.4584 107.979 27.9696 106.436 27.9556 104.254Z" fill="#E17B7A"/>
<path d="M4.70557 95.653C5.60655 94.5743 6.59197 93.5448 7.141 92.2236C8.22852 93.3375 7.34866 94.5075 6.9756 95.4457C6.66237 96.2292 5.53968 96.2503 4.70557 95.653Z" fill="#E07B7A"/>
<path d="M32.8511 92.4307C33.8541 93.4004 34.28 94.8586 35.5365 95.6175C34.7164 96.2219 33.5866 96.2605 33.1995 95.5262C32.7455 94.6689 32.119 93.5445 32.8511 92.4307Z" fill="#E07B7A"/>
<path d="M79.825 34.8559C79.0543 33.5137 78.3082 32.2382 77.5867 30.9487C77.4538 30.7193 77.3885 30.457 77.3985 30.1922C77.4084 29.9273 77.4932 29.6707 77.643 29.4519L79.7829 26.0015C79.9271 26.0998 80.0116 26.128 80.0468 26.1842C83.0172 31.1138 83.1685 29.234 79.825 34.8559Z" fill="#95B5DF"/>
<path d="M14.4302 67.3433C15.303 67.4698 15.838 67.9511 15.7535 68.819C15.7516 68.9961 15.7125 69.1709 15.639 69.3321C15.5655 69.4933 15.4591 69.6373 15.3266 69.7551C15.194 69.8729 15.0384 69.9617 14.8695 70.0159C14.7006 70.0701 14.5222 70.0885 14.3457 70.0699C14.1581 70.0775 13.9711 70.0433 13.7983 69.9699C13.6255 69.8966 13.4712 69.7857 13.3466 69.6455C13.222 69.5053 13.1302 69.3392 13.0778 69.1591C13.0253 68.9791 13.0136 68.7897 13.0435 68.6047C13.1068 67.8 13.6454 67.396 14.4302 67.3433Z" fill="#424252"/>
<path d="M24.3936 68.7451C24.4147 67.9264 24.8511 67.4099 25.6465 67.3677C25.8316 67.3397 26.0206 67.3533 26.1998 67.4075C26.3789 67.4617 26.5437 67.5552 26.682 67.6812C26.8203 67.8071 26.9286 67.9623 26.9991 68.1355C27.0696 68.3086 27.1006 68.4953 27.0895 68.6818C27.1062 68.8678 27.0818 69.0552 27.018 69.2308C26.9543 69.4063 26.8526 69.5657 26.7204 69.6978C26.5881 69.8298 26.4284 69.9312 26.2526 69.9949C26.0768 70.0586 25.8891 70.0829 25.7028 70.0662C24.9144 70.0627 24.4463 69.5673 24.3936 68.7451Z" fill="#414151"/>
</svg>
