<svg width="126" height="101" viewBox="0 0 126 101" fill="none" xmlns="http://www.w3.org/2000/svg">
<g clip-path="url(#clip0_80_5717)">
<path d="M0 53.9786C0.463719 53.5357 0.434105 52.8846 0.703785 52.3524C2.17058 49.457 4.47274 47.8473 7.72206 47.8076C12.1882 47.7547 16.6544 47.7547 21.1206 47.8076C22.1401 47.8076 22.3078 47.4771 22.3013 46.5681C22.2651 39.9774 22.3012 33.3866 22.2651 26.7991C22.246 26.2705 22.3414 25.744 22.5447 25.2561C22.748 24.7681 23.0543 24.3304 23.4425 23.9731C30.9519 16.4921 38.4426 8.9924 45.9147 1.47395C47.888 -0.492704 49.4568 -0.509232 51.4037 1.43098C53.673 3.69401 55.9357 5.96255 58.1918 8.2366C59.4119 9.46286 59.4744 9.85287 58.7542 11.3832C57.9451 12.2856 57.2709 12.4277 56.2909 11.8823C55.5279 11.4593 54.9556 10.8048 54.3472 10.1933L49.6541 5.47997C48.5852 4.40575 48.582 4.40905 47.5723 5.47997C47.4605 5.59896 47.3552 5.72457 47.2434 5.84356C41.4157 11.7369 35.5518 17.5906 29.5202 23.6922C41.7281 23.7186 53.6434 23.6922 65.5587 23.6922C66.4302 23.788 67.3379 23.5302 67.9792 23.8409C66.4997 22.5315 65.1139 21.1188 63.8321 19.6134C62.8684 18.4268 62.9836 17.4782 64.0162 16.6585C65.1673 15.8917 66.1211 16.1396 67.0617 17.108C69.3528 19.468 71.6747 21.796 74.0273 24.0921C74.372 24.4069 74.644 24.7937 74.8241 25.2254C75.0042 25.6571 75.0881 26.1232 75.0698 26.5909C75.0337 33.2676 75.0698 39.941 75.0238 46.6177C75.0238 47.6324 75.3329 47.801 76.2472 47.7911C80.2234 47.7448 84.1995 47.7481 88.1757 47.7911C92.9378 47.8241 96.3976 50.0519 98.4334 54.3323C102.406 62.6484 106.333 70.9888 110.214 79.3534C111.829 82.8471 114.348 84.6187 118.209 84.4535C119.639 84.3907 121.077 84.4237 122.514 84.4535C124.783 84.4931 125.99 85.7227 125.997 87.9769C125.997 91.1941 125.997 94.4079 125.997 97.6185C125.997 99.7537 124.77 100.96 122.626 100.963C116.765 100.963 110.901 100.996 105.037 100.963C100.226 100.93 96.766 98.6497 94.7499 94.2801C90.9711 86.1028 87.2548 77.8957 83.5385 69.6854C82.0914 66.4892 79.6248 64.9985 76.1848 64.8993C75.2803 64.8729 75.0172 65.0877 75.0271 66.0363C75.0764 71.2257 75.0501 76.4183 75.0501 81.6109C75.0501 86.8035 75.0501 91.9928 75.0501 97.1855C75.0501 99.5686 73.8892 100.745 71.5147 100.755C68.4013 100.771 65.2857 100.771 62.1679 100.755C59.9316 100.755 58.7311 99.6083 58.6785 97.3739C58.6226 95.0602 58.6522 92.7465 58.6785 90.4526C58.6785 89.2197 59.2606 88.4264 60.5531 88.2876C61.8456 88.1488 62.5823 88.7404 62.7994 90.2047C62.9901 91.507 62.875 92.8225 62.8816 94.1347C62.8816 96.8979 62.7402 96.6302 65.4173 96.6467C66.1934 96.6467 66.9696 96.6467 67.7424 96.6467C68.1922 96.6148 68.6434 96.6059 69.0941 96.6203C70.9523 96.6203 70.9885 96.5806 70.9885 94.6569C70.9885 88.1917 70.9885 81.7266 70.9885 75.2614C70.9885 73.1592 70.9884 73.1592 68.8737 73.1526C68.5052 73.1636 68.1363 73.1548 67.7687 73.1262C66.6209 73.1593 65.4666 73.1262 64.3287 73.1427C63.0131 73.1626 62.9211 73.2617 62.8882 74.5409C62.8553 75.82 62.977 77.1851 62.8158 78.5072C62.6284 80.0508 61.8555 80.7251 60.5466 80.5929C59.0666 80.1599 58.695 79.6938 58.6753 78.147C58.6555 76.6001 58.6424 75.0995 58.6753 73.5757C58.695 72.9147 58.5075 72.7428 57.8563 72.7461C51.7129 72.7692 45.5661 72.7825 39.4194 72.7461C38.4328 72.7461 38.6334 73.2981 38.6334 73.8401C38.6334 81.5812 38.6334 89.3222 38.6334 97.0632C38.6334 99.638 37.5382 100.759 35.0157 100.768C31.9462 100.768 28.8766 100.768 25.8071 100.768C23.5049 100.768 22.3802 99.6182 22.3111 97.2813C22.3111 97.2383 22.3111 97.1987 22.3111 97.1557C22.2815 96.1641 22.64 94.8751 22.1335 94.29C21.5514 93.6025 20.2162 94.0785 19.2131 94.0719C14.3786 94.0454 9.54406 94.0719 4.70954 94.0421C3.91037 94.0421 3.65056 94.2371 3.70318 95.0337C3.77553 96.1807 3.68014 97.3474 3.73276 98.4911C3.78539 99.5752 3.57162 100.517 2.4633 100.891C1.35498 101.264 0.585393 100.666 0.0295878 99.7339L0 53.9786Z" fill="#010101"/>
<path d="M67.6732 96.974C66.2064 96.9905 64.7363 96.974 63.2728 97.0302C62.615 97.0534 62.4276 96.8385 62.4374 96.1973C62.4736 94.3529 62.467 92.5086 62.4374 90.6642C62.421 89.1471 61.9836 88.6248 60.5332 88.2811C60.5332 85.7162 60.5332 83.1513 60.5332 80.5864C62.0526 80.1468 62.4309 79.651 62.444 78.0413C62.444 76.5605 62.4703 75.0665 62.444 73.599C62.444 72.9809 62.592 72.7131 63.2596 72.7396C64.7297 72.7958 66.2195 72.7826 67.6765 72.7991C68.1139 73.2684 68.0678 73.8601 68.0678 74.4286C68.0678 81.4028 68.0678 88.3758 68.0678 95.3478C68.0645 95.9163 68.1172 96.5113 67.6732 96.974Z" fill="#F7911F"/>
<path d="M64.0131 16.6818C63.2205 18.1427 63.2764 18.665 64.4308 19.8119C65.7463 21.134 67.1046 22.4561 68.5648 23.8973C67.4992 24.1782 66.5915 24.0559 65.6904 24.0195C65.2116 23.7838 64.7828 23.4572 64.4275 23.0577C58.9988 17.5951 53.5657 12.1315 48.1282 6.66673C47.7994 6.3362 47.3619 6.03542 47.2534 5.50988C48.5887 3.93986 48.5887 3.93986 49.9733 5.32809C51.8281 7.19007 53.6819 9.04986 55.5346 10.9074C56.7745 12.1469 57.2579 12.2295 58.7543 11.3966L64.0131 16.6818Z" fill="#F6C12D"/>
<path d="M26.1328 68.813C26.1065 68.5287 26.0571 68.2445 26.0571 67.9569C26.0571 54.9274 26.0571 41.8969 26.0571 28.8652C26.0571 28.5809 26.0999 28.2967 26.1229 28.0091C26.5044 27.7876 26.9254 27.8934 27.3266 27.8934C40.3633 27.8934 53.4012 27.8934 66.4402 27.8934C67.9168 27.8934 68.0615 27.9959 68.0615 29.4965C68.0812 42.1051 68.0812 54.7148 68.0615 67.3256C68.0615 68.8328 67.9168 68.9386 66.45 68.9386C53.4132 68.9386 40.3754 68.9386 27.3365 68.9386C26.9352 68.932 26.5143 69.0411 26.1328 68.813Z" fill="#56BA62"/>
<path d="M75.093 59.1714C75.093 56.8577 75.093 54.544 75.0371 52.2534C75.0371 51.6485 75.2377 51.4899 75.8133 51.4932C80.115 51.5163 84.4233 51.3874 88.7217 51.5494C91.8033 51.6651 93.9213 53.4268 95.2368 56.2429C99.157 64.6417 103.13 73.0107 107.076 81.4095C108.721 84.9263 111.352 87.1772 115.127 88.0002C117.137 88.4431 119.212 88.2977 121.254 88.2415C122.129 88.2184 122.379 88.4927 122.336 89.3488C122.261 90.9122 122.294 92.4756 122.28 94.0423C121.84 94.4588 121.294 94.3728 120.761 94.3728C116.785 94.3728 112.805 94.4389 108.833 94.3728C104.58 94.2902 101.555 92.2608 99.7458 88.3506C98.3119 85.2502 96.7628 82.206 95.1743 79.1784C93.2767 75.569 91.8165 71.758 90.2412 68.0065C89.4013 65.9851 88.1984 64.1364 86.6926 62.5527C85.4509 61.2142 83.8071 60.3214 82.0126 60.011C80.2769 59.6873 78.5159 59.5203 76.7506 59.5119C76.1717 59.5019 75.5732 59.611 75.093 59.1714Z" fill="#F7911F"/>
<path d="M47.2534 5.52637C48.1118 6.34939 48.9834 7.15918 49.822 8.00203C54.8144 13.0063 59.8024 18.0171 64.786 23.0345C65.1149 23.3651 65.3878 23.6956 65.6904 24.0261C61.9642 24.0261 58.238 24.0658 54.5085 24.0691C46.3962 24.0691 38.2838 24.0691 30.1715 24.0691H28.9843C28.8527 23.7386 29.0862 23.646 29.2145 23.5204C35.0904 17.6105 40.9719 11.704 46.8588 5.80071C46.9836 5.69986 47.1155 5.60817 47.2534 5.52637Z" fill="#F6D574"/>
<path d="M75.0929 59.1715C77.2519 59.1241 79.4112 59.2557 81.5488 59.5649C85.127 60.0607 87.337 62.3248 89.1327 65.207C90.685 67.6959 91.5697 70.4955 92.7142 73.1563C94.8157 78.0679 97.4928 82.6953 99.7226 87.5376C100.538 89.3126 101.456 90.952 103.051 92.1353C104.616 93.3447 106.529 94.0116 108.504 94.0358C113.108 94.0623 117.676 94.0358 122.264 94.0358C122.432 97.2519 122.432 97.2519 119.327 97.2519C114.696 97.2519 110.066 97.2519 105.439 97.2519C101.913 97.2519 99.4496 95.6521 97.9894 92.4361C94.3947 84.5034 90.7343 76.6334 87.2087 68.6842C85.0053 63.7263 81.3547 61.1316 75.9282 61.1646C75.2376 61.1646 74.9416 60.9696 75.0435 60.2689C75.0896 59.9119 75.0764 59.5384 75.0929 59.1715Z" fill="#F57F20"/>
<path d="M26.1329 68.8128C39.4952 68.8128 52.8576 68.793 66.2232 68.8359C67.4269 68.8359 67.7032 68.4856 67.6999 67.3155C67.6582 54.7091 67.6582 42.1027 67.6999 29.4963C67.6999 28.3163 67.4039 27.9792 66.2101 27.9858C52.8477 28.0254 39.4854 28.0089 26.123 28.0089C26.4223 27.566 26.8729 27.7941 27.2445 27.7941C41.5113 27.7941 55.778 27.7941 70.0448 27.7941C71.0314 27.7941 71.3603 27.9858 71.3603 29.06C71.3252 41.9969 71.3252 54.935 71.3603 67.8741C71.3603 68.8095 71.1038 69.0442 70.1895 69.0442C55.8394 69.0199 41.4904 69.0199 27.1426 69.0442C26.8071 69.0144 26.4026 69.2061 26.1329 68.8128Z" fill="#47AD4E"/>
<path d="M12.902 68.9881C10.2019 68.9881 7.49849 68.9583 4.7984 68.9881C3.98936 69.0046 3.63418 68.8691 3.68022 67.9403C3.75915 66.2876 3.72627 64.635 3.68022 63.0055C3.66378 62.3676 3.75586 62.0734 4.51557 62.0767C10.1613 62.1141 15.8093 62.1141 21.4594 62.0767C22.1172 62.0767 22.3079 62.2618 22.2947 62.9096C22.2553 64.6383 22.2487 66.3669 22.2947 68.0923C22.3145 68.8195 22.0349 68.9847 21.3673 68.9781C18.5422 68.9649 15.7172 68.9881 12.902 68.9881Z" fill="#FFFEFE"/>
<path d="M12.9711 79.6677C10.1888 79.6677 7.40318 79.6347 4.62416 79.6875C3.85458 79.6875 3.63752 79.4859 3.6737 78.729C3.7296 77.0036 3.72303 75.2717 3.6737 73.5463C3.65396 72.8852 3.87761 72.7365 4.50248 72.7398C10.1482 72.7618 15.794 72.7618 21.4397 72.7398C22.2027 72.7398 22.3014 73.0439 22.2882 73.6818C22.2553 75.3675 22.2389 77.0532 22.2882 78.7389C22.3145 79.5223 22.0416 79.6975 21.3016 79.6875C18.5357 79.6413 15.7501 79.6677 12.9711 79.6677Z" fill="white"/>
<path d="M13.0433 90.3207C10.2182 90.3207 7.39316 90.2976 4.56809 90.3207C3.88403 90.3207 3.65382 90.1554 3.67684 89.4415C3.72618 87.6732 3.71302 85.9048 3.67684 84.1332C3.67684 83.5515 3.82155 83.3664 4.42011 83.3697C10.1207 83.3939 15.8125 83.3939 21.4955 83.3697C22.0513 83.3697 22.3012 83.4854 22.2881 84.1101C22.2519 85.9214 22.242 87.7459 22.2881 89.544C22.3078 90.2877 21.9592 90.3141 21.387 90.3108C18.6112 90.3108 15.8289 90.3207 13.0433 90.3207Z" fill="white"/>
<path d="M12.8721 58.3156C10.126 58.3156 7.37985 58.2891 4.65016 58.3354C3.9036 58.3354 3.60762 58.1569 3.69642 57.3802C3.75891 56.8084 3.69642 56.2266 3.69642 55.6515C3.80166 53.2849 5.5184 51.5364 7.87975 51.5166C12.3887 51.4769 16.8976 51.5166 21.4065 51.4868C22.1136 51.4868 22.3142 51.6885 22.2945 52.3859C22.2485 54.0385 22.232 55.6912 22.2945 57.3438C22.3307 58.2098 21.9919 58.3552 21.2289 58.3354C18.4466 58.2924 15.661 58.3156 12.8721 58.3156Z" fill="#FEFEFE"/>
<path d="M31.2533 96.9744C29.7799 96.9909 28.3099 96.9744 26.8398 97.0339C26.1557 97.0603 26.0373 96.7695 26.0406 96.1679C26.0537 88.6494 26.0537 81.1299 26.0406 73.6092C26.0406 73.0044 26.159 72.7135 26.8398 72.7399C28.3099 72.7994 29.7997 72.7829 31.2533 72.7994C31.6907 73.2688 31.6447 73.8604 31.6447 74.429C31.6447 81.4031 31.6447 88.3762 31.6447 95.3482C31.648 95.9167 31.6973 96.5116 31.2533 96.9744Z" fill="#F7911F"/>
<path d="M31.2534 96.9742V72.7993C32.4308 72.7497 33.9239 72.3002 34.6968 72.9513C35.4697 73.6025 34.9204 75.1163 34.9237 76.2566C34.95 82.7978 34.9237 89.3357 34.9566 95.8769C34.9566 96.7693 34.7823 97.1494 33.8253 97.0436C32.9636 96.9412 32.1118 96.9907 31.2534 96.9742Z" fill="#F57F20"/>
<path d="M67.6733 96.9741V72.7991C68.8507 72.7529 70.3405 72.2967 71.1101 72.9611C71.8797 73.6255 71.3305 75.1294 71.3338 76.2664C71.3568 82.7977 71.3338 89.3289 71.3633 95.8602C71.3633 96.7361 71.2153 97.1493 70.2419 97.0402C69.3934 96.941 68.5284 96.9906 67.6733 96.9741Z" fill="#F47F21"/>
<path d="M60.0795 48.459C60.0774 49.9743 59.7765 51.4741 59.1942 52.8718C58.6119 54.2694 57.7597 55.5373 56.6869 56.6019C55.6141 57.6666 54.3419 58.507 52.944 59.0746C51.546 59.6421 50.05 59.9256 48.5424 59.9085C42.3365 59.8755 37.15 54.5969 37.1862 48.34C37.2224 41.9542 42.4483 36.8673 48.8976 36.907C55.0706 36.9532 60.1025 42.1492 60.0795 48.459Z" fill="#010101"/>
<path d="M45.1977 55.2481C42.4713 54.1574 40.7151 50.8587 40.942 47.9765C41.2216 44.4266 43.5731 41.6336 46.7862 40.88C50.5683 39.9942 54.1761 41.7823 55.6396 45.2694C56.1625 48.5747 53.9755 52.5246 50.6177 54.2532C48.9239 55.106 47.148 55.6943 45.1977 55.2481Z" fill="#EFE2DD"/>
<path d="M45.1978 55.248C49.3482 55.0299 52.7192 53.5227 54.6267 49.5464C55.2845 48.1846 55.3667 46.7038 55.6397 45.2495C57.1065 48.1549 56.4027 51.7345 53.8966 54.0978C51.509 56.3586 47.934 56.828 45.1978 55.248Z" fill="#E1D3CE"/>
</g>
<defs>
<clipPath id="clip0_80_5717">
<rect width="126" height="101" fill="white"/>
</clipPath>
</defs>
</svg>
