<svg width="115" height="126" viewBox="0 0 115 126" fill="none" xmlns="http://www.w3.org/2000/svg">
<g clip-path="url(#clip0_80_6061)">
<path d="M94.2107 7.3401C93.945 5.94656 94.5534 5.16161 95.8498 4.63748C99.1156 3.31349 102.347 1.90504 105.588 0.509013C105.9 0.374876 106.3 0.374876 106.479 0.012207H107.969C108.491 0.397148 108.933 0.879693 109.271 1.43307C111.899 5.33004 113.811 9.66465 114.918 14.2333C115.211 15.4455 114.831 16.2205 113.776 16.7347C103.345 21.8369 92.7777 26.6708 81.987 30.9434C78.5698 32.2972 75.0556 31.4203 71.7501 29.9498C70.645 29.453 69.7236 28.5562 68.2732 28.9686C67.5704 29.1673 66.8924 28.4991 66.6764 27.7265C66.4603 26.954 66.5944 26.1169 67.3643 25.6747C67.9429 25.3419 68.0448 24.9072 68.1838 24.3185C69.3411 19.4845 71.7253 15.6243 76.5184 13.5328C80.3678 11.8561 84.1228 9.96821 87.925 8.18716C89.4151 7.48666 89.9366 7.6059 91.0194 8.82059C91.4814 10.0626 91.305 10.7755 90.3092 11.4636C89.6187 11.9004 88.8886 12.2714 88.1287 12.5715C85.1063 13.9054 82.1683 15.4082 79.131 16.7322C78.2668 17.1098 78.1525 17.5818 78.6045 18.3394C78.9141 18.9148 79.1822 19.5117 79.4067 20.1254C80.2113 21.827 81.0036 23.5335 81.7039 25.2773C82.0715 26.1865 82.5706 26.4075 83.5019 26.0225C88.0268 24.128 92.5261 22.1739 96.9997 20.1602C101.174 18.2798 105.332 16.3671 109.454 14.3724C110.356 13.9352 110.559 13.5005 110.247 12.5764C109.591 10.553 108.76 8.59065 107.763 6.71164C106.611 4.51327 106.616 4.52818 104.403 5.41746C102.088 6.34649 99.8209 7.38481 97.5137 8.32875C96.8581 8.59951 96.19 8.78333 95.4847 8.6169C94.8092 8.43804 94.1983 8.18964 94.2107 7.3401Z" fill="#010101"/>
<path d="M2.42127 100.141C2.5827 98.9788 2.1009 97.861 2.17292 96.7034C3.46681 95.7098 3.56367 94.356 3.53635 92.8656C3.46681 89.0551 3.47674 85.2471 3.30042 81.4391C3.05207 75.9518 3.43453 70.4596 3.58354 64.9749C3.78966 57.2744 4.18206 49.5913 4.93455 41.9256C5.05127 40.7432 5.13323 39.5583 5.24747 38.3734C5.32694 37.5587 5.68704 37.1115 6.54135 37.037C9.06954 36.8159 11.6052 36.6793 14.1383 36.5402C19.1227 36.2471 24.1194 36.1527 29.1038 35.8422C31.026 35.723 32.9556 35.7925 34.8828 35.8149C35.2121 35.8144 35.538 35.8801 35.8414 36.0081C36.1447 36.1361 36.4192 36.3238 36.6486 36.5601C37.4334 37.3401 38.3473 37.9884 39.1122 38.7833C42.3829 42.1839 46.4608 43.0061 50.946 42.5689C51.7332 42.4919 52.4932 42.4373 53.2407 42.7602C53.9162 43.0533 54.6066 43.1601 55.1803 42.5714C55.754 41.9827 55.528 41.3841 55.2921 40.7357C54.7531 39.2453 55.1952 37.74 55.3392 36.2496C55.3964 35.6509 55.9551 35.4224 56.5239 35.3553C57.2567 35.2552 57.9992 35.2469 58.7342 35.3305C61.5951 35.7031 64.466 35.5789 67.332 35.5267C72.7435 35.4249 78.1475 35.6882 83.5516 35.8447C90.5898 36.0484 97.6279 36.3415 104.661 36.8383C108.108 37.0867 108.208 36.7936 108.451 40.3159C108.751 44.6878 109.052 49.0589 109.355 53.4291C110.187 65.3401 110.162 77.2634 110.013 89.1992C109.951 94.1424 109.844 99.1055 109.365 104.041C109.293 104.786 109.345 105.517 109.318 106.255C109.285 107.116 109.246 107.978 108.806 108.758C106.971 109.591 106.126 109.183 105.799 107.313C105.655 106.816 105.575 106.284 105.111 105.942C104.155 105.239 102.938 105.825 102.672 107.104C102.545 107.713 102.796 108.421 102.212 108.917C101.929 109.039 101.624 109.102 101.316 109.102C101.008 109.102 100.703 109.039 100.419 108.917C99.9028 108.493 100.057 107.887 99.9972 107.34C99.8829 106.294 99.2745 105.653 98.4226 105.691C97.6205 105.728 97.0865 106.344 96.9847 107.35C96.9326 107.864 97.0443 108.413 96.6519 108.855C96.443 108.982 96.1953 109.028 95.9547 108.986C95.7141 108.944 95.4969 108.817 95.3431 108.627C95.0799 108.234 95.0948 107.782 95.0799 107.34C95.0377 106.433 94.7421 105.738 93.6991 105.688C92.8274 105.646 92.2512 106.25 92.0798 107.315C91.988 107.892 92.1891 108.557 91.5459 108.967C89.5569 109.235 87.5415 109.241 85.5508 108.987C84.9622 108.694 85.0392 108.123 84.9994 107.611C84.9523 107.032 84.8529 106.478 84.4009 106.066C84.2177 105.89 83.9908 105.767 83.7439 105.71C83.4969 105.652 83.239 105.662 82.9972 105.738C82.7553 105.814 82.5383 105.954 82.3689 106.143C82.1995 106.331 82.0839 106.562 82.0342 106.811C81.8976 107.397 82.0565 108.036 81.7362 108.592C81.5909 108.788 81.3797 108.925 81.1414 108.978C80.9032 109.03 80.6539 108.995 80.4398 108.878C80.03 108.498 80.1219 107.983 80.0697 107.506C79.9431 106.314 79.3719 105.651 78.5051 105.691C77.6384 105.73 77.1566 106.369 77.0498 107.487C77.0026 107.998 77.1169 108.567 76.6003 108.937C75.2617 109.283 73.9082 109.119 72.5597 109.061C71.909 108.937 71.6433 108.418 71.3925 107.899C69.4504 103.925 67.6027 99.9153 65.6929 95.9284C64.615 93.6729 65.1242 91.2584 65.1788 88.9085C65.2011 87.9497 65.9487 88.2925 66.4429 88.5956C67.8734 89.4699 69.2939 90.3642 70.717 91.256C71.8941 92.0012 73.0614 92.7464 74.2658 93.4543C75.2816 94.043 76.1434 93.9114 76.6351 93.1314C77.0896 92.411 76.8834 91.5714 75.9248 90.9405C72.7782 88.8738 69.5597 86.9163 66.3634 84.9291C65.8518 84.6087 65.2806 84.3603 65.1341 83.6498C64.841 82.2538 65.1689 81.5782 66.5248 81.1261C68.4446 80.4827 70.0439 79.4394 71.2261 77.7577C73.6177 74.3596 72.587 69.861 68.9462 67.8216C68.3601 67.4937 67.5754 67.444 67.255 66.7063C67.2529 66.6415 67.2641 66.5769 67.2881 66.5167C67.312 66.4564 67.3481 66.4017 67.3941 66.356C67.6528 66.2263 67.9477 66.1878 68.231 66.2467C69.0779 66.3163 69.6962 65.9735 69.8999 65.1364C70.1035 64.2992 69.7062 63.7205 68.981 63.3156C67.4909 62.4884 65.9114 62.2524 64.2351 62.3418C59.1737 62.6076 54.6762 66.9472 54.4228 71.8457C54.2266 75.6538 56.658 79.4469 60.2317 80.8826C60.5744 81.0217 60.9296 81.131 61.2623 81.2851C61.8733 81.5757 62.067 82.07 61.9577 82.7034C61.8484 83.3369 61.3791 83.466 60.86 83.471C57.1331 83.5124 53.4038 83.5124 49.6719 83.471C49.1352 83.4335 48.6194 83.2477 48.1819 82.9345C43.5849 80.0828 39.0153 77.1889 34.3985 74.3695C34.0512 74.1882 33.7652 73.9083 33.5766 73.5648C33.3879 73.2214 33.3049 72.8299 33.3381 72.4394C33.3609 72.1915 33.3609 71.9421 33.3381 71.6942C33.1245 70.1491 33.6634 69.2673 35.238 68.6687C39.2239 67.1534 41.0543 62.707 40.3589 58.653C40.2695 58.1364 40.0013 57.6346 40.2422 57.0931C40.3137 57.0261 40.4018 56.9793 40.4973 56.9575C40.5929 56.9356 40.6925 56.9396 40.7861 56.9689C41.1486 57.1353 41.2828 57.4905 41.4914 57.7961C41.6514 58.0629 41.8972 58.2677 42.1886 58.3769C42.4799 58.486 42.7997 58.4932 43.0957 58.3972C43.7985 58.2308 44.0891 57.7166 44.1412 57.0459C44.2041 56.3927 44.195 55.7346 44.1139 55.0835C43.3962 49.8944 38.6503 45.4554 33.4623 44.8145C31.7596 44.6071 30.0325 44.754 28.3893 45.2461C26.7461 45.7381 25.2224 46.5647 23.9138 47.6739C22.6052 48.7831 21.5401 50.1509 20.7853 51.6915C20.0304 53.232 19.6022 54.9121 19.5275 56.6261C19.3636 59.664 20.3669 62.4486 22.3313 64.8234C24.0524 66.8975 26.1782 68.388 28.8331 69.0065C29.8885 69.2549 30.2238 69.8461 30.3232 70.9068C30.5268 72.9313 29.9655 74.2304 27.9912 75.1743C24.3727 76.9132 20.8859 78.9128 17.3668 80.8454C15.9985 81.5906 15.5738 82.3134 16.0183 83.1903C16.4976 84.1293 17.4761 84.2361 18.7924 83.5306C22.0755 81.767 25.3661 80.0157 28.6344 78.2198C29.8513 77.5491 30.2636 77.7801 30.2785 79.1836C30.3083 81.8887 30.2934 84.5938 30.2785 87.2989C30.2709 87.8744 30.1361 88.4411 29.8836 88.9582C26.9911 95.1137 24.0805 101.26 21.1517 107.397C20.8561 108.013 20.6351 108.714 19.9099 109.002C19.1102 109.201 18.2957 109.119 17.4885 109.121C15.3279 109.121 15.3279 109.121 15.0051 107.097C14.7567 106.168 14.26 105.537 13.1971 105.678C12.1813 105.817 11.9926 106.642 11.861 107.474C11.7865 107.949 11.8933 108.468 11.5108 108.86C11.3744 108.943 11.2189 108.99 11.0593 108.996C10.8997 109.001 10.7413 108.966 10.5994 108.893C10.1176 108.495 10.274 107.916 10.1896 107.402C10.0629 106.657 9.87418 105.912 9.00993 105.708C8.14568 105.504 7.48508 105.825 7.08772 106.64C6.7599 107.283 7.05792 108.031 6.74749 108.676C6.67537 108.795 6.5688 108.889 6.44202 108.945C5.62744 109.146 4.87246 109.176 4.44034 108.259C4.20848 106.947 4.09873 105.617 4.11252 104.285C4.0852 102.601 3.88901 101.152 2.42127 100.141Z" fill="#F7F9F9"/>
<path d="M2.42119 100.141C4.0578 100.685 4.32353 101.092 4.40797 102.874C4.48247 104.704 4.61657 106.53 4.72585 108.358C5.62735 110.023 5.27221 111.881 5.48828 113.644C5.70434 115.408 5.81858 117.229 5.98497 119.025C6.06693 119.931 6.48167 120.354 7.37076 120.381C10.7259 120.478 14.0761 120.706 17.4239 120.903C22.9422 121.228 28.4704 121.25 33.9837 121.601C34.1874 121.613 34.3935 121.626 34.5971 121.63C45.6958 121.891 56.797 122.025 67.8956 121.837C74.1565 121.73 80.4223 121.633 86.6757 121.34C93.093 121.049 99.5128 120.744 105.928 120.381C107.214 120.309 107.467 120.036 107.587 118.759C107.862 115.825 107.984 112.877 108.314 109.948C108.364 109.496 108.399 109.049 108.677 108.664C109.156 104.836 109.228 100.981 109.382 97.1379C109.933 83.287 109.851 69.4385 109.134 55.5925C108.836 49.9488 108.314 44.3175 107.969 38.6787C107.897 37.5212 107.4 37.3796 106.4 37.315C90.0085 36.2419 73.5754 35.8494 57.1422 35.7352C55.9526 35.7352 55.5354 36.0357 55.6148 37.1933C55.6475 37.8075 55.5915 38.4233 55.4484 39.0215C55.3094 39.6177 55.3094 40.0822 55.7266 40.6063C56.3077 41.3516 56.2009 42.1738 55.585 42.842C54.9294 43.5574 54.0577 43.7412 53.2679 43.155C52.6967 42.7302 52.1653 42.7252 51.5543 42.8296C48.2695 43.4162 44.883 42.9238 41.9011 41.4261C39.7504 40.3778 38.3124 38.4726 36.5963 36.9101C36.3153 36.628 35.9776 36.4086 35.6056 36.2664C35.2336 36.1243 34.8358 36.0626 34.4382 36.0854C25.1003 36.3065 15.7699 36.776 6.4469 37.3498C5.91792 37.3821 5.67454 37.4516 5.61742 38.0751C3.95027 56.6506 3.4054 75.3098 3.98577 93.9509C4.04041 95.7469 3.8318 96.0698 2.18774 96.6833C0.650465 96.2014 0.312706 95.7469 0.25807 94.1372C-0.147565 82.0019 -0.0581556 69.8715 0.52629 57.7462C0.86901 50.4655 1.35328 43.1873 2.13061 35.9364C2.31687 34.2124 2.87567 33.81 4.72089 33.7007C13.6614 33.1865 22.6293 32.7071 31.6592 32.4289C31.5673 31.9718 31.2022 31.7657 30.9365 31.5048C25.804 26.4407 20.765 21.2781 15.8196 16.0169C14.6449 14.7749 14.6076 14.1291 15.606 12.6908C18.2695 8.83979 21.6172 5.51065 25.4828 2.86893C26.7543 1.99456 27.4 2.02685 28.5176 3.08256C36.8405 10.9321 44.9251 19.0185 52.7712 27.3416C53.7646 28.4073 54.3582 29.7188 54.8027 31.0801C55.0213 31.7483 55.287 32.0339 56.0594 32.0339C67.5777 32.0339 79.0912 32.2699 90.5996 32.7419C96.7785 32.9903 102.955 33.3828 109.131 33.7206C110.587 33.8001 111.277 34.4509 111.399 35.7824C112.047 42.9637 112.573 50.15 112.934 57.3537C113.393 66.5694 113.458 75.7902 113.4 85.0134C113.348 93.7497 112.891 102.466 112.335 111.178C112.087 114.904 111.717 118.605 111.391 122.316C111.28 123.558 110.634 124.159 109.29 124.239C104.015 124.557 98.7429 124.907 93.4631 125.15C77.2029 125.896 60.9361 126.144 44.6627 125.896C34.0905 125.742 23.5208 125.438 12.9685 124.755C10.0231 124.567 7.07853 124.395 4.13478 124.241C2.97499 124.182 2.29453 123.64 2.17035 122.482C1.46504 115.757 0.961721 109.018 0.660392 102.265C0.588371 101.011 1.32846 100.437 2.42119 100.141Z" fill="#010101"/>
<path d="M94.2107 7.34008C95.1867 8.53241 95.8349 8.69636 97.2778 8.08528C100.047 6.91531 102.831 5.77266 105.57 4.53561C106.36 4.18039 106.812 4.17542 107.174 5.01503C107.41 5.57145 107.721 6.09807 107.999 6.63958C107.579 7.19352 106.931 7.38479 106.343 7.64561C98.0353 11.2226 89.8249 15.0207 81.5723 18.7219C80.7155 19.1069 79.8537 19.492 79.1757 20.1751C78.7163 19.1815 77.7899 18.1208 77.934 17.229C78.0706 16.377 79.5954 16.1981 80.5193 15.756C83.4846 14.3326 86.4523 12.9142 89.4598 11.5803C90.7487 11.009 91.2777 10.1719 91.007 8.80566L94.2107 7.34008Z" fill="#709DD3"/>
<path d="M79.1883 20.1751C79.0915 19.5268 79.5733 19.3479 80.0253 19.1418C84.2248 17.2117 88.412 15.2543 92.6264 13.354C96.6497 11.5406 100.7 9.78443 104.743 8.01332C105.824 7.53887 106.921 7.09671 108.012 6.63965C109.288 8.69146 110.033 10.9668 110.825 13.2273C111.133 14.1116 110.49 14.1986 110.018 14.4246C102.593 17.9718 95.1174 21.4147 87.5378 24.6091C85.998 25.2599 84.4533 25.8959 82.9284 26.574C82.3995 26.8075 82.094 26.8746 81.8183 26.2039C80.9739 24.1844 80.06 22.1872 79.1883 20.1751Z" fill="#8AB2DE"/>
<path d="M75.5003 21.3901L78.4805 27.7567C76.1684 27.6747 74.1767 27.1506 72.3637 26.0502C71.1567 25.3174 72.0905 24.4405 72.2892 23.6208C73.1609 22.5949 74.0872 21.641 75.5003 21.3901Z" fill="#F5E166"/>
<path d="M75.5003 21.3899L72.2842 23.6256C72.6194 21.9985 73.4936 20.6696 74.5963 19.353C74.9995 19.982 75.3043 20.6689 75.5003 21.3899Z" fill="#E9BC69"/>
<path d="M108.66 108.687C108.66 111.516 108.265 114.318 108.099 117.132C108.051 117.949 107.935 118.764 107.915 119.581C107.895 120.399 107.535 120.704 106.723 120.742C103.613 120.888 100.514 121.122 97.3997 121.261C80.6611 122.006 63.9125 122.478 47.154 122.212C36.2267 122.041 25.2993 121.792 14.372 121.102C11.9606 120.95 9.54663 120.833 7.13268 120.771C6.05982 120.744 5.62273 120.461 5.56312 119.249C5.38183 115.614 5.01428 111.99 4.71875 108.366C5.26512 108.932 5.99525 108.575 6.6186 108.744C7.04824 109.201 6.93897 109.822 7.1153 110.361C7.34378 111.106 7.7337 111.603 8.57063 111.603C9.4622 111.603 9.87693 111.079 10.1178 110.301C10.2842 109.767 10.1004 109.136 10.5549 108.682H11.5235C11.9755 109.089 11.819 109.675 11.9357 110.172C12.1593 111.138 12.7776 111.662 13.6394 111.566C14.5707 111.471 14.8215 110.82 14.8811 110.023C14.9234 109.372 14.8811 108.721 14.9109 108.07C14.9333 107.638 14.8439 107.154 15.3133 106.866C15.7007 108.696 15.7007 108.699 17.7049 108.696C18.517 108.696 19.3266 108.696 20.1387 108.696C20.4193 109.357 19.9549 109.866 19.7612 110.418C19.4582 111.275 19.6147 111.951 20.4119 112.405C21.1569 112.827 21.9963 112.559 22.4856 111.722C23.017 110.808 23.4541 109.842 23.916 108.888C24.1147 108.478 24.3035 108.043 24.9094 108.229C26.0394 108.478 27.1818 108.369 28.3192 108.371C31.8979 108.371 35.4791 108.391 39.0553 108.359C39.6638 108.321 39.9097 108.744 40.1058 109.211C40.3923 109.89 40.7068 110.552 41.0496 111.198C41.7002 112.42 42.4825 112.837 43.3493 112.44C44.1688 112.06 44.3427 111.255 43.9105 109.983C43.7417 109.486 43.2698 108.925 44.0645 108.51C47.5288 108.297 51.0025 108.288 54.4678 108.483C55.0216 108.649 54.9645 109.037 54.8105 109.454C54.6565 109.871 54.4082 110.254 54.3138 110.696C54.2221 111.013 54.2395 111.351 54.3634 111.657C54.4873 111.962 54.7104 112.217 54.9968 112.38C55.6301 112.783 56.2385 112.629 56.7774 112.132C57.3164 111.635 57.5647 110.92 57.8677 110.251C58.193 109.529 58.3843 108.669 59.3429 108.453C62.0747 108.331 64.8065 108.339 67.5384 108.453C68.2412 108.557 68.5144 109.114 68.8 109.663C69.1576 110.351 69.4655 111.064 69.8679 111.727C70.3248 112.472 70.968 112.857 71.8224 112.455C72.6767 112.052 72.8158 111.362 72.6022 110.495C72.4581 109.919 71.9838 109.409 72.2123 108.756L76.6825 108.709C77.1792 109.096 77.0252 109.668 77.0824 110.172C77.1817 111.069 77.6163 111.605 78.5551 111.608C79.4938 111.61 79.9235 111.054 80.0601 110.182C80.1395 109.685 79.9756 109.106 80.4673 108.716C80.8461 108.765 81.2311 108.712 81.5824 108.562C82.1412 108.972 81.9301 109.591 81.9922 110.127C82.0866 110.94 82.397 111.543 83.296 111.603C84.1951 111.662 84.7017 111.136 84.9376 110.304C85.0891 109.775 84.8706 109.146 85.3772 108.716H91.6976C92.1174 109.032 92.018 109.514 92.0851 109.941C92.2589 111.036 92.7953 111.613 93.6571 111.615C94.5586 111.615 94.9858 111.096 95.0975 109.894C95.1422 109.429 95.0056 108.9 95.4899 108.565C95.8435 108.713 96.23 108.764 96.61 108.714C97.1067 109.106 96.9353 109.69 97.0197 110.204C97.1638 111.089 97.6058 111.643 98.562 111.615C99.461 111.59 99.8484 111.026 99.985 110.207C100.072 109.71 99.8956 109.119 100.392 108.716H102.285C102.719 109.081 102.595 109.611 102.682 110.075C102.878 111.094 103.427 111.63 104.274 111.595C105.121 111.561 105.543 111.034 105.667 109.931C105.772 108.997 105.325 107.979 106.077 107.141C106.358 108.716 106.358 108.716 108.66 108.687Z" fill="#BDDC96"/>
<path d="M72.1847 108.726C72.4331 109.282 72.6814 109.831 72.8975 110.403C73.081 110.838 73.0906 111.327 72.9243 111.769C72.758 112.212 72.4284 112.573 72.0035 112.78C71.7941 112.887 71.5656 112.952 71.3311 112.971C71.0966 112.99 70.8606 112.963 70.6366 112.891C70.4126 112.819 70.2051 112.703 70.0259 112.551C69.8466 112.398 69.6992 112.212 69.592 112.002C68.9811 110.917 68.457 109.782 67.8958 108.669C66.803 107.178 66.13 105.462 65.3726 103.795C64.8014 102.541 64.2004 101.311 63.4851 100.012C62.9437 100.573 62.7674 101.162 62.5339 101.711C61.6647 103.743 60.567 105.665 59.7276 107.71C59.5926 108.099 59.3444 108.439 59.0148 108.686C58.5182 109.7 58.0215 110.716 57.4875 111.719C56.9138 112.824 55.9378 113.237 54.9668 112.812C53.9957 112.387 53.6232 111.287 54.1224 110.127C54.3285 109.645 54.5471 109.165 54.7607 108.686C54.6936 107.993 55.0313 107.407 55.3145 106.83C57.115 103.152 58.7913 99.4107 60.6018 95.7443C61.1476 94.7357 61.4199 93.6019 61.3915 92.4554C61.3369 91.1463 61.3369 89.8323 61.3915 88.5232C61.4338 87.5296 61.0687 87.147 60.0455 87.1594C56.5686 87.2042 53.0918 87.1594 49.6149 87.1893C48.5507 87.1996 47.5077 86.8917 46.6198 86.3049C42.7986 83.9203 38.9781 81.534 35.1585 79.146C34.1478 78.5125 34.0137 78.5871 34.0087 79.7769C33.9963 82.0299 34.0087 84.2805 34.0087 86.5335C34.0076 87.3151 34.1878 88.0863 34.5352 88.7865C37.1329 94.1247 39.5965 99.525 42.1793 104.871C42.7779 106.113 43.4981 107.315 43.7166 108.713C43.9153 109.21 44.1165 109.687 44.3127 110.176C44.7795 111.327 44.4741 112.32 43.5105 112.785C42.5469 113.249 41.551 112.857 40.9848 111.769C40.4186 110.681 39.9045 109.603 39.3656 108.517C38.4616 107.628 38.1238 106.426 37.6023 105.328C35.8067 101.542 33.9888 97.7911 32.228 94.0079C32.1873 93.9079 32.126 93.8175 32.0481 93.7426C31.9703 93.6678 31.8776 93.61 31.776 93.5732C31.0683 95.3791 30.1047 97.0658 29.2926 98.8294C27.9341 101.763 26.5806 104.699 25.1129 107.583C24.9663 107.871 24.8645 108.192 24.5218 108.328C23.973 109.454 23.439 110.589 22.8703 111.702C22.2718 112.874 21.2883 113.254 20.2701 112.742C19.3139 112.266 19.0283 111.289 19.525 110.132C19.7262 109.635 19.9299 109.165 20.1335 108.681C22.2668 104.24 24.189 99.6814 26.5905 95.389C29.3497 90.4483 30.6858 85.3312 30.0475 79.7049C30.0159 79.0859 30.0159 78.4658 30.0475 77.8468C27.8124 79.0491 25.7288 80.1595 23.6576 81.2723C21.9663 82.179 20.285 83.1006 18.5913 84.0047C17.3048 84.6829 16.294 84.4668 15.7353 83.4309C15.1765 82.3951 15.5763 81.4263 16.8478 80.7382C20.9357 78.5274 25.0235 76.3067 29.1361 74.1382C29.7992 73.7904 30.1295 73.4352 30.0624 72.6602C29.9855 71.7237 30.3108 70.6556 29.9457 69.8706C29.5806 69.0856 28.3613 69.2819 27.5417 68.9689C24.7183 67.9153 22.3579 65.8978 20.8774 63.2724C19.3969 60.6471 18.8915 57.583 19.4505 54.6211C20.5184 48.8408 25.843 44.4366 31.8555 44.3397C38.4889 44.2404 44.2481 49.6655 44.5536 56.3053C44.6281 57.8827 44.2431 58.603 43.21 58.8241C42.0477 59.0725 41.3871 58.5906 40.8407 57.0853C40.5378 56.8096 40.5452 56.4345 40.503 56.0693C39.9815 51.757 36.5294 48.4458 32.1386 48.3688C27.5318 48.2844 24.1468 51.7049 23.434 55.426C22.3463 61.097 27.0475 66.2439 32.7843 65.5732C35.5013 65.2578 37.3962 62.1105 36.6735 59.1147C36.5592 58.6378 36.3605 58.1832 36.2438 57.7063C35.9061 56.2904 36.5816 55.2372 37.9698 54.9913C39.2116 54.7702 40.2422 55.6694 40.3639 57.1002C41.5759 61.6658 40.3937 65.6577 37.1056 68.0895C36.3705 68.6779 35.5177 69.1015 34.6047 69.3316C33.8597 69.4905 33.82 69.8855 33.7256 70.5189C33.4002 72.7173 34.1974 73.9966 36.2091 75.1293C40.4111 77.4717 44.417 80.1644 48.4998 82.718C48.8598 82.9864 49.2929 83.1388 49.7415 83.1552C53.427 83.1353 57.1125 83.1552 60.8005 83.1403C61.178 83.1403 61.6622 83.2918 61.6697 82.6112C61.6697 82.097 61.697 81.6499 61.0463 81.476C56.6878 80.306 53.8269 76.0285 54.1298 71.5274C54.4229 67.1903 57.9792 63.3152 62.6457 62.2372C64.7368 61.7404 66.7832 61.8397 68.7476 62.7663C70.2228 63.4618 70.7543 64.4281 70.3048 65.531C69.9074 66.5072 68.9537 66.8053 67.4835 66.4128C66.7385 66.4625 66.0605 66.0651 65.3204 66.0154C62.0174 65.8042 58.7094 68.4274 58.2003 71.6889C57.8203 74.1133 59.4768 76.6818 61.9454 77.504C64.4884 78.3511 67.2526 77.3575 68.4347 75.174C69.2865 73.5966 68.5464 71.669 66.7931 70.9039C66.4181 70.74 66.0058 70.6754 65.6308 70.514C64.3047 69.9476 63.7931 68.7453 64.3494 67.5133C64.8461 66.4302 66.053 66.1023 67.3718 66.696C69.5547 67.4959 71.3205 68.7776 72.3039 70.9611C73.8884 74.476 72.2717 78.5771 68.4496 80.6687C67.8138 81.0164 67.0787 81.1655 66.4305 81.5008C66.0555 81.6896 65.3179 81.4462 65.3775 82.246C65.4371 83.0459 65.0969 83.816 66.0605 84.3922C69.4182 86.4043 72.7336 88.4909 76.054 90.57C77.4969 91.4742 77.7005 93.0193 76.5234 93.8738C75.7038 94.4675 74.929 94.2489 74.1417 93.7521C71.5539 92.1201 68.9513 90.5104 66.3535 88.8933C66.0853 88.7269 65.8146 88.5629 65.3601 88.2872C65.5241 91.3798 64.9976 94.2638 66.5845 97.1005C68.6483 100.841 70.3246 104.833 72.1847 108.726Z" fill="#010101"/>
<path d="M92.6538 68.0252C86.0403 67.9879 80.8374 62.6721 80.8871 56.0025C80.9343 49.6285 86.2489 44.3698 92.6737 44.34C99.2623 44.3102 104.567 49.7378 104.512 56.4521C104.46 62.7914 99.0562 68.0625 92.6538 68.0252Z" fill="#010101"/>
<path d="M40.3367 57.0981C39.4004 55.404 38.566 54.9072 37.4683 55.3866C36.3706 55.866 36.2837 56.7429 36.8698 58.6556C37.5155 60.7595 37.0982 62.6896 35.6653 64.3688C34.1379 66.1673 32.0841 66.3039 30.0327 65.8419C25.1353 64.7414 22.5823 60.4764 22.9374 56.4423C23.3745 51.5786 27.1916 48.091 31.8581 48.0338C36.8102 47.9742 40.8682 52.0778 40.8135 57.0906L40.3367 57.0981Z" fill="#8AB2DE"/>
<path d="M67.337 66.6938C67.0116 66.6789 66.6838 66.6515 66.356 66.6491C65.2111 66.6491 64.4909 67.208 64.3816 68.219C64.2624 69.3442 64.8187 70.0795 65.8717 70.2882C66.765 70.4218 67.5886 70.8482 68.2136 71.5004C69.4082 72.7896 69.4777 74.4588 68.4024 75.8524C67.9106 76.4963 67.2913 77.0319 66.5832 77.4257C65.8752 77.8195 65.0936 78.063 64.2872 78.1411C63.4809 78.2192 62.667 78.1301 61.8966 77.8795C61.1262 77.6289 60.4157 77.2221 59.8095 76.6845C59.1909 76.1432 58.6928 75.478 58.3474 74.7319C58.0021 73.9859 57.817 73.1757 57.8044 72.3536C57.7918 71.5316 57.9518 70.7161 58.2741 69.9598C58.5964 69.2035 59.0738 68.5232 59.6754 67.9631C61.5728 66.1572 63.8104 65.1959 66.5075 65.9014C66.8716 65.9605 67.2056 66.1398 67.4562 66.4106C67.4115 66.5174 67.3742 66.5994 67.337 66.6938Z" fill="#DE636F"/>
<path d="M98.6908 69.3841C99.0967 69.4152 99.4793 69.5862 99.7733 69.8679C100.067 70.1497 100.254 70.5248 100.303 70.9292C100.816 73.7792 101.299 76.635 101.753 79.4966C101.828 79.989 101.706 80.4912 101.414 80.8949C101.123 81.2986 100.684 81.5717 100.193 81.6552C99.7219 81.7279 99.2409 81.6123 98.8539 81.3335C98.4669 81.0547 98.205 80.635 98.1245 80.1648C97.603 77.3156 97.1088 74.4515 96.6667 71.5999C96.4705 70.333 97.3398 69.3642 98.6908 69.3841Z" fill="#020202"/>
<path d="M69.3438 43.925C69.3438 42.6979 70.3669 41.7366 71.4944 42.0545C74.1493 42.7997 76.7818 43.6617 79.3696 44.6181C80.276 44.9534 80.6436 45.8601 80.2288 46.8711C79.8141 47.8821 78.8878 48.2746 77.6858 47.8945C75.6741 47.2586 73.6749 46.5804 71.6708 45.9073C71.2406 45.7849 70.8191 45.6339 70.4092 45.4552C70.111 45.3188 69.8548 45.1048 69.6674 44.8357C69.48 44.5666 69.3683 44.2521 69.3438 43.925Z" fill="#020202"/>
<path d="M86.0774 71.3164C85.9781 71.5946 85.8663 71.9846 85.6999 72.3497C84.7529 74.4214 83.7967 76.4914 82.8315 78.5598C82.2504 79.8018 81.3215 80.239 80.3033 79.8018C79.1932 79.3224 78.8654 78.3114 79.4465 77.0396C80.4234 74.8868 81.4167 72.7464 82.4267 70.6184C82.8563 69.7142 83.579 69.2074 84.6022 69.4384C85.4888 69.6272 85.9334 70.2954 86.0774 71.3164Z" fill="#020202"/>
<path d="M72.6393 58.8689C71.7427 58.8689 70.8437 58.8912 69.9472 58.8689C68.8768 58.8391 68.2609 58.1783 68.1814 57.1971C68.1019 56.2159 68.6508 55.4061 69.6715 55.2919C71.6972 55.0596 73.7428 55.0596 75.7684 55.2919C76.809 55.4136 77.2933 56.1787 77.2089 57.2195C77.1244 58.2603 76.4787 58.8242 75.4456 58.8639C74.5068 58.9012 73.5681 58.8639 72.6293 58.8639L72.6393 58.8689Z" fill="#040404"/>
<path d="M10.5397 108.681C10.5218 109.289 10.4712 109.895 10.3882 110.497C10.1994 111.521 9.53385 112.062 8.49328 112.017C7.49989 111.975 6.91626 111.421 6.77967 110.435C6.70268 109.876 6.66792 109.31 6.61328 108.746C6.91378 108.065 6.61327 107.335 6.7896 106.647C7.11245 105.527 7.88233 105.08 8.99742 105.273C10.0603 105.46 10.3832 106.267 10.4602 107.223C10.4925 107.718 10.5123 108.199 10.5397 108.681Z" fill="#040504"/>
<path d="M15.2906 106.866C15.2906 107.924 15.3254 108.987 15.2906 110.045C15.2459 111.322 14.5456 112.032 13.4479 112.032C12.3824 112.032 11.6622 111.262 11.5753 110.03C11.5455 109.583 11.5331 109.134 11.5107 108.686C11.5356 108.239 11.5579 107.79 11.5828 107.343C11.6498 106.088 12.2185 105.355 13.2268 105.261C14.3891 105.162 15.0795 105.713 15.2906 106.866Z" fill="#030403"/>
<path d="M80.45 108.686C80.4326 109.218 80.4376 109.752 80.3954 110.281C80.3773 110.756 80.1741 111.205 79.8293 111.532C79.4845 111.86 79.0254 112.039 78.5502 112.032C78.3145 112.037 78.0801 111.996 77.8605 111.91C77.6409 111.824 77.4404 111.696 77.2704 111.532C77.1004 111.369 76.9643 111.174 76.8698 110.958C76.7753 110.742 76.7244 110.509 76.7198 110.273C76.6801 109.744 76.6826 109.21 76.6652 108.679C76.6478 108.147 76.6776 107.539 76.7198 106.97C76.7361 106.496 76.938 106.049 77.282 105.723C77.626 105.398 78.0842 105.221 78.5576 105.231C79.0299 105.225 79.486 105.403 79.8292 105.727C80.1723 106.052 80.3754 106.498 80.3954 106.97C80.4302 107.546 80.4302 108.117 80.45 108.686Z" fill="#020202"/>
<path d="M85.3599 108.686C85.3425 109.183 85.34 109.657 85.3027 110.139C85.2133 111.302 84.4137 112.064 83.3532 112.025C82.2928 111.985 81.6595 111.297 81.6148 110.107C81.5899 109.583 81.585 109.056 81.5726 108.532C81.5601 108.008 81.5924 107.556 81.6197 107.069C81.6818 105.956 82.3077 105.293 83.3309 105.246C83.8028 105.204 84.2722 105.35 84.6371 105.653C85.0021 105.955 85.2332 106.389 85.2804 106.86C85.338 107.467 85.3645 108.077 85.3599 108.686Z" fill="#020302"/>
<path d="M95.4724 108.535C95.4575 109.101 95.4724 109.667 95.4252 110.231C95.3556 111.322 94.6975 111.987 93.6867 112.025C93.2171 112.047 92.7564 111.89 92.3984 111.585C92.0405 111.28 91.812 110.85 91.7596 110.383C91.6875 109.824 91.7074 109.252 91.6851 108.686C91.7049 108.117 91.6851 107.546 91.7521 106.982C91.8663 105.882 92.6635 105.194 93.7165 105.243C94.7298 105.29 95.3705 105.969 95.4301 107.069C95.4525 107.558 95.4575 108.048 95.4724 108.535Z" fill="#020302"/>
<path d="M100.375 108.686C100.36 109.218 100.362 109.749 100.32 110.278C100.304 110.754 100.103 111.204 99.7586 111.532C99.4144 111.86 98.9551 112.039 98.4797 112.032C98.0043 112.041 97.5447 111.861 97.2013 111.532C96.858 111.203 96.6586 110.751 96.6469 110.276C96.6072 109.747 96.6097 109.215 96.5923 108.684C96.6097 108.112 96.5923 107.541 96.6469 106.972C96.6631 106.499 96.8648 106.052 97.2082 105.726C97.5516 105.401 98.0093 105.224 98.4822 105.233C98.955 105.225 99.4122 105.403 99.7558 105.728C100.099 106.053 100.302 106.499 100.32 106.972C100.367 107.543 100.36 108.117 100.375 108.686Z" fill="#020202"/>
<path d="M106.064 107.109C106.064 108.127 106.064 109.148 106.032 110.164C105.982 111.309 105.352 111.965 104.326 112.022C103.3 112.079 102.481 111.379 102.339 110.271C102.275 109.747 102.285 109.213 102.262 108.684C102.282 108.234 102.302 107.787 102.324 107.34C102.386 106.056 103.027 105.295 104.093 105.243C105.22 105.186 105.801 105.738 106.064 107.109Z" fill="#030303"/>
<path d="M6.78483 106.659C6.71778 107.357 6.98599 108.085 6.6085 108.758C6.67059 108.058 6.42225 107.332 6.78483 106.659Z" fill="#BDDC96"/>
<path d="M21.0971 11.8064C22.5499 10.0179 24.271 8.5101 26.064 7.06191C26.5831 6.63963 26.9034 6.69428 27.3852 7.15382C34.594 14.023 41.6305 21.0611 48.4948 28.2681C48.8798 28.673 49.1058 28.9587 48.5817 29.4579C46.8632 31.0924 45.1868 32.7716 43.4931 34.426C42.9418 34.5552 42.676 34.1205 42.3755 33.8174C35.4681 26.9267 28.5707 20.0277 21.6832 13.1205C21.3355 12.7901 20.7742 12.4771 21.0971 11.8064Z" fill="#DE636F"/>
<path d="M21.0972 11.8066C21.1121 12.219 21.4002 12.4624 21.6609 12.7208C28.8051 19.8665 35.9509 27.0114 43.0983 34.1555C43.2226 34.2612 43.3546 34.3575 43.4932 34.4436C41.6554 36.6047 41.6405 36.6196 39.6711 34.7516C32.8664 28.2932 26.2603 21.6384 19.8033 14.8496C19.2544 14.2758 19.2371 13.8982 19.7387 13.3592C20.2404 12.8201 20.6427 12.3283 21.0972 11.8066Z" fill="#DB4B55"/>
<path d="M46.4385 36.9076L51.2714 32.3618C52.0632 34.3851 52.1996 36.606 51.6613 38.711C51.4651 39.5133 50.3947 39.3121 49.6546 39.327C48.619 39.1308 47.8019 38.5172 46.9948 37.9037C46.6819 37.6652 46.3268 37.4044 46.4385 36.9076Z" fill="#F5E166"/>
<path d="M46.4386 36.9077C47.2457 38.0653 48.5843 38.5174 49.6547 39.3272C47.9926 39.4915 46.3152 39.2599 44.7598 38.6515L46.4386 36.9077Z" fill="#E8BC69"/>
<path d="M43.7018 108.714C41.3449 103.793 39.1595 98.7775 36.5767 93.9808C34.3539 89.8573 33.1966 85.6444 33.7132 80.9744C33.815 80.0454 33.7281 79.094 33.7281 78.1327C34.2596 78.0308 34.5675 78.4258 34.9251 78.6469C38.9881 81.1591 43.0445 83.6837 47.0942 86.2207C47.7441 86.6447 48.5063 86.8637 49.2821 86.8491C53.0073 86.8268 56.745 86.8665 60.4752 86.8193C61.3494 86.8193 61.8237 86.9609 61.63 87.9371C61.6238 87.9775 61.6238 88.0185 61.63 88.0589C62.0994 92.2966 61.1482 96.1767 59.0298 99.8903C57.4205 102.717 56.1713 105.748 54.7607 108.686L43.7018 108.714Z" fill="#F7F9F9"/>
<path d="M24.5171 108.336C26.936 103.171 29.3566 98.0059 31.7788 92.8408C31.8756 92.8855 31.98 92.898 32.0048 92.9501C34.4568 98.1368 36.9047 103.326 39.3484 108.518C39.0305 108.766 38.6506 108.694 38.2905 108.694C34.0537 108.694 29.8168 108.694 25.58 108.694C25.2001 108.691 24.7381 108.848 24.5171 108.336Z" fill="#F7F9F8"/>
<path d="M59.0151 108.687L63.4531 98.9839C65.0301 102.419 66.4631 105.544 67.8961 108.672L59.0151 108.687Z" fill="#F7F8F8"/>
<path d="M92.6709 64.2818C91.6056 64.2851 90.5501 64.0773 89.5655 63.6704C88.5809 63.2634 87.6866 62.6654 86.9343 61.9109C86.182 61.1564 85.5866 60.2603 85.1825 59.2743C84.7784 58.2884 84.5735 57.2321 84.5797 56.1665C84.5909 54.0146 85.4521 51.9545 86.9757 50.4352C88.4994 48.9159 90.5617 48.0607 92.7131 48.0562C94.8653 48.0731 96.9239 48.9385 98.442 50.4644C99.9601 51.9903 100.815 54.0536 100.822 56.2063C100.818 57.2721 100.604 58.3268 100.192 59.3098C99.7798 60.2929 99.1781 61.185 98.421 61.9351C97.6639 62.6852 96.7663 63.2786 95.7796 63.6813C94.7929 64.084 93.7365 64.2881 92.6709 64.2818Z" fill="#F6E266"/>
<path d="M33.7034 53.8639C33.7265 54.357 33.5548 54.8394 33.2254 55.2071C32.896 55.5747 32.4352 55.798 31.9426 55.8287C30.979 55.8536 30.0601 54.9544 30.0278 53.9558C30.0351 53.4604 30.2258 52.9853 30.5629 52.6224C30.9001 52.2595 31.3598 52.0345 31.8532 51.9909C32.099 51.9875 32.343 52.0337 32.5705 52.1269C32.798 52.2201 33.0043 52.3583 33.1771 52.5333C33.3499 52.7082 33.4856 52.9162 33.576 53.1448C33.6664 53.3735 33.7098 53.6181 33.7034 53.8639Z" fill="#030509"/>
<path d="M28.9572 56.0172C28.9497 56.5116 28.7519 56.984 28.405 57.3361C28.058 57.6882 27.5886 57.8929 27.0945 57.9076C26.0018 57.9076 25.2816 57.1624 25.2766 56.0396C25.266 55.795 25.3045 55.5507 25.3901 55.3213C25.4756 55.0918 25.6063 54.8819 25.7745 54.704C25.9426 54.5261 26.1448 54.3837 26.369 54.2855C26.5932 54.1872 26.8349 54.1349 27.0796 54.1318C27.5749 54.1445 28.0462 54.3474 28.3958 54.6985C28.7454 55.0496 28.9465 55.5218 28.9572 56.0172Z" fill="#020406"/>
<path d="M62.7626 72.5435C62.7587 73.0607 62.551 73.5556 62.1847 73.9206C61.8183 74.2857 61.3228 74.4915 60.8056 74.4934C60.3114 74.4561 59.8502 74.2309 59.5168 73.8641C59.1833 73.4973 59.0029 73.0168 59.0126 72.5211C59.0537 72.0294 59.2698 71.5687 59.6216 71.2227C59.9734 70.8768 60.4376 70.6685 60.9298 70.6357C61.4248 70.6488 61.8946 70.8563 62.2377 71.2134C62.5807 71.5704 62.7693 72.0483 62.7626 72.5435Z" fill="#0B0303"/>
<path d="M67.9803 73.4527C67.9696 73.9692 67.7602 74.4616 67.3957 74.8276C67.0312 75.1936 66.5396 75.4049 66.0233 75.4176C65.5503 75.3901 65.1034 75.1919 64.7654 74.8598C64.4275 74.5277 64.2214 74.0842 64.1856 73.6117C64.1842 73.0965 64.381 72.6006 64.7351 72.2265C65.0892 71.8524 65.5736 71.6289 66.0879 71.6021C66.5835 71.5988 67.0604 71.7913 67.4148 72.1379C67.7692 72.4845 67.9725 72.957 67.9803 73.4527Z" fill="#070202"/>
</g>
<defs>
<clipPath id="clip0_80_6061">
<rect width="115" height="126" fill="white"/>
</clipPath>
</defs>
</svg>
