<svg width="482" height="528" viewBox="0 0 482 528" fill="none" xmlns="http://www.w3.org/2000/svg">
<g clip-path="url(#clip0_80_5790)">
<path d="M189.655 2.1543C184.979 2.74628 180.341 3.46433 175.742 4.30846C176.72 5.25979 177.907 5.971 179.207 6.38588C180.508 6.80077 181.888 6.90794 183.237 6.69903C184.586 6.49011 185.868 5.97082 186.982 5.18209C188.096 4.39336 189.011 3.35681 189.655 2.1543Z" fill="white"/>
<path d="M223.591 6.80779C225.555 6.80791 227.462 6.15263 229.011 4.94599C230.559 3.73935 231.659 2.05058 232.136 0.14799C229.304 0.0657699 226.439 0 223.591 0C220.742 0 217.877 -6.02785e-06 215.029 0.14799C215.512 2.0505 216.616 3.73805 218.166 4.94409C219.717 6.15012 221.625 6.80587 223.591 6.80779Z" fill="white"/>
<path d="M265.117 6.80794C266.271 6.81364 267.415 6.59142 268.483 6.154C269.551 5.71658 270.523 5.07262 271.341 4.25914C266.741 3.42598 262.103 2.70793 257.427 2.10498C258.167 3.50685 259.272 4.68356 260.625 5.51121C261.978 6.33885 263.53 6.78679 265.117 6.80794Z" fill="white"/>
<path d="M98.6834 33.4634C96.9313 33.4634 95.2187 33.9822 93.7619 34.9543C92.3051 35.9264 91.1697 37.3081 90.4993 38.9247C89.8288 40.5413 89.6534 42.32 89.9952 44.0361C90.337 45.7523 91.1806 47.3287 92.4195 48.5659C93.6583 49.8032 95.2367 50.6457 96.9551 50.9871C98.6735 51.3285 100.455 51.1533 102.073 50.4837C103.692 49.8141 105.075 48.6801 106.049 47.2253C107.022 45.7704 107.542 44.06 107.542 42.3103C107.542 39.9639 106.608 37.7136 104.947 36.0545C103.286 34.3954 101.033 33.4634 98.6834 33.4634Z" fill="white"/>
<path d="M140.292 33.4634C138.539 33.4634 136.827 33.9822 135.37 34.9543C133.913 35.9264 132.778 37.3081 132.107 38.9247C131.437 40.5413 131.262 42.32 131.603 44.0361C131.945 45.7523 132.789 47.3287 134.028 48.5659C135.267 49.8032 136.845 50.6457 138.563 50.9871C140.282 51.3285 142.063 51.1533 143.682 50.4837C145.3 49.8141 146.684 48.6801 147.657 47.2253C148.63 45.7704 149.15 44.06 149.15 42.3103C149.15 39.9639 148.217 37.7136 146.555 36.0545C144.894 34.3954 142.641 33.4634 140.292 33.4634Z" fill="white"/>
<path d="M181.9 33.4634C180.148 33.4634 178.435 33.9822 176.978 34.9543C175.522 35.9264 174.386 37.3082 173.716 38.9247C173.045 40.5413 172.87 42.32 173.212 44.0362C173.554 45.7523 174.397 47.3287 175.636 48.5659C176.875 49.8032 178.453 50.6458 180.172 50.9871C181.89 51.3285 183.671 51.1533 185.29 50.4837C186.909 49.8141 188.292 48.6802 189.265 47.2253C190.239 45.7704 190.758 44.06 190.758 42.3103C190.761 41.1479 190.533 39.9965 190.088 38.9222C189.644 37.8478 188.992 36.8717 188.169 36.0497C187.346 35.2278 186.368 34.5762 185.293 34.1324C184.217 33.6886 183.064 33.4612 181.9 33.4634Z" fill="white"/>
<path d="M223.591 33.4634C221.839 33.4634 220.126 33.9822 218.669 34.9543C217.212 35.9264 216.077 37.3082 215.406 38.9247C214.736 40.5413 214.561 42.32 214.902 44.0362C215.244 45.7523 216.088 47.3287 217.327 48.5659C218.566 49.8032 220.144 50.6458 221.862 50.9871C223.581 51.3285 225.362 51.1533 226.981 50.4837C228.599 49.8141 229.983 48.6802 230.956 47.2253C231.93 45.7704 232.449 44.06 232.449 42.3103C232.451 41.1479 232.224 39.9965 231.779 38.9222C231.335 37.8478 230.682 36.8717 229.859 36.0497C229.036 35.2278 228.059 34.5762 226.983 34.1324C225.907 33.6886 224.755 33.4612 223.591 33.4634Z" fill="white"/>
<path d="M265.116 33.4634C263.364 33.4634 261.652 33.9822 260.195 34.9543C258.738 35.9264 257.603 37.3081 256.932 38.9247C256.262 40.5413 256.086 42.32 256.428 44.0361C256.77 45.7523 257.614 47.3287 258.853 48.5659C260.092 49.8032 261.67 50.6457 263.388 50.9871C265.107 51.3285 266.888 51.1533 268.506 50.4837C270.125 49.8141 271.509 48.6801 272.482 47.2253C273.455 45.7704 273.975 44.06 273.975 42.3103C273.975 39.9639 273.042 37.7136 271.38 36.0545C269.719 34.3954 267.466 33.4634 265.116 33.4634Z" fill="white"/>
<path d="M306.708 33.4634C304.957 33.4666 303.246 33.9882 301.791 34.9623C300.337 35.9364 299.204 37.3192 298.536 38.9361C297.868 40.5529 297.695 42.3312 298.039 44.0463C298.382 45.7613 299.227 47.3361 300.467 48.5717C301.706 49.8073 303.285 50.6483 305.003 50.9883C306.721 51.3284 308.501 51.1522 310.119 50.4821C311.736 49.812 313.119 48.6781 314.092 47.2236C315.064 45.7691 315.583 44.0593 315.583 42.3103C315.583 41.1471 315.354 39.9953 314.907 38.9209C314.461 37.8465 313.807 36.8704 312.983 36.0487C312.159 35.227 311.18 34.5757 310.103 34.1321C309.027 33.6885 307.873 33.4612 306.708 33.4634Z" fill="white"/>
<path d="M348.316 33.4634C346.564 33.4634 344.852 33.9822 343.395 34.9543C341.938 35.9264 340.803 37.3081 340.132 38.9247C339.462 40.5413 339.286 42.32 339.628 44.0361C339.97 45.7523 340.814 47.3287 342.053 48.5659C343.291 49.8032 344.87 50.6457 346.588 50.9871C348.307 51.3285 350.088 51.1533 351.706 50.4837C353.325 49.8141 354.709 48.6801 355.682 47.2253C356.655 45.7704 357.175 44.06 357.175 42.3103C357.175 39.9639 356.242 37.7136 354.58 36.0545C352.919 34.3954 350.666 33.4634 348.316 33.4634Z" fill="white"/>
<path d="M57.075 77.7964C55.3229 77.7964 53.6103 78.3152 52.1535 79.2873C50.6968 80.2594 49.5613 81.6412 48.8909 83.2577C48.2204 84.8743 48.045 86.6531 48.3868 88.3692C48.7286 90.0853 49.5723 91.6617 50.8112 92.8989C52.05 94.1362 53.6284 94.9788 55.3468 95.3201C57.0652 95.6615 58.8463 95.4863 60.4649 94.8167C62.0836 94.1471 63.4671 93.0131 64.4405 91.5583C65.4139 90.1034 65.9334 88.393 65.9334 86.6433C65.9334 84.2969 65.0002 82.0467 63.3389 80.3876C61.6776 78.7285 59.4244 77.7964 57.075 77.7964Z" fill="white"/>
<path d="M98.6834 77.7964C96.9313 77.7964 95.2187 78.3152 93.7619 79.2873C92.3051 80.2594 91.1697 81.6412 90.4993 83.2577C89.8288 84.8743 89.6534 86.6531 89.9952 88.3692C90.337 90.0853 91.1806 91.6617 92.4195 92.8989C93.6583 94.1362 95.2367 94.9788 96.9551 95.3201C98.6735 95.6615 100.455 95.4863 102.073 94.8167C103.692 94.1471 105.075 93.0131 106.049 91.5583C107.022 90.1034 107.542 88.393 107.542 86.6433C107.542 84.2969 106.608 82.0467 104.947 80.3876C103.286 78.7285 101.033 77.7964 98.6834 77.7964Z" fill="white"/>
<path d="M140.292 77.7964C138.539 77.7964 136.827 78.3152 135.37 79.2873C133.913 80.2594 132.778 81.6412 132.107 83.2577C131.437 84.8743 131.262 86.6531 131.603 88.3692C131.945 90.0853 132.789 91.6617 134.028 92.8989C135.267 94.1362 136.845 94.9788 138.563 95.3201C140.282 95.6615 142.063 95.4863 143.682 94.8167C145.3 94.1471 146.684 93.0131 147.657 91.5583C148.63 90.1034 149.15 88.393 149.15 86.6433C149.15 84.2969 148.217 82.0467 146.555 80.3876C144.894 78.7285 142.641 77.7964 140.292 77.7964Z" fill="white"/>
<path d="M181.9 77.7964C180.148 77.7964 178.435 78.3152 176.978 79.2873C175.522 80.2594 174.386 81.6412 173.716 83.2577C173.045 84.8743 172.87 86.6531 173.212 88.3692C173.554 90.0853 174.397 91.6617 175.636 92.8989C176.875 94.1362 178.453 94.9788 180.172 95.3201C181.89 95.6615 183.671 95.4863 185.29 94.8167C186.909 94.1471 188.292 93.0131 189.265 91.5583C190.239 90.1034 190.758 88.393 190.758 86.6433C190.758 84.2969 189.825 82.0467 188.164 80.3876C186.503 78.7285 184.249 77.7964 181.9 77.7964Z" fill="white"/>
<path d="M223.591 77.7964C221.839 77.7964 220.126 78.3152 218.669 79.2873C217.212 80.2594 216.077 81.6412 215.406 83.2577C214.736 84.8743 214.561 86.6531 214.902 88.3692C215.244 90.0853 216.088 91.6617 217.327 92.8989C218.566 94.1362 220.144 94.9788 221.862 95.3201C223.581 95.6615 225.362 95.4863 226.981 94.8167C228.599 94.1471 229.983 93.0131 230.956 91.5583C231.93 90.1034 232.449 88.393 232.449 86.6433C232.449 84.2969 231.516 82.0467 229.854 80.3876C228.193 78.7285 225.94 77.7964 223.591 77.7964Z" fill="white"/>
<path d="M265.116 77.7964C263.364 77.7964 261.652 78.3152 260.195 79.2873C258.738 80.2594 257.603 81.6412 256.932 83.2577C256.262 84.8743 256.086 86.6531 256.428 88.3692C256.77 90.0853 257.614 91.6617 258.853 92.8989C260.092 94.1362 261.67 94.9788 263.388 95.3201C265.107 95.6615 266.888 95.4863 268.506 94.8167C270.125 94.1471 271.509 93.0131 272.482 91.5583C273.455 90.1034 273.975 88.393 273.975 86.6433C273.975 84.2969 273.042 82.0467 271.38 80.3876C269.719 78.7285 267.466 77.7964 265.116 77.7964Z" fill="white"/>
<path d="M306.708 77.7964C304.957 77.7997 303.246 78.3213 301.791 79.2954C300.337 80.2695 299.204 81.6523 298.536 83.2691C297.868 84.886 297.695 86.6642 298.039 88.3793C298.382 90.0943 299.227 91.6691 300.467 92.9047C301.706 94.1403 303.285 94.9813 305.003 95.3213C306.721 95.6614 308.501 95.4852 310.119 94.8151C311.736 94.1451 313.119 93.0111 314.092 91.5566C315.064 90.1021 315.583 88.3923 315.583 86.6433C315.583 85.4801 315.354 84.3283 314.907 83.2539C314.461 82.1795 313.807 81.2035 312.983 80.3818C312.159 79.5601 311.18 78.9087 310.103 78.4651C309.027 78.0215 307.873 77.7942 306.708 77.7964Z" fill="white"/>
<path d="M348.316 77.7964C346.564 77.7964 344.852 78.3152 343.395 79.2873C341.938 80.2594 340.803 81.6412 340.132 83.2577C339.462 84.8743 339.286 86.6531 339.628 88.3692C339.97 90.0853 340.814 91.6617 342.053 92.8989C343.291 94.1362 344.87 94.9788 346.588 95.3201C348.307 95.6615 350.088 95.4863 351.706 94.8167C353.325 94.1471 354.709 93.0131 355.682 91.5583C356.655 90.1034 357.175 88.393 357.175 86.6433C357.175 84.2969 356.242 82.0467 354.58 80.3876C352.919 78.7285 350.666 77.7964 348.316 77.7964Z" fill="white"/>
<path d="M389.892 77.7964C388.14 77.7964 386.427 78.3152 384.971 79.2873C383.514 80.2594 382.378 81.6412 381.708 83.2577C381.038 84.8743 380.862 86.6531 381.204 88.3692C381.546 90.0853 382.389 91.6617 383.628 92.8989C384.867 94.1362 386.446 94.9788 388.164 95.3201C389.882 95.6615 391.663 95.4863 393.282 94.8167C394.901 94.1471 396.284 93.0131 397.258 91.5583C398.231 90.1034 398.751 88.393 398.751 86.6433C398.751 84.2969 397.817 82.0467 396.156 80.3876C394.495 78.7285 392.242 77.7964 389.892 77.7964Z" fill="white"/>
<path d="M15.4666 122.129C13.7145 122.129 12.0019 122.648 10.5451 123.62C9.08835 124.592 7.95294 125.974 7.28247 127.591C6.61199 129.207 6.43657 130.986 6.77837 132.702C7.12018 134.418 7.9639 135.995 9.20277 137.232C10.4416 138.469 12.0201 139.312 13.7384 139.653C15.4568 139.995 17.2379 139.819 18.8566 139.15C20.4752 138.48 21.8587 137.346 22.8321 135.891C23.8055 134.436 24.325 132.726 24.325 130.976C24.325 129.814 24.096 128.664 23.6508 127.591C23.2056 126.517 22.5531 125.542 21.7305 124.721C20.9079 123.899 19.9313 123.247 18.8566 122.803C17.7818 122.358 16.6299 122.129 15.4666 122.129Z" fill="white"/>
<path d="M57.075 122.129C55.3229 122.129 53.6103 122.648 52.1535 123.62C50.6968 124.592 49.5613 125.974 48.8909 127.591C48.2204 129.207 48.045 130.986 48.3868 132.702C48.7286 134.418 49.5723 135.995 50.8112 137.232C52.05 138.469 53.6284 139.312 55.3468 139.653C57.0652 139.995 58.8463 139.819 60.4649 139.15C62.0836 138.48 63.4671 137.346 64.4405 135.891C65.4139 134.436 65.9334 132.726 65.9334 130.976C65.9334 128.63 65.0002 126.38 63.3389 124.721C61.6776 123.061 59.4244 122.129 57.075 122.129Z" fill="white"/>
<path d="M98.6834 122.129C96.9313 122.129 95.2187 122.648 93.7619 123.62C92.3051 124.592 91.1697 125.974 90.4993 127.591C89.8288 129.207 89.6534 130.986 89.9952 132.702C90.337 134.418 91.1806 135.995 92.4195 137.232C93.6583 138.469 95.2367 139.312 96.9551 139.653C98.6735 139.995 100.455 139.819 102.073 139.15C103.692 138.48 105.075 137.346 106.049 135.891C107.022 134.436 107.542 132.726 107.542 130.976C107.542 128.63 106.608 126.38 104.947 124.721C103.286 123.061 101.033 122.129 98.6834 122.129Z" fill="white"/>
<path d="M140.292 122.129C138.539 122.129 136.827 122.648 135.37 123.62C133.913 124.592 132.778 125.974 132.107 127.591C131.437 129.207 131.262 130.986 131.603 132.702C131.945 134.418 132.789 135.995 134.028 137.232C135.267 138.469 136.845 139.312 138.563 139.653C140.282 139.995 142.063 139.819 143.682 139.15C145.3 138.48 146.684 137.346 147.657 135.891C148.63 134.436 149.15 132.726 149.15 130.976C149.15 128.63 148.217 126.38 146.555 124.721C144.894 123.061 142.641 122.129 140.292 122.129Z" fill="white"/>
<path d="M181.9 122.129C180.148 122.129 178.435 122.648 176.978 123.62C175.522 124.592 174.386 125.974 173.716 127.591C173.045 129.207 172.87 130.986 173.212 132.702C173.554 134.418 174.397 135.995 175.636 137.232C176.875 138.469 178.453 139.312 180.172 139.653C181.89 139.995 183.671 139.819 185.29 139.15C186.909 138.48 188.292 137.346 189.265 135.891C190.239 134.436 190.758 132.726 190.758 130.976C190.758 128.63 189.825 126.38 188.164 124.721C186.503 123.061 184.249 122.129 181.9 122.129Z" fill="white"/>
<path d="M223.591 122.129C221.839 122.129 220.126 122.648 218.669 123.62C217.212 124.592 216.077 125.974 215.406 127.591C214.736 129.207 214.561 130.986 214.902 132.702C215.244 134.418 216.088 135.995 217.327 137.232C218.566 138.469 220.144 139.312 221.862 139.653C223.581 139.995 225.362 139.819 226.981 139.15C228.599 138.48 229.983 137.346 230.956 135.891C231.93 134.436 232.449 132.726 232.449 130.976C232.449 128.63 231.516 126.38 229.854 124.721C228.193 123.061 225.94 122.129 223.591 122.129Z" fill="white"/>
<path d="M265.116 122.129C263.364 122.129 261.652 122.648 260.195 123.62C258.738 124.592 257.603 125.974 256.932 127.591C256.262 129.207 256.086 130.986 256.428 132.702C256.77 134.418 257.614 135.995 258.853 137.232C260.092 138.469 261.67 139.312 263.388 139.653C265.107 139.995 266.888 139.819 268.506 139.15C270.125 138.48 271.509 137.346 272.482 135.891C273.455 134.436 273.975 132.726 273.975 130.976C273.975 128.63 273.042 126.38 271.38 124.721C269.719 123.061 267.466 122.129 265.116 122.129Z" fill="white"/>
<path d="M306.708 122.129C304.957 122.133 303.246 122.654 301.791 123.628C300.337 124.602 299.204 125.985 298.536 127.602C297.868 129.219 297.695 130.997 298.039 132.712C298.382 134.427 299.227 136.002 300.467 137.238C301.706 138.473 303.285 139.314 305.003 139.654C306.721 139.994 308.501 139.818 310.119 139.148C311.736 138.478 313.119 137.344 314.092 135.89C315.064 134.435 315.583 132.725 315.583 130.976C315.583 129.813 315.354 128.661 314.907 127.587C314.461 126.512 313.807 125.537 312.983 124.715C312.159 123.893 311.18 123.242 310.103 122.798C309.027 122.354 307.873 122.127 306.708 122.129Z" fill="white"/>
<path d="M348.316 122.129C346.564 122.129 344.852 122.648 343.395 123.62C341.938 124.592 340.803 125.974 340.132 127.591C339.462 129.207 339.286 130.986 339.628 132.702C339.97 134.418 340.814 135.995 342.053 137.232C343.291 138.469 344.87 139.312 346.588 139.653C348.307 139.995 350.088 139.819 351.706 139.15C353.325 138.48 354.709 137.346 355.682 135.891C356.655 134.436 357.175 132.726 357.175 130.976C357.175 128.63 356.242 126.38 354.58 124.721C352.919 123.061 350.666 122.129 348.316 122.129Z" fill="white"/>
<path d="M389.892 122.129C388.14 122.129 386.427 122.648 384.971 123.62C383.514 124.592 382.378 125.974 381.708 127.591C381.038 129.207 380.862 130.986 381.204 132.702C381.546 134.418 382.389 135.995 383.628 137.232C384.867 138.469 386.446 139.312 388.164 139.653C389.882 139.995 391.663 139.819 393.282 139.15C394.901 138.48 396.284 137.346 397.258 135.891C398.231 134.436 398.751 132.726 398.751 130.976C398.751 128.63 397.817 126.38 396.156 124.721C394.495 123.061 392.242 122.129 389.892 122.129Z" fill="white"/>
<path d="M431.533 122.129C429.781 122.129 428.069 122.648 426.612 123.62C425.155 124.592 424.02 125.974 423.349 127.591C422.679 129.207 422.503 130.986 422.845 132.702C423.187 134.418 424.031 135.995 425.269 137.232C426.508 138.469 428.087 139.312 429.805 139.653C431.523 139.995 433.305 139.819 434.923 139.15C436.542 138.48 437.925 137.346 438.899 135.891C439.872 134.436 440.392 132.726 440.392 130.976C440.392 128.63 439.458 126.38 437.797 124.721C436.136 123.061 433.883 122.129 431.533 122.129Z" fill="white"/>
<path d="M15.4667 166.479C13.714 166.486 12.0026 167.011 10.5491 167.99C9.09568 168.968 7.96552 170.355 7.30157 171.975C6.63763 173.595 6.46975 175.375 6.81928 177.09C7.16882 178.805 8.01997 180.379 9.26509 181.611C10.5102 182.843 12.0933 183.678 13.814 184.011C15.5347 184.344 17.3157 184.16 18.9315 183.482C20.5474 182.804 21.9256 181.662 22.8915 180.202C23.8575 178.741 24.3679 177.027 24.3581 175.277C24.345 172.933 23.4014 170.691 21.7344 169.041C20.0674 167.392 17.8133 166.47 15.4667 166.479Z" fill="white"/>
<path d="M57.075 166.479C55.3229 166.479 53.6103 166.998 52.1535 167.97C50.6968 168.942 49.5613 170.324 48.8909 171.94C48.2204 173.557 48.045 175.336 48.3868 177.052C48.7286 178.768 49.5723 180.344 50.8112 181.582C52.05 182.819 53.6284 183.661 55.3468 184.003C57.0652 184.344 58.8463 184.169 60.4649 183.499C62.0836 182.83 63.4671 181.696 64.4405 180.241C65.4139 178.786 65.9334 177.076 65.9334 175.326C65.9334 172.98 65.0002 170.729 63.3389 169.07C61.6776 167.411 59.4244 166.479 57.075 166.479Z" fill="white"/>
<path d="M98.6834 166.479C96.9313 166.479 95.2187 166.998 93.7619 167.97C92.3051 168.942 91.1697 170.324 90.4993 171.94C89.8288 173.557 89.6534 175.336 89.9952 177.052C90.337 178.768 91.1806 180.344 92.4195 181.582C93.6583 182.819 95.2367 183.661 96.9551 184.003C98.6735 184.344 100.455 184.169 102.073 183.499C103.692 182.83 105.075 181.696 106.049 180.241C107.022 178.786 107.542 177.076 107.542 175.326C107.542 172.98 106.608 170.729 104.947 169.07C103.286 167.411 101.033 166.479 98.6834 166.479Z" fill="white"/>
<path d="M140.292 166.479C138.539 166.479 136.827 166.998 135.37 167.97C133.913 168.942 132.778 170.324 132.107 171.94C131.437 173.557 131.262 175.336 131.603 177.052C131.945 178.768 132.789 180.344 134.028 181.582C135.267 182.819 136.845 183.661 138.563 184.003C140.282 184.344 142.063 184.169 143.682 183.499C145.3 182.83 146.684 181.696 147.657 180.241C148.63 178.786 149.15 177.076 149.15 175.326C149.15 172.98 148.217 170.729 146.555 169.07C144.894 167.411 142.641 166.479 140.292 166.479Z" fill="white"/>
<path d="M181.9 166.479C180.148 166.479 178.435 166.998 176.978 167.97C175.522 168.942 174.386 170.324 173.716 171.94C173.045 173.557 172.87 175.336 173.212 177.052C173.554 178.768 174.397 180.344 175.636 181.582C176.875 182.819 178.453 183.661 180.172 184.003C181.89 184.344 183.671 184.169 185.29 183.499C186.909 182.83 188.292 181.696 189.265 180.241C190.239 178.786 190.758 177.076 190.758 175.326C190.758 172.98 189.825 170.729 188.164 169.07C186.503 167.411 184.249 166.479 181.9 166.479Z" fill="white"/>
<path d="M223.591 166.479C221.839 166.479 220.126 166.998 218.669 167.97C217.212 168.942 216.077 170.324 215.406 171.94C214.736 173.557 214.561 175.336 214.902 177.052C215.244 178.768 216.088 180.344 217.327 181.582C218.566 182.819 220.144 183.661 221.862 184.003C223.581 184.344 225.362 184.169 226.981 183.499C228.599 182.83 229.983 181.696 230.956 180.241C231.93 178.786 232.449 177.076 232.449 175.326C232.449 172.98 231.516 170.729 229.854 169.07C228.193 167.411 225.94 166.479 223.591 166.479Z" fill="white"/>
<path d="M265.117 166.479C263.362 166.479 261.648 166.999 260.19 167.973C258.732 168.948 257.597 170.332 256.928 171.952C256.259 173.571 256.086 175.353 256.432 177.07C256.778 178.787 257.627 180.364 258.87 181.599C260.114 182.834 261.697 183.673 263.419 184.009C265.14 184.344 266.923 184.162 268.541 183.485C270.159 182.808 271.539 181.666 272.506 180.205C273.474 178.744 273.985 177.028 273.975 175.277C273.962 172.939 273.023 170.701 271.363 169.053C269.703 167.404 267.457 166.479 265.117 166.479Z" fill="white"/>
<path d="M306.708 166.479C304.957 166.482 303.246 167.004 301.791 167.978C300.337 168.952 299.204 170.335 298.536 171.952C297.868 173.569 297.695 175.347 298.039 177.062C298.382 178.777 299.227 180.352 300.467 181.587C301.706 182.823 303.285 183.664 305.003 184.004C306.721 184.344 308.501 184.168 310.119 183.498C311.736 182.828 313.119 181.694 314.092 180.239C315.064 178.785 315.583 177.075 315.583 175.326C315.583 174.163 315.354 173.011 314.907 171.937C314.461 170.862 313.807 169.886 312.983 169.064C312.159 168.243 311.18 167.591 310.103 167.148C309.027 166.704 307.873 166.477 306.708 166.479Z" fill="white"/>
<path d="M348.316 166.479C346.564 166.479 344.852 166.998 343.395 167.97C341.938 168.942 340.803 170.324 340.132 171.94C339.462 173.557 339.286 175.336 339.628 177.052C339.97 178.768 340.814 180.344 342.053 181.582C343.291 182.819 344.87 183.661 346.588 184.003C348.307 184.344 350.088 184.169 351.706 183.499C353.325 182.83 354.709 181.696 355.682 180.241C356.655 178.786 357.175 177.076 357.175 175.326C357.175 172.98 356.242 170.729 354.58 169.07C352.919 167.411 350.666 166.479 348.316 166.479Z" fill="white"/>
<path d="M389.892 166.479C388.139 166.486 386.428 167.011 384.974 167.99C383.521 168.968 382.39 170.355 381.727 171.975C381.063 173.595 380.895 175.375 381.244 177.09C381.594 178.805 382.445 180.379 383.69 181.611C384.935 182.843 386.518 183.678 388.239 184.011C389.96 184.344 391.741 184.16 393.357 183.482C394.972 182.804 396.351 181.662 397.317 180.202C398.282 178.741 398.793 177.027 398.783 175.277C398.77 172.933 397.826 170.691 396.159 169.041C394.492 167.392 392.238 166.47 389.892 166.479Z" fill="white"/>
<path d="M431.533 166.479C429.781 166.479 428.069 166.998 426.612 167.97C425.155 168.942 424.02 170.324 423.349 171.94C422.679 173.557 422.503 175.336 422.845 177.052C423.187 178.768 424.031 180.344 425.269 181.582C426.508 182.819 428.087 183.661 429.805 184.003C431.523 184.344 433.305 184.169 434.923 183.499C436.542 182.83 437.925 181.696 438.899 180.241C439.872 178.786 440.392 177.076 440.392 175.326C440.392 172.98 439.458 170.729 437.797 169.07C436.136 167.411 433.883 166.479 431.533 166.479Z" fill="white"/>
<path d="M473.142 184.173C473.915 184.156 474.684 184.045 475.43 183.844C473.641 178.242 471.676 172.711 469.536 167.252C467.686 168.079 466.177 169.515 465.259 171.319C464.341 173.124 464.071 175.188 464.492 177.168C464.914 179.147 466.003 180.922 467.577 182.197C469.151 183.472 471.115 184.169 473.142 184.173Z" fill="white"/>
<path d="M15.4666 210.812C13.7167 210.819 12.0079 211.343 10.5559 212.318C9.1038 213.293 7.9735 214.676 7.30759 216.292C6.64168 217.909 6.46996 219.685 6.81414 221.399C7.15833 223.112 8.00293 224.686 9.24146 225.92C10.48 227.155 12.057 227.996 13.7734 228.336C15.4898 228.677 17.2687 228.502 18.8857 227.834C20.5027 227.166 21.8855 226.035 22.8594 224.583C23.8333 223.131 24.3547 221.423 24.358 219.675C24.3602 218.509 24.1315 217.355 23.6852 216.277C23.239 215.2 22.5839 214.221 21.7576 213.397C20.9313 212.574 19.9501 211.921 18.8705 211.478C17.7909 211.034 16.634 210.808 15.4666 210.812Z" fill="white"/>
<path d="M57.075 210.812C55.3229 210.812 53.6103 211.331 52.1535 212.303C50.6968 213.275 49.5613 214.657 48.8909 216.273C48.2204 217.89 48.045 219.669 48.3868 221.385C48.7286 223.101 49.5723 224.677 50.8112 225.915C52.05 227.152 53.6284 227.994 55.3468 228.336C57.0652 228.677 58.8463 228.502 60.4649 227.832C62.0836 227.163 63.4671 226.029 64.4405 224.574C65.4139 223.119 65.9334 221.409 65.9334 219.659C65.9334 217.313 65.0002 215.062 63.3389 213.403C61.6776 211.744 59.4244 210.812 57.075 210.812Z" fill="white"/>
<path d="M98.6834 210.812C96.9313 210.812 95.2187 211.331 93.7619 212.303C92.3051 213.275 91.1697 214.657 90.4993 216.273C89.8288 217.89 89.6534 219.669 89.9952 221.385C90.337 223.101 91.1806 224.677 92.4195 225.915C93.6583 227.152 95.2367 227.994 96.9551 228.336C98.6735 228.677 100.455 228.502 102.073 227.832C103.692 227.163 105.075 226.029 106.049 224.574C107.022 223.119 107.542 221.409 107.542 219.659C107.542 217.313 106.608 215.062 104.947 213.403C103.286 211.744 101.033 210.812 98.6834 210.812Z" fill="white"/>
<path d="M140.292 210.812C138.539 210.812 136.827 211.331 135.37 212.303C133.913 213.275 132.778 214.657 132.107 216.273C131.437 217.89 131.262 219.669 131.603 221.385C131.945 223.101 132.789 224.677 134.028 225.915C135.267 227.152 136.845 227.994 138.563 228.336C140.282 228.677 142.063 228.502 143.682 227.832C145.3 227.163 146.684 226.029 147.657 224.574C148.63 223.119 149.15 221.409 149.15 219.659C149.15 217.313 148.217 215.062 146.555 213.403C144.894 211.744 142.641 210.812 140.292 210.812Z" fill="white"/>
<path d="M181.9 210.812C180.148 210.812 178.435 211.331 176.978 212.303C175.522 213.275 174.386 214.657 173.716 216.273C173.045 217.89 172.87 219.669 173.212 221.385C173.554 223.101 174.397 224.677 175.636 225.915C176.875 227.152 178.453 227.994 180.172 228.336C181.89 228.677 183.671 228.502 185.29 227.832C186.909 227.163 188.292 226.029 189.265 224.574C190.239 223.119 190.758 221.409 190.758 219.659C190.758 217.313 189.825 215.062 188.164 213.403C186.503 211.744 184.249 210.812 181.9 210.812Z" fill="white"/>
<path d="M223.591 210.812C221.839 210.812 220.126 211.331 218.669 212.303C217.212 213.275 216.077 214.657 215.406 216.273C214.736 217.89 214.561 219.669 214.902 221.385C215.244 223.101 216.088 224.677 217.327 225.915C218.566 227.152 220.144 227.994 221.862 228.336C223.581 228.677 225.362 228.502 226.981 227.832C228.599 227.163 229.983 226.029 230.956 224.574C231.93 223.119 232.449 221.409 232.449 219.659C232.449 217.313 231.516 215.062 229.854 213.403C228.193 211.744 225.94 210.812 223.591 210.812Z" fill="white"/>
<path d="M265.116 210.812C263.365 210.812 261.653 211.33 260.197 212.302C258.74 213.273 257.605 214.654 256.934 216.27C256.263 217.885 256.087 219.663 256.427 221.379C256.768 223.094 257.61 224.671 258.847 225.909C260.084 227.147 261.661 227.991 263.378 228.334C265.096 228.677 266.876 228.504 268.495 227.837C270.114 227.17 271.499 226.039 272.474 224.586C273.449 223.133 273.972 221.424 273.975 219.675C273.977 218.512 273.75 217.36 273.305 216.285C272.861 215.209 272.209 214.232 271.386 213.409C270.563 212.586 269.586 211.933 268.51 211.487C267.434 211.041 266.281 210.812 265.116 210.812Z" fill="white"/>
<path d="M306.708 210.812C304.957 210.815 303.246 211.337 301.791 212.311C300.337 213.285 299.204 214.668 298.536 216.285C297.868 217.902 297.695 219.68 298.039 221.395C298.382 223.11 299.227 224.685 300.467 225.92C301.706 227.156 303.285 227.997 305.003 228.337C306.721 228.677 308.501 228.501 310.119 227.831C311.736 227.161 313.119 226.027 314.092 224.572C315.064 223.118 315.583 221.408 315.583 219.659C315.583 218.496 315.354 217.344 314.907 216.27C314.461 215.195 313.807 214.219 312.983 213.397C312.159 212.576 311.18 211.924 310.103 211.481C309.027 211.037 307.873 210.81 306.708 210.812Z" fill="white"/>
<path d="M348.316 210.812C346.564 210.812 344.852 211.331 343.395 212.303C341.938 213.275 340.803 214.657 340.132 216.273C339.462 217.89 339.286 219.669 339.628 221.385C339.97 223.101 340.814 224.677 342.053 225.915C343.291 227.152 344.87 227.994 346.588 228.336C348.307 228.677 350.088 228.502 351.706 227.832C353.325 227.163 354.709 226.029 355.682 224.574C356.655 223.119 357.175 221.409 357.175 219.659C357.175 217.313 356.242 215.062 354.58 213.403C352.919 211.744 350.666 210.812 348.316 210.812Z" fill="white"/>
<path d="M389.892 210.812C388.142 210.819 386.433 211.343 384.981 212.318C383.529 213.293 382.399 214.676 381.733 216.292C381.067 217.909 380.895 219.685 381.239 221.399C381.584 223.112 382.428 224.686 383.667 225.92C384.905 227.155 386.482 227.996 388.199 228.336C389.915 228.677 391.694 228.502 393.311 227.834C394.928 227.166 396.311 226.035 397.285 224.583C398.258 223.131 398.78 221.423 398.783 219.675C398.785 218.509 398.557 217.355 398.111 216.277C397.664 215.2 397.009 214.221 396.183 213.397C395.357 212.574 394.375 211.921 393.296 211.478C392.216 211.034 391.059 210.808 389.892 210.812Z" fill="white"/>
<path d="M431.533 210.812C429.781 210.812 428.069 211.331 426.612 212.303C425.155 213.275 424.02 214.657 423.349 216.273C422.679 217.89 422.503 219.669 422.845 221.385C423.187 223.101 424.031 224.677 425.269 225.915C426.508 227.152 428.087 227.994 429.805 228.336C431.523 228.677 433.305 228.502 434.923 227.832C436.542 227.163 437.925 226.029 438.899 224.574C439.872 223.119 440.392 221.409 440.392 219.659C440.392 217.313 439.458 215.062 437.797 213.403C436.136 211.744 433.883 210.812 431.533 210.812Z" fill="white"/>
<path d="M473.142 228.506C474.894 228.506 476.606 227.987 478.063 227.015C479.52 226.043 480.655 224.661 481.326 223.044C481.996 221.428 482.172 219.649 481.83 217.933C481.488 216.217 480.644 214.64 479.406 213.403C478.167 212.166 476.588 211.323 474.87 210.982C473.151 210.641 471.37 210.816 469.752 211.485C468.133 212.155 466.749 213.289 465.776 214.744C464.803 216.199 464.283 217.909 464.283 219.659C464.283 222.005 465.216 224.255 466.878 225.915C468.539 227.574 470.792 228.506 473.142 228.506Z" fill="white"/>
<path d="M15.4668 255.145C13.715 255.148 12.0035 255.669 10.5477 256.642C9.09182 257.615 7.95682 258.997 7.28572 260.613C6.61463 262.229 6.43741 264.007 6.7764 265.724C7.11539 267.44 7.9555 269.018 9.19075 270.258C10.426 271.499 12.0012 272.346 13.718 272.695C15.4347 273.043 17.2162 272.875 18.838 272.214C20.4598 271.553 21.8494 270.427 22.8318 268.979C23.8141 267.53 24.3452 265.824 24.3582 264.074C24.3691 262.903 24.1469 261.741 23.7046 260.656C23.2622 259.571 22.6085 258.584 21.7814 257.753C20.9542 256.923 19.9701 256.265 18.8861 255.817C17.8022 255.369 16.6398 255.141 15.4668 255.145Z" fill="white"/>
<path d="M57.075 255.145C55.319 255.142 53.6015 255.659 52.1399 256.631C50.6782 257.603 49.5382 258.986 48.8639 260.605C48.1897 262.224 48.0115 264.007 48.3521 265.727C48.6927 267.448 49.5367 269.029 50.7772 270.27C52.0177 271.511 53.5991 272.357 55.3211 272.7C57.0431 273.043 58.8284 272.869 60.451 272.199C62.0736 271.528 63.4607 270.392 64.4366 268.934C65.4125 267.476 65.9334 265.762 65.9334 264.008C65.9356 262.845 65.708 261.693 65.2638 260.618C64.8196 259.542 64.1675 258.565 63.3447 257.742C62.5219 256.919 61.5446 256.266 60.4688 255.82C59.3929 255.374 58.2397 255.145 57.075 255.145Z" fill="white"/>
<path d="M98.6834 255.145C96.9274 255.142 95.2099 255.659 93.7483 256.631C92.2866 257.603 91.1465 258.986 90.4723 260.605C89.798 262.224 89.62 264.007 89.9605 265.727C90.3011 267.448 91.1451 269.029 92.3856 270.27C93.6262 271.511 95.2074 272.357 96.9294 272.7C98.6514 273.043 100.437 272.869 102.059 272.199C103.682 271.528 105.069 270.392 106.045 268.934C107.021 267.476 107.542 265.762 107.542 264.008C107.544 262.845 107.316 261.693 106.872 260.618C106.428 259.542 105.776 258.565 104.953 257.742C104.13 256.919 103.153 256.266 102.077 255.82C101.001 255.374 99.8481 255.145 98.6834 255.145Z" fill="white"/>
<path d="M140.292 255.145C138.536 255.142 136.818 255.659 135.357 256.631C133.895 257.603 132.755 258.986 132.081 260.605C131.406 262.224 131.228 264.007 131.569 265.727C131.91 267.448 132.753 269.029 133.994 270.27C135.234 271.511 136.816 272.357 138.538 272.7C140.26 273.043 142.045 272.869 143.668 272.199C145.29 271.528 146.677 270.392 147.653 268.934C148.629 267.476 149.15 265.762 149.15 264.008C149.152 262.845 148.925 261.693 148.481 260.618C148.036 259.542 147.384 258.565 146.561 257.742C145.739 256.919 144.761 256.266 143.685 255.82C142.61 255.374 141.456 255.145 140.292 255.145Z" fill="white"/>
<path d="M181.9 255.145C180.144 255.142 178.426 255.659 176.965 256.631C175.503 257.603 174.363 258.986 173.689 260.605C173.015 262.224 172.836 264.007 173.177 265.727C173.518 267.448 174.362 269.029 175.602 270.27C176.843 271.511 178.424 272.357 180.146 272.7C181.868 273.043 183.653 272.869 185.276 272.199C186.899 271.528 188.286 270.392 189.262 268.934C190.237 267.476 190.758 265.762 190.758 264.008C190.761 262.845 190.533 261.693 190.089 260.618C189.645 259.542 188.992 258.565 188.17 257.742C187.347 256.919 186.37 256.266 185.294 255.82C184.218 255.374 183.065 255.145 181.9 255.145Z" fill="white"/>
<path d="M223.591 255.145C221.835 255.142 220.117 255.659 218.655 256.631C217.194 257.603 216.054 258.986 215.38 260.605C214.705 262.224 214.527 264.007 214.868 265.727C215.208 267.448 216.052 269.029 217.293 270.27C218.533 271.511 220.115 272.357 221.837 272.7C223.559 273.043 225.344 272.869 226.967 272.199C228.589 271.528 229.976 270.392 230.952 268.934C231.928 267.476 232.449 265.762 232.449 264.008C232.451 262.845 232.224 261.693 231.779 260.618C231.335 259.542 230.683 258.565 229.86 257.742C229.038 256.919 228.06 256.266 226.984 255.82C225.909 255.374 224.755 255.145 223.591 255.145Z" fill="white"/>
<path d="M265.116 255.145C263.363 255.142 261.649 255.657 260.188 256.626C258.728 257.595 257.588 258.975 256.912 260.59C256.236 262.206 256.054 263.985 256.389 265.703C256.724 267.422 257.562 269.003 258.796 270.247C260.03 271.49 261.605 272.341 263.323 272.692C265.04 273.043 266.823 272.877 268.447 272.217C270.071 271.557 271.462 270.431 272.446 268.982C273.43 267.533 273.962 265.825 273.975 264.074C273.984 262.906 273.761 261.748 273.32 260.666C272.879 259.584 272.228 258.6 271.405 257.77C270.582 256.94 269.602 256.281 268.523 255.831C267.444 255.38 266.286 255.147 265.116 255.145Z" fill="white"/>
<path d="M306.708 255.145C304.953 255.145 303.237 255.665 301.778 256.639C300.318 257.613 299.181 258.997 298.509 260.616C297.837 262.236 297.662 264.018 298.004 265.737C298.346 267.457 299.192 269.036 300.433 270.276C301.674 271.515 303.255 272.359 304.977 272.701C306.699 273.043 308.483 272.868 310.105 272.197C311.726 271.526 313.112 270.39 314.088 268.933C315.063 267.475 315.583 265.761 315.583 264.008C315.585 262.844 315.357 261.69 314.912 260.614C314.467 259.538 313.813 258.56 312.989 257.736C312.164 256.913 311.185 256.26 310.107 255.815C309.03 255.371 307.874 255.143 306.708 255.145Z" fill="white"/>
<path d="M348.317 255.145C346.561 255.142 344.843 255.659 343.382 256.631C341.92 257.603 340.78 258.986 340.106 260.605C339.431 262.224 339.253 264.007 339.594 265.727C339.934 267.448 340.778 269.029 342.019 270.27C343.259 271.511 344.841 272.357 346.563 272.7C348.285 273.043 350.07 272.869 351.693 272.199C353.315 271.528 354.702 270.392 355.678 268.934C356.654 267.476 357.175 265.762 357.175 264.008C357.177 262.845 356.95 261.693 356.506 260.618C356.061 259.542 355.409 258.565 354.586 257.742C353.764 256.919 352.786 256.266 351.71 255.82C350.635 255.374 349.481 255.145 348.317 255.145Z" fill="white"/>
<path d="M389.892 255.145C388.14 255.148 386.428 255.669 384.973 256.642C383.517 257.615 382.382 258.997 381.711 260.613C381.04 262.229 380.862 264.007 381.201 265.724C381.54 267.44 382.38 269.018 383.616 270.258C384.851 271.499 386.426 272.346 388.143 272.695C389.86 273.043 391.641 272.875 393.263 272.214C394.885 271.553 396.274 270.427 397.257 268.979C398.239 267.53 398.77 265.824 398.783 264.074C398.794 262.903 398.572 261.741 398.13 260.656C397.687 259.571 397.033 258.584 396.206 257.753C395.379 256.923 394.395 256.265 393.311 255.817C392.227 255.369 391.065 255.141 389.892 255.145Z" fill="white"/>
<path d="M431.533 255.145C429.777 255.142 428.06 255.659 426.598 256.631C425.137 257.603 423.997 258.986 423.322 260.605C422.648 262.224 422.47 264.007 422.811 265.727C423.151 267.448 423.995 269.029 425.236 270.27C426.476 271.511 428.058 272.357 429.78 272.7C431.502 273.043 433.287 272.869 434.909 272.199C436.532 271.528 437.919 270.392 438.895 268.934C439.871 267.476 440.392 265.762 440.392 264.008C440.394 262.845 440.167 261.693 439.722 260.618C439.278 259.542 438.626 258.565 437.803 257.742C436.98 256.919 436.003 256.266 434.927 255.82C433.851 255.374 432.698 255.145 431.533 255.145Z" fill="white"/>
<path d="M473.141 255.145C471.385 255.142 469.668 255.659 468.206 256.631C466.745 257.603 465.605 258.986 464.93 260.605C464.256 262.224 464.078 264.007 464.419 265.727C464.759 267.448 465.603 269.029 466.844 270.27C468.084 271.511 469.665 272.357 471.387 272.7C473.109 273.043 474.895 272.869 476.517 272.199C478.14 271.528 479.527 270.392 480.503 268.934C481.479 267.476 482 265.762 482 264.008C482.002 262.845 481.774 261.693 481.33 260.618C480.886 259.542 480.234 258.565 479.411 257.742C478.588 256.919 477.611 256.266 476.535 255.82C475.459 255.374 474.306 255.145 473.141 255.145Z" fill="white"/>
<path d="M15.4666 299.494C13.7145 299.494 12.0019 300.013 10.5451 300.985C9.08835 301.957 7.95294 303.339 7.28247 304.955C6.61199 306.572 6.43657 308.351 6.77837 310.067C7.12018 311.783 7.9639 313.359 9.20277 314.597C10.4416 315.834 12.0201 316.677 13.7384 317.018C15.4568 317.359 17.2379 317.184 18.8566 316.514C20.4752 315.845 21.8587 314.711 22.8321 313.256C23.8055 311.801 24.325 310.091 24.325 308.341C24.325 307.179 24.096 306.029 23.6508 304.955C23.2056 303.882 22.5531 302.907 21.7305 302.085C20.9079 301.264 19.9313 300.612 18.8566 300.168C17.7818 299.723 16.6299 299.494 15.4666 299.494Z" fill="white"/>
<path d="M57.075 317.188C61.9674 317.188 65.9334 313.227 65.9334 308.341C65.9334 303.455 61.9674 299.494 57.075 299.494C52.1826 299.494 48.2166 303.455 48.2166 308.341C48.2166 313.227 52.1826 317.188 57.075 317.188Z" fill="white"/>
<path d="M98.6834 299.494C96.9313 299.494 95.2187 300.013 93.7619 300.985C92.3051 301.957 91.1697 303.339 90.4993 304.955C89.8288 306.572 89.6534 308.351 89.9952 310.067C90.337 311.783 91.1806 313.359 92.4195 314.597C93.6583 315.834 95.2367 316.677 96.9551 317.018C98.6735 317.359 100.455 317.184 102.073 316.514C103.692 315.845 105.075 314.711 106.049 313.256C107.022 311.801 107.542 310.091 107.542 308.341C107.542 305.995 106.608 303.745 104.947 302.085C103.286 300.426 101.033 299.494 98.6834 299.494Z" fill="white"/>
<path d="M140.292 317.188C145.184 317.188 149.15 313.227 149.15 308.341C149.15 303.455 145.184 299.494 140.292 299.494C135.399 299.494 131.433 303.455 131.433 308.341C131.433 313.227 135.399 317.188 140.292 317.188Z" fill="white"/>
<path d="M181.9 299.494C180.148 299.494 178.435 300.013 176.978 300.985C175.522 301.957 174.386 303.339 173.716 304.955C173.045 306.572 172.87 308.351 173.212 310.067C173.554 311.783 174.397 313.359 175.636 314.597C176.875 315.834 178.453 316.677 180.172 317.018C181.89 317.359 183.671 317.184 185.29 316.514C186.909 315.845 188.292 314.711 189.265 313.256C190.239 311.801 190.758 310.091 190.758 308.341C190.758 305.995 189.825 303.745 188.164 302.085C186.503 300.426 184.249 299.494 181.9 299.494Z" fill="white"/>
<path d="M223.591 299.494C221.839 299.494 220.126 300.013 218.669 300.985C217.212 301.957 216.077 303.339 215.406 304.955C214.736 306.572 214.561 308.351 214.902 310.067C215.244 311.783 216.088 313.359 217.327 314.597C218.566 315.834 220.144 316.677 221.862 317.018C223.581 317.359 225.362 317.184 226.981 316.514C228.599 315.845 229.983 314.711 230.956 313.256C231.93 311.801 232.449 310.091 232.449 308.341C232.449 305.995 231.516 303.745 229.854 302.085C228.193 300.426 225.94 299.494 223.591 299.494Z" fill="white"/>
<path d="M265.116 317.188C270.009 317.188 273.975 313.227 273.975 308.341C273.975 303.455 270.009 299.494 265.116 299.494C260.224 299.494 256.258 303.455 256.258 308.341C256.258 313.227 260.224 317.188 265.116 317.188Z" fill="white"/>
<path d="M306.708 299.494C304.957 299.497 303.246 300.019 301.791 300.993C300.337 301.967 299.204 303.35 298.536 304.967C297.868 306.584 297.695 308.362 298.039 310.077C298.382 311.792 299.227 313.367 300.467 314.603C301.706 315.838 303.285 316.679 305.003 317.019C306.721 317.359 308.501 317.183 310.119 316.513C311.736 315.843 313.119 314.709 314.092 313.254C315.064 311.8 315.583 310.09 315.583 308.341C315.583 307.178 315.354 306.026 314.907 304.952C314.461 303.877 313.807 302.901 312.983 302.08C312.159 301.258 311.18 300.607 310.103 300.163C309.027 299.719 307.873 299.492 306.708 299.494Z" fill="white"/>
<path d="M348.316 299.494C346.564 299.494 344.852 300.013 343.395 300.985C341.938 301.957 340.803 303.339 340.132 304.955C339.462 306.572 339.286 308.351 339.628 310.067C339.97 311.783 340.814 313.359 342.053 314.597C343.291 315.834 344.87 316.677 346.588 317.018C348.307 317.359 350.088 317.184 351.706 316.514C353.325 315.845 354.709 314.711 355.682 313.256C356.655 311.801 357.175 310.091 357.175 308.341C357.175 305.995 356.242 303.745 354.58 302.085C352.919 300.426 350.666 299.494 348.316 299.494Z" fill="white"/>
<path d="M389.892 299.494C388.14 299.494 386.427 300.013 384.971 300.985C383.514 301.957 382.378 303.339 381.708 304.955C381.038 306.572 380.862 308.351 381.204 310.067C381.546 311.783 382.389 313.359 383.628 314.597C384.867 315.834 386.446 316.677 388.164 317.018C389.882 317.359 391.663 317.184 393.282 316.514C394.901 315.845 396.284 314.711 397.258 313.256C398.231 311.801 398.751 310.091 398.751 308.341C398.751 305.995 397.817 303.745 396.156 302.085C394.495 300.426 392.242 299.494 389.892 299.494Z" fill="white"/>
<path d="M431.533 299.494C429.781 299.494 428.069 300.013 426.612 300.985C425.155 301.957 424.02 303.339 423.349 304.955C422.679 306.572 422.503 308.351 422.845 310.067C423.187 311.783 424.031 313.359 425.269 314.597C426.508 315.834 428.087 316.677 429.805 317.018C431.523 317.359 433.305 317.184 434.923 316.514C436.542 315.845 437.925 314.711 438.899 313.256C439.872 311.801 440.392 310.091 440.392 308.341C440.392 305.995 439.458 303.745 437.797 302.085C436.136 300.426 433.883 299.494 431.533 299.494Z" fill="white"/>
<path d="M473.142 317.188C478.034 317.188 482 313.227 482 308.341C482 303.455 478.034 299.494 473.142 299.494C468.249 299.494 464.283 303.455 464.283 308.341C464.283 313.227 468.249 317.188 473.142 317.188Z" fill="white"/>
<path d="M15.4666 343.827C13.7145 343.827 12.0019 344.346 10.5451 345.318C9.08835 346.29 7.95294 347.672 7.28247 349.288C6.61199 350.905 6.43657 352.684 6.77837 354.4C7.12018 356.116 7.9639 357.692 9.20277 358.93C10.4416 360.167 12.0201 361.01 13.7384 361.351C15.4568 361.692 17.2379 361.517 18.8566 360.847C20.4752 360.178 21.8587 359.044 22.8321 357.589C23.8055 356.134 24.325 354.424 24.325 352.674C24.325 351.512 24.096 350.362 23.6508 349.288C23.2056 348.215 22.5531 347.24 21.7305 346.418C20.9079 345.597 19.9313 344.945 18.8566 344.501C17.7818 344.056 16.6299 343.827 15.4666 343.827Z" fill="white"/>
<path d="M57.075 343.827C55.3229 343.827 53.6103 344.346 52.1535 345.318C50.6968 346.29 49.5613 347.672 48.8909 349.288C48.2204 350.905 48.045 352.684 48.3868 354.4C48.7286 356.116 49.5723 357.692 50.8112 358.93C52.05 360.167 53.6284 361.01 55.3468 361.351C57.0652 361.692 58.8463 361.517 60.4649 360.847C62.0836 360.178 63.4671 359.044 64.4405 357.589C65.4139 356.134 65.9334 354.424 65.9334 352.674C65.9334 350.328 65.0002 348.077 63.3389 346.418C61.6776 344.759 59.4244 343.827 57.075 343.827Z" fill="white"/>
<path d="M98.6834 343.827C96.9313 343.827 95.2187 344.346 93.7619 345.318C92.3051 346.29 91.1697 347.672 90.4993 349.288C89.8288 350.905 89.6534 352.684 89.9952 354.4C90.337 356.116 91.1806 357.692 92.4195 358.93C93.6583 360.167 95.2367 361.01 96.9551 361.351C98.6735 361.692 100.455 361.517 102.073 360.847C103.692 360.178 105.075 359.044 106.049 357.589C107.022 356.134 107.542 354.424 107.542 352.674C107.542 350.328 106.608 348.077 104.947 346.418C103.286 344.759 101.033 343.827 98.6834 343.827Z" fill="white"/>
<path d="M140.292 343.827C138.539 343.827 136.827 344.346 135.37 345.318C133.913 346.29 132.778 347.672 132.107 349.288C131.437 350.905 131.262 352.684 131.603 354.4C131.945 356.116 132.789 357.692 134.028 358.93C135.267 360.167 136.845 361.01 138.563 361.351C140.282 361.692 142.063 361.517 143.682 360.847C145.3 360.178 146.684 359.044 147.657 357.589C148.63 356.134 149.15 354.424 149.15 352.674C149.15 350.328 148.217 348.077 146.555 346.418C144.894 344.759 142.641 343.827 140.292 343.827Z" fill="white"/>
<path d="M181.9 343.827C180.148 343.827 178.435 344.346 176.978 345.318C175.522 346.29 174.386 347.672 173.716 349.288C173.045 350.905 172.87 352.684 173.212 354.4C173.554 356.116 174.397 357.692 175.636 358.93C176.875 360.167 178.453 361.01 180.172 361.351C181.89 361.692 183.671 361.517 185.29 360.847C186.909 360.178 188.292 359.044 189.265 357.589C190.239 356.134 190.758 354.424 190.758 352.674C190.758 350.328 189.825 348.077 188.164 346.418C186.503 344.759 184.249 343.827 181.9 343.827Z" fill="white"/>
<path d="M223.591 343.827C221.839 343.827 220.126 344.346 218.669 345.318C217.212 346.29 216.077 347.672 215.406 349.288C214.736 350.905 214.561 352.684 214.902 354.4C215.244 356.116 216.088 357.692 217.327 358.93C218.566 360.167 220.144 361.01 221.862 361.351C223.581 361.692 225.362 361.517 226.981 360.847C228.599 360.178 229.983 359.044 230.956 357.589C231.93 356.134 232.449 354.424 232.449 352.674C232.449 350.328 231.516 348.077 229.854 346.418C228.193 344.759 225.94 343.827 223.591 343.827Z" fill="white"/>
<path d="M265.116 343.827C263.364 343.827 261.652 344.346 260.195 345.318C258.738 346.29 257.603 347.672 256.932 349.288C256.262 350.905 256.086 352.684 256.428 354.4C256.77 356.116 257.614 357.692 258.853 358.93C260.092 360.167 261.67 361.01 263.388 361.351C265.107 361.692 266.888 361.517 268.506 360.847C270.125 360.178 271.509 359.044 272.482 357.589C273.455 356.134 273.975 354.424 273.975 352.674C273.975 350.328 273.042 348.077 271.38 346.418C269.719 344.759 267.466 343.827 265.116 343.827Z" fill="white"/>
<path d="M306.708 343.827C304.957 343.83 303.246 344.352 301.791 345.326C300.337 346.3 299.204 347.683 298.536 349.3C297.868 350.917 297.695 352.695 298.039 354.41C298.382 356.125 299.227 357.7 300.467 358.935C301.706 360.171 303.285 361.012 305.003 361.352C306.721 361.692 308.501 361.516 310.119 360.846C311.736 360.176 313.119 359.042 314.092 357.587C315.064 356.133 315.583 354.423 315.583 352.674C315.583 351.511 315.354 350.359 314.907 349.285C314.461 348.21 313.807 347.234 312.983 346.412C312.159 345.591 311.18 344.94 310.103 344.496C309.027 344.052 307.873 343.825 306.708 343.827Z" fill="white"/>
<path d="M348.316 343.827C346.564 343.827 344.852 344.346 343.395 345.318C341.938 346.29 340.803 347.672 340.132 349.288C339.462 350.905 339.286 352.684 339.628 354.4C339.97 356.116 340.814 357.692 342.053 358.93C343.291 360.167 344.87 361.01 346.588 361.351C348.307 361.692 350.088 361.517 351.706 360.847C353.325 360.178 354.709 359.044 355.682 357.589C356.655 356.134 357.175 354.424 357.175 352.674C357.175 350.328 356.242 348.077 354.58 346.418C352.919 344.759 350.666 343.827 348.316 343.827Z" fill="white"/>
<path d="M389.892 343.827C388.14 343.827 386.427 344.346 384.971 345.318C383.514 346.29 382.378 347.672 381.708 349.288C381.038 350.905 380.862 352.684 381.204 354.4C381.546 356.116 382.389 357.692 383.628 358.93C384.867 360.167 386.446 361.01 388.164 361.351C389.882 361.692 391.663 361.517 393.282 360.847C394.901 360.178 396.284 359.044 397.258 357.589C398.231 356.134 398.751 354.424 398.751 352.674C398.751 350.328 397.817 348.077 396.156 346.418C394.495 344.759 392.242 343.827 389.892 343.827Z" fill="white"/>
<path d="M431.533 343.827C429.781 343.827 428.069 344.346 426.612 345.318C425.155 346.29 424.02 347.672 423.349 349.288C422.679 350.905 422.503 352.684 422.845 354.4C423.187 356.116 424.031 357.692 425.269 358.93C426.508 360.167 428.087 361.01 429.805 361.351C431.523 361.692 433.305 361.517 434.923 360.847C436.542 360.178 437.925 359.044 438.899 357.589C439.872 356.134 440.392 354.424 440.392 352.674C440.392 350.328 439.458 348.077 437.797 346.418C436.136 344.759 433.883 343.827 431.533 343.827Z" fill="white"/>
<path d="M464.283 352.674C464.285 354.383 464.781 356.054 465.713 357.487C466.645 358.92 467.973 360.052 469.536 360.748C471.676 355.267 473.641 349.736 475.43 344.156C474.684 343.955 473.915 343.844 473.142 343.827C471.978 343.827 470.826 344.056 469.752 344.501C468.677 344.945 467.7 345.597 466.878 346.418C466.055 347.24 465.403 348.215 464.958 349.288C464.512 350.362 464.283 351.512 464.283 352.674Z" fill="white"/>
<path d="M15.4666 388.177C13.7145 388.177 12.0019 388.696 10.5451 389.668C9.08835 390.64 7.95294 392.022 7.28247 393.638C6.61199 395.255 6.43657 397.034 6.77837 398.75C7.12018 400.466 7.9639 402.042 9.20277 403.279C10.4416 404.517 12.0201 405.359 13.7384 405.701C15.4568 406.042 17.2379 405.867 18.8566 405.197C20.4752 404.528 21.8587 403.394 22.8321 401.939C23.8055 400.484 24.325 398.773 24.325 397.024C24.325 395.862 24.096 394.711 23.6508 393.638C23.2056 392.565 22.5531 391.59 21.7305 390.768C20.9079 389.947 19.9313 389.295 18.8566 388.85C17.7818 388.406 16.6299 388.177 15.4666 388.177Z" fill="white"/>
<path d="M57.075 405.871C61.9674 405.871 65.9334 401.91 65.9334 397.024C65.9334 392.138 61.9674 388.177 57.075 388.177C52.1826 388.177 48.2166 392.138 48.2166 397.024C48.2166 401.91 52.1826 405.871 57.075 405.871Z" fill="white"/>
<path d="M98.6834 388.177C96.9313 388.177 95.2187 388.696 93.7619 389.668C92.3051 390.64 91.1697 392.022 90.4993 393.638C89.8288 395.255 89.6534 397.034 89.9952 398.75C90.337 400.466 91.1806 402.042 92.4195 403.279C93.6583 404.517 95.2367 405.359 96.9551 405.701C98.6735 406.042 100.455 405.867 102.073 405.197C103.692 404.528 105.075 403.394 106.049 401.939C107.022 400.484 107.542 398.773 107.542 397.024C107.542 394.677 106.608 392.427 104.947 390.768C103.286 389.109 101.033 388.177 98.6834 388.177Z" fill="white"/>
<path d="M140.292 405.871C145.184 405.871 149.15 401.91 149.15 397.024C149.15 392.138 145.184 388.177 140.292 388.177C135.399 388.177 131.433 392.138 131.433 397.024C131.433 401.91 135.399 405.871 140.292 405.871Z" fill="white"/>
<path d="M181.9 388.177C180.148 388.177 178.435 388.696 176.978 389.668C175.522 390.64 174.386 392.022 173.716 393.638C173.045 395.255 172.87 397.034 173.212 398.75C173.554 400.466 174.397 402.042 175.636 403.279C176.875 404.517 178.453 405.359 180.172 405.701C181.89 406.042 183.671 405.867 185.29 405.197C186.909 404.528 188.292 403.394 189.265 401.939C190.239 400.484 190.758 398.773 190.758 397.024C190.758 394.677 189.825 392.427 188.164 390.768C186.503 389.109 184.249 388.177 181.9 388.177Z" fill="white"/>
<path d="M223.591 388.177C221.839 388.177 220.126 388.696 218.669 389.668C217.212 390.64 216.077 392.022 215.406 393.638C214.736 395.255 214.561 397.034 214.902 398.75C215.244 400.466 216.088 402.042 217.327 403.279C218.566 404.517 220.144 405.359 221.862 405.701C223.581 406.042 225.362 405.867 226.981 405.197C228.599 404.528 229.983 403.394 230.956 401.939C231.93 400.484 232.449 398.773 232.449 397.024C232.449 394.677 231.516 392.427 229.854 390.768C228.193 389.109 225.94 388.177 223.591 388.177Z" fill="white"/>
<path d="M265.116 405.871C270.009 405.871 273.975 401.91 273.975 397.024C273.975 392.138 270.009 388.177 265.116 388.177C260.224 388.177 256.258 392.138 256.258 397.024C256.258 401.91 260.224 405.871 265.116 405.871Z" fill="white"/>
<path d="M306.708 388.177C304.957 388.18 303.246 388.702 301.791 389.676C300.337 390.65 299.204 392.033 298.536 393.65C297.868 395.266 297.695 397.045 298.039 398.76C298.382 400.475 299.227 402.05 300.467 403.285C301.706 404.521 303.285 405.362 305.003 405.702C306.721 406.042 308.501 405.866 310.119 405.196C311.736 404.525 313.119 403.392 314.092 401.937C315.064 400.483 315.583 398.773 315.583 397.024C315.583 395.86 315.354 394.709 314.907 393.634C314.461 392.56 313.807 391.584 312.983 390.762C312.159 389.94 311.18 389.289 310.103 388.846C309.027 388.402 307.873 388.175 306.708 388.177Z" fill="white"/>
<path d="M348.316 388.177C346.564 388.177 344.852 388.696 343.395 389.668C341.938 390.64 340.803 392.022 340.132 393.638C339.462 395.255 339.286 397.034 339.628 398.75C339.97 400.466 340.814 402.042 342.053 403.279C343.291 404.517 344.87 405.359 346.588 405.701C348.307 406.042 350.088 405.867 351.706 405.197C353.325 404.528 354.709 403.394 355.682 401.939C356.655 400.484 357.175 398.773 357.175 397.024C357.175 394.677 356.242 392.427 354.58 390.768C352.919 389.109 350.666 388.177 348.316 388.177Z" fill="white"/>
<path d="M389.892 388.177C388.14 388.177 386.427 388.696 384.971 389.668C383.514 390.64 382.378 392.022 381.708 393.638C381.038 395.255 380.862 397.034 381.204 398.75C381.546 400.466 382.389 402.042 383.628 403.279C384.867 404.517 386.446 405.359 388.164 405.701C389.882 406.042 391.663 405.867 393.282 405.197C394.901 404.528 396.284 403.394 397.258 401.939C398.231 400.484 398.751 398.773 398.751 397.024C398.751 394.677 397.817 392.427 396.156 390.768C394.495 389.109 392.242 388.177 389.892 388.177Z" fill="white"/>
<path d="M431.533 388.177C429.781 388.177 428.069 388.696 426.612 389.668C425.155 390.64 424.02 392.022 423.349 393.638C422.679 395.255 422.503 397.034 422.845 398.75C423.187 400.466 424.031 402.042 425.269 403.279C426.508 404.517 428.087 405.359 429.805 405.701C431.523 406.042 433.305 405.867 434.923 405.197C436.542 404.528 437.925 403.394 438.899 401.939C439.872 400.484 440.392 398.773 440.392 397.024C440.392 394.677 439.458 392.427 437.797 390.768C436.136 389.109 433.883 388.177 431.533 388.177Z" fill="white"/>
<path d="M57.075 450.204C61.9674 450.204 65.9334 446.243 65.9334 441.357C65.9334 436.471 61.9674 432.51 57.075 432.51C52.1826 432.51 48.2166 436.471 48.2166 441.357C48.2166 446.243 52.1826 450.204 57.075 450.204Z" fill="white"/>
<path d="M98.6834 432.51C96.9313 432.51 95.2187 433.029 93.7619 434.001C92.3051 434.973 91.1697 436.355 90.4993 437.971C89.8288 439.588 89.6534 441.366 89.9952 443.083C90.337 444.799 91.1806 446.375 92.4195 447.612C93.6583 448.85 95.2367 449.692 96.9551 450.033C98.6735 450.375 100.455 450.2 102.073 449.53C103.692 448.86 105.075 447.727 106.049 446.272C107.022 444.817 107.542 443.106 107.542 441.357C107.542 439.01 106.608 436.76 104.947 435.101C103.286 433.442 101.033 432.51 98.6834 432.51Z" fill="white"/>
<path d="M140.292 450.204C145.184 450.204 149.15 446.243 149.15 441.357C149.15 436.471 145.184 432.51 140.292 432.51C135.399 432.51 131.433 436.471 131.433 441.357C131.433 446.243 135.399 450.204 140.292 450.204Z" fill="white"/>
<path d="M181.9 432.51C180.148 432.51 178.435 433.029 176.978 434.001C175.522 434.973 174.386 436.355 173.716 437.971C173.045 439.588 172.87 441.366 173.212 443.083C173.554 444.799 174.397 446.375 175.636 447.612C176.875 448.85 178.453 449.692 180.172 450.033C181.89 450.375 183.671 450.2 185.29 449.53C186.909 448.86 188.292 447.727 189.265 446.272C190.239 444.817 190.758 443.106 190.758 441.357C190.758 439.01 189.825 436.76 188.164 435.101C186.503 433.442 184.249 432.51 181.9 432.51Z" fill="white"/>
<path d="M223.591 432.51C221.839 432.51 220.126 433.029 218.669 434.001C217.212 434.973 216.077 436.355 215.406 437.971C214.736 439.588 214.561 441.366 214.902 443.083C215.244 444.799 216.088 446.375 217.327 447.612C218.566 448.85 220.144 449.692 221.862 450.033C223.581 450.375 225.362 450.2 226.981 449.53C228.599 448.86 229.983 447.727 230.956 446.272C231.93 444.817 232.449 443.106 232.449 441.357C232.449 439.01 231.516 436.76 229.854 435.101C228.193 433.442 225.94 432.51 223.591 432.51Z" fill="white"/>
<path d="M265.116 450.204C270.009 450.204 273.975 446.243 273.975 441.357C273.975 436.471 270.009 432.51 265.116 432.51C260.224 432.51 256.258 436.471 256.258 441.357C256.258 446.243 260.224 450.204 265.116 450.204Z" fill="white"/>
<path d="M306.708 432.51C304.957 432.513 303.246 433.035 301.791 434.009C300.337 434.983 299.204 436.366 298.536 437.982C297.868 439.599 297.695 441.378 298.039 443.093C298.382 444.808 299.227 446.382 300.467 447.618C301.706 448.854 303.285 449.695 305.003 450.035C306.721 450.375 308.501 450.199 310.119 449.528C311.736 448.858 313.119 447.724 314.092 446.27C315.064 444.815 315.583 443.106 315.583 441.357C315.583 440.193 315.354 439.042 314.907 437.967C314.461 436.893 313.807 435.917 312.983 435.095C312.159 434.273 311.18 433.622 310.103 433.179C309.027 432.735 307.873 432.508 306.708 432.51Z" fill="white"/>
<path d="M348.316 432.51C346.564 432.51 344.852 433.029 343.395 434.001C341.938 434.973 340.803 436.355 340.132 437.971C339.462 439.588 339.286 441.366 339.628 443.083C339.97 444.799 340.814 446.375 342.053 447.612C343.291 448.85 344.87 449.692 346.588 450.033C348.307 450.375 350.088 450.2 351.706 449.53C353.325 448.86 354.709 447.727 355.682 446.272C356.655 444.817 357.175 443.106 357.175 441.357C357.175 439.01 356.242 436.76 354.58 435.101C352.919 433.442 350.666 432.51 348.316 432.51Z" fill="white"/>
<path d="M389.892 432.51C388.14 432.51 386.427 433.029 384.971 434.001C383.514 434.973 382.378 436.355 381.708 437.971C381.038 439.588 380.862 441.366 381.204 443.083C381.546 444.799 382.389 446.375 383.628 447.612C384.867 448.85 386.446 449.692 388.164 450.033C389.882 450.375 391.663 450.2 393.282 449.53C394.901 448.86 396.284 447.727 397.258 446.272C398.231 444.817 398.751 443.106 398.751 441.357C398.751 439.01 397.817 436.76 396.156 435.101C394.495 433.442 392.242 432.51 389.892 432.51Z" fill="white"/>
<path d="M98.6834 476.843C96.9267 476.84 95.2085 477.357 93.7465 478.33C92.2846 479.302 91.1445 480.686 90.4707 482.307C89.797 483.927 89.6198 485.71 89.9617 487.431C90.3036 489.152 91.1493 490.733 92.3914 491.973C93.6336 493.214 95.2165 494.058 96.9396 494.4C98.6626 494.741 100.448 494.564 102.071 493.892C103.693 493.219 105.079 492.08 106.053 490.62C107.027 489.16 107.545 487.444 107.542 485.69C107.542 483.343 106.608 481.093 104.947 479.434C103.286 477.775 101.033 476.843 98.6834 476.843Z" fill="white"/>
<path d="M140.292 494.536C145.184 494.536 149.15 490.576 149.15 485.69C149.15 480.804 145.184 476.843 140.292 476.843C135.399 476.843 131.433 480.804 131.433 485.69C131.433 490.576 135.399 494.536 140.292 494.536Z" fill="white"/>
<path d="M181.9 476.843C180.143 476.84 178.425 477.357 176.963 478.33C175.501 479.302 174.361 480.686 173.687 482.307C173.013 483.927 172.836 485.71 173.178 487.431C173.52 489.152 174.366 490.733 175.608 491.973C176.85 493.214 178.433 494.058 180.156 494.4C181.879 494.741 183.665 494.564 185.287 493.892C186.91 493.219 188.295 492.08 189.269 490.62C190.243 489.16 190.762 487.444 190.758 485.69C190.758 483.343 189.825 481.093 188.164 479.434C186.502 477.775 184.249 476.843 181.9 476.843Z" fill="white"/>
<path d="M223.591 476.843C221.834 476.84 220.116 477.357 218.654 478.33C217.192 479.302 216.052 480.686 215.378 482.307C214.704 483.927 214.527 485.71 214.869 487.431C215.211 489.152 216.056 490.733 217.299 491.973C218.541 493.214 220.124 494.058 221.847 494.4C223.57 494.741 225.356 494.564 226.978 493.892C228.6 493.219 229.986 492.08 230.96 490.62C231.934 489.16 232.452 487.444 232.449 485.69C232.449 483.343 231.516 481.093 229.855 479.434C228.193 477.775 225.94 476.843 223.591 476.843Z" fill="white"/>
<path d="M265.116 494.536C270.009 494.536 273.975 490.576 273.975 485.69C273.975 480.804 270.009 476.843 265.116 476.843C260.224 476.843 256.258 480.804 256.258 485.69C256.258 490.576 260.224 494.536 265.116 494.536Z" fill="white"/>
<path d="M306.708 476.843C304.952 476.843 303.236 477.363 301.776 478.338C300.316 479.312 299.179 480.698 298.507 482.318C297.836 483.939 297.661 485.721 298.005 487.441C298.349 489.161 299.196 490.74 300.439 491.979C301.682 493.218 303.264 494.061 304.987 494.401C306.71 494.741 308.495 494.563 310.116 493.89C311.737 493.217 313.122 492.078 314.096 490.618C315.069 489.159 315.587 487.443 315.583 485.69C315.583 484.526 315.354 483.375 314.907 482.3C314.461 481.226 313.807 480.25 312.983 479.428C312.159 478.606 311.18 477.955 310.103 477.511C309.027 477.068 307.873 476.841 306.708 476.843Z" fill="white"/>
<path d="M348.317 476.843C346.56 476.84 344.842 477.357 343.38 478.33C341.918 479.302 340.778 480.686 340.104 482.307C339.43 483.927 339.253 485.71 339.595 487.431C339.937 489.152 340.783 490.733 342.025 491.973C343.267 493.214 344.85 494.058 346.573 494.4C348.296 494.741 350.082 494.564 351.704 493.892C353.326 493.219 354.712 492.08 355.686 490.62C356.66 489.16 357.178 487.444 357.175 485.69C357.175 483.343 356.242 481.093 354.581 479.434C352.919 477.775 350.666 476.843 348.317 476.843Z" fill="white"/>
<path d="M181.9 521.192C179.599 521.189 177.388 522.086 175.742 523.692C180.33 524.525 184.968 525.249 189.655 525.863C188.907 524.456 187.79 523.278 186.425 522.456C185.059 521.634 183.495 521.197 181.9 521.192Z" fill="white"/>
<path d="M223.591 521.192C221.636 521.19 219.736 521.834 218.187 523.024C216.638 524.214 215.527 525.883 215.029 527.77C217.877 527.852 220.726 527.918 223.591 527.918C226.456 527.918 229.304 527.918 232.136 527.77C231.643 525.883 230.537 524.212 228.99 523.022C227.443 521.831 225.544 521.188 223.591 521.192Z" fill="white"/>
<path d="M257.345 525.862C262.021 525.249 266.659 524.525 271.258 523.692C270.28 522.738 269.093 522.025 267.791 521.609C266.489 521.194 265.108 521.087 263.757 521.298C262.407 521.508 261.124 522.031 260.011 522.823C258.897 523.615 257.985 524.656 257.345 525.862Z" fill="white"/>
</g>
<defs>
<clipPath id="clip0_80_5790">
<rect width="517" height="528" fill="white" transform="translate(-35)"/>
</clipPath>
</defs>
</svg>
