<svg width="158" height="90" viewBox="0 0 158 90" fill="none" xmlns="http://www.w3.org/2000/svg">
<path d="M167.676 89.0169C160.582 89.0169 157.129 83.0352 154.084 77.7504C151.233 72.8106 148.776 68.5469 144.063 68.5469C139.35 68.5469 136.886 72.8106 134.035 77.7504C130.99 83.0352 127.544 89.0169 120.45 89.0169C113.357 89.0169 109.91 83.0352 106.858 77.7504C104.014 72.8106 101.55 68.5469 96.8373 68.5469C92.1244 68.5469 89.6606 72.8106 86.8094 77.7573C83.7713 83.0352 80.3179 89.0169 73.2243 89.0169C66.1308 89.0169 62.6844 83.0352 59.6394 77.7504C56.7882 72.8106 54.3313 68.5469 49.6184 68.5469C44.9055 68.5469 42.4418 72.8106 39.5975 77.7504C36.5455 83.0352 33.0991 89.0169 26.0055 89.0169C18.912 89.0169 15.4656 83.0352 12.4205 77.7504C9.56928 72.8106 7.10558 68.5469 2.39269 68.5469C1.8978 68.4766 1.44495 68.2306 1.11735 67.8542C0.789751 67.4777 0.609375 66.9961 0.609375 66.4978C0.609375 65.9994 0.789751 65.5178 1.11735 65.1414C1.44495 64.765 1.8978 64.519 2.39269 64.4487C9.48624 64.4487 12.9326 70.4304 15.9846 75.7152C18.8289 80.655 21.2926 84.9187 26.0055 84.9187C30.7184 84.9187 33.1821 80.655 36.0334 75.7152C39.0784 70.4304 42.5248 64.4487 49.6184 64.4487C56.712 64.4487 60.1584 70.4304 63.2034 75.7083C66.0547 80.655 68.5115 84.9187 73.2243 84.9187C77.9372 84.9187 80.401 80.655 83.2454 75.7152C86.2973 70.4304 89.7438 64.4487 96.8373 64.4487C103.931 64.4487 107.377 70.4304 110.422 75.7152C113.274 80.655 115.737 84.9187 120.45 84.9187C125.163 84.9187 127.627 80.655 130.471 75.7083C133.516 70.4304 136.97 64.4487 144.063 64.4487C151.157 64.4487 154.603 70.4304 157.648 75.7152C160.499 80.655 162.956 84.9187 167.676 84.9187C172.396 84.9187 174.846 80.655 177.697 75.7152C180.742 70.4304 184.195 64.4487 191.289 64.4487C191.784 64.519 192.237 64.765 192.564 65.1414C192.892 65.5178 193.072 65.9994 193.072 66.4978C193.072 66.9961 192.892 67.4777 192.564 67.8542C192.237 68.2306 191.784 68.4766 191.289 68.5469C186.569 68.5469 184.112 72.8106 181.261 77.7504C178.216 83.0352 174.763 89.0169 167.676 89.0169Z" fill="url(#paint0_linear_80_5785)"/>
<path d="M167.676 56.8045C160.582 56.8045 157.129 50.8228 154.084 45.538C151.233 40.5982 148.776 36.3345 144.063 36.3345C139.35 36.3345 136.886 40.5982 134.035 45.538C130.99 50.8228 127.544 56.8045 120.45 56.8045C113.357 56.8045 109.91 50.8228 106.858 45.538C104.014 40.5982 101.55 36.3345 96.8373 36.3345C92.1244 36.3345 89.6606 40.5982 86.8094 45.5449C83.7713 50.8228 80.3179 56.8045 73.2243 56.8045C66.1308 56.8045 62.6844 50.8228 59.6394 45.538C56.7882 40.5982 54.3313 36.3345 49.6184 36.3345C44.9055 36.3345 42.4418 40.5982 39.5975 45.538C36.5455 50.8228 33.0991 56.8045 26.0055 56.8045C18.912 56.8045 15.4656 50.8228 12.4205 45.538C9.56928 40.5982 7.10558 36.3345 2.39269 36.3345C1.8978 36.2642 1.44495 36.0182 1.11735 35.6418C0.789751 35.2653 0.609375 34.7837 0.609375 34.2854C0.609375 33.787 0.789751 33.3054 1.11735 32.929C1.44495 32.5526 1.8978 32.3066 2.39269 32.2363C9.48624 32.2363 12.9326 38.218 15.9846 43.5028C18.8289 48.4426 21.2926 52.7063 26.0055 52.7063C30.7184 52.7063 33.1821 48.4426 36.0334 43.5028C39.0784 38.218 42.5248 32.2363 49.6184 32.2363C56.712 32.2363 60.1584 38.218 63.2034 43.4959C66.0547 48.4426 68.5115 52.7063 73.2243 52.7063C77.9372 52.7063 80.401 48.4426 83.2454 43.5028C86.2973 38.218 89.7438 32.2363 96.8373 32.2363C103.931 32.2363 107.377 38.218 110.422 43.5028C113.274 48.4426 115.737 52.7063 120.45 52.7063C125.163 52.7063 127.627 48.4426 130.471 43.4959C133.516 38.218 136.97 32.2363 144.063 32.2363C151.157 32.2363 154.603 38.218 157.648 43.5028C160.499 48.4426 162.956 52.7063 167.676 52.7063C172.396 52.7063 174.846 48.4426 177.697 43.5028C180.742 38.218 184.195 32.2363 191.289 32.2363C191.784 32.3066 192.237 32.5526 192.564 32.929C192.892 33.3054 193.072 33.787 193.072 34.2854C193.072 34.7837 192.892 35.2653 192.564 35.6418C192.237 36.0182 191.784 36.2642 191.289 36.3345C186.569 36.3345 184.112 40.5982 181.261 45.538C178.216 50.8228 174.763 56.8045 167.676 56.8045Z" fill="url(#paint1_linear_80_5785)"/>
<path d="M167.676 24.5923C160.582 24.5923 157.129 18.6106 154.084 13.3258C151.232 8.38599 148.776 4.11538 144.063 4.11538C139.35 4.11538 136.886 8.38599 134.035 13.3258C130.99 18.6106 127.543 24.5923 120.45 24.5923C113.356 24.5923 109.91 18.6106 106.858 13.3258C104.014 8.38599 101.55 4.11538 96.837 4.11538C92.1241 4.11538 89.6604 8.38599 86.8091 13.3258C83.771 18.6106 80.3176 24.5923 73.2241 24.5923C66.1305 24.5923 62.6842 18.6106 59.6391 13.3258C56.7879 8.38599 54.331 4.11538 49.6181 4.11538C44.9052 4.11538 42.4415 8.38599 39.5972 13.3258C36.5452 18.6106 33.0988 24.5923 26.0052 24.5923C18.9117 24.5923 15.4653 18.6106 12.4203 13.3258C9.569 8.38599 7.1053 4.11538 2.39241 4.11538C2.09652 4.16084 1.79423 4.14196 1.50635 4.06005C1.21846 3.97814 0.951781 3.83512 0.724536 3.64081C0.497291 3.4465 0.31488 3.20551 0.189825 2.93434C0.0647697 2.66316 0 2.3682 0 2.06974C0 1.77128 0.0647697 1.47637 0.189825 1.20519C0.31488 0.934019 0.497291 0.69303 0.724536 0.498722C0.951781 0.304414 1.21846 0.161393 1.50635 0.0794793C1.79423 -0.00243453 2.09652 -0.0213099 2.39241 0.0241474C9.48596 0.0241474 12.9324 6.00578 15.9843 11.2837C18.8287 16.2304 21.2924 20.4941 26.0052 20.4941C30.7181 20.4941 33.1818 16.2304 36.0331 11.2837C39.0781 6.00578 42.5246 0.0241474 49.6181 0.0241474C56.7117 0.0241474 60.1581 6.00578 63.2031 11.2837C66.0544 16.2304 68.5112 20.4941 73.2241 20.4941C77.937 20.4941 80.4007 16.2304 83.2451 11.2906C86.297 6.00579 89.7435 0.0241474 96.837 0.0241474C103.931 0.0241474 107.377 6.00578 110.422 11.2837C113.273 16.2304 115.737 20.4941 120.45 20.4941C125.163 20.4941 127.626 16.2304 130.471 11.2837C133.516 6.00578 136.969 0.0241474 144.063 0.0241474C151.156 0.0241474 154.603 6.00578 157.648 11.2837C160.499 16.2304 162.956 20.4941 167.676 20.4941C172.395 20.4941 174.845 16.2304 177.697 11.2837C180.742 6.00578 184.195 0.0241474 191.289 0.0241474C191.779 0.0994333 192.225 0.34708 192.548 0.722281C192.871 1.09748 193.048 1.57544 193.048 2.06974C193.048 2.56405 192.871 3.04205 192.548 3.41725C192.225 3.79245 191.779 4.0401 191.289 4.11538C186.569 4.11538 184.112 8.38599 181.261 13.3258C178.216 18.6106 174.762 24.5923 167.676 24.5923Z" fill="url(#paint2_linear_80_5785)"/>
<defs>
<linearGradient id="paint0_linear_80_5785" x1="96.8373" y1="108.307" x2="96.8373" y2="27.8622" gradientUnits="userSpaceOnUse">
<stop stop-color="#DB5432"/>
<stop offset="1" stop-color="#FF836C"/>
</linearGradient>
<linearGradient id="paint1_linear_80_5785" x1="96.8373" y1="86.9748" x2="96.8373" y2="-30.2085" gradientUnits="userSpaceOnUse">
<stop stop-color="#DB5432"/>
<stop offset="1" stop-color="#FF836C"/>
</linearGradient>
<linearGradient id="paint2_linear_80_5785" x1="96.837" y1="86.975" x2="96.837" y2="-30.2082" gradientUnits="userSpaceOnUse">
<stop stop-color="#DB5432"/>
<stop offset="1" stop-color="#FF836C"/>
</linearGradient>
</defs>
</svg>
