<svg width="280" height="199" viewBox="0 0 280 199" fill="none" xmlns="http://www.w3.org/2000/svg">
<g clip-path="url(#clip0_289_71)">
<path d="M280 118.532C280 113.705 278.73 111.254 277.495 108.881C276.26 106.509 275.096 104.267 275.096 99.6546C275.009 96.54 275.538 93.4283 276.676 90.3563C277.843 87.1904 278.388 83.984 278.303 80.7747C278.303 75.9482 277.015 73.4938 275.775 71.1216C274.534 68.7494 273.351 66.5095 273.351 61.8974C273.351 57.2854 274.522 55.0402 275.693 52.668C276.863 50.2958 278.162 47.8441 278.162 43.0202C278.241 39.8179 277.746 36.618 276.682 33.4519C275.658 30.3703 275.19 27.2562 275.283 24.1403C275.23 21.0185 275.577 17.8979 276.325 14.7944C277.089 11.6293 277.445 8.44684 277.39 5.26308C277.422 4.95913 277.315 4.65545 277.075 4.37112C276.836 4.0868 276.468 3.828 275.997 3.61099C274.241 2.85114 271.566 2.88556 268.974 2.91998C268.441 2.91998 267.903 2.91998 267.364 2.91998C256.899 2.91998 251.813 2.39046 246.429 1.86094C241.044 1.33143 235.519 0.754256 224.598 0.754256C217.348 0.718012 210.104 0.958024 202.943 1.47175C195.977 1.97595 188.928 2.20979 181.873 2.17071C171.409 2.17071 166.323 1.64119 160.938 1.11168C155.554 0.582163 150.023 -0.000303932 139.108 -0.000303932C131.86 -0.0361689 124.617 0.195823 117.453 0.69336C110.483 1.18251 103.435 1.40922 96.3828 1.37114C85.725 1.37114 80.3053 1.29436 75.0671 1.22288C69.8289 1.15139 64.3391 1.07461 53.6228 1.07461C42.9065 1.07461 37.5453 0.995185 32.3013 0.921052C27.0573 0.84692 21.5791 0.767494 10.8569 0.767494C6.37958 0.767494 3.36547 2.57314 3.36547 5.26838C3.36547 9.98901 3.36547 12.348 3.36547 14.707C3.36547 17.066 3.36547 19.4276 3.36547 24.1483C3.4308 27.2675 3.01818 30.3849 2.13056 33.4783C1.22293 36.6446 0.800509 39.8355 0.86635 43.0282C0.86635 47.77 1.12386 50.1766 1.36968 52.5118C1.61549 54.8469 1.873 57.2086 1.873 61.908C1.873 66.6075 1.6506 68.9956 1.43405 71.3069C1.2175 73.6183 0.989234 76.0461 0.989234 80.7853C0.875711 84.0274 1.6483 87.2634 3.28939 90.4198C4.45993 92.8026 5.50173 95.0425 5.50173 99.6625C5.50173 104.283 4.21998 106.501 2.86801 108.871C1.51603 111.24 0.0996094 113.705 0.0996094 118.542C0.0996094 123.274 0.240129 125.691 0.374742 128.008C0.509354 130.324 0.649802 132.715 0.649802 137.422C0.558761 140.638 1.15661 143.851 2.43491 147.014C3.67462 150.077 4.25088 153.187 4.15558 156.3C4.15558 161.049 4.51256 163.464 4.85202 165.799C5.19147 168.134 5.53681 170.488 5.53681 175.177C5.53681 179.799 4.47748 182.045 3.35961 184.425C2.24175 186.805 1.08876 189.238 1.08876 194.057C1.08876 196.439 6.13382 198.028 10.8394 198.028C21.5557 198.028 27.0046 197.962 32.2779 197.901C37.5512 197.84 42.9416 197.776 53.6052 197.776C60.6712 197.743 67.7332 197.944 74.7336 198.38C81.9089 198.825 89.1466 199.032 96.3887 199C103.637 199.036 110.88 198.803 118.044 198.303C125.014 197.817 132.061 197.591 139.114 197.628C146.358 197.662 153.598 197.443 160.769 196.974C167.758 196.515 174.817 196.302 181.879 196.339C192.356 196.339 197.448 196.826 202.838 197.342C208.228 197.859 213.736 198.401 224.645 198.401C235.408 198.401 240.886 198.216 246.177 198.039C251.468 197.861 256.794 197.684 267.405 197.684C268.611 197.684 270.331 197.618 271.578 197.059C272.977 196.418 272.959 195.523 272.942 194.488C272.942 194.351 272.942 194.223 272.942 194.062C272.846 190.948 273.434 187.838 274.698 184.777C275.995 181.613 276.603 178.399 276.512 175.182C276.579 171.987 276.145 168.794 275.213 165.627C274.299 162.536 273.877 159.42 273.948 156.302C273.948 151.579 273.908 149.178 273.872 146.856C273.837 144.534 273.79 142.138 273.79 137.422C273.79 132.839 275.277 130.61 276.851 128.251C278.426 125.892 280 123.39 280 118.532Z" fill="white"/>
</g>
<g clip-path="url(#clip1_289_71)">
<path d="M192.992 105.883V60.955C192.119 57.1678 189.542 55.1593 185.648 55.2676C185.031 55.2861 184.602 55.0033 184.141 54.6598C181.581 52.7226 178.994 50.8118 176.475 48.8218C176.049 48.4592 175.543 48.2055 175 48.0822C174.456 47.9589 173.891 47.9697 173.352 48.1135C166.654 49.7177 159.904 51.1105 153.244 52.8706C147.571 54.3796 143.227 57.7651 140.167 62.8234C139.607 63.7484 139.589 63.7352 139.053 62.8736C135.653 57.3951 130.851 53.9039 124.584 52.4794C118.481 51.0929 112.378 49.6675 106.275 48.2034C104.811 47.8519 103.581 48.0554 102.376 49.0094C99.993 50.8938 97.5344 52.6803 95.1307 54.5382C94.4594 55.1013 93.6099 55.4015 92.7375 55.3839C89.7951 55.3205 85.9634 57.9606 85.9843 62.2552C86.0497 76.3493 85.9844 90.4435 86.0288 104.54C86.0471 109.546 88.4795 113.24 92.7428 115.656C95.5414 117.242 98.646 118.135 101.609 119.356C101.9 119.475 102.195 119.583 102.48 119.71C103.309 120.075 103.325 120.183 102.692 120.878C99.8883 123.946 96.4411 125.987 92.5649 127.337C90.9093 127.913 89.3243 128.579 88.0898 129.924C86.7245 131.41 85.9739 133.096 85.9974 135.147C86.0367 138.344 86.0837 141.545 85.9974 144.74C85.8536 149.719 90.7524 153.157 95.4708 151.648C99.1481 150.472 102.684 148.876 106.281 147.46C116.807 143.305 127.328 139.132 137.844 134.941C138.381 134.706 138.96 134.585 139.545 134.585C140.129 134.585 140.708 134.706 141.245 134.941C152.122 139.267 163.032 143.501 173.899 147.808C176.912 149 179.915 150.232 182.946 151.355C186.694 152.74 190.215 151.466 192.27 148.141C192.733 147.391 192.72 146.54 192.987 145.763V134.15C192.537 130.736 190.437 128.711 187.379 127.665C184.317 126.64 181.441 125.113 178.869 123.146C177.49 122.089 176.713 122.089 175.515 123.077C174.684 124.456 174.83 125.514 176.039 126.494C178.588 128.574 181.471 130.198 184.562 131.296C185.188 131.515 185.813 131.729 186.427 131.975C188.114 132.654 188.902 133.955 188.949 135.736C188.988 137.176 188.967 138.619 188.949 140.06C188.949 141.051 188.865 141.093 187.918 140.726C182.075 138.453 176.248 136.14 170.41 133.854C165.739 132.025 161.08 130.173 156.404 128.357C156.158 128.262 155.881 128.238 155.638 127.913C161.58 125.559 167.488 123.196 173.423 120.905C176.596 119.583 179.807 118.357 183.001 117.094C185.146 116.253 187.212 115.302 188.928 113.69C191.157 111.658 192.598 108.89 192.992 105.883Z" fill="#010101"/>
<path d="M174.608 59.6338C173.038 59.2295 172.685 58.7776 172.667 57.1469C172.651 55.8467 172.651 54.5464 172.667 53.2461C172.667 52.744 172.667 52.5062 171.995 52.67C165.775 54.187 159.44 55.26 153.331 57.2051C146.938 59.2427 143.078 63.9152 141.527 70.4482C141.187 71.878 141.462 73.4557 141.448 74.9648C141.435 76.4738 140.852 77.1266 139.356 77.2297C139.219 77.5525 139.169 77.9064 139.212 78.2551C139.212 82.0026 139.212 85.7475 139.212 89.495C139.212 90.0447 139.129 90.6287 139.555 91.0807C141.048 91.4639 141.441 91.9554 141.443 93.5041C141.443 96.1469 141.443 98.8083 141.443 101.744C143.047 99.5623 145.02 97.6835 147.271 96.1945C150.257 94.2098 153.642 93.3667 157.063 92.5924C161.996 91.4744 166.916 90.309 171.846 89.1884C172.521 89.0351 172.675 88.7127 172.672 88.0388C172.644 81.5058 172.651 74.9701 172.672 68.4344C172.672 66.706 173.018 66.2673 174.618 65.8418C174.702 65.7797 174.772 65.7007 174.824 65.6096C174.876 65.5186 174.908 65.4177 174.919 65.3132C175.05 63.6006 175.05 61.8803 174.919 60.1677C174.909 60.0611 174.876 59.958 174.822 59.8657C174.768 59.7734 174.695 59.6943 174.608 59.6338Z" fill="#D6D3BE"/>
<path d="M139.56 91.0912C139.56 86.8416 139.56 82.5919 139.56 78.3423C139.56 77.9564 139.589 77.5653 139.346 77.2296C138.213 76.9971 137.727 76.228 137.69 75.1154C137.661 74.238 137.653 73.3579 137.69 72.4726C137.844 68.8334 136.314 65.8127 134.201 63.0536C131.457 59.4726 127.769 57.4218 123.42 56.4466C117.817 55.1859 112.233 53.8328 106.652 52.522C106.437 52.8893 106.529 53.2461 106.526 53.5791C106.526 65.0304 106.526 76.4844 106.503 87.9357C106.503 88.7734 106.764 89.0404 107.549 89.2148C113.355 90.5256 119.155 91.8691 124.947 93.2451C130.084 94.4793 134.305 97.1882 137.687 101.689V100.074C137.687 97.8938 137.687 95.7161 137.687 93.5384C137.698 92.0453 138.082 91.5405 139.56 91.0912Z" fill="#FDFBE3"/>
<path d="M126.82 126.983L128.682 126.328C129.886 125.913 130.953 126.286 131.332 127.248C131.763 128.339 131.332 129.362 130.087 129.869C126.349 131.384 122.594 132.856 118.84 134.338C109.529 138.017 100.215 141.689 90.8989 145.353C90.1378 145.652 90.1457 145.977 90.5746 146.548C91.5267 147.819 93.1116 148.224 94.8013 147.558C98.3609 146.162 101.913 144.746 105.47 143.329C116.425 138.993 127.382 134.654 138.339 130.313C138.74 130.152 139.169 130.073 139.601 130.081C140.033 130.088 140.459 130.181 140.855 130.355C155.28 136.038 169.706 141.716 184.131 147.391C185.962 148.115 187.293 147.827 188.449 146.466C188.923 145.911 189.064 145.599 188.167 145.248C175.22 140.177 162.282 135.084 149.353 129.97C148.409 129.6 147.637 129.116 147.613 128.001C147.59 126.817 148.398 126.32 149.379 125.937C160.612 121.518 171.836 117.092 183.053 112.659C185.753 111.602 187.617 109.694 188.766 106.681C187.196 107.281 185.865 107.783 184.536 108.309C169.991 114.069 155.449 119.834 140.912 125.606C140.5 125.787 140.056 125.882 139.607 125.885C139.157 125.888 138.712 125.8 138.297 125.625C128.243 121.654 118.186 117.689 108.125 113.732C102.5 111.514 96.8745 109.306 91.2494 107.109C91.1463 107.04 91.0271 107 90.9036 106.992C90.7801 106.984 90.6568 107.009 90.5459 107.064C91.0925 108.888 92.2329 110.265 93.6845 111.42C95.225 112.633 97.0846 113.156 98.8579 113.856C106.615 116.927 114.389 119.953 122.157 122.998C123.465 123.511 123.747 124.023 123.697 125.723C124.589 126.529 125.701 126.785 126.82 126.983Z" fill="#8E673D"/>
<path d="M96.5847 96.8021C96.5062 97.357 97.0084 97.3015 97.2752 97.4073C108.532 101.863 119.794 106.31 131.06 110.748C131.536 110.936 131.941 111.042 132.427 110.732C133.672 109.961 135.042 109.418 136.474 109.131C136.997 109.017 137.162 108.89 136.939 108.314C134.912 103.066 131.326 99.3524 126.033 97.6345C120.391 95.8057 114.524 94.8411 108.77 93.4272C108.6 93.3928 108.433 93.3478 108.268 93.2924C106.22 92.4996 104.402 92.5498 102.776 94.3495C101.957 95.2534 101.261 95.0869 99.9691 94.2597C99.8967 94.2104 99.8099 94.1875 99.7229 94.1947C99.636 94.2019 99.554 94.2388 99.4905 94.2993C98.494 95.1159 97.3275 95.7079 96.5847 96.8021Z" fill="#B0A18D"/>
<path d="M180.66 97.7854C178.568 96.131 176.522 94.5084 174.477 92.8804C174.366 92.7722 174.229 92.6949 174.08 92.656C173.93 92.6171 173.773 92.6179 173.624 92.6584C166.798 94.3736 159.833 95.5364 153.116 97.6559C147.804 99.3368 144.224 103.097 142.223 108.351C142.037 108.83 142.058 108.994 142.605 109.107C144.104 109.414 145.54 109.981 146.847 110.785C146.991 110.882 147.156 110.94 147.329 110.954C147.501 110.968 147.673 110.937 147.83 110.865L180.375 98.018C180.467 97.9836 180.535 97.8912 180.66 97.7854Z" fill="#B0A18D"/>
<path d="M137.612 121.185C137.641 121.111 137.665 121.035 137.682 120.958C137.682 120.115 137.899 119.19 137.625 118.45C137.321 117.638 136.181 117.881 135.49 117.461C135.166 117.263 134.766 117.197 134.444 116.97C130.558 114.216 126.025 112.902 121.691 111.155C112.641 107.532 103.56 103.983 94.4899 100.404C92.9938 99.8125 92.761 99.4715 92.761 97.8145C92.761 85.4814 92.761 73.1482 92.761 60.8151V59.5571C90.9511 59.7289 89.9075 60.8151 89.884 62.5779C89.85 64.404 89.884 66.2329 89.884 68.0591C89.884 79.1976 89.884 90.3371 89.884 101.477C89.884 102.143 89.9991 102.503 90.7026 102.78C106.113 108.806 121.516 114.854 136.911 120.926C137.12 121.021 137.347 121.092 137.612 121.185Z" fill="#C9AD80"/>
<path d="M175.667 123.193C174.791 122.443 173.952 121.661 173.358 120.648C168.969 122.363 164.58 124.077 160.191 125.791C158.423 126.484 156.666 127.195 154.699 127.982L189.2 141.553C189.2 139.272 189.336 137.06 189.155 134.898C189.014 133.191 187.848 132.1 186.213 131.574C182.624 130.461 179.267 128.692 176.311 126.354C175.063 125.358 174.88 124.597 175.667 123.193Z" fill="#C9AD80"/>
<path d="M141.451 121.254L150.14 117.818C162.869 112.781 175.597 107.748 188.326 102.72C189.022 102.455 189.255 102.099 189.252 101.343C189.229 88.481 189.223 75.6193 189.234 62.7576C189.234 61.0926 188.488 59.906 187.23 59.5334C186.707 59.3774 186.32 59.4171 186.37 60.1227C186.388 60.3685 186.37 60.6143 186.37 60.86V97.5502C186.37 99.5905 186.228 99.8098 184.316 100.563C172.714 105.144 161.107 109.715 149.496 114.277C147.943 114.882 146.674 115.907 145.238 116.682C144.286 117.194 143.332 117.702 142.27 117.924C141.611 118.061 141.354 118.389 141.425 119.079C141.496 119.768 141.451 120.408 141.451 121.254Z" fill="#A57D48"/>
<path d="M126.82 126.983C125.845 126.386 124.728 126.119 123.682 125.712C122.719 126.909 122.065 127.068 120.593 126.489C116.583 124.903 112.568 123.357 108.562 121.756C107.895 121.492 107.497 121.624 107.058 122.16C103.396 126.653 98.7743 129.666 93.3237 131.455C90.7082 132.311 89.8581 133.569 89.8581 136.368C89.8581 138.021 89.8581 139.672 89.8581 141.321C89.8776 141.428 89.9073 141.533 89.947 141.635C91.8171 140.9 93.6794 140.174 95.539 139.436C105.844 135.359 116.147 131.279 126.449 127.195C126.579 127.137 126.704 127.066 126.82 126.983Z" fill="#7A5536"/>
<path d="M96.5849 96.8022L99.9589 94.2651C99.339 92.6794 99.3861 92.0848 100.838 91.1466C102.433 90.1159 102.823 88.8262 102.807 86.971C102.716 76.0509 102.763 65.1308 102.763 54.2159C102.462 54.0124 102.302 54.2714 102.127 54.4036C100.485 55.6378 98.8526 56.8878 97.2074 58.1194C96.802 58.4207 96.53 58.7114 96.5326 59.3007C96.5535 71.699 96.5596 84.0947 96.5509 96.4877C96.5509 96.5961 96.5745 96.6992 96.5849 96.8022Z" fill="#D6D3BE"/>
<path d="M174.608 59.6339C174.608 61.7058 174.608 63.7778 174.608 65.8498C176.099 66.336 176.439 66.817 176.439 68.5745C176.439 75.2555 176.439 81.9339 176.423 88.6149C176.401 88.9233 176.459 89.2322 176.592 89.5105C176.725 89.7889 176.929 90.0269 177.182 90.2006C178.947 91.5511 180.676 92.9492 182.413 94.3234C182.768 94.0935 182.625 93.7949 182.625 93.5306C182.635 82.1753 182.641 70.82 182.643 59.4647C182.67 59.2081 182.627 58.9488 182.518 58.7156C182.408 58.4824 182.237 58.2843 182.023 58.1433C180.192 56.8219 178.419 55.4344 176.442 53.9307C176.442 55.1226 176.442 56.1216 176.442 57.1179C176.41 58.6904 176.049 59.1766 174.608 59.6339Z" fill="#FDFBE3"/>
<path d="M143.261 113.315C140.735 112.421 138.357 112.366 135.954 113.336C138.224 114.919 140.727 114.932 143.261 113.315Z" fill="#474340"/>
<path d="M144.606 93.6468C145.207 93.7736 145.704 93.4301 146.07 93.0389C149.11 89.7856 152.994 88.2818 157.21 87.378C160.424 86.6935 163.618 85.9139 166.824 85.1924C167.842 84.9651 168.684 84.5158 168.917 83.4085C169.063 82.6949 168.655 82.1294 168.132 81.6907C167.955 81.5215 167.741 81.3971 167.507 81.3278C167.274 81.2584 167.027 81.246 166.788 81.2916C161.782 82.5232 156.689 83.4059 151.767 84.9625C148.599 85.972 145.911 87.8194 143.567 90.1688C142.44 91.2973 142.448 92.3254 143.455 93.2636C143.606 93.411 143.787 93.522 143.987 93.5884C144.186 93.6547 144.398 93.6747 144.606 93.6468Z" fill="#AEAA9A"/>
<path d="M144.582 82.2669C145.322 82.3647 145.866 81.8969 146.35 81.3975C149.227 78.4216 152.87 76.9919 156.812 76.125C160.33 75.3533 163.827 74.4759 167.331 73.6408C168.187 73.4373 168.773 72.9167 168.916 72.0287C169.039 71.257 168.637 70.6623 168.04 70.2448C167.444 69.8272 166.68 69.9435 166.021 70.0968C161.632 71.1063 157.233 72.0842 152.876 73.2206C149.944 74.0128 147.239 75.4902 144.977 77.5337C144.25 78.1759 143.394 78.6833 142.955 79.6215C142.314 80.972 143.075 82.2669 144.582 82.2669Z" fill="#AEAA9A"/>
<path d="M166.602 58.6375C165.074 58.9784 163.382 59.3352 161.698 59.7316C158.97 60.3738 156.236 61.0108 153.522 61.7085C149.652 62.662 146.143 64.7392 143.428 67.6839C142.531 68.6538 142.468 69.6475 143.285 70.472C143.978 71.1724 145.157 71.1539 146.007 70.3505C146.792 69.6105 147.613 68.9154 148.463 68.2362C151.207 66.077 154.479 65.2842 157.767 64.5363C160.937 63.8148 164.109 63.088 167.274 62.3269C168.351 62.0626 169.013 61.172 168.888 60.321C168.72 59.1793 167.977 58.5847 166.602 58.6375Z" fill="#AEAA9A"/>
<path d="M134.578 82.2851C134.929 82.3167 135.282 82.232 135.582 82.0438C135.882 81.8555 136.113 81.5738 136.241 81.2412C136.673 80.3294 136.351 79.5973 135.734 78.9525C134.172 77.3493 132.385 75.9885 130.429 74.9143C127.534 73.2837 124.301 72.7287 121.137 71.9622C118.542 71.3333 115.937 70.7598 113.335 70.1599C113.201 70.1281 113.073 70.0726 112.934 70.0489C111.556 69.811 110.58 70.3131 110.353 71.3703C110.091 72.5569 110.688 73.4105 112.116 73.7488C116.057 74.6976 120.009 75.5988 123.959 76.5343C127.312 77.3272 130.265 78.8441 132.715 81.3231C133.228 81.8384 133.769 82.3617 134.578 82.2851Z" fill="#AEAA9A"/>
<path d="M112.288 81.3258C111.258 81.3046 110.486 81.886 110.34 82.8348C110.17 83.9157 110.688 84.7323 111.823 85.0045C115.733 85.9375 119.656 86.8307 123.569 87.7584C126.938 88.5512 130.014 89.936 132.491 92.4705C132.72 92.6847 132.962 92.885 133.215 93.0704C134.198 93.8633 135.219 93.8633 135.917 93.118C136.668 92.3093 136.615 91.268 135.713 90.3034C134.157 88.6951 132.369 87.3352 130.409 86.2705C127.848 84.8381 125.031 84.2276 122.227 83.5695C119.35 82.8929 116.473 82.2481 113.612 81.5821C113.175 81.4738 112.73 81.4103 112.288 81.3258Z" fill="#AEAA9A"/>
<path d="M112.435 58.6292C111.161 58.6134 110.444 59.1895 110.327 60.1568C110.191 61.2615 110.75 62.0675 111.961 62.3662C113.878 62.8392 115.822 63.2172 117.736 63.7087C121.189 64.5914 124.769 65.0116 128.028 66.6158C129.788 67.4608 131.392 68.604 132.77 69.996C133.293 70.5457 133.903 71.069 134.753 70.9659C136.17 70.7915 136.845 69.404 136.121 68.1407C135.49 67.0545 134.439 66.3727 133.505 65.6063C130.367 63.0401 126.663 61.8217 122.782 60.976C119.565 60.2731 116.361 59.5093 113.149 58.7719C112.861 58.7059 112.555 58.6504 112.435 58.6292Z" fill="#AEAA9A"/>
</g>
<defs>
<clipPath id="clip0_289_71">
<rect width="280" height="199" fill="white"/>
</clipPath>
<clipPath id="clip1_289_71">
<rect width="107" height="104" fill="white" transform="matrix(-1 0 0 1 193 48)"/>
</clipPath>
</defs>
</svg>
