<svg width="107" height="104" viewBox="0 0 107 104" fill="none" xmlns="http://www.w3.org/2000/svg">
<g clip-path="url(#clip0_80_6098)">
<path d="M106.992 57.8828V12.955C106.119 9.1678 103.542 7.15926 99.6479 7.26762C99.0306 7.28612 98.6017 7.00333 98.1414 6.65977C95.5808 4.72259 92.994 2.81183 90.4753 0.821794C90.0492 0.459162 89.5431 0.205487 88.9995 0.0822085C88.4559 -0.0410696 87.891 -0.0303304 87.3524 0.113518C80.6541 1.71771 73.9035 3.11047 67.2445 4.87059C61.5715 6.37963 57.2271 9.76507 54.167 14.8234C53.6073 15.7484 53.589 15.7352 53.0528 14.8736C49.6526 9.39508 44.8506 5.90392 38.5838 4.47945C32.481 3.09285 26.3782 1.66749 20.2754 0.203372C18.8107 -0.148122 17.5814 0.0553798 16.3757 1.00944C13.993 2.89376 11.5344 4.6803 9.13073 6.5382C8.45939 7.10134 7.60989 7.40154 6.73754 7.3839C3.79511 7.32047 -0.0365833 9.96064 -0.0156593 14.2552C0.0497281 28.3493 -0.0156478 42.4435 0.0288156 56.5402C0.0471241 61.5457 2.47952 65.2404 6.74278 67.6559C9.54136 69.2416 12.646 70.1349 15.6093 71.3558C15.8996 71.4748 16.1952 71.5831 16.4803 71.71C17.3094 72.0747 17.3251 72.183 16.6921 72.8781C13.8883 75.9464 10.4411 77.9867 6.56494 79.3371C4.90933 79.9133 3.32434 80.5793 2.08983 81.9245C0.724539 83.4097 -0.0261085 85.0958 -0.00256907 87.1467C0.0366634 90.3445 0.0837424 93.5449 -0.00256907 96.7401C-0.146421 101.719 4.7524 105.157 9.47075 103.648C13.1481 102.472 16.6843 100.876 20.2806 99.4595C30.8071 95.305 41.3284 91.132 51.8444 86.9405C52.3812 86.706 52.9597 86.5851 53.5445 86.5851C54.1293 86.5851 54.7078 86.706 55.2446 86.9405C66.1224 91.2668 77.0317 95.5006 87.8991 99.8084C90.9121 101 93.9147 102.232 96.9461 103.355C100.694 104.74 104.215 103.466 106.27 100.141C106.733 99.3908 106.72 98.5398 106.987 97.7628V86.1503C106.537 82.7358 104.437 80.7114 101.379 79.6649C98.3166 78.6396 95.4414 77.1128 92.8685 75.1456C91.4901 74.0885 90.7133 74.0885 89.5154 75.0769C88.6837 76.4565 88.8302 77.5136 90.0385 78.4941C92.5885 80.5736 95.4712 82.1976 98.5624 83.2961C99.1875 83.5154 99.8127 83.7295 100.427 83.9753C102.114 84.6545 102.902 85.9548 102.949 87.736C102.988 89.1763 102.967 90.6193 102.949 92.0596C102.949 93.0507 102.865 93.093 101.918 92.7256C96.0751 90.4528 90.2478 88.1404 84.41 85.8543C79.7387 84.0255 75.0805 82.1729 70.404 80.3573C70.1581 80.2621 69.8809 80.2383 69.6377 79.9133C75.5801 77.5585 81.4885 75.1959 87.423 72.9045C90.5956 71.5831 93.8075 70.3569 97.001 69.0936C99.1457 68.2532 101.212 67.3018 102.928 65.6897C105.157 63.6577 106.598 60.8902 106.992 57.8828Z" fill="#010101"/>
<path d="M88.6077 11.6338C87.0385 11.2295 86.6854 10.7776 86.6671 9.14694C86.6514 7.84667 86.6514 6.54641 86.6671 5.24615C86.6671 4.74401 86.6671 4.50616 85.9949 4.67001C79.7752 6.18699 73.4405 7.25997 67.3307 9.20508C60.9384 11.2427 57.0779 15.9152 55.5269 22.4482C55.1869 23.878 55.4616 25.4557 55.4485 26.9648C55.4354 28.4738 54.8522 29.1266 53.3561 29.2297C53.2187 29.5525 53.169 29.9064 53.2122 30.2551C53.2122 34.0026 53.2122 37.7475 53.2122 41.495C53.2122 42.0447 53.1285 42.6287 53.5548 43.0807C55.0483 43.4639 55.4406 43.9554 55.4433 45.5041C55.4433 48.1469 55.4433 50.8083 55.4433 53.7444C57.0473 51.5623 59.02 49.6835 61.2706 48.1945C64.2575 46.2098 67.6419 45.3667 71.063 44.5924C75.9958 43.4744 80.9156 42.309 85.8458 41.1884C86.5206 41.0351 86.6749 40.7127 86.6723 40.0388C86.6435 33.5058 86.6514 26.9701 86.6723 20.4344C86.6723 18.706 87.0175 18.2673 88.6182 17.8418C88.702 17.7797 88.7721 17.7007 88.8239 17.6096C88.8757 17.5186 88.9081 17.4177 88.919 17.3132C89.0498 15.6006 89.0498 13.8803 88.919 12.1677C88.9091 12.0611 88.8761 11.958 88.8223 11.8657C88.7685 11.7734 88.6952 11.6943 88.6077 11.6338Z" fill="#D6D3BE"/>
<path d="M53.56 43.0912C53.56 38.8416 53.56 34.5919 53.56 30.3423C53.56 29.9564 53.5888 29.5653 53.3455 29.2296C52.213 28.9971 51.7265 28.228 51.6899 27.1154C51.6612 26.238 51.6533 25.3579 51.6899 24.4726C51.8442 20.8334 50.3142 17.8127 48.2008 15.0536C45.4572 11.4726 41.7693 9.42175 37.4198 8.44655C31.8174 7.18593 26.2333 5.83281 20.6518 4.52197C20.4373 4.88932 20.5289 5.2461 20.5263 5.5791C20.5263 17.0304 20.5262 28.4844 20.5027 39.9357C20.5027 40.7734 20.7643 41.0404 21.5489 41.2148C27.3553 42.5256 33.1547 43.8691 38.9472 45.2451C44.084 46.4793 48.3055 49.1882 51.6873 53.6889V52.0741C51.6873 49.8938 51.6873 47.7161 51.6873 45.5384C51.6978 44.0453 52.0822 43.5405 53.56 43.0912Z" fill="#FDFBE3"/>
<path d="M40.8202 78.9832L42.6824 78.3278C43.8855 77.9129 44.9527 78.2855 45.3319 79.2475C45.7635 80.339 45.3319 81.3618 44.0869 81.8692C40.3494 83.3835 36.5935 84.8556 32.8403 86.3382C23.5291 90.017 14.2154 93.6887 4.89895 97.3534C4.13784 97.6521 4.14569 97.9771 4.57463 98.548C5.52667 99.8192 7.11164 100.224 8.80125 99.5576C12.3609 98.1621 15.9128 96.7456 19.4699 95.329C30.4253 90.9931 41.3817 86.6545 52.3388 82.3132C52.7403 82.1524 53.1693 82.0733 53.6011 82.0806C54.0329 82.0878 54.459 82.1813 54.855 82.3555C69.2803 88.0375 83.7056 93.716 98.131 99.3911C99.9618 100.115 101.293 99.8271 102.449 98.4661C102.923 97.9111 103.064 97.5992 102.167 97.2477C89.22 92.1771 76.282 87.0843 63.3527 81.9696C62.4085 81.5996 61.6369 81.116 61.6134 80.0007C61.5899 78.8167 62.398 78.3199 63.3789 77.9367C74.6115 73.5179 85.8364 69.0921 97.0534 64.6592C99.7526 63.6021 101.617 61.694 102.766 58.6812C101.196 59.2811 99.8651 59.7832 98.5364 60.3091C83.9907 66.0687 69.4494 71.8344 54.9125 77.6063C54.5001 77.7869 54.056 77.8816 53.6066 77.8848C53.1572 77.888 52.7118 77.7996 52.297 77.6248C42.243 73.6536 32.1856 69.6894 22.1246 65.7322C16.4995 63.514 10.8745 61.3063 5.24942 59.1093C5.14632 59.0402 5.02706 58.9997 4.90358 58.9918C4.7801 58.9839 4.65675 59.0089 4.54586 59.0644C5.0925 60.8879 6.23286 62.2648 7.68446 63.4197C9.22499 64.6328 11.0846 65.156 12.8579 65.8564C20.6155 68.9273 28.3887 71.9534 36.1568 74.9979C37.4645 75.5106 37.747 76.0233 37.6973 77.7226C38.5892 78.5287 39.7008 78.785 40.8202 78.9832Z" fill="#8E673D"/>
<path d="M10.5847 48.8021C10.5062 49.357 11.0084 49.3015 11.2752 49.4073C22.5323 53.863 33.7937 58.31 45.0596 62.7482C45.5356 62.9358 45.941 63.0415 46.4275 62.7323C47.6718 61.9607 49.0418 61.4185 50.4737 61.1308C50.9968 61.0171 51.1615 60.8903 50.9392 60.3141C48.9122 55.0655 45.3263 51.3524 40.0326 49.6345C34.3909 47.8057 28.5244 46.8411 22.7703 45.4272C22.6003 45.3928 22.4326 45.3478 22.2681 45.2924C20.2202 44.4996 18.4024 44.5498 16.7756 46.3495C15.9569 47.2534 15.2612 47.0869 13.9691 46.2597C13.8967 46.2104 13.8099 46.1875 13.7229 46.1947C13.636 46.2019 13.554 46.2388 13.4905 46.2993C12.494 47.1159 11.3275 47.7079 10.5847 48.8021Z" fill="#B0A18D"/>
<path d="M94.6602 49.7854C92.5678 48.131 90.5224 46.5084 88.4771 44.8804C88.366 44.7722 88.2291 44.6949 88.0797 44.656C87.9303 44.6171 87.7735 44.6179 87.6245 44.6584C80.798 46.3736 73.833 47.5364 67.1164 49.6559C61.8043 51.3368 58.2237 55.0975 56.2228 60.3514C56.0371 60.8298 56.058 60.9936 56.6047 61.1073C58.1045 61.4136 59.54 61.9814 60.847 62.7854C60.9907 62.8821 61.1565 62.9401 61.3286 62.954C61.5006 62.9678 61.6734 62.9371 61.8304 62.8647L94.3751 50.018C94.4666 49.9836 94.5346 49.8912 94.6602 49.7854Z" fill="#B0A18D"/>
<path d="M51.6116 73.1849C51.6412 73.1112 51.6648 73.0352 51.6822 72.9576C51.6822 72.1146 51.8993 71.1896 51.6247 70.4496C51.3213 69.6382 50.1809 69.8814 49.4904 69.4612C49.1661 69.263 48.7659 69.1969 48.4442 68.9696C44.5576 66.2158 40.0249 64.9023 35.6911 63.1554C26.6414 59.5321 17.5604 55.9828 8.48988 52.4045C6.99382 51.8125 6.76104 51.4715 6.76104 49.8145C6.76104 37.4814 6.76104 25.1482 6.76104 12.8151V11.5571C4.95112 11.7289 3.90754 12.8151 3.884 14.5779C3.85 16.404 3.884 18.2329 3.884 20.0591C3.884 31.1976 3.884 42.3371 3.884 53.4774C3.884 54.1434 3.99908 54.5028 4.70265 54.7803C20.1132 60.806 35.5158 66.8545 50.9106 72.9259C51.1199 73.021 51.3474 73.0924 51.6116 73.1849Z" fill="#C9AD80"/>
<path d="M89.6673 75.1935C88.7911 74.4429 87.9515 73.6606 87.3578 72.6484C82.969 74.3627 78.5802 76.077 74.1914 77.7914C72.4233 78.4838 70.6657 79.1947 68.6988 79.9822L103.2 93.5531C103.2 91.2723 103.336 89.0603 103.155 86.8985C103.014 85.1912 101.848 84.0997 100.213 83.5738C96.6238 82.4612 93.2674 80.692 90.3107 78.3543C89.0631 77.3579 88.88 76.5968 89.6673 75.1935Z" fill="#C9AD80"/>
<path d="M55.4511 73.2536L64.1398 69.818C76.8686 64.7808 89.5973 59.748 102.326 54.7196C103.022 54.4553 103.255 54.0985 103.252 53.3427C103.229 40.481 103.223 27.6193 103.234 14.7576C103.234 13.0926 102.488 11.906 101.23 11.5334C100.707 11.3774 100.32 11.4171 100.37 12.1227C100.388 12.3685 100.37 12.6143 100.37 12.86V49.5502C100.37 51.5905 100.228 51.8098 98.3165 52.563C86.7141 57.1439 75.1074 61.7151 63.4964 66.2766C61.9428 66.8818 60.6743 67.9072 59.2384 68.6816C58.2863 69.1943 57.3316 69.7017 56.2698 69.9237C55.6106 70.0611 55.3543 70.3888 55.425 71.0786C55.4956 71.7684 55.4511 72.4079 55.4511 73.2536Z" fill="#A57D48"/>
<path d="M40.8203 78.9834C39.8447 78.3861 38.7279 78.1192 37.6817 77.7122C36.7192 78.9094 36.0653 79.0679 34.5928 78.4892C30.5832 76.9035 26.5685 75.3574 22.5615 73.7559C21.8946 73.4916 21.497 73.6237 21.0576 74.1602C17.3959 78.653 12.7743 81.6658 7.32365 83.455C4.70815 84.3113 3.85812 85.5692 3.85812 88.368C3.85812 90.0206 3.85812 91.6715 3.85812 93.3206C3.87755 93.4281 3.90733 93.5335 3.94704 93.6351C5.81712 92.9004 7.67935 92.1736 9.53897 91.4363C19.844 87.3593 30.1473 83.2788 40.4489 79.1948C40.5793 79.1369 40.7037 79.0661 40.8203 78.9834Z" fill="#7A5536"/>
<path d="M10.5849 48.8022L13.9589 46.2651C13.339 44.6794 13.3861 44.0848 14.8377 43.1466C16.4332 42.1159 16.8229 40.8262 16.8072 38.971C16.7156 28.0509 16.7627 17.1308 16.7627 6.21594C16.4619 6.01244 16.3024 6.27144 16.1271 6.40358C14.4846 7.63777 12.8526 8.88782 11.2074 10.1194C10.802 10.4207 10.53 10.7114 10.5326 11.3007C10.5535 23.699 10.5596 36.0947 10.5509 48.4877C10.5509 48.5961 10.5745 48.6992 10.5849 48.8022Z" fill="#D6D3BE"/>
<path d="M88.608 11.6339C88.608 13.7058 88.608 15.7778 88.608 17.8498C90.0989 18.336 90.4389 18.817 90.4389 20.5745C90.4389 27.2555 90.4389 33.9339 90.4232 40.6149C90.4007 40.9233 90.4589 41.2322 90.592 41.5105C90.7252 41.7889 90.9286 42.0269 91.1817 42.2006C92.9472 43.5511 94.676 44.9492 96.4127 46.3234C96.7684 46.0935 96.6246 45.7949 96.6246 45.5306C96.635 34.1753 96.6411 22.82 96.6429 11.4647C96.6703 11.2081 96.6269 10.9488 96.5175 10.7156C96.4081 10.4824 96.237 10.2843 96.023 10.1433C94.1922 8.8219 92.4188 7.43443 90.4415 5.93066C90.4415 7.12257 90.4415 8.12156 90.4415 9.1179C90.4101 10.6904 90.0492 11.1766 88.608 11.6339Z" fill="#FDFBE3"/>
<path d="M57.2612 65.3146C54.7347 64.4214 52.3572 64.3659 49.9535 65.3358C52.2238 66.9188 54.7268 66.932 57.2612 65.3146Z" fill="#474340"/>
<path d="M58.6056 45.6468C59.2072 45.7736 59.7041 45.4301 60.0703 45.0389C63.1095 41.7856 66.9935 40.2818 71.2097 39.378C74.4241 38.6935 77.6177 37.9139 80.8243 37.1924C81.8417 36.9651 82.6839 36.5158 82.9167 35.4085C83.0631 34.6949 82.6551 34.1294 82.132 33.6907C81.9551 33.5215 81.741 33.3971 81.5073 33.3278C81.2737 33.2584 81.027 33.246 80.7877 33.2916C75.7816 34.5232 70.6892 35.4059 65.7669 36.9625C62.5995 37.972 59.9108 39.8194 57.5673 42.1688C56.44 43.2973 56.4478 44.3254 57.4548 45.2636C57.6056 45.411 57.7875 45.522 57.9868 45.5884C58.1861 45.6547 58.3976 45.6747 58.6056 45.6468Z" fill="#AEAA9A"/>
<path d="M58.5818 34.2669C59.322 34.3647 59.866 33.8969 60.3499 33.3975C63.2269 30.4216 66.8703 28.9919 70.8119 28.125C74.3297 27.3533 77.8266 26.4759 81.3314 25.6408C82.1866 25.4373 82.7725 24.9167 82.9164 24.0287C83.0393 23.257 82.6365 22.6623 82.0402 22.2448C81.4438 21.8272 80.6801 21.9435 80.021 22.0968C75.6322 23.1063 71.2329 24.0842 66.8755 25.2206C63.9444 26.0128 61.2387 27.4902 58.9767 29.5337C58.2496 30.1759 57.3943 30.6833 56.9549 31.6215C56.3141 32.972 57.0753 34.2669 58.5818 34.2669Z" fill="#AEAA9A"/>
<path d="M80.6017 10.6375C79.0742 10.9784 77.382 11.3352 75.6976 11.7316C72.9697 12.3738 70.2365 13.0108 67.5216 13.7085C63.652 14.662 60.1434 16.7392 57.4284 19.6839C56.5313 20.6538 56.4685 21.6475 57.2845 22.472C57.9776 23.1724 59.1572 23.1539 60.0073 22.3505C60.7919 21.6105 61.6132 20.9154 62.4632 20.2362C65.2069 18.077 68.4788 17.2842 71.7665 16.5363C74.9365 15.8148 78.1091 15.088 81.2739 14.3269C82.3515 14.0626 83.0132 13.172 82.8876 12.321C82.7202 11.1793 81.9774 10.5847 80.6017 10.6375Z" fill="#AEAA9A"/>
<path d="M48.5776 34.2851C48.9294 34.3167 49.2818 34.232 49.5818 34.0438C49.8818 33.8555 50.1132 33.5738 50.2411 33.2412C50.6726 32.3294 50.3509 31.5973 49.7336 30.9525C48.1725 29.3493 46.385 27.9885 44.4294 26.9143C41.5341 25.2837 38.3013 24.7287 35.1366 23.9622C32.542 23.3333 29.9369 22.7598 27.3345 22.1599C27.2011 22.1281 27.073 22.0726 26.9344 22.0489C25.556 21.811 24.5804 22.3131 24.3529 23.3703C24.0913 24.5569 24.6877 25.4105 26.1157 25.7488C30.0573 26.6976 34.0093 27.5988 37.9587 28.5343C41.3118 29.3272 44.2647 30.8441 46.7154 33.3231C47.228 33.8384 47.7694 34.3617 48.5776 34.2851Z" fill="#AEAA9A"/>
<path d="M26.2885 33.3258C25.2579 33.3046 24.4864 33.886 24.3399 34.8348C24.1699 35.9157 24.6878 36.7323 25.8229 37.0045C29.7331 37.9375 33.6563 38.8307 37.5691 39.7584C40.9379 40.5512 44.0137 41.936 46.4906 44.4705C46.7202 44.6847 46.9621 44.885 47.2151 45.0704C48.1985 45.8633 49.2185 45.8633 49.9169 45.118C50.6675 44.3093 50.6152 43.268 49.7129 42.3034C48.1574 40.6951 46.3689 39.3352 44.4086 38.2705C41.8481 36.8381 39.0312 36.2276 36.2273 35.5695C33.3503 34.8929 30.4733 34.2481 27.6119 33.5821C27.1751 33.4738 26.7305 33.4103 26.2885 33.3258Z" fill="#AEAA9A"/>
<path d="M26.4347 10.6292C25.1609 10.6134 24.4443 11.1895 24.3266 12.1568C24.1906 13.2615 24.7503 14.0675 25.9613 14.3662C27.8784 14.8392 29.8218 15.2172 31.7363 15.7087C35.1888 16.5914 38.7694 17.0116 42.0283 18.6158C43.7883 19.4608 45.3921 20.604 46.7702 21.996C47.2933 22.5457 47.9027 23.069 48.7527 22.9659C50.1703 22.7915 50.8451 21.404 50.1206 20.1407C49.4903 19.0545 48.4389 18.3727 47.5052 17.6063C44.3666 15.0401 40.663 13.8217 36.7816 12.976C33.5645 12.2731 30.3605 11.5093 27.1487 10.7719C26.861 10.7059 26.555 10.6504 26.4347 10.6292Z" fill="#AEAA9A"/>
</g>
<defs>
<clipPath id="clip0_80_6098">
<rect width="107" height="104" fill="white" transform="matrix(-1 0 0 1 107 0)"/>
</clipPath>
</defs>
</svg>
