<svg width="280" height="199" viewBox="0 0 280 199" fill="none" xmlns="http://www.w3.org/2000/svg">
<g clip-path="url(#clip0_80_5715)">
<path d="M279.901 118.536C279.901 113.709 278.631 111.258 277.396 108.885C276.161 106.513 274.996 104.271 274.996 99.6585C274.91 96.5439 275.439 93.4322 276.576 90.3602C277.743 87.1944 278.288 83.9879 278.203 80.7786C278.203 75.9521 276.916 73.4977 275.675 71.1255C274.434 68.7533 273.252 66.5134 273.252 61.9014C273.252 57.2893 274.422 55.0441 275.593 52.6719C276.763 50.2997 278.063 47.848 278.063 43.0241C278.142 39.8218 277.646 36.6219 276.582 33.4558C275.558 30.3742 275.09 27.2601 275.183 24.1442C275.13 21.0224 275.478 17.9018 276.225 14.7983C276.989 11.6332 277.345 8.45075 277.29 5.26699C277.323 4.96304 277.216 4.65935 276.976 4.37503C276.736 4.09071 276.369 3.83191 275.897 3.6149C274.141 2.85504 271.467 2.88946 268.874 2.92388C268.341 2.92388 267.803 2.92388 267.264 2.92388C256.8 2.92388 251.714 2.39437 246.329 1.86485C240.945 1.33533 235.42 0.758162 224.499 0.758162C217.249 0.721918 210.005 0.96193 202.844 1.47566C195.877 1.97986 188.828 2.21369 181.774 2.17462C171.309 2.17462 166.223 1.6451 160.839 1.11558C155.454 0.586069 149.923 0.00360232 139.008 0.00360232C131.76 -0.0322626 124.518 0.199729 117.353 0.697267C110.383 1.18642 103.336 1.41312 96.2832 1.37505C85.6254 1.37505 80.2057 1.29827 74.9675 1.22678C69.7293 1.1553 64.2395 1.07852 53.5232 1.07852C42.8068 1.07852 37.4457 0.999091 32.2017 0.924959C26.9576 0.850826 21.4795 0.771401 10.7573 0.771401C6.27997 0.771401 3.26586 2.57705 3.26586 5.27228C3.26586 9.99292 3.26586 12.3519 3.26586 14.7109C3.26586 17.0699 3.26586 19.4315 3.26586 24.1522C3.33119 27.2714 2.91857 30.3889 2.03095 33.4822C1.12332 36.6485 0.7009 39.8394 0.766741 43.0321C0.766741 47.7739 1.02425 50.1805 1.27007 52.5157C1.51588 54.8508 1.77339 57.2125 1.77339 61.9119C1.77339 66.6114 1.55099 68.9995 1.33444 71.3108C1.11789 73.6222 0.889625 76.05 0.889625 80.7892C0.776102 84.0313 1.54869 87.2673 3.18978 90.4237C4.36032 92.8065 5.40212 95.0464 5.40212 99.6664C5.40212 104.286 4.12038 106.505 2.7684 108.875C1.41642 111.244 0 113.709 0 118.546C0 123.278 0.14052 125.695 0.275132 128.011C0.409745 130.328 0.550193 132.719 0.550193 137.426C0.459152 140.642 1.057 143.855 2.3353 147.018C3.57501 150.081 4.15127 153.19 4.05597 156.303C4.05597 161.053 4.41295 163.468 4.75241 165.803C5.09186 168.138 5.4372 170.492 5.4372 175.181C5.4372 179.803 4.37788 182.048 3.26001 184.429C2.14214 186.809 0.989147 189.242 0.989147 194.061C0.989147 196.443 6.03421 198.032 10.7398 198.032C21.4561 198.032 26.905 197.966 32.1783 197.905C37.4516 197.844 42.8419 197.78 53.5056 197.78C60.5716 197.746 67.6336 197.948 74.634 198.384C81.8093 198.829 89.047 199.036 96.289 199.004C103.537 199.04 110.78 198.807 117.944 198.307C124.914 197.821 131.962 197.595 139.014 197.632C146.259 197.666 153.498 197.447 160.669 196.978C167.659 196.519 174.717 196.306 181.78 196.343C192.256 196.343 197.348 196.83 202.738 197.346C208.129 197.862 213.636 198.405 224.546 198.405C235.309 198.405 240.787 198.22 246.078 198.042C251.369 197.865 256.695 197.688 267.306 197.688C268.511 197.688 270.232 197.622 271.478 197.063C272.877 196.422 272.86 195.527 272.842 194.492C272.842 194.354 272.842 194.227 272.842 194.066C272.746 190.952 273.335 187.842 274.598 184.781C275.896 181.617 276.504 178.403 276.412 175.186C276.48 171.991 276.045 168.798 275.113 165.631C274.199 162.54 273.777 159.424 273.849 156.306C273.849 151.583 273.808 149.181 273.773 146.86C273.738 144.538 273.691 142.142 273.691 137.426C273.691 132.843 275.177 130.614 276.752 128.255C278.326 125.896 279.901 123.394 279.901 118.536Z" fill="white"/>
<g clip-path="url(#clip1_80_5715)">
<path d="M77 102.979C77.4637 102.536 77.4341 101.885 77.7038 101.352C79.1706 98.457 81.4727 96.8473 84.7221 96.8076C89.1882 96.7547 93.6544 96.7547 98.1206 96.8076C99.1401 96.8076 99.3078 96.4771 99.3013 95.5681C99.2651 88.9774 99.3012 82.3866 99.2651 75.7991C99.246 75.2705 99.3414 74.744 99.5447 74.2561C99.748 73.7681 100.054 73.3304 100.442 72.9731C107.952 65.4921 115.443 57.9924 122.915 50.4739C124.888 48.5073 126.457 48.4908 128.404 50.431C130.673 52.694 132.936 54.9626 135.192 57.2366C136.412 58.4629 136.474 58.8529 135.754 60.3832C134.945 61.2856 134.271 61.4277 133.291 60.8823C132.528 60.4593 131.956 59.8048 131.347 59.1933L126.654 54.48C125.585 53.4057 125.582 53.4091 124.572 54.48C124.46 54.599 124.355 54.7246 124.243 54.8436C118.416 60.7369 112.552 66.5906 106.52 72.6922C118.728 72.7186 130.643 72.6922 142.559 72.6922C143.43 72.788 144.338 72.5302 144.979 72.8409C143.5 71.5315 142.114 70.1188 140.832 68.6134C139.868 67.4268 139.984 66.4782 141.016 65.6585C142.167 64.8917 143.121 65.1396 144.062 66.108C146.353 68.468 148.675 70.796 151.027 73.0921C151.372 73.4069 151.644 73.7937 151.824 74.2254C152.004 74.6571 152.088 75.1232 152.07 75.5909C152.034 82.2676 152.07 88.941 152.024 95.6177C152.024 96.6324 152.333 96.801 153.247 96.7911C157.223 96.7448 161.2 96.7481 165.176 96.7911C169.938 96.8241 173.398 99.0519 175.433 103.332C179.406 111.648 183.333 119.989 187.214 128.353C188.829 131.847 191.348 133.619 195.209 133.453C196.639 133.391 198.077 133.424 199.514 133.453C201.783 133.493 202.99 134.723 202.997 136.977C202.997 140.194 202.997 143.408 202.997 146.618C202.997 148.754 201.77 149.96 199.626 149.963C193.765 149.963 187.901 149.996 182.037 149.963C177.226 149.93 173.766 147.65 171.75 143.28C167.971 135.103 164.255 126.896 160.538 118.685C159.091 115.489 156.625 113.998 153.185 113.899C152.28 113.873 152.017 114.088 152.027 115.036C152.076 120.226 152.05 125.418 152.05 130.611C152.05 135.804 152.05 140.993 152.05 146.185C152.05 148.569 150.889 149.745 148.515 149.755C145.401 149.771 142.286 149.771 139.168 149.755C136.932 149.755 135.731 148.608 135.679 146.374C135.623 144.06 135.652 141.746 135.679 139.453C135.679 138.22 136.261 137.426 137.553 137.288C138.846 137.149 139.582 137.74 139.799 139.205C139.99 140.507 139.875 141.822 139.882 143.135C139.882 145.898 139.74 145.63 142.417 145.647C143.193 145.647 143.97 145.647 144.742 145.647C145.192 145.615 145.643 145.606 146.094 145.62C147.952 145.62 147.988 145.581 147.988 143.657C147.988 137.192 147.988 130.727 147.988 124.261C147.988 122.159 147.988 122.159 145.874 122.153C145.505 122.164 145.136 122.155 144.769 122.126C143.621 122.159 142.467 122.126 141.329 122.143C140.013 122.163 139.921 122.262 139.888 123.541C139.855 124.82 139.977 126.185 139.816 127.507C139.628 129.051 138.855 129.725 137.547 129.593C136.067 129.16 135.695 128.694 135.675 127.147C135.656 125.6 135.642 124.099 135.675 122.576C135.695 121.915 135.507 121.743 134.856 121.746C128.713 121.769 122.566 121.782 116.419 121.746C115.433 121.746 115.633 122.298 115.633 122.84C115.633 130.581 115.633 138.322 115.633 146.063C115.633 148.638 114.538 149.759 112.016 149.768C108.946 149.768 105.877 149.768 102.807 149.768C100.505 149.768 99.3802 148.618 99.3111 146.281C99.3111 146.238 99.3111 146.199 99.3111 146.156C99.2815 145.164 99.64 143.875 99.1335 143.29C98.5514 142.603 97.2162 143.078 96.2131 143.072C91.3786 143.045 86.5441 143.072 81.7095 143.042C80.9104 143.042 80.6506 143.237 80.7032 144.034C80.7755 145.181 80.6801 146.347 80.7328 147.491C80.7854 148.575 80.5716 149.517 79.4633 149.891C78.355 150.264 77.5854 149.666 77.0296 148.734L77 102.979Z" fill="#010101"/>
<path d="M144.673 145.974C143.206 145.991 141.736 145.974 140.273 146.03C139.615 146.053 139.428 145.839 139.437 145.197C139.474 143.353 139.467 141.509 139.437 139.664C139.421 138.147 138.984 137.625 137.533 137.281C137.533 134.716 137.533 132.151 137.533 129.586C139.053 129.147 139.431 128.651 139.444 127.041C139.444 125.561 139.47 124.067 139.444 122.599C139.444 121.981 139.592 121.713 140.26 121.74C141.73 121.796 143.22 121.783 144.676 121.799C145.114 122.268 145.068 122.86 145.068 123.429C145.068 130.403 145.068 137.376 145.068 144.348C145.065 144.916 145.117 145.511 144.673 145.974Z" fill="#F7911F"/>
<path d="M141.013 65.6818C140.221 67.1427 140.276 67.665 141.431 68.8119C142.746 70.134 144.105 71.4561 145.565 72.8973C144.499 73.1782 143.592 73.0559 142.69 73.0195C142.212 72.7838 141.783 72.4572 141.427 72.0577C135.999 66.5951 130.566 61.1315 125.128 55.6667C124.799 55.3362 124.362 55.0354 124.253 54.5099C125.589 52.9399 125.589 52.9399 126.973 54.3281C128.828 56.1901 130.682 58.0499 132.535 59.9074C133.774 61.1469 134.258 61.2295 135.754 60.3966L141.013 65.6818Z" fill="#F6C12D"/>
<path d="M103.133 117.813C103.106 117.529 103.057 117.244 103.057 116.957C103.057 103.927 103.057 90.8969 103.057 77.8652C103.057 77.5809 103.1 77.2967 103.123 77.0091C103.504 76.7876 103.925 76.8934 104.327 76.8934C117.363 76.8934 130.401 76.8934 143.44 76.8934C144.917 76.8934 145.062 76.9959 145.062 78.4965C145.081 91.1051 145.081 103.715 145.062 116.326C145.062 117.833 144.917 117.939 143.45 117.939C130.413 117.939 117.375 117.939 104.336 117.939C103.935 117.932 103.514 118.041 103.133 117.813Z" fill="#56BA62"/>
<path d="M152.093 108.171C152.093 105.858 152.093 103.544 152.037 101.253C152.037 100.649 152.238 100.49 152.813 100.493C157.115 100.516 161.423 100.387 165.722 100.549C168.803 100.665 170.921 102.427 172.237 105.243C176.157 113.642 180.13 122.011 184.076 130.409C185.721 133.926 188.352 136.177 192.127 137C194.137 137.443 196.212 137.298 198.254 137.242C199.129 137.218 199.379 137.493 199.336 138.349C199.261 139.912 199.294 141.476 199.28 143.042C198.84 143.459 198.294 143.373 197.761 143.373C193.785 143.373 189.806 143.439 185.833 143.373C181.58 143.29 178.555 141.261 176.746 137.351C175.312 134.25 173.763 131.206 172.174 128.178C170.277 124.569 168.816 120.758 167.241 117.006C166.401 114.985 165.198 113.136 163.693 111.553C162.451 110.214 160.807 109.321 159.013 109.011C157.277 108.687 155.516 108.52 153.751 108.512C153.172 108.502 152.573 108.611 152.093 108.171Z" fill="#F7911F"/>
<path d="M124.253 54.5264C125.112 55.3494 125.983 56.1592 126.822 57.002C131.814 62.0063 136.802 67.0171 141.786 72.0345C142.115 72.3651 142.388 72.6956 142.69 73.0261C138.964 73.0261 135.238 73.0658 131.509 73.0691C123.396 73.0691 115.284 73.0691 107.172 73.0691H105.984C105.853 72.7386 106.086 72.646 106.214 72.5204C112.09 66.6105 117.972 60.704 123.859 54.8007C123.984 54.6999 124.116 54.6082 124.253 54.5264Z" fill="#F6D574"/>
<path d="M152.093 108.172C154.252 108.124 156.411 108.256 158.549 108.565C162.127 109.061 164.337 111.325 166.133 114.207C167.685 116.696 168.57 119.495 169.714 122.156C171.816 127.068 174.493 131.695 176.723 136.538C177.538 138.313 178.456 139.952 180.051 141.135C181.616 142.345 183.529 143.012 185.504 143.036C190.108 143.062 194.676 143.036 199.264 143.036C199.432 146.252 199.432 146.252 196.327 146.252C191.696 146.252 187.066 146.252 182.439 146.252C178.913 146.252 176.45 144.652 174.989 141.436C171.395 133.503 167.734 125.633 164.209 117.684C162.005 112.726 158.355 110.132 152.928 110.165C152.238 110.165 151.942 109.97 152.044 109.269C152.09 108.912 152.076 108.538 152.093 108.172Z" fill="#F57F20"/>
<path d="M103.133 117.813C116.495 117.813 129.858 117.793 143.223 117.836C144.427 117.836 144.703 117.486 144.7 116.316C144.658 103.709 144.658 91.1027 144.7 78.4963C144.7 77.3163 144.404 76.9792 143.21 76.9858C129.848 77.0254 116.485 77.0089 103.123 77.0089C103.422 76.566 103.873 76.7941 104.245 76.7941C118.511 76.7941 132.778 76.7941 147.045 76.7941C148.031 76.7941 148.36 76.9858 148.36 78.06C148.325 90.9969 148.325 103.935 148.36 116.874C148.36 117.81 148.104 118.044 147.189 118.044C132.839 118.02 118.49 118.02 104.143 118.044C103.807 118.014 103.403 118.206 103.133 117.813Z" fill="#47AD4E"/>
<path d="M89.902 117.988C87.2019 117.988 84.4985 117.958 81.7984 117.988C80.9894 118.005 80.6342 117.869 80.6802 116.94C80.7592 115.288 80.7263 113.635 80.6802 112.005C80.6638 111.368 80.7559 111.073 81.5156 111.077C87.1613 111.114 92.8093 111.114 98.4594 111.077C99.1172 111.077 99.3079 111.262 99.2947 111.91C99.2553 113.638 99.2487 115.367 99.2947 117.092C99.3145 117.819 99.0349 117.985 98.3673 117.978C95.5422 117.965 92.7172 117.988 89.902 117.988Z" fill="#FFFEFE"/>
<path d="M89.9711 128.668C87.1888 128.668 84.4032 128.635 81.6242 128.688C80.8546 128.688 80.6375 128.486 80.6737 127.729C80.7296 126.004 80.723 124.272 80.6737 122.546C80.654 121.885 80.8776 121.736 81.5025 121.74C87.1482 121.762 92.794 121.762 98.4397 121.74C99.2027 121.74 99.3014 122.044 99.2882 122.682C99.2553 124.368 99.2389 126.053 99.2882 127.739C99.3145 128.522 99.0416 128.697 98.3016 128.688C95.5357 128.641 92.7501 128.668 89.9711 128.668Z" fill="white"/>
<path d="M90.0433 139.321C87.2182 139.321 84.3932 139.298 81.5681 139.321C80.884 139.321 80.6538 139.155 80.6768 138.442C80.7262 136.673 80.713 134.905 80.6768 133.133C80.6768 132.551 80.8216 132.366 81.4201 132.37C87.1207 132.394 92.8125 132.394 98.4955 132.37C99.0513 132.37 99.3012 132.485 99.2881 133.11C99.2519 134.921 99.242 136.746 99.2881 138.544C99.3078 139.288 98.9592 139.314 98.387 139.311C95.6112 139.311 92.8289 139.321 90.0433 139.321Z" fill="white"/>
<path d="M89.8721 107.316C87.126 107.316 84.3799 107.289 81.6502 107.335C80.9036 107.335 80.6076 107.157 80.6964 106.38C80.7589 105.808 80.6964 105.227 80.6964 104.652C80.8017 102.285 82.5184 100.536 84.8797 100.517C89.3887 100.477 93.8976 100.517 98.4065 100.487C99.1136 100.487 99.3142 100.688 99.2945 101.386C99.2485 103.039 99.232 104.691 99.2945 106.344C99.3307 107.21 98.9919 107.355 98.2289 107.335C95.4466 107.292 92.661 107.316 89.8721 107.316Z" fill="#FEFEFE"/>
<path d="M108.253 145.974C106.78 145.991 105.31 145.974 103.84 146.034C103.156 146.06 103.037 145.769 103.041 145.168C103.054 137.649 103.054 130.13 103.041 122.609C103.041 122.004 103.159 121.713 103.84 121.74C105.31 121.799 106.8 121.783 108.253 121.799C108.691 122.269 108.645 122.86 108.645 123.429C108.645 130.403 108.645 137.376 108.645 144.348C108.648 144.917 108.697 145.512 108.253 145.974Z" fill="#F7911F"/>
<path d="M108.253 145.974V121.799C109.431 121.75 110.924 121.3 111.697 121.951C112.47 122.602 111.92 124.116 111.924 125.257C111.95 131.798 111.924 138.336 111.957 144.877C111.957 145.769 111.782 146.149 110.825 146.044C109.964 145.941 109.112 145.991 108.253 145.974Z" fill="#F57F20"/>
<path d="M144.673 145.974V121.799C145.851 121.753 147.341 121.297 148.11 121.961C148.88 122.625 148.33 124.129 148.334 125.266C148.357 131.798 148.334 138.329 148.363 144.86C148.363 145.736 148.215 146.149 147.242 146.04C146.393 145.941 145.528 145.991 144.673 145.974Z" fill="#F47F21"/>
<path d="M137.079 97.459C137.077 98.9743 136.777 100.474 136.194 101.872C135.612 103.269 134.76 104.537 133.687 105.602C132.614 106.667 131.342 107.507 129.944 108.075C128.546 108.642 127.05 108.926 125.542 108.909C119.336 108.875 114.15 103.597 114.186 97.34C114.222 90.9542 119.448 85.8673 125.898 85.907C132.071 85.9532 137.102 91.1492 137.079 97.459Z" fill="#010101"/>
<path d="M122.198 104.248C119.471 103.157 117.715 99.8587 117.942 96.9765C118.222 93.4266 120.573 90.6336 123.786 89.88C127.568 88.9942 131.176 90.7823 132.64 94.2694C133.163 97.5747 130.976 101.525 127.618 103.253C125.924 104.106 124.148 104.694 122.198 104.248Z" fill="#EFE2DD"/>
<path d="M122.198 104.248C126.348 104.03 129.719 102.523 131.627 98.5464C132.284 97.1846 132.367 95.7038 132.64 94.2495C134.106 97.1549 133.403 100.735 130.897 103.098C128.509 105.359 124.934 105.828 122.198 104.248Z" fill="#E1D3CE"/>
</g>
</g>
<defs>
<clipPath id="clip0_80_5715">
<rect width="280" height="199" fill="white"/>
</clipPath>
<clipPath id="clip1_80_5715">
<rect width="126" height="101" fill="white" transform="translate(77 49)"/>
</clipPath>
</defs>
</svg>
