<svg width="135" height="103" viewBox="0 0 135 103" fill="none" xmlns="http://www.w3.org/2000/svg">
<path d="M75.5768 81.9945C76.9846 83.0978 77.1535 83.5932 76.4038 85.2271C74.0247 90.3992 69.9386 93.3752 64.3005 93.7793C58.5849 94.1869 54.094 91.7309 51.0955 86.8434C50.5359 85.9368 49.9762 85.6593 48.9521 85.6628C39.8296 85.7049 30.7072 85.7049 21.5848 85.6628C20.5712 85.6628 20.2192 85.8806 20.2826 86.9382C20.3811 88.5088 20.3284 90.1005 20.3002 91.6676C20.272 93.1012 19.54 93.8145 18.0829 93.8355C16.5062 93.8601 14.9154 93.8988 13.3493 93.8355C12.4096 93.7899 12.033 93.9761 12.0999 95.0231C12.2054 96.6359 12.1456 98.2627 12.1175 99.8825C12.0928 101.249 11.3678 101.991 10.0058 101.991C7.37676 102.019 4.72663 101.991 2.11167 101.991C1.09455 101.991 0.524399 101.407 0 100.673V58.3652C0.325186 57.9362 0.753957 57.5964 1.24633 57.3777C1.73871 57.1589 2.27862 57.0683 2.81557 57.1144C5.05394 57.1706 7.29226 57.1144 9.53063 57.1355C11.4663 57.1355 12.1104 57.8206 12.121 59.7566C12.121 61.2921 12.1562 62.8276 12.121 64.3595C12.0964 65.0869 12.2934 65.3539 13.0607 65.3258C14.6374 65.266 16.2282 65.2871 17.7978 65.3258C19.6702 65.3609 20.3002 66.0285 20.3143 67.8872C20.3143 69.4649 20.346 71.0495 20.3143 72.6166C20.2967 73.3018 20.5079 73.5231 21.2012 73.5231C30.6779 73.502 40.1569 73.502 49.6384 73.5231C49.8944 73.5421 50.1499 73.4791 50.3676 73.3432C50.5853 73.2074 50.754 73.0058 50.8491 72.7677C52.1338 70.3559 54.1121 68.3833 56.5295 67.1037C56.7494 67.021 56.9368 66.8696 57.0636 66.6721C57.1904 66.4746 57.25 66.2415 57.2334 66.0074C57.2123 61.9773 57.2052 57.9471 57.2334 53.9134C57.2334 53.2318 57.0609 53.0069 56.357 53.028C54.7346 53.0772 53.1085 53.0667 51.4861 53.028C49.8636 52.9894 49.0753 52.2304 49.0542 50.6036C49.033 48.9768 49.0154 47.3605 49.0542 45.7442C49.0753 45.0415 48.85 44.8482 48.1637 44.8693C46.587 44.915 44.9962 44.9044 43.4265 44.8693C41.607 44.8412 40.8784 44.0963 40.8644 42.3008C40.8644 40.7232 40.8292 39.1385 40.8644 37.5679C40.882 36.8863 40.6884 36.6614 39.988 36.6825C38.4078 36.7317 36.8205 36.7176 35.2473 36.6825C33.3996 36.6509 32.6816 35.9376 32.6816 34.1351C32.6816 23.5778 32.6816 13.0192 32.6816 2.45955C32.6816 0.70273 33.4066 0 35.1453 0C42.9139 0 50.6801 0 58.444 0C60.1651 0 60.6155 0.351369 61.0836 2.09063C61.0836 3.49609 60.6543 3.95286 58.9333 4.28666C52.271 4.32179 45.6086 4.28665 38.9463 4.3499C37.0528 4.36747 37.0141 4.39206 37.0141 6.23673C37.0141 14.201 37.0141 22.1653 37.0141 30.1295C37.0141 32.1253 37.0633 32.1569 39.0906 32.171C40.3188 32.171 41.5542 32.1288 42.7719 32.2026C58.0369 32.1862 73.302 32.1944 88.5671 32.2272C90.3268 32.2272 91.6607 31.781 92.8467 30.4704C94.3707 28.7768 96.0882 27.2624 97.6508 25.6075C98.1377 25.0733 98.7379 24.6544 99.4077 24.3814C100.078 24.1085 100.8 23.9884 101.522 24.0298C105.513 24.0896 109.508 24.0299 113.488 24.072C114.052 24.1144 114.615 23.9962 115.114 23.7312C115.612 23.4662 116.025 23.0653 116.304 22.5752C119.985 16.9744 123.73 11.4123 127.45 5.83617C127.707 5.44967 128.245 5.04208 127.999 4.58531C127.753 4.12853 127.116 4.33584 126.651 4.33584C109.321 4.33584 91.9939 4.33584 74.6688 4.33584C72.3846 4.33584 70.0935 4.39909 67.8234 4.3007C66.2045 4.23394 65.5393 3.53825 65.5393 2.10117C65.9828 0.40056 66.4614 0.0105405 68.1719 0.0105405C89.5232 0.0105405 110.884 0.0105405 132.254 0.0105405C133.232 0.0105405 134.088 0.158112 134.591 1.1068C135.094 2.05548 134.693 2.86363 134.158 3.65771C131.842 7.1046 129.548 10.5655 127.221 14.0054C126.824 14.5731 126.618 15.2525 126.634 15.9449C126.658 21.9884 126.634 28.0319 126.634 34.0754C126.634 36.0149 125.99 36.679 124.05 36.7071C122.516 36.7317 120.978 36.7668 119.447 36.7071C118.602 36.6649 118.419 36.9531 118.451 37.7366C118.511 39.3564 118.482 40.9762 118.451 42.596C118.433 44.0225 117.729 44.8588 116.311 44.8799C112.538 44.9361 108.765 44.915 104.992 44.8799C104.504 44.9096 104.021 44.7692 103.625 44.4828C103.229 44.1964 102.945 43.7816 102.821 43.3092C102.49 41.5524 103.25 40.5756 105.218 40.4351C107.185 40.2945 109.089 40.3999 111.011 40.3859C114.555 40.3578 114.104 40.7162 114.132 37.3185C114.132 35.0416 114.132 32.7507 114.132 30.4844C114.132 28.8822 114.041 28.7979 112.394 28.7908C109.191 28.7908 105.985 28.8225 102.782 28.7733C102.237 28.7517 101.693 28.8507 101.191 29.0633C100.688 29.2759 100.239 29.5968 99.8751 30.003C97.9851 31.9566 96.0424 33.8681 94.1103 35.7725C93.5788 36.2995 93.0544 36.8266 92.2379 36.9039C79.1842 36.9566 66.1305 36.9039 53.0769 36.9285C51.018 36.9285 48.9627 36.9812 46.9038 36.9847C45.3693 36.9847 44.5282 38.5518 45.2989 39.894C45.5699 40.3613 46.031 40.3226 46.4568 40.3367C47.9913 40.3824 49.5222 40.3086 51.0567 40.3754C56.6878 40.3051 62.2873 40.3543 67.9044 40.3472C76.6772 40.3472 85.4524 40.3472 94.2299 40.3472C95.1098 40.3472 96.0072 40.2945 96.8202 40.6986C97.7071 41.1343 98.5201 41.6684 98.228 42.8841C97.767 44.4863 97.2355 44.8974 95.4969 44.9009C89.9291 44.9009 84.3649 44.9326 78.7971 44.8799C77.8081 44.8799 77.5231 45.1188 77.5829 46.1026C77.6709 47.5854 77.6251 49.0751 77.6005 50.5649C77.5759 52.2585 76.8086 53.0245 75.0981 53.0702C73.4792 53.0983 71.8579 53.0983 70.2342 53.0702C69.6148 53.0702 69.4107 53.2353 69.4142 53.8748C69.4389 57.9436 69.4459 62.0124 69.4142 66.0812C69.4142 66.7664 69.8084 66.9526 70.273 67.2161C73.0178 68.7266 75.1708 71.1188 76.3827 74.0045C77.1077 75.7227 76.9107 76.327 75.2917 77.3354C74.081 77.6868 73.2187 77.2933 72.5395 75.8843C71.9326 74.5767 71.0823 73.3962 70.0337 72.4058C68.4544 70.8714 66.3824 69.9442 64.1843 69.7881C60.686 69.5 57.8493 70.7649 55.5898 73.4142C51.1095 78.6847 53.7737 87.2896 60.4642 89.0956C61.7664 89.447 63.0933 89.837 64.4729 89.447C68.2493 88.9305 70.8502 86.8609 72.5008 83.4738C73.3877 81.6888 73.9649 81.4464 75.5768 81.9945Z" fill="#010101"/>
<path d="M59.2499 3.9879C60.3374 3.81925 60.7985 3.03922 61.0941 2.10107H65.5568C65.9299 3.6014 66.9435 3.98438 68.4076 3.98087C88.1165 3.94807 107.817 3.94105 127.51 3.95979H128.918C128.999 4.49035 128.633 4.74333 128.428 5.04902C124.314 11.2366 120.172 17.403 116.082 23.6011C115.901 23.9131 115.633 24.1656 115.31 24.3279C114.988 24.4901 114.625 24.555 114.266 24.5146C109.793 24.476 105.316 24.5146 100.839 24.4795C100.34 24.4603 99.8422 24.5511 99.3818 24.7454C98.9214 24.9397 98.5094 25.2328 98.1752 25.6039C96.0635 27.7823 93.9095 29.894 91.7873 32.0479C91.6218 32.2462 91.4147 32.4057 91.1805 32.515C90.9463 32.6243 90.6909 32.6808 90.4323 32.6804C74.6793 32.6616 58.9273 32.6546 43.1766 32.6593C43.0893 32.6493 43.0032 32.6305 42.9197 32.6031C42.2158 31.5103 42.4797 30.3227 42.6311 29.1737C42.7331 28.4043 43.4053 28.3094 44.0388 28.3024C45.964 28.2707 47.8857 28.3024 49.8073 28.3024C50.3299 28.3577 50.858 28.2791 51.3417 28.074C51.7111 27.9226 52.0233 27.6588 52.2337 27.32C52.4441 26.9812 52.5421 26.5848 52.5137 26.1871C52.5419 23.6889 52.5595 21.1942 52.5137 18.696C52.4856 17.3503 51.8732 16.7881 50.402 16.7319C48.4734 16.6546 46.5307 16.7319 44.609 16.6968C43.965 16.6968 43.2752 16.8022 42.7578 16.2435C42.5496 15.8058 42.4598 15.3212 42.4974 14.8381C42.4974 11.8163 42.4692 8.79457 42.4974 5.77635C42.4974 4.19169 42.6417 4.09331 44.2571 4.09331C48.7714 4.09331 53.288 4.09331 57.807 4.09331C58.2905 4.14223 58.7787 4.10656 59.2499 3.9879Z" fill="#F0F3F9"/>
<path d="M92.4384 36.5948C93.0226 36.4437 93.3957 36.0045 93.7934 35.604C95.9297 33.4677 98.0766 31.3419 100.188 29.1881C100.395 28.9421 100.656 28.7461 100.949 28.6147C101.243 28.4833 101.563 28.4198 101.885 28.4291C105.737 28.4689 109.591 28.4689 113.446 28.4291C114.284 28.4291 114.579 28.6259 114.565 29.5148C114.512 32.9266 114.505 36.3383 114.565 39.7466C114.565 40.7304 114.213 40.8815 113.354 40.8639C110.729 40.8147 108.1 40.8358 105.471 40.8639C103.532 40.8639 102.986 41.405 102.856 43.3235C102.532 42.7683 101.99 42.8737 101.487 42.8772H98.2525C97.7246 41.1837 97.2881 40.8674 95.3912 40.8674H52.6791C52.1582 40.8674 51.6233 40.8253 51.1094 40.8007C50.3844 39.7185 50.6553 38.5344 50.7856 37.3749C50.7928 37.2756 50.8204 37.1788 50.8666 37.0906C50.9128 37.0024 50.9766 36.9246 51.0542 36.8621C51.1317 36.7995 51.2213 36.7534 51.3173 36.7268C51.4134 36.7002 51.5139 36.6935 51.6127 36.7073C51.9646 36.7073 52.3166 36.7073 52.6685 36.7073C65.4488 36.7073 78.228 36.7073 91.0059 36.7073C91.4863 36.7488 91.9704 36.7108 92.4384 36.5948Z" fill="#8AB3DF"/>
<path d="M64.2547 69.4404C68.2916 69.7918 71.0614 71.9211 72.7261 75.5261C73.2611 76.6821 73.9896 77.3813 75.3165 77.304C75.8549 78.843 75.4185 80.4347 75.5769 81.9947C74.0882 81.7242 73.2857 82.4093 72.6769 83.7515C71.1107 87.1914 68.4535 89.2539 64.6208 89.6966C63.484 89.9004 62.8329 89.0853 62.1889 88.4247C60.9982 87.1972 60.0689 85.7415 59.4572 84.1456C58.8456 82.5497 58.5642 80.8465 58.63 79.139C58.6957 77.4315 59.1074 75.755 59.84 74.2107C60.5727 72.6664 61.6111 71.2863 62.8928 70.1537C63.2944 69.8274 63.7575 69.5849 64.2547 69.4404Z" fill="#F0F3F9"/>
<path d="M59.2502 3.98783C58.8385 4.36027 58.3317 4.20216 57.8671 4.20216C53.3164 4.20216 48.7658 4.24432 44.2151 4.18459C43.1593 4.18459 42.8883 4.53595 42.9024 5.53031C42.9587 9.11424 42.927 12.6946 42.927 16.2786C41.2764 17.3608 41.0968 18.9806 41.1884 20.7655C41.2763 22.3783 41.1884 24.0016 41.2165 25.6179C41.2552 27.4344 41.7937 27.9755 43.5851 27.9966C45.6968 28.0247 47.8085 27.9966 49.8956 28.0142C50.4939 28.0142 51.1414 27.8982 51.6165 28.4323C50.8036 28.9137 49.9167 28.6396 49.0649 28.6642C47.3615 28.7087 45.6581 28.7087 43.9547 28.6642C43.1417 28.6396 42.8707 28.9382 42.8988 29.7183C42.9481 30.674 42.8988 31.6367 42.8988 32.596C41.1391 32.6135 39.3794 32.596 37.6408 32.6698C36.8348 32.7049 36.585 32.4624 36.585 31.6438C36.6307 28.095 36.6026 24.5462 36.6026 20.9974C36.6026 15.6988 36.6026 10.3979 36.6026 5.09463C36.6026 4.47622 36.4829 3.9281 37.486 3.93513C44.7712 3.99134 52.0107 3.9808 59.2502 3.98783Z" fill="#D8DCE6"/>
<path d="M8.16528 79.6647C8.16528 85.3569 8.14418 91.0454 8.18642 96.7376C8.18642 97.7389 7.96111 98.0973 6.88767 98.0763C3.94892 98.0235 3.94898 98.0763 3.94898 95.1107C3.94898 84.2992 3.94895 73.4877 3.92432 62.6762C3.92432 61.5483 4.16015 61.1619 5.36028 61.197C8.17585 61.2813 8.17585 61.2146 8.17585 64.0395L8.16528 79.6647Z" fill="#905940"/>
<path d="M64.2546 69.4403C58.0428 74.138 57.1524 82.0894 62.1993 87.9678C62.8252 88.7615 63.6653 89.3601 64.6207 89.693C60.2354 90.6908 55.0442 87.4442 53.5238 82.7535C53.0005 81.1405 52.8875 79.4229 53.1952 77.7554C53.5028 76.088 54.2214 74.5232 55.2861 73.2023C56.3508 71.8813 57.7282 70.8458 59.2939 70.189C60.8596 69.5323 62.5644 69.2749 64.2546 69.4403Z" fill="#D8DCE6"/>
<path d="M26.3363 77.5744C33.6309 77.5744 40.9245 77.5603 48.2168 77.5322C48.9207 77.5322 49.2726 77.599 49.0685 78.4668C48.9101 79.1696 49.0122 79.9426 49.0016 80.684C49.2058 81.2391 49.1564 81.6397 48.4244 81.6291H27.554C26.118 81.6291 25.9562 81.5026 25.928 80.0937C25.9104 79.2399 25.7168 78.3333 26.3363 77.5744Z" fill="#446074"/>
<path d="M12.1211 79.5529C12.1211 76.5312 12.1493 73.5059 12.1035 70.4842C12.1035 69.6233 12.3604 69.3703 13.2227 69.3633C16.3339 69.3352 16.3339 69.3036 16.3339 72.4202C16.3339 77.8066 16.3058 83.1966 16.355 88.583C16.355 89.6195 16.084 89.9252 15.0353 89.9076C12.1211 89.8619 12.1211 89.9076 12.1211 87.044V79.5529Z" fill="#446074"/>
<path d="M59.2361 44.9149C63.7832 44.8833 68.3303 44.8587 72.8775 44.813C73.4511 44.813 73.5814 45.0414 73.6413 45.586C73.9158 49.0013 73.9298 49.0083 70.5371 48.9942C66.7748 48.9942 63.0124 48.945 59.2537 48.9204C58.9443 48.2985 58.7819 47.6141 58.7789 46.9197C58.7758 46.2253 58.9322 45.5395 59.2361 44.9149Z" fill="#EFF2F7"/>
<path d="M65.3458 59.3629C65.3458 61.0741 65.3212 62.7817 65.3458 64.4894C65.3458 65.2167 65.1558 65.4697 64.378 65.4521C61.2949 65.3818 61.2949 65.4099 61.2949 62.2898C61.2949 59.5738 61.316 56.8577 61.2949 54.1417C61.2949 53.3687 61.5025 53.0876 62.3296 53.0559C65.3458 52.9751 65.3458 52.947 65.3458 55.9582V59.3629Z" fill="#446074"/>
<path d="M92.4387 36.5947C91.9812 36.9953 91.4286 36.8196 90.9218 36.8196C78.1603 36.8196 65.3987 36.8477 52.6372 36.7985C51.349 36.7985 50.9162 37.1499 51.071 38.4148C51.1292 39.2005 51.1433 39.9887 51.1133 40.776L45.5983 40.8498C45.4645 40.8498 45.2675 40.8919 45.2147 40.8216C44.3172 39.7148 44.9718 38.4253 44.8275 37.2237C44.736 36.4612 45.4152 36.6193 45.8622 36.6158C48.0126 36.6158 50.1595 36.6158 52.3099 36.6158L92.4387 36.5947Z" fill="#709DD2"/>
<path d="M122.71 21.2262C122.71 24.7715 122.71 28.3133 122.71 31.855C122.71 32.491 122.513 32.6456 121.89 32.6772C118.483 32.8353 118.557 32.8529 118.451 29.4692C118.398 27.8143 118.736 26.4229 119.771 25.1123C120.76 23.8579 121.576 22.4665 122.467 21.1313L122.71 21.2262Z" fill="#C6CCD8"/>
<path d="M26.336 77.5743C26.336 78.5792 26.3606 79.5841 26.336 80.5855C26.3113 81.2637 26.5789 81.5061 27.2581 81.5061C34.2126 81.492 41.1694 81.492 48.1285 81.5061C48.7409 81.5061 49.0295 81.2918 49.0119 80.6839C49.6102 81.738 48.9239 81.738 48.1742 81.738H36.2081C31.3372 81.738 26.4697 81.6958 21.5988 81.738C20.543 81.738 20.2755 81.4042 20.2896 80.3958C20.3283 77.5251 20.2896 77.5216 23.2002 77.5251C24.249 77.5462 25.2837 77.5638 26.336 77.5743Z" fill="#3D5565"/>
<path d="M59.2357 44.9152C59.2357 46.2503 59.2415 47.5855 59.2533 48.9207C57.4232 48.9418 55.5965 48.9559 53.7699 48.9945C53.2068 48.9945 52.957 48.7907 53.0168 48.232C53.0203 48.1888 53.0203 48.1453 53.0168 48.102C52.8479 44.8379 52.8479 44.8308 56.1069 44.8414C57.1487 44.8414 58.1904 44.8871 59.2357 44.9152Z" fill="#D8DCE5"/>
<path d="M63.2307 28.471C61.9601 28.471 60.6861 28.4991 59.4155 28.471C58.0078 28.4324 57.2722 27.7929 57.2405 26.3909C57.1772 23.7662 57.1807 21.138 57.2405 18.5133C57.2687 17.1079 58.0993 16.377 59.5211 16.3595C62.0669 16.3314 64.6103 16.3314 67.1513 16.3595C68.5872 16.3805 69.351 17.1079 69.3756 18.5485C69.4249 21.1251 69.4249 23.7088 69.3756 26.2996C69.351 27.8034 68.6717 28.4359 67.1795 28.4745C65.8632 28.471 64.5469 28.471 63.2307 28.471Z" fill="#010202"/>
<path d="M51.6166 28.4323C48.8644 28.4323 46.1087 28.4499 43.353 28.4323C41.5193 28.4323 40.8611 27.7577 40.8506 25.8884C40.8506 23.5718 40.8506 21.2575 40.8506 18.9455C40.8506 17.2695 41.2554 16.7705 42.9271 16.2681C45.4212 16.2845 47.9177 16.302 50.4165 16.3208C52.3065 16.3208 52.9857 16.9708 52.9998 18.7979C52.9998 21.2047 52.9786 23.6116 52.9998 26.0149C53.0314 27.1393 52.7077 27.9896 51.6166 28.4323Z" fill="#010202"/>
<path d="M79.6946 28.4712C78.3783 28.4712 77.0621 28.4993 75.7458 28.4712C74.3767 28.4361 73.6693 27.8282 73.6341 26.493C73.5731 23.7805 73.5731 21.0668 73.6341 18.3519C73.6623 17.08 74.4541 16.3843 75.7739 16.3667C78.3548 16.3315 80.9417 16.3315 83.5343 16.3667C84.921 16.3667 85.727 17.1713 85.7551 18.5838C85.8009 21.1663 85.8079 23.7524 85.7551 26.3349C85.7234 27.8001 84.9914 28.4431 83.5027 28.4782C82.2357 28.4712 80.9652 28.4712 79.6946 28.4712Z" fill="#010202"/>
<path d="M63.4242 20.2734C65.4091 20.2734 65.4091 20.2734 65.4091 22.2938C65.4091 24.4968 65.4091 24.4968 63.2447 24.4968C61.1788 24.4968 61.1787 24.4968 61.1787 22.4378C61.1787 20.2734 61.1788 20.2734 63.4242 20.2734Z" fill="#89B1DD"/>
<path d="M46.9602 20.274C49.0331 20.274 49.0331 20.274 49.0331 22.8531C49.0331 24.4974 49.0331 24.4974 46.4358 24.4974C44.8027 24.4974 44.7886 24.4974 44.8062 21.8727C44.8203 19.9683 44.5493 20.3092 46.9602 20.274Z" fill="#89B2DE"/>
<path d="M79.5362 24.4971C77.5864 24.4971 77.5864 24.4971 77.5864 22.0797C77.5864 20.2737 77.5864 20.2527 80.1802 20.2808C82.1406 20.3018 81.7887 19.8802 81.8168 22.916C81.8344 24.4971 81.8203 24.4971 79.5362 24.4971Z" fill="#89B1DD"/>
</svg>
