<svg width="280" height="199" viewBox="0 0 280 199" fill="none" xmlns="http://www.w3.org/2000/svg">
<g clip-path="url(#clip0_289_73)">
<path d="M280 118.532C280 113.705 278.73 111.254 277.495 108.881C276.26 106.509 275.096 104.267 275.096 99.6546C275.009 96.54 275.538 93.4283 276.676 90.3563C277.843 87.1904 278.388 83.984 278.303 80.7747C278.303 75.9482 277.015 73.4938 275.775 71.1216C274.534 68.7494 273.351 66.5095 273.351 61.8974C273.351 57.2854 274.522 55.0402 275.693 52.668C276.863 50.2958 278.162 47.8441 278.162 43.0202C278.241 39.8179 277.746 36.618 276.682 33.4519C275.658 30.3703 275.19 27.2562 275.283 24.1403C275.23 21.0185 275.577 17.8979 276.325 14.7944C277.089 11.6293 277.445 8.44684 277.39 5.26308C277.422 4.95913 277.315 4.65545 277.075 4.37112C276.836 4.0868 276.468 3.828 275.997 3.61099C274.241 2.85114 271.566 2.88556 268.974 2.91998C268.441 2.91998 267.903 2.91998 267.364 2.91998C256.899 2.91998 251.813 2.39046 246.429 1.86094C241.044 1.33143 235.519 0.754256 224.598 0.754256C217.348 0.718012 210.104 0.958024 202.943 1.47175C195.977 1.97595 188.928 2.20979 181.873 2.17071C171.409 2.17071 166.323 1.64119 160.938 1.11168C155.554 0.582163 150.023 -0.000303932 139.108 -0.000303932C131.86 -0.0361689 124.617 0.195823 117.453 0.69336C110.483 1.18251 103.435 1.40922 96.3828 1.37114C85.725 1.37114 80.3053 1.29436 75.0671 1.22288C69.8289 1.15139 64.3391 1.07461 53.6228 1.07461C42.9065 1.07461 37.5453 0.995185 32.3013 0.921052C27.0573 0.84692 21.5791 0.767494 10.8569 0.767494C6.37958 0.767494 3.36547 2.57314 3.36547 5.26838C3.36547 9.98901 3.36547 12.348 3.36547 14.707C3.36547 17.066 3.36547 19.4276 3.36547 24.1483C3.4308 27.2675 3.01818 30.3849 2.13056 33.4783C1.22293 36.6446 0.800509 39.8355 0.86635 43.0282C0.86635 47.77 1.12386 50.1766 1.36968 52.5118C1.61549 54.8469 1.873 57.2086 1.873 61.908C1.873 66.6075 1.6506 68.9956 1.43405 71.3069C1.2175 73.6183 0.989234 76.0461 0.989234 80.7853C0.875711 84.0274 1.6483 87.2634 3.28939 90.4198C4.45993 92.8026 5.50173 95.0425 5.50173 99.6625C5.50173 104.283 4.21998 106.501 2.86801 108.871C1.51603 111.24 0.0996094 113.705 0.0996094 118.542C0.0996094 123.274 0.240129 125.691 0.374742 128.008C0.509354 130.324 0.649802 132.715 0.649802 137.422C0.558761 140.638 1.15661 143.851 2.43491 147.014C3.67462 150.077 4.25088 153.187 4.15558 156.3C4.15558 161.049 4.51256 163.464 4.85202 165.799C5.19147 168.134 5.53681 170.488 5.53681 175.177C5.53681 179.799 4.47748 182.045 3.35961 184.425C2.24175 186.805 1.08876 189.238 1.08876 194.057C1.08876 196.439 6.13382 198.028 10.8394 198.028C21.5557 198.028 27.0046 197.962 32.2779 197.901C37.5512 197.84 42.9416 197.776 53.6052 197.776C60.6712 197.743 67.7332 197.944 74.7336 198.38C81.9089 198.825 89.1466 199.032 96.3887 199C103.637 199.036 110.88 198.803 118.044 198.303C125.014 197.817 132.061 197.591 139.114 197.628C146.358 197.662 153.598 197.443 160.769 196.974C167.758 196.515 174.817 196.302 181.879 196.339C192.356 196.339 197.448 196.826 202.838 197.342C208.228 197.859 213.736 198.401 224.645 198.401C235.408 198.401 240.886 198.216 246.177 198.039C251.468 197.861 256.794 197.684 267.405 197.684C268.611 197.684 270.331 197.618 271.578 197.059C272.977 196.418 272.959 195.523 272.942 194.488C272.942 194.351 272.942 194.223 272.942 194.062C272.846 190.948 273.434 187.838 274.698 184.777C275.995 181.613 276.603 178.399 276.512 175.182C276.579 171.987 276.145 168.794 275.213 165.627C274.299 162.536 273.877 159.42 273.948 156.302C273.948 151.579 273.908 149.178 273.872 146.856C273.837 144.534 273.79 142.138 273.79 137.422C273.79 132.839 275.277 130.61 276.851 128.251C278.426 125.892 280 123.39 280 118.532Z" fill="white"/>
</g>
<path d="M148.577 130.995C149.985 132.098 150.153 132.593 149.404 134.227C147.025 139.399 142.939 142.375 137.3 142.779C131.585 143.187 127.094 140.731 124.095 135.843C123.536 134.937 122.976 134.659 121.952 134.663C112.83 134.705 103.707 134.705 94.5848 134.663C93.5712 134.663 93.2192 134.881 93.2826 135.938C93.3811 137.509 93.3284 139.101 93.3002 140.668C93.272 142.101 92.54 142.814 91.0829 142.836C89.5062 142.86 87.9154 142.899 86.3493 142.836C85.4096 142.79 85.033 142.976 85.0999 144.023C85.2054 145.636 85.1456 147.263 85.1175 148.883C85.0928 150.249 84.3678 150.991 83.0058 150.991C80.3768 151.019 77.7266 150.991 75.1117 150.991C74.0946 150.991 73.5244 150.407 73 149.673V107.365C73.3252 106.936 73.754 106.596 74.2463 106.378C74.7387 106.159 75.2786 106.068 75.8156 106.114C78.0539 106.171 80.2923 106.114 82.5306 106.135C84.4663 106.135 85.1104 106.821 85.121 108.757C85.121 110.292 85.1562 111.828 85.121 113.36C85.0964 114.087 85.2934 114.354 86.0607 114.326C87.6374 114.266 89.2282 114.287 90.7978 114.326C92.6702 114.361 93.3002 115.029 93.3143 116.887C93.3143 118.465 93.346 120.05 93.3143 121.617C93.2967 122.302 93.5079 122.523 94.2012 122.523C103.678 122.502 113.157 122.502 122.638 122.523C122.894 122.542 123.15 122.479 123.368 122.343C123.585 122.207 123.754 122.006 123.849 121.768C125.134 119.356 127.112 117.383 129.529 116.104C129.749 116.021 129.937 115.87 130.064 115.672C130.19 115.475 130.25 115.241 130.233 115.007C130.212 110.977 130.205 106.947 130.233 102.913C130.233 102.232 130.061 102.007 129.357 102.028C127.735 102.077 126.109 102.067 124.486 102.028C122.864 101.989 122.075 101.23 122.054 99.6036C122.033 97.9768 122.015 96.3605 122.054 94.7442C122.075 94.0415 121.85 93.8482 121.164 93.8693C119.587 93.915 117.996 93.9044 116.427 93.8693C114.607 93.8412 113.878 93.0963 113.864 91.3008C113.864 89.7232 113.829 88.1385 113.864 86.5679C113.882 85.8863 113.688 85.6614 112.988 85.6825C111.408 85.7317 109.821 85.7176 108.247 85.6825C106.4 85.6509 105.682 84.9376 105.682 83.1351C105.682 72.5778 105.682 62.0192 105.682 51.4596C105.682 49.7027 106.407 49 108.145 49C115.914 49 123.68 49 131.444 49C133.165 49 133.616 49.3514 134.084 51.0906C134.084 52.4961 133.654 52.9529 131.933 53.2867C125.271 53.3218 118.609 53.2867 111.946 53.3499C110.053 53.3675 110.014 53.3921 110.014 55.2367C110.014 63.201 110.014 71.1653 110.014 79.1295C110.014 81.1253 110.063 81.1569 112.091 81.171C113.319 81.171 114.554 81.1288 115.772 81.2026C131.037 81.1862 146.302 81.1944 161.567 81.2272C163.327 81.2272 164.661 80.781 165.847 79.4704C167.371 77.7768 169.088 76.2624 170.651 74.6075C171.138 74.0733 171.738 73.6544 172.408 73.3814C173.078 73.1085 173.8 72.9884 174.522 73.0298C178.513 73.0896 182.508 73.0299 186.488 73.072C187.052 73.1144 187.615 72.9962 188.114 72.7312C188.612 72.4662 189.025 72.0653 189.304 71.5752C192.985 65.9744 196.73 60.4123 200.45 54.8362C200.707 54.4497 201.245 54.0421 200.999 53.5853C200.753 53.1285 200.116 53.3358 199.651 53.3358C182.321 53.3358 164.994 53.3358 147.669 53.3358C145.385 53.3358 143.093 53.3991 140.823 53.3007C139.204 53.2339 138.539 52.5382 138.539 51.1012C138.983 49.4006 139.461 49.0105 141.172 49.0105C162.523 49.0105 183.884 49.0105 205.254 49.0105C206.232 49.0105 207.088 49.1581 207.591 50.1068C208.094 51.0555 207.693 51.8636 207.158 52.6577C204.842 56.1046 202.548 59.5655 200.221 63.0054C199.824 63.5731 199.618 64.2525 199.634 64.9449C199.658 70.9884 199.634 77.0319 199.634 83.0754C199.634 85.0149 198.99 85.679 197.05 85.7071C195.516 85.7317 193.978 85.7668 192.447 85.7071C191.602 85.6649 191.419 85.9531 191.451 86.7366C191.511 88.3564 191.482 89.9762 191.451 91.596C191.433 93.0225 190.729 93.8588 189.311 93.8799C185.538 93.9361 181.765 93.915 177.992 93.8799C177.504 93.9096 177.021 93.7692 176.625 93.4828C176.229 93.1964 175.945 92.7816 175.821 92.3092C175.49 90.5524 176.25 89.5756 178.218 89.4351C180.185 89.2945 182.089 89.3999 184.011 89.3859C187.555 89.3578 187.104 89.7162 187.132 86.3185C187.132 84.0416 187.132 81.7507 187.132 79.4844C187.132 77.8822 187.041 77.7979 185.394 77.7908C182.191 77.7908 178.985 77.8225 175.782 77.7733C175.237 77.7516 174.693 77.8507 174.191 78.0633C173.688 78.2759 173.239 78.5968 172.875 79.003C170.985 80.9566 169.042 82.8681 167.11 84.7725C166.579 85.2995 166.054 85.8266 165.238 85.9039C152.184 85.9566 139.131 85.9039 126.077 85.9285C124.018 85.9285 121.963 85.9812 119.904 85.9847C118.369 85.9847 117.528 87.5518 118.299 88.894C118.57 89.3613 119.031 89.3226 119.457 89.3367C120.991 89.3824 122.522 89.3086 124.057 89.3754C129.688 89.3051 135.287 89.3543 140.904 89.3472C149.677 89.3472 158.452 89.3472 167.23 89.3472C168.11 89.3472 169.007 89.2945 169.82 89.6986C170.707 90.1343 171.52 90.6684 171.228 91.8841C170.767 93.4863 170.236 93.8974 168.497 93.9009C162.929 93.9009 157.365 93.9326 151.797 93.8799C150.808 93.8799 150.523 94.1188 150.583 95.1026C150.671 96.5854 150.625 98.0751 150.601 99.5649C150.576 101.259 149.809 102.024 148.098 102.07C146.479 102.098 144.858 102.098 143.234 102.07C142.615 102.07 142.411 102.235 142.414 102.875C142.439 106.944 142.446 111.012 142.414 115.081C142.414 115.766 142.808 115.953 143.273 116.216C146.018 117.727 148.171 120.119 149.383 123.005C150.108 124.723 149.911 125.327 148.292 126.335C147.081 126.687 146.219 126.293 145.539 124.884C144.933 123.577 144.082 122.396 143.034 121.406C141.454 119.871 139.382 118.944 137.184 118.788C133.686 118.5 130.849 119.765 128.59 122.414C124.11 127.685 126.774 136.29 133.464 138.096C134.766 138.447 136.093 138.837 137.473 138.447C141.249 137.93 143.85 135.861 145.501 132.474C146.388 130.689 146.965 130.446 148.577 130.995Z" fill="#010101"/>
<path d="M132.25 52.9879C133.337 52.8192 133.798 52.0392 134.094 51.1011H138.557C138.93 52.6014 139.943 52.9844 141.408 52.9809C161.117 52.9481 180.817 52.941 200.51 52.9598H201.918C201.999 53.4903 201.633 53.7433 201.428 54.049C197.314 60.2366 193.172 66.403 189.082 72.6011C188.901 72.9131 188.633 73.1656 188.31 73.3279C187.988 73.4901 187.625 73.555 187.266 73.5146C182.793 73.476 178.316 73.5146 173.839 73.4795C173.34 73.4603 172.842 73.5511 172.382 73.7454C171.921 73.9397 171.509 74.2328 171.175 74.6039C169.063 76.7823 166.91 78.894 164.787 81.0479C164.622 81.2462 164.415 81.4057 164.18 81.515C163.946 81.6243 163.691 81.6808 163.432 81.6804C147.679 81.6616 131.927 81.6546 116.177 81.6593C116.089 81.6493 116.003 81.6305 115.92 81.6031C115.216 80.5103 115.48 79.3227 115.631 78.1737C115.733 77.4043 116.405 77.3094 117.039 77.3024C118.964 77.2707 120.886 77.3024 122.807 77.3024C123.33 77.3577 123.858 77.2791 124.342 77.074C124.711 76.9226 125.023 76.6588 125.234 76.32C125.444 75.9812 125.542 75.5848 125.514 75.1871C125.542 72.6889 125.559 70.1942 125.514 67.696C125.486 66.3503 124.873 65.7881 123.402 65.7319C121.473 65.6546 119.531 65.7319 117.609 65.6968C116.965 65.6968 116.275 65.8022 115.758 65.2435C115.55 64.8058 115.46 64.3212 115.497 63.8381C115.497 60.8163 115.469 57.7946 115.497 54.7763C115.497 53.1917 115.642 53.0933 117.257 53.0933C121.771 53.0933 126.288 53.0933 130.807 53.0933C131.29 53.1422 131.779 53.1066 132.25 52.9879Z" fill="#F0F3F9"/>
<path d="M165.438 85.5948C166.023 85.4437 166.396 85.0045 166.793 84.604C168.93 82.4677 171.077 80.3419 173.188 78.1881C173.395 77.9421 173.656 77.7461 173.949 77.6147C174.243 77.4833 174.563 77.4198 174.885 77.4291C178.737 77.4689 182.591 77.4689 186.446 77.4291C187.284 77.4291 187.579 77.6259 187.565 78.5148C187.512 81.9266 187.505 85.3383 187.565 88.7466C187.565 89.7304 187.213 89.8815 186.354 89.8639C183.729 89.8147 181.1 89.8358 178.471 89.8639C176.532 89.8639 175.986 90.405 175.856 92.3235C175.532 91.7683 174.99 91.8737 174.487 91.8772H171.253C170.725 90.1837 170.288 89.8674 168.391 89.8674H125.679C125.158 89.8674 124.623 89.8253 124.109 89.8007C123.384 88.7185 123.655 87.5344 123.786 86.3749C123.793 86.2756 123.82 86.1788 123.867 86.0906C123.913 86.0024 123.977 85.9246 124.054 85.8621C124.132 85.7995 124.221 85.7534 124.317 85.7268C124.413 85.7002 124.514 85.6935 124.613 85.7073C124.965 85.7073 125.317 85.7073 125.669 85.7073C138.449 85.7073 151.228 85.7073 164.006 85.7073C164.486 85.7488 164.97 85.7108 165.438 85.5948Z" fill="#8AB3DF"/>
<path d="M137.255 118.44C141.292 118.792 144.061 120.921 145.726 124.526C146.261 125.682 146.99 126.381 148.316 126.304C148.855 127.843 148.419 129.435 148.577 130.995C147.088 130.724 146.286 131.409 145.677 132.752C144.111 136.191 141.453 138.254 137.621 138.697C136.484 138.9 135.833 138.085 135.189 137.425C133.998 136.197 133.069 134.742 132.457 133.146C131.846 131.55 131.564 129.847 131.63 128.139C131.696 126.432 132.107 124.755 132.84 123.211C133.573 121.666 134.611 120.286 135.893 119.154C136.294 118.827 136.758 118.585 137.255 118.44Z" fill="#F0F3F9"/>
<path d="M132.25 52.9878C131.838 53.3603 131.332 53.2022 130.867 53.2022C126.316 53.2022 121.766 53.2443 117.215 53.1846C116.159 53.1846 115.888 53.536 115.902 54.5303C115.959 58.1142 115.927 61.6946 115.927 65.2786C114.276 66.3608 114.097 67.9806 114.188 69.7655C114.276 71.3783 114.188 73.0016 114.217 74.6179C114.255 76.4344 114.794 76.9755 116.585 76.9966C118.697 77.0247 120.809 76.9966 122.896 77.0142C123.494 77.0142 124.141 76.8982 124.617 77.4323C123.804 77.9137 122.917 77.6396 122.065 77.6642C120.362 77.7087 118.658 77.7087 116.955 77.6642C116.142 77.6396 115.871 77.9382 115.899 78.7183C115.948 79.674 115.899 80.6367 115.899 81.596C114.139 81.6135 112.379 81.596 110.641 81.6698C109.835 81.7049 109.585 81.4624 109.585 80.6438C109.631 77.095 109.603 73.5462 109.603 69.9974C109.603 64.6988 109.603 59.3979 109.603 54.0946C109.603 53.4762 109.483 52.9281 110.486 52.9351C117.771 52.9913 125.011 52.9808 132.25 52.9878Z" fill="#D8DCE6"/>
<path d="M81.1653 128.665C81.1653 134.357 81.1442 140.045 81.1864 145.738C81.1864 146.739 80.9611 147.097 79.8877 147.076C76.9489 147.024 76.949 147.076 76.949 144.111C76.949 133.299 76.949 122.488 76.9243 111.676C76.9243 110.548 77.1601 110.162 78.3603 110.197C81.1758 110.281 81.1758 110.215 81.1758 113.04L81.1653 128.665Z" fill="#905940"/>
<path d="M137.255 118.44C131.043 123.138 130.152 131.089 135.199 136.968C135.825 137.762 136.665 138.36 137.621 138.693C133.235 139.691 128.044 136.444 126.524 131.754C126 130.141 125.888 128.423 126.195 126.755C126.503 125.088 127.221 123.523 128.286 122.202C129.351 120.881 130.728 119.846 132.294 119.189C133.86 118.532 135.564 118.275 137.255 118.44Z" fill="#D8DCE6"/>
<path d="M99.3363 126.574C106.631 126.574 113.924 126.56 121.217 126.532C121.921 126.532 122.273 126.599 122.068 127.467C121.91 128.17 122.012 128.943 122.002 129.684C122.206 130.239 122.156 130.64 121.424 130.629H100.554C99.118 130.629 98.9562 130.503 98.928 129.094C98.9104 128.24 98.7168 127.333 99.3363 126.574Z" fill="#446074"/>
<path d="M85.1211 128.553C85.1211 125.531 85.1493 122.506 85.1035 119.484C85.1035 118.623 85.3604 118.37 86.2227 118.363C89.3339 118.335 89.3339 118.304 89.3339 121.42C89.3339 126.807 89.3058 132.197 89.355 137.583C89.355 138.62 89.084 138.925 88.0353 138.908C85.1211 138.862 85.1211 138.908 85.1211 136.044V128.553Z" fill="#446074"/>
<path d="M132.236 93.9149C136.783 93.8833 141.33 93.8587 145.877 93.813C146.451 93.813 146.581 94.0414 146.641 94.586C146.916 98.0013 146.93 98.0083 143.537 97.9942C139.775 97.9942 136.012 97.945 132.254 97.9204C131.944 97.2985 131.782 96.6141 131.779 95.9197C131.776 95.2253 131.932 94.5395 132.236 93.9149Z" fill="#EFF2F7"/>
<path d="M138.346 108.363C138.346 110.074 138.321 111.782 138.346 113.489C138.346 114.217 138.156 114.47 137.378 114.452C134.295 114.382 134.295 114.41 134.295 111.29C134.295 108.574 134.316 105.858 134.295 103.142C134.295 102.369 134.503 102.088 135.33 102.056C138.346 101.975 138.346 101.947 138.346 104.958V108.363Z" fill="#446074"/>
<path d="M165.439 85.5947C164.981 85.9953 164.429 85.8196 163.922 85.8196C151.16 85.8196 138.399 85.8477 125.637 85.7985C124.349 85.7985 123.916 86.1499 124.071 87.4148C124.129 88.2005 124.143 88.9887 124.113 89.776L118.598 89.8498C118.465 89.8498 118.267 89.8919 118.215 89.8216C117.317 88.7148 117.972 87.4253 117.828 86.2237C117.736 85.4612 118.415 85.6193 118.862 85.6158C121.013 85.6158 123.159 85.6158 125.31 85.6158L165.439 85.5947Z" fill="#709DD2"/>
<path d="M195.71 70.2262C195.71 73.7715 195.71 77.3133 195.71 80.855C195.71 81.491 195.513 81.6456 194.89 81.6772C191.483 81.8353 191.557 81.8529 191.451 78.4692C191.398 76.8143 191.736 75.4229 192.771 74.1123C193.76 72.8579 194.576 71.4665 195.467 70.1313L195.71 70.2262Z" fill="#C6CCD8"/>
<path d="M99.336 126.574C99.336 127.579 99.3606 128.584 99.336 129.586C99.3113 130.264 99.5789 130.506 100.258 130.506C107.213 130.492 114.169 130.492 121.129 130.506C121.741 130.506 122.03 130.292 122.012 129.684C122.61 130.738 121.924 130.738 121.174 130.738H109.208C104.337 130.738 99.4697 130.696 94.5988 130.738C93.543 130.738 93.2755 130.404 93.2896 129.396C93.3283 126.525 93.2896 126.522 96.2002 126.525C97.249 126.546 98.2837 126.564 99.336 126.574Z" fill="#3D5565"/>
<path d="M132.236 93.9152C132.236 95.2503 132.242 96.5855 132.253 97.9207C130.423 97.9418 128.597 97.9559 126.77 97.9945C126.207 97.9945 125.957 97.7907 126.017 97.232C126.02 97.1888 126.02 97.1453 126.017 97.102C125.848 93.8379 125.848 93.8308 129.107 93.8414C130.149 93.8414 131.19 93.8871 132.236 93.9152Z" fill="#D8DCE5"/>
<path d="M136.231 77.471C134.96 77.471 133.686 77.4991 132.416 77.471C131.008 77.4324 130.272 76.7929 130.241 75.3909C130.177 72.7662 130.181 70.138 130.241 67.5133C130.269 66.1079 131.099 65.377 132.521 65.3595C135.067 65.3314 137.61 65.3314 140.151 65.3595C141.587 65.3805 142.351 66.1079 142.376 67.5485C142.425 70.1251 142.425 72.7088 142.376 75.2996C142.351 76.8034 141.672 77.4359 140.179 77.4745C138.863 77.471 137.547 77.471 136.231 77.471Z" fill="#010202"/>
<path d="M124.617 77.4323C121.864 77.4323 119.109 77.4499 116.353 77.4323C114.519 77.4323 113.861 76.7577 113.851 74.8884C113.851 72.5718 113.851 70.2575 113.851 67.9455C113.851 66.2695 114.255 65.7705 115.927 65.2681C118.421 65.2845 120.918 65.302 123.417 65.3208C125.306 65.3208 125.986 65.9708 126 67.7979C126 70.2047 125.979 72.6116 126 75.0149C126.031 76.1393 125.708 76.9896 124.617 77.4323Z" fill="#010202"/>
<path d="M152.695 77.4712C151.378 77.4712 150.062 77.4993 148.746 77.4712C147.377 77.4361 146.669 76.8282 146.634 75.493C146.573 72.7805 146.573 70.0668 146.634 67.3519C146.662 66.08 147.454 65.3843 148.774 65.3667C151.355 65.3315 153.942 65.3315 156.534 65.3667C157.921 65.3667 158.727 66.1713 158.755 67.5838C158.801 70.1663 158.808 72.7524 158.755 75.3349C158.723 76.8001 157.991 77.4431 156.503 77.4782C155.236 77.4712 153.965 77.4712 152.695 77.4712Z" fill="#010202"/>
<path d="M136.424 69.2734C138.409 69.2734 138.409 69.2734 138.409 71.2938C138.409 73.4968 138.409 73.4968 136.245 73.4968C134.179 73.4968 134.179 73.4968 134.179 71.4378C134.179 69.2734 134.179 69.2734 136.424 69.2734Z" fill="#89B1DD"/>
<path d="M119.96 69.274C122.033 69.274 122.033 69.274 122.033 71.8531C122.033 73.4974 122.033 73.4974 119.436 73.4974C117.803 73.4974 117.789 73.4974 117.806 70.8727C117.82 68.9683 117.549 69.3092 119.96 69.274Z" fill="#89B2DE"/>
<path d="M152.536 73.4971C150.586 73.4971 150.586 73.4971 150.586 71.0797C150.586 69.2737 150.586 69.2527 153.18 69.2808C155.141 69.3018 154.789 68.8802 154.817 71.916C154.834 73.4971 154.82 73.4971 152.536 73.4971Z" fill="#89B1DD"/>
<defs>
<clipPath id="clip0_289_73">
<rect width="280" height="199" fill="white"/>
</clipPath>
</defs>
</svg>
