<svg width="89" height="89" viewBox="0 0 89 89" fill="none" xmlns="http://www.w3.org/2000/svg">
<path d="M76.8408 64.6538C70.0071 66.0621 64.2896 63.0444 57.8064 60.4745C59.1043 67.399 58.5203 73.4929 56.0152 79.3401C52.0824 88.4971 41.6599 91.7745 34.4238 85.5249C32.1524 83.5779 31.179 79.5802 30.5819 76.3419C29.5565 70.6958 28.0639 64.9134 30.504 59.17C30.7312 58.6508 30.3353 57.8721 30.1536 56.7493C23.9948 57.301 18.0502 58.6963 11.9434 58.6963C5.2784 58.6963 -0.770044 52.2715 0.0801124 45.6649C0.495456 42.42 2.676 40.9792 5.46659 40.0966C11.0543 38.312 16.7458 38.9805 22.4113 39.584C24.6113 39.8176 26.7854 40.3173 30.199 40.882C28.1158 38.2082 26.6037 36.3391 25.1695 34.3922C23.3805 32.0529 22.0906 29.3714 21.3795 26.5136C20.9382 24.6641 20.1464 22.5289 22.3983 21.4711C24.7671 20.3549 25.8379 22.4575 26.7205 24.067C29.602 29.3237 32.743 34.3662 37.513 38.9544C37.7596 31.2252 35.897 23.9177 37.3961 16.5908C38.8758 9.38718 42.5879 5.5582 48.8116 5.36351C55.3446 5.1818 58.3191 8.38994 57.735 14.9879C57.1704 21.4192 54.3603 27.1756 51.6541 33.9509C58.5332 31.1538 64.3546 27.87 71.0325 27.0912C74.4776 26.669 77.9729 27.1753 81.1565 28.5579C85.4203 30.3685 88.5159 33.1981 88.3666 38.2536C88.2238 43.1923 85.2905 46.1126 80.9229 47.813C75.491 49.9286 69.7994 50.1947 64.095 49.9156C59.4613 49.682 54.8406 49.1044 49.2399 48.6177C58.0984 55.6591 68.2095 58.8779 76.8408 64.6538ZM10.5091 52.5635L12.1186 53.167L17.7063 53.511C20.8733 53.9912 23.9169 53.4136 26.9152 52.4401C29.6262 52.0831 32.2038 51.0498 34.4109 49.4354C36.3578 49.7664 37.8569 50.7334 38.454 52.8036C33.048 59.2025 35.5076 66.5878 35.7283 73.6941C36.7277 77.9838 36.8186 83.1302 43.5549 82.0464C46.9439 81.0042 49.805 78.7035 51.5503 75.6172C53.2956 72.5309 53.7926 68.8935 52.9391 65.4521C52.0435 61.6297 53.1273 57.1452 48.2405 54.2248C39.4404 48.9616 32.1524 40.4795 20.2567 43.0884C19.6921 43.2117 18.9977 42.5303 18.3098 42.4394C13.767 41.7905 9.34098 41.6736 6.01174 45.6843C2.9356 49.3056 5.03827 50.7593 8.51029 51.6354L8.36751 51.5576C8.60114 52.9593 9.66547 52.57 10.574 52.6089L10.5091 52.5635ZM47.3319 12.3271C41.7118 12.5802 40.946 13.5081 40.8422 20.2964C38.2463 25.2935 41.9779 30.4659 40.4982 35.4046C38.7914 41.0961 42.0233 43.8413 46.7738 46.6254C48.883 43.4843 52.076 44.2436 55.4896 44.0943C59.5976 43.9126 63.5368 45.6584 67.58 44.5941C69.8968 46.541 71.9216 44.2047 74.0697 44.1592C81.7925 43.0884 84.5636 39.7851 81.2733 35.2877C78.7553 31.8417 75.2573 29.9921 70.7664 31.7184L67.567 31.9326C61.564 33.0358 56.2553 35.9822 51.0246 38.8117C48.2924 40.2849 46.4818 40.2394 44.5349 38.6689C48.1691 33.0553 50.5703 26.9874 52.7055 21.0039C53.8477 17.759 54.8081 13.6639 52.0565 10.2503C51.148 10.0274 50.1913 10.1123 49.3363 10.4916C48.4812 10.871 47.7763 11.5234 47.3319 12.3465L47.3319 12.3271Z" fill="#333333"/>
<path d="M25.4875 5.31157C25.4761 6.01661 25.4285 6.7206 25.3447 7.42074C24.9164 9.64023 25.6757 13.3329 22.7488 13.2615C19.2443 13.1771 19.9063 9.36766 19.6402 6.77176C19.6278 6.43028 19.6539 6.08853 19.7181 5.75291C20.0815 3.28031 19.9387 -0.204745 23.2875 0.00941664C26.7919 0.19113 24.7996 3.80595 25.4875 5.31157Z" fill="#333333"/>
<path d="M6.44635 9.19897C7.29821 9.59557 8.10352 10.0853 8.84756 10.6592C10.2352 11.9475 11.536 13.3264 12.7414 14.7866C13.955 16.2468 17.135 17.3826 15.3373 19.6215C13.306 22.1266 10.9308 19.7383 9.04874 18.4209C7.06936 17.0321 5.25873 15.3188 4.46698 12.9371C3.97376 11.3795 4.05813 9.8155 6.44635 9.19897Z" fill="#333333"/>
<path d="M35.7284 73.694C35.5078 66.5878 33.0482 59.2025 38.4541 52.8036C37.8571 50.7074 36.3904 49.7664 34.411 49.4354C34.1709 48.4489 33.9243 47.4884 32.6134 46.9952C32.0228 48.1764 31.4257 49.3705 30.8871 50.4348C29.4723 50.0779 29.4139 48.4879 27.7655 48.8059C27.5059 49.9221 27.2139 51.1811 26.9154 52.4401C23.9171 53.4136 20.8734 53.9912 17.7064 53.511C19.8091 51.3823 22.0156 49.2082 19.6533 46.0153C17.9595 43.7374 15.6167 42.8353 12.8586 43.8931C8.49096 45.561 11.0349 49.0849 10.7689 51.8885L8.41309 51.5575L8.55587 51.6354C6.52458 50.1557 5.95997 48.0595 6.05731 45.6843C9.38655 41.6736 13.845 41.7904 18.3554 42.4394C19.0044 42.5303 19.7117 43.2117 20.3023 43.0884C32.198 40.4925 39.486 48.9292 48.2861 54.2248C53.1729 57.1452 52.0891 61.6296 52.9847 65.4521C53.838 68.9004 53.3356 72.5446 51.5811 75.6334C49.8266 78.7221 46.9538 81.0199 43.5551 82.0528C40.9981 80.6316 39.0707 78.808 39.142 75.5631C41.699 75.4917 44.3338 75.7189 46.8064 75.2646C49.8501 74.713 51.6283 72.9542 50.7003 69.4238C49.6424 65.3548 47.7669 62.3565 42.9969 63.0184C38.6229 63.622 37.0588 66.4969 37.4223 70.6958C37.428 71.5477 37.3628 72.3987 37.2276 73.2398L35.7284 73.694Z" fill="url(#paint0_linear_80_5553)"/>
<path d="M52.0242 10.2698C54.7888 13.6834 53.8283 17.7978 52.6731 21.0233C50.538 27.0328 48.1303 33.0748 44.5025 38.6884C46.5014 40.2589 48.2861 40.3043 50.9923 38.8312C56.223 36.0016 61.5316 33.0553 67.5346 31.952C63.803 36.1639 62.3429 40.3887 67.5346 44.6135C63.4915 45.6779 59.5523 43.9646 55.4442 44.1138C52.0306 44.2631 48.8377 43.5037 46.7285 46.6448C41.978 43.8477 38.7461 41.1155 40.4529 35.424C41.9326 30.4853 38.214 25.313 40.7969 20.3159C42.64 23.1584 45.184 24.9237 48.4743 23.3596C52.4655 21.4711 52.9652 18.0445 51.2778 14.1766C52.5433 13.0604 52.1929 11.6521 52.0242 10.2698Z" fill="url(#paint1_linear_80_5553)"/>
<path d="M67.5277 44.6135C62.3359 40.3822 63.8156 36.1768 67.5277 31.952L70.7272 31.7378C72.1355 32.3284 73.5372 32.9059 74.939 33.503C79.9686 35.6186 80.4813 38.6299 76.4187 42.2966C75.6724 42.9456 74.8287 43.5556 74.0305 44.1787C71.8953 44.2241 69.8705 46.5799 67.5277 44.6135Z" fill="url(#paint2_linear_80_5553)"/>
<path d="M51.3037 14.1766C52.991 18.0704 52.4913 21.4711 48.5001 23.3596C45.2098 24.9236 42.6594 23.1584 40.8228 20.3159C40.9525 13.5276 41.7183 12.5995 47.3125 12.3464C48.1302 14.0987 49.7332 14.0987 51.3037 14.1766Z" fill="url(#paint3_linear_80_5553)"/>
<path d="M10.7492 51.8885C11.0153 49.1109 8.47131 45.5609 12.8389 43.8931C15.5971 42.8352 17.9399 43.7373 19.6337 46.0152C22.0154 49.2082 19.8089 51.3823 17.6868 53.5109L12.0991 53.1605L10.4896 52.5634L10.5805 52.6088L10.7492 51.8885Z" fill="url(#paint4_linear_80_5553)"/>
<path d="M74.0762 44.1786C74.8745 43.5297 75.7181 42.978 76.4645 42.2966C80.527 38.6299 80.0143 35.6186 74.9848 33.503C73.583 32.9059 72.1812 32.3283 70.7729 31.7378C75.2639 30.0115 78.7618 31.8611 81.2798 35.3071C84.5701 39.8045 81.8055 43.1143 74.0762 44.1786Z" fill="url(#paint5_linear_80_5553)"/>
<path d="M39.1417 75.5631C38.4928 74.7779 37.8438 73.9991 37.1948 73.2139C37.3301 72.3727 37.3952 71.5218 37.3895 70.6699C37.0261 66.471 38.5901 63.5961 42.9642 62.9925C47.7342 62.3435 49.6097 65.3288 50.6675 69.3979C51.6021 72.9543 49.8239 74.713 46.7737 75.2387C44.3141 75.7254 41.6987 75.4982 39.1417 75.5631Z" fill="url(#paint6_linear_80_5553)"/>
<defs>
<linearGradient id="paint0_linear_80_5553" x1="6.02486" y1="62.0774" x2="53.3286" y2="62.0774" gradientUnits="userSpaceOnUse">
<stop stop-color="#D75432"/>
<stop offset="1" stop-color="#FF806C"/>
</linearGradient>
<linearGradient id="paint1_linear_80_5553" x1="39.8753" y1="28.4605" x2="67.5736" y2="28.4605" gradientUnits="userSpaceOnUse">
<stop stop-color="#D75432"/>
<stop offset="1" stop-color="#FF806C"/>
</linearGradient>
<linearGradient id="paint2_linear_80_5553" x1="64.205" y1="38.5715" x2="79.1768" y2="38.5715" gradientUnits="userSpaceOnUse">
<stop stop-color="#E3B724"/>
<stop offset="1" stop-color="#FFC961"/>
</linearGradient>
<linearGradient id="paint3_linear_80_5553" x1="40.8163" y1="18.1483" x2="52.2123" y2="18.1483" gradientUnits="userSpaceOnUse">
<stop stop-color="#E3B724"/>
<stop offset="1" stop-color="#FFC961"/>
</linearGradient>
<linearGradient id="paint4_linear_80_5553" x1="10.256" y1="48.4814" x2="20.6655" y2="48.4814" gradientUnits="userSpaceOnUse">
<stop stop-color="#E3B724"/>
<stop offset="1" stop-color="#FFC961"/>
</linearGradient>
<linearGradient id="paint5_linear_80_5553" x1="70.7729" y1="37.6305" x2="82.6427" y2="37.6305" gradientUnits="userSpaceOnUse">
<stop stop-color="#D75432"/>
<stop offset="1" stop-color="#FF806C"/>
</linearGradient>
<linearGradient id="paint6_linear_80_5553" x1="37.2208" y1="69.2356" x2="50.9466" y2="69.2356" gradientUnits="userSpaceOnUse">
<stop stop-color="#E3B724"/>
<stop offset="1" stop-color="#FFC961"/>
</linearGradient>
</defs>
</svg>
