<svg width="59" height="58" viewBox="0 0 59 58" fill="none" xmlns="http://www.w3.org/2000/svg">
<path d="M48.8012 14.0925C46.5007 13.8785 44.1816 13.9867 41.9111 14.4139C37.5367 15.2105 33.7073 17.4466 29.2421 18.9141C29.3958 17.4466 29.5565 16.2028 29.6893 14.952C29.9758 11.507 30.3252 8.02699 29.3329 4.6169C28.6341 2.05933 27.4182 0.207533 24.4833 0.0188603C21.3877 -0.204752 19.8923 1.58415 18.8022 4.10678C17.7121 6.6294 18.327 9.27083 18.1663 11.8913C8.7536 8.98433 8.33433 8.95638 4.95219 9.79492C2.65318 10.333 0.759467 11.4161 0.200436 13.813C-0.107099 15.0018 -0.0598958 16.2546 0.336225 17.4168C0.732346 18.5791 1.46005 19.6 2.42957 20.3536C4.5581 22.1628 7.14164 23.3543 9.89961 23.7986C12.7367 24.3786 15.6157 24.7909 18.9 25.3639C14.9099 28.5574 11.2133 31.2687 8.59288 35.0701C5.97242 38.8715 3.88305 42.6869 6.07025 47.2849C8.43216 52.1345 12.583 54.5942 17.9077 55.1672C21.1641 55.5166 24.3226 55.0065 27.551 54.3986C28.3127 57.019 29.5286 58.8079 32.4984 57.627C33.2322 55.866 31.9184 54.5942 31.4083 53.029C33.5047 52.0716 35.4333 51.1772 37.2152 50.3456C38.8784 51.848 39.0391 55.8381 41.8762 53.9514C44.5246 52.2323 41.401 50.3177 40.3179 48.4938L44.0494 46.0411C45.3911 47.6692 45.5797 50.2338 48.2421 50.2338C48.6556 50.2657 49.0673 50.1517 49.4055 49.9117C49.7438 49.6718 49.9874 49.3209 50.0939 48.9201C50.6949 46.4324 48.6963 45.1885 47.3477 43.5953C48.7802 42.3794 49.8983 40.912 51.5404 40.2062C53.3922 41.3242 54.5731 44.9649 56.8722 42.7288C59.5485 40.1782 55.5654 38.8715 54.4474 36.6983C56.4664 34.1084 57.7851 31.0426 58.2767 27.7957C59.6533 20.3815 55.8589 14.8262 48.8012 14.0925ZM24.0082 2.56945C26.1744 4.55401 26.1744 4.554 26.4609 18.0197C21.2619 13.3587 19.9552 6.72026 24.0082 2.56945ZM6.39169 18.3062C4.8893 17.5095 3.42185 16.5801 3.74329 14.7004C3.99486 13.1351 5.56014 12.7857 6.96471 12.5621C11.9401 11.7306 20.8776 16.5801 23.2115 21.6883C17.3068 20.7309 11.5697 21.0524 6.39169 18.3062ZM8.55794 45.8803C7.25121 43.0852 8.78155 38.8296 12.548 35.3496C13.8548 41.7016 17.6562 46.5302 21.5135 51.9458C15.6786 52.4559 10.2839 49.7097 8.55794 45.8803ZM22.6665 47.7321C18.8651 43.9657 17.0762 39.1161 16.0559 34.1337C15.455 31.2337 18.5157 30.0528 20.9475 28.7391C22.345 32.5055 22.925 36.272 25.3848 39.4934C27.7816 42.5891 29.885 45.8803 33.0714 48.7174C28.2218 51.3029 25.9508 51.0164 22.6665 47.7321ZM33.0085 43.742C29.2786 40.4107 26.5025 36.1465 24.9655 31.3875C23.4631 26.9222 23.8125 26.3143 28.7599 24.3367C30.9611 32.4147 34.4131 39.3676 42.3234 43.0712C37.9839 47.4107 37.1873 47.4736 33.0085 43.742ZM54.1329 29.7663C53.6842 31.213 52.9206 32.5422 51.8968 33.6585C50.2407 36.4537 47.9067 38.7038 45.5448 40.9679C38.1446 37.8093 34.1196 31.9675 32.0163 24.4695C31.8134 23.9225 31.8338 23.3176 32.073 22.7855C32.3123 22.2533 32.7512 21.8367 33.295 21.6254C36.0343 20.1929 38.7176 18.5647 41.8762 18.1315C43.0571 17.1741 44.4966 17.3279 45.9012 17.3977C45.8034 17.0414 46.1527 17.1392 46.3764 17.0763C47.4665 16.8876 48.5146 16.5662 49.5069 17.3628C50.1428 17.6493 51.0722 17.237 51.5194 18.0965C52.4166 18.2698 53.2348 18.7253 53.8546 19.3967C54.4744 20.068 54.8633 20.92 54.9645 21.8281C56.2083 24.6581 55.1252 27.2087 54.1329 29.7942L54.1329 29.7663Z" fill="#333333"/>
<path d="M54.1328 29.7943C55.1251 27.2088 56.2291 24.6582 54.9643 21.877C53.7834 20.6332 52.0574 20.0322 51.5473 18.2084C50.6249 18.6277 50.0449 18.0197 49.5068 17.4118C48.5145 16.6152 47.4663 16.9366 46.3762 17.1253L45.9639 17.5096C45.8382 18.3062 46.4112 19.3894 45.0695 19.6479C44.4511 19.7579 43.8138 19.6763 43.2431 19.414C42.6723 19.1518 42.1953 18.7214 41.876 18.1804C38.7175 18.5927 36.0342 20.2209 33.2949 21.6744C32.7511 21.8857 32.3121 22.3023 32.0729 22.8344C31.8336 23.3666 31.8132 23.9714 32.0161 24.5184C34.1125 32.0164 38.1445 37.8583 45.5447 41.0168C47.9066 38.7528 50.2405 36.5167 51.8967 33.7075C51.4494 32.4357 51.0371 31.1569 50.4991 29.7174C51.7709 29.2213 52.9518 29.7664 54.1328 29.7943ZM38.0606 27.5931C37.1033 26.8943 36.2368 26.1955 35.1257 25.3919C35.4527 24.9258 35.8809 24.5397 36.3783 24.2626C36.8757 23.9855 37.4293 23.8245 37.9978 23.7917C39.4233 24.9447 38.8223 26.1886 38.0816 27.5861L38.0606 27.5931ZM43.9305 29.3191C41.9878 29.0955 40.3247 28.4526 40.1989 26.0907C40.0732 23.7288 41.3799 22.6457 43.5182 22.6457C46.2295 22.6457 46.1316 25.1054 46.516 26.7616C46.9003 28.4177 45.6425 29.2213 43.9514 29.3191L43.9305 29.3191ZM49.7723 25.7064C49.2273 24.7211 49.388 23.7288 49.5837 22.6806C50.0949 22.7446 50.5849 22.9245 51.016 23.2067C51.4471 23.4889 51.8081 23.8659 52.0714 24.3088C51.8967 25.7064 50.8764 25.7413 49.7933 25.7064L49.7723 25.7064Z" fill="url(#paint0_linear_80_5623)"/>
<path d="M33.0643 48.7103C28.2077 51.3098 25.9576 51.0023 22.6663 47.739C18.8719 43.9725 17.076 39.1159 16.0488 34.1475C15.4409 31.2406 18.5295 30.0387 20.9403 28.7319C22.3379 32.4914 22.8969 36.2858 25.3706 39.5002C27.7675 42.5959 29.8778 45.8942 33.0643 48.7103Z" fill="url(#paint1_linear_80_5623)"/>
<path d="M28.7529 24.3506C30.975 32.4146 34.4131 39.3815 42.3164 43.0572C37.9769 47.4246 37.1733 47.4805 33.0015 43.7559C29.2819 40.4115 26.506 36.1488 24.9515 31.3944C23.4491 26.9291 23.8055 26.3282 28.7529 24.3506Z" fill="url(#paint2_linear_80_5623)"/>
<path d="M21.5204 51.946C15.6645 52.4421 10.2909 49.7238 8.54389 45.8735C7.26511 43.0784 8.77449 38.8088 12.5619 35.3428C13.8617 41.6878 17.6561 46.5373 21.5204 51.946Z" fill="url(#paint3_linear_80_5623)"/>
<path d="M43.9514 29.3052C42.0157 29.0886 40.3596 28.4527 40.2058 26.1048C40.0521 23.7569 41.3868 22.6108 43.5531 22.6108C46.2434 22.6108 46.1595 25.0636 46.5299 26.7267C46.9002 28.3898 45.6354 29.2074 43.9514 29.3052Z" fill="#333333"/>
<defs>
<linearGradient id="paint0_linear_80_5623" x1="31.8903" y1="28.9488" x2="55.5234" y2="28.9488" gradientUnits="userSpaceOnUse">
<stop stop-color="#E3B724"/>
<stop offset="1" stop-color="#FFC961"/>
</linearGradient>
<linearGradient id="paint1_linear_80_5623" x1="15.9719" y1="39.5911" x2="33.0643" y2="39.5911" gradientUnits="userSpaceOnUse">
<stop stop-color="#E3B724"/>
<stop offset="1" stop-color="#FFC961"/>
</linearGradient>
<linearGradient id="paint2_linear_80_5623" x1="24.1688" y1="35.3984" x2="42.3164" y2="35.3984" gradientUnits="userSpaceOnUse">
<stop stop-color="#E3B724"/>
<stop offset="1" stop-color="#FFC961"/>
</linearGradient>
<linearGradient id="paint3_linear_80_5623" x1="8.09667" y1="43.6723" x2="21.5204" y2="43.6723" gradientUnits="userSpaceOnUse">
<stop stop-color="#E3B724"/>
<stop offset="1" stop-color="#FFC961"/>
</linearGradient>
</defs>
</svg>
