<svg width="149" height="141" viewBox="0 0 149 141" fill="none" xmlns="http://www.w3.org/2000/svg">
<path d="M93.3616 99.1056C98.3679 107.526 102.214 116.256 100.418 126.423C100.178 128.397 99.7145 130.336 99.0375 132.205C96.6365 137.8 90.9769 139.033 86.4199 134.974C81.7322 130.801 79.6823 125.174 78.3185 119.261C76.4607 111.704 76.2186 103.839 77.608 96.1819L71.4339 97.3988C71.2134 106.382 71.7606 115.439 69.3922 124.235C68.3115 128.613 66.2538 132.689 63.3733 136.158C61.2336 138.673 58.6611 141.058 55.2801 139.866C52.0623 138.714 51.3355 135.407 51.1967 132.116C50.9027 124.284 53.0995 116.983 55.8844 109.82C57.5667 105.5 59.4533 101.253 61.2336 96.9904C58.9388 94.5976 58.2364 96.6066 57.4769 98.2236C52.4217 108.987 44.2631 116.925 34.463 123.287C28.0848 127.42 23.103 127.73 20.3018 124.578C17.7048 121.662 18.252 116.615 22.4905 110.841C28.9155 102.096 36.7217 94.4555 45.6025 88.2193C47.685 86.7411 47.7258 86.7901 46.705 84.4463C37.207 89.7955 26.7863 92.7437 16.488 95.8797C12.7476 97.0231 7.88839 98.2481 5.56086 94.0422C3.11083 89.5832 6.05087 85.5324 9.64424 82.8619C18.9952 75.9283 29.318 71.1427 41.1026 70.0647C42.0418 69.9748 43.1116 70.4811 44.3693 68.9131C35.3287 69.3541 26.7863 69.1826 18.4153 67.1083C13.2131 65.8179 8.18239 64.1601 4.01735 60.5749C0.685309 57.7165 -0.88271 54.0415 0.505638 49.8601C1.79599 45.9401 5.57719 45.3847 9.12973 45.0988C15.1323 44.6252 21.094 45.6706 27.7663 46.0871C25.1447 42.706 22.6294 39.9212 20.6285 36.8015C16.5451 30.4477 16.145 25.1719 19.0932 22.0196C22.0414 18.8672 27.4478 19.0551 33.9567 22.4443C38.7097 24.8943 42.7196 28.4468 47.3991 32.4649C46.4191 28.2753 45.5861 24.8453 44.8348 21.3907C43.9768 17.6305 43.9517 13.7282 44.7613 9.95726C45.5045 6.59256 46.5661 3.42386 50.478 2.60719C54.3899 1.79051 57.7137 3.36675 60.1311 6.44562C65.1618 12.8892 66.4195 20.6312 67.3097 28.4386C67.816 32.914 68.0529 37.4221 68.4285 42.0772C71.2869 41.1952 70.3559 39.423 70.3559 38.1245C70.4175 28.2835 72.482 18.5581 76.4238 9.54085C77.7876 6.27415 79.6088 3.25238 82.6795 1.30053C86.5751 -1.1495 89.7601 -0.120509 91.3444 4.24054C93.1166 9.09159 92.8063 14.0407 91.7936 19.0306C90.4164 25.5858 88.1495 31.9219 85.056 37.8631C87.9797 38.4021 88.4044 36.1808 89.3599 34.9231C94.5785 28.0385 98.9314 20.4353 106.216 15.3229C108.596 13.4879 111.292 12.1039 114.171 11.2395C116.915 10.5372 119.561 11.0026 121.521 13.1341C123.481 15.2657 123.244 17.7075 122.337 20.1739C120.704 24.4941 117.666 27.769 114.644 31.1255C108.405 38.0591 102.329 45.1316 95.9178 51.8936C96.1547 51.6078 96.6202 50.0397 97.3633 49.37C107.98 39.6843 120.973 36.1481 134.865 35.1027C136.529 35.0358 138.191 35.2795 139.765 35.8214C145.27 37.5773 146.503 42.4855 142.542 46.6016C140.503 48.5751 138.113 50.1485 135.494 51.2402C125.743 55.7483 115.306 57.839 104.901 60.0767C103.505 60.3789 101.39 59.6928 101.283 62.8615C111.246 60.1377 121.608 59.1786 131.901 60.0277C135.562 60.282 139.135 61.265 142.411 62.9187C146.495 65.0421 148.74 68.3659 148.299 73.0454C147.867 77.5943 145.466 80.8611 140.949 82.2086C132.35 84.7893 123.799 83.303 115.257 81.7023C111.171 80.9367 107.132 79.9359 103.162 78.705C101.006 78.0272 100.042 78.5989 99.405 80.9999C106.02 84.185 112.529 87.7865 118.099 92.8336C121.365 95.7736 124.248 98.9667 126.061 102.993C128.299 107.967 127.605 112.842 124.077 115.872C120.255 119.139 116.049 118.665 111.949 116.444C106.42 113.455 102.525 108.603 98.2372 104.193C96.6038 102.511 95.9178 99.8406 93.231 99.2363C92.6756 95.9696 90.4788 93.8789 88.2411 91.7964C89.1892 94.6847 90.9709 97.2279 93.3616 99.1056ZM29.2199 40.1008C29.2619 40.6368 29.4955 41.1398 29.8779 41.5177C30.2603 41.8956 30.766 42.1232 31.3025 42.1588L31.2045 42.069C31.8088 43.9228 33.6545 44.5191 34.9448 45.5726C38.3177 47.6306 41.8294 49.5007 45.0144 51.8119C48.6078 54.4089 50.9108 53.5596 53.5895 50.2929C56.4316 46.8383 53.663 45.1887 51.9562 43.2777C50.2493 41.3666 49.2775 39.0554 46.9091 37.9366C44.2549 35.315 41.8131 32.4323 38.236 30.9704C34.365 30.3906 32.5193 26.005 28.4359 25.7682C27.5507 25.1598 26.5161 24.8047 25.4438 24.7414C24.3716 24.678 23.3024 24.9088 22.3517 25.4088C22.4579 26.74 21.6575 28.2181 23.0949 29.3778C22.8499 32.5792 24.7772 34.8904 26.3616 37.3322C27.1783 38.4021 27.5458 39.8885 29.1709 40.1335L29.2199 40.1008ZM35.3205 103.058C33.7443 102.732 33.3523 104.095 32.601 104.945C28.2726 109.33 23.9361 113.724 23.6176 120.462L23.4052 120.323L25.4387 121.956C28.5503 122.25 30.4776 119.931 32.8542 118.6C36.57 115.962 40.7514 113.896 43.4709 110.025C44.1243 109.559 44.7695 109.102 44.3693 108.138L44.2958 108.285C45.3516 107.841 46.2789 107.138 46.9924 106.242C47.7059 105.346 48.1828 104.285 48.3791 103.156L48.2648 103.271C49.1305 103.409 49.2775 102.699 49.5797 102.16C50.674 100.739 51.8745 99.3751 52.8464 97.8724C53.8999 96.239 55.3617 94.4178 53.1894 92.6538C51.3273 91.1348 49.5552 90.4978 47.0235 92.2373C43.766 94.4258 40.7995 97.0192 38.1952 99.9549C36.864 100.772 35.5328 101.531 35.2225 103.222L35.3205 103.058ZM64.288 124.227C66.15 123.32 64.6228 121.311 65.6192 120.143C66.934 113.03 66.0602 105.786 66.8442 98.6401C66.8442 98.3869 65.5293 97.9786 64.7127 97.5947C61.0539 103.107 60.7109 109.543 58.4651 115.292C57.1421 118.698 55.8517 122.642 56.8807 126.603C55.4842 129.478 54.4307 132.32 58.3181 134.149C59.0335 133.876 59.6857 133.46 60.2347 132.927C60.7838 132.393 61.2182 131.753 61.5113 131.046C63.1446 129.029 64.582 126.897 64.3697 124.104L64.288 124.227ZM111.435 53.0369L111.32 53.1594C113.329 53.3636 115.298 53.3963 117.037 52.0569C120.353 51.8691 123.464 50.8237 126.584 49.8111C129.099 49.1414 131.647 48.5534 133.754 46.9038C134.548 46.6845 135.325 46.4116 136.082 46.0871C137.911 45.1806 139.912 44.127 139.291 41.677C138.671 39.227 136.335 40.0436 134.645 40.0926C125.963 40.1661 117.494 41.3339 109.744 45.5888C106.739 46.5329 103.959 48.084 101.577 50.1459C99.944 51.4118 96.5467 51.5342 97.8452 54.8744C99.1927 58.3698 101.79 55.7401 103.823 55.6911C104.643 55.5353 105.435 55.2602 106.175 54.8744L111.435 53.0369ZM22.319 80.0526C19.7138 80.6161 17.7947 82.3638 15.7285 83.8501C12.5108 85.4835 10.9754 88.448 9.19506 91.2819C9.95928 91.8305 10.8507 92.1755 11.7852 92.2841C12.7197 92.3927 13.6664 92.2613 14.5361 91.9025C22.3844 88.8563 31.0085 87.6721 37.8685 82.2657C38.3512 81.8981 38.9443 81.7052 39.5509 81.7186C45.8148 81.2694 46.2803 80.4853 44.1406 74.2704C40.2118 74.5615 36.345 75.4141 32.6581 76.8022C28.8769 76.9656 25.4959 78.3539 22.2374 80.1342L22.319 80.0526ZM100.369 26.9687L98.866 28.1283L94.5621 33.7226L91.2301 38.6226C89.3748 40.2358 87.8543 42.1975 86.7547 44.3965C89.5151 48.1369 92.2428 46.4953 94.7092 44.2822C99.4867 39.9864 104.289 35.7071 109.017 31.3787C113.248 27.4995 117.641 23.1711 118.638 16.4662C113.877 15.4454 110.406 16.5315 107.678 19.9861C103.938 21.0069 101.961 23.8571 100.279 27.0503L100.369 26.9687ZM60.3924 44.0698L60.2536 44.1189C61.0579 44.2114 61.8727 44.1115 62.6309 43.8276C63.3891 43.5436 64.069 43.0836 64.6147 42.4855C64.043 39.4148 63.4795 36.3849 62.9241 33.3632C62.7036 30.415 62.7036 27.426 62.23 24.5105C61.5276 20.1494 61.2826 15.576 57.8526 12.1296C56.2846 10.5453 55.0841 7.79314 52.3237 9.31216C49.8737 10.676 49.057 13.2649 49.2693 16.1477C49.9798 26.1193 54.4879 34.8005 58.4896 43.6615C58.5549 44.2413 58.4896 44.9273 59.3063 45.0008C59.9514 45.0662 60.5394 44.9518 60.3924 44.078L60.3924 44.0698ZM52.2665 58.1249L52.34 58.0269C47.881 64.2254 47.44 71.3713 48.7058 78.3702C49.7838 84.2421 53.2874 88.9298 59.8453 90.1712C60.4823 91.5187 61.74 91.0858 62.8098 91.2165C73.9819 94.6138 86.5424 90.8245 92.4306 82.2984C100.214 73.8132 97.6655 57.7982 88.2982 50.7748C81.7077 45.1887 74.2678 45.8747 66.6645 47.8674C60.8988 49.027 56.8644 52.6449 53.4752 57.1775C52.7239 57.0632 52.4299 57.5124 52.2665 58.133L52.2665 58.1249ZM74.1371 41.6688C81.0298 43.637 80.9482 38.0999 82.3038 34.0982L84.2312 29.1982C86.8446 22.5749 88.8699 15.8292 88.3881 8.57713C88.2656 6.79678 87.7429 5.1226 85.9381 4.7061C84.4027 4.34676 83.1532 5.52273 82.2712 6.80491C79.7721 10.2921 78.294 14.2612 76.8566 18.2384L74.6761 25.3435C74.4556 27.1075 74.2269 28.8715 74.0064 30.6274C73.0427 34.3187 72.6997 37.9775 74.1371 41.677L74.1371 41.6688ZM95.2155 115.676C94.9787 110.049 92.0549 105.582 88.9843 101.172C85.4807 93.446 84.762 93.054 79.4046 95.8797C79.4046 97.5131 79.2005 99.1465 80.3683 100.584C80.6623 107.003 80.6133 113.487 83.9862 119.318C85.0969 124.937 87.4162 129.641 93.133 131.944C94.1576 130.95 94.7675 129.605 94.8398 128.179C96.808 125.631 96.416 122.707 96.1873 119.808C96.3262 118.33 96.5058 116.836 95.2155 115.684L95.2155 115.676ZM112.202 95.112C110.855 91.2818 106.486 91.7555 103.987 89.3136C98.8415 84.3401 96.1955 84.9036 91.6793 90.7183C93.1166 92.0332 94.2681 93.7074 96.2608 94.3362L102.043 100.445L105.538 104.259C106.137 105.436 107.088 106.398 108.258 107.011C109.604 109.087 111.452 110.789 113.632 111.96C117.062 113.985 122.501 112.85 121.855 110.482C121.039 107.599 122.198 104.308 120.01 101.801C117.658 99.2853 116 95.9614 112.202 95.1447L112.202 95.112ZM41.1516 64.6827L40.7187 64.4623C40.9719 64.4623 41.2904 64.2743 41.4782 64.3723C42.0194 64.7204 42.6288 64.9487 43.2656 65.0417C43.9023 65.1346 44.5515 65.0902 45.1696 64.9114C46.3375 61.1138 46.7131 58.917 46.3456 58.0269L43.2831 56.4915C40.0576 54.5464 36.5627 53.0878 32.9113 52.1631C26.0753 50.4891 19.0924 49.4852 12.0616 49.1659C10.7383 49.0693 9.40869 49.2217 8.14155 49.6151C4.12351 50.9626 3.55184 53.9434 6.87571 56.5078C11.2316 59.9118 16.5223 61.9061 22.0414 62.2245C23.8462 63.3433 25.8062 63.0902 27.7581 62.886L41.1516 64.6827ZM106.028 75.2995L117.233 77.9782C118.5 78.3417 119.791 78.6146 121.096 78.7949C127.466 79.244 133.95 80.4282 139.79 76.5408C142.77 74.54 143.808 71.8368 140.884 69.2969C138.63 67.3287 136.098 65.2135 132.717 65.3034C128.887 65.2217 125.081 64.1274 121.227 64.993C114.971 64.2662 108.887 65.3932 102.084 66.6264C104.134 69.4684 98.0167 75.0464 106.045 75.275L106.028 75.2995Z" fill="#333333"/>
<path d="M53.5001 57.1856C56.8893 52.6531 60.9236 49.0188 66.6894 47.8755C72.8879 48.0797 79.2417 47.1568 84.9339 50.791C85.7506 51.3055 87.1798 50.791 88.3231 50.791C97.6904 57.7899 100.238 73.8295 92.4555 82.3066C89.736 83.2621 87.5554 85.0914 85.3912 86.8472C81.3079 90.1139 76.6528 91.8453 71.5078 91.0286C68.6193 90.6783 65.6953 90.7471 62.8265 91.2328C61.7567 91.1021 60.499 91.535 59.862 90.1875C51.4012 82.6496 47.326 73.7805 51.393 62.4205C51.8112 60.9955 52.1331 59.5439 52.3567 58.0758L52.2832 58.1738C52.6834 57.8144 53.0672 57.4959 53.5001 57.1856ZM76.318 59.0477L81.218 54.5314C79.2335 54.2619 77.8207 53.6331 76.3915 54.7683L76.3915 59.1211C74.9868 59.6765 73.3289 59.8397 72.3816 61.9223C76.0403 63.7843 75.7381 60.8443 76.2935 59.0477L76.318 59.0477ZM78.8415 73.952C76.8978 71.2488 77.1265 68.2352 74.1375 67.2797C73.2391 66.9939 72.0794 66.6591 71.5404 67.8106C71.0668 68.8232 71.4016 69.9339 72.6266 70.0482C75.0685 70.2606 75.4196 73.2333 78.817 73.952L78.8415 73.952ZM62.067 56.6058C63.5207 59.3172 65.0397 61.0239 68.1186 63.3514C66.428 59.7254 67.2284 56.0341 62.0425 56.6058L62.067 56.6058ZM58.4001 75.4628C59.3965 76.8103 58.7268 78.7295 60.4745 78.8928C62.2222 79.0561 63.341 77.8965 63.9699 76.2877C62.4835 74.7278 60.8501 75.2831 58.4001 75.4628Z" fill="url(#paint0_linear_80_5630)"/>
<path d="M132.717 65.2707C136.123 65.189 138.654 67.296 140.884 69.2642C143.808 71.8041 142.77 74.5073 139.789 76.5081C133.95 80.4363 127.466 79.2112 121.096 78.7621C119.79 78.5819 118.499 78.3089 117.233 77.9454C115.869 74.8665 110.487 73.5763 106.028 75.2668C98.0002 75.0381 104.15 69.4602 102.059 66.561C108.862 65.3523 114.946 64.2253 121.202 64.9276C122.925 66.8877 125.718 64.993 127.572 66.7815C130.063 69.1989 131.623 67.8759 132.717 65.2707Z" fill="url(#paint1_linear_80_5630)"/>
<path d="M28.493 25.7681C32.5764 26.0049 34.3812 30.3904 38.2931 30.9703C38.5953 34.433 42.4255 35.7233 42.8502 39.2187L46.9335 37.9365C49.3019 39.0553 50.3554 41.4564 51.9806 43.2775C53.6058 45.0987 56.4396 46.8382 53.6139 50.2928C50.9352 53.5595 48.6322 54.3761 45.0388 51.8118C41.8538 49.5006 38.3421 47.6305 34.9692 45.5724C36.5617 41.3829 33.0745 42.5997 31.2289 42.0689L31.3269 42.1587C31.188 40.9092 31.2697 39.4392 29.2443 40.1007C29.7833 37.6506 28.3623 37.2342 26.435 37.2995C24.8016 34.8495 22.8988 32.5465 23.1683 29.3451L25.847 32.2035C26.9413 30.0066 25.21 26.8542 28.493 25.7681Z" fill="url(#paint2_linear_80_5630)"/>
<path d="M43.2992 56.4997L46.3536 58.035C47.0151 62.1184 45.5369 64.5112 41.1677 64.6908L27.7742 62.886C27.0882 62.4042 28.8931 60.2236 26.884 61.0321C25.2507 61.6855 23.3478 60.6973 22.0575 62.2245C16.5384 61.9061 11.2477 59.9118 6.89181 56.5077C3.56794 53.9434 4.13962 50.9626 8.15766 49.615C9.4248 49.2217 10.7544 49.0693 12.0777 49.1658C19.1058 49.4846 26.0861 50.4885 32.9193 52.1631C33.5154 55.9361 36.284 55.2991 38.9545 54.7846C39.1668 56.2872 39.3465 57.5368 39.5588 58.9905L43.2992 56.4997ZM21.445 56.2383C17.5739 57.2591 15.0586 56.6793 12.3064 56.4833C16.9696 59.9787 18.0721 60.1011 21.445 56.2383Z" fill="url(#paint3_linear_80_5630)"/>
<path d="M23.6098 120.462C23.9365 113.757 28.273 109.363 32.5932 104.945L34.9534 105.696C35.0841 104.692 35.1984 103.875 35.3128 103.058L35.2148 103.181C35.9579 101.858 39.4288 103.001 38.1875 99.9143C40.7917 96.9785 43.7582 94.3853 47.0157 92.1967C49.5474 90.4572 51.3196 91.0942 53.1816 92.6132C55.354 94.3773 53.8921 96.2066 52.8386 97.8318C51.8668 99.3345 50.6663 100.698 49.5719 102.119C49.2545 102.11 48.9448 102.218 48.7022 102.423C48.4597 102.628 48.3011 102.916 48.2571 103.23L48.3714 103.116C45.5212 103.638 43.847 105.1 44.288 108.244L44.3615 108.097L43.4632 109.984C40.7437 113.855 36.5623 115.921 32.8464 118.559C30.1396 119.062 27.5951 120.214 25.431 121.916L23.3975 120.282L23.6098 120.462Z" fill="url(#paint4_linear_80_5630)"/>
<path d="M96.2607 94.3282C94.2681 93.6994 93.1165 92.0251 91.6792 90.7103C96.1954 84.8956 98.8414 84.3321 103.987 89.3056C106.51 91.7556 110.855 91.2738 112.194 95.104C111.916 96.4515 111.712 97.554 113.493 98.2727C115.735 99.3211 117.917 100.496 120.026 101.793C122.215 104.3 121.088 107.591 121.872 110.474C122.517 112.842 117.078 113.977 113.648 111.952C111.469 110.781 109.62 109.079 108.274 107.003C109.662 104.888 112.749 107.297 114.546 104.553C111.593 103.921 108.55 103.827 105.563 104.275L102.075 100.461C102.672 97.3581 100.115 94.4507 101.634 91.0697C100.05 92.752 98.4984 94.1812 96.2607 94.3282Z" fill="url(#paint5_linear_80_5630)"/>
<path d="M58.4892 43.6943C54.4875 34.8334 49.9795 26.1522 49.269 16.1806C49.0648 13.2977 49.857 10.7087 52.3233 9.3449C55.0837 7.82588 56.2842 10.5781 57.8522 12.1625C61.2823 15.6089 61.5273 20.1823 62.2296 24.5433C62.7033 27.4589 62.7033 30.4479 62.9238 33.3961C61.3639 36.8098 62.4174 40.8768 60.2532 44.1517L60.3921 44.1027L58.4892 43.6943Z" fill="url(#paint6_linear_80_5630)"/>
<path d="M94.8398 128.188C94.7675 129.613 94.1576 130.959 93.1329 131.953C87.4162 129.649 85.0968 124.945 83.9862 119.327C83.8555 113.504 79.4699 107.567 85.2928 101.964L80.3928 100.592C79.2249 99.1876 79.4536 97.5052 79.4291 95.8882C84.7865 93.0625 85.5052 93.4381 89.0087 101.18C88.094 102.699 89.1802 103.549 89.7682 104.88C91.2709 108.302 95.0031 111.413 91.9732 116.06L95.2399 115.684C96.5303 116.836 96.3506 118.33 96.2118 119.817C94.2273 122.357 91.4097 124.766 94.8398 128.188Z" fill="url(#paint7_linear_80_5630)"/>
<path d="M94.5623 33.7307L98.8662 28.1282C99.5604 27.9976 100.581 28.2916 100.369 26.9768L100.279 27.0339C105.122 27.1646 107.253 24.4614 107.678 19.9697C110.406 16.5151 113.877 15.429 118.638 16.4498C117.642 23.1547 113.248 27.4831 109.017 31.3623C104.289 35.6907 99.4869 39.97 94.7093 44.2658C92.2593 46.4789 89.5152 48.1205 86.7549 44.3801C87.8526 42.1823 89.3735 40.223 91.2303 38.6144C92.7983 38.7288 94.4316 39.6107 95.9261 38.1816C96.07 37.3847 96.0213 36.5649 95.7841 35.7907C95.5468 35.0164 95.1279 34.3102 94.5623 33.7307Z" fill="url(#paint8_linear_80_5630)"/>
<path d="M76.8893 18.238C78.3267 14.2526 79.8048 10.2836 82.3039 6.80453C83.1859 5.56319 84.4354 4.35455 85.9707 4.70572C87.7429 5.12223 88.2656 6.7964 88.4208 8.57675C88.9026 15.8288 86.8772 22.5746 84.2639 29.1978C82.0507 29.3611 79.7722 28.6506 77.5345 29.5653C77.5345 32.9136 79.7477 33.7222 82.3365 34.1142C80.9808 38.1159 81.0625 43.653 74.1698 41.6848C73.5573 38.0098 76.481 34.3347 74.0718 30.6352C74.2923 28.8793 74.5209 27.1153 74.7414 25.3513C78.8167 24.3713 79.4373 22.207 76.8893 18.238Z" fill="url(#paint9_linear_80_5630)"/>
<path d="M126.551 49.8112C123.432 50.8239 120.32 51.8692 117.004 52.0571L113.117 49.8194C112.48 50.9954 111.908 52.0815 111.329 53.1596L111.443 53.037C109.932 54.3519 107.123 51.959 106.183 54.8909C105.444 55.2766 104.651 55.5518 103.831 55.7076C101.798 55.7648 99.2009 58.3944 97.8534 54.8909C96.5549 51.5507 99.9278 51.4283 101.586 50.1706C103.586 51.7304 108.054 49.2314 109.752 45.6053C117.519 41.3504 125.972 40.1826 134.653 40.1091C136.343 40.1091 138.655 39.1618 139.3 41.6935C139.945 44.2252 137.92 45.197 136.09 46.1035C135.336 46.4268 134.561 46.6996 133.771 46.9201L129.647 45.148L126.551 49.8112Z" fill="url(#paint10_linear_80_5630)"/>
<path d="M32.6252 76.8023C36.3121 75.4142 40.1789 74.5615 44.1077 74.2705C46.2473 80.4854 45.7818 81.2695 39.5179 81.7187C38.9114 81.7053 38.3182 81.8981 37.8356 82.2658C30.9755 87.6722 22.3188 88.8564 14.5032 91.9026C13.6335 92.2614 12.6867 92.3927 11.7522 92.2841C10.8177 92.1755 9.92633 91.8306 9.16211 91.2819C10.9751 88.4481 12.5105 85.4917 15.6955 83.8502C18.0149 82.8048 20.8487 82.6415 22.2861 80.0526L22.1717 80.1343C25.6426 78.9174 29.8158 80.0608 32.6252 76.8023Z" fill="url(#paint11_linear_80_5630)"/>
<path d="M61.5113 131.029C61.2182 131.736 60.7838 132.376 60.2347 132.91C59.6857 133.444 59.0335 133.86 58.3181 134.133C58.3181 131.527 54.5859 129.633 56.8808 126.586C55.8518 122.609 57.1421 118.681 58.4651 115.276C60.711 109.559 61.054 103.091 64.7127 97.5781C65.5294 97.962 66.8769 98.3948 66.8442 98.6235C66.0275 105.769 66.934 113.013 65.611 120.127C64.2962 121.205 64.4268 122.756 64.288 124.21L64.3697 124.071C63.3652 126.382 60.3516 127.811 61.5113 131.029Z" fill="url(#paint12_linear_80_5630)"/>
<defs>
<linearGradient id="paint0_linear_80_5630" x1="49.7924" y1="69.55" x2="97.037" y2="69.55" gradientUnits="userSpaceOnUse">
<stop stop-color="#E3B724"/>
<stop offset="1" stop-color="#FFC961"/>
</linearGradient>
<linearGradient id="paint1_linear_80_5630" x1="101.773" y1="72.0164" x2="142.64" y2="72.0164" gradientUnits="userSpaceOnUse">
<stop stop-color="#D75432"/>
<stop offset="1" stop-color="#FF806C"/>
</linearGradient>
<linearGradient id="paint2_linear_80_5630" x1="23.1356" y1="39.5535" x2="54.8144" y2="39.5535" gradientUnits="userSpaceOnUse">
<stop stop-color="#D75432"/>
<stop offset="1" stop-color="#FF806C"/>
</linearGradient>
<linearGradient id="paint3_linear_80_5630" x1="4.72762" y1="56.9243" x2="46.5006" y2="56.9243" gradientUnits="userSpaceOnUse">
<stop stop-color="#D75432"/>
<stop offset="1" stop-color="#FF806C"/>
</linearGradient>
<linearGradient id="paint4_linear_80_5630" x1="23.3975" y1="106.513" x2="54.3086" y2="106.513" gradientUnits="userSpaceOnUse">
<stop stop-color="#D75432"/>
<stop offset="1" stop-color="#FF806C"/>
</linearGradient>
<linearGradient id="paint5_linear_80_5630" x1="91.6792" y1="99.4814" x2="121.913" y2="99.4814" gradientUnits="userSpaceOnUse">
<stop stop-color="#D75432"/>
<stop offset="1" stop-color="#FF806C"/>
</linearGradient>
<linearGradient id="paint6_linear_80_5630" x1="49.2363" y1="26.5033" x2="62.9238" y2="26.5033" gradientUnits="userSpaceOnUse">
<stop stop-color="#D75432"/>
<stop offset="1" stop-color="#FF806C"/>
</linearGradient>
<linearGradient id="paint7_linear_80_5630" x1="79.3964" y1="113.112" x2="96.2853" y2="113.112" gradientUnits="userSpaceOnUse">
<stop stop-color="#D75432"/>
<stop offset="1" stop-color="#FF806C"/>
</linearGradient>
<linearGradient id="paint8_linear_80_5630" x1="86.7549" y1="31.346" x2="118.638" y2="31.346" gradientUnits="userSpaceOnUse">
<stop stop-color="#D75432"/>
<stop offset="1" stop-color="#FF806C"/>
</linearGradient>
<linearGradient id="paint9_linear_80_5630" x1="74.0391" y1="23.3586" x2="88.4534" y2="23.3586" gradientUnits="userSpaceOnUse">
<stop stop-color="#D75432"/>
<stop offset="1" stop-color="#FF806C"/>
</linearGradient>
<linearGradient id="paint10_linear_80_5630" x1="97.5512" y1="48.3085" x2="139.373" y2="48.3085" gradientUnits="userSpaceOnUse">
<stop stop-color="#D75432"/>
<stop offset="1" stop-color="#FF806C"/>
</linearGradient>
<linearGradient id="paint11_linear_80_5630" x1="9.16211" y1="83.2948" x2="45.2592" y2="83.2948" gradientUnits="userSpaceOnUse">
<stop stop-color="#D75432"/>
<stop offset="1" stop-color="#FF806C"/>
</linearGradient>
<linearGradient id="paint12_linear_80_5630" x1="56.1294" y1="115.855" x2="66.8442" y2="115.855" gradientUnits="userSpaceOnUse">
<stop stop-color="#D75432"/>
<stop offset="1" stop-color="#FF806C"/>
</linearGradient>
</defs>
</svg>
