<svg width="97" height="97" viewBox="0 0 97 97" fill="none" xmlns="http://www.w3.org/2000/svg">
<g clip-path="url(#clip0_80_6023)">
<path d="M0 51.7141V45.2601C0.148852 44.074 0.272041 42.888 0.446557 41.7071C1.81702 32.3316 5.45619 23.9367 11.7388 16.8461C23.3389 3.78917 37.9418 -1.66875 55.2445 0.415839C64.4794 1.50238 73.1484 5.43359 80.0514 11.6654C93.91 23.9881 99.2892 39.4428 96.1223 57.6495C94.0178 69.7309 87.6993 79.476 78.0188 86.998C71.8883 91.7928 64.6521 94.9707 56.9743 96.24C55.2394 96.5327 53.4942 96.7535 51.7542 96.9897H45.2869C45.0148 96.928 44.7736 96.8459 44.4707 96.81C42.7564 96.5841 41.0163 96.466 39.3379 96.1271C27.7474 93.948 17.3692 87.5651 10.1938 78.2027C5.29217 72.0286 2.04204 64.7082 0.749395 56.9307C0.456824 55.1952 0.246375 53.4444 0 51.7141ZM48.5154 91.3264C72.0802 91.3264 91.3744 72.0054 91.3385 48.464C91.2979 37.1245 86.7771 26.261 78.7619 18.2423C70.7467 10.2235 59.8872 5.70003 48.5513 5.65809C25.0225 5.60161 5.7077 24.8969 5.68203 48.4743C5.65637 72.0517 24.9558 91.3212 48.5154 91.3161V91.3264Z" fill="#14A594"/>
<path d="M36.525 48.4742C36.525 42.0664 36.525 35.6604 36.525 29.256C36.525 27.3409 37.608 26.1189 39.2762 26.0829C40.0091 26.053 40.7248 26.3096 41.2718 26.7983C41.8189 27.2871 42.1543 27.9697 42.207 28.7015C42.207 28.9223 42.207 29.143 42.207 29.3638V67.6309C42.207 69.5922 41.1291 70.8502 39.4302 70.8964C39.0589 70.9195 38.6868 70.8664 38.3367 70.7405C37.9867 70.6146 37.666 70.4184 37.3944 70.1641C37.1229 69.9097 36.9061 69.6026 36.7575 69.2614C36.6089 68.9203 36.5315 68.5524 36.5301 68.1803C36.4788 66.0392 36.5045 63.8879 36.5045 61.7417L36.525 48.4742Z" fill="#14A594"/>
<path d="M60.4799 48.4949C60.4799 54.9027 60.4799 61.3054 60.4799 67.7132C60.4799 69.6283 59.3969 70.8452 57.7287 70.8811C56.9953 70.9097 56.2796 70.6519 55.7327 70.1623C55.1858 69.6727 54.8506 68.9897 54.7979 68.2574C54.7979 68.0366 54.7979 67.8159 54.7979 67.5951V29.3434C54.7979 27.3821 55.8809 26.1241 57.5798 26.0831C57.9507 26.0607 58.3222 26.1143 58.6717 26.2405C59.0212 26.3668 59.3412 26.5631 59.6122 26.8173C59.8832 27.0716 60.0995 27.3785 60.2478 27.7193C60.3961 28.06 60.4733 28.4275 60.4747 28.7992C60.5261 31.007 60.4747 33.22 60.4747 35.4278C60.485 39.7818 60.4867 44.1375 60.4799 48.4949Z" fill="#14A594"/>
</g>
<defs>
<clipPath id="clip0_80_6023">
<rect width="97" height="97" fill="white"/>
</clipPath>
</defs>
</svg>
