<svg width="280" height="199" viewBox="0 0 280 199" fill="none" xmlns="http://www.w3.org/2000/svg">
<g clip-path="url(#clip0_80_5675)">
<path d="M280 118.532C280 113.705 278.73 111.254 277.495 108.881C276.26 106.509 275.096 104.267 275.096 99.6546C275.009 96.54 275.538 93.4283 276.676 90.3563C277.843 87.1904 278.388 83.984 278.303 80.7747C278.303 75.9482 277.015 73.4938 275.775 71.1216C274.534 68.7494 273.351 66.5095 273.351 61.8974C273.351 57.2854 274.522 55.0402 275.693 52.668C276.863 50.2958 278.162 47.8441 278.162 43.0202C278.241 39.8179 277.746 36.618 276.682 33.4519C275.658 30.3703 275.19 27.2562 275.283 24.1403C275.23 21.0185 275.577 17.8979 276.325 14.7944C277.089 11.6293 277.445 8.44684 277.39 5.26308C277.422 4.95913 277.315 4.65545 277.075 4.37112C276.836 4.0868 276.468 3.828 275.997 3.61099C274.241 2.85114 271.566 2.88556 268.974 2.91998C268.441 2.91998 267.903 2.91998 267.364 2.91998C256.899 2.91998 251.813 2.39046 246.429 1.86094C241.044 1.33143 235.519 0.754256 224.598 0.754256C217.348 0.718012 210.104 0.958024 202.943 1.47175C195.977 1.97595 188.928 2.20979 181.873 2.17071C171.409 2.17071 166.323 1.64119 160.938 1.11168C155.554 0.582163 150.023 -0.000303932 139.108 -0.000303932C131.86 -0.0361689 124.617 0.195823 117.453 0.69336C110.483 1.18251 103.435 1.40922 96.3828 1.37114C85.725 1.37114 80.3053 1.29436 75.0671 1.22288C69.8289 1.15139 64.3391 1.07461 53.6228 1.07461C42.9065 1.07461 37.5453 0.995185 32.3013 0.921052C27.0573 0.84692 21.5791 0.767494 10.8569 0.767494C6.37958 0.767494 3.36547 2.57314 3.36547 5.26838C3.36547 9.98901 3.36547 12.348 3.36547 14.707C3.36547 17.066 3.36547 19.4276 3.36547 24.1483C3.4308 27.2675 3.01818 30.3849 2.13056 33.4783C1.22293 36.6446 0.800509 39.8355 0.86635 43.0282C0.86635 47.77 1.12386 50.1766 1.36968 52.5118C1.61549 54.8469 1.873 57.2086 1.873 61.908C1.873 66.6075 1.6506 68.9956 1.43405 71.3069C1.2175 73.6183 0.989234 76.0461 0.989234 80.7853C0.875711 84.0274 1.6483 87.2634 3.28939 90.4198C4.45993 92.8026 5.50173 95.0425 5.50173 99.6625C5.50173 104.283 4.21998 106.501 2.86801 108.871C1.51603 111.24 0.0996094 113.705 0.0996094 118.542C0.0996094 123.274 0.240129 125.691 0.374742 128.008C0.509354 130.324 0.649802 132.715 0.649802 137.422C0.558761 140.638 1.15661 143.851 2.43491 147.014C3.67462 150.077 4.25088 153.187 4.15558 156.3C4.15558 161.049 4.51256 163.464 4.85202 165.799C5.19147 168.134 5.53681 170.488 5.53681 175.177C5.53681 179.799 4.47748 182.045 3.35961 184.425C2.24175 186.805 1.08876 189.238 1.08876 194.057C1.08876 196.439 6.13382 198.028 10.8394 198.028C21.5557 198.028 27.0046 197.962 32.2779 197.901C37.5512 197.84 42.9416 197.776 53.6052 197.776C60.6712 197.743 67.7332 197.944 74.7336 198.38C81.9089 198.825 89.1466 199.032 96.3887 199C103.637 199.036 110.88 198.803 118.044 198.303C125.014 197.817 132.061 197.591 139.114 197.628C146.358 197.662 153.598 197.443 160.769 196.974C167.758 196.515 174.817 196.302 181.879 196.339C192.356 196.339 197.448 196.826 202.838 197.342C208.228 197.859 213.736 198.401 224.645 198.401C235.408 198.401 240.886 198.216 246.177 198.039C251.468 197.861 256.794 197.684 267.405 197.684C268.611 197.684 270.331 197.618 271.578 197.059C272.977 196.418 272.959 195.523 272.942 194.488C272.942 194.351 272.942 194.223 272.942 194.062C272.846 190.948 273.434 187.838 274.698 184.777C275.995 181.613 276.603 178.399 276.512 175.182C276.579 171.987 276.145 168.794 275.213 165.627C274.299 162.536 273.877 159.42 273.948 156.302C273.948 151.579 273.908 149.178 273.872 146.856C273.837 144.534 273.79 142.138 273.79 137.422C273.79 132.839 275.277 130.61 276.851 128.251C278.426 125.892 280 123.39 280 118.532Z" fill="white"/>
<g clip-path="url(#clip1_80_5675)">
<path d="M87.9841 57.4258C86.3915 56.8803 86.0069 56.4156 86.044 54.8027C86.1216 51.4354 85.7943 48.0681 86.2464 44.7413C86.9685 39.3941 91.861 35.0234 97.2697 35.0166C125.333 34.9964 153.396 34.9964 181.457 35.0166C187.645 35.0166 192.68 40.1214 192.987 46.5428C193.004 46.8795 192.987 47.2162 192.987 47.553C192.987 82.5276 192.987 117.502 192.987 152.477C192.987 157.952 189.987 162.151 185.101 163.609C184.632 163.751 184.089 163.626 183.688 164.007H95.0698C94.2566 163.714 93.4131 163.485 92.6337 163.118C88.3958 161.131 86.2228 157.747 86.0406 153.11C85.9495 150.753 86.0204 148.396 86.0204 146.059C86.0204 118.656 86.0204 91.2545 86.0204 63.8539C86.0204 61.9716 86.2903 61.5776 87.9706 60.9749C89.1549 60.9075 89.7252 61.2847 90.12 62.4127C90.4574 63.3825 90.4202 64.396 90.4202 65.4028V141.705C90.4202 143.783 90.4202 143.789 92.3401 142.88C93.7547 142.22 95.3034 141.895 96.8648 141.931C106.032 142.042 115.2 141.974 124.367 141.978C142.83 141.991 161.294 141.991 179.757 141.978C180.472 141.978 181.191 142.042 181.882 141.793C186.097 140.954 188.111 138.792 188.675 134.519C188.79 133.645 188.846 132.764 188.843 131.883C188.843 104.22 188.843 76.5563 188.843 48.8931C188.844 47.8823 188.77 46.8729 188.624 45.8727C188.391 44.0878 187.537 42.4415 186.211 41.2215C184.885 40.0016 183.171 39.2856 181.37 39.1988C180.739 39.1617 180.108 39.1786 179.477 39.1786H101.616C100.86 39.1786 100.101 39.2055 99.3482 39.155C97.2596 39.0843 95.2351 39.2358 93.4536 40.5322C91.4864 41.9633 90.3932 43.8321 90.3865 46.2869C90.3865 48.8056 90.3865 51.3378 90.3865 53.843C90.4392 54.6458 90.3148 55.4504 90.0221 56.2001C89.6341 57.0352 89.0807 57.6952 87.9841 57.4258Z" fill="#010101"/>
<path d="M181.96 142.126C181.491 142.389 180.975 142.288 180.479 142.288C153.128 142.288 125.779 142.277 98.4303 142.254C95.3936 142.254 92.5964 142.709 89.9275 144.827V143.11C89.9275 116.782 89.9275 90.4545 89.9275 64.127C89.9275 61.9349 89.7251 61.6116 87.9941 60.9719C87.9941 59.79 87.9941 58.6148 87.9941 57.4261C89.6508 56.8133 89.9208 56.4463 89.9343 54.6549C89.9343 52.2675 90.0422 49.8734 89.914 47.4927C89.6069 41.7313 94.0912 38.2327 99.1422 38.8254C99.699 39.4719 99.5336 40.2598 99.5336 40.9972C99.5471 50.7825 99.5471 60.5667 99.5336 70.3497C99.5336 93.3616 99.5336 116.371 99.5336 139.379C99.5336 141.668 99.5336 141.668 101.798 141.668C127.718 141.668 153.639 141.668 179.561 141.668C180.374 141.685 181.261 141.45 181.96 142.126Z" fill="#66B49D"/>
<path d="M181.96 142.126C181.417 142.126 180.87 142.089 180.323 142.089H100.795C99.1286 142.089 99.1084 142.089 99.1084 140.486C99.1084 106.589 99.1084 72.702 99.1084 38.8251C99.4863 38.8251 99.8642 38.7847 100.242 38.7847H180.661C184.744 38.8015 187.78 41.0239 188.843 44.7515C189.086 45.73 189.19 46.7376 189.153 47.745C189.153 76.2545 189.153 104.764 189.153 133.274C189.153 137.789 187.099 140.803 183.323 141.944C182.879 142.066 182.42 142.128 181.96 142.126Z" fill="#7EC78F"/>
<path d="M188.755 143.254C188.461 144.579 187.767 145.781 186.766 146.699C185.765 147.617 184.505 148.206 183.158 148.386C182.446 148.451 181.73 148.479 181.015 148.47C153.626 148.47 126.24 148.47 98.8555 148.47C96.9693 148.47 95.2486 148.77 94.071 150.43C93.5694 151.084 93.26 151.864 93.1771 152.684C93.0943 153.503 93.2414 154.329 93.602 155.07C93.9245 155.85 94.467 156.52 95.1636 156.998C95.8601 157.476 96.6809 157.742 97.5261 157.764C97.9884 157.791 98.4506 157.784 98.9129 157.784C125.544 157.784 152.173 157.784 178.802 157.784C182.119 157.784 185.456 158.003 188.435 155.764C187.78 158.215 185.196 160.081 182.513 160.215C182.216 160.232 181.923 160.215 181.629 160.215C153.568 160.215 125.508 160.215 97.4485 160.215C93.2241 160.215 90.2684 157.585 89.9074 153.531C89.5699 149.847 92.691 146.271 96.3924 146.103C97.02 146.073 97.6543 146.08 98.2853 146.08C125.375 146.08 152.467 146.085 179.561 146.096C182.895 146.11 185.975 145.521 188.755 143.254Z" fill="#F8F6F9"/>
<path d="M187.682 150.908C186.647 152.727 185.051 153.656 183.057 153.939C182.429 154.001 181.798 154.022 181.167 154.003H98.2751C97.6542 154.003 97.0199 153.972 97.0334 153.137C97.0334 152.4 97.634 152.319 98.2042 152.292C98.5821 152.275 98.96 152.292 99.3379 152.292C126.252 152.292 153.167 152.292 180.084 152.292C182.695 152.279 185.28 152.258 187.682 150.908Z" fill="#F4F2F4"/>
<path d="M105.182 90.5464V59.6955C105.182 57.6751 105.711 57.1027 107.753 56.9646C110.186 56.8322 112.485 55.8082 114.208 54.0888C115.932 52.3695 116.959 50.0757 117.092 47.6474C117.237 45.6001 117.787 45.0815 119.825 45.0815H168.281C170.211 45.0815 170.704 45.5462 170.855 47.4824C171.267 52.7488 175.12 56.5942 180.357 56.9848C182.277 57.1229 182.884 57.7526 182.884 59.6786C182.884 80.2504 182.884 100.819 182.884 121.384C182.884 123.307 182.408 123.825 180.522 124.041C174.715 124.697 171.314 128.216 170.839 134.062C170.737 135.297 170.086 135.944 168.838 136.031C168.669 136.031 168.5 136.031 168.332 136.031H119.744C117.929 136.031 117.281 135.452 117.109 133.721C116.556 128.068 113.202 124.674 107.55 124.041C105.587 123.822 105.188 123.367 105.188 121.417L105.182 90.5464Z" fill="#010101"/>
<path d="M145.56 120.148C146.7 118.801 146.714 118.06 145.492 116.781C144.446 115.69 143.313 114.683 142.243 113.615C141.173 112.548 140.32 111.41 139.905 109.948C139.756 109.43 139.783 109.134 140.37 109.07C140.413 109.07 140.455 109.063 140.495 109.049C142.611 108.086 144.149 108.463 145.931 110.241C151.299 115.592 159.427 115.501 164.961 110.305C166.921 108.467 168.787 106.527 170.697 104.625C172.219 103.103 172.225 102.345 170.721 100.843C166.439 96.5669 162.177 92.2703 157.845 88.0477C157.089 87.3103 157.109 86.8187 157.572 85.96C161.141 79.3366 164.657 72.6863 168.193 66.0427L168.531 65.3692C169.003 64.4836 169.118 63.6081 168.342 62.8303C167.566 62.0524 166.739 62.1568 165.821 62.6451C161.283 65.0729 156.711 67.467 152.18 69.8746C149.818 71.1272 147.422 72.3428 145.094 73.656C144.295 74.1073 143.829 74.0534 143.178 73.39C139.733 69.8847 136.234 66.4299 132.748 62.9515C132.464 62.642 132.153 62.3591 131.817 62.1063C130.585 61.2679 129.064 61.8942 128.895 63.3758C128.679 65.2918 128.517 67.2212 128.483 69.1473C128.463 70.1069 128.065 70.3797 127.235 70.639C120.952 72.6021 115.426 75.7606 111.11 80.8452C110.412 81.6735 109.794 82.5658 109.129 83.4413C108.812 83.2426 108.978 82.9194 108.978 82.6668C108.978 75.6966 108.978 68.7264 108.947 61.7595C108.947 60.921 109.207 60.6416 109.986 60.4564C115.699 59.0825 119.245 55.5065 120.628 49.8124C120.794 49.139 121.01 48.8022 121.833 48.8022C136.598 48.8359 151.363 48.8359 166.128 48.8022C166.962 48.8022 167.174 49.0245 167.384 49.8461C168.797 55.4391 172.29 59.0488 177.958 60.4261C178.761 60.618 179.095 60.8638 179.095 61.7999C179.059 80.9013 179.059 100.003 179.095 119.104C179.095 119.919 178.964 120.299 178.046 120.522C172.246 121.936 168.669 125.613 167.343 131.415C167.185 132.088 166.901 132.179 166.331 132.179C161.27 132.179 156.236 132.156 151.188 132.179C150.412 132.179 150.287 131.893 150.327 131.216C150.447 129.247 150.309 127.27 149.916 125.337C149.578 123.63 149.106 123.256 147.352 123.337C146.562 122.411 146.204 121.198 145.56 120.148Z" fill="#B3E3F7"/>
<path d="M132.445 67.979C135.431 70.986 138.228 73.8178 141.042 76.6295C149.484 85.0611 157.933 93.4793 166.388 101.884C167.003 102.493 167.205 102.854 166.446 103.537C165.096 104.739 163.878 106.076 162.586 107.339C158.419 111.41 152.423 111.41 148.269 107.339C147.578 106.666 146.849 106.019 146.228 105.285C145.32 104.218 144.298 104.009 142.969 104.409C140.898 105.07 138.79 105.609 136.656 106.022C134.434 106.442 132.135 106.136 130.101 105.151C128.066 104.165 126.404 102.552 125.359 100.551C124.297 98.5577 123.896 96.2802 124.212 94.0453C124.529 91.8104 125.547 89.7331 127.12 88.1119C128.244 86.9199 129.422 85.7784 130.599 84.6369C130.869 84.3784 131.085 84.0686 131.233 83.7257C131.382 83.3827 131.46 83.0136 131.463 82.6401C131.692 78.2424 131.972 73.8481 132.242 69.4505C132.273 69.0532 132.35 68.6558 132.445 67.979Z" fill="#F8F6F9"/>
<path d="M145.56 120.148C146.674 120.943 146.954 122.195 147.345 123.387C146.181 123.97 145.928 124.899 146.181 126.122C146.516 127.812 146.629 129.538 146.518 131.257C146.485 131.886 146.363 132.23 145.59 132.23C137.594 132.203 129.598 132.203 121.604 132.23C121.017 132.23 120.808 132.051 120.703 131.499C120.229 128.885 118.98 126.473 117.116 124.576C116.708 124.162 116.846 123.903 117.133 123.525C120.936 118.566 122.704 112.821 123.615 106.746C123.686 106.268 123.794 105.797 123.915 105.177C126.56 107.955 129.651 109.726 133.342 109.891C135.32 109.989 136.342 110.518 136.835 112.504C137.192 113.952 138.336 115.097 139.419 116.165C140.502 117.232 141.67 118.316 142.739 119.441C143.579 120.31 144.436 120.67 145.56 120.148Z" fill="#DFE9EE"/>
<path d="M128.17 74.4341C127.998 76.9494 127.833 79.3301 127.687 81.7141C127.657 82.2529 127.323 82.5324 127.013 82.8556C125.872 84.0274 124.634 85.1252 123.595 86.3811C120.943 89.5834 120.251 93.3144 120.355 97.4258C120.558 105.625 119.293 113.538 114.619 120.579C113.995 121.519 113.408 121.966 112.318 121.253C111.836 120.998 111.319 120.816 110.783 120.714C108.985 120.202 108.985 120.209 108.985 118.289C108.985 111.912 109.116 105.531 108.958 99.1566C108.654 86.957 115.328 79.7476 124.857 75.5857C125.908 75.0646 127.021 74.6777 128.17 74.4341Z" fill="#DB4B55"/>
<path d="M146.761 77.0473L162.059 68.9658L162.221 69.151L155.331 82.1453C154.164 84.3408 154.164 84.334 152.379 82.5763C150.594 80.8186 148.732 78.9834 146.761 77.0473Z" fill="white"/>
<path d="M176.122 84.5728C176.106 85.8187 175.299 86.5595 174.044 86.637C171.932 86.7649 171.932 86.7649 171.824 88.8358C171.76 90.0884 171.014 90.91 169.931 90.9269C168.848 90.9437 168.062 90.0749 168.031 88.7516C167.984 86.7312 167.984 86.7312 165.845 86.6403C164.833 86.5999 164.023 86.2127 163.773 85.1688C163.639 84.7406 163.674 84.2777 163.869 83.8738C164.065 83.4699 164.407 83.1552 164.826 82.9936C165.531 82.677 166.324 82.8218 167.066 82.8656C167.809 82.9094 168.129 82.6568 168.041 81.879C167.998 81.3782 167.998 80.8746 168.041 80.3738C168.102 79.2694 168.817 78.569 169.863 78.5488C170.35 78.5299 170.825 78.7001 171.189 79.0234C171.553 79.3468 171.777 79.7982 171.814 80.2829C171.918 81.1045 171.443 82.2191 172.023 82.6737C172.603 83.1283 173.622 82.7848 174.446 82.8723C174.886 82.8986 175.302 83.0869 175.611 83.401C175.921 83.7151 176.103 84.1326 176.122 84.5728Z" fill="#010202"/>
<path d="M146.748 53.153C147.473 53.2204 148.067 53.7322 148.323 54.6279C148.361 54.8344 148.374 55.0447 148.36 55.2542C148.421 57.3789 148.421 57.3789 150.483 57.4328C151.832 57.4665 152.656 58.1702 152.662 59.3286C152.669 60.4869 151.869 61.1873 150.496 61.2143H150.368C148.387 61.2143 148.387 61.2142 148.36 63.2582C148.344 64.7297 147.652 65.5345 146.43 65.5075C145.273 65.4839 144.598 64.6792 144.571 63.2952C144.531 61.2446 144.531 61.2446 142.479 61.2143C141.109 61.1907 140.286 60.497 140.276 59.3555C140.266 58.214 141.093 57.4732 142.435 57.4328H142.56C144.534 57.4025 144.534 57.4025 144.585 55.4124C144.591 53.9713 145.337 53.116 146.748 53.153Z" fill="#010101"/>
<path d="M142.736 91.7084C140.914 91.7027 139.165 90.9945 137.854 89.7318C137.024 88.9337 136.929 87.8124 137.59 87.038C138.252 86.2635 139.335 86.1658 140.29 86.846C142.348 88.3007 143.188 88.3007 145.243 86.846C146.198 86.1726 147.237 86.2601 147.942 87.0885C148.647 87.9168 148.546 88.8933 147.74 89.6846C146.402 90.9875 144.605 91.7142 142.736 91.7084Z" fill="#020202"/>
</g>
</g>
<defs>
<clipPath id="clip0_80_5675">
<rect width="280" height="199" fill="white"/>
</clipPath>
<clipPath id="clip1_80_5675">
<rect width="107" height="129" fill="white" transform="translate(86 35)"/>
</clipPath>
</defs>
</svg>
