<svg width="107" height="129" viewBox="0 0 107 129" fill="none" xmlns="http://www.w3.org/2000/svg">
<g clip-path="url(#clip0_80_5677)">
<path d="M1.98413 22.4258C0.391543 21.8803 0.00689324 21.4156 0.0440085 19.8027C0.121613 16.4354 -0.205684 13.0681 0.246447 9.74128C0.968508 4.39406 5.86099 0.0233521 11.2697 0.0166175C39.3334 -0.00358606 67.3959 -0.00358606 95.4573 0.0166175C101.645 0.0166175 106.68 5.12139 106.987 11.5428C107.004 11.8795 106.987 12.2162 106.987 12.553C106.987 47.5276 106.987 82.5023 106.987 117.477C106.987 122.952 103.987 127.151 99.1013 128.609C98.6323 128.751 98.0891 128.626 97.6876 129.006H9.06977C8.25661 128.714 7.41309 128.485 6.63367 128.118C2.39578 126.131 0.222833 122.747 0.0406311 118.11C-0.05047 115.753 0.0204078 113.396 0.0204078 111.059C0.0204078 83.6562 0.0204078 56.2545 0.0204078 28.8539C0.0204078 26.9716 0.290306 26.5776 1.97062 25.9749C3.15493 25.9075 3.7252 26.2847 4.11997 27.4127C4.45738 28.3825 4.42023 29.396 4.42023 30.4028V106.705C4.42023 108.783 4.42025 108.789 6.34012 107.88C7.75475 107.22 9.30339 106.895 10.8648 106.931C20.0323 107.042 29.1998 106.974 38.3673 106.978C56.8304 106.991 75.2936 106.991 93.7567 106.978C94.472 106.978 95.1907 107.042 95.8824 106.793C100.097 105.954 102.111 103.792 102.675 99.5194C102.79 98.6452 102.846 97.7644 102.843 96.8828C102.843 69.2196 102.843 41.5563 102.843 13.8931C102.844 12.8823 102.77 11.8729 102.624 10.8727C102.391 9.08785 101.537 7.44151 100.211 6.22153C98.8846 5.00155 97.171 4.28557 95.3696 4.19876C94.7386 4.16172 94.1077 4.17856 93.4767 4.17856H15.6156C14.8598 4.17856 14.1006 4.2055 13.3482 4.15499C11.2596 4.08428 9.23509 4.2358 7.45356 5.5322C5.48645 6.96329 4.39324 8.83212 4.3865 11.2869C4.3865 13.8056 4.3865 16.3378 4.3865 18.843C4.43917 19.6458 4.3148 20.4504 4.02211 21.2001C3.63408 22.0352 3.08071 22.6952 1.98413 22.4258Z" fill="#010101"/>
<path d="M95.9599 107.126C95.4909 107.389 94.9747 107.288 94.4787 107.288C67.1281 107.288 39.7786 107.277 12.4303 107.254C9.39356 107.254 6.59643 107.709 3.9275 109.827V108.11C3.9275 81.7821 3.9275 55.4545 3.9275 29.127C3.9275 26.9349 3.72506 26.6116 1.99414 25.9719C1.99414 24.79 1.99414 23.6148 1.99414 22.4261C3.65083 21.8133 3.92076 21.4463 3.93426 19.6549C3.93426 17.2675 4.04221 14.8734 3.91399 12.4927C3.60695 6.7313 8.09118 3.23271 13.1422 3.82535C13.699 4.47187 13.5336 5.25981 13.5336 5.99724C13.5471 15.7825 13.5471 25.5667 13.5336 35.3497C13.5336 58.3616 13.5336 81.3713 13.5336 104.379C13.5336 106.668 13.5336 106.668 15.7977 106.668C41.7176 106.668 67.6387 106.668 93.5609 106.668C94.3741 106.685 95.2615 106.45 95.9599 107.126Z" fill="#66B49D"/>
<path d="M95.9599 107.126C95.4166 107.126 94.87 107.089 94.3234 107.089H14.7955C13.1286 107.089 13.1084 107.089 13.1084 105.486C13.1084 71.5891 13.1084 37.702 13.1084 3.82508C13.4863 3.82508 13.8642 3.78467 14.2421 3.78467H94.6608C98.7435 3.8015 101.78 6.0239 102.843 9.75147C103.086 10.73 103.19 11.7376 103.153 12.745C103.153 41.2545 103.153 69.764 103.153 98.2735C103.153 102.789 101.099 105.803 97.323 106.944C96.879 107.066 96.4204 107.128 95.9599 107.126Z" fill="#7EC78F"/>
<path d="M102.755 108.254C102.461 109.579 101.767 110.781 100.766 111.699C99.7645 112.617 98.5052 113.206 97.1578 113.386C96.4456 113.451 95.7304 113.479 95.0152 113.47C67.6264 113.47 40.2398 113.47 12.8555 113.47C10.9693 113.47 9.24857 113.77 8.07101 115.43C7.56944 116.084 7.25997 116.864 7.17715 117.684C7.09432 118.503 7.24141 119.329 7.602 120.07C7.92449 120.85 8.46697 121.52 9.16356 121.998C9.86015 122.476 10.6809 122.742 11.5261 122.764C11.9884 122.791 12.4506 122.784 12.9129 122.784C39.5436 122.784 66.1733 122.784 92.8018 122.784C96.1186 122.784 99.4556 123.003 102.435 120.764C101.78 123.215 99.1958 125.081 96.5134 125.215C96.2164 125.232 95.9229 125.215 95.6293 125.215C67.5679 125.215 39.5077 125.215 11.4485 125.215C7.22411 125.215 4.26839 122.585 3.90736 118.531C3.56995 114.847 6.69099 111.271 10.3924 111.103C11.02 111.073 11.6543 111.08 12.2853 111.08C39.3749 111.08 66.4668 111.085 93.561 111.096C96.8946 111.11 99.9752 110.521 102.755 108.254Z" fill="#F8F6F9"/>
<path d="M101.682 115.908C100.647 117.727 99.0506 118.656 97.0565 118.939C96.4287 119.001 95.7976 119.022 95.167 119.003H12.2751C11.6542 119.003 11.0199 118.972 11.0334 118.137C11.0334 117.4 11.634 117.319 12.2042 117.292C12.5821 117.275 12.96 117.292 13.3379 117.292C40.2521 117.292 67.1675 117.292 94.0839 117.292C96.6955 117.279 99.2801 117.258 101.682 115.908Z" fill="#F4F2F4"/>
<path d="M19.1816 55.5464V24.6955C19.1816 22.6751 19.7114 22.1027 21.7527 21.9646C24.1861 21.8322 26.4848 20.8082 28.2083 19.0888C29.9318 17.3695 30.9588 15.0757 31.0923 12.6474C31.2374 10.6001 31.7874 10.0815 33.8253 10.0815H82.281C84.211 10.0815 84.7036 10.5462 84.8555 12.4824C85.2671 17.7488 89.1204 21.5942 94.357 21.9848C96.2769 22.1229 96.8842 22.7526 96.8842 24.6786C96.8842 45.2504 96.8842 65.8188 96.8842 86.3838C96.8842 88.3065 96.4084 88.8251 94.5223 89.0406C88.7155 89.6972 85.3143 93.216 84.8386 99.0616C84.7374 100.297 84.0862 100.944 82.8377 101.031C82.669 101.031 82.5003 101.031 82.3316 101.031H33.7443C31.9291 101.031 31.2813 100.452 31.1092 98.7215C30.5558 93.0678 27.2019 89.6736 21.5503 89.0406C19.5865 88.8217 19.1884 88.3671 19.1884 86.4175L19.1816 55.5464Z" fill="#010101"/>
<path d="M59.5598 85.1479C60.7003 83.801 60.7138 83.0602 59.4924 81.7806C58.4464 80.6896 57.3127 79.6828 56.2431 78.6154C55.1735 77.548 54.3198 76.4098 53.9048 74.9484C53.7563 74.4299 53.7833 74.1336 54.3704 74.0696C54.4129 74.07 54.4551 74.0632 54.4953 74.0494C56.6108 73.0863 58.1494 73.4635 59.931 75.2414C65.2992 80.592 73.4274 80.5011 78.961 75.3054C80.9214 73.4669 82.7873 71.5273 84.697 69.6248C86.2187 68.1028 86.2255 67.3452 84.7206 65.8434C80.4389 61.5669 76.1774 57.2703 71.845 53.0477C71.0892 52.3103 71.1094 51.8187 71.5717 50.96C75.1415 44.3366 78.6573 37.6863 82.1934 31.0427L82.5308 30.3692C83.0032 29.4836 83.1179 28.6081 82.3419 27.8303C81.5658 27.0524 80.7392 27.1568 79.8214 27.6451C75.2832 30.0729 70.7113 32.467 66.1798 34.8746C63.818 36.1272 61.4223 37.3428 59.0942 38.656C58.2945 39.1073 57.8289 39.0534 57.1777 38.39C53.7327 34.8847 50.2338 31.4299 46.7483 27.9515C46.4643 27.642 46.1526 27.3591 45.8171 27.1063C44.5855 26.2679 43.0638 26.8942 42.8951 28.3758C42.6791 30.2918 42.5172 32.2212 42.4834 34.1473C42.4632 35.1069 42.065 35.3797 41.235 35.639C34.9524 37.6021 29.4256 40.7606 25.1101 45.8452C24.4117 46.6735 23.7942 47.5658 23.1295 48.4413C22.8123 48.2427 22.9776 47.9194 22.9776 47.6668C22.9776 40.6966 22.9776 33.7264 22.9473 26.7595C22.9473 25.921 23.2071 25.6416 23.9865 25.4564C29.6989 24.0825 33.2451 20.5065 34.6285 14.8124C34.7938 14.139 35.0098 13.8022 35.8331 13.8022C50.5982 13.8359 65.3633 13.8359 80.1285 13.8022C80.9619 13.8022 81.1744 14.0245 81.3836 14.8461C82.7974 20.4391 86.2896 24.0488 91.9581 25.4261C92.7611 25.618 93.0952 25.8638 93.0952 26.7999C93.0592 45.9013 93.0592 65.0027 93.0952 84.104C93.0952 84.9189 92.9636 85.2994 92.0458 85.5217C86.2457 86.9359 82.6692 90.613 81.3431 96.4148C81.1845 97.0882 80.9011 97.1791 80.3309 97.1791C75.2697 97.1791 70.2355 97.1556 65.1878 97.1791C64.4118 97.1791 64.287 96.8929 64.3275 96.2161C64.4471 94.2468 64.3087 92.2704 63.9158 90.3369C63.5784 88.6297 63.106 88.2559 61.3515 88.3367C60.562 87.4107 60.2043 86.1985 59.5598 85.1479Z" fill="#B3E3F7"/>
<path d="M46.4449 32.979C49.4309 35.986 52.2281 38.8178 55.0421 41.6295C63.4841 50.0611 71.9329 58.4793 80.3885 66.884C81.0026 67.4935 81.205 67.8538 80.4458 68.5373C79.0962 69.7395 77.8781 71.0763 76.5858 72.339C72.4188 76.41 66.423 76.41 62.2695 72.339C61.5778 71.6655 60.8489 71.019 60.2281 70.285C59.3205 69.2175 58.2981 69.0088 56.9687 69.4095C54.898 70.0704 52.79 70.609 50.6557 71.0224C48.4337 71.4417 46.1353 71.1361 44.1008 70.1506C42.0664 69.1651 40.4038 67.5522 39.3592 65.5506C38.2973 63.5577 37.8957 61.2802 38.2122 59.0453C38.5286 56.8104 39.5468 54.7331 41.1205 53.1119C42.2441 51.9199 43.4217 50.7784 44.5992 49.6369C44.8695 49.3784 45.0851 49.0686 45.2334 48.7257C45.3818 48.3827 45.4598 48.0136 45.463 47.6401C45.6924 43.2424 45.9725 38.8481 46.2424 34.4505C46.2728 34.0532 46.3504 33.6558 46.4449 32.979Z" fill="#F8F6F9"/>
<path d="M59.5601 85.1481C60.6735 85.9428 60.9536 87.1954 61.345 88.3874C60.1809 88.97 59.9278 89.8993 60.1809 91.1217C60.5158 92.8115 60.6292 94.5377 60.5183 96.2567C60.4846 96.8864 60.3631 97.2299 59.5904 97.2299C51.5938 97.2029 43.5982 97.2029 35.6038 97.2299C35.0167 97.2299 34.8075 97.0514 34.7029 96.4992C34.2294 93.885 32.9799 91.473 31.1162 89.5761C30.708 89.1619 30.8463 88.9026 31.1331 88.5255C34.9357 83.5655 36.7038 77.8209 37.6148 71.7464C37.6856 71.2682 37.7936 70.7968 37.9151 70.1772C40.5604 72.9552 43.6511 74.7264 47.3424 74.8914C49.3196 74.9891 50.342 75.5177 50.8346 77.5044C51.1923 78.9523 52.3361 80.0972 53.4192 81.1646C54.5023 82.2321 55.6697 83.3163 56.7393 84.441C57.5795 85.3097 58.4365 85.67 59.5601 85.1481Z" fill="#DFE9EE"/>
<path d="M42.1699 39.4341C41.9978 41.9494 41.8325 44.3301 41.6874 46.7141C41.6571 47.2529 41.323 47.5324 41.0126 47.8556C39.8722 49.0274 38.6339 50.1252 37.5946 51.3811C34.9426 54.5834 34.2509 58.3143 34.3555 62.4258C34.5579 70.6251 33.2926 78.5382 28.6195 85.5791C27.9953 86.5186 27.4082 86.9664 26.3183 86.2526C25.8362 85.9979 25.3188 85.8163 24.7831 85.7138C22.9847 85.202 22.9847 85.2087 22.9847 83.2894C22.9847 76.9118 23.1163 70.5308 22.9577 64.1566C22.654 51.9569 29.328 44.7476 38.8565 40.5857C39.9082 40.0646 41.0214 39.6777 42.1699 39.4341Z" fill="#DB4B55"/>
<path d="M60.7612 42.0473L76.0595 33.9658L76.2214 34.151L69.3315 47.1453C68.164 49.3408 68.164 49.334 66.3791 47.5763C64.5942 45.8186 62.7317 43.9834 60.7612 42.0473Z" fill="white"/>
<path d="M90.1225 49.5728C90.1056 50.8187 89.2992 51.5595 88.044 51.637C85.9318 51.7649 85.9318 51.7649 85.8238 53.8358C85.7597 55.0884 85.014 55.91 83.9309 55.9269C82.8478 55.9437 82.0617 55.0749 82.0313 53.7516C81.9841 51.7312 81.9841 51.7312 79.8449 51.6403C78.8326 51.5999 78.0229 51.2127 77.7732 50.1688C77.6394 49.7406 77.6737 49.2777 77.8692 48.8738C78.0646 48.4699 78.4066 48.1552 78.8259 47.9936C79.5311 47.677 80.324 47.8218 81.0663 47.8656C81.8086 47.9094 82.1292 47.6568 82.0414 46.879C81.9976 46.3782 81.9976 45.8746 82.0414 45.3738C82.1022 44.2694 82.8175 43.569 83.8635 43.5488C84.3502 43.5299 84.8253 43.7001 85.1889 44.0234C85.5526 44.3468 85.7765 44.7982 85.8137 45.2829C85.9183 46.1045 85.4425 47.2191 86.0229 47.6737C86.6032 48.1283 87.6222 47.7848 88.4455 47.8723C88.8863 47.8986 89.3017 48.0869 89.6114 48.401C89.9211 48.7151 90.1032 49.1326 90.1225 49.5728Z" fill="#010202"/>
<path d="M60.7475 18.153C61.473 18.2204 62.0668 18.7322 62.3233 19.6279C62.3612 19.8344 62.3737 20.0447 62.3604 20.2542C62.4211 22.3789 62.4211 22.3789 64.4827 22.4328C65.8323 22.4665 66.6556 23.1702 66.6624 24.3286C66.6691 25.4869 65.8695 26.1873 64.4962 26.2143H64.368C62.3874 26.2143 62.3874 26.2142 62.3604 28.2582C62.3435 29.7297 61.6518 30.5345 60.4304 30.5075C59.273 30.4839 58.5982 29.6792 58.5712 28.2952C58.5307 26.2446 58.5307 26.2446 56.4793 26.2143C55.1094 26.1907 54.2861 25.497 54.276 24.3555C54.2658 23.214 55.0925 22.4732 56.4354 22.4328H56.5603C58.5341 22.4025 58.5341 22.4025 58.5847 20.4124C58.5915 18.9713 59.3372 18.116 60.7475 18.153Z" fill="#010101"/>
<path d="M56.736 56.7084C54.914 56.7027 53.1647 55.9945 51.8537 54.7318C51.0236 53.9337 50.9292 52.8124 51.5905 52.038C52.2518 51.2635 53.3349 51.1658 54.2898 51.846C56.348 53.3007 57.1882 53.3007 59.243 51.846C60.1979 51.1726 61.2371 51.2601 61.9423 52.0885C62.6475 52.9168 62.5462 53.8933 61.7398 54.6846C60.402 55.9875 58.6052 56.7142 56.736 56.7084Z" fill="#020202"/>
</g>
<defs>
<clipPath id="clip0_80_5677">
<rect width="107" height="129" fill="white"/>
</clipPath>
</defs>
</svg>
