<svg width="430" height="725" viewBox="0 0 430 725" fill="none" xmlns="http://www.w3.org/2000/svg">
<path d="M265.9 -1.3721e-05C253.118 -1.31623e-05 246.626 3.28972 240.344 6.48839C234.062 9.68712 228.123 12.704 215.91 12.704C207.662 12.927 199.422 11.5573 191.287 8.61101C182.903 5.58727 174.412 4.17693 165.913 4.39654C153.132 4.39654 146.633 7.73144 140.351 10.9453C134.069 14.1592 128.137 17.2216 115.924 17.2216C103.71 17.2216 97.7647 14.1897 91.4827 11.1577C85.2007 8.12579 78.7084 4.76037 65.934 4.76037C57.4538 4.55639 48.98 5.83911 40.5957 8.59582C32.4353 11.2482 24.1886 12.4597 15.9374 12.2189C7.67033 12.3569 -0.593407 11.4559 -8.81207 9.52038C-17.1935 7.54089 -25.6212 6.61957 -34.0523 6.76117C-34.8572 6.67743 -35.6614 6.95483 -36.4143 7.57581C-37.1672 8.19672 -37.8526 9.14795 -38.4273 10.3694C-40.4395 14.9173 -40.3483 21.8453 -40.2572 28.5611C-40.2572 29.9406 -40.2572 31.3353 -40.2572 32.73C-40.2572 59.8356 -41.6594 73.0095 -43.0616 86.9565C-44.4639 100.903 -45.9923 115.214 -45.9923 143.502C-46.0883 162.282 -45.4527 181.045 -44.0923 199.593C-42.7571 217.638 -42.1378 235.896 -42.2413 254.169C-42.2413 281.274 -43.6436 294.448 -45.0458 308.395C-46.448 322.342 -47.9905 336.668 -47.9905 364.941C-48.0855 383.715 -47.4711 402.474 -46.1536 421.032C-44.8582 439.085 -44.2579 457.339 -44.3587 475.607C-44.3587 503.213 -44.562 517.251 -44.7513 530.819C-44.9406 544.387 -45.1439 558.606 -45.1439 586.364C-45.1439 614.121 -45.3543 628.008 -45.5506 641.591C-45.7469 655.174 -45.9572 669.364 -45.9572 697.136C-45.9572 708.734 -41.1756 716.541 -34.0382 716.541C-21.5373 716.541 -15.2904 716.541 -9.04341 716.541C-2.79646 716.541 3.4575 716.541 15.9584 716.541C24.2185 716.372 32.4741 717.44 40.6658 719.739C49.0506 722.09 57.5005 723.185 65.9551 723.014C78.5121 723.014 84.8852 722.347 91.0691 721.71C97.2529 721.074 103.507 720.407 115.952 720.407C128.397 720.407 134.721 720.983 140.841 721.544C146.962 722.104 153.391 722.696 165.941 722.696C174.527 722.99 183.096 720.989 191.455 716.738C197.765 713.706 203.697 711.007 215.931 711.007C228.166 711.007 234.041 714.327 240.316 717.829C246.591 721.331 253.118 725 265.928 725C278.457 725 284.858 724.636 290.993 724.287C297.127 723.939 303.458 723.575 315.924 723.575C324.441 723.811 332.948 722.262 341.326 718.951C349.435 715.74 357.67 714.247 365.914 714.494C378.492 714.494 384.886 713.57 391.07 712.69C397.254 711.811 403.487 710.917 415.904 710.917C428.145 710.917 434.091 713.66 440.394 716.556C446.697 719.451 453.14 722.438 465.9 722.438C472.21 722.438 476.417 709.37 476.417 697.182C476.417 669.424 476.242 655.31 476.081 641.652C475.919 627.993 475.751 614.031 475.751 586.409C475.661 568.107 476.195 549.815 477.349 531.683C478.528 513.097 479.076 494.35 478.99 475.592C479.087 456.817 478.471 438.057 477.146 419.5C475.858 401.446 475.26 383.192 475.358 364.925C475.447 346.16 474.868 327.408 473.627 308.834C472.409 290.729 471.847 272.447 471.944 254.153C471.944 227.017 473.234 213.828 474.601 199.866C475.968 185.904 477.406 171.639 477.406 143.381C477.406 115.502 476.915 101.313 476.445 87.6083C475.975 73.9038 475.506 60.1084 475.506 32.6238C475.506 29.5009 475.33 25.0441 473.851 21.8151C472.154 18.1919 469.784 18.2373 467.043 18.2828C466.678 18.2828 466.342 18.2828 465.914 18.2828C457.669 18.5309 449.432 17.0075 441.326 13.7348C432.948 10.373 424.438 8.79881 415.918 9.03514C407.457 8.86058 399.001 9.98552 390.614 12.4009C382.43 14.767 374.178 15.8612 365.921 15.6753C353.413 15.6753 347.054 15.7812 340.905 15.8722C334.756 15.9631 328.411 16.0846 315.924 16.0846C303.788 16.0846 297.885 12.2341 291.638 8.15611C285.391 4.07811 278.765 -1.42834e-05 265.9 -1.3721e-05Z" fill="#E66447"/>
</svg>
