<svg width="1920" height="614" viewBox="0 0 1920 614" fill="none" xmlns="http://www.w3.org/2000/svg">
<path d="M1158.54 6.98436e-06C1108.19 9.1852e-06 1082.61 2.78609 1057.87 5.49507C1033.12 8.20404 1009.73 10.759 961.615 10.759C929.125 10.9479 896.663 9.78786 864.617 7.29268C831.592 4.7319 798.143 3.53745 764.664 3.72347C714.315 3.72348 688.712 6.54781 663.966 9.26962C639.219 11.9914 615.853 14.585 567.741 14.585C519.629 14.585 496.208 12.0172 471.461 9.4495C446.715 6.88175 421.14 4.03166 370.818 4.03166C337.412 3.85889 304.031 4.94521 271.003 7.27989C238.857 9.52613 206.371 10.5522 173.867 10.3482C141.301 10.4652 108.748 9.70206 76.3723 8.06286C43.3554 6.38646 10.1563 5.60617 -23.056 5.72613C-26.2267 5.6552 -29.3947 5.89015 -32.3607 6.41601C-35.3267 6.94188 -38.0264 7.74746 -40.2902 8.78192C-48.2168 12.6335 -47.8578 18.5008 -47.4987 24.1884C-47.4987 25.3567 -47.4987 26.5379 -47.4987 27.7191C-47.4987 50.6747 -53.0225 61.8316 -58.5463 73.6432C-64.0701 85.4549 -70.091 97.5747 -70.091 121.532C-70.4691 137.436 -67.9654 153.326 -62.6063 169.035C-57.3466 184.317 -54.9073 199.78 -55.3149 215.255C-55.3149 238.21 -60.8387 249.367 -66.3625 261.179C-71.8863 272.99 -77.9624 285.123 -77.9624 309.067C-78.3366 324.967 -75.9165 340.854 -70.7263 356.57C-65.6236 371.859 -63.2586 387.319 -63.6558 402.79C-63.6558 426.169 -64.4568 438.058 -65.2025 449.549C-65.9482 461.039 -66.7491 473.082 -66.7491 496.59C-66.7491 520.097 -67.5777 531.858 -68.351 543.361C-69.1244 554.865 -69.9529 566.882 -69.9529 590.402C-69.9529 600.224 -51.1168 606.836 -23.0007 606.836C26.2439 606.836 50.8524 606.836 75.4609 606.836C100.069 606.836 124.705 606.836 173.95 606.836C206.489 606.693 239.01 607.598 271.279 609.545C304.309 611.536 337.596 612.462 370.901 612.318C420.366 612.318 445.472 611.753 469.832 611.214C494.192 610.675 518.828 610.11 567.852 610.11C616.875 610.11 641.788 610.598 665.899 611.073C690.01 611.548 715.337 612.048 764.775 612.048C798.596 612.297 832.353 610.603 865.28 607.003C890.137 604.435 913.503 602.15 961.698 602.15C1009.89 602.15 1033.04 604.961 1057.76 607.927C1082.48 610.893 1108.19 614 1158.65 614C1208 614 1233.22 613.692 1257.39 613.396C1281.55 613.101 1306.49 612.793 1355.6 612.793C1389.15 612.993 1422.66 611.681 1455.66 608.877C1487.61 606.158 1520.05 604.894 1552.52 605.103C1602.07 605.103 1627.26 604.32 1651.62 603.575C1675.98 602.83 1700.53 602.073 1749.45 602.073C1797.67 602.073 1821.09 604.396 1845.92 606.849C1870.75 609.301 1896.13 611.83 1946.4 611.83C1971.25 611.83 1987.82 600.763 1987.82 590.441C1987.82 566.933 1987.13 554.98 1986.5 543.412C1985.86 531.845 1985.2 520.02 1985.2 496.628C1984.85 481.128 1986.95 465.636 1991.5 450.28C1996.14 434.54 1998.3 418.663 1997.96 402.777C1998.34 386.877 1995.91 370.989 1990.7 355.273C1985.62 339.983 1983.27 324.524 1983.65 309.054C1984 293.162 1981.72 277.28 1976.83 261.551C1972.04 246.218 1969.82 230.735 1970.2 215.242C1970.2 192.26 1975.29 181.09 1980.67 169.266C1986.06 157.442 1991.72 145.36 1991.72 121.429C1991.72 97.8184 1989.79 85.8013 1987.94 74.1951C1986.08 62.5889 1984.23 50.9056 1984.23 27.629C1984.23 24.9842 1983.54 21.2098 1977.72 18.4751C1971.03 15.4067 1961.7 15.4451 1950.9 15.4836C1949.46 15.4836 1948.14 15.4836 1946.45 15.4836C1913.97 15.6938 1881.52 14.4036 1849.59 11.632C1816.59 8.78493 1783.06 7.45171 1749.5 7.65184C1716.17 7.504 1682.86 8.45673 1649.82 10.5023C1617.58 12.5061 1585.08 13.4328 1552.55 13.2754C1503.28 13.2754 1478.23 13.3651 1454.01 13.4421C1429.78 13.5192 1404.79 13.6221 1355.6 13.6221C1307.79 13.6221 1284.54 10.361 1259.93 6.90741C1235.32 3.45379 1209.22 4.76903e-06 1158.54 6.98436e-06Z" fill="#E66447"/>
</svg>
