<svg width="221" height="209" viewBox="0 0 221 209" fill="none" xmlns="http://www.w3.org/2000/svg">
<path d="M139.003 147.971C146.441 160.48 152.156 173.451 149.487 188.558C149.13 191.49 148.442 194.372 147.436 197.149C143.869 205.46 135.46 207.292 128.69 201.262C121.725 195.062 118.679 186.701 116.653 177.917C113.893 166.688 113.533 155.004 115.597 143.627L106.424 145.435C106.097 158.782 106.91 172.238 103.391 185.306C101.785 191.81 98.7278 197.867 94.4482 203.021C91.2691 206.758 87.447 210.302 82.4236 208.53C77.6429 206.819 76.563 201.905 76.3568 197.015C75.92 185.379 79.1839 174.531 83.3215 163.89C85.8211 157.471 88.624 151.162 91.2691 144.828C87.8595 141.273 86.816 144.258 85.6876 146.66C78.1768 162.652 66.0553 174.446 51.4948 183.898C42.0183 190.038 34.6168 190.499 30.4549 185.816C26.5964 181.484 27.4093 173.985 33.7067 165.407C43.2527 152.414 54.8506 141.062 68.0452 131.796C71.1393 129.6 71.1999 129.673 69.6832 126.191C55.5717 134.138 40.0891 138.518 24.7885 143.178C19.2312 144.876 12.0116 146.697 8.55353 140.448C4.91341 133.823 9.28156 127.804 14.6204 123.837C28.5135 113.535 43.8505 106.425 61.3595 104.823C62.7549 104.69 64.3444 105.442 66.213 103.112C52.781 103.767 40.0891 103.513 27.652 100.431C19.9228 98.5136 12.4485 96.0504 6.26026 90.7237C1.3097 86.4769 -1.01998 81.0167 1.04275 74.8043C2.95988 68.9801 8.5778 68.1549 13.856 67.7302C22.7743 67.0265 31.6319 68.5797 41.5451 69.1985C37.6502 64.1751 33.913 60.0375 30.9402 55.4025C24.8734 45.9624 24.2788 38.1239 28.6591 33.4403C33.0394 28.7567 41.0719 29.0358 50.7425 34.0713C57.8043 37.7114 63.762 42.9896 70.7146 48.9594C69.2586 42.7348 68.0209 37.6385 66.9046 32.506C65.6299 26.9193 65.5926 21.1214 66.7954 15.5188C67.8996 10.5197 69.477 5.81178 75.289 4.59841C81.1011 3.38504 86.0395 5.72694 89.6311 10.3013C97.1054 19.8749 98.974 31.3775 100.297 42.9774C101.049 49.6267 101.401 56.3246 101.959 63.2408C106.206 61.9304 104.822 59.2974 104.822 57.3681C104.914 42.7469 107.981 28.2975 113.838 14.9001C115.864 10.0466 118.57 5.55701 123.132 2.65704C128.92 -0.983073 133.652 0.545747 136.006 7.02516C138.639 14.2326 138.178 21.5858 136.674 28.9995C134.627 38.7388 131.259 48.1527 126.663 56.9798C131.007 57.7806 131.638 54.4802 133.058 52.6116C140.811 42.3829 147.278 31.0864 158.102 23.4907C161.638 20.7643 165.643 18.7082 169.92 17.4238C173.997 16.3803 177.928 17.0719 180.84 20.2388C183.752 23.4057 183.4 27.0337 182.054 30.6981C179.627 37.1168 175.113 41.9825 170.624 46.9694C161.354 57.271 152.326 67.7788 142.801 77.8256C143.153 77.4009 143.845 75.0711 144.949 74.0761C160.723 59.6855 180.027 54.4317 200.667 52.8785C203.139 52.7791 205.608 53.1412 207.947 53.9463C216.125 56.5551 217.957 63.8475 212.072 69.9629C209.044 72.895 205.492 75.2327 201.601 76.8548C187.113 83.5526 171.607 86.6589 156.148 89.9836C154.073 90.4325 150.931 89.4132 150.773 94.1211C165.574 90.0742 180.97 88.6492 196.262 89.9107C201.702 90.2886 207.011 91.749 211.878 94.2061C217.945 97.3609 221.282 102.299 220.627 109.252C219.984 116.01 216.416 120.864 209.706 122.866C196.93 126.7 184.226 124.492 171.534 122.114C165.463 120.976 159.463 119.489 153.564 117.661C150.36 116.653 148.929 117.503 147.982 121.07C157.81 125.802 167.481 131.153 175.756 138.652C180.61 143.02 184.893 147.764 187.587 153.746C190.911 161.136 189.88 168.38 184.638 172.881C178.96 177.735 172.711 177.031 166.62 173.73C158.405 169.289 152.617 162.082 146.247 155.53C143.82 153.03 142.801 149.063 138.809 148.165C137.984 143.311 134.72 140.205 131.395 137.111C132.804 141.402 135.451 145.181 139.003 147.971ZM43.7049 60.3044C43.7673 61.1007 44.1143 61.8481 44.6825 62.4096C45.2507 62.971 46.002 63.3092 46.799 63.3621L46.6534 63.2287C47.5513 65.983 50.2935 66.8688 52.2107 68.4341C57.2219 71.4918 62.4394 74.2703 67.1716 77.7041C72.5104 81.5626 75.9321 80.3007 79.912 75.4472C84.1345 70.3147 80.0212 67.8637 77.4852 65.0244C74.9493 62.1851 73.5053 58.7512 69.9866 57.0889C66.0431 53.194 62.4151 48.9109 57.1006 46.739C51.3492 45.8775 48.607 39.3617 42.5401 39.0098C41.2249 38.1059 39.6877 37.5783 38.0946 37.4842C36.5015 37.3901 34.9129 37.733 33.5005 38.4758C33.6582 40.4536 32.4691 42.6498 34.6046 44.3728C34.2406 49.1292 37.1042 52.563 39.4581 56.191C40.6715 57.7805 41.2175 59.989 43.6321 60.353L43.7049 60.3044ZM52.7688 153.843C50.427 153.358 49.8446 155.384 48.7283 156.646C42.2974 163.162 35.8544 169.69 35.3812 179.7L35.0657 179.494L38.087 181.921C42.71 182.357 45.5735 178.912 49.1044 176.934C54.6253 173.015 60.8378 169.945 64.8783 164.193C65.849 163.502 66.8076 162.822 66.213 161.391L66.1038 161.609C67.6725 160.949 69.0502 159.905 70.1103 158.574C71.1704 157.242 71.8789 155.666 72.1706 153.989L72.0008 154.159C73.2869 154.365 73.5054 153.309 73.9543 152.509C75.5802 150.397 77.3639 148.371 78.8078 146.138C80.373 143.712 82.545 141.006 79.3174 138.385C76.5509 136.128 73.9179 135.182 70.1565 137.766C65.3166 141.018 60.9092 144.871 57.0399 149.232C55.0621 150.446 53.0843 151.574 52.6232 154.086L52.7688 153.843ZM95.8072 185.294C98.5736 183.947 96.3046 180.962 97.7849 179.227C99.7385 168.659 98.4402 157.896 99.605 147.279C99.605 146.903 97.6515 146.296 96.4381 145.726C91.0022 153.916 90.4926 163.478 87.1558 172.02C85.1901 177.079 83.273 182.94 84.8018 188.825C82.727 193.096 81.1617 197.318 86.9374 200.036C88.0003 199.631 88.9693 199.013 89.785 198.22C90.6008 197.427 91.2462 196.476 91.6817 195.426C94.1084 192.429 96.2439 189.262 95.9285 185.112L95.8072 185.294ZM165.855 79.5242L165.685 79.7062C168.67 80.0095 171.594 80.0581 174.179 78.0682C179.105 77.7891 183.728 76.236 188.363 74.7314C192.1 73.7364 195.886 72.8629 199.017 70.4119C200.195 70.0861 201.351 69.6807 202.475 69.1985C205.193 67.8517 208.165 66.2864 207.243 62.6463C206.321 59.0061 202.851 60.2194 200.339 60.2922C187.441 60.4014 174.858 62.1365 163.343 68.4582C158.878 69.8608 154.748 72.1654 151.21 75.2289C148.783 77.1097 143.735 77.2916 145.665 82.2542C147.667 87.4475 151.525 83.5404 154.546 83.4676C155.764 83.2362 156.942 82.8274 158.041 82.2542L165.855 79.5242ZM33.4519 119.663C29.5813 120.5 26.7298 123.096 23.66 125.305C18.8793 127.732 16.5982 132.136 13.953 136.346C15.0885 137.162 16.4129 137.674 17.8013 137.835C19.1897 137.997 20.5964 137.802 21.8885 137.269C33.549 132.743 46.3622 130.983 56.5545 122.951C57.2716 122.405 58.1529 122.118 59.0541 122.138C68.3607 121.471 69.0523 120.306 65.8732 111.072C60.0361 111.504 54.291 112.771 48.8132 114.833C43.1953 115.076 38.172 117.139 33.3306 119.784L33.4519 119.663ZM149.414 40.7934L147.181 42.5163L140.787 50.828L135.836 58.1083C133.08 60.5051 130.821 63.4196 129.187 66.6867C133.288 72.244 137.341 69.8051 141.005 66.5168C148.103 60.1345 155.238 53.7765 162.264 47.3456C168.549 41.5821 175.077 35.1512 176.557 25.1895C169.483 23.6727 164.326 25.2864 160.274 30.419C154.716 31.9357 151.78 36.1704 149.28 40.9147L149.414 40.7934ZM90.0194 66.2014L89.8131 66.2742C91.0081 66.4117 92.2187 66.2633 93.3451 65.8414C94.4716 65.4195 95.4818 64.7361 96.2925 63.8475C95.4431 59.2852 94.6059 54.7835 93.7808 50.2941C93.4532 45.9138 93.4532 41.4729 92.7494 37.1411C91.7059 30.6617 91.3419 23.8668 86.2458 18.7464C83.9161 16.3924 82.1324 12.3034 78.0312 14.5603C74.3911 16.5866 73.1778 20.433 73.4932 24.7162C74.5489 39.5315 81.2467 52.4296 87.1922 65.5947C87.2893 66.4562 87.1922 67.4754 88.4056 67.5846C89.3641 67.6817 90.2378 67.5118 90.0194 66.2135L90.0194 66.2014ZM77.9463 87.0836L78.0555 86.938C71.4305 96.1475 70.7753 106.764 72.656 117.163C74.2577 125.887 79.463 132.852 89.2064 134.696C90.1528 136.698 92.0214 136.055 93.6109 136.249C110.21 141.297 128.872 135.667 137.62 122.999C149.183 110.392 145.398 86.5982 131.48 76.1632C121.688 67.8638 110.635 68.8829 99.3381 71.8436C90.7716 73.5666 84.7776 78.9418 79.7421 85.676C78.6258 85.5062 78.189 86.1736 77.9463 87.0957L77.9463 87.0836ZM110.44 62.6341C120.681 65.5583 120.56 57.3316 122.574 51.3861L125.438 44.1059C129.32 34.2654 132.33 24.243 131.614 13.4682C131.432 10.8231 130.655 8.33568 127.974 7.71686C125.693 7.18298 123.836 8.93017 122.526 10.8352C118.813 16.0163 116.616 21.9133 114.481 27.8224L111.241 38.3788C110.914 40.9997 110.574 43.6205 110.246 46.2293C108.814 51.7137 108.305 57.1497 110.44 62.6463L110.44 62.6341ZM141.758 172.59C141.406 164.23 137.062 157.593 132.5 151.04C127.294 139.562 126.226 138.98 118.267 143.178C118.267 145.605 117.963 148.031 119.698 150.167C120.135 159.704 120.062 169.338 125.074 178.002C126.724 186.35 130.17 193.339 138.663 196.76C140.186 195.284 141.092 193.285 141.199 191.167C144.124 187.381 143.541 183.037 143.201 178.73C143.408 176.533 143.675 174.313 141.758 172.602L141.758 172.59ZM166.996 142.037C164.994 136.346 158.502 137.05 154.789 133.422C147.145 126.033 143.214 126.87 136.504 135.509C138.639 137.463 140.35 139.95 143.311 140.884L151.901 149.96L157.095 155.627C157.985 157.376 159.397 158.805 161.135 159.716C163.135 162.8 165.881 165.329 169.119 167.069C174.215 170.078 182.296 168.392 181.338 164.873C180.124 160.59 181.847 155.7 178.596 151.975C175.101 148.238 172.638 143.299 166.996 142.086L166.996 142.037ZM61.4323 96.8269L60.7892 96.4994C61.1654 96.4994 61.6386 96.2202 61.9177 96.3658C62.7217 96.8829 63.6272 97.2221 64.5731 97.3602C65.5191 97.4984 66.4837 97.4323 67.4021 97.1666C69.1372 91.5245 69.6954 88.2606 69.1494 86.938L64.5992 84.6568C59.8069 81.7669 54.6144 79.5998 49.1894 78.2259C39.0327 75.7387 28.6579 74.2473 18.212 73.7728C16.2459 73.6294 14.2704 73.8558 12.3878 74.4402C6.41799 76.4423 5.56864 80.871 10.5071 84.681C16.9789 89.7385 24.8394 92.7016 33.0394 93.1746C35.7209 94.8369 38.633 94.4608 41.533 94.1575L61.4323 96.8269ZM157.823 112.601L174.47 116.581C176.352 117.121 178.27 117.526 180.209 117.794C189.674 118.461 199.308 120.221 207.983 114.445C212.412 111.472 213.953 107.456 209.609 103.682C206.26 100.758 202.499 97.6156 197.476 97.749C191.785 97.6277 186.131 96.0018 180.403 97.288C171.109 96.2081 162.069 97.8825 151.962 99.7147C155.008 103.937 145.919 112.225 157.847 112.564L157.823 112.601Z" fill="#333333"/>
<path d="M79.7787 85.6881C84.8142 78.9539 90.8083 73.5544 99.3747 71.8557C108.584 72.159 118.024 70.7878 126.481 76.1873C127.695 76.9518 129.818 76.1873 131.517 76.1873C145.434 86.5859 149.22 110.417 137.657 123.011C133.616 124.431 130.376 127.149 127.161 129.758C121.094 134.611 114.178 137.184 106.534 135.97C102.242 135.45 97.8978 135.552 93.6354 136.274C92.0459 136.079 90.1773 136.723 89.2309 134.721C76.6604 123.521 70.6056 110.344 76.6482 93.4659C77.2695 91.3487 77.7478 89.192 78.08 87.0107L77.9708 87.1563C78.5654 86.6224 79.1356 86.1492 79.7787 85.6881ZM113.68 88.4547L120.961 81.7447C118.012 81.3443 115.913 80.41 113.79 82.0966L113.79 88.5638C111.703 89.3889 109.239 89.6315 107.832 92.7256C113.268 95.4921 112.819 91.1241 113.644 88.4547L113.68 88.4547ZM117.43 110.599C114.542 106.582 114.882 102.105 110.441 100.685C109.106 100.261 107.383 99.7633 106.582 101.474C105.878 102.979 106.376 104.629 108.196 104.799C111.824 105.114 112.346 109.531 117.393 110.599L117.43 110.599ZM92.507 84.8267C94.6668 88.8551 96.9237 91.3909 101.498 94.849C98.9864 89.4616 100.176 83.9773 92.4706 84.8267L92.507 84.8267ZM87.059 112.843C88.5393 114.845 87.5443 117.697 90.1409 117.94C92.7375 118.182 94.3999 116.459 95.3342 114.069C93.1258 111.751 90.6991 112.576 87.059 112.843Z" fill="url(#paint0_linear_80_5600)"/>
<path d="M197.476 97.7005C202.536 97.5791 206.297 100.71 209.61 103.634C213.954 107.407 212.413 111.424 207.984 114.396C199.308 120.233 189.674 118.413 180.21 117.745C178.27 117.477 176.352 117.072 174.47 116.532C172.444 111.957 164.448 110.04 157.823 112.552C145.896 112.212 155.032 103.925 151.926 99.6175C162.033 97.8218 171.073 96.1473 180.367 97.1908C182.928 100.103 187.077 97.2879 189.832 99.9452C193.533 103.537 195.85 101.571 197.476 97.7005Z" fill="url(#paint1_linear_80_5600)"/>
<path d="M42.6251 39.0096C48.692 39.3615 51.3736 45.8773 57.1856 46.7388C57.6346 51.8835 63.3253 53.8006 63.9562 58.9939L70.0231 57.0888C73.5419 58.7511 75.1071 62.3185 77.5217 65.0243C79.9363 67.7301 84.1467 70.3145 79.9485 75.4471C75.9686 80.3006 72.5469 81.514 67.2081 77.704C62.4759 74.2701 57.2584 71.4916 52.2472 68.4339C54.6133 62.2093 49.4322 64.0172 46.6899 63.2285L46.8355 63.362C46.6293 61.5055 46.7506 59.3214 43.7414 60.3042C44.5423 56.6641 42.431 56.0454 39.5674 56.1425C37.1407 52.5023 34.3135 49.0806 34.714 44.3242L38.6938 48.571C40.3197 45.3071 37.7474 40.6234 42.6251 39.0096Z" fill="url(#paint2_linear_80_5600)"/>
<path d="M64.6231 84.669L69.1612 86.9501C70.144 93.017 67.9478 96.572 61.4562 96.839L41.5569 94.1575C40.5377 93.4416 43.2193 90.2019 40.2344 91.4031C37.8076 92.3738 34.9805 90.9056 33.0633 93.1746C24.8634 92.7015 17.0028 89.7385 10.531 84.681C5.59258 80.871 6.44195 76.4422 12.4117 74.4402C14.2944 73.8558 16.2699 73.6293 18.2359 73.7728C28.6779 74.2464 39.0489 75.7378 49.2012 78.2259C50.087 83.8317 54.2003 82.8852 58.168 82.1208C58.4835 84.3534 58.7504 86.2099 59.0659 88.3697L64.6231 84.669ZM32.1533 84.2806C26.4019 85.7973 22.6647 84.9359 18.5757 84.6447C25.504 89.8379 27.1421 90.0199 32.1533 84.2806Z" fill="url(#paint3_linear_80_5600)"/>
<path d="M35.3692 179.7C35.8545 169.738 42.2975 163.211 48.7163 156.646L52.2229 157.763C52.4171 156.27 52.5869 155.057 52.7568 153.843L52.6112 154.025C53.7154 152.06 58.8722 153.758 57.0279 149.172C60.8972 144.81 65.3046 140.957 70.1444 137.705C73.9059 135.121 76.5389 136.067 79.3054 138.324C82.533 140.945 80.361 143.663 78.7958 146.078C77.3519 148.31 75.5682 150.337 73.9423 152.448C73.4707 152.434 73.0106 152.595 72.6502 152.9C72.2898 153.204 72.0543 153.631 71.9888 154.098L72.1586 153.928C67.924 154.705 65.4366 156.877 66.0918 161.548L66.201 161.33L64.8663 164.133C60.8258 169.884 54.6133 172.954 49.0924 176.873C45.0708 177.62 41.2903 179.332 38.075 181.86L35.0537 179.433L35.3692 179.7Z" fill="url(#paint4_linear_80_5600)"/>
<path d="M143.31 140.872C140.35 139.938 138.639 137.45 136.503 135.497C143.213 126.858 147.145 126.021 154.789 133.41C158.538 137.05 164.993 136.334 166.983 142.025C166.571 144.027 166.267 145.665 168.913 146.733C172.245 148.291 175.486 150.037 178.62 151.963C181.871 155.688 180.197 160.577 181.362 164.861C182.32 168.379 174.239 170.066 169.143 167.057C165.905 165.317 163.159 162.788 161.159 159.704C163.222 156.561 167.808 160.141 170.478 156.064C166.09 155.125 161.568 154.986 157.131 155.651L151.95 149.985C152.835 145.374 149.038 141.054 151.294 136.031C148.94 138.53 146.635 140.654 143.31 140.872Z" fill="url(#paint5_linear_80_5600)"/>
<path d="M87.1923 65.6433C81.2468 52.4782 74.549 39.5801 73.4933 24.7648C73.19 20.4816 74.367 16.6351 78.0313 14.6088C82.1325 12.3519 83.9162 16.441 86.2459 18.795C91.342 23.9154 91.7061 30.7103 92.7496 37.1898C93.4533 41.5215 93.4533 45.9624 93.7809 50.3427C91.4634 55.4146 93.0286 61.4572 89.8132 66.3228L90.0195 66.25L87.1923 65.6433Z" fill="url(#paint6_linear_80_5600)"/>
<path d="M141.199 191.179C141.092 193.297 140.186 195.296 138.663 196.772C130.17 193.351 126.724 186.362 125.073 178.014C124.879 169.362 118.363 160.541 127.015 152.217L119.735 150.179C117.999 148.092 118.339 145.592 118.303 143.19C126.263 138.992 127.33 139.55 132.536 151.053C131.177 153.309 132.79 154.571 133.664 156.549C135.897 161.633 141.442 166.256 136.94 173.16L141.794 172.602C143.711 174.313 143.444 176.533 143.238 178.742C140.289 182.515 136.103 186.095 141.199 191.179Z" fill="url(#paint7_linear_80_5600)"/>
<path d="M140.787 50.84L147.182 42.5161C148.213 42.322 149.73 42.7589 149.414 40.8054L149.281 40.8903C156.476 41.0844 159.643 37.0681 160.274 30.3946C164.327 25.262 169.484 23.6483 176.558 25.165C175.077 35.1268 168.549 41.5577 162.264 47.3212C155.239 53.7521 148.104 60.1101 141.006 66.4924C137.366 69.7806 133.289 72.2195 129.187 66.6623C130.818 63.397 133.078 60.4859 135.837 58.096C138.166 58.2658 140.593 59.5762 142.814 57.4528C143.027 56.2689 142.955 55.0509 142.603 53.9005C142.25 52.7502 141.628 51.701 140.787 50.84Z" fill="url(#paint8_linear_80_5600)"/>
<path d="M114.529 27.8223C116.665 21.901 118.861 16.004 122.574 10.8351C123.885 8.99074 125.741 7.19501 128.022 7.71676C130.655 8.33558 131.432 10.823 131.662 13.4681C132.378 24.2429 129.369 34.2653 125.486 44.1058C122.198 44.3485 118.813 43.2928 115.488 44.6517C115.488 49.6266 118.776 50.8279 122.623 51.4103C120.608 57.3558 120.73 65.5825 110.489 62.6583C109.579 57.1981 113.923 51.7379 110.343 46.2413C110.671 43.6326 111.011 41.0117 111.338 38.3909C117.393 36.9348 118.315 33.7193 114.529 27.8223Z" fill="url(#paint9_linear_80_5600)"/>
<path d="M188.315 74.7313C183.68 76.2358 179.057 77.789 174.131 78.068L168.355 74.7434C167.409 76.4907 166.559 78.1044 165.698 79.7061L165.868 79.524C163.623 81.4776 159.449 77.9224 158.054 82.2784C156.954 82.8515 155.777 83.2603 154.559 83.4918C151.538 83.5767 147.679 87.4838 145.677 82.2784C143.748 77.3157 148.759 77.1338 151.222 75.2652C154.195 77.5828 160.832 73.8697 163.356 68.4824C174.895 62.1607 187.454 60.4256 200.352 60.3164C202.864 60.3164 206.297 58.909 207.256 62.6704C208.215 66.4319 205.205 67.8757 202.487 69.2225C201.367 69.7028 200.216 70.1082 199.041 70.4359L192.914 67.803L188.315 74.7313Z" fill="url(#paint10_linear_80_5600)"/>
<path d="M48.765 114.833C54.2428 112.771 59.9878 111.504 65.825 111.072C69.004 120.306 68.3124 121.471 59.0058 122.138C58.1046 122.118 57.2234 122.405 56.5063 122.951C46.314 130.983 33.4522 132.743 21.8402 137.269C20.5481 137.802 19.1415 137.997 17.7531 137.836C16.3646 137.674 15.0402 137.162 13.9048 136.347C16.5985 132.136 18.8796 127.744 23.6118 125.305C27.0577 123.752 31.2681 123.509 33.4037 119.663L33.2338 119.784C38.3906 117.976 44.591 119.675 48.765 114.833Z" fill="url(#paint11_linear_80_5600)"/>
<path d="M91.6815 195.401C91.246 196.452 90.6007 197.403 89.7849 198.196C88.9691 198.989 88.0001 199.607 86.9372 200.012C86.9372 196.141 81.3921 193.326 84.8017 188.8C83.2729 182.891 85.19 177.055 87.1557 171.995C90.4924 163.502 91.002 153.892 96.438 145.701C97.6513 146.272 99.6534 146.915 99.6049 147.255C98.3915 157.872 99.7383 168.634 97.7727 179.203C95.8191 180.804 96.0133 183.11 95.807 185.27L95.9283 185.063C94.4359 188.497 89.9586 190.62 91.6815 195.401Z" fill="url(#paint12_linear_80_5600)"/>
<defs>
<linearGradient id="paint0_linear_80_5600" x1="74.27" y1="104.059" x2="144.464" y2="104.059" gradientUnits="userSpaceOnUse">
<stop stop-color="#E3B724"/>
<stop offset="1" stop-color="#FFC961"/>
</linearGradient>
<linearGradient id="paint1_linear_80_5600" x1="151.501" y1="107.723" x2="212.219" y2="107.723" gradientUnits="userSpaceOnUse">
<stop stop-color="#D75432"/>
<stop offset="1" stop-color="#FF806C"/>
</linearGradient>
<linearGradient id="paint2_linear_80_5600" x1="34.6654" y1="59.4913" x2="81.7321" y2="59.4913" gradientUnits="userSpaceOnUse">
<stop stop-color="#D75432"/>
<stop offset="1" stop-color="#FF806C"/>
</linearGradient>
<linearGradient id="paint3_linear_80_5600" x1="7.31557" y1="85.2998" x2="69.3796" y2="85.2998" gradientUnits="userSpaceOnUse">
<stop stop-color="#D75432"/>
<stop offset="1" stop-color="#FF806C"/>
</linearGradient>
<linearGradient id="paint4_linear_80_5600" x1="35.0537" y1="158.976" x2="80.9799" y2="158.976" gradientUnits="userSpaceOnUse">
<stop stop-color="#D75432"/>
<stop offset="1" stop-color="#FF806C"/>
</linearGradient>
<linearGradient id="paint5_linear_80_5600" x1="136.503" y1="148.529" x2="181.422" y2="148.529" gradientUnits="userSpaceOnUse">
<stop stop-color="#D75432"/>
<stop offset="1" stop-color="#FF806C"/>
</linearGradient>
<linearGradient id="paint6_linear_80_5600" x1="73.4448" y1="40.1018" x2="93.7809" y2="40.1018" gradientUnits="userSpaceOnUse">
<stop stop-color="#D75432"/>
<stop offset="1" stop-color="#FF806C"/>
</linearGradient>
<linearGradient id="paint7_linear_80_5600" x1="118.254" y1="168.78" x2="143.347" y2="168.78" gradientUnits="userSpaceOnUse">
<stop stop-color="#D75432"/>
<stop offset="1" stop-color="#FF806C"/>
</linearGradient>
<linearGradient id="paint8_linear_80_5600" x1="129.187" y1="47.2969" x2="176.558" y2="47.2969" gradientUnits="userSpaceOnUse">
<stop stop-color="#D75432"/>
<stop offset="1" stop-color="#FF806C"/>
</linearGradient>
<linearGradient id="paint9_linear_80_5600" x1="110.295" y1="35.4302" x2="131.711" y2="35.4302" gradientUnits="userSpaceOnUse">
<stop stop-color="#D75432"/>
<stop offset="1" stop-color="#FF806C"/>
</linearGradient>
<linearGradient id="paint10_linear_80_5600" x1="145.228" y1="72.4987" x2="207.365" y2="72.4987" gradientUnits="userSpaceOnUse">
<stop stop-color="#D75432"/>
<stop offset="1" stop-color="#FF806C"/>
</linearGradient>
<linearGradient id="paint11_linear_80_5600" x1="13.9048" y1="124.48" x2="67.5359" y2="124.48" gradientUnits="userSpaceOnUse">
<stop stop-color="#D75432"/>
<stop offset="1" stop-color="#FF806C"/>
</linearGradient>
<linearGradient id="paint12_linear_80_5600" x1="83.6854" y1="172.857" x2="99.6049" y2="172.857" gradientUnits="userSpaceOnUse">
<stop stop-color="#D75432"/>
<stop offset="1" stop-color="#FF806C"/>
</linearGradient>
</defs>
</svg>
