<svg width="54" height="45" viewBox="0 0 54 45" fill="none" xmlns="http://www.w3.org/2000/svg">
<g clip-path="url(#clip0_80_6058)">
<path d="M49.9329 3.248C49.6631 4.44211 49.3895 5.63622 49.1314 6.83033C47.1815 15.9316 45.2265 25.0341 43.2664 34.1379C43.1239 34.8038 43.0005 35.4736 42.8233 36.1319C42.2491 38.2981 40.6577 38.8454 38.8273 37.5173C35.6983 35.2439 32.5706 32.9693 29.4442 30.6933C28.5309 30.0274 28.5309 30.0274 27.7255 30.789C26.2047 32.2357 24.6839 33.6799 23.1631 35.1215C22.9265 35.3635 22.6422 35.5543 22.3279 35.6821C22.0136 35.8099 21.6761 35.8718 21.3366 35.864C21.3789 35.2248 21.4175 34.5971 21.4637 33.9733C21.6602 31.1947 21.8491 28.4161 22.0764 25.6375C22.1083 25.3997 22.2228 25.1804 22.4001 25.0175C28.7197 19.3659 35.0432 13.7207 41.3705 8.08184C41.4325 8.04153 41.4883 7.99254 41.5362 7.9364C41.6595 7.71825 41.7674 7.49245 41.883 7.27046C41.6218 7.17879 41.347 7.13093 41.07 7.12886C40.7652 7.20099 40.4773 7.33095 40.2222 7.51158C32.3741 12.385 24.5285 17.2635 16.6855 22.147C16.5274 22.2598 16.344 22.3323 16.1512 22.3583C15.9584 22.3844 15.7621 22.3631 15.5795 22.2963C12.3311 21.2706 9.06723 20.2793 5.81494 19.2575C5.37683 19.118 4.96337 18.9114 4.58955 18.6451C3.973 18.205 3.90364 17.5696 4.45853 17.0568C4.9004 16.6392 5.4148 16.3047 5.97679 16.0693C9.03641 14.8676 12.1153 13.7117 15.1865 12.5406C25.7012 8.54749 36.2147 4.55183 46.7268 0.553613C47.0306 0.431774 47.3494 0.350686 47.6748 0.312493C48.8308 0.20533 49.5514 0.729665 49.8442 1.8434C49.8686 1.92805 49.8982 2.01113 49.9329 2.09217V3.248Z" fill="white"/>
</g>
<defs>
<clipPath id="clip0_80_6058">
<rect width="52.4015" height="44.5332" fill="white" transform="translate(0.806641 0.298828)"/>
</clipPath>
</defs>
</svg>
