<svg width="46" height="38" viewBox="0 0 46 38" fill="none" xmlns="http://www.w3.org/2000/svg">
<path d="M45.7678 4.66254C44.1156 5.39994 42.3407 5.89819 40.4748 6.1234C42.4 4.96306 43.8404 3.13683 44.5271 0.985453C42.7183 2.06763 40.7386 2.82937 38.6741 3.23754C37.2858 1.74452 35.447 0.754915 33.4431 0.422379C31.4392 0.0898428 29.3823 0.432977 27.5919 1.39851C25.8014 2.36404 24.3776 3.89795 23.5413 5.76208C22.7051 7.62622 22.5033 9.71628 22.9672 11.7078C19.302 11.5224 15.7165 10.5629 12.4433 8.89149C9.17013 7.22007 6.28245 4.87411 3.96768 2.00587C3.1762 3.38104 2.7211 4.97544 2.7211 6.67347C2.72022 8.20209 3.09395 9.7073 3.80915 11.0555C4.52434 12.4038 5.55888 13.5534 6.82098 14.4023C5.35728 14.3554 3.92588 13.9571 2.64591 13.2404V13.36C2.64576 15.5039 3.38205 17.5819 4.72985 19.2413C6.07764 20.9007 7.95392 22.0394 10.0403 22.464C8.68251 22.8341 7.25894 22.8887 5.87713 22.6234C6.46579 24.4682 7.61245 26.0813 9.15657 27.2371C10.7007 28.3928 12.565 29.0333 14.4885 29.0688C11.2233 31.6506 7.19077 33.051 3.03967 33.0448C2.30435 33.045 1.56965 33.0018 0.839355 32.9153C5.05296 35.6441 9.95789 37.0923 14.9673 37.0866C31.9248 37.0866 41.195 22.9403 41.195 10.6714C41.195 10.2728 41.1851 9.87024 41.1673 9.47164C42.9705 8.1582 44.527 6.53176 45.7638 4.66851L45.7678 4.66254Z" fill="white"/>
</svg>
