<svg width="280" height="199" viewBox="0 0 280 199" fill="none" xmlns="http://www.w3.org/2000/svg">
<path d="M280 118.532C280 113.705 278.73 111.254 277.495 108.881C276.26 106.509 275.096 104.267 275.096 99.6546C275.009 96.54 275.538 93.4283 276.676 90.3563C277.843 87.1904 278.388 83.984 278.303 80.7747C278.303 75.9482 277.015 73.4938 275.775 71.1216C274.534 68.7494 273.351 66.5095 273.351 61.8974C273.351 57.2854 274.522 55.0402 275.693 52.668C276.863 50.2958 278.162 47.8441 278.162 43.0202C278.241 39.8179 277.746 36.618 276.682 33.4519C275.658 30.3703 275.19 27.2562 275.283 24.1403C275.23 21.0185 275.577 17.8979 276.325 14.7944C277.089 11.6293 277.445 8.44684 277.39 5.26308C277.422 4.95913 277.315 4.65545 277.075 4.37112C276.836 4.0868 276.468 3.828 275.997 3.61099C274.241 2.85114 271.566 2.88556 268.974 2.91998C268.441 2.91998 267.903 2.91998 267.364 2.91998C256.899 2.91998 251.813 2.39046 246.429 1.86094C241.044 1.33143 235.519 0.754256 224.598 0.754256C217.348 0.718012 210.104 0.958024 202.943 1.47175C195.977 1.97595 188.928 2.20979 181.873 2.17071C171.409 2.17071 166.323 1.64119 160.938 1.11168C155.554 0.582163 150.023 -0.000303932 139.108 -0.000303932C131.86 -0.0361689 124.617 0.195823 117.453 0.69336C110.483 1.18251 103.435 1.40922 96.3828 1.37114C85.725 1.37114 80.3053 1.29436 75.0671 1.22288C69.8289 1.15139 64.3391 1.07461 53.6228 1.07461C42.9065 1.07461 37.5453 0.995185 32.3013 0.921052C27.0573 0.84692 21.5791 0.767494 10.8569 0.767494C6.37958 0.767494 3.36547 2.57314 3.36547 5.26838C3.36547 9.98901 3.36547 12.348 3.36547 14.707C3.36547 17.066 3.36547 19.4276 3.36547 24.1483C3.4308 27.2675 3.01818 30.3849 2.13056 33.4783C1.22293 36.6446 0.800509 39.8355 0.86635 43.0282C0.86635 47.77 1.12386 50.1766 1.36968 52.5118C1.61549 54.8469 1.873 57.2086 1.873 61.908C1.873 66.6075 1.6506 68.9956 1.43405 71.3069C1.2175 73.6183 0.989234 76.0461 0.989234 80.7853C0.875711 84.0274 1.6483 87.2634 3.28939 90.4198C4.45993 92.8026 5.50173 95.0425 5.50173 99.6625C5.50173 104.283 4.21998 106.501 2.86801 108.871C1.51603 111.24 0.0996094 113.705 0.0996094 118.542C0.0996094 123.274 0.240129 125.691 0.374742 128.008C0.509354 130.324 0.649802 132.715 0.649802 137.422C0.558761 140.638 1.15661 143.851 2.43491 147.014C3.67462 150.077 4.25088 153.187 4.15558 156.3C4.15558 161.049 4.51256 163.464 4.85202 165.799C5.19147 168.134 5.53681 170.488 5.53681 175.177C5.53681 179.799 4.47748 182.045 3.35961 184.425C2.24175 186.805 1.08876 189.238 1.08876 194.057C1.08876 196.439 6.13382 198.028 10.8394 198.028C21.5557 198.028 27.0046 197.962 32.2779 197.901C37.5512 197.84 42.9416 197.776 53.6052 197.776C60.6712 197.743 67.7332 197.944 74.7336 198.38C81.9089 198.825 89.1466 199.032 96.3887 199C103.637 199.036 110.88 198.803 118.044 198.303C125.014 197.817 132.061 197.591 139.114 197.628C146.358 197.662 153.598 197.443 160.769 196.974C167.758 196.515 174.817 196.302 181.879 196.339C192.356 196.339 197.448 196.826 202.838 197.342C208.228 197.859 213.736 198.401 224.645 198.401C235.408 198.401 240.886 198.216 246.177 198.039C251.468 197.861 256.794 197.684 267.405 197.684C268.611 197.684 270.331 197.618 271.578 197.059C272.977 196.418 272.959 195.523 272.942 194.488C272.942 194.351 272.942 194.223 272.942 194.062C272.846 190.948 273.434 187.838 274.698 184.777C275.995 181.613 276.603 178.399 276.512 175.182C276.579 171.987 276.145 168.794 275.213 165.627C274.299 162.536 273.877 159.42 273.948 156.302C273.948 151.579 273.908 149.178 273.872 146.856C273.837 144.534 273.79 142.138 273.79 137.422C273.79 132.839 275.277 130.61 276.851 128.251C278.426 125.892 280 123.39 280 118.532Z" fill="white"/>
</svg>
