<svg width="259" height="350" viewBox="0 0 259 350" fill="none" xmlns="http://www.w3.org/2000/svg">
<g clip-path="url(#clip0_80_5376)">
<path d="M149.046 1.42795C145.944 1.82036 142.867 2.29634 139.815 2.8559C140.464 3.48652 141.252 3.95796 142.114 4.23298C142.977 4.508 143.893 4.57904 144.788 4.44055C145.683 4.30207 146.534 3.95784 147.273 3.43501C148.012 2.91218 148.619 2.22507 149.046 1.42795Z" fill="white"/>
<path d="M171.56 4.51274C172.863 4.51282 174.129 4.07845 175.156 3.2786C176.183 2.47874 176.913 1.35929 177.23 0.0981032C175.351 0.0436013 173.45 3.8147e-06 171.56 3.8147e-06C169.67 3.8147e-06 167.77 -1.81036e-07 165.88 0.0981032C166.2 1.35924 166.933 2.47788 167.962 3.27733C168.99 4.07679 170.256 4.51147 171.56 4.51274Z" fill="white"/>
<path d="M199.11 4.51274C199.876 4.51652 200.635 4.36922 201.344 4.07926C202.053 3.78931 202.697 3.36244 203.24 2.8232C200.188 2.27091 197.111 1.79493 194.009 1.39525C194.5 2.32452 195.233 3.10454 196.13 3.65317C197.028 4.20179 198.058 4.49872 199.11 4.51274Z" fill="white"/>
<path d="M88.6915 22.1823C87.5291 22.1823 86.3929 22.5262 85.4264 23.1706C84.4599 23.815 83.7066 24.7309 83.2618 25.8025C82.817 26.874 82.7006 28.0531 82.9274 29.1907C83.1542 30.3283 83.7138 31.3733 84.5358 32.1934C85.3577 33.0136 86.4049 33.5721 87.5449 33.7984C88.6849 34.0247 89.8667 33.9085 90.9406 33.4647C92.0145 33.0208 92.9323 32.2691 93.5781 31.3047C94.2238 30.3403 94.5686 29.2065 94.5686 28.0467C94.5686 26.4913 93.9493 24.9997 92.8472 23.8999C91.745 22.8001 90.2502 22.1823 88.6915 22.1823Z" fill="white"/>
<path d="M116.296 22.1823C115.134 22.1823 113.997 22.5262 113.031 23.1706C112.064 23.815 111.311 24.7309 110.866 25.8025C110.421 26.874 110.305 28.0531 110.532 29.1907C110.759 30.3283 111.318 31.3733 112.14 32.1934C112.962 33.0136 114.009 33.5721 115.149 33.7984C116.29 34.0247 117.471 33.9085 118.545 33.4647C119.619 33.0208 120.537 32.2691 121.183 31.3047C121.828 30.3403 122.173 29.2065 122.173 28.0467C122.173 26.4913 121.554 24.9997 120.452 23.8999C119.35 22.8001 117.855 22.1823 116.296 22.1823Z" fill="white"/>
<path d="M143.9 22.1823C142.738 22.1823 141.602 22.5262 140.635 23.1706C139.669 23.815 138.916 24.7309 138.471 25.8025C138.026 26.8741 137.91 28.0532 138.136 29.1907C138.363 30.3283 138.923 31.3733 139.745 32.1934C140.567 33.0136 141.614 33.5721 142.754 33.7984C143.894 34.0247 145.076 33.9085 146.15 33.4647C147.223 33.0208 148.141 32.2691 148.787 31.3047C149.433 30.3404 149.778 29.2065 149.778 28.0467C149.779 27.2762 149.628 26.5129 149.333 25.8008C149.038 25.0886 148.605 24.4415 148.059 23.8967C147.513 23.3519 146.865 22.9199 146.151 22.6257C145.438 22.3315 144.673 22.1808 143.9 22.1823Z" fill="white"/>
<path d="M171.56 22.1823C170.398 22.1823 169.262 22.5262 168.295 23.1706C167.329 23.815 166.575 24.7309 166.13 25.8025C165.686 26.8741 165.569 28.0532 165.796 29.1907C166.023 30.3283 166.582 31.3733 167.404 32.1934C168.226 33.0136 169.274 33.5721 170.414 33.7984C171.554 34.0247 172.735 33.9085 173.809 33.4647C174.883 33.0208 175.801 32.2691 176.447 31.3047C177.093 30.3404 177.437 29.2065 177.437 28.0467C177.439 27.2762 177.288 26.5129 176.993 25.8008C176.698 25.0886 176.265 24.4415 175.719 23.8967C175.173 23.3519 174.525 22.9199 173.811 22.6257C173.097 22.3315 172.332 22.1808 171.56 22.1823Z" fill="white"/>
<path d="M199.11 22.1823C197.948 22.1823 196.811 22.5262 195.845 23.1706C194.878 23.815 194.125 24.7309 193.68 25.8025C193.235 26.874 193.119 28.0531 193.346 29.1907C193.573 30.3283 194.132 31.3733 194.954 32.1934C195.776 33.0136 196.823 33.5721 197.963 33.7984C199.103 34.0247 200.285 33.9085 201.359 33.4647C202.433 33.0208 203.351 32.2691 203.997 31.3047C204.642 30.3403 204.987 29.2065 204.987 28.0467C204.987 26.4913 204.368 24.9997 203.266 23.8999C202.164 22.8001 200.669 22.1823 199.11 22.1823Z" fill="white"/>
<path d="M226.704 22.1823C225.542 22.1844 224.407 22.5302 223.442 23.1759C222.477 23.8216 221.725 24.7382 221.282 25.81C220.839 26.8818 220.724 28.0606 220.952 29.1974C221.18 30.3343 221.741 31.3782 222.563 32.1973C223.385 33.0163 224.433 33.5738 225.572 33.7992C226.712 34.0246 227.893 33.9078 228.967 33.4636C230.04 33.0194 230.957 32.2678 231.602 31.3036C232.248 30.3395 232.592 29.2061 232.592 28.0467C232.592 27.2756 232.44 26.5122 232.144 25.7999C231.848 25.0877 231.414 24.4407 230.867 23.896C230.32 23.3513 229.671 22.9196 228.956 22.6255C228.242 22.3315 227.477 22.1808 226.704 22.1823Z" fill="white"/>
<path d="M254.309 22.1823C253.146 22.1823 252.01 22.5262 251.044 23.1706C250.077 23.815 249.324 24.7309 248.879 25.8025C248.434 26.874 248.318 28.0531 248.545 29.1907C248.771 30.3283 249.331 31.3733 250.153 32.1934C250.975 33.0136 252.022 33.5721 253.162 33.7984C254.302 34.0247 255.484 33.9085 256.558 33.4647C257.632 33.0208 258.55 32.2691 259.195 31.3047C259.841 30.3403 260.186 29.2065 260.186 28.0467C260.186 26.4913 259.567 24.9997 258.464 23.8999C257.362 22.8001 255.867 22.1823 254.309 22.1823Z" fill="white"/>
<path d="M61.0865 51.5697C59.9242 51.5697 58.7879 51.9136 57.8214 52.558C56.8549 53.2024 56.1017 54.1183 55.6568 55.1899C55.212 56.2614 55.0956 57.4406 55.3224 58.5782C55.5492 59.7157 56.1089 60.7607 56.9309 61.5808C57.7528 62.401 58.8 62.9595 59.94 63.1858C61.08 63.412 62.2617 63.2959 63.3356 62.852C64.4095 62.4082 65.3274 61.6565 65.9732 60.6921C66.6189 59.7277 66.9636 58.5939 66.9636 57.4341C66.9636 55.8787 66.3444 54.3871 65.2423 53.2873C64.1401 52.1875 62.6452 51.5697 61.0865 51.5697Z" fill="white"/>
<path d="M88.6915 51.5697C87.5291 51.5697 86.3929 51.9136 85.4264 52.558C84.4599 53.2024 83.7066 54.1183 83.2618 55.1899C82.817 56.2614 82.7006 57.4406 82.9274 58.5782C83.1542 59.7157 83.7138 60.7607 84.5358 61.5808C85.3577 62.401 86.4049 62.9595 87.5449 63.1858C88.6849 63.412 89.8667 63.2959 90.9406 62.852C92.0145 62.4082 92.9323 61.6565 93.5781 60.6921C94.2238 59.7277 94.5686 58.5939 94.5686 57.4341C94.5686 55.8787 93.9493 54.3871 92.8472 53.2873C91.745 52.1875 90.2502 51.5697 88.6915 51.5697Z" fill="white"/>
<path d="M116.296 51.5697C115.134 51.5697 113.997 51.9136 113.031 52.558C112.064 53.2024 111.311 54.1183 110.866 55.1899C110.421 56.2614 110.305 57.4406 110.532 58.5782C110.759 59.7157 111.318 60.7607 112.14 61.5808C112.962 62.401 114.009 62.9595 115.149 63.1858C116.29 63.412 117.471 63.2959 118.545 62.852C119.619 62.4082 120.537 61.6565 121.183 60.6921C121.828 59.7277 122.173 58.5939 122.173 57.4341C122.173 55.8787 121.554 54.3871 120.452 53.2873C119.35 52.1875 117.855 51.5697 116.296 51.5697Z" fill="white"/>
<path d="M143.9 51.5697C142.738 51.5697 141.602 51.9136 140.635 52.558C139.669 53.2024 138.916 54.1183 138.471 55.1899C138.026 56.2614 137.91 57.4406 138.136 58.5782C138.363 59.7157 138.923 60.7607 139.745 61.5808C140.567 62.401 141.614 62.9595 142.754 63.1858C143.894 63.412 145.076 63.2959 146.15 62.852C147.223 62.4082 148.141 61.6565 148.787 60.6921C149.433 59.7277 149.778 58.5939 149.778 57.4341C149.778 55.8787 149.158 54.3871 148.056 53.2873C146.954 52.1875 145.459 51.5697 143.9 51.5697Z" fill="white"/>
<path d="M171.56 51.5697C170.398 51.5697 169.262 51.9136 168.295 52.558C167.329 53.2024 166.575 54.1183 166.13 55.1899C165.686 56.2614 165.569 57.4406 165.796 58.5782C166.023 59.7157 166.582 60.7607 167.404 61.5808C168.226 62.401 169.274 62.9595 170.414 63.1858C171.554 63.412 172.735 63.2959 173.809 62.852C174.883 62.4082 175.801 61.6565 176.447 60.6921C177.093 59.7277 177.437 58.5939 177.437 57.4341C177.437 55.8787 176.818 54.3871 175.716 53.2873C174.614 52.1875 173.119 51.5697 171.56 51.5697Z" fill="white"/>
<path d="M199.11 51.5697C197.948 51.5697 196.811 51.9136 195.845 52.558C194.878 53.2024 194.125 54.1183 193.68 55.1899C193.235 56.2614 193.119 57.4406 193.346 58.5782C193.573 59.7157 194.132 60.7607 194.954 61.5808C195.776 62.401 196.823 62.9595 197.963 63.1858C199.103 63.412 200.285 63.2959 201.359 62.852C202.433 62.4082 203.351 61.6565 203.997 60.6921C204.642 59.7277 204.987 58.5939 204.987 57.4341C204.987 55.8787 204.368 54.3871 203.266 53.2873C202.164 52.1875 200.669 51.5697 199.11 51.5697Z" fill="white"/>
<path d="M226.704 51.5697C225.542 51.5718 224.407 51.9176 223.442 52.5633C222.477 53.209 221.725 54.1256 221.282 55.1974C220.839 56.2692 220.724 57.448 220.952 58.5848C221.18 59.7217 221.741 60.7656 222.563 61.5846C223.385 62.4037 224.433 62.9612 225.572 63.1866C226.712 63.412 227.893 63.2952 228.967 62.851C230.04 62.4068 230.957 61.6552 231.602 60.691C232.248 59.7269 232.592 58.5935 232.592 57.4341C232.592 56.663 232.44 55.8995 232.144 55.1873C231.848 54.4751 231.414 53.8282 230.867 53.2835C230.32 52.7388 229.671 52.307 228.956 52.0129C228.242 51.7189 227.477 51.5682 226.704 51.5697Z" fill="white"/>
<path d="M254.309 51.5697C253.146 51.5697 252.01 51.9136 251.044 52.558C250.077 53.2024 249.324 54.1183 248.879 55.1899C248.434 56.2614 248.318 57.4406 248.545 58.5782C248.771 59.7157 249.331 60.7607 250.153 61.5808C250.975 62.401 252.022 62.9595 253.162 63.1858C254.302 63.412 255.484 63.2959 256.558 62.852C257.632 62.4082 258.55 61.6565 259.195 60.6921C259.841 59.7277 260.186 58.5939 260.186 57.4341C260.186 55.8787 259.567 54.3871 258.464 53.2873C257.362 52.1875 255.867 51.5697 254.309 51.5697Z" fill="white"/>
<path d="M33.4815 80.957C32.3192 80.957 31.1829 81.301 30.2164 81.9454C29.25 82.5898 28.4967 83.5057 28.0519 84.5772C27.607 85.6488 27.4907 86.828 27.7174 87.9655C27.9442 89.1031 28.5039 90.1481 29.3259 90.9682C30.1478 91.7884 31.195 92.3469 32.335 92.5732C33.4751 92.7995 34.6567 92.6833 35.7306 92.2395C36.8045 91.7956 37.7224 91.044 38.3682 90.0796C39.014 89.1152 39.3586 87.9813 39.3586 86.8215C39.3586 86.0513 39.2066 85.2887 38.9113 84.5772C38.6159 83.8657 38.183 83.2193 37.6373 82.6747C37.0916 82.1301 36.4436 81.6982 35.7306 81.4035C35.0176 81.1088 34.2533 80.957 33.4815 80.957Z" fill="white"/>
<path d="M61.0865 80.957C59.9242 80.957 58.7879 81.301 57.8214 81.9454C56.8549 82.5898 56.1017 83.5057 55.6568 84.5772C55.212 85.6488 55.0956 86.828 55.3224 87.9655C55.5492 89.1031 56.1089 90.1481 56.9309 90.9682C57.7528 91.7884 58.8 92.3469 59.94 92.5732C61.08 92.7995 62.2617 92.6833 63.3356 92.2395C64.4095 91.7956 65.3274 91.044 65.9732 90.0796C66.6189 89.1152 66.9636 87.9813 66.9636 86.8215C66.9636 85.2661 66.3444 83.7745 65.2423 82.6747C64.1401 81.5749 62.6452 80.957 61.0865 80.957Z" fill="white"/>
<path d="M88.6915 80.957C87.5291 80.957 86.3929 81.301 85.4264 81.9454C84.4599 82.5898 83.7066 83.5057 83.2618 84.5772C82.817 85.6488 82.7006 86.828 82.9274 87.9655C83.1542 89.1031 83.7138 90.1481 84.5358 90.9682C85.3577 91.7884 86.4049 92.3469 87.5449 92.5732C88.6849 92.7995 89.8667 92.6833 90.9406 92.2395C92.0145 91.7956 92.9323 91.044 93.5781 90.0796C94.2238 89.1152 94.5686 87.9813 94.5686 86.8215C94.5686 85.2661 93.9493 83.7745 92.8472 82.6747C91.745 81.5749 90.2502 80.957 88.6915 80.957Z" fill="white"/>
<path d="M116.296 80.957C115.134 80.957 113.997 81.301 113.031 81.9454C112.064 82.5898 111.311 83.5057 110.866 84.5772C110.421 85.6488 110.305 86.828 110.532 87.9655C110.759 89.1031 111.318 90.1481 112.14 90.9682C112.962 91.7884 114.009 92.3469 115.149 92.5732C116.29 92.7995 117.471 92.6833 118.545 92.2395C119.619 91.7956 120.537 91.044 121.183 90.0796C121.828 89.1152 122.173 87.9813 122.173 86.8215C122.173 85.2661 121.554 83.7745 120.452 82.6747C119.35 81.5749 117.855 80.957 116.296 80.957Z" fill="white"/>
<path d="M143.9 80.957C142.738 80.957 141.602 81.301 140.635 81.9454C139.669 82.5898 138.916 83.5057 138.471 84.5772C138.026 85.6488 137.91 86.828 138.136 87.9655C138.363 89.1031 138.923 90.1481 139.745 90.9682C140.567 91.7884 141.614 92.3469 142.754 92.5732C143.894 92.7995 145.076 92.6833 146.15 92.2395C147.223 91.7956 148.141 91.044 148.787 90.0796C149.433 89.1152 149.778 87.9813 149.778 86.8215C149.778 85.2661 149.158 83.7745 148.056 82.6747C146.954 81.5749 145.459 80.957 143.9 80.957Z" fill="white"/>
<path d="M171.56 80.957C170.398 80.957 169.262 81.301 168.295 81.9454C167.329 82.5898 166.575 83.5057 166.13 84.5772C165.686 85.6488 165.569 86.828 165.796 87.9655C166.023 89.1031 166.582 90.1481 167.404 90.9682C168.226 91.7884 169.274 92.3469 170.414 92.5732C171.554 92.7995 172.735 92.6833 173.809 92.2395C174.883 91.7956 175.801 91.044 176.447 90.0796C177.093 89.1152 177.437 87.9813 177.437 86.8215C177.437 85.2661 176.818 83.7745 175.716 82.6747C174.614 81.5749 173.119 80.957 171.56 80.957Z" fill="white"/>
<path d="M199.11 80.957C197.948 80.957 196.811 81.301 195.845 81.9454C194.878 82.5898 194.125 83.5057 193.68 84.5772C193.235 85.6488 193.119 86.828 193.346 87.9655C193.573 89.1031 194.132 90.1481 194.954 90.9682C195.776 91.7884 196.823 92.3469 197.963 92.5732C199.103 92.7995 200.285 92.6833 201.359 92.2395C202.433 91.7956 203.351 91.044 203.997 90.0796C204.642 89.1152 204.987 87.9813 204.987 86.8215C204.987 85.2661 204.368 83.7745 203.266 82.6747C202.164 81.5749 200.669 80.957 199.11 80.957Z" fill="white"/>
<path d="M226.704 80.9571C225.542 80.9592 224.407 81.305 223.442 81.9507C222.477 82.5964 221.725 83.513 221.282 84.5848C220.839 85.6566 220.724 86.8353 220.952 87.9722C221.18 89.1091 221.741 90.153 222.563 90.9721C223.385 91.7911 224.433 92.3486 225.572 92.574C226.712 92.7994 227.893 92.6826 228.967 92.2384C230.04 91.7942 230.957 91.0426 231.602 90.0784C232.248 89.1142 232.592 87.9809 232.592 86.8215C232.592 86.0504 232.44 85.2869 232.144 84.5747C231.848 83.8625 231.414 83.2156 230.867 82.6709C230.32 82.1261 229.671 81.6944 228.956 81.4003C228.242 81.1062 227.477 80.9556 226.704 80.9571Z" fill="white"/>
<path d="M254.309 80.957C253.146 80.957 252.01 81.301 251.044 81.9454C250.077 82.5898 249.324 83.5057 248.879 84.5772C248.434 85.6488 248.318 86.828 248.545 87.9655C248.771 89.1031 249.331 90.1481 250.153 90.9682C250.975 91.7884 252.022 92.3469 253.162 92.5732C254.302 92.7995 255.484 92.6833 256.558 92.2395C257.632 91.7956 258.55 91.044 259.195 90.0796C259.841 89.1152 260.186 87.9813 260.186 86.8215C260.186 85.2661 259.567 83.7745 258.464 82.6747C257.362 81.5749 255.867 80.957 254.309 80.957Z" fill="white"/>
<path d="M8.26947 110.868C6.84937 114.501 5.54941 118.167 4.36963 121.866C4.86125 122 5.36757 122.074 5.87713 122.084C7.22164 122.082 8.52468 121.62 9.56896 120.775C10.6132 119.93 11.3356 118.753 11.6155 117.441C11.8953 116.128 11.7158 114.76 11.1069 113.564C10.498 112.368 9.49653 111.416 8.26947 110.868Z" fill="white"/>
<path d="M33.4816 110.355C32.3187 110.36 31.1834 110.708 30.2191 111.357C29.2548 112.005 28.505 112.924 28.0645 113.998C27.624 115.072 27.5126 116.252 27.7445 117.389C27.9764 118.526 28.5411 119.569 29.3672 120.386C30.1932 121.202 31.2435 121.756 32.3851 121.977C33.5267 122.198 34.7083 122.076 35.7803 121.626C36.8523 121.177 37.7667 120.42 38.4075 119.452C39.0484 118.484 39.387 117.347 39.3805 116.187C39.3718 114.634 38.7458 113.147 37.6398 112.054C36.5339 110.96 35.0384 110.35 33.4816 110.355Z" fill="white"/>
<path d="M61.0865 110.355C59.9242 110.355 58.7879 110.699 57.8214 111.344C56.8549 111.988 56.1017 112.904 55.6568 113.976C55.212 115.047 55.0956 116.226 55.3224 117.364C55.5492 118.501 56.1089 119.546 56.9309 120.366C57.7528 121.187 58.8 121.745 59.94 121.971C61.08 122.198 62.2617 122.082 63.3356 121.638C64.4095 121.194 65.3274 120.442 65.9732 119.478C66.6189 118.513 66.9636 117.38 66.9636 116.22C66.9636 114.664 66.3444 113.173 65.2423 112.073C64.1401 110.973 62.6452 110.355 61.0865 110.355Z" fill="white"/>
<path d="M88.6915 110.355C87.5291 110.355 86.3929 110.699 85.4264 111.344C84.4599 111.988 83.7066 112.904 83.2618 113.976C82.817 115.047 82.7006 116.226 82.9274 117.364C83.1542 118.501 83.7138 119.546 84.5358 120.366C85.3577 121.187 86.4049 121.745 87.5449 121.971C88.6849 122.198 89.8667 122.082 90.9406 121.638C92.0145 121.194 92.9323 120.442 93.5781 119.478C94.2238 118.513 94.5686 117.38 94.5686 116.22C94.5686 114.664 93.9493 113.173 92.8472 112.073C91.745 110.973 90.2502 110.355 88.6915 110.355Z" fill="white"/>
<path d="M116.296 110.355C115.134 110.355 113.997 110.699 113.031 111.344C112.064 111.988 111.311 112.904 110.866 113.976C110.421 115.047 110.305 116.226 110.532 117.364C110.759 118.501 111.318 119.546 112.14 120.366C112.962 121.187 114.009 121.745 115.149 121.971C116.29 122.198 117.471 122.082 118.545 121.638C119.619 121.194 120.537 120.442 121.183 119.478C121.828 118.513 122.173 117.38 122.173 116.22C122.173 114.664 121.554 113.173 120.452 112.073C119.35 110.973 117.855 110.355 116.296 110.355Z" fill="white"/>
<path d="M143.9 110.355C142.738 110.355 141.602 110.699 140.635 111.344C139.669 111.988 138.916 112.904 138.471 113.976C138.026 115.047 137.91 116.226 138.136 117.364C138.363 118.501 138.923 119.546 139.745 120.366C140.567 121.187 141.614 121.745 142.754 121.971C143.894 122.198 145.076 122.082 146.15 121.638C147.223 121.194 148.141 120.442 148.787 119.478C149.433 118.513 149.778 117.38 149.778 116.22C149.778 114.664 149.158 113.173 148.056 112.073C146.954 110.973 145.459 110.355 143.9 110.355Z" fill="white"/>
<path d="M171.56 110.355C170.398 110.355 169.262 110.699 168.295 111.344C167.329 111.988 166.575 112.904 166.13 113.976C165.686 115.047 165.569 116.226 165.796 117.364C166.023 118.501 166.582 119.546 167.404 120.366C168.226 121.187 169.274 121.745 170.414 121.971C171.554 122.198 172.735 122.082 173.809 121.638C174.883 121.194 175.801 120.442 176.447 119.478C177.093 118.513 177.437 117.38 177.437 116.22C177.437 114.664 176.818 113.173 175.716 112.073C174.614 110.973 173.119 110.355 171.56 110.355Z" fill="white"/>
<path d="M199.11 110.355C197.947 110.355 196.809 110.7 195.842 111.346C194.875 111.992 194.121 112.91 193.678 113.983C193.234 115.057 193.119 116.237 193.349 117.376C193.578 118.514 194.141 119.559 194.966 120.378C195.792 121.197 196.842 121.753 197.984 121.975C199.126 122.198 200.309 122.077 201.382 121.628C202.456 121.179 203.371 120.423 204.013 119.454C204.655 118.485 204.994 117.348 204.987 116.187C204.979 114.637 204.356 113.154 203.255 112.061C202.153 110.969 200.663 110.355 199.11 110.355Z" fill="white"/>
<path d="M226.704 110.355C225.542 110.357 224.407 110.703 223.442 111.349C222.477 111.995 221.725 112.911 221.282 113.983C220.839 115.055 220.724 116.234 220.952 117.37C221.18 118.507 221.741 119.551 222.563 120.37C223.385 121.189 224.433 121.747 225.572 121.972C226.712 122.198 227.893 122.081 228.967 121.637C230.04 121.193 230.957 120.441 231.602 119.477C232.248 118.513 232.592 117.379 232.592 116.22C232.592 115.449 232.44 114.685 232.144 113.973C231.848 113.261 231.414 112.614 230.867 112.069C230.32 111.524 229.671 111.093 228.956 110.799C228.242 110.505 227.477 110.354 226.704 110.355Z" fill="white"/>
<path d="M254.309 110.355C253.146 110.355 252.01 110.699 251.044 111.344C250.077 111.988 249.324 112.904 248.879 113.976C248.434 115.047 248.318 116.226 248.545 117.364C248.771 118.501 249.331 119.546 250.153 120.366C250.975 121.187 252.022 121.745 253.162 121.971C254.302 122.198 255.484 122.082 256.558 121.638C257.632 121.194 258.55 120.442 259.195 119.478C259.841 118.513 260.186 117.38 260.186 116.22C260.186 114.664 259.567 113.173 258.464 112.073C257.362 110.973 255.867 110.355 254.309 110.355Z" fill="white"/>
<path d="M5.8771 139.743C4.71473 139.743 3.57841 140.087 2.61193 140.731C1.64545 141.375 0.892238 142.291 0.447417 143.363C0.00259541 144.435 -0.113856 145.614 0.112912 146.751C0.33968 147.889 0.89944 148.934 1.72136 149.754C2.54328 150.574 3.59047 151.133 4.73051 151.359C5.87055 151.585 7.05227 151.469 8.12616 151.025C9.20005 150.581 10.1179 149.83 10.7637 148.865C11.4094 147.901 11.7542 146.767 11.7542 145.607C11.7542 144.052 11.1349 142.56 10.0328 141.46C8.93062 140.361 7.4358 139.743 5.8771 139.743Z" fill="white"/>
<path d="M33.4816 139.743C32.3207 139.747 31.187 140.094 30.2237 140.741C29.2603 141.387 28.5104 142.304 28.0686 143.376C27.6268 144.447 27.5129 145.625 27.7413 146.761C27.9696 147.896 28.53 148.939 29.3516 149.758C30.1733 150.576 31.2196 151.133 32.3583 151.359C33.497 151.585 34.6772 151.469 35.75 151.026C36.8229 150.583 37.7402 149.833 38.3863 148.871C39.0325 147.908 39.3784 146.777 39.3806 145.618C39.382 144.845 39.2303 144.08 38.9343 143.365C38.6382 142.651 38.2036 142.003 37.6554 141.457C37.1072 140.911 36.4563 140.478 35.74 140.184C35.0237 139.89 34.2562 139.74 33.4816 139.743Z" fill="white"/>
<path d="M61.0865 139.743C59.9242 139.743 58.7879 140.087 57.8214 140.731C56.8549 141.375 56.1017 142.291 55.6568 143.363C55.212 144.435 55.0956 145.614 55.3224 146.751C55.5492 147.889 56.1089 148.934 56.9309 149.754C57.7528 150.574 58.8 151.133 59.94 151.359C61.08 151.585 62.2617 151.469 63.3356 151.025C64.4095 150.581 65.3274 149.83 65.9732 148.865C66.6189 147.901 66.9636 146.767 66.9636 145.607C66.9636 144.052 66.3444 142.56 65.2423 141.46C64.1401 140.361 62.6452 139.743 61.0865 139.743Z" fill="white"/>
<path d="M88.6915 139.743C87.5291 139.743 86.3929 140.087 85.4264 140.731C84.4599 141.375 83.7066 142.291 83.2618 143.363C82.817 144.435 82.7006 145.614 82.9274 146.751C83.1542 147.889 83.7138 148.934 84.5358 149.754C85.3577 150.574 86.4049 151.133 87.5449 151.359C88.6849 151.585 89.8667 151.469 90.9406 151.025C92.0145 150.581 92.9323 149.83 93.5781 148.865C94.2238 147.901 94.5686 146.767 94.5686 145.607C94.5686 144.052 93.9493 142.56 92.8472 141.46C91.745 140.361 90.2502 139.743 88.6915 139.743Z" fill="white"/>
<path d="M116.296 139.743C115.134 139.743 113.997 140.087 113.031 140.731C112.064 141.375 111.311 142.291 110.866 143.363C110.421 144.435 110.305 145.614 110.532 146.751C110.759 147.889 111.318 148.934 112.14 149.754C112.962 150.574 114.009 151.133 115.149 151.359C116.29 151.585 117.471 151.469 118.545 151.025C119.619 150.581 120.537 149.83 121.183 148.865C121.828 147.901 122.173 146.767 122.173 145.607C122.173 144.052 121.554 142.56 120.452 141.46C119.35 140.361 117.855 139.743 116.296 139.743Z" fill="white"/>
<path d="M143.9 139.743C142.738 139.743 141.602 140.087 140.635 140.731C139.669 141.375 138.916 142.291 138.471 143.363C138.026 144.435 137.91 145.614 138.136 146.751C138.363 147.889 138.923 148.934 139.745 149.754C140.567 150.574 141.614 151.133 142.754 151.359C143.894 151.585 145.076 151.469 146.15 151.025C147.223 150.581 148.141 149.83 148.787 148.865C149.433 147.901 149.778 146.767 149.778 145.607C149.778 144.052 149.158 142.56 148.056 141.46C146.954 140.361 145.459 139.743 143.9 139.743Z" fill="white"/>
<path d="M171.56 139.743C170.398 139.743 169.262 140.087 168.295 140.731C167.329 141.375 166.575 142.291 166.13 143.363C165.686 144.435 165.569 145.614 165.796 146.751C166.023 147.889 166.582 148.934 167.404 149.754C168.226 150.574 169.274 151.133 170.414 151.359C171.554 151.585 172.735 151.469 173.809 151.025C174.883 150.581 175.801 149.83 176.447 148.865C177.093 147.901 177.437 146.767 177.437 145.607C177.437 144.052 176.818 142.56 175.716 141.46C174.614 140.361 173.119 139.743 171.56 139.743Z" fill="white"/>
<path d="M199.11 139.743C197.948 139.743 196.812 140.086 195.846 140.73C194.88 141.374 194.126 142.289 193.681 143.36C193.236 144.431 193.119 145.61 193.345 146.747C193.571 147.885 194.13 148.929 194.95 149.75C195.771 150.571 196.817 151.13 197.957 151.358C199.096 151.585 200.277 151.47 201.351 151.028C202.426 150.586 203.344 149.836 203.991 148.873C204.638 147.91 204.985 146.777 204.987 145.618C204.988 144.847 204.838 144.083 204.543 143.37C204.248 142.658 203.815 142.01 203.27 141.464C202.724 140.919 202.075 140.486 201.362 140.19C200.648 139.895 199.883 139.743 199.11 139.743Z" fill="white"/>
<path d="M226.704 139.743C225.542 139.745 224.407 140.091 223.442 140.736C222.477 141.382 221.725 142.299 221.282 143.37C220.839 144.442 220.724 145.621 220.952 146.758C221.18 147.895 221.741 148.939 222.563 149.758C223.385 150.577 224.433 151.134 225.572 151.36C226.712 151.585 227.893 151.468 228.967 151.024C230.04 150.58 230.957 149.828 231.602 148.864C232.248 147.9 232.592 146.767 232.592 145.607C232.592 144.836 232.44 144.073 232.144 143.36C231.848 142.648 231.414 142.001 230.867 141.457C230.32 140.912 229.671 140.48 228.956 140.186C228.242 139.892 227.477 139.741 226.704 139.743Z" fill="white"/>
<path d="M254.309 139.743C253.146 139.743 252.01 140.087 251.044 140.731C250.077 141.375 249.324 142.291 248.879 143.363C248.434 144.435 248.318 145.614 248.545 146.751C248.771 147.889 249.331 148.934 250.153 149.754C250.975 150.574 252.022 151.133 253.162 151.359C254.302 151.585 255.484 151.469 256.558 151.025C257.632 150.581 258.55 149.83 259.195 148.865C259.841 147.901 260.186 146.767 260.186 145.607C260.186 144.052 259.567 142.56 258.464 141.46C257.362 140.361 255.867 139.743 254.309 139.743Z" fill="white"/>
<path d="M5.87697 169.13C4.71197 169.128 3.57251 169.471 2.6028 170.115C1.63309 170.759 0.876673 171.676 0.429349 172.749C-0.0179743 173.823 -0.13611 175.005 0.0898438 176.145C0.315798 177.285 0.875681 178.333 1.69869 179.156C2.52171 179.979 3.57085 180.539 4.71331 180.767C5.85576 180.995 7.04024 180.879 8.11676 180.435C9.19329 179.99 10.1135 179.237 10.7609 178.271C11.4084 177.304 11.754 176.168 11.754 175.005C11.7555 174.234 11.6045 173.471 11.3098 172.758C11.0151 172.045 10.5824 171.397 10.0365 170.852C9.49063 170.306 8.84231 169.873 8.12856 169.578C7.41481 169.282 6.64968 169.13 5.87697 169.13Z" fill="white"/>
<path d="M33.4819 169.13C32.3197 169.132 31.1842 169.478 30.2183 170.123C29.2524 170.768 28.4994 171.683 28.0542 172.755C27.609 173.826 27.4914 175.005 27.7163 176.142C27.9412 177.28 28.4985 178.326 29.3181 179.148C30.1376 179.971 31.1826 180.533 32.3216 180.763C33.4606 180.994 34.6425 180.883 35.7185 180.445C36.7944 180.007 37.7164 179.26 38.3681 178.3C39.0198 177.34 39.3722 176.209 39.3808 175.049C39.3881 174.272 39.2406 173.502 38.9472 172.783C38.6537 172.064 38.22 171.41 37.6712 170.859C37.1224 170.309 36.4696 169.872 35.7504 169.575C35.0312 169.279 34.2601 169.127 33.4819 169.13Z" fill="white"/>
<path d="M61.0864 169.13C59.9214 169.128 58.782 169.471 57.8123 170.115C56.8425 170.759 56.0862 171.676 55.6389 172.749C55.1915 173.823 55.0733 175.005 55.2993 176.145C55.5253 177.285 56.0852 178.333 56.9082 179.156C57.7312 179.979 58.7804 180.539 59.9228 180.767C61.0653 180.995 62.2497 180.879 63.3262 180.435C64.4027 179.99 65.323 179.237 65.9705 178.271C66.6179 177.304 66.9635 176.168 66.9635 175.005C66.9649 174.234 66.814 173.471 66.5192 172.758C66.2245 172.045 65.7919 171.397 65.246 170.852C64.7002 170.306 64.0518 169.873 63.338 169.578C62.6243 169.282 61.8591 169.13 61.0864 169.13Z" fill="white"/>
<path d="M88.6914 169.13C87.5264 169.128 86.387 169.471 85.4173 170.115C84.4475 170.759 83.6911 171.676 83.2438 172.749C82.7965 173.823 82.6783 175.005 82.9043 176.145C83.1303 177.285 83.6902 178.333 84.5132 179.156C85.3362 179.979 86.3853 180.539 87.5278 180.767C88.6702 180.995 89.8547 180.879 90.9312 180.435C92.0077 179.99 92.9279 179.237 93.5754 178.271C94.2228 177.304 94.5685 176.168 94.5685 175.005C94.5699 174.234 94.419 173.471 94.1242 172.758C93.8295 172.045 93.3968 171.397 92.851 170.852C92.3051 170.306 91.6568 169.873 90.943 169.578C90.2293 169.282 89.4641 169.13 88.6914 169.13Z" fill="white"/>
<path d="M116.296 169.13C115.131 169.128 113.991 169.471 113.022 170.115C112.052 170.759 111.296 171.676 110.848 172.749C110.401 173.823 110.283 175.005 110.509 176.145C110.735 177.285 111.295 178.333 112.118 179.156C112.941 179.979 113.99 180.539 115.132 180.767C116.275 180.995 117.459 180.879 118.536 180.435C119.612 179.99 120.532 179.237 121.18 178.271C121.827 177.304 122.173 176.168 122.173 175.005C122.174 174.234 122.023 173.471 121.729 172.758C121.434 172.045 121.001 171.397 120.455 170.852C119.91 170.306 119.261 169.873 118.547 169.578C117.834 169.282 117.069 169.13 116.296 169.13Z" fill="white"/>
<path d="M143.901 169.13C142.736 169.128 141.596 169.471 140.627 170.115C139.657 170.759 138.901 171.676 138.453 172.749C138.006 173.823 137.888 175.005 138.114 176.145C138.34 177.285 138.9 178.333 139.723 179.156C140.546 179.979 141.595 180.539 142.737 180.767C143.88 180.995 145.064 180.879 146.141 180.435C147.217 179.99 148.137 179.237 148.785 178.271C149.432 177.304 149.778 176.168 149.778 175.005C149.779 174.234 149.628 173.471 149.334 172.758C149.039 172.045 148.606 171.397 148.06 170.852C147.515 170.306 146.866 169.873 146.152 169.578C145.439 169.282 144.674 169.13 143.901 169.13Z" fill="white"/>
<path d="M171.56 169.13C170.395 169.128 169.256 169.471 168.286 170.115C167.316 170.759 166.56 171.676 166.113 172.749C165.665 173.823 165.547 175.005 165.773 176.145C165.999 177.285 166.559 178.333 167.382 179.156C168.205 179.979 169.254 180.539 170.396 180.767C171.539 180.995 172.723 180.879 173.8 180.435C174.876 179.99 175.797 179.237 176.444 178.271C177.092 177.304 177.437 176.168 177.437 175.005C177.439 174.234 177.288 173.471 176.993 172.758C176.698 172.045 176.266 171.397 175.72 170.852C175.174 170.306 174.525 169.873 173.812 169.578C173.098 169.282 172.333 169.13 171.56 169.13Z" fill="white"/>
<path d="M199.11 169.13C197.947 169.128 196.809 169.47 195.841 170.112C194.872 170.754 194.116 171.669 193.667 172.74C193.218 173.81 193.098 174.99 193.32 176.129C193.543 177.268 194.098 178.316 194.917 179.141C195.735 179.965 196.78 180.529 197.92 180.762C199.06 180.994 200.243 180.885 201.32 180.447C202.397 180.009 203.32 179.263 203.973 178.302C204.626 177.342 204.979 176.21 204.987 175.049C204.993 174.275 204.845 173.507 204.553 172.79C204.26 172.073 203.828 171.42 203.282 170.87C202.736 170.32 202.086 169.883 201.37 169.585C200.654 169.286 199.886 169.132 199.11 169.13Z" fill="white"/>
<path d="M226.704 169.13C225.539 169.13 224.401 169.475 223.433 170.12C222.464 170.766 221.71 171.684 221.264 172.757C220.819 173.831 220.702 175.012 220.929 176.152C221.156 177.291 221.717 178.338 222.54 179.16C223.364 179.982 224.413 180.541 225.555 180.768C226.697 180.995 227.881 180.878 228.957 180.434C230.033 179.989 230.953 179.236 231.6 178.27C232.247 177.303 232.592 176.168 232.592 175.005C232.593 174.234 232.442 173.469 232.147 172.755C231.851 172.042 231.418 171.394 230.871 170.848C230.324 170.302 229.674 169.869 228.959 169.574C228.244 169.28 227.478 169.129 226.704 169.13Z" fill="white"/>
<path d="M254.309 169.13C253.144 169.128 252.004 169.471 251.034 170.115C250.065 170.759 249.308 171.676 248.861 172.749C248.414 173.823 248.296 175.005 248.521 176.145C248.747 177.285 249.307 178.333 250.13 179.156C250.953 179.979 252.002 180.539 253.145 180.767C254.287 180.995 255.472 180.879 256.548 180.435C257.625 179.99 258.545 179.237 259.193 178.271C259.84 177.304 260.186 176.168 260.186 175.005C260.187 174.234 260.036 173.471 259.741 172.758C259.447 172.045 259.014 171.397 258.468 170.852C257.922 170.306 257.274 169.873 256.56 169.578C255.846 169.282 255.081 169.13 254.309 169.13Z" fill="white"/>
<path d="M5.8771 198.528C4.71473 198.528 3.57841 198.872 2.61193 199.517C1.64545 200.161 0.892238 201.077 0.447417 202.149C0.00259541 203.22 -0.113856 204.399 0.112912 205.537C0.33968 206.675 0.89944 207.719 1.72136 208.54C2.54328 209.36 3.59047 209.918 4.73051 210.145C5.87055 210.371 7.05227 210.255 8.12616 209.811C9.20005 209.367 10.1179 208.615 10.7637 207.651C11.4094 206.687 11.7542 205.553 11.7542 204.393C11.7542 202.838 11.1349 201.346 10.0328 200.246C8.93062 199.146 7.4358 198.528 5.8771 198.528Z" fill="white"/>
<path d="M33.4815 198.528C32.3192 198.528 31.1829 198.872 30.2164 199.517C29.25 200.161 28.4967 201.077 28.0519 202.149C27.607 203.22 27.4907 204.399 27.7174 205.537C27.9442 206.675 28.5039 207.719 29.3259 208.54C30.1478 209.36 31.195 209.918 32.335 210.145C33.4751 210.371 34.6567 210.255 35.7306 209.811C36.8045 209.367 37.7224 208.615 38.3682 207.651C39.014 206.687 39.3586 205.553 39.3586 204.393C39.3586 203.623 39.2066 202.86 38.9113 202.149C38.6159 201.437 38.183 200.791 37.6373 200.246C37.0916 199.702 36.4436 199.27 35.7306 198.975C35.0176 198.68 34.2533 198.528 33.4815 198.528Z" fill="white"/>
<path d="M61.0865 210.257C64.3324 210.257 66.9636 207.632 66.9636 204.393C66.9636 201.154 64.3324 198.528 61.0865 198.528C57.8407 198.528 55.2095 201.154 55.2095 204.393C55.2095 207.632 57.8407 210.257 61.0865 210.257Z" fill="white"/>
<path d="M88.6915 198.528C87.5291 198.528 86.3929 198.872 85.4264 199.517C84.4599 200.161 83.7066 201.077 83.2618 202.149C82.817 203.22 82.7006 204.399 82.9274 205.537C83.1542 206.675 83.7138 207.719 84.5358 208.54C85.3577 209.36 86.4049 209.918 87.5449 210.145C88.6849 210.371 89.8667 210.255 90.9406 209.811C92.0145 209.367 92.9323 208.615 93.5781 207.651C94.2238 206.687 94.5686 205.553 94.5686 204.393C94.5686 202.838 93.9493 201.346 92.8472 200.246C91.745 199.146 90.2502 198.528 88.6915 198.528Z" fill="white"/>
<path d="M116.296 210.257C119.542 210.257 122.173 207.632 122.173 204.393C122.173 201.154 119.542 198.528 116.296 198.528C113.05 198.528 110.419 201.154 110.419 204.393C110.419 207.632 113.05 210.257 116.296 210.257Z" fill="white"/>
<path d="M143.9 198.528C142.738 198.528 141.602 198.872 140.635 199.517C139.669 200.161 138.916 201.077 138.471 202.149C138.026 203.22 137.91 204.399 138.136 205.537C138.363 206.675 138.923 207.719 139.745 208.54C140.567 209.36 141.614 209.918 142.754 210.145C143.894 210.371 145.076 210.255 146.15 209.811C147.223 209.367 148.141 208.615 148.787 207.651C149.433 206.687 149.778 205.553 149.778 204.393C149.778 202.838 149.158 201.346 148.056 200.246C146.954 199.146 145.459 198.528 143.9 198.528Z" fill="white"/>
<path d="M171.56 198.528C170.398 198.528 169.262 198.872 168.295 199.517C167.329 200.161 166.575 201.077 166.13 202.149C165.686 203.22 165.569 204.399 165.796 205.537C166.023 206.675 166.582 207.719 167.404 208.54C168.226 209.36 169.274 209.918 170.414 210.145C171.554 210.371 172.735 210.255 173.809 209.811C174.883 209.367 175.801 208.615 176.447 207.651C177.093 206.687 177.437 205.553 177.437 204.393C177.437 202.838 176.818 201.346 175.716 200.246C174.614 199.146 173.119 198.528 171.56 198.528Z" fill="white"/>
<path d="M199.11 210.257C202.356 210.257 204.987 207.632 204.987 204.393C204.987 201.154 202.356 198.528 199.11 198.528C195.864 198.528 193.233 201.154 193.233 204.393C193.233 207.632 195.864 210.257 199.11 210.257Z" fill="white"/>
<path d="M226.704 198.528C225.542 198.531 224.407 198.876 223.442 199.522C222.477 200.168 221.725 201.084 221.282 202.156C220.839 203.228 220.724 204.407 220.952 205.544C221.18 206.681 221.741 207.724 222.563 208.544C223.385 209.363 224.433 209.92 225.572 210.145C226.712 210.371 227.893 210.254 228.967 209.81C230.04 209.366 230.957 208.614 231.602 207.65C232.248 206.686 232.592 205.552 232.592 204.393C232.592 203.622 232.44 202.858 232.144 202.146C231.848 201.434 231.414 200.787 230.867 200.242C230.32 199.698 229.671 199.266 228.956 198.972C228.242 198.678 227.477 198.527 226.704 198.528Z" fill="white"/>
<path d="M254.309 198.528C253.146 198.528 252.01 198.872 251.044 199.517C250.077 200.161 249.324 201.077 248.879 202.149C248.434 203.22 248.318 204.399 248.545 205.537C248.771 206.675 249.331 207.719 250.153 208.54C250.975 209.36 252.022 209.918 253.162 210.145C254.302 210.371 255.484 210.255 256.558 209.811C257.632 209.367 258.55 208.615 259.195 207.651C259.841 206.687 260.186 205.553 260.186 204.393C260.186 202.838 259.567 201.346 258.464 200.246C257.362 199.146 255.867 198.528 254.309 198.528Z" fill="white"/>
<path d="M5.87713 227.916C5.36757 227.926 4.86125 228 4.36963 228.134C5.54941 231.862 6.84937 235.528 8.26947 239.132C9.49653 238.584 10.498 237.632 11.1069 236.436C11.7158 235.24 11.8953 233.872 11.6155 232.559C11.3356 231.247 10.6132 230.07 9.56896 229.225C8.52468 228.38 7.22164 227.918 5.87713 227.916Z" fill="white"/>
<path d="M33.4815 227.916C32.3192 227.916 31.1829 228.26 30.2164 228.904C29.25 229.549 28.4967 230.464 28.0519 231.536C27.607 232.608 27.4907 233.787 27.7174 234.924C27.9442 236.062 28.5039 237.107 29.3259 237.927C30.1478 238.747 31.195 239.306 32.335 239.532C33.4751 239.758 34.6567 239.642 35.7306 239.198C36.8045 238.754 37.7224 238.003 38.3682 237.038C39.014 236.074 39.3586 234.94 39.3586 233.78C39.3586 233.01 39.2066 232.248 38.9113 231.536C38.6159 230.825 38.183 230.178 37.6373 229.633C37.0916 229.089 36.4436 228.657 35.7306 228.362C35.0176 228.068 34.2533 227.916 33.4815 227.916Z" fill="white"/>
<path d="M61.0865 227.916C59.9242 227.916 58.7879 228.26 57.8214 228.904C56.8549 229.549 56.1017 230.464 55.6568 231.536C55.212 232.608 55.0956 233.787 55.3224 234.924C55.5492 236.062 56.1089 237.107 56.9309 237.927C57.7528 238.747 58.8 239.306 59.94 239.532C61.08 239.758 62.2617 239.642 63.3356 239.198C64.4095 238.754 65.3274 238.003 65.9732 237.038C66.6189 236.074 66.9636 234.94 66.9636 233.78C66.9636 232.225 66.3444 230.733 65.2423 229.633C64.1401 228.534 62.6452 227.916 61.0865 227.916Z" fill="white"/>
<path d="M88.6915 227.916C87.5291 227.916 86.3929 228.26 85.4264 228.904C84.4599 229.549 83.7066 230.464 83.2618 231.536C82.817 232.608 82.7006 233.787 82.9274 234.924C83.1542 236.062 83.7138 237.107 84.5358 237.927C85.3577 238.747 86.4049 239.306 87.5449 239.532C88.6849 239.758 89.8667 239.642 90.9406 239.198C92.0145 238.754 92.9323 238.003 93.5781 237.038C94.2238 236.074 94.5686 234.94 94.5686 233.78C94.5686 232.225 93.9493 230.733 92.8472 229.633C91.745 228.534 90.2502 227.916 88.6915 227.916Z" fill="white"/>
<path d="M116.296 227.916C115.134 227.916 113.997 228.26 113.031 228.904C112.064 229.549 111.311 230.464 110.866 231.536C110.421 232.608 110.305 233.787 110.532 234.924C110.759 236.062 111.318 237.107 112.14 237.927C112.962 238.747 114.009 239.306 115.149 239.532C116.29 239.758 117.471 239.642 118.545 239.198C119.619 238.754 120.537 238.003 121.183 237.038C121.828 236.074 122.173 234.94 122.173 233.78C122.173 232.225 121.554 230.733 120.452 229.633C119.35 228.534 117.855 227.916 116.296 227.916Z" fill="white"/>
<path d="M143.9 227.916C142.738 227.916 141.602 228.26 140.635 228.904C139.669 229.549 138.916 230.464 138.471 231.536C138.026 232.608 137.91 233.787 138.136 234.924C138.363 236.062 138.923 237.107 139.745 237.927C140.567 238.747 141.614 239.306 142.754 239.532C143.894 239.758 145.076 239.642 146.15 239.198C147.223 238.754 148.141 238.003 148.787 237.038C149.433 236.074 149.778 234.94 149.778 233.78C149.778 232.225 149.158 230.733 148.056 229.633C146.954 228.534 145.459 227.916 143.9 227.916Z" fill="white"/>
<path d="M171.56 227.916C170.398 227.916 169.262 228.26 168.295 228.904C167.329 229.549 166.575 230.464 166.13 231.536C165.686 232.608 165.569 233.787 165.796 234.924C166.023 236.062 166.582 237.107 167.404 237.927C168.226 238.747 169.274 239.306 170.414 239.532C171.554 239.758 172.735 239.642 173.809 239.198C174.883 238.754 175.801 238.003 176.447 237.038C177.093 236.074 177.437 234.94 177.437 233.78C177.437 232.225 176.818 230.733 175.716 229.633C174.614 228.534 173.119 227.916 171.56 227.916Z" fill="white"/>
<path d="M199.11 227.916C197.948 227.916 196.811 228.26 195.845 228.904C194.878 229.549 194.125 230.464 193.68 231.536C193.235 232.608 193.119 233.787 193.346 234.924C193.573 236.062 194.132 237.107 194.954 237.927C195.776 238.747 196.823 239.306 197.963 239.532C199.103 239.758 200.285 239.642 201.359 239.198C202.433 238.754 203.351 238.003 203.997 237.038C204.642 236.074 204.987 234.94 204.987 233.78C204.987 232.225 204.368 230.733 203.266 229.633C202.164 228.534 200.669 227.916 199.11 227.916Z" fill="white"/>
<path d="M226.704 227.916C225.542 227.918 224.407 228.264 223.442 228.909C222.477 229.555 221.725 230.472 221.282 231.544C220.839 232.615 220.724 233.794 220.952 234.931C221.18 236.068 221.741 237.112 222.563 237.931C223.385 238.75 224.433 239.307 225.572 239.533C226.712 239.758 227.893 239.641 228.967 239.197C230.04 238.753 230.957 238.001 231.602 237.037C232.248 236.073 232.592 234.94 232.592 233.78C232.592 233.009 232.44 232.246 232.144 231.534C231.848 230.821 231.414 230.174 230.867 229.63C230.32 229.085 229.671 228.653 228.956 228.359C228.242 228.065 227.477 227.914 226.704 227.916Z" fill="white"/>
<path d="M254.309 227.916C253.146 227.916 252.01 228.26 251.044 228.904C250.077 229.549 249.324 230.464 248.879 231.536C248.434 232.608 248.318 233.787 248.545 234.924C248.771 236.062 249.331 237.107 250.153 237.927C250.975 238.747 252.022 239.306 253.162 239.532C254.302 239.758 255.484 239.642 256.558 239.198C257.632 238.754 258.55 238.003 259.195 237.038C259.841 236.074 260.186 234.94 260.186 233.78C260.186 232.225 259.567 230.733 258.464 229.633C257.362 228.534 255.867 227.916 254.309 227.916Z" fill="white"/>
<path d="M33.4815 257.314C32.3192 257.314 31.1829 257.658 30.2164 258.302C29.25 258.947 28.4967 259.863 28.0519 260.934C27.607 262.006 27.4907 263.185 27.7174 264.323C27.9442 265.46 28.5039 266.505 29.3259 267.325C30.1478 268.145 31.195 268.704 32.335 268.93C33.4751 269.157 34.6567 269.04 35.7306 268.597C36.8045 268.153 37.7224 267.401 38.3682 266.437C39.014 265.472 39.3586 264.338 39.3586 263.179C39.3586 262.408 39.2066 261.646 38.9113 260.934C38.6159 260.223 38.183 259.576 37.6373 259.032C37.0916 258.487 36.4436 258.055 35.7306 257.761C35.0176 257.466 34.2533 257.314 33.4815 257.314Z" fill="white"/>
<path d="M61.0865 269.043C64.3324 269.043 66.9636 266.417 66.9636 263.179C66.9636 259.94 64.3324 257.314 61.0865 257.314C57.8407 257.314 55.2095 259.94 55.2095 263.179C55.2095 266.417 57.8407 269.043 61.0865 269.043Z" fill="white"/>
<path d="M88.6915 257.314C87.5291 257.314 86.3929 257.658 85.4264 258.302C84.4599 258.947 83.7066 259.863 83.2618 260.934C82.817 262.006 82.7006 263.185 82.9274 264.323C83.1542 265.46 83.7138 266.505 84.5358 267.325C85.3577 268.145 86.4049 268.704 87.5449 268.93C88.6849 269.157 89.8667 269.04 90.9406 268.597C92.0145 268.153 92.9323 267.401 93.5781 266.437C94.2238 265.472 94.5686 264.338 94.5686 263.179C94.5686 261.623 93.9493 260.132 92.8472 259.032C91.745 257.932 90.2502 257.314 88.6915 257.314Z" fill="white"/>
<path d="M116.296 269.043C119.542 269.043 122.173 266.417 122.173 263.179C122.173 259.94 119.542 257.314 116.296 257.314C113.05 257.314 110.419 259.94 110.419 263.179C110.419 266.417 113.05 269.043 116.296 269.043Z" fill="white"/>
<path d="M143.9 257.314C142.738 257.314 141.602 257.658 140.635 258.302C139.669 258.947 138.916 259.863 138.471 260.934C138.026 262.006 137.91 263.185 138.136 264.323C138.363 265.46 138.923 266.505 139.745 267.325C140.567 268.145 141.614 268.704 142.754 268.93C143.894 269.157 145.076 269.04 146.15 268.597C147.223 268.153 148.141 267.401 148.787 266.437C149.433 265.472 149.778 264.338 149.778 263.179C149.778 261.623 149.158 260.132 148.056 259.032C146.954 257.932 145.459 257.314 143.9 257.314Z" fill="white"/>
<path d="M171.56 257.314C170.398 257.314 169.262 257.658 168.295 258.302C167.329 258.947 166.575 259.863 166.13 260.934C165.686 262.006 165.569 263.185 165.796 264.323C166.023 265.46 166.582 266.505 167.404 267.325C168.226 268.145 169.274 268.704 170.414 268.93C171.554 269.157 172.735 269.04 173.809 268.597C174.883 268.153 175.801 267.401 176.447 266.437C177.093 265.472 177.437 264.338 177.437 263.179C177.437 261.623 176.818 260.132 175.716 259.032C174.614 257.932 173.119 257.314 171.56 257.314Z" fill="white"/>
<path d="M199.11 269.043C202.356 269.043 204.987 266.417 204.987 263.179C204.987 259.94 202.356 257.314 199.11 257.314C195.864 257.314 193.233 259.94 193.233 263.179C193.233 266.417 195.864 269.043 199.11 269.043Z" fill="white"/>
<path d="M226.704 257.314C225.542 257.316 224.407 257.662 223.442 258.308C222.477 258.953 221.725 259.87 221.282 260.942C220.839 262.014 220.724 263.192 220.952 264.329C221.18 265.466 221.741 266.51 222.563 267.329C223.385 268.148 224.433 268.706 225.572 268.931C226.712 269.156 227.893 269.04 228.967 268.596C230.04 268.151 230.957 267.4 231.602 266.436C232.248 265.471 232.592 264.338 232.592 263.179C232.592 262.407 232.44 261.644 232.144 260.932C231.848 260.22 231.414 259.573 230.867 259.028C230.32 258.483 229.671 258.051 228.956 257.757C228.242 257.463 227.477 257.313 226.704 257.314Z" fill="white"/>
<path d="M254.309 257.314C253.146 257.314 252.01 257.658 251.044 258.302C250.077 258.947 249.324 259.863 248.879 260.934C248.434 262.006 248.318 263.185 248.545 264.323C248.771 265.46 249.331 266.505 250.153 267.325C250.975 268.145 252.022 268.704 253.162 268.93C254.302 269.157 255.484 269.04 256.558 268.597C257.632 268.153 258.55 267.401 259.195 266.437C259.841 265.472 260.186 264.338 260.186 263.179C260.186 261.623 259.567 260.132 258.464 259.032C257.362 257.932 255.867 257.314 254.309 257.314Z" fill="white"/>
<path d="M61.0865 298.43C64.3324 298.43 66.9636 295.805 66.9636 292.566C66.9636 289.327 64.3324 286.702 61.0865 286.702C57.8407 286.702 55.2095 289.327 55.2095 292.566C55.2095 295.805 57.8407 298.43 61.0865 298.43Z" fill="white"/>
<path d="M88.6915 286.702C87.5291 286.702 86.3929 287.045 85.4264 287.69C84.4599 288.334 83.7066 289.25 83.2618 290.322C82.817 291.393 82.7006 292.572 82.9274 293.71C83.1542 294.848 83.7138 295.893 84.5358 296.713C85.3577 297.533 86.4049 298.091 87.5449 298.318C88.6849 298.544 89.8667 298.428 90.9406 297.984C92.0145 297.54 92.9323 296.788 93.5781 295.824C94.2238 294.86 94.5686 293.726 94.5686 292.566C94.5686 291.011 93.9493 289.519 92.8472 288.419C91.745 287.319 90.2502 286.702 88.6915 286.702Z" fill="white"/>
<path d="M116.296 298.43C119.542 298.43 122.173 295.805 122.173 292.566C122.173 289.327 119.542 286.702 116.296 286.702C113.05 286.702 110.419 289.327 110.419 292.566C110.419 295.805 113.05 298.43 116.296 298.43Z" fill="white"/>
<path d="M143.9 286.702C142.738 286.702 141.602 287.045 140.635 287.69C139.669 288.334 138.916 289.25 138.471 290.322C138.026 291.393 137.91 292.572 138.136 293.71C138.363 294.848 138.923 295.893 139.745 296.713C140.567 297.533 141.614 298.091 142.754 298.318C143.894 298.544 145.076 298.428 146.15 297.984C147.223 297.54 148.141 296.788 148.787 295.824C149.433 294.86 149.778 293.726 149.778 292.566C149.778 291.011 149.158 289.519 148.056 288.419C146.954 287.319 145.459 286.702 143.9 286.702Z" fill="white"/>
<path d="M171.56 286.702C170.398 286.702 169.262 287.045 168.295 287.69C167.329 288.334 166.575 289.25 166.13 290.322C165.686 291.393 165.569 292.572 165.796 293.71C166.023 294.848 166.582 295.893 167.404 296.713C168.226 297.533 169.274 298.091 170.414 298.318C171.554 298.544 172.735 298.428 173.809 297.984C174.883 297.54 175.801 296.788 176.447 295.824C177.093 294.86 177.437 293.726 177.437 292.566C177.437 291.011 176.818 289.519 175.716 288.419C174.614 287.319 173.119 286.702 171.56 286.702Z" fill="white"/>
<path d="M199.11 298.43C202.356 298.43 204.987 295.805 204.987 292.566C204.987 289.327 202.356 286.702 199.11 286.702C195.864 286.702 193.233 289.327 193.233 292.566C193.233 295.805 195.864 298.43 199.11 298.43Z" fill="white"/>
<path d="M226.704 286.702C225.542 286.704 224.407 287.049 223.442 287.695C222.477 288.341 221.725 289.257 221.282 290.329C220.839 291.401 220.724 292.58 220.952 293.717C221.18 294.854 221.741 295.897 222.563 296.717C223.385 297.536 224.433 298.093 225.572 298.318C226.712 298.544 227.893 298.427 228.967 297.983C230.04 297.539 230.957 296.787 231.602 295.823C232.248 294.859 232.592 293.725 232.592 292.566C232.592 291.795 232.44 291.031 232.144 290.319C231.848 289.607 231.414 288.96 230.867 288.415C230.32 287.871 229.671 287.439 228.956 287.145C228.242 286.851 227.477 286.7 226.704 286.702Z" fill="white"/>
<path d="M254.309 286.702C253.146 286.702 252.01 287.045 251.044 287.69C250.077 288.334 249.324 289.25 248.879 290.322C248.434 291.393 248.318 292.572 248.545 293.71C248.771 294.848 249.331 295.893 250.153 296.713C250.975 297.533 252.022 298.091 253.162 298.318C254.302 298.544 255.484 298.428 256.558 297.984C257.632 297.54 258.55 296.788 259.195 295.824C259.841 294.86 260.186 293.726 260.186 292.566C260.186 291.011 259.567 289.519 258.464 288.419C257.362 287.319 255.867 286.702 254.309 286.702Z" fill="white"/>
<path d="M88.6914 316.089C87.5259 316.087 86.386 316.43 85.4161 317.075C84.4462 317.719 83.6898 318.637 83.2428 319.711C82.7958 320.785 82.6782 321.967 82.9051 323.108C83.1319 324.249 83.693 325.296 84.5171 326.119C85.3412 326.941 86.3913 327.501 87.5345 327.727C88.6777 327.954 89.8624 327.836 90.9387 327.39C92.0151 326.944 92.9346 326.189 93.5807 325.222C94.2269 324.254 94.5706 323.116 94.5685 321.953C94.5685 320.398 93.9492 318.906 92.8471 317.807C91.7449 316.707 90.2501 316.089 88.6914 316.089Z" fill="white"/>
<path d="M116.296 327.818C119.542 327.818 122.173 325.192 122.173 321.953C122.173 318.715 119.542 316.089 116.296 316.089C113.05 316.089 110.419 318.715 110.419 321.953C110.419 325.192 113.05 327.818 116.296 327.818Z" fill="white"/>
<path d="M143.901 316.089C142.735 316.087 141.595 316.43 140.626 317.075C139.656 317.719 138.899 318.637 138.452 319.711C138.005 320.785 137.888 321.967 138.115 323.108C138.341 324.249 138.902 325.296 139.726 326.119C140.551 326.941 141.601 327.501 142.744 327.727C143.887 327.954 145.072 327.836 146.148 327.39C147.225 326.944 148.144 326.189 148.79 325.222C149.436 324.254 149.78 323.116 149.778 321.953C149.778 320.398 149.159 318.906 148.057 317.807C146.954 316.707 145.46 316.089 143.901 316.089Z" fill="white"/>
<path d="M171.56 316.089C170.395 316.087 169.255 316.43 168.285 317.075C167.315 317.719 166.558 318.637 166.111 319.711C165.664 320.785 165.547 321.967 165.774 323.108C166.001 324.249 166.562 325.296 167.386 326.119C168.21 326.941 169.26 327.501 170.403 327.727C171.546 327.954 172.731 327.836 173.807 327.39C174.884 326.944 175.803 326.189 176.449 325.222C177.096 324.254 177.439 323.116 177.437 321.953C177.437 320.398 176.818 318.906 175.716 317.807C174.614 316.707 173.119 316.089 171.56 316.089Z" fill="white"/>
<path d="M199.11 327.818C202.356 327.818 204.987 325.192 204.987 321.953C204.987 318.715 202.356 316.089 199.11 316.089C195.864 316.089 193.233 318.715 193.233 321.953C193.233 325.192 195.864 327.818 199.11 327.818Z" fill="white"/>
<path d="M226.704 316.089C225.539 316.089 224.4 316.434 223.432 317.08C222.463 317.726 221.708 318.644 221.263 319.718C220.818 320.793 220.702 321.974 220.93 323.114C221.158 324.254 221.72 325.301 222.544 326.123C223.369 326.944 224.419 327.502 225.562 327.728C226.705 327.953 227.889 327.836 228.965 327.389C230.04 326.943 230.959 326.188 231.605 325.22C232.251 324.253 232.594 323.116 232.592 321.953C232.592 321.182 232.44 320.419 232.143 319.707C231.847 318.994 231.414 318.347 230.867 317.803C230.32 317.258 229.671 316.826 228.956 316.532C228.242 316.238 227.477 316.088 226.704 316.089Z" fill="white"/>
<path d="M254.309 316.089C253.143 316.087 252.003 316.43 251.033 317.075C250.063 317.719 249.307 318.637 248.86 319.711C248.413 320.785 248.295 321.967 248.522 323.108C248.749 324.249 249.31 325.296 250.134 326.119C250.958 326.941 252.008 327.501 253.152 327.727C254.295 327.954 255.48 327.836 256.556 327.39C257.632 326.944 258.552 326.189 259.198 325.222C259.844 324.254 260.188 323.116 260.186 321.953C260.186 320.398 259.567 318.906 258.464 317.807C257.362 316.707 255.867 316.089 254.309 316.089Z" fill="white"/>
<path d="M143.901 345.487C142.374 345.485 140.908 346.08 139.815 347.144C142.86 347.696 145.936 348.176 149.046 348.583C148.55 347.651 147.809 346.87 146.903 346.325C145.997 345.78 144.959 345.49 143.901 345.487Z" fill="white"/>
<path d="M171.56 345.487C170.264 345.485 169.003 345.912 167.975 346.701C166.948 347.49 166.211 348.596 165.88 349.847C167.77 349.902 169.66 349.946 171.56 349.946C173.461 349.946 175.351 349.945 177.23 349.847C176.903 348.596 176.169 347.489 175.142 346.7C174.116 345.911 172.856 345.484 171.56 345.487Z" fill="white"/>
<path d="M193.954 348.583C197.056 348.176 200.133 347.696 203.185 347.144C202.536 346.512 201.748 346.039 200.885 345.764C200.021 345.488 199.104 345.417 198.208 345.557C197.312 345.697 196.461 346.043 195.723 346.568C194.984 347.093 194.379 347.783 193.954 348.583Z" fill="white"/>
</g>
<defs>
<clipPath id="clip0_80_5376">
<rect width="343" height="350" fill="white"/>
</clipPath>
</defs>
</svg>
